<svg xmlns="http://www.w3.org/2000/svg" width="51.334" height="56.56" viewBox="0 0 51.334 56.56">
  <g id="recopilacion-de-datos" transform="translate(-23.655)">
    <g id="Grupo_61415" data-name="Grupo 61415" transform="translate(23.655)">
      <path id="Trazado_110991" data-name="Trazado 110991" d="M117.725,56.934h3.1a1.1,1.1,0,1,0,0-2.209h-3.1a1.1,1.1,0,1,0,0,2.209Z" transform="translate(-106.35 -48.68)" fill="#3a3c07"/>
      <path id="Trazado_110992" data-name="Trazado 110992" d="M77.742,114.55h7.517a1.1,1.1,0,1,0,0-2.209H77.742a1.1,1.1,0,1,0,0,2.209Z" transform="translate(-70.784 -99.931)" fill="#3a3c07"/>
      <path id="Trazado_110993" data-name="Trazado 110993" d="M86.363,171.062a1.1,1.1,0,0,0-1.1-1.1H77.742a1.1,1.1,0,1,0,0,2.209h7.517A1.1,1.1,0,0,0,86.363,171.062Z" transform="translate(-70.784 -151.182)" fill="#3a3c07"/>
      <path id="Trazado_110994" data-name="Trazado 110994" d="M74.989,1.1a1.1,1.1,0,0,0-1.1-1.1H54.65a1.1,1.1,0,0,0-1.1,1.1V26.076a1.1,1.1,0,0,0,1.1,1.1h8.507v3.907a.849.849,0,0,1-.848.848H37.2a.849.849,0,0,1-.848-.848V27.181h7.638a1.1,1.1,0,0,0,1.1-1.1V1.1a1.1,1.1,0,0,0-1.1-1.1H24.76a1.1,1.1,0,0,0-1.1,1.1V26.076a1.1,1.1,0,0,0,1.1,1.1h9.386v3.907A3.061,3.061,0,0,0,37.2,34.145H48.651v4.606H39.2a1.1,1.1,0,0,0-.775.318l-.174.171a6.332,6.332,0,0,0-.545,8.416,6.332,6.332,0,0,0,.547,8.418,1.326,1.326,0,0,0,.947.487H60.314a1.328,1.328,0,0,0,.947-.487,6.332,6.332,0,0,0,.547-8.418,6.332,6.332,0,0,0-.546-8.416l-.174-.171a1.1,1.1,0,0,0-.775-.317H50.861V34.145H62.309a3.061,3.061,0,0,0,3.057-3.057V27.181h8.518a1.1,1.1,0,0,0,1.1-1.1V18.4a1.1,1.1,0,0,0-2.209,0v6.572H55.754V2.209H72.779V8.89a1.1,1.1,0,1,0,2.209,0V1.1Zm-49.124,1.1H42.889V24.972H25.864Zm33.99,52.141h-20.2a4.128,4.128,0,0,1,0-5.591h20.2a4.129,4.129,0,0,1,0,5.591Zm1.09-10.6a4.157,4.157,0,0,1-1.09,2.8h-20.2a4.128,4.128,0,0,1,0-5.591h20.2a4.157,4.157,0,0,1,1.09,2.8Z" transform="translate(-23.655)" fill="#3a3c07"/>
      <path id="Trazado_110995" data-name="Trazado 110995" d="M355.835,54.725h-7.517a1.1,1.1,0,0,0,0,2.209h7.517a1.1,1.1,0,0,0,0-2.209Z" transform="translate(-311.47 -48.68)" fill="#3a3c07"/>
      <path id="Trazado_110996" data-name="Trazado 110996" d="M355.835,112.341h-7.517a1.1,1.1,0,0,0,0,2.209h7.517a1.1,1.1,0,0,0,0-2.209Z" transform="translate(-311.47 -99.931)" fill="#3a3c07"/>
      <path id="Trazado_110997" data-name="Trazado 110997" d="M355.835,169.957h-7.517a1.1,1.1,0,0,0,0,2.209h7.517a1.1,1.1,0,0,0,0-2.209Z" transform="translate(-311.47 -151.182)" fill="#3a3c07"/>
      <path id="Trazado_110998" data-name="Trazado 110998" d="M76.736,56.291a1.1,1.1,0,1,0,.431-1.355A1.114,1.114,0,0,0,76.736,56.291Z" transform="translate(-70.799 -48.719)" fill="#3a3c07"/>
      <path id="Trazado_110999" data-name="Trazado 110999" d="M184.937,387.2a1.1,1.1,0,1,0-.6,1.443A1.115,1.115,0,0,0,184.937,387.2Z" transform="translate(-165.232 -343.82)" fill="#3a3c07"/>
      <path id="Trazado_111000" data-name="Trazado 111000" d="M227.464,387.2a1.1,1.1,0,1,0-.6,1.443A1.115,1.115,0,0,0,227.464,387.2Z" transform="translate(-203.062 -343.818)" fill="#3a3c07"/>
      <path id="Trazado_111001" data-name="Trazado 111001" d="M184.941,457.318a1.1,1.1,0,1,0-.6,1.443A1.116,1.116,0,0,0,184.941,457.318Z" transform="translate(-165.236 -406.195)" fill="#3a3c07"/>
      <path id="Trazado_111002" data-name="Trazado 111002" d="M227.446,457.3a1.1,1.1,0,1,0-.452,1.37A1.114,1.114,0,0,0,227.446,457.3Z" transform="translate(-203.044 -406.176)" fill="#3a3c07"/>
      <path id="Trazado_111003" data-name="Trazado 111003" d="M470.4,112.871a1.1,1.1,0,1,0-.305,1.532,1.117,1.117,0,0,0,.305-1.532Z" transform="translate(-419.256 -99.969)" fill="#3a3c07"/>
    </g>
  </g>
</svg>
