<svg xmlns="http://www.w3.org/2000/svg" width="105" height="105" viewBox="0 0 105 105">
  <g id="Grupo_61310" data-name="Grupo 61310" transform="translate(-904 -3167)">
    <g id="buying-decision" transform="translate(894 3157)">
      <path id="Trazado_110888" data-name="Trazado 110888" d="M184,36.533A12.533,12.533,0,0,1,196.533,24H216.9V44.367H184Z" transform="translate(-135.1 -6.433)" fill="#ffceb6"/>
      <path id="Trazado_110889" data-name="Trazado 110889" d="M112,96h40.733v29.767H112Z" transform="translate(-77.2 -64.333)" fill="#db8638"/>
      <path id="Trazado_110890" data-name="Trazado 110890" d="M99.2,295l-9.4-47H33.4L24,295Z" transform="translate(-6.434 -186.567)" fill="#a0a603"/>
      <path id="Trazado_110891" data-name="Trazado 110891" d="M330.8,295H312l9.4-47Z" transform="translate(-238.034 -186.567)" fill="#7f8400"/>
      <path id="Trazado_110892" data-name="Trazado 110892" d="M224,56V73.635a2.731,2.731,0,0,0,5.323.864l2.511-7.532a5.668,5.668,0,0,0,3.133-5.07V56Z" transform="translate(-167.267 -32.167)" fill="#ffceb6"/>
      <path id="Trazado_110893" data-name="Trazado 110893" d="M192,96v9.4l3.133-3.133,3.133,3.133V96Z" transform="translate(-141.534 -64.333)" fill="#f7a156"/>
      <path id="Trazado_110894" data-name="Trazado 110894" d="M352,24h28.2V44.367H352Z" transform="translate(-270.2 -6.433)" fill="#529ad9"/>
      <path id="Trazado_110895" data-name="Trazado 110895" d="M47.333,30.1H34.8a1.567,1.567,0,0,0-1.567,1.567v28.2H26.966a1.567,1.567,0,0,0-1.536,1.259l-9.4,47A1.567,1.567,0,0,0,17.566,110h75.2a1.567,1.567,0,0,0,1.536-1.874l-9.4-47a1.567,1.567,0,0,0-1.536-1.259H77.1V39.5H110V36.367H83.366V19.133H110V16H61.433a14.116,14.116,0,0,0-14.1,14.1Zm7.833,7.184-.459-.459a1.567,1.567,0,0,0-2.216,0l-.459.459V33.233h3.133ZM28.251,63H42.633v7.833H39.5v3.133h9.4V70.833H45.766V63H61.433v7.833H58.3v3.133h9.4V70.833H64.566V63H81.455l-8.773,43.867h-53.2Zm33.182-3.133H45.766V58.3a7.833,7.833,0,1,1,15.667,0ZM81.8,98.384l-5.282,5.282L81.8,77.255Zm1.567,2.865,5.618,5.618H77.749Zm1.567-2.865V77.255l5.282,26.411ZM64.566,59.867V58.3a10.967,10.967,0,0,0-21.933,0v1.567H36.366V33.233H48.9v7.833a1.567,1.567,0,0,0,2.674,1.108L53.6,40.149l1.575,1.575a4.3,4.3,0,0,0,8.367,1.1l2.32-6.959a7.194,7.194,0,0,0,2.507-2.636h5.6V59.866Zm15.667-23.5H77.1v-4.7A1.567,1.567,0,0,0,75.533,30.1H69.255c.006-.123.012-.246.012-.37v-5.9H66.133v5.9A4.079,4.079,0,0,1,63.866,33.4a1.567,1.567,0,0,0-.786.906l-2.511,7.532a1.165,1.165,0,0,1-2.27-.368v-14.5H55.166V30.1h-4.7A10.979,10.979,0,0,1,61.433,19.133h18.8Z" transform="translate(0)" fill="#3a3c07"/>
    </g>
    <rect id="Rectángulo_6028" data-name="Rectángulo 6028" width="105" height="105" transform="translate(904 3167)" fill="none"/>
  </g>
</svg>
