<svg xmlns="http://www.w3.org/2000/svg" width="105" height="105" viewBox="0 0 105 105">
  <g id="Grupo_61421" data-name="Grupo 61421" transform="translate(-326 -504)">
    <rect id="Rectángulo_5987" data-name="Rectángulo 5987" width="105" height="105" transform="translate(326 504)" fill="none"/>
    <g id="cuantitativo" transform="translate(333.958 511.956)">
      <path id="Trazado_111004" data-name="Trazado 111004" d="M8,8H76.973V82.721H8ZM8,8" transform="translate(-6.563 -6.563)" fill="#fcd770"/>
      <path id="Trazado_111005" data-name="Trazado 111005" d="M354.943,346.335a6.056,6.056,0,0,1,1.8,4.311,6.106,6.106,0,0,1-10.418,4.311l-9.7-9.713L328,336.622,336.622,328l2.874,2.874Zm0,0" transform="translate(-269.085 -269.086)" fill="#ef7385"/>
      <path id="Trazado_111006" data-name="Trazado 111006" d="M320.2,315.737l-4.067,4.067-5.417-5.417a23.679,23.679,0,0,0,4.067-4.067Zm0,0" transform="translate(-254.909 -254.581)" fill="#aab2bd"/>
      <path id="Trazado_111007" data-name="Trazado 111007" d="M149.982,126.991A22.991,22.991,0,1,1,126.991,104,22.991,22.991,0,0,1,149.982,126.991Zm0,0" transform="translate(-85.32 -85.32)" fill="#ccd1d9"/>
      <path id="Trazado_111008" data-name="Trazado 111008" d="M170.486,153.243A17.243,17.243,0,1,1,153.243,136,17.243,17.243,0,0,1,170.486,153.243Zm0,0" transform="translate(-111.572 -111.572)" fill="#529ad9"/>
      <g id="Grupo_61426" data-name="Grupo 61426" transform="translate(7.185 10.058)">
        <path id="Trazado_111009" data-name="Trazado 111009" d="M330.874,64a2.874,2.874,0,0,1,0,5.748,2.734,2.734,0,0,1-1.236-.288A2.869,2.869,0,0,1,330.874,64Zm0,0" transform="translate(-276.27 -62.563)" fill="#ff826e"/>
        <path id="Trazado_111010" data-name="Trazado 111010" d="M248.6,249.12a2.873,2.873,0,0,1,2.27-1.12,2.734,2.734,0,0,1,1.236.288A2.871,2.871,0,1,1,248,250.874,2.79,2.79,0,0,1,248.6,249.12Zm0,0" transform="translate(-210.639 -213.513)" fill="#ff826e"/>
        <path id="Trazado_111011" data-name="Trazado 111011" d="M181.145,196.628a2.868,2.868,0,1,1-3.219-4.455,2.64,2.64,0,0,1,.949-.173,2.882,2.882,0,0,1,2.874,2.874A2.789,2.789,0,0,1,181.145,196.628Zm0,0" transform="translate(-151.572 -167.572)" fill="#ff826e"/>
        <path id="Trazado_111012" data-name="Trazado 111012" d="M128.546,60.555A2.836,2.836,0,0,1,128,58.874a2.874,2.874,0,1,1,3.822,2.7,2.64,2.64,0,0,1-.949.173,2.885,2.885,0,0,1-2.328-1.193Zm0,0" transform="translate(-112.194 -56)" fill="#ff826e"/>
        <path id="Trazado_111013" data-name="Trazado 111013" d="M45.2,121.193a2.836,2.836,0,0,1,.546,1.681,2.88,2.88,0,1,1-.546-1.681Zm0,0" transform="translate(-40 -108.505)" fill="#ff826e"/>
      </g>
      <path id="Trazado_111014" data-name="Trazado 111014" d="M86.877,76.23,71.847,61.2V0H0V77.594H66.936l9.29,9.29A7.533,7.533,0,0,0,86.877,76.23Zm-5.327,9.986a4.629,4.629,0,0,1-3.295-1.364L68.126,74.72H2.874V2.873h66.1V58.325l-1.443-1.443-2.242,2.242L61.735,55.57a24.357,24.357,0,0,0-2.8-31.166L61.4,18.64c.132.013.258.04.394.04a4.326,4.326,0,1,0-3.009-1.233L56.658,22.42a24.317,24.317,0,0,0-26.69-2.183l-1.4-3.973a4.333,4.333,0,1,0-6.815-2.116L12.5,20.878a4.273,4.273,0,0,0-2.437-.761,4.311,4.311,0,1,0,4.311,4.311,4.252,4.252,0,0,0-.2-1.216l9.254-6.73a4.286,4.286,0,0,0,2.435.761l1.618,4.584a24.343,24.343,0,0,0-.47,39.337l-2.23,7.808H22.991V66.1H20.117v2.874H17.244V63.225H14.37v5.748H11.5V60.351H8.622v8.622H5.748v2.874h21.2l2.575-9.012a24.265,24.265,0,0,0,26.124-1.158l3.543,3.544-2.313,2.316,5.312,5.312,2.032-2.031-3.28-3.281,6.59-6.59L84.847,78.262a4.66,4.66,0,0,1-3.3,7.954ZM61.224,63.189l-3.317-3.317a24.789,24.789,0,0,0,2.029-2.035l3.319,3.319ZM20.117,41.671a21.508,21.508,0,0,1,8.364-17.009l1.025,2.9A18.619,18.619,0,0,0,40.133,60.274l.234-2.865a15.743,15.743,0,0,1-9.82-26.9l1.24,3.514A4.293,4.293,0,0,0,36.8,40.982l6.541,5.088a4.23,4.23,0,0,0-.237,1.348,4.311,4.311,0,1,0,7.32-3.078L55.1,33.4a15.64,15.64,0,0,1,2.379,8.275,15.878,15.878,0,0,1-14.5,15.739l.234,2.865a18.771,18.771,0,0,0,17.142-18.6,18.561,18.561,0,0,0-3.926-11.386l1.27-2.978A21.54,21.54,0,1,1,20.117,41.671ZM54.293,27.962a18.565,18.565,0,0,0-11.082-4.9l-.234,2.865A15.73,15.73,0,0,1,53.082,30.8L47.813,43.148c-.132-.013-.258-.04-.394-.04A4.268,4.268,0,0,0,45.1,43.8l-6.541-5.088A4.23,4.23,0,0,0,38.8,37.36a4.316,4.316,0,0,0-4.308-4.311L32.909,28.57a15.6,15.6,0,0,1,7.458-2.638l-.234-2.865a18.448,18.448,0,0,0-8.211,2.708L30.944,23a21.437,21.437,0,0,1,24.549,2.147ZM47.419,45.981a1.437,1.437,0,1,1-1.437,1.437A1.439,1.439,0,0,1,47.419,45.981ZM34.487,35.923A1.437,1.437,0,1,1,33.05,37.36,1.439,1.439,0,0,1,34.487,35.923ZM60.352,14.369a1.437,1.437,0,1,1,1.437,1.437A1.439,1.439,0,0,1,60.352,14.369ZM24.428,12.932a1.437,1.437,0,1,1,1.437,1.437A1.439,1.439,0,0,1,24.428,12.932ZM11.5,24.427a1.437,1.437,0,1,1-1.437-1.437A1.439,1.439,0,0,1,11.5,24.427Zm0,0" transform="translate(0)" fill="#3a3c07"/>
    </g>
  </g>
</svg>
