<svg xmlns="http://www.w3.org/2000/svg" width="105" height="105" viewBox="0 0 105 105">
  <g id="Grupo_61740" data-name="Grupo 61740" transform="translate(-326 -504)">
    <rect id="Rectángulo_5987" data-name="Rectángulo 5987" width="105" height="105" transform="translate(326 504)" fill="none"/>
    <g id="satisfaction" transform="translate(334.121 515.747)">
      <path id="Trazado_111720" data-name="Trazado 111720" d="M92.791,37.106H77.54v3.731A1.472,1.472,0,0,1,76.07,42.3H33.733a6.858,6.858,0,0,1-2.76-.7L24.15,37.884c-.389-.213-.563-.5-.525-.778H8.366a.869.869,0,0,0-.867.867V109.1a.869.869,0,0,0,.867.867H92.791a.869.869,0,0,0,.867-.867V37.973a.869.869,0,0,0-.867-.867Zm0,0" transform="translate(-6.2 -30.26)" fill="#e6e9ed"/>
      <path id="Trazado_111721" data-name="Trazado 111721" d="M218.936,313.344a9.832,9.832,0,1,1-9.831-9.934A9.883,9.883,0,0,1,218.936,313.344Zm0,0" transform="translate(-164.728 -250.399)" fill="#ffc502"/>
      <path id="Trazado_111722" data-name="Trazado 111722" d="M76.393,313.344a9.832,9.832,0,1,1-9.831-9.934A9.883,9.883,0,0,1,76.393,313.344Zm0,0" transform="translate(-46.896 -250.399)" fill="#89c947"/>
      <path id="Trazado_111723" data-name="Trazado 111723" d="M361.507,313.344a9.832,9.832,0,1,1-9.832-9.934A9.884,9.884,0,0,1,361.507,313.344Zm0,0" transform="translate(-282.583 -250.399)" fill="#ef5050"/>
      <g id="Grupo_61743" data-name="Grupo 61743" transform="translate(9.835 19.093)">
        <path id="Trazado_111724" data-name="Trazado 111724" d="M66.785,117.325a.522.522,0,0,1-.52.52H57.251a.521.521,0,0,1-.52-.52v-9.05a.522.522,0,0,1,.52-.52h9.014a.522.522,0,0,1,.52.52Zm0,0" transform="translate(-56.731 -107.754)" fill="#fcdb67"/>
        <path id="Trazado_111725" data-name="Trazado 111725" d="M66.785,212.583a.522.522,0,0,1-.52.52H57.251a.521.521,0,0,1-.52-.52v-9.05a.521.521,0,0,1,.52-.52h9.014a.521.521,0,0,1,.52.52Zm0,0" transform="translate(-56.731 -186.498)" fill="#fcdb67"/>
        <path id="Trazado_111726" data-name="Trazado 111726" d="M286.9,117.325a.522.522,0,0,1-.52.52h-9.014a.521.521,0,0,1-.52-.52v-9.05a.522.522,0,0,1,.52-.52h9.014a.522.522,0,0,1,.52.52Zm0,0" transform="translate(-238.686 -107.754)" fill="#fcdb67"/>
        <path id="Trazado_111727" data-name="Trazado 111727" d="M286.9,212.583a.522.522,0,0,1-.52.52h-9.014a.521.521,0,0,1-.52-.52v-9.05a.521.521,0,0,1,.52-.52h9.014a.522.522,0,0,1,.52.52Zm0,0" transform="translate(-238.686 -186.498)" fill="#fcdb67"/>
      </g>
      <path id="Trazado_111728" data-name="Trazado 111728" d="M152.928,8a1.472,1.472,0,0,1,1.47,1.465v7.313a1.472,1.472,0,0,1-1.47,1.465H110.591a6.848,6.848,0,0,1-2.76-.7l-6.823-3.716c-.71-.387-.71-1.018,0-1.405L107.831,8.7a6.848,6.848,0,0,1,2.76-.7Zm0,0" transform="translate(-83.058 -6.2)" fill="#ffc502"/>
      <path id="Trazado_111729" data-name="Trazado 111729" d="M111.184,8h-.593a6.848,6.848,0,0,0-2.76.7l-6.823,3.716c-.71.387-.71,1.018,0,1.405l6.823,3.716a6.848,6.848,0,0,0,2.76.7h.593Zm0,0" transform="translate(-83.058 -6.2)" fill="#ffd5b3"/>
      <path id="Trazado_111730" data-name="Trazado 111730" d="M105.595,19.082l-4.586,2.5c-.71.387-.71,1.018,0,1.405l4.586,2.5Zm0,0" transform="translate(-83.058 -15.361)" fill="#775436"/>
      <path id="Trazado_111731" data-name="Trazado 111731" d="M370.869,16.778V9.465A1.472,1.472,0,0,0,369.4,8h-7.056V18.243H369.4a1.472,1.472,0,0,0,1.47-1.465Zm0,0" transform="translate(-299.529 -6.2)" fill="#fb8276"/>
      <path id="Trazado_111732" data-name="Trazado 111732" d="M171.323,29.609h-4.767a1.3,1.3,0,1,0,0,2.6h4.334v70.26H103.8a1.3,1.3,0,0,0,0,2.6h67.523a2.169,2.169,0,0,0,2.167-2.167V31.776A2.169,2.169,0,0,0,171.323,29.609Zm0,0" transform="translate(-84.731 -24.063)" fill="#3a3c07"/>
      <path id="Trazado_111733" data-name="Trazado 111733" d="M12.828,78.406H2.6V8.146H16.567a2.543,2.543,0,0,0,.762.619l6.823,3.716a8.1,8.1,0,0,0,3.382.861H69.87a2.771,2.771,0,0,0,2.77-2.766V8.146h3.116a1.3,1.3,0,1,0,0-2.6H72.641V3.265A2.771,2.771,0,0,0,69.87.5H27.533a8.1,8.1,0,0,0-3.382.861L17.328,5.077a2.648,2.648,0,0,0-.628.469H2.167A2.169,2.169,0,0,0,0,7.713V78.839a2.169,2.169,0,0,0,2.167,2.167H12.828a1.3,1.3,0,1,0,0-2.6ZM64.115,3.1H69.87a.172.172,0,0,1,.17.165v7.313a.172.172,0,0,1-.17.165H64.115Zm-34.689,0H61.515V5.621H29.426Zm0,5.121H61.515v2.521H29.426ZM23.837,4.493,25.4,3.645a5.423,5.423,0,0,1,1.43-.465v7.484a5.462,5.462,0,0,1-1.431-.465L23.837,9.35Zm-2.6,1.417V7.933L19.379,6.921Zm0,0" transform="translate(0 0)" fill="#3a3c07"/>
      <path id="Trazado_111734" data-name="Trazado 111734" d="M202.906,318.382a11.09,11.09,0,0,0,10.634-7.908,1.3,1.3,0,0,0-2.486-.763,8.5,8.5,0,0,1-8.148,6.07,8.634,8.634,0,1,1,8.048-11.5,1.3,1.3,0,0,0,2.456-.855,11.153,11.153,0,1,0-10.5,14.958Zm0,0" transform="translate(-158.528 -244.202)" fill="#3a3c07"/>
      <path id="Trazado_111735" data-name="Trazado 111735" d="M226.944,341.135v-1.023a1.3,1.3,0,0,0-2.6,0v1.023a1.3,1.3,0,0,0,2.6,0Zm0,0" transform="translate(-185.452 -279.664)" fill="#3a3c07"/>
      <path id="Trazado_111736" data-name="Trazado 111736" d="M275.233,341.135v-1.023a1.3,1.3,0,0,0-2.6,0v1.023a1.3,1.3,0,1,0,2.6,0Zm0,0" transform="translate(-225.37 -279.664)" fill="#3a3c07"/>
      <path id="Trazado_111737" data-name="Trazado 111737" d="M233.163,374.42h5.764a1.3,1.3,0,1,0,0-2.6h-5.764a1.3,1.3,0,1,0,0,2.6Zm0,0" transform="translate(-191.668 -306.949)" fill="#3a3c07"/>
      <path id="Trazado_111738" data-name="Trazado 111738" d="M60.362,318.379A11.234,11.234,0,1,0,49.23,307.145,11.2,11.2,0,0,0,60.362,318.379Zm0-19.868a8.634,8.634,0,1,1-8.532,8.634A8.593,8.593,0,0,1,60.362,298.511Zm0,0" transform="translate(-40.696 -244.199)" fill="#3a3c07"/>
      <path id="Trazado_111739" data-name="Trazado 111739" d="M83.1,342.435a1.3,1.3,0,0,0,1.3-1.3v-1.023a1.3,1.3,0,0,0-2.6,0v1.023A1.3,1.3,0,0,0,83.1,342.435Zm0,0" transform="translate(-67.62 -279.664)" fill="#3a3c07"/>
      <path id="Trazado_111740" data-name="Trazado 111740" d="M131.39,342.435a1.3,1.3,0,0,0,1.3-1.3v-1.023a1.3,1.3,0,0,0-2.6,0v1.023A1.3,1.3,0,0,0,131.39,342.435Zm0,0" transform="translate(-107.538 -279.664)" fill="#3a3c07"/>
      <path id="Trazado_111741" data-name="Trazado 111741" d="M87.891,368.214a4.442,4.442,0,0,0,8.861,0,1.3,1.3,0,1,0-2.6,0,1.862,1.862,0,0,1-3.66,0,1.3,1.3,0,1,0-2.6,0Zm0,0" transform="translate(-72.654 -302.894)" fill="#3a3c07"/>
      <path id="Trazado_111742" data-name="Trazado 111742" d="M345.475,318.379a11.234,11.234,0,1,0-11.131-11.234A11.2,11.2,0,0,0,345.475,318.379Zm0-19.868a8.634,8.634,0,1,1-8.531,8.634A8.593,8.593,0,0,1,345.475,298.511Zm0,0" transform="translate(-276.383 -244.199)" fill="#3a3c07"/>
      <path id="Trazado_111743" data-name="Trazado 111743" d="M368.21,342.435a1.3,1.3,0,0,0,1.3-1.3v-1.023a1.3,1.3,0,0,0-2.6,0v1.023A1.3,1.3,0,0,0,368.21,342.435Zm0,0" transform="translate(-303.304 -279.664)" fill="#3a3c07"/>
      <path id="Trazado_111744" data-name="Trazado 111744" d="M416.5,342.435a1.3,1.3,0,0,0,1.3-1.3v-1.023a1.3,1.3,0,0,0-2.6,0v1.023A1.3,1.3,0,0,0,416.5,342.435Zm0,0" transform="translate(-343.225 -279.664)" fill="#3a3c07"/>
      <path id="Trazado_111745" data-name="Trazado 111745" d="M373,367.828a1.3,1.3,0,1,0,2.6,0,1.863,1.863,0,0,1,3.661,0,1.3,1.3,0,1,0,2.6,0,4.443,4.443,0,0,0-8.862,0Zm0,0" transform="translate(-308.338 -300.246)" fill="#3a3c07"/>
      <path id="Trazado_111746" data-name="Trazado 111746" d="M51.051,112.948h9.014a1.822,1.822,0,0,0,1.82-1.82v-7.505l.513-.516a1.3,1.3,0,0,0-.955-2.215,1.814,1.814,0,0,0-1.377-.634H51.051a1.822,1.822,0,0,0-1.82,1.82v9.05a1.821,1.821,0,0,0,1.82,1.82Zm.78-10.091H58.98l-3.189,3.212-1.05-1.058a1.3,1.3,0,0,0-1.846,1.832l1.606,1.618A1.8,1.8,0,0,0,55.79,109h0a1.8,1.8,0,0,0,1.289-.536l2.2-2.22v4.106H51.831Zm0,0" transform="translate(-40.696 -82.464)" fill="#3a3c07"/>
      <path id="Trazado_111747" data-name="Trazado 111747" d="M139.6,119.678h15.491a1.3,1.3,0,0,0,0-2.6H139.6a1.3,1.3,0,0,0,0,2.6Zm0,0" transform="translate(-114.322 -96.369)" fill="#3a3c07"/>
      <path id="Trazado_111748" data-name="Trazado 111748" d="M139.6,144.241h8.822a1.3,1.3,0,0,0,0-2.6H139.6a1.3,1.3,0,0,0,0,2.6Zm0,0" transform="translate(-114.322 -116.674)" fill="#3a3c07"/>
      <path id="Trazado_111749" data-name="Trazado 111749" d="M49.23,206.383a1.822,1.822,0,0,0,1.82,1.82h9.014a1.822,1.822,0,0,0,1.82-1.82v-9.05a1.822,1.822,0,0,0-1.82-1.82H51.051a1.822,1.822,0,0,0-1.82,1.82Zm2.6-8.27h7.454v7.49H51.831Zm0,0" transform="translate(-40.696 -161.206)" fill="#3a3c07"/>
      <path id="Trazado_111750" data-name="Trazado 111750" d="M139.6,214.936h15.491a1.3,1.3,0,0,0,0-2.6H139.6a1.3,1.3,0,0,0,0,2.6Zm0,0" transform="translate(-114.322 -175.113)" fill="#3a3c07"/>
      <path id="Trazado_111751" data-name="Trazado 111751" d="M149.719,238.2a1.3,1.3,0,0,0-1.3-1.3H139.6a1.3,1.3,0,1,0,0,2.6h8.822A1.3,1.3,0,0,0,149.719,238.2Zm0,0" transform="translate(-114.322 -195.415)" fill="#3a3c07"/>
      <path id="Trazado_111752" data-name="Trazado 111752" d="M271.164,112.945h9.014a1.822,1.822,0,0,0,1.82-1.82v-9.05a1.822,1.822,0,0,0-1.82-1.82h-9.014a1.822,1.822,0,0,0-1.82,1.82v9.05A1.822,1.822,0,0,0,271.164,112.945Zm.78-10.091H279.4v7.49h-7.454Zm0,0" transform="translate(-222.651 -82.461)" fill="#3a3c07"/>
      <path id="Trazado_111753" data-name="Trazado 111753" d="M358.406,118.378a1.3,1.3,0,0,0,1.3,1.3H375.2a1.3,1.3,0,0,0,0-2.6H359.706A1.3,1.3,0,0,0,358.406,118.378Zm0,0" transform="translate(-296.274 -96.369)" fill="#3a3c07"/>
      <path id="Trazado_111754" data-name="Trazado 111754" d="M359.706,144.241h8.822a1.3,1.3,0,0,0,0-2.6h-8.822a1.3,1.3,0,0,0,0,2.6Zm0,0" transform="translate(-296.274 -116.674)" fill="#3a3c07"/>
      <path id="Trazado_111755" data-name="Trazado 111755" d="M282,206.383v-9.05a1.822,1.822,0,0,0-1.82-1.82h-9.014a1.822,1.822,0,0,0-1.82,1.82v9.05a1.822,1.822,0,0,0,1.82,1.82h9.014A1.822,1.822,0,0,0,282,206.383Zm-2.6-.78h-7.454v-7.49H279.4Zm0,0" transform="translate(-222.651 -161.206)" fill="#3a3c07"/>
      <path id="Trazado_111756" data-name="Trazado 111756" d="M375.2,212.336H359.711a1.3,1.3,0,0,0,0,2.6H375.2a1.3,1.3,0,0,0,0-2.6Zm0,0" transform="translate(-296.278 -175.113)" fill="#3a3c07"/>
      <path id="Trazado_111757" data-name="Trazado 111757" d="M368.529,239.5a1.3,1.3,0,1,0,0-2.6h-8.822a1.3,1.3,0,1,0,0,2.6Zm0,0" transform="translate(-296.274 -195.415)" fill="#3a3c07"/>
    </g>
  </g>
</svg>
