<svg xmlns="http://www.w3.org/2000/svg" width="399" height="232" viewBox="0 0 399 232">
  <g id="Grupo_61760" data-name="Grupo 61760" transform="translate(-1021 -2906)">
    <rect id="Rectángulo_6058" data-name="Rectángulo 6058" width="399" height="193" rx="10" transform="translate(1021 2945)" fill="#a0a603" opacity="0.25"/>
    <g id="Grupo_61633" data-name="Grupo 61633" transform="translate(299 5)">
      <rect id="Rectángulo_6129" data-name="Rectángulo 6129" width="214" height="214" transform="translate(815 2901)" fill="none"/>
      <g id="Grupo_61634" data-name="Grupo 61634" transform="translate(793.285 2909)">
        <g id="Grupo_61601" data-name="Grupo 61601" transform="translate(37.715 15.647)">
          <g id="Grupo_61595" data-name="Grupo 61595" transform="translate(22.406 60.07)">
            <path id="Trazado_111297" data-name="Trazado 111297" d="M669.716,1589.566l-3.059,13.4,12.969,2.126,2.785-12.5S670.352,1589.2,669.716,1589.566Z" transform="translate(-628.365 -1525.468)" fill="#e28b6d"/>
            <path id="Trazado_111298" data-name="Trazado 111298" d="M573.979,1610.195s-12.689-.392-13.229.261l.1,12.2,13.395-.179Z" transform="translate(-552.907 -1540.103)" fill="#e28b6d"/>
            <path id="Trazado_111299" data-name="Trazado 111299" d="M585.338,1738.283l-9.85-11.849-.186-8.482-13.645.213.17,20.118Z" transform="translate(-553.554 -1616.962)" fill="#eb5d60"/>
            <path id="Trazado_111300" data-name="Trazado 111300" d="M668.68,1690.493l-7.255-13.091,1.365-6.124-12.8-3.117-3.786,16.589Z" transform="translate(-613.793 -1581.486)" fill="#eb5d60"/>
            <path id="Trazado_111301" data-name="Trazado 111301" d="M567.3,1367.125l4.835,19.356a58.4,58.4,0,0,0,4.9,12.9l19.079,36.5s-5.09,7.14-16.548,4.044-10.978,6.8-18.645,6.448c-5.042-.229-17.111-10.147-25.329.441,0,0-6.165-39.211,2.5-80.117Z" transform="translate(-533.472 -1366.693)" fill="#fbc343"/>
            <path id="Trazado_111302" data-name="Trazado 111302" d="M561.109,1653.383l.158,18.65,13.645-.213L574.5,1653.2Z" transform="translate(-553.163 -1570.829)" fill="#f9b384"/>
            <path id="Trazado_111303" data-name="Trazado 111303" d="M659.375,1645.428l12.8,3.117,2.264-10.164-12.969-2.126Z" transform="translate(-623.176 -1558.754)" fill="#f9b384"/>
            <rect id="Rectángulo_6114" data-name="Rectángulo 6114" width="7.723" height="1.149" transform="translate(40.566 97.142) rotate(-14.457)" fill="#6b2b2c"/>
            <rect id="Rectángulo_6115" data-name="Rectángulo 6115" width="7.88" height="1.15" transform="matrix(0.845, -0.536, 0.536, 0.845, 15.458, 112.9)" fill="#6b2b2c"/>
          </g>
          <g id="Grupo_61599" data-name="Grupo 61599" transform="translate(0 9.407)">
            <path id="Trazado_111304" data-name="Trazado 111304" d="M531.527,1271.557c17.425,9.235,39.21-1.216,39.21-1.216-1.223-35.2-5.75-38.663-5.75-38.663-6.827-5.6-12.2-4.9-12.2-4.9-12.232,1.735-19.2,12.243-23.158,23.586Z" transform="translate(-508.327 -1216.319)" fill="#1f3c88"/>
            <g id="Grupo_61596" data-name="Grupo 61596" transform="translate(56.66)">
              <path id="Trazado_111305" data-name="Trazado 111305" d="M723.194,1195.833c.6-4.109-1.171-1.37-1.171-1.37.2-3.722-1.568-2.592-1.568-2.592-.523-2.781-2.269.7-2.269.7s.178-2.091-.69-2.091-2.791,5.05-2.791,5.05-.345-2.614-1.223-2.436c-.46.094-1.213,3.409-1.819,6.5a18.588,18.588,0,0,1-1,3.363l9.219,3.278C721.119,1203.079,722.829,1198.4,723.194,1195.833Z" transform="translate(-693.973 -1190.48)" fill="#f9b384"/>
              <path id="Trazado_111306" data-name="Trazado 111306" d="M669.3,1233.887a18.459,18.459,0,0,1-5.932,7.814c-2.038,1.547-3.8,2.708-3.8,2.708a38.347,38.347,0,0,0-6.963-7.642c2.352,9.242.868,20.387.868,20.387,12.347,6.074,23.722-16.728,23.722-16.728s.574-1.353,1.32-3.26Z" transform="translate(-652.611 -1221.407)" fill="#1f3c88"/>
            </g>
            <g id="Grupo_61597" data-name="Grupo 61597" transform="translate(0 58.276)">
              <rect id="Rectángulo_6116" data-name="Rectángulo 6116" width="28.947" height="21.978" transform="translate(6.794 0.536) rotate(16.541)" fill="#fff"/>
              <path id="Trazado_111307" data-name="Trazado 111307" d="M484.117,1423.554l-28.576-8.486,6.5-21.9,28.576,8.486Zm-27.5-9.068,26.922,8,6.012-20.242-26.922-8Z" transform="translate(-455.541 -1393.172)" fill="#86a7ff"/>
            </g>
            <g id="Grupo_61598" data-name="Grupo 61598" transform="translate(13.934 29.81)">
              <path id="Trazado_111308" data-name="Trazado 111308" d="M527.369,1299.119c-5.6,4.644-9.423,32.277-9.423,32.277l-4.966,1.161-5.815-2.411s-.274-19.51,8.1-35.981Z" transform="translate(-506.256 -1294.165)" fill="#1f3c88"/>
              <path id="Trazado_111309" data-name="Trazado 111309" d="M504.932,1418.707c-.515,3.672-1.221,9.187-.794,9.493.6.435,1.918-1.349,2.093-1.579-.08.251-.969,2.11.707,2.209.837.049,1.644-1.161,1.846-1.644-.1.741-.109,2.28.785,2.313,1.252.047,2.029-1.494,2.22-1.925-.174.441-.723,1.93.409,1.944,1.833.023,2.9-5.283,3.5-9.382v-.009Z" transform="translate(-504.006 -1382.9)" fill="#f9b384"/>
            </g>
            <path id="Trazado_111310" data-name="Trazado 111310" d="M543.607,1343.032h-.035a.432.432,0,0,1-.4-.465c1.145-14.2,9.375-32.24,9.458-32.419a.431.431,0,1,1,.784.359c-.082.179-8.249,18.086-9.382,32.129A.432.432,0,0,1,543.607,1343.032Z" transform="translate(-517.979 -1275.562)" fill="#3a6bea"/>
            <circle id="Elipse_4323" data-name="Elipse 4323" cx="1.15" cy="1.15" r="1.15" transform="translate(44.408 20.131)" fill="#3a6bea"/>
            <path id="Trazado_111311" data-name="Trazado 111311" d="M660.776,1298.025a.432.432,0,0,1-.431-.428c0-.213-.223-21.427-4.315-32.012a.431.431,0,1,1,.8-.31c4.149,10.73,4.372,32.1,4.374,32.316a.432.432,0,0,1-.428.435Z" transform="translate(-598.366 -1243.573)" fill="#3a6bea"/>
            <path id="Trazado_111312" data-name="Trazado 111312" d="M526.611,1339.369a.44.44,0,0,1-.18-.04,16.3,16.3,0,0,0-6.006-.967.431.431,0,0,1,.006-.863h.006a16.741,16.741,0,0,1,6.358,1.047.431.431,0,0,1-.183.822Z" transform="translate(-501.467 -1295.23)" fill="#3a6bea"/>
          </g>
          <g id="Grupo_61600" data-name="Grupo 61600" transform="translate(34.936)">
            <path id="Trazado_111313" data-name="Trazado 111313" d="M607.6,1202.231l-.6,6.825-3.445,5.186-4.055-5.115.836-8.12,7.154,1.205Z" transform="translate(-593.046 -1188.573)" fill="#f9b384"/>
            <path id="Trazado_111314" data-name="Trazado 111314" d="M616.159,1205.217l-.6,6.825a10.968,10.968,0,0,1-4.047-5.685l4.537-1.158Z" transform="translate(-601.602 -1191.559)" fill="#102048"/>
            <path id="Trazado_111315" data-name="Trazado 111315" d="M613.894,1169.784s1.989,17.211-9.868,7.879l-1.606-9.026,5.966-2.754,4.59,1.913Z" transform="translate(-595.126 -1163.548)" fill="#f9b384"/>
            <path id="Trazado_111316" data-name="Trazado 111316" d="M584.039,1167.745c.153,0,3.442.421,3.94-2.868s5.01-3.9,7.841-.88c0,0,.077-9.447-12.086-5.087-7.807,2.8-6.616,15.031-6.616,15.031l6.748,1.258S585.85,1169.969,584.039,1167.745Z" transform="translate(-577.052 -1157.761)" fill="#102048"/>
            <path id="Trazado_111317" data-name="Trazado 111317" d="M599.188,1190.444a1.956,1.956,0,1,1-2.863-1.173A2.224,2.224,0,0,1,599.188,1190.444Z" transform="translate(-590.198 -1180.067)" fill="#f9b384"/>
          </g>
        </g>
        <g id="Grupo_61609" data-name="Grupo 61609" transform="translate(133.385)">
          <g id="Grupo_61604" data-name="Grupo 61604">
            <g id="Grupo_61602" data-name="Grupo 61602">
              <path id="Trazado_111318" data-name="Trazado 111318" d="M827.293,1139.929a13.5,13.5,0,0,1-8.306-5.129,17.078,17.078,0,1,0-5.264,3.386A14.6,14.6,0,0,0,827.293,1139.929Z" transform="translate(-789.617 -1104.663)" fill="#fff"/>
              <path id="Trazado_111319" data-name="Trazado 111319" d="M820.762,1140.094a14.775,14.775,0,0,1-8.434-2.628,17.73,17.73,0,1,1,6.063-3.95,12.845,12.845,0,0,0,7.657,4.561l1.831.276-1.7.742A14.528,14.528,0,0,1,820.762,1140.094Zm-8.294-3.837.239.168a14.043,14.043,0,0,0,11.208,2.233,14.923,14.923,0,0,1-6.668-4.845l-.315-.386.363-.34A16.427,16.427,0,0,0,822.547,1121a16.611,16.611,0,1,0-10.35,15.367Z" transform="translate(-788.293 -1103.34)" fill="#86a7ff"/>
            </g>
            <g id="Grupo_61603" data-name="Grupo 61603" transform="translate(7.128 16.102)">
              <circle id="Elipse_4324" data-name="Elipse 4324" cx="2.267" cy="2.267" r="2.267" fill="#86a7ff"/>
              <circle id="Elipse_4325" data-name="Elipse 4325" cx="2.267" cy="2.267" r="2.267" transform="translate(8.465)" fill="#86a7ff"/>
              <circle id="Elipse_4326" data-name="Elipse 4326" cx="2.267" cy="2.267" r="2.267" transform="translate(16.93)" fill="#86a7ff"/>
            </g>
          </g>
          <g id="Grupo_61608" data-name="Grupo 61608" transform="translate(24.615 12.44)">
            <g id="Grupo_61605" data-name="Grupo 61605" transform="translate(21.11 71.083)">
              <path id="Trazado_111320" data-name="Trazado 111320" d="M974.86,1727.961l.61,16.414H947.332s15.507-8.258,16.465-17.23Z" transform="translate(-947.332 -1631.319)" fill="#102048"/>
              <path id="Trazado_111321" data-name="Trazado 111321" d="M975.549,1403.251c.389,24.612,1.437,54.027,4.868,90l16.726-1.071-.653-98.333Z" transform="translate(-967.436 -1393.846)" fill="#102048"/>
              <path id="Trazado_111322" data-name="Trazado 111322" d="M998.494,1727.961l.61,16.414H970.966s15.506-8.258,16.465-17.23Z" transform="translate(-964.171 -1631.319)" fill="#1f3c88"/>
              <path id="Trazado_111323" data-name="Trazado 111323" d="M987.631,1398.587c.389,24.612,4.758,58.691,8.189,94.662l16.726-1.071c1.374-38.361,2.525-75.943-.653-98.333Z" transform="translate(-976.045 -1393.846)" fill="#3a6bea"/>
              <path id="Trazado_111324" data-name="Trazado 111324" d="M1005.358,1566.762a9.092,9.092,0,0,1-2.863-.42.431.431,0,1,1,.273-.818c3.268,1.089,7.718-.553,7.762-.571a.432.432,0,0,1,.3.809A17.465,17.465,0,0,1,1005.358,1566.762Z" transform="translate(-986.425 -1515.74)" fill="#102048"/>
            </g>
            <g id="Grupo_61606" data-name="Grupo 61606" transform="translate(30.623)">
              <path id="Trazado_111325" data-name="Trazado 111325" d="M1010.557,1191.6l-8.094,3.756-.7-3.7-1.023-5.337-.44-2.326,2.884-3.493,2.876.482Z" transform="translate(-994.582 -1170.752)" fill="#f9b384"/>
              <path id="Trazado_111326" data-name="Trazado 111326" d="M1005.507,1201.581a8.818,8.818,0,0,1-2.656,4.491l-1.023-5.337Z" transform="translate(-995.673 -1185.173)" fill="#102048"/>
              <path id="Trazado_111327" data-name="Trazado 111327" d="M981.165,1160.587l.264,5.022s-2.273,1.692,0,2.538c0,0,1.586,8.458,8.828,3.172l3.278-7.771-2.855-4.969-6.027-.317Z" transform="translate(-980.419 -1154.911)" fill="#f9b384"/>
              <path id="Trazado_111328" data-name="Trazado 111328" d="M983.014,1152.284s2.538-.9,3.172,1.586a3.164,3.164,0,0,0,4.123,2.379s1.918-.357,4.033,3.354a1,1,0,0,0,1.648.156c1.005-1.185,2.181-3.651.98-8.215C995.12,1144.513,983.331,1145.2,983.014,1152.284Z" transform="translate(-982.268 -1146.607)" fill="#102048"/>
              <path id="Trazado_111329" data-name="Trazado 111329" d="M1007.489,1176.972a1.628,1.628,0,1,1-.34-2.431A1.744,1.744,0,0,1,1007.489,1176.972Z" transform="translate(-997.542 -1166.344)" fill="#f9b384"/>
            </g>
            <g id="Grupo_61607" data-name="Grupo 61607" transform="translate(0 18.323)">
              <path id="Trazado_111330" data-name="Trazado 111330" d="M960.021,1275.637s-3.655-35.874,5.049-54.316a19.877,19.877,0,0,1,15-10.914,8.2,8.2,0,0,1,8.895,6.045c2.967,10.682,7.054,54.24,7.054,54.24Z" transform="translate(-934.72 -1210.336)" fill="#eb5d60"/>
              <path id="Trazado_111331" data-name="Trazado 111331" d="M884.312,1336.067c-4.2.257-8.654.572-9.221.784-1.1.414-1.241,1.448.9,1.931,0,0-4.067.9-.827,2.137,0,0-1.654,1.448,2.619,2.9,0,0-3.24,2.137,5.791,3.171l5.5.525c.935.089,1.871.151,2.808.2l-3.846-11.994C886.8,1335.869,885.557,1335.991,884.312,1336.067Z" transform="translate(-873.907 -1299.667)" fill="#f9b384"/>
              <path id="Trazado_111332" data-name="Trazado 111332" d="M959.318,1248.036,946.7,1244.73a45.377,45.377,0,0,0,.209,19.276l-12.267,4.2a58.176,58.176,0,0,1-11.6,2.68l3.846,11.995a61.169,61.169,0,0,0,13.235-.732c6.645-1.112,14.883-3.12,17.611-6.472C962.558,1269.75,961.317,1258.376,959.318,1248.036Z" transform="translate(-908.914 -1234.841)" fill="#eb5d60"/>
              <path id="Trazado_111333" data-name="Trazado 111333" d="M925.8,1290.443h-.387l-.312,0-4.125-12.865.6.01h.1c4.413,0,19.38-4.79,21.424-5.45a38.423,38.423,0,0,0-.2-15.247.431.431,0,0,1,.335-.51.436.436,0,0,1,.509.335,37.771,37.771,0,0,1,.139,15.866l-.06.228-.223.073c-.678.222-16.069,5.241-21.444,5.552l3.574,11.147c2.419,0,18.23-.157,24.731-3.406,6.674-3.338,11.806-7.968,6.964-30.921a.431.431,0,1,1,.843-.177c4.963,23.523-.679,28.5-7.422,31.869C944.147,1290.293,928.529,1290.443,925.8,1290.443Z" transform="translate(-907.441 -1241.969)" fill="#6b2b2c"/>
            </g>
          </g>
        </g>
      </g>
    </g>
  </g>
</svg>
