<svg xmlns="http://www.w3.org/2000/svg" width="399" height="232" viewBox="0 0 399 232">
  <g id="Grupo_61758" data-name="Grupo 61758" transform="translate(-181 -2906)">
    <rect id="Rectángulo_6057" data-name="Rectángulo 6057" width="399" height="193" rx="10" transform="translate(181 2945)" fill="#a0a603" opacity="0.25"/>
    <g id="Grupo_61635" data-name="Grupo 61635" transform="translate(-69 -25)">
      <g id="Grupo_61631" data-name="Grupo 61631" transform="translate(293.63 2943.926)">
        <g id="Grupo_61622" data-name="Grupo 61622" transform="translate(126.39 38.75)">
          <g id="Grupo_61618" data-name="Grupo 61618" transform="translate(20.736 33.682)">
            <g id="Grupo_61617" data-name="Grupo 61617">
              <rect id="Rectángulo_6120" data-name="Rectángulo 6120" width="16.576" height="23.476" transform="translate(0.569 0.569)" fill="#fff"/>
              <path id="Trazado_111355" data-name="Trazado 111355" d="M2192.022,1428.469h-17.713v-24.615h17.713Zm-16.576-1.138h15.438v-22.339h-15.438Z" transform="translate(-2174.309 -1403.855)" fill="#86a7ff"/>
            </g>
            <rect id="Rectángulo_6121" data-name="Rectángulo 6121" width="16.576" height="13.932" transform="translate(0.569 0.569)" fill="#86a7ff"/>
          </g>
          <g id="Grupo_61621" data-name="Grupo 61621">
            <g id="Grupo_61619" data-name="Grupo 61619">
              <rect id="Rectángulo_6122" data-name="Rectángulo 6122" width="58.048" height="42.463" rx="7.709" transform="translate(0.569 0.568)" fill="#fff"/>
              <path id="Trazado_111356" data-name="Trazado 111356" d="M2157.823,1329.026H2104.16a2.765,2.765,0,0,1-2.762-2.761v-38.078a2.765,2.765,0,0,1,2.762-2.761h53.663a2.764,2.764,0,0,1,2.76,2.761v38.078A2.764,2.764,0,0,1,2157.823,1329.026Zm-53.663-42.463a1.626,1.626,0,0,0-1.625,1.623v38.078a1.627,1.627,0,0,0,1.625,1.624h53.663a1.625,1.625,0,0,0,1.623-1.624v-38.078a1.624,1.624,0,0,0-1.623-1.623Z" transform="translate(-2101.398 -1285.426)" fill="#86a7ff"/>
            </g>
            <g id="Grupo_61620" data-name="Grupo 61620" transform="translate(4.071 2.977)">
              <rect id="Rectángulo_6123" data-name="Rectángulo 6123" width="49.907" height="33.438" rx="6.343" transform="translate(0.569 0.569)" fill="#fff"/>
              <path id="Trazado_111357" data-name="Trazado 111357" d="M2164.383,1330.47h-46.3a2.375,2.375,0,0,1-2.373-2.372v-29.83a2.375,2.375,0,0,1,2.373-2.373h46.3a2.375,2.375,0,0,1,2.372,2.373v29.83A2.375,2.375,0,0,1,2164.383,1330.47Zm-46.3-33.437a1.237,1.237,0,0,0-1.236,1.235v29.83a1.236,1.236,0,0,0,1.236,1.234h46.3a1.235,1.235,0,0,0,1.234-1.234v-29.83a1.236,1.236,0,0,0-1.234-1.235Z" transform="translate(-2115.711 -1295.895)" fill="#86a7ff"/>
            </g>
          </g>
          <path id="Trazado_111358" data-name="Trazado 111358" d="M2142.865,1342.15l-1.045-.451,5.253-12.16,3.278,4.644,3.286-9.283,4.312,9.2,1.95-2.987,5.314,6.571,11.9-14.973.891.709-12.782,16.083-5.222-6.46-2.21,3.39-4-8.542-3.094,8.741-3.376-4.784Z" transform="translate(-2130.324 -1312.109)" fill="#3a6bea"/>
        </g>
        <g id="Grupo_61624" data-name="Grupo 61624" transform="translate(112.016 95.529)">
          <rect id="Rectángulo_6124" data-name="Rectángulo 6124" width="104.64" height="3.883" fill="#102048"/>
          <g id="Grupo_61623" data-name="Grupo 61623" transform="translate(13.213 2.919)">
            <rect id="Rectángulo_6125" data-name="Rectángulo 6125" width="5.038" height="83.253" fill="#102048"/>
            <rect id="Rectángulo_6126" data-name="Rectángulo 6126" width="5.038" height="83.253" transform="translate(71.85)" fill="#102048"/>
          </g>
        </g>
        <g id="Grupo_61625" data-name="Grupo 61625" transform="translate(197.01 126.552)">
          <path id="Trazado_111359" data-name="Trazado 111359" d="M2420.972,1599.983H2375.9a5.833,5.833,0,0,1,5.833-5.833h33.407a5.833,5.833,0,0,1,5.833,5.833Z" transform="translate(-2367.252 -1594.15)" fill="#102048"/>
          <path id="Trazado_111360" data-name="Trazado 111360" d="M2515.7,1608.656l8.75,49.315h-6.629l-9.544-51.7Z" transform="translate(-2461.982 -1602.823)" fill="#102048"/>
          <path id="Trazado_111361" data-name="Trazado 111361" d="M2354.245,1608.656l-8.75,49.315h6.628l9.545-51.7Z" transform="translate(-2345.495 -1602.823)" fill="#102048"/>
        </g>
        <g id="Grupo_61630" data-name="Grupo 61630" transform="translate(164.336 49.12)">
          <g id="Grupo_61626" data-name="Grupo 61626" transform="translate(37.959 19.045)">
            <path id="Trazado_111362" data-name="Trazado 111362" d="M2392.846,1388.859s-24.12-1.453-28.769,37.2l39.812,7.41,12.786-10.752-5.085-20.051Z" transform="translate(-2364.076 -1388.852)" fill="#fbc343"/>
            <path id="Trazado_111363" data-name="Trazado 111363" d="M2461.813,1410.856a5.737,5.737,0,0,1-1.6-.221,4.629,4.629,0,0,1-3.191-3.077.427.427,0,0,1,.814-.258,3.741,3.741,0,0,0,2.614,2.515c2.016.583,4.494-.2,6.8-2.143a.427.427,0,0,1,.552.651A9.573,9.573,0,0,1,2461.813,1410.856Z" transform="translate(-2430.572 -1401.841)" fill="#e49b31"/>
            <path id="Trazado_111364" data-name="Trazado 111364" d="M2400.927,1456.7a.41.41,0,0,1-.072-.007.426.426,0,0,1-.348-.492,41.181,41.181,0,0,1,7.475-18.2.427.427,0,0,1,.68.515,39.8,39.8,0,0,0-7.315,17.827A.425.425,0,0,1,2400.927,1456.7Z" transform="translate(-2390.141 -1423.902)" fill="#e49b31"/>
          </g>
          <g id="Grupo_61627" data-name="Grupo 61627" transform="translate(0 48.233)">
            <path id="Trazado_111365" data-name="Trazado 111365" d="M2305.463,1718.653l-2.4,19.833h-23.03l12.132-9.716,1.743-9.735Z" transform="translate(-2265.979 -1654.044)" fill="#eb5d60"/>
            <path id="Trazado_111366" data-name="Trazado 111366" d="M2231.007,1565.275l1.585,3.274a3.977,3.977,0,0,0,5.59,1.7l13.505-7.915-3.853-7.959-14.634,5.441A3.977,3.977,0,0,0,2231.007,1565.275Z" transform="translate(-2230.608 -1536.486)" fill="#eb5d60"/>
            <path id="Trazado_111367" data-name="Trazado 111367" d="M2354.7,1497.025s6.294,16.4-2.761,22.667c-10.389,7.192-26.59-8.137-26.59-8.137l-29.876,10.645a6.175,6.175,0,0,1-7.954-3.938l-1.836-5.748a6.17,6.17,0,0,1,3.611-7.619c10.15-4,32.179-12.259,43.465-13.245C2347.727,1490.341,2354.7,1497.025,2354.7,1497.025Z" transform="translate(-2269.81 -1491.48)" fill="#3a6bea"/>
            <path id="Trazado_111368" data-name="Trazado 111368" d="M2363.922,1547.527c-.872,0-26.444,1.744-26.444,1.744l-4.835,31.431a7.182,7.182,0,0,1-7.393,6.083l-7.294-.3a7.18,7.18,0,0,1-6.849-7.9c1.368-13.47,5.133-40.6,13.585-45.583l28.769-4.65Z" transform="translate(-2288.185 -1517.862)" fill="#3a6bea"/>
            <path id="Trazado_111369" data-name="Trazado 111369" d="M2310.26,1557.179a.426.426,0,0,1-.04-.851c6.3-.591,36.312-7.5,42.929-16.327a.426.426,0,0,1,.682.511c-6.887,9.182-36.925,16.046-43.531,16.664Z" transform="translate(-2287.301 -1526.079)" fill="#102048"/>
            <path id="Trazado_111370" data-name="Trazado 111370" d="M2445.8,1572.832a.425.425,0,0,1-.143-.024c-3.228-1.14-16.4-9.177-16.954-9.517a.427.427,0,0,1,.444-.729c.136.083,13.65,8.332,16.794,9.442a.427.427,0,0,1-.141.829Z" transform="translate(-2372.219 -1542.3)" fill="#102048"/>
            <rect id="Rectángulo_6127" data-name="Rectángulo 6127" width="1.138" height="6.068" transform="translate(7.615 23.163) rotate(-22.621)" fill="#6b2b2c"/>
            <rect id="Rectángulo_6128" data-name="Rectángulo 6128" width="1.138" height="5.949" transform="matrix(0.617, -0.787, 0.787, 0.617, 25.391, 74.822)" fill="#6b2b2c"/>
          </g>
          <g id="Grupo_61628" data-name="Grupo 61628" transform="translate(56.689 19.036)">
            <path id="Trazado_111371" data-name="Trazado 111371" d="M2484.7,1419.205l-19.47-30.368c3.923-.29,29.35,3.342,31.966,25.572s-10.316,20.633-23.393,12.206c0,0-1.081-.747-2.686-1.705l.542-9.193Z" transform="translate(-2455.192 -1388.822)" fill="#fbc343"/>
            <path id="Trazado_111372" data-name="Trazado 111372" d="M2435.068,1475.655c6.236-3.118,11.333,1.417,11.333,1.417l-.543,9.192c-3.038-1.813-7.958-4.381-11.009-4.071C2428.42,1482.848,2428.094,1479.143,2435.068,1475.655Z" transform="translate(-2429.932 -1450.176)" fill="#e28b6d"/>
            <path id="Trazado_111373" data-name="Trazado 111373" d="M2506.01,1487.555a.428.428,0,0,1-.236-.071c-8.169-5.4-18.874-4.8-18.981-4.8a.426.426,0,0,1-.053-.851c.108-.005,11.093-.626,19.505,4.936a.427.427,0,0,1-.235.782Z" transform="translate(-2470.298 -1455.366)" fill="#e49b31"/>
            <path id="Trazado_111374" data-name="Trazado 111374" d="M2528.764,1457.723a.462.462,0,0,1-.077-.007.428.428,0,0,1-.343-.5c.011-.06.59-3.906-3.8-13.108a.427.427,0,0,1,.771-.367c4.557,9.542,3.9,13.466,3.874,13.628A.428.428,0,0,1,2528.764,1457.723Z" transform="translate(-2497.604 -1427.952)" fill="#e49b31"/>
          </g>
          <g id="Grupo_61629" data-name="Grupo 61629" transform="translate(63.481)">
            <path id="Trazado_111375" data-name="Trazado 111375" d="M2466.857,1367.021v6.577a3.39,3.39,0,0,0,3.392,3.392h.568a3.389,3.389,0,0,0,3.386-3.392v-6.577Z" transform="translate(-2463.147 -1354.185)" fill="#e28b6d"/>
            <path id="Trazado_111376" data-name="Trazado 111376" d="M2466.857,1371.759v4.347a8.562,8.562,0,0,0,5.52-5.513Z" transform="translate(-2463.147 -1356.741)" fill="#102048"/>
            <path id="Trazado_111377" data-name="Trazado 111377" d="M2455.609,1336.827s-4.937,10.579,1.562,11.033a7.505,7.505,0,0,0,8.009-5.34l-.1-4.434-4.836-2.871Z" transform="translate(-2453.813 -1331.424)" fill="#e28b6d"/>
            <path id="Trazado_111378" data-name="Trazado 111378" d="M2463.506,1333.689s.5-5.188-1.058-4.987-6.8,1.46-7.657-1.512.857-7.909,3.93-3.627c0,0,16.123.449,7.91,10.227Z" transform="translate(-2454.355 -1321.889)" fill="#eb5d60"/>
            <path id="Trazado_111379" data-name="Trazado 111379" d="M2483.29,1361.6a2.268,2.268,0,1,0,.98-2.786A2.1,2.1,0,0,0,2483.29,1361.6Z" transform="translate(-2474.745 -1348.07)" fill="#e28b6d"/>
          </g>
        </g>
        <g id="Grupo_61616" data-name="Grupo 61616" transform="translate(49.37)">
          <g id="Grupo_61611" data-name="Grupo 61611" transform="translate(14.994 53.086)">
            <path id="Trazado_111334" data-name="Trazado 111334" d="M1802.465,1704.952l-1.177,23.417h22.837l-10.594-11.3.235-12.382Z" transform="translate(-1797.577 -1599.78)" fill="#102048"/>
            <path id="Trazado_111335" data-name="Trazado 111335" d="M1934.05,1697.43l9.5,25.44,20.605-9.042-13.256-6.893-5.011-9.658Z" transform="translate(-1892.58 -1594.48)" fill="#102048"/>
            <path id="Trazado_111336" data-name="Trazado 111336" d="M1802.5,1342.888c-7.186,17.488-10.5,61.419-14.267,102.278l22.976.37,15.935-107.1Z" transform="translate(-1788.238 -1337.7)" fill="#1f3c88"/>
            <path id="Trazado_111337" data-name="Trazado 111337" d="M1884.69,1339.355l.973,20.2,16.676,80.415-23.346,2.224-17.787-78.562,4.076-27.793Z" transform="translate(-1840.453 -1335.835)" fill="#1f3c88"/>
            <path id="Trazado_111338" data-name="Trazado 111338" d="M1884.926,1472.061l-.044,0a.426.426,0,0,1-.38-.469l4.754-45.249,6.145-7.682a.427.427,0,1,1,.667.533l-5.989,7.487-4.727,45A.427.427,0,0,1,1884.926,1472.061Z" transform="translate(-1857.122 -1394.988)" fill="#3a6bea"/>
            <path id="Trazado_111339" data-name="Trazado 111339" d="M1813.58,1678.685h-23.321a.427.427,0,0,1,0-.854h23.321a.427.427,0,0,1,0,.854Z" transform="translate(-1789.379 -1580.566)" fill="#3a6bea"/>
            <path id="Trazado_111340" data-name="Trazado 111340" d="M1915.595,1668.489a.427.427,0,0,1-.046-.851l23.131-2.464a.427.427,0,0,1,.091.849l-23.132,2.464Z" transform="translate(-1879.068 -1571.507)" fill="#3a6bea"/>
            <rect id="Rectángulo_6118" data-name="Rectángulo 6118" width="4.22" height="1.137" transform="translate(54.581 114.487) rotate(-36.176)" fill="#fff"/>
            <rect id="Rectángulo_6119" data-name="Rectángulo 6119" width="4.975" height="1.139" transform="matrix(0.896, -0.445, 0.445, 0.896, 11.245, 118.988)" fill="#fff"/>
          </g>
          <g id="Grupo_61614" data-name="Grupo 61614" transform="translate(0 19.309)">
            <g id="Grupo_61613" data-name="Grupo 61613" transform="translate(52.821 10.529)">
              <path id="Trazado_111341" data-name="Trazado 111341" d="M1921.243,1264.825l17.25-8.989a15.019,15.019,0,0,1,5.789-1.711c1.553-.117,3.1.043,3.638,1,1.213,2.156.943,7.679-.674,8.892s-24.79,11.587-24.79,11.587Z" transform="translate(-1921.243 -1254.092)" fill="#f9b384"/>
              <g id="Grupo_61612" data-name="Grupo 61612" transform="translate(20.811 2.023)">
                <path id="Trazado_111342" data-name="Trazado 111342" d="M1997.889,1263.863a4.784,4.784,0,0,1-1.789-.268c-.345-.152-.412-.367-.407-.519.018-.555.988-.963,3.194-1.763l.257-.093a.285.285,0,0,1,.193.536l-.257.093a13.187,13.187,0,0,0-2.777,1.214l.026.012a7.293,7.293,0,0,0,2.914.135.285.285,0,1,1,.075.564A11.983,11.983,0,0,1,1997.889,1263.863Z" transform="translate(-1995.33 -1261.204)" fill="#e28b6d"/>
                <path id="Trazado_111343" data-name="Trazado 111343" d="M1997.061,1270.5a4.793,4.793,0,0,1-1.789-.268c-.345-.151-.412-.365-.407-.519.018-.554.989-.964,3.2-1.765l.251-.091a.289.289,0,0,1,.364.171.286.286,0,0,1-.171.365l-.251.091a13.249,13.249,0,0,0-2.783,1.216l.025.013a7.3,7.3,0,0,0,2.913.134.283.283,0,0,1,.32.244.285.285,0,0,1-.245.32A12.031,12.031,0,0,1,1997.061,1270.5Z" transform="translate(-1994.738 -1265.951)" fill="#e28b6d"/>
                <path id="Trazado_111344" data-name="Trazado 111344" d="M1997.336,1277.271a4.8,4.8,0,0,1-1.79-.268c-.346-.152-.412-.367-.407-.519.019-.555.987-.963,3.195-1.763l.256-.093a.289.289,0,0,1,.365.171.286.286,0,0,1-.171.364l-.256.093a13.221,13.221,0,0,0-2.779,1.214l.026.013a7.3,7.3,0,0,0,2.914.134.285.285,0,1,1,.076.564A11.912,11.912,0,0,1,1997.336,1277.271Z" transform="translate(-1994.934 -1270.799)" fill="#e28b6d"/>
                <path id="Trazado_111345" data-name="Trazado 111345" d="M1996.615,1284.523a4.8,4.8,0,0,1-1.792-.268c-.346-.151-.412-.365-.407-.518.017-.554.988-.964,3.2-1.765l.252-.091a.285.285,0,1,1,.193.535l-.251.091a13.257,13.257,0,0,0-2.783,1.216l.025.012a7.255,7.255,0,0,0,2.915.136.289.289,0,0,1,.318.245.284.284,0,0,1-.245.319A12.216,12.216,0,0,1,1996.615,1284.523Z" transform="translate(-1994.417 -1275.988)" fill="#e28b6d"/>
              </g>
            </g>
            <path id="Trazado_111346" data-name="Trazado 111346" d="M1771.3,1229.771s14.948-15.875,31.035-12.129a19.863,19.863,0,0,0,2.1.379c10.96,1.328,19.112,9.48,15.916,36.347l-29.971,1.668-2.964-20.567-5.929,4.076Z" transform="translate(-1761.123 -1217.07)" fill="#3a6bea"/>
            <path id="Trazado_111347" data-name="Trazado 111347" d="M1745.694,1261.728s-12.414,7.551-9.82,14.221,25.94,17.417,25.94,17.417-4.632,1.482-3.15,2.038,7.968,1.112,10.561-2.224-17.6-17.787-17.6-17.787l4.262-3.891Z" transform="translate(-1735.518 -1249.027)" fill="#f9b384"/>
            <path id="Trazado_111348" data-name="Trazado 111348" d="M1806.06,1277.491a.427.427,0,0,1-.235-.782l10.769-7.137a.427.427,0,0,1,.471.711l-10.77,7.136A.426.426,0,0,1,1806.06,1277.491Z" transform="translate(-1785.692 -1254.589)" fill="#102048"/>
          </g>
          <g id="Grupo_61615" data-name="Grupo 61615" transform="translate(25.784)">
            <path id="Trazado_111349" data-name="Trazado 111349" d="M1867.57,1203.967l-3.936-1.208a6.55,6.55,0,0,1-4.237-5.55l-.939-6.608,8.27,1.427.16,2.286.408,5.78Z" transform="translate(-1849.277 -1178.821)" fill="#f9b384"/>
            <path id="Trazado_111350" data-name="Trazado 111350" d="M1875.346,1205.57c-4.423-1.278-5.638-7.317-5.638-7.317l5.23,1.537Z" transform="translate(-1857.328 -1184.296)" fill="#102048"/>
            <path id="Trazado_111351" data-name="Trazado 111351" d="M1869.124,1160.6s1.323,12.041-2.924,11.615-7.732-5.233-7.732-5.233l1.511-8.344,4.845-1.047Z" transform="translate(-1849.283 -1155.197)" fill="#f9b384"/>
            <path id="Trazado_111352" data-name="Trazado 111352" d="M1848.5,1160.143s2.031-.333,1.625-3.494,3.256-5.8,7.648-2.069c1.363-3.255-9.828-10.45-13.779.239,0,0-5.06,9.441,4.136,9.816Z" transform="translate(-1837.931 -1149.179)" fill="#102048"/>
            <path id="Trazado_111353" data-name="Trazado 111353" d="M1832.237,1168.129s-5.91-1.955-6.057,3.369,4.322,4.658,6.279,1.83Z" transform="translate(-1826.176 -1162.488)" fill="#102048"/>
            <path id="Trazado_111354" data-name="Trazado 111354" d="M1856.518,1181.182a2.656,2.656,0,0,1-.319,3.417,2.034,2.034,0,0,1-2.956-.851,2.656,2.656,0,0,1,.319-3.416A2.034,2.034,0,0,1,1856.518,1181.182Z" transform="translate(-1845.213 -1171.216)" fill="#f9b384"/>
          </g>
        </g>
      </g>
      <rect id="Rectángulo_6130" data-name="Rectángulo 6130" width="214" height="214" transform="translate(343 2931)" fill="none"/>
    </g>
  </g>
</svg>
