<svg xmlns="http://www.w3.org/2000/svg" width="105" height="105" viewBox="0 0 105 105">
  <g id="Grupo_61428" data-name="Grupo 61428" transform="translate(-326 -504)">
    <rect id="Rectángulo_5987" data-name="Rectángulo 5987" width="105" height="105" transform="translate(326 504)" fill="none"/>
    <g id="phone-call" transform="translate(332.208 510.208)">
      <path id="Trazado_111039" data-name="Trazado 111039" d="M84.193,137.077l3-3a6.854,6.854,0,0,0,0-9.692L74.649,111.837a6.854,6.854,0,0,0-9.692,0L62.1,114.7a5.293,5.293,0,0,1-7.485,0L38.5,98.59a5.293,5.293,0,0,1,0-7.485l2.861-2.861a6.854,6.854,0,0,0,0-9.692L28.818,66.005a6.854,6.854,0,0,0-9.692,0l-3,3a20.907,20.907,0,0,0,0,29.567l38.5,38.5A20.906,20.906,0,0,0,84.193,137.077Z" transform="translate(-8.192 -52.426)" fill="#8fbaff"/>
      <g id="Grupo_61429" data-name="Grupo 61429" transform="translate(8.03 11.573)">
        <path id="Trazado_111040" data-name="Trazado 111040" d="M66.647,91.149l.041-.044,2.861-2.861a6.854,6.854,0,0,0,0-9.692L57,66.007a6.854,6.854,0,0,0-9.692,0l-2.9,2.9Z" transform="translate(-44.408 -63.999)" fill="#fff"/>
        <path id="Trazado_111041" data-name="Trazado 111041" d="M310.452,319.462a6.854,6.854,0,0,0-9.692,0l-2.861,2.861-.044.041L320.094,344.6l2.9-2.9a6.854,6.854,0,0,0,0-9.692Z" transform="translate(-252.025 -271.623)" fill="#fff"/>
      </g>
      <path id="Trazado_111042" data-name="Trazado 111042" d="M256.249,10H245.288A19.492,19.492,0,0,0,225.8,29.492h0A19.5,19.5,0,0,0,240.543,48.4v6.082l7.6-5.5h8.1a19.492,19.492,0,0,0,19.492-19.492h0A19.492,19.492,0,0,0,256.249,10Z" transform="translate(-184.966 -8.192)" fill="#fcd770"/>
      <path id="Trazado_111043" data-name="Trazado 111043" d="M139.138,348.671a1.806,1.806,0,1,0,1.278.53A1.823,1.823,0,0,0,139.138,348.671Z" transform="translate(-112.497 -285.622)" fill="#61633b"/>
      <path id="Trazado_111044" data-name="Trazado 111044" d="M67.736,102.368a8.672,8.672,0,0,0-12.25,0l-2.861,2.861a3.488,3.488,0,0,1-4.928,0L31.589,89.121a3.488,3.488,0,0,1,0-4.928l2.861-2.861a8.672,8.672,0,0,0,0-12.25L21.9,56.537a8.662,8.662,0,0,0-12.25,0l-3,3a22.716,22.716,0,0,0,0,32.124l13.673,13.673a1.808,1.808,0,0,0,2.557-2.557L9.21,89.106a19.1,19.1,0,0,1,0-27.009l3-3a5.045,5.045,0,0,1,7.135,0L31.893,71.64a5.051,5.051,0,0,1,0,7.135L30.267,80.4,18.75,68.884a1.808,1.808,0,0,0-2.557,2.557L27.886,83.135a7.1,7.1,0,0,0,1.146,8.544L45.14,107.787a7.1,7.1,0,0,0,8.544,1.146l13.273,13.273a1.808,1.808,0,0,0,2.557-2.557l-13.1-13.1,1.626-1.626a5.051,5.051,0,0,1,7.135,0l12.546,12.546a5.045,5.045,0,0,1,0,7.135l-3,3a19.1,19.1,0,0,1-27.01,0L32.566,112.461a1.808,1.808,0,0,0-2.557,2.557l15.147,15.147a22.715,22.715,0,0,0,32.124,0l3-3a8.662,8.662,0,0,0,0-12.25Z" transform="translate(0 -44.235)" fill="#61633b"/>
      <path id="Trazado_111045" data-name="Trazado 111045" d="M62.62,109.39a1.807,1.807,0,1,0,1.278-.53A1.819,1.819,0,0,0,62.62,109.39Z" transform="translate(-50.862 -89.175)" fill="#61633b"/>
      <path id="Trazado_111046" data-name="Trazado 111046" d="M248.057,0H237.1a21.3,21.3,0,0,0-6.553,41.572v4.719a1.808,1.808,0,0,0,2.868,1.465l7.131-5.157h7.516a21.3,21.3,0,1,0,0-42.6Zm0,38.984h-8.1a1.809,1.809,0,0,0-1.06.343l-4.737,3.426V40.209a1.808,1.808,0,0,0-1.369-1.754A17.686,17.686,0,0,1,237.1,3.617h10.961a17.684,17.684,0,0,1,0,35.367Z" transform="translate(-176.774)" fill="#61633b"/>
      <path id="Trazado_111047" data-name="Trazado 111047" d="M300.288,107.79a1.809,1.809,0,1,0,1.278.53A1.822,1.822,0,0,0,300.288,107.79Z" transform="translate(-244.507 -88.299)" fill="#61633b"/>
      <path id="Trazado_111048" data-name="Trazado 111048" d="M355.468,107.79a1.809,1.809,0,1,0,1.278.53A1.815,1.815,0,0,0,355.468,107.79Z" transform="translate(-289.709 -88.299)" fill="#61633b"/>
      <path id="Trazado_111049" data-name="Trazado 111049" d="M410.638,107.79a1.809,1.809,0,1,0,1.278.53A1.822,1.822,0,0,0,410.638,107.79Z" transform="translate(-334.902 -88.299)" fill="#61633b"/>
    </g>
  </g>
</svg>
