<svg xmlns="http://www.w3.org/2000/svg" width="105" height="105" viewBox="0 0 105 105">
  <g id="Grupo_61739" data-name="Grupo 61739" transform="translate(-326 -504)">
    <rect id="Rectángulo_5987" data-name="Rectángulo 5987" width="105" height="105" transform="translate(326 504)" fill="none"/>
    <g id="Page-1" transform="translate(334.833 512.833)">
      <g id="_065---Feedback-Browser" data-name="065---Feedback-Browser">
        <path id="Shape" d="M85.422,6.822v5.822H1V6.822A5.822,5.822,0,0,1,6.822,1H79.6A5.822,5.822,0,0,1,85.422,6.822Z" transform="translate(0.456 0.456)" fill="#02a9f4"/>
        <path id="Shape-2" data-name="Shape" d="M56.367,1H52a5.822,5.822,0,0,1,5.822,5.822v5.822h4.367V6.822A5.822,5.822,0,0,0,56.367,1Z" transform="translate(23.689 0.456)" fill="#0377bc"/>
        <path id="Shape-3" data-name="Shape" d="M85.422,9V75.955A5.822,5.822,0,0,1,79.6,81.777H6.822A5.822,5.822,0,0,1,1,75.955V9Z" transform="translate(0.456 4.1)" fill="#f5f5f5"/>
        <path id="Shape-4" data-name="Shape" d="M57.822,9V75.955A5.822,5.822,0,0,1,52,81.777h4.367a5.822,5.822,0,0,0,5.822-5.822V9Z" transform="translate(23.689 4.1)" fill="#cfd8dc"/>
        <circle id="Oval" cx="13.5" cy="13.5" r="13.5" transform="translate(17 53)" fill="#f44335"/>
        <path id="Shape-5" data-name="Shape" d="M21.683,37a13.165,13.165,0,0,0-2.183.2A13.084,13.084,0,0,1,19.5,63a13.1,13.1,0,1,0,2.183-26Z" transform="translate(8.883 16.855)" fill="#c81e1e"/>
        <rect id="Rectangle-path" width="15" height="14" rx="2" transform="translate(52 60)" fill="#cfd8dc"/>
        <circle id="Oval-2" data-name="Oval" cx="13.5" cy="13.5" r="13.5" transform="translate(17 18)" fill="#ffdf00"/>
        <path id="Shape-6" data-name="Shape" d="M21.683,13a13.166,13.166,0,0,0-2.183.2A13.084,13.084,0,0,1,19.5,39a13.1,13.1,0,1,0,2.183-26Z" transform="translate(8.883 5.922)" fill="#fec108"/>
        <rect id="Rectangle-path-2" data-name="Rectangle-path" width="15" height="14" rx="2" transform="translate(52 25)" fill="#cfd8dc"/>
        <g id="Grupo_61742" data-name="Grupo 61742">
          <path id="Shape-7" data-name="Shape" d="M80.055,0H7.278A7.286,7.286,0,0,0,0,7.278V80.055a7.286,7.286,0,0,0,7.278,7.278H80.055a7.286,7.286,0,0,0,7.278-7.278V7.278A7.286,7.286,0,0,0,80.055,0ZM7.278,2.911H80.055a4.367,4.367,0,0,1,4.367,4.367v4.367H2.911V7.278A4.367,4.367,0,0,1,7.278,2.911ZM80.055,84.422H7.278a4.367,4.367,0,0,1-4.367-4.367v-65.5H84.422v65.5A4.367,4.367,0,0,1,80.055,84.422Z" fill="#3a3c07"/>
          <circle id="Oval-3" data-name="Oval" cx="1.5" cy="1.5" r="1.5" transform="translate(67 6)" fill="#3a3c07"/>
          <circle id="Oval-4" data-name="Oval" cx="1.5" cy="1.5" r="1.5" transform="translate(73 6)" fill="#3a3c07"/>
          <ellipse id="Oval-5" data-name="Oval" cx="1" cy="1.5" rx="1" ry="1.5" transform="translate(79 6)" fill="#3a3c07"/>
          <path id="Shape-8" data-name="Shape" d="M4.426,8.39a1.456,1.456,0,0,0,2.058,0l.426-.426.426.426A1.456,1.456,0,0,0,9.4,6.332l-.426-.426L9.4,5.479A1.456,1.456,0,0,0,7.337,3.421l-.426.426-.426-.426A1.456,1.456,0,0,0,4.426,5.479l.426.426-.426.426a1.456,1.456,0,0,0,0,2.058Z" transform="translate(1.822 1.372)" fill="#3a3c07"/>
          <path id="Shape-9" data-name="Shape" d="M25.556,36A14.555,14.555,0,1,0,40.111,50.555,14.555,14.555,0,0,0,25.556,36Zm0,26.2A11.644,11.644,0,1,1,37.2,50.555,11.644,11.644,0,0,1,25.556,62.2Z" transform="translate(5.011 16.4)" fill="#3a3c07"/>
          <path id="Shape-10" data-name="Shape" d="M23.279,46a8.733,8.733,0,0,0-7.033,3.559,1.456,1.456,0,1,0,2.416,1.626,5.822,5.822,0,0,1,9.228-.01,1.456,1.456,0,1,0,2.422-1.616A8.733,8.733,0,0,0,23.279,46Z" transform="translate(7.288 20.955)" fill="#3a3c07"/>
          <path id="Shape-11" data-name="Shape" d="M48.1,40H39.367A4.367,4.367,0,0,0,35,44.367V53.1a4.367,4.367,0,0,0,4.367,4.367H48.1A4.367,4.367,0,0,0,52.467,53.1V44.367A4.367,4.367,0,0,0,48.1,40Zm1.456,13.1A1.456,1.456,0,0,1,48.1,54.555H39.367A1.456,1.456,0,0,1,37.911,53.1V44.367a1.456,1.456,0,0,1,1.456-1.456H48.1a1.456,1.456,0,0,1,1.456,1.456Z" transform="translate(15.944 18.222)" fill="#3a3c07"/>
          <path id="Shape-12" data-name="Shape" d="M25.556,12A14.556,14.556,0,1,0,40.111,26.555,14.555,14.555,0,0,0,25.556,12Zm0,26.2A11.644,11.644,0,1,1,37.2,26.555,11.644,11.644,0,0,1,25.556,38.2Z" transform="translate(5.011 5.467)" fill="#3a3c07"/>
          <path id="Shape-13" data-name="Shape" d="M27.9,23.64a5.822,5.822,0,0,1-9.233,0,1.456,1.456,0,0,0-2.418,1.623,8.733,8.733,0,0,0,14.066,0A1.456,1.456,0,0,0,27.9,23.637Z" transform="translate(7.288 10.475)" fill="#3a3c07"/>
          <path id="Shape-14" data-name="Shape" d="M48.1,16H39.367A4.367,4.367,0,0,0,35,20.367V29.1a4.367,4.367,0,0,0,4.367,4.367H48.1A4.367,4.367,0,0,0,52.467,29.1V20.367A4.367,4.367,0,0,0,48.1,16Zm1.456,13.1A1.456,1.456,0,0,1,48.1,30.556H39.367A1.456,1.456,0,0,1,37.911,29.1V20.367a1.456,1.456,0,0,1,1.456-1.456H48.1a1.456,1.456,0,0,1,1.456,1.456Z" transform="translate(15.944 7.289)" fill="#3a3c07"/>
          <ellipse id="Oval-6" data-name="Oval" cx="1.5" cy="1" rx="1.5" ry="1" transform="translate(25 27)" fill="#3a3c07"/>
          <circle id="Oval-7" data-name="Oval" cx="1" cy="1" r="1" transform="translate(34 27)" fill="#3a3c07"/>
          <ellipse id="Oval-8" data-name="Oval" cx="1.5" cy="1" rx="1.5" ry="1" transform="translate(25 62)" fill="#3a3c07"/>
          <circle id="Oval-9" data-name="Oval" cx="1" cy="1" r="1" transform="translate(34 62)" fill="#3a3c07"/>
        </g>
      </g>
    </g>
  </g>
</svg>
