<svg xmlns="http://www.w3.org/2000/svg" width="400" height="232" viewBox="0 0 400 232">
  <g id="Grupo_61759" data-name="Grupo 61759" transform="translate(-600 -2906)">
    <rect id="Rectángulo_6059" data-name="Rectángulo 6059" width="400" height="193" rx="10" transform="translate(600 2945)" fill="#a0a603" opacity="0.4"/>
    <g id="Grupo_61632" data-name="Grupo 61632" transform="translate(-122 5)">
      <rect id="Rectángulo_6129" data-name="Rectángulo 6129" width="214" height="214" transform="translate(815 2901)" fill="none"/>
      <g id="Grupo_61594" data-name="Grupo 61594" transform="translate(784.538 2889.909)">
        <g id="Grupo_61579" data-name="Grupo 61579" transform="translate(154.489 33.823)">
          <g id="Grupo_61574" data-name="Grupo 61574" transform="translate(12.222 65.342)">
            <path id="Trazado_111253" data-name="Trazado 111253" d="M2332.03,833.955l.873,17.977-22.864.175,9.949-8.727.523-11.345Z" transform="translate(-2309.788 -734.469)" fill="#102048"/>
            <path id="Trazado_111254" data-name="Trazado 111254" d="M2465.03,833.955l.873,17.977-22.864.175,9.948-8.727.524-11.345Z" transform="translate(-2405.437 -734.469)" fill="#102048"/>
            <path id="Trazado_111255" data-name="Trazado 111255" d="M2364.463,491.426s13.265,88.839,5.76,93.2c-7.348,4.273-14.05,2.618-16.144-.524s-13.963-73.655-13.963-73.655-7.331,24.086-9.425,25.832c0,0,8.378,47.823.349,49.917s-24.086,8.028-21.643-52.361a356.925,356.925,0,0,1,12.392-44.507l19.374-4.712Z" transform="translate(-2309.146 -484.619)" fill="#eb5d60"/>
            <path id="Trazado_111256" data-name="Trazado 111256" d="M2403.1,588.438a.421.421,0,0,1-.416-.352l-3.5-20.766-7.125-3.224a.421.421,0,1,1,.347-.768l7.535,3.409,3.569,21.209a.421.421,0,0,1-.345.485A.4.4,0,0,1,2403.1,588.438Z" transform="translate(-2368.602 -541.197)" fill="#6b2b2c"/>
            <path id="Trazado_111257" data-name="Trazado 111257" d="M2471.143,667.765a17.576,17.576,0,0,1-3.648-.35.42.42,0,0,1-.316-.5.415.415,0,0,1,.5-.316,18.263,18.263,0,0,0,9.489-.732.421.421,0,0,1,.3.786A17.743,17.743,0,0,1,2471.143,667.765Z" transform="translate(-2422.791 -614.943)" fill="#6b2b2c"/>
            <path id="Trazado_111258" data-name="Trazado 111258" d="M2329.1,665.081a12.784,12.784,0,0,1-5.489-1.257.422.422,0,0,1,.36-.762,11.725,11.725,0,0,0,8.1.806.421.421,0,1,1,.2.818A13.243,13.243,0,0,1,2329.1,665.081Z" transform="translate(-2319.376 -612.92)" fill="#6b2b2c"/>
            <rect id="Rectángulo_6105" data-name="Rectángulo 6105" width="1.123" height="4.992" transform="translate(9.876 109.37) rotate(-54.85)" fill="#fff"/>
            <rect id="Rectángulo_6106" data-name="Rectángulo 6106" width="1.123" height="5" transform="translate(47.185 109.337) rotate(-49.48)" fill="#fff"/>
          </g>
          <g id="Grupo_61577" data-name="Grupo 61577" transform="translate(0 4.011)">
            <path id="Trazado_111259" data-name="Trazado 111259" d="M2280.02,282.142s-.589-9.548-1.113-12.017-2.356,2.36-2.356,2.36-1.178-6.2-2.422-6.256-1.571,1.921-1.571,1.921-1.636-3.622-2.684-.768c0,0-1.963-1.536-2.029,2.469,0,0-5.891-3.786,1.527,16.023l6.655,1.866Z" transform="translate(-2265.627 -266.227)" fill="#e28b6d"/>
            <path id="Trazado_111260" data-name="Trazado 111260" d="M2380.694,323.651l17.977,23.213-1.833,28.8-42.674-2.094,6.807-39.533Z" transform="translate(-2329.3 -307.524)" fill="#3a6bea"/>
            <path id="Trazado_111261" data-name="Trazado 111261" d="M2326.612,320.075s-16.058-1.92-27.14,11.258c0,0-7.592-6.109-9.861-12.654l-10.647,4.451s5.585,28.275,28.8,27.839Z" transform="translate(-2275.218 -303.949)" fill="#3a6bea"/>
            <path id="Trazado_111262" data-name="Trazado 111262" d="M2367.254,369.774a.407.407,0,0,1-.076-.007.421.421,0,0,1-.338-.491c2.339-12.534,9.322-19.259,9.392-19.325a.421.421,0,1,1,.579.612c-.068.065-6.857,6.618-9.143,18.868A.42.42,0,0,1,2367.254,369.774Z" transform="translate(-2338.411 -326.356)" fill="#102048"/>
            <g id="Grupo_61576" data-name="Grupo 61576" transform="translate(22.348 39.008)">
              <g id="Grupo_61575" data-name="Grupo 61575">
                <path id="Trazado_111263" data-name="Trazado 111263" d="M2355.423,406.151l-8.106,1.569a1.38,1.38,0,0,0-1.06,1.752l4.868,16.177a1.38,1.38,0,0,0,1.6.953l8.186-1.7a1.38,1.38,0,0,0,1.038-1.757L2357,407.1A1.38,1.38,0,0,0,2355.423,406.151Z" transform="translate(-2345.919 -405.845)" fill="#fff"/>
                <path id="Trazado_111264" data-name="Trazado 111264" d="M2351.725,426.2a1.651,1.651,0,0,1-1.584-1.183l-4.868-16.177a1.662,1.662,0,0,1,1.274-2.11l8.107-1.569a1.665,1.665,0,0,1,1.9,1.142l4.948,16.043a1.661,1.661,0,0,1-1.249,2.115l-8.186,1.7A1.679,1.679,0,0,1,2351.725,426.2Zm3.246-20.507a1.093,1.093,0,0,0-.209.02l-8.107,1.569a1.1,1.1,0,0,0-.731.51,1.082,1.082,0,0,0-.112.885l4.868,16.177a1.1,1.1,0,0,0,1.276.76l8.187-1.7a1.1,1.1,0,0,0,.826-1.4l-4.948-16.043A1.1,1.1,0,0,0,2354.97,405.689Z" transform="translate(-2345.203 -405.128)" fill="#86a7ff"/>
              </g>
              <path id="Trazado_111265" data-name="Trazado 111265" d="M2361.04,416.667a1.344,1.344,0,0,0,1.645.883c.809-.131,1.384-.738,1.284-1.357a1.344,1.344,0,0,0-1.646-.883C2361.514,415.44,2360.939,416.048,2361.04,416.667Z" transform="translate(-2356.585 -412.432)" fill="#86a7ff"/>
            </g>
            <path id="Trazado_111266" data-name="Trazado 111266" d="M2382.09,431.378s-16.734-2.793-17.913-1.942,1.244,2.225,1.244,2.225-4.189-.458-1.768,1.9c0,0-2.094,1.44,2.291,3.8,0,0-6.655,2.858,18.762,8.334l7.222-6.371Z" transform="translate(-2335.583 -383.485)" fill="#e28b6d"/>
            <path id="Trazado_111267" data-name="Trazado 111267" d="M2436.117,323.651s25.133,3.665,28.8,29.846c0,0,5.236,26.18-31.067,16.232l-2.618-14.312,17.628.524Z" transform="translate(-2384.723 -307.524)" fill="#3a6bea"/>
            <path id="Trazado_111268" data-name="Trazado 111268" d="M2441.249,398.521c-5.4,0-10.787-.564-11.142-.6a.422.422,0,0,1-.374-.463.411.411,0,0,1,.464-.375c.134.014,13.328,1.4,19.147-.122a23.312,23.312,0,0,0-4.244-14.122.421.421,0,0,1,.68-.5,23.646,23.646,0,0,1,4.385,14.986l-.027.284-.275.08A34.175,34.175,0,0,1,2441.249,398.521Z" transform="translate(-2383.644 -349.608)" fill="#102048"/>
            <path id="Trazado_111269" data-name="Trazado 111269" d="M2456.059,489.149c-5.561,0-16.153-1.99-16.665-2.087a.421.421,0,0,1,.156-.828c.142.027,14.238,2.68,18.417,1.948a.421.421,0,0,1,.145.83A12.585,12.585,0,0,1,2456.059,489.149Z" transform="translate(-2390.348 -424.443)" fill="#102048"/>
          </g>
          <g id="Grupo_61578" data-name="Grupo 61578" transform="translate(42.837)">
            <path id="Trazado_111270" data-name="Trazado 111270" d="M2429.357,300.136l-.4,6.812a4,4,0,1,0,7.985.463l.395-6.812Z" transform="translate(-2425.924 -286.602)" fill="#e28b6d"/>
            <path id="Trazado_111271" data-name="Trazado 111271" d="M2429.32,304.313l-.322,5.548c3.685-.835,5.613-4.955,5.613-4.955Z" transform="translate(-2425.955 -289.606)" fill="#102048"/>
            <path id="Trazado_111272" data-name="Trazado 111272" d="M2419.936,266.791s-3.4,11.936,1.661,12.543,7.656-1.945,7.656-1.945l1.4-6.834-3.467-3.092Z" transform="translate(-2418.636 -262.622)" fill="#e28b6d"/>
            <path id="Trazado_111273" data-name="Trazado 111273" d="M2428.754,264.715c-.135-2.748-.8-4.932-2.528-5.993-.194-.119-1.026.054-1.286.054a14.64,14.64,0,0,1-1.557-.08,8.9,8.9,0,0,1-3.026-.8c-1.786-.89-2.982-3.42-1.58-5.2a2.066,2.066,0,0,1,1.147-.755s.079,1.891,2.792,1.435,8.969-3.44,10.4,4.469c0,0,4.483,5.635-2.52,7.68Z" transform="translate(-2418.162 -251.945)" fill="#102048"/>
            <path id="Trazado_111274" data-name="Trazado 111274" d="M2451.74,292.281a1.966,1.966,0,1,0,3.027-.249A2.169,2.169,0,0,0,2451.74,292.281Z" transform="translate(-2441.727 -280.409)" fill="#e28b6d"/>
          </g>
        </g>
        <g id="Grupo_61582" data-name="Grupo 61582" transform="translate(99.131 22.119)">
          <g id="Grupo_61580" data-name="Grupo 61580" transform="translate(0 6.169)">
            <path id="Trazado_111275" data-name="Trazado 111275" d="M2031.234,173.017l2.755-18.043c-.54-.043-1.083-.071-1.634-.071a20.269,20.269,0,1,0,18.183,11.309Z" transform="translate(-2011.672 -154.49)" fill="#fff"/>
            <path id="Trazado_111276" data-name="Trazado 111276" d="M2030.765,194.268a20.683,20.683,0,0,1,0-41.366c.51,0,1.055.024,1.667.073l.441.035-2.719,17.8,19-6.7.162.328a20.483,20.483,0,0,1,2.13,9.145A20.706,20.706,0,0,1,2030.765,194.268Zm0-40.542a19.859,19.859,0,1,0,19.859,19.859,19.656,19.656,0,0,0-1.886-8.452l-19.605,6.912,2.792-18.281C2031.51,153.739,2031.128,153.726,2030.765,153.726Z" transform="translate(-2010.082 -152.902)" fill="#86a7ff"/>
          </g>
          <g id="Grupo_61581" data-name="Grupo 61581" transform="translate(23.882)">
            <path id="Trazado_111277" data-name="Trazado 111277" d="M2147.794,136.337a20.273,20.273,0,0,0-16.55-11.237l-2.755,18.043Z" transform="translate(-2127.978 -124.659)" fill="#fff"/>
            <path id="Trazado_111278" data-name="Trazado 111278" d="M2126.008,142.059l2.917-19.1.382.031a20.771,20.771,0,0,1,16.885,11.466l.206.416Zm3.615-18.216-2.593,16.981,18.213-6.421A19.955,19.955,0,0,0,2129.623,123.843Z" transform="translate(-2126.008 -122.957)" fill="#86a7ff"/>
          </g>
        </g>
        <g id="Grupo_61584" data-name="Grupo 61584" transform="translate(60.719 173.289)">
          <path id="Trazado_111279" data-name="Trazado 111279" d="M1967,759.9h-16.018v-8.692a2.65,2.65,0,0,1,2.647-2.647h10.724a2.65,2.65,0,0,1,2.647,2.647Zm-15.176-.842h14.334v-7.849a1.807,1.807,0,0,0-1.8-1.8h-10.724a1.807,1.807,0,0,0-1.8,1.8Z" transform="translate(-1933.693 -748.559)" fill="#3a6bea"/>
          <g id="Grupo_61583" data-name="Grupo 61583" transform="translate(0 7.794)">
            <rect id="Rectángulo_6107" data-name="Rectángulo 6107" width="49.759" height="35.166" transform="translate(0.421 0.421)" fill="#fff"/>
            <path id="Trazado_111280" data-name="Trazado 111280" d="M1940.015,812.321h-50.6V776.313h50.6Zm-49.759-.843h48.917V777.156h-48.917Z" transform="translate(-1889.414 -776.313)" fill="#3a6bea"/>
          </g>
          <rect id="Rectángulo_6108" data-name="Rectángulo 6108" width="49.427" height="0.842" transform="translate(0.586 25.399)" fill="#3a6bea"/>
          <path id="Trazado_111281" data-name="Trazado 111281" d="M1973.872,835.13h-3.128a1.245,1.245,0,0,1-1.244-1.244v-4.392a1.245,1.245,0,0,1,1.244-1.244h3.128a1.245,1.245,0,0,1,1.244,1.244v4.392A1.245,1.245,0,0,1,1973.872,835.13Zm-3.128-6.038a.4.4,0,0,0-.4.4v4.392a.4.4,0,0,0,.4.4h3.128a.4.4,0,0,0,.4-.4v-4.392a.4.4,0,0,0-.4-.4Z" transform="translate(-1947.01 -805.87)" fill="#3a6bea"/>
        </g>
        <g id="Grupo_61593" data-name="Grupo 61593" transform="translate(39.981 36.979)">
          <g id="Grupo_61585" data-name="Grupo 61585" transform="translate(2.253 69.433)">
            <path id="Trazado_111282" data-name="Trazado 111282" d="M1858.095,844.518l-.6,16.033h27.485s-15.147-8.066-16.083-16.83Z" transform="translate(-1847.977 -750.12)" fill="#102048"/>
            <path id="Trazado_111283" data-name="Trazado 111283" d="M1873.138,519.609c-.38,24.041-1.4,52.773-4.755,87.908l-16.338-1.045.638-96.049Z" transform="translate(-1844.055 -510.422)" fill="#102048"/>
            <path id="Trazado_111284" data-name="Trazado 111284" d="M1834.46,844.518l-.6,16.033h27.485s-15.146-8.066-16.083-16.83Z" transform="translate(-1830.98 -750.12)" fill="#1f3c88"/>
            <path id="Trazado_111285" data-name="Trazado 111285" d="M1849.282,515.053c-.38,24.041-4.648,57.329-8,92.464l-16.337-1.045c-1.342-37.47-2.467-74.179.638-96.049Z" transform="translate(-1823.592 -510.422)" fill="#3a6bea"/>
            <path id="Trazado_111286" data-name="Trazado 111286" d="M1875.122,683.294a17.044,17.044,0,0,1-5.349-.977.421.421,0,1,1,.3-.788c.044.016,4.394,1.62,7.582.556a.421.421,0,0,1,.266.8A8.882,8.882,0,0,1,1875.122,683.294Z" transform="translate(-1856.607 -633.457)" fill="#102048"/>
          </g>
          <g id="Grupo_61586" data-name="Grupo 61586" transform="translate(14.364)">
            <path id="Trazado_111287" data-name="Trazado 111287" d="M1866.717,307.918l7.906,3.668.686-3.619,1-5.213.429-2.272-2.817-3.412-2.809.471Z" transform="translate(-1866.717 -287.554)" fill="#f9b384"/>
            <path id="Trazado_111288" data-name="Trazado 111288" d="M1888.076,318.137a8.61,8.61,0,0,0,2.594,4.387l1-5.213Z" transform="translate(-1882.078 -302.11)" fill="#102048"/>
            <path id="Trazado_111289" data-name="Trazado 111289" d="M1888.744,277.109l-.259,4.906s2.221,1.652,0,2.478c0,0-1.549,8.262-8.623,3.1l-3.2-7.591,2.788-4.854,5.886-.31Z" transform="translate(-1873.868 -271.564)" fill="#f9b384"/>
            <path id="Trazado_111290" data-name="Trazado 111290" d="M1883.506,268.728s-2.478-.878-3.1,1.549a3.09,3.09,0,0,1-4.027,2.324s-1.873-.348-3.939,3.276a.981.981,0,0,1-1.609.153c-.982-1.158-2.131-3.566-.958-8.024C1871.681,261.137,1883.2,261.809,1883.506,268.728Z" transform="translate(-1868.631 -263.183)" fill="#eb5d60"/>
            <path id="Trazado_111291" data-name="Trazado 111291" d="M1886.843,293.486a1.59,1.59,0,1,0,.332-2.374A1.7,1.7,0,0,0,1886.843,293.486Z" transform="translate(-1880.955 -283.105)" fill="#f9b384"/>
          </g>
          <g id="Grupo_61592" data-name="Grupo 61592" transform="translate(0 17.897)">
            <path id="Trazado_111292" data-name="Trazado 111292" d="M1850.735,390.7s3.57-35.041-4.932-53.055a19.415,19.415,0,0,0-14.656-10.661,8.009,8.009,0,0,0-8.688,5.9c-2.9,10.434-6.89,52.98-6.89,52.98Z" transform="translate(-1815.569 -326.912)" fill="#fbc343"/>
            <g id="Grupo_61587" data-name="Grupo 61587" transform="translate(29.134 18.826)">
              <rect id="Rectángulo_6109" data-name="Rectángulo 6109" width="33.11" height="24.86" transform="translate(0.576 29.25) rotate(-60)" fill="#fff"/>
              <path id="Trazado_111293" data-name="Trazado 111293" d="M1941.571,436.2l-22.26-12.852,16.976-29.4,22.26,12.851Zm-21.108-13.16,20.8,12.009,16.135-27.944L1936.6,395.1Z" transform="translate(-1919.312 -393.949)" fill="#86a7ff"/>
            </g>
            <g id="Grupo_61591" data-name="Grupo 61591" transform="translate(38.329 26.63)">
              <g id="Grupo_61588" data-name="Grupo 61588" transform="translate(8.987 0)">
                <line id="Línea_169" data-name="Línea 169" x2="12.778" y2="6.88" transform="translate(0.266 0.495)" fill="#fff"/>
                <rect id="Rectángulo_6110" data-name="Rectángulo 6110" width="1.124" height="14.513" transform="matrix(0.474, -0.88, 0.88, 0.474, 0, 0.99)" fill="#86a7ff"/>
              </g>
              <g id="Grupo_61589" data-name="Grupo 61589" transform="translate(6.6 4.634)">
                <line id="Línea_170" data-name="Línea 170" x2="12.778" y2="6.88" transform="translate(0.266 0.495)" fill="#fff"/>
                <rect id="Rectángulo_6111" data-name="Rectángulo 6111" width="1.124" height="14.513" transform="matrix(0.474, -0.88, 0.88, 0.474, 0, 0.99)" fill="#86a7ff"/>
              </g>
              <g id="Grupo_61590" data-name="Grupo 61590" transform="translate(0 15.867)">
                <line id="Línea_171" data-name="Línea 171" x2="12.778" y2="6.88" transform="translate(0.266 0.495)" fill="#fff"/>
                <rect id="Rectángulo_6112" data-name="Rectángulo 6112" width="1.124" height="14.513" transform="matrix(0.474, -0.88, 0.88, 0.474, 0, 0.99)" fill="#86a7ff"/>
              </g>
            </g>
            <path id="Trazado_111294" data-name="Trazado 111294" d="M1973.674,452.635c4.1.251,8.454.559,9.007.766,1.077.4,1.212,1.414-.875,1.886,0,0,3.973.875.808,2.087,0,0,1.616,1.414-2.559,2.828,0,0,3.165,2.087-5.656,3.1l-5.373.513c-.913.087-1.828.147-2.743.194l3.757-11.716C1971.246,452.442,1972.458,452.56,1973.674,452.635Z" transform="translate(-1923.957 -417.08)" fill="#f9b384"/>
            <path id="Trazado_111295" data-name="Trazado 111295" d="M1849.058,364.535l12.325-3.229a44.327,44.327,0,0,1-.2,18.829l11.982,4.1a56.834,56.834,0,0,0,11.333,2.618l-3.757,11.716a59.74,59.74,0,0,1-12.928-.715c-6.49-1.086-14.537-3.047-17.2-6.322C1845.893,385.746,1847.1,374.636,1849.058,364.535Z" transform="translate(-1838.411 -351.647)" fill="#fbc343"/>
            <path id="Trazado_111296" data-name="Trazado 111296" d="M1879.005,406.183c-2.667,0-17.922-.147-24.465-3.418-6.586-3.293-12.1-8.152-7.25-31.13a.422.422,0,0,1,.825.174c-4.73,22.419.282,26.942,6.8,30.2,6.349,3.175,21.792,3.324,24.156,3.328l3.492-10.888c-5.25-.3-20.285-5.207-20.946-5.424l-.219-.071-.058-.223a36.9,36.9,0,0,1,.136-15.5.413.413,0,0,1,.5-.327.422.422,0,0,1,.327.5,37.443,37.443,0,0,0-.2,14.893c2,.645,16.615,5.324,20.927,5.324h.1l.588-.01-4.029,12.567-.305,0Z" transform="translate(-1837.056 -358.834)" fill="#e49b31"/>
          </g>
        </g>
      </g>
    </g>
  </g>
</svg>
