<svg xmlns="http://www.w3.org/2000/svg" width="105" height="105" viewBox="0 0 105 105">
  <g id="Grupo_61741" data-name="Grupo 61741" transform="translate(-326 -504)">
    <rect id="Rectángulo_5987" data-name="Rectángulo 5987" width="105" height="105" transform="translate(326 504)" fill="none"/>
    <g id="red" transform="translate(335.533 513.75)">
      <g id="Grupo_61756" data-name="Grupo 61756" transform="translate(1.393 1.251)">
        <g id="Grupo_61744" data-name="Grupo 61744" transform="translate(0 0.001)">
          <path id="Trazado_111758" data-name="Trazado 111758" d="M20.861,340.72a13.808,13.808,0,0,0-10.625,22.628l18.021-.978c-.036.611-.063,1.107-.063,1.107l3.3-.129.889-1.2A13.808,13.808,0,0,0,20.861,340.72Z" transform="translate(-7.053 -285.144)" fill="#6bb6f8"/>
          <path id="Trazado_111759" data-name="Trazado 111759" d="M353.788,7.5a13.808,13.808,0,0,0-10.625,22.628l17.636-.957-.113,1.239,3.731-.282.889-1.2A13.807,13.807,0,0,0,353.788,7.5Z" transform="translate(-284.452 -7.503)" fill="#6bb6f8"/>
          <path id="Trazado_111760" data-name="Trazado 111760" d="M33.083,29.513a13.809,13.809,0,1,0-22.143,1.2Z" transform="translate(-7.64 -7.99)" fill="#6bb6f8"/>
        </g>
        <g id="Grupo_61746" data-name="Grupo 61746" transform="translate(3.301 11.692)">
          <g id="Grupo_61745" data-name="Grupo 61745">
            <path id="Trazado_111761" data-name="Trazado 111761" d="M48.1,88.631a13.809,13.809,0,0,1-21.254,0,10.629,10.629,0,0,1,6.4-9.527L36.508,77.6h2.375L41.7,79.1A10.63,10.63,0,0,1,48.1,88.631Z" transform="translate(-26.844 -77.597)" fill="#f9f7f8"/>
          </g>
        </g>
        <path id="Trazado_111762" data-name="Trazado 111762" d="M43.986,80.461A10.634,10.634,0,0,0,41.7,79.1l-.5-.267H39.245V77.79l-.362-.194H36.508L33.244,79.1a10.629,10.629,0,0,0-6.4,9.527,13.876,13.876,0,0,0,2.838,2.585c-.058-.067,1.473-6.434,3.9-8.336a1.442,1.442,0,0,1,1.275-.269,9.715,9.715,0,0,0,9.133-2.149Z" transform="translate(-23.543 -65.905)" fill="#efedef"/>
        <circle id="Elipse_4334" data-name="Elipse 4334" cx="7.233" cy="7.233" r="7.233" transform="translate(6.694 0.098)" fill="#f9f7f8"/>
        <path id="Trazado_111763" data-name="Trazado 111763" d="M51.034,15.316a7.235,7.235,0,0,1,5.311-6.973,7.233,7.233,0,1,0,0,13.946,7.235,7.235,0,0,1-5.311-6.973Z" transform="translate(-40.496 -7.985)" fill="#efedef"/>
        <g id="Grupo_61748" data-name="Grupo 61748" transform="translate(3.184 67.17)">
          <g id="Grupo_61747" data-name="Grupo 61747">
            <path id="Trazado_111764" data-name="Trazado 111764" d="M47.395,421.264a13.809,13.809,0,0,1-21.254,0,10.629,10.629,0,0,1,6.4-9.527L35.8,410.23H38.18l2.814,1.508a10.63,10.63,0,0,1,6.4,9.526Z" transform="translate(-26.141 -410.23)" fill="#f9f7f8"/>
          </g>
        </g>
        <path id="Trazado_111765" data-name="Trazado 111765" d="M43.282,413.094a10.634,10.634,0,0,0-2.289-1.357l-.5-.267H38.541v-1.047l-.362-.194H35.8l-3.264,1.508a10.629,10.629,0,0,0-6.4,9.527,13.876,13.876,0,0,0,2.838,2.585c-.058-.067,1.473-6.434,3.9-8.336a1.441,1.441,0,0,1,1.275-.269,9.715,9.715,0,0,0,9.133-2.149Z" transform="translate(-22.957 -343.059)" fill="#efedef"/>
        <circle id="Elipse_4335" data-name="Elipse 4335" cx="7.233" cy="7.233" r="7.233" transform="translate(6.577 55.576)" fill="#f9f7f8"/>
        <path id="Trazado_111766" data-name="Trazado 111766" d="M50.33,347.949a7.235,7.235,0,0,1,5.311-6.973,7.233,7.233,0,1,0,0,13.946A7.235,7.235,0,0,1,50.33,347.949Z" transform="translate(-39.909 -285.14)" fill="#efedef"/>
        <path id="Trazado_111767" data-name="Trazado 111767" d="M353.089,342.187a13.808,13.808,0,0,0-10.625,22.628l18.021-.978c-.036.611-.063,1.107-.063,1.107l3.3-.129.889-1.2a13.808,13.808,0,0,0-11.518-21.426Z" transform="translate(-283.87 -286.365)" fill="#6bb6f8"/>
        <g id="Grupo_61750" data-name="Grupo 61750" transform="translate(58.595 67.415)">
          <g id="Grupo_61749" data-name="Grupo 61749">
            <path id="Trazado_111768" data-name="Trazado 111768" d="M379.623,422.731a13.81,13.81,0,0,1-21.254,0,10.629,10.629,0,0,1,6.4-9.527l3.264-1.508h2.375l2.814,1.508A10.63,10.63,0,0,1,379.623,422.731Z" transform="translate(-358.369 -411.697)" fill="#f9f7f8"/>
          </g>
        </g>
        <path id="Trazado_111769" data-name="Trazado 111769" d="M375.51,414.561a10.634,10.634,0,0,0-2.289-1.357l-.5-.267H370.77V411.89l-.362-.194h-2.375l-3.264,1.508a10.629,10.629,0,0,0-6.4,9.527,13.876,13.876,0,0,0,2.838,2.585c-.058-.067,1.473-6.434,3.9-8.336a1.441,1.441,0,0,1,1.275-.269,9.715,9.715,0,0,0,9.133-2.149Z" transform="translate(-299.774 -344.281)" fill="#efedef"/>
        <circle id="Elipse_4336" data-name="Elipse 4336" cx="7.233" cy="7.233" r="7.233" transform="translate(61.988 55.821)" fill="#f9f7f8"/>
        <path id="Trazado_111770" data-name="Trazado 111770" d="M382.559,349.416a7.235,7.235,0,0,1,5.311-6.973,7.233,7.233,0,1,0,0,13.946A7.235,7.235,0,0,1,382.559,349.416Z" transform="translate(-316.727 -286.362)" fill="#efedef"/>
        <g id="Grupo_61752" data-name="Grupo 61752" transform="translate(58.711 11.594)">
          <g id="Grupo_61751" data-name="Grupo 61751">
            <path id="Trazado_111771" data-name="Trazado 111771" d="M380.322,88.046a13.81,13.81,0,0,1-21.254,0,10.629,10.629,0,0,1,6.4-9.527l3.264-1.508h2.375l2.814,1.508A10.63,10.63,0,0,1,380.322,88.046Z" transform="translate(-359.068 -77.012)" fill="#f9f7f8"/>
          </g>
        </g>
        <path id="Trazado_111772" data-name="Trazado 111772" d="M376.209,79.877a10.634,10.634,0,0,0-2.289-1.357l-.5-.267h-1.954V77.206l-.362-.194h-2.375l-3.264,1.508a10.629,10.629,0,0,0-6.4,9.527,13.875,13.875,0,0,0,2.838,2.585c-.058-.067,1.473-6.434,3.9-8.336a1.442,1.442,0,0,1,1.275-.269,9.715,9.715,0,0,0,9.133-2.149Z" transform="translate(-300.356 -65.418)" fill="#efedef"/>
        <circle id="Elipse_4337" data-name="Elipse 4337" cx="7.233" cy="7.233" r="7.233" transform="translate(62.104)" fill="#f9f7f8"/>
        <path id="Trazado_111773" data-name="Trazado 111773" d="M383.257,14.731a7.235,7.235,0,0,1,5.311-6.973,7.233,7.233,0,1,0,0,13.946A7.234,7.234,0,0,1,383.257,14.731Z" transform="translate(-317.308 -7.498)" fill="#efedef"/>
        <circle id="Elipse_4338" data-name="Elipse 4338" cx="28.153" cy="28.153" r="28.153" transform="translate(13.401 13.545)" fill="#529ad9"/>
        <g id="XMLID_142_" transform="translate(20.073 20.218)">
          <g id="Grupo_61753" data-name="Grupo 61753">
            <circle id="Elipse_4339" data-name="Elipse 4339" cx="21.48" cy="21.48" r="21.48" fill="#f2fbff"/>
          </g>
        </g>
        <g id="XMLID_143_" transform="translate(28.564 26.389)">
          <g id="Grupo_61755" data-name="Grupo 61755">
            <g id="XMLID_157_" transform="translate(0 27.098)">
              <g id="Grupo_61754" data-name="Grupo 61754">
                <path id="Trazado_111774" data-name="Trazado 111774" d="M204.165,333.35l.128.157a21.484,21.484,0,0,1-25.979,0l.128-.157a15,15,0,0,1,8.613-5.165h8.5a14.987,14.987,0,0,1,8.613,5.165Z" transform="translate(-178.315 -328.185)" fill="#f37c7c"/>
              </g>
            </g>
            <path id="Trazado_111775" data-name="Trazado 111775" d="M190.437,328.185h-3.381a15,15,0,0,0-8.613,5.165l-.128.157a21.364,21.364,0,0,0,3.61,2.222l.036-.044a14.994,14.994,0,0,1,8.476-5.135v-2.366Z" transform="translate(-178.315 -301.087)" fill="#ee6161"/>
            <path id="Trazado_111776" data-name="Trazado 111776" d="M239.219,277.517a4.248,4.248,0,1,1-8.5,0v-10.14h8.652Z" transform="translate(-221.982 -250.421)" fill="#fed2a4"/>
            <path id="Trazado_111777" data-name="Trazado 111777" d="M218.286,166.233a.519.519,0,0,0-.841-.405l-1.554,1.218h-9.729A6.758,6.758,0,0,0,199.4,173.8v1.731l.853,3.114h16.392l1.7-3.114Z" transform="translate(-195.887 -165.716)" fill="#aa9ea9"/>
            <path id="Trazado_111778" data-name="Trazado 111778" d="M203.22,177.2v-1.731a6.758,6.758,0,0,1,6.758-6.758H218.3l-.016-2.474a.519.519,0,0,0-.841-.405l-1.554,1.218h-9.729A6.758,6.758,0,0,0,199.4,173.8v1.731l.853,3.114h3.362Z" transform="translate(-195.887 -165.716)" fill="#9b8e99"/>
            <path id="Trazado_111779" data-name="Trazado 111779" d="M234.971,277.016a11.909,11.909,0,0,0,4.268-.789l.068-4.447h-6.258v-4.4h-2.326v10.046a4.256,4.256,0,0,0,5.418,4.18,4.256,4.256,0,0,1-3.092-4.086V277.5a.564.564,0,0,1,.631-.558A11.794,11.794,0,0,0,234.971,277.016Z" transform="translate(-221.982 -250.421)" fill="#ffbd86"/>
            <path id="Trazado_111780" data-name="Trazado 111780" d="M218.348,224.587v4.8a9.472,9.472,0,1,1-18.944,0v-4.8Z" transform="translate(-195.887 -214.768)" fill="#ffe5c2"/>
            <path id="Trazado_111781" data-name="Trazado 111781" d="M203.215,229.389v-4.8H199.4v4.8a9.48,9.48,0,0,0,11.377,9.28A9.475,9.475,0,0,1,203.215,229.389Z" transform="translate(-195.887 -214.768)" fill="#fed2a4"/>
          </g>
        </g>
      </g>
      <g id="Grupo_61757" data-name="Grupo 61757" transform="translate(0.26 0)">
        <path id="Trazado_111782" data-name="Trazado 111782" d="M138.706,110.615a29.264,29.264,0,0,0-8.2-20.365,1.251,1.251,0,0,0-1.8,1.733,26.864,26.864,0,1,1-3.871-3.335,1.251,1.251,0,1,0,1.446-2.041,29.4,29.4,0,1,0,12.425,24.008Z" transform="translate(-66.616 -67.666)" fill="#3a3c07"/>
        <path id="Trazado_111783" data-name="Trazado 111783" d="M129.5,159.327a20.355,20.355,0,0,1-2.317-2.33,1.251,1.251,0,0,0-1.911,1.615,22.644,22.644,0,1,0-3.137-4.84,1.251,1.251,0,1,0,2.255-1.083,20.044,20.044,0,0,1-1.982-8.743,20.23,20.23,0,1,1,33.363,15.374,16.317,16.317,0,0,0-7.634-4.574v-2.281a10.82,10.82,0,0,0,2.293-1.845,1.251,1.251,0,1,0-1.818-1.718,8.145,8.145,0,0,1-5.974,2.578,8.231,8.231,0,0,1-8.221-8.221v-3.55h16.442v3.55a8.314,8.314,0,0,1-.136,1.481,1.251,1.251,0,0,0,2.461.448,10.8,10.8,0,0,0,.176-1.928v-4.8s0,0,0,0,0,0,0,0l-.062-9.3a1.771,1.771,0,0,0-2.863-1.383l-1.215.952h-9.3a8.019,8.019,0,0,0-8.01,8.01v6.532a10.727,10.727,0,0,0,5.224,9.2v2.288a16.317,16.317,0,0,0-7.64,4.581Zm10.426-28.11h9.728a1.252,1.252,0,0,0,.771-.266l.383-.3.043,6.555H134.413v-.48A5.514,5.514,0,0,1,139.921,131.218Zm13.837,29.617a20.2,20.2,0,0,1-22.252,0,13.815,13.815,0,0,1,5.853-3.557,5.5,5.5,0,0,0,10.55,0A13.817,13.817,0,0,1,153.758,160.835Zm-11.124-6.854a10.777,10.777,0,0,0,3-.424v2.176a3,3,0,1,1-5.995,0v-2.182A10.69,10.69,0,0,0,142.635,153.981Z" transform="translate(-99.948 -100.998)" fill="#3a3c07"/>
        <path id="Trazado_111784" data-name="Trazado 111784" d="M333.93,14.638a1.251,1.251,0,0,0,1.436-1.033,12.566,12.566,0,0,1,4.221-7.5c.106-.091.215-.178.324-.265a8.466,8.466,0,0,0,1.478,8.821,11.91,11.91,0,0,0-2,1.6,1.251,1.251,0,1,0,1.762,1.776,9.377,9.377,0,0,1,2.286-1.669,8.458,8.458,0,0,0,8.637,0,9.408,9.408,0,0,1,5.033,7.676,12.5,12.5,0,0,1-7.259,3.984,1.251,1.251,0,0,0,.206,2.485,1.268,1.268,0,0,0,.208-.017A15.059,15.059,0,1,0,332.9,13.2,1.251,1.251,0,0,0,333.93,14.638Zm7.845-5.57a5.982,5.982,0,1,1,5.982,5.982A5.989,5.989,0,0,1,341.774,9.068Zm18.54,6.576a12.58,12.58,0,0,1-1.238,5.46,11.938,11.938,0,0,0-4.951-6.44,8.464,8.464,0,0,0,1.481-8.812A12.538,12.538,0,0,1,360.315,15.644Z" transform="translate(-277.403 -0.487)" fill="#3a3c07"/>
        <path id="Trazado_111785" data-name="Trazado 111785" d="M12.816,29.909a1.25,1.25,0,0,0,1.44-1.027,1.251,1.251,0,0,0-1.027-1.44,12.5,12.5,0,0,1-7.256-3.976A9.409,9.409,0,0,1,11,15.879a8.458,8.458,0,0,0,8.637,0,9.371,9.371,0,0,1,2.271,1.653,1.251,1.251,0,1,0,1.758-1.78,11.93,11.93,0,0,0-1.979-1.576A8.465,8.465,0,0,0,23.1,5.207c.139.11.277.221.412.338a12.562,12.562,0,0,1,4.208,7.542,1.251,1.251,0,0,0,2.471-.39A15.06,15.06,0,1,0,12.816,29.909ZM9.338,8.581a5.982,5.982,0,1,1,5.982,5.982A5.989,5.989,0,0,1,9.338,8.581Zm-1.8-3.365a8.46,8.46,0,0,0,1.418,8.962A11.937,11.937,0,0,0,4.02,20.56,12.574,12.574,0,0,1,7.534,5.216Z" transform="translate(-0.26 0)" fill="#3a3c07"/>
        <path id="Trazado_111786" data-name="Trazado 111786" d="M350.571,334.411a1.251,1.251,0,0,0-.576,2.43l.031.013a5.982,5.982,0,1,1-6.941,9.033,1.251,1.251,0,1,0-2.056,1.426,8.508,8.508,0,0,0,.6.768,11.938,11.938,0,0,0-4.945,6.429,12.529,12.529,0,0,1-1.029-3.16,1.251,1.251,0,1,0-2.46.453,15.044,15.044,0,1,0,17.375-17.392ZM348,361.618a12.547,12.547,0,0,1-9.352-4.177,9.409,9.409,0,0,1,5.032-7.66,8.459,8.459,0,0,0,8.639,0,9.409,9.409,0,0,1,5.031,7.65A12.528,12.528,0,0,1,348,361.618Zm11.315-7.113a11.937,11.937,0,0,0-4.947-6.425,8.448,8.448,0,0,0,1.573-8.571,12.254,12.254,0,0,1,4.617,9.551A12.483,12.483,0,0,1,359.318,354.505Z" transform="translate(-277.65 -278.62)" fill="#3a3c07"/>
        <path id="Trazado_111787" data-name="Trazado 111787" d="M29.121,350.425a1.251,1.251,0,0,0-1.458,1,12.518,12.518,0,0,1-1.026,3.143,11.939,11.939,0,0,0-4.947-6.428,8.5,8.5,0,0,0,.586-.743,1.251,1.251,0,0,0-2.05-1.433,5.982,5.982,0,1,1-6.946-9.045l.03-.013a1.25,1.25,0,0,0-.6-2.424,14.969,14.969,0,1,0,17.41,17.4,1.251,1.251,0,0,0-1-1.458ZM7.376,339.58a8.445,8.445,0,0,0,1.575,8.559,11.937,11.937,0,0,0-4.946,6.427,12.483,12.483,0,0,1-1.244-5.446A12.25,12.25,0,0,1,7.376,339.58Zm7.944,22.1a12.528,12.528,0,0,1-9.351-4.187A9.409,9.409,0,0,1,11,349.841a8.458,8.458,0,0,0,8.639,0,9.409,9.409,0,0,1,5.032,7.659A12.55,12.55,0,0,1,15.32,361.678Z" transform="translate(-0.26 -278.68)" fill="#3a3c07"/>
      </g>
    </g>
  </g>
</svg>
