<svg xmlns="http://www.w3.org/2000/svg" width="105" height="105" viewBox="0 0 105 105">
  <g id="Grupo_61441" data-name="Grupo 61441" transform="translate(-326 -504)">
    <rect id="Rectángulo_5987" data-name="Rectángulo 5987" width="105" height="105" transform="translate(326 504)" fill="none"/>
    <g id="Layer_31" data-name="Layer 31" transform="translate(332.712 508.498)">
      <path id="Trazado_111195" data-name="Trazado 111195" d="M13,72.324V58.678A16.678,16.678,0,0,1,29.678,42H53.938A16.678,16.678,0,0,1,70.616,58.678V72.324Z" transform="translate(3.98 21.165)" fill="#ebf7fe"/>
      <path id="Trazado_111196" data-name="Trazado 111196" d="M23.613,69.292c18.528,0,34.448-9.416,41.544-22.925A16.678,16.678,0,0,0,53.938,42H29.678A16.678,16.678,0,0,0,13,58.678v9.537a52.931,52.931,0,0,0,10.613,1.076Z" transform="translate(3.98 21.165)" fill="#ebf7fe"/>
      <path id="Trazado_111197" data-name="Trazado 111197" d="M32,51.1,39.581,42h6.065L41.1,55.646Z" transform="translate(13.788 21.165)" fill="#c7e2fb"/>
      <path id="Trazado_111198" data-name="Trazado 111198" d="M36.646,51.1,29.065,42H23l4.549,13.646Z" transform="translate(9.142 21.165)" fill="#c7e2fb"/>
      <path id="Trazado_111199" data-name="Trazado 111199" d="M58.421,27.58v6.065a19.711,19.711,0,0,1-39.421,0V27.58H31.387A15.616,15.616,0,0,0,44.774,20,15.617,15.617,0,0,0,58.164,27.58Z" transform="translate(7.077 9.809)" fill="#fddfb1"/>
      <path id="Trazado_111200" data-name="Trazado 111200" d="M27,42l7.581,9.1L42.162,42Z" transform="translate(11.207 21.165)" fill="#fddfb1"/>
      <path id="Trazado_111201" data-name="Trazado 111201" d="M38.711,10A19.711,19.711,0,0,0,19,29.711v3.032H31.387a15.616,15.616,0,0,0,13.387-7.579,15.617,15.617,0,0,0,13.389,7.579h.258V29.711A19.711,19.711,0,0,0,38.711,10Z" transform="translate(7.077 4.646)" fill="#c18e5c"/>
      <path id="Trazado_111202" data-name="Trazado 111202" d="M45.944,25h-.758v6.065a19.559,19.559,0,0,1-.546,4.549h1.3a5.307,5.307,0,0,0,0-10.613Z" transform="translate(20.313 12.389)" fill="#fddfb1"/>
      <path id="Trazado_111203" data-name="Trazado 111203" d="M21.065,31.065V25h-.758a5.307,5.307,0,1,0,0,10.613h1.3a19.559,19.559,0,0,1-.546-4.549Z" transform="translate(5.012 12.389)" fill="#fddfb1"/>
      <path id="Trazado_111204" data-name="Trazado 111204" d="M54.454,57.518H53.2a21.227,21.227,0,0,0,9.461-12.13h.136a6.808,6.808,0,0,0,.758-13.57V30.227A21.121,21.121,0,0,0,61.4,20.963c3.836-.895,6.7-2.274,6.7-4.382,0-3.032-5.807-4.988-17.254-5.777a21.03,21.03,0,0,0-17.042,0c-11.447.788-17.254,2.744-17.254,5.777,0,2.108,2.866,3.487,6.7,4.382A21.121,21.121,0,0,0,21.1,30.227v1.592a6.833,6.833,0,0,0,.758,13.646h.136a21.227,21.227,0,0,0,9.461,12.13H30.194A18.2,18.2,0,0,0,12,75.713V89.359a1.516,1.516,0,0,0,1.516,1.516H71.132a1.516,1.516,0,0,0,1.516-1.516V75.713A18.194,18.194,0,0,0,54.454,57.518ZM34.03,60.551l5.9,7.081-5.822,2.911-3.32-9.992Zm12.63,0-4.336,5.216-4.336-5.216Zm3.957,0h3.245l-3.32,9.992L44.72,67.632ZM66.583,38.566a3.806,3.806,0,0,1-3.26,3.791,21.636,21.636,0,0,0,.227-3.032V34.851A3.791,3.791,0,0,1,66.583,38.566ZM64.825,16.581a15.951,15.951,0,0,1-5.034,1.607,21.485,21.485,0,0,0-3.351-3.775C61.322,15.065,63.945,16,64.825,16.581Zm-8.4,2.168a103.859,103.859,0,0,1-14.1.864,103.86,103.86,0,0,1-14.1-.864,18.194,18.194,0,0,1,28.2,0Zm-36.6-2.168c.879-.576,3.5-1.516,8.385-2.168a21.485,21.485,0,0,0-3.351,3.775A15.951,15.951,0,0,1,19.824,16.581Zm22.5,6.065a113.428,113.428,0,0,0,16-1.092,18.2,18.2,0,0,1,2.2,8.673v1.516a14.161,14.161,0,0,1-10.826-6.762,1.516,1.516,0,0,0-2.608,0,14.161,14.161,0,0,1-12.13,6.838H24.13V30.227a18.2,18.2,0,0,1,2.2-8.675,113.428,113.428,0,0,0,15.995,1.094ZM18.065,38.566A3.791,3.791,0,0,1,21.1,34.851v4.473a21.637,21.637,0,0,0,.227,3.032,3.806,3.806,0,0,1-3.26-3.791Zm6.065.758V34.775H35a17.239,17.239,0,0,0,13.388-6.444,17.27,17.27,0,0,0,12.13,6.444v4.549a18.194,18.194,0,1,1-36.389,0Zm-9.1,36.389a15.162,15.162,0,0,1,12.63-14.935l4.124,12.387a1.511,1.511,0,0,0,2.123.864l6.9-3.442V87.843H24.13v-9.1H21.1v9.1H15.032Zm54.583,12.13H63.551v-9.1H60.519v9.1H43.84V70.588l6.9,3.442a1.593,1.593,0,0,0,2.123-.91l4.124-12.387a15.162,15.162,0,0,1,12.63,14.98Z" transform="translate(3.464 4.13)" fill="#3a3c07"/>
      <path id="Trazado_111205" data-name="Trazado 111205" d="M34.581,33A7.581,7.581,0,0,0,27,40.581h3.032a4.549,4.549,0,0,1,9.1,0h3.032A7.581,7.581,0,0,0,34.581,33Z" transform="translate(11.207 16.519)" fill="#3a3c07"/>
      <path id="Trazado_111206" data-name="Trazado 111206" d="M58.065,15.791a.758.758,0,0,1,.758-.758H61.1V12H58.823a3.791,3.791,0,0,0-3.791,3.791.758.758,0,0,1-.758.758H52v3.032h2.274A3.791,3.791,0,0,0,58.065,15.791Z" transform="translate(24.112 5.678)" fill="#3a3c07"/>
      <path id="Trazado_111207" data-name="Trazado 111207" d="M9.032,15.791a3.791,3.791,0,0,0,3.791,3.791H15.1V16.549H12.823a.758.758,0,0,1-.758-.758A3.791,3.791,0,0,0,8.274,12H6v3.032H8.274A.758.758,0,0,1,9.032,15.791Z" transform="translate(0.367 5.678)" fill="#3a3c07"/>
      <path id="Trazado_111208" data-name="Trazado 111208" d="M14.387,21.29l-1.516,1.516a.531.531,0,0,1-.879,0,3.76,3.76,0,0,0-5.185,0L5.29,24.322l2.153,2.153,1.516-1.516a.531.531,0,0,1,.879,0,3.76,3.76,0,0,0,5.185,0l1.516-1.516Z" transform="translate(0 10.474)" fill="#3a3c07"/>
      <path id="Trazado_111209" data-name="Trazado 111209" d="M61.024,22.806a3.76,3.76,0,0,0-5.185,0,.531.531,0,0,1-.879,0L53.443,21.29,51.29,23.443l1.516,1.516a3.76,3.76,0,0,0,5.185,0,.531.531,0,0,1,.879,0l1.516,1.516,2.153-2.153Z" transform="translate(23.746 10.474)" fill="#3a3c07"/>
      <path id="Trazado_111210" data-name="Trazado 111210" d="M18,3h3.032V6.032H18Z" transform="translate(6.561 1.032)" fill="#3a3c07"/>
      <path id="Trazado_111211" data-name="Trazado 111211" d="M18,7h3.032v3.032H18Z" transform="translate(6.561 3.097)" fill="#3a3c07"/>
      <path id="Trazado_111212" data-name="Trazado 111212" d="M16,5h3.032V8.032H16Z" transform="translate(5.529 2.065)" fill="#3a3c07"/>
      <path id="Trazado_111213" data-name="Trazado 111213" d="M20,5h3.032V8.032H20Z" transform="translate(7.593 2.065)" fill="#3a3c07"/>
      <path id="Trazado_111214" data-name="Trazado 111214" d="M44,1h3.032V4.032H44Z" transform="translate(19.982)" fill="#3a3c07"/>
      <path id="Trazado_111215" data-name="Trazado 111215" d="M44,5h3.032V8.032H44Z" transform="translate(19.982 2.065)" fill="#3a3c07"/>
      <path id="Trazado_111216" data-name="Trazado 111216" d="M42,3h3.032V6.032H42Z" transform="translate(18.95 1.032)" fill="#3a3c07"/>
      <path id="Trazado_111217" data-name="Trazado 111217" d="M46,3h3.032V6.032H46Z" transform="translate(21.015 1.032)" fill="#3a3c07"/>
    </g>
  </g>
</svg>
