<svg xmlns="http://www.w3.org/2000/svg" width="105" height="105" viewBox="0 0 105 105">
  <g id="Grupo_61673" data-name="Grupo 61673" transform="translate(-326 -504)">
    <rect id="Rectángulo_5987" data-name="Rectángulo 5987" width="105" height="105" transform="translate(326 504)" fill="none"/>
    <g id="observation" transform="translate(333.181 511.189)">
      <g id="Grupo_61677" data-name="Grupo 61677" transform="translate(1.78 1.77)">
        <path id="Trazado_111483" data-name="Trazado 111483" d="M40.265,339.089l-8.032-8.032L11.666,351.624a5.679,5.679,0,0,0,8.032,8.032Z" transform="translate(-10.01 -274.233)" fill="#d7d6d8" fill-rule="evenodd"/>
        <path id="Trazado_111484" data-name="Trazado 111484" d="M135.569,301.958l8.032,8.032,6.258-6.258a32.356,32.356,0,0,1-8.032-8.031Z" transform="translate(-113.346 -245.134)" fill="#529ad9" fill-rule="evenodd"/>
        <path id="Trazado_111485" data-name="Trazado 111485" d="M170.535,74.363a32.182,32.182,0,1,0-32.182-32.182A32.244,32.244,0,0,0,170.535,74.363Z" transform="translate(-115.637 -10)" fill="#d7d6d8" fill-rule="evenodd"/>
        <path id="Trazado_111486" data-name="Trazado 111486" d="M203.455,100.2a25.1,25.1,0,1,0-25.1-25.1A25.15,25.15,0,0,0,203.455,100.2Z" transform="translate(-148.558 -42.92)" fill="#ddf7fd" fill-rule="evenodd"/>
        <g id="Grupo_61676" data-name="Grupo 61676" transform="translate(26.579 14.483)">
          <path id="Trazado_111487" data-name="Trazado 111487" d="M207.259,105.986a7.08,7.08,0,1,0-7.08-7.08A7.093,7.093,0,0,0,207.259,105.986Z" transform="translate(-193.099 -91.827)" fill="#f4cdac" fill-rule="evenodd"/>
          <path id="Trazado_111488" data-name="Trazado 111488" d="M174.338,185.986H160.179a14.159,14.159,0,1,1,28.319,0Z" transform="translate(-160.179 -157.668)" fill="#a0a603" fill-rule="evenodd"/>
          <path id="Trazado_111489" data-name="Trazado 111489" d="M367.259,105.986a7.08,7.08,0,1,0-7.08-7.08A7.093,7.093,0,0,0,367.259,105.986Z" transform="translate(-324.781 -91.827)" fill="#f4cdac" fill-rule="evenodd"/>
          <path id="Trazado_111490" data-name="Trazado 111490" d="M334.338,185.986H320.179a14.159,14.159,0,1,1,28.319,0Z" transform="translate(-291.86 -157.668)" fill="#a0a603" fill-rule="evenodd"/>
          <path id="Trazado_111491" data-name="Trazado 111491" d="M287.259,145.984a7.08,7.08,0,1,0-7.08-7.08A7.093,7.093,0,0,0,287.259,145.984Z" transform="translate(-258.94 -124.746)" fill="#f4cdac" fill-rule="evenodd"/>
          <path id="Trazado_111492" data-name="Trazado 111492" d="M254.338,225.984H240.179a14.159,14.159,0,1,1,28.319,0Z" transform="translate(-226.02 -190.586)" fill="#a0a603" fill-rule="evenodd"/>
        </g>
      </g>
      <g id="Grupo_61678" data-name="Grupo 61678" transform="translate(0.01)">
        <path id="Trazado_111493" data-name="Trazado 111493" d="M56.677,0A33.85,33.85,0,0,0,38.535,5.25a1.77,1.77,0,0,0,1.894,2.991A30.421,30.421,0,0,1,86.312,40.8a15.875,15.875,0,0,0-2.785-5.84c.013-.341.022-.679.022-1a26.872,26.872,0,0,0-53.724-1.033c-.019.512-.03,1.362-.013,2.057a15.876,15.876,0,0,0-2.77,5.82,30.46,30.46,0,0,1,3.924-23.09,1.77,1.77,0,0,0-2.991-1.894,33.925,33.925,0,0,0,.02,36.288l-5.242,5.242,0,0,0,0L2.185,77.91a7.466,7.466,0,0,0-.011,10.524l.011.011a7.458,7.458,0,0,0,10.535,0L33.286,67.878h0l5.244-5.244A33.947,33.947,0,1,0,56.677,0Zm8.849,23.332a5.31,5.31,0,1,1,5.312,5.31h0A5.316,5.316,0,0,1,65.527,23.332Zm13.4,3.584a23.161,23.161,0,0,1,.952,4.547,15.907,15.907,0,0,0-3.03-1.643A8.892,8.892,0,0,0,78.925,26.917Zm-22.245,8.8h0a5.31,5.31,0,1,1,5.312-5.31A5.316,5.316,0,0,1,56.675,35.721ZM42.52,28.642h0a5.31,5.31,0,1,1,5.312-5.31A5.316,5.316,0,0,1,42.516,28.642ZM36.508,29.82a15.906,15.906,0,0,0-3.031,1.644A23.417,23.417,0,0,1,34.42,26.9,8.884,8.884,0,0,0,36.508,29.82Zm6.008,2.362h0a12.363,12.363,0,0,1,5.944,1.52,8.881,8.881,0,0,0,2.2,3.2,16.023,16.023,0,0,0-7.229,5.9H30.254A12.409,12.409,0,0,1,42.516,32.182Zm-.857,14.159a15.835,15.835,0,0,0-.9,4.652,23.315,23.315,0,0,1-3.853-4.652ZM49.6,53.42a1.77,1.77,0,1,0,0-3.54H44.414A12.409,12.409,0,0,1,56.675,39.261h0A12.409,12.409,0,0,1,68.94,49.881H63.756a1.77,1.77,0,1,0,0,3.54H69.5a23.213,23.213,0,0,1-25.646,0Zm22.995-2.426a15.827,15.827,0,0,0-.9-4.653h4.749A23.307,23.307,0,0,1,72.592,50.994ZM69.916,42.8a16.023,16.023,0,0,0-7.228-5.9,8.882,8.882,0,0,0,2.2-3.2,12.367,12.367,0,0,1,5.944-1.52h0A12.409,12.409,0,0,1,83.1,42.8Zm-.27-28.236a8.861,8.861,0,0,0-7.659,8.767s0,0,0,0a8.83,8.83,0,0,0-10.62,0v0a8.861,8.861,0,0,0-7.713-8.774,23.392,23.392,0,0,1,25.992.007ZM10.216,85.941A3.913,3.913,0,0,1,4.7,85.95l-.009-.009a3.926,3.926,0,0,1,0-5.528L24,61.1l5.529,5.529ZM32.034,64.123l-5.529-5.528,3.57-3.57A34.259,34.259,0,0,0,35.6,60.552Zm24.643.241A30.454,30.454,0,0,1,28.906,46.341h3.925a26.871,26.871,0,0,0,47.692,0h3.925A30.454,30.454,0,0,1,56.677,64.363Z" transform="translate(-0.01)" fill="#3a3c07"/>
        <path id="Trazado_111494" data-name="Trazado 111494" d="M183.373,56.8a1.77,1.77,0,1,0-1.308-2.961h0a1.77,1.77,0,0,0,1.309,2.96Z" transform="translate(-149.463 -43.83)" fill="#3a3c07"/>
        <path id="Trazado_111495" data-name="Trazado 111495" d="M313.715,283.595a1.77,1.77,0,0,0-1.77-1.77h0a1.77,1.77,0,1,0,1.771,1.77Z" transform="translate(-255.278 -231.944)" fill="#3a3c07"/>
      </g>
    </g>
  </g>
</svg>
