<svg xmlns="http://www.w3.org/2000/svg" width="105" height="105" viewBox="0 0 105 105">
  <g id="Grupo_61420" data-name="Grupo 61420" transform="translate(-326 -504)">
    <rect id="Rectángulo_5987" data-name="Rectángulo 5987" width="105" height="105" transform="translate(326 504)" fill="none"/>
    <g id="microscope" transform="translate(314.642 509.853)">
      <g id="Grupo_61495" data-name="Grupo 61495" transform="translate(28.673 25.744)">
        <path id="Trazado_111133" data-name="Trazado 111133" d="M62.9,156.517c1.874,1.843,4.372,2.29,7.3-.644a24.864,24.864,0,0,1,5.722-10.135l-1.386-4.455c-.005-.01-3.956.005-3.962,0A31.805,31.805,0,0,0,62.9,156.517Z" transform="translate(-62.903 -141.279)" fill="#dddaec" fill-rule="evenodd"/>
      </g>
      <g id="Grupo_61496" data-name="Grupo 61496" transform="translate(31.388 58.871)">
        <path id="Trazado_111134" data-name="Trazado 111134" d="M83.844,334.039a31.826,31.826,0,0,0,15.286,8.515c2.887-1.547,3.951-4.175.53-7.041a25.118,25.118,0,0,1-14.632-11.148c-2.705-2.072-5.27-1.636-7.222,1.277a31.831,31.831,0,0,0,6.039,8.4Z" transform="translate(-77.805 -323.079)" fill="#dddaec" fill-rule="evenodd"/>
      </g>
      <g id="Grupo_61497" data-name="Grupo 61497" transform="translate(52.713 66.72)">
        <path id="Trazado_111135" data-name="Trazado 111135" d="M194.833,377.78V383.8l7.321,2.041,7.311-2.041V373.47a7.225,7.225,0,0,0-.53-2.726,7.313,7.313,0,0,0-13.572-.005,7.248,7.248,0,0,0-.53,2.731v4.31Z" transform="translate(-194.833 -366.154)" fill="#365e7d" fill-rule="evenodd"/>
      </g>
      <g id="Grupo_61498" data-name="Grupo 61498" transform="translate(65.798 58.282)">
        <path id="Trazado_111136" data-name="Trazado 111136" d="M268.191,339.918a32.032,32.032,0,0,0,21.786-17.862l-4.232-2.207-3.645,2.207a25.093,25.093,0,0,1-14.44,10.821C265.937,334.7,266.6,337.665,268.191,339.918Z" transform="translate(-266.644 -319.85)" fill="#dddaec" fill-rule="evenodd"/>
      </g>
      <g id="Grupo_61499" data-name="Grupo 61499" transform="translate(29.364 7.169)">
        <path id="Trazado_111137" data-name="Trazado 111137" d="M66.693,45.226l6.8,5.67,4.149-1.807.753-4.071-6.8-5.675-3.806,1.989Z" transform="translate(-66.693 -39.343)" fill="#f9f7f8" fill-rule="evenodd"/>
      </g>
      <g id="Grupo_61500" data-name="Grupo 61500" transform="translate(25.495 84.363)">
        <path id="Trazado_111138" data-name="Trazado 111138" d="M72.681,462.982H46.866a1.409,1.409,0,0,0-1.4,1.4v4.761a1.409,1.409,0,0,0,1.4,1.4h66.262a1.409,1.409,0,0,0,1.4-1.4v-4.761a1.409,1.409,0,0,0-1.4-1.4H72.681Z" transform="translate(-45.464 -462.982)" fill="#22a6fe" fill-rule="evenodd"/>
      </g>
      <g id="Grupo_61501" data-name="Grupo 61501" transform="translate(23.369 1.369)">
        <path id="Trazado_111139" data-name="Trazado 111139" d="M41.161,8.546l-6.7,8.027a2.885,2.885,0,0,0,4.429,3.7l.9-1.075,4.9-5.883.9-1.075a2.876,2.876,0,0,0-2.207-4.725h-.005a2.89,2.89,0,0,0-2.217,1.033Z" transform="translate(-33.796 -7.513)" fill="#22a6fe" fill-rule="evenodd"/>
      </g>
      <g id="Grupo_61502" data-name="Grupo 61502" transform="translate(64.665 36.729)">
        <path id="Trazado_111140" data-name="Trazado 111140" d="M264.69,201.567l-4.143.971-.119,4.138,3.686,3.074a3.45,3.45,0,0,0,4.683-.421,3.24,3.24,0,0,0-.421-4.684Z" transform="translate(-260.427 -201.567)" fill="#365e7d" fill-rule="evenodd"/>
      </g>
      <g id="Grupo_61503" data-name="Grupo 61503" transform="translate(57.23 29.543)">
        <path id="Trazado_111141" data-name="Trazado 111141" d="M222.454,176.05a2.5,2.5,0,0,0,3.515-.317l1.09-1.308,4.263-5.109,1.09-1.308a2.5,2.5,0,0,0-.317-3.51l-2.835-2.368-6.833,2.659-2.8,8.9Z" transform="translate(-219.624 -162.129)" fill="#f9f7f8" fill-rule="evenodd"/>
      </g>
      <g id="Grupo_61504" data-name="Grupo 61504" transform="translate(34.695 10.707)">
        <path id="Trazado_111142" data-name="Trazado 111142" d="M102.954,78.254l13.816,11.517a.924.924,0,0,0,1.3-.119l.415-.5,9.637-11.558.415-.5a.923.923,0,0,0-.119-1.3l-3.78-3.152-15.364-12.8a4.678,4.678,0,0,0-6.573.6l-.384.462-4.9,5.878-.389.467a4.687,4.687,0,0,0,.576,6.558C99.3,75.3,101.2,76.79,102.954,78.254Z" transform="translate(-95.955 -58.759)" fill="#22a6fe" fill-rule="evenodd"/>
      </g>
      <g id="Grupo_61505" data-name="Grupo 61505" transform="translate(63.159 52.592)">
        <path id="Trazado_111143" data-name="Trazado 111143" d="M289.542,288.62H253.092a.979.979,0,0,0-.929,1.013v5.872a.979.979,0,0,0,.929,1.013h40.291a.975.975,0,0,0,.924-1.013v-1.667A5.021,5.021,0,0,0,289.542,288.62Z" transform="translate(-252.163 -288.62)" fill="#365e7d" fill-rule="evenodd"/>
      </g>
      <g id="Grupo_61506" data-name="Grupo 61506" transform="translate(93.378 52.591)">
        <path id="Trazado_111144" data-name="Trazado 111144" d="M429.928,295.5v-1.667a5.568,5.568,0,0,0-.384-2.056,4.8,4.8,0,0,0-4.382-3.162H418a5.022,5.022,0,0,1,4.771,5.218V295.5a.976.976,0,0,1-.929,1.013H429a.889.889,0,0,0,.54-.192,1.036,1.036,0,0,0,.384-.821Z" transform="translate(-418.002 -288.619)" fill="#2b4d66" fill-rule="evenodd"/>
      </g>
      <g id="Grupo_61507" data-name="Grupo 61507" transform="translate(57.059 66.72)">
        <path id="Trazado_111145" data-name="Trazado 111145" d="M228.97,373.471a7.225,7.225,0,0,0-.53-2.726,7.3,7.3,0,0,0-9.756-3.957,7.382,7.382,0,0,1,3.821,3.956,7.221,7.221,0,0,1,.53,2.726V383.8h5.935V373.471Z" transform="translate(-218.684 -366.155)" fill="#2b4d66" fill-rule="evenodd"/>
      </g>
      <g id="Grupo_61508" data-name="Grupo 61508" transform="translate(87.225 84.363)">
        <path id="Trazado_111146" data-name="Trazado 111146" d="M391.573,469.145v-4.761a1.409,1.409,0,0,0-1.4-1.4h-5.935a1.409,1.409,0,0,1,1.4,1.4v4.761a1.409,1.409,0,0,1-1.4,1.4h5.935A1.409,1.409,0,0,0,391.573,469.145Z" transform="translate(-384.236 -462.982)" fill="#0593fc" fill-rule="evenodd"/>
      </g>
      <g id="Grupo_61509" data-name="Grupo 61509" transform="translate(28.034 1.37)">
        <path id="Trazado_111147" data-name="Trazado 111147" d="M66.527,12.239A2.876,2.876,0,0,0,64.32,7.514h-.005A2.889,2.889,0,0,0,62.1,8.547l-2.7,3.235a2.878,2.878,0,0,1,2.212-1.023h.005a2.876,2.876,0,0,1,2.861,3.162,2.929,2.929,0,0,1-.649,1.558v-.005l1.8-2.16Z" transform="translate(-59.398 -7.514)" fill="#0593fc" fill-rule="evenodd"/>
      </g>
      <g id="Grupo_61510" data-name="Grupo 61510" transform="translate(38.839 10.707)">
        <path id="Trazado_111148" data-name="Trazado 111148" d="M143.238,72.642l-15.364-12.8a4.678,4.678,0,0,0-6.573.6l-.384.462L118.7,63.566a4.6,4.6,0,0,1,1.973-1.309,4.678,4.678,0,0,1,4.5.82l15.364,12.809,3.37,2.8.41.348a.927.927,0,0,1,.119,1.3l-.421.5h.005l2.705-3.245.415-.5a.923.923,0,0,0-.119-1.3Z" transform="translate(-118.695 -58.76)" fill="#0593fc" fill-rule="evenodd"/>
      </g>
      <g id="Grupo_61511" data-name="Grupo 61511" transform="translate(64.161 29.543)">
        <path id="Trazado_111149" data-name="Trazado 111149" d="M263.52,168.007a2.5,2.5,0,0,0-.317-3.51l-2.835-2.368-2.705,3.245,2.835,2.368a2.506,2.506,0,0,1,.317,3.51l.005-.005,1.61-1.931Z" transform="translate(-257.663 -162.129)" fill="#dddaec" fill-rule="evenodd"/>
      </g>
      <g id="Grupo_61512" data-name="Grupo 61512" transform="translate(67.313 36.729)">
        <path id="Trazado_111150" data-name="Trazado 111150" d="M274.965,203.5l-.005.005Zm5.3,1.147-3.686-3.079-1.609,1.932-.005.005,3.686,3.074a3.437,3.437,0,0,1,1.142,3.432,4.146,4.146,0,0,0,.893-.68A3.239,3.239,0,0,0,280.261,204.645Z" transform="translate(-274.96 -201.566)" fill="#2b4d66" fill-rule="evenodd"/>
      </g>
      <g id="Grupo_61513" data-name="Grupo 61513" transform="translate(32.655 7.169)">
        <path id="Trazado_111151" data-name="Trazado 111151" d="M93.165,45.018l-6.8-5.675-1.61,1.937,6.8,5.67H91.55Z" transform="translate(-84.759 -39.343)" fill="#dddaec" fill-rule="evenodd"/>
      </g>
      <g id="Grupo_61514" data-name="Grupo 61514" transform="translate(22.416 39.98)">
        <path id="Trazado_111152" data-name="Trazado 111152" d="M31.73,237.855a10.825,10.825,0,0,0,13.032,1.729,10.962,10.962,0,0,0,2.248-1.729,10.8,10.8,0,0,0,0-15.281,10.683,10.683,0,0,0-4.886-2.809,10.806,10.806,0,0,0-10.395,18.09Z" transform="translate(-28.567 -219.407)" fill="#365e7d" fill-rule="evenodd"/>
      </g>
      <g id="Grupo_61515" data-name="Grupo 61515" transform="translate(28.779 46.343)">
        <path id="Trazado_111153" data-name="Trazado 111153" d="M64.788,261.909a4.441,4.441,0,1,0,0-6.283A4.438,4.438,0,0,0,64.788,261.909Z" transform="translate(-63.487 -254.326)" fill="#f9f7f8" fill-rule="evenodd"/>
      </g>
      <g id="Grupo_61516" data-name="Grupo 61516" transform="translate(29.857 39.981)">
        <path id="Trazado_111154" data-name="Trazado 111154" d="M80.4,237.859a10.8,10.8,0,0,0,0-15.281,10.683,10.683,0,0,0-4.886-2.809,10.837,10.837,0,0,0-4.455-.223,10.666,10.666,0,0,1,2.928,1.485,11.159,11.159,0,0,1,1.35,1.142,10.81,10.81,0,0,1-2.248,17.01,10.682,10.682,0,0,1-3.692,1.3,10.456,10.456,0,0,0,1.532.379,10.822,10.822,0,0,0,7.222-1.277A10.95,10.95,0,0,0,80.4,237.859Z" transform="translate(-69.401 -219.413)" fill="#2b4d66" fill-rule="evenodd"/>
      </g>
      <g id="Grupo_61517" data-name="Grupo 61517" transform="translate(31.3 46.344)">
        <path id="Trazado_111155" data-name="Trazado 111155" d="M82.378,261.913a4.442,4.442,0,0,0-4.964-7.191,4.37,4.37,0,0,1,1.22.867,4.453,4.453,0,0,1-1.314,7.191A4.438,4.438,0,0,0,82.378,261.913Z" transform="translate(-77.321 -254.331)" fill="#dddaec" fill-rule="evenodd"/>
      </g>
      <g id="Grupo_61518" data-name="Grupo 61518" transform="translate(21.046 0.001)">
        <path id="Trazado_111156" data-name="Trazado 111156" d="M61.823,246.825a5.768,5.768,0,0,0-4.106,1.7,5.826,5.826,0,0,0,0,8.214,5.807,5.807,0,1,0,4.1-9.916Zm2.172,7.984a3.071,3.071,0,0,1-4.343,0,3.087,3.087,0,0,1,0-4.351,3.074,3.074,0,1,1,4.345,4.35Z" transform="translate(-49.65 -201.85)" fill="#3a3c07"/>
        <path id="Trazado_111157" data-name="Trazado 111157" d="M229.825,407.456a1.393,1.393,0,1,0,.01.011Z" transform="translate(-189.877 -332.882)" fill="#3a3c07"/>
        <path id="Trazado_111158" data-name="Trazado 111158" d="M100.538,51.225h-14a1.367,1.367,0,1,0,0,2.733h14a3.651,3.651,0,0,1,3.4,3.852v1.313H64.526V53.958H80.195a1.367,1.367,0,1,0,0-2.733H64.089a2.341,2.341,0,0,0-2.3,2.379v5.872a2.341,2.341,0,0,0,2.3,2.379H78.621a23.944,23.944,0,0,1-1.859,2.091,23.693,23.693,0,0,1-9.239,5.714,8.674,8.674,0,0,0-14.986,0A23.706,23.706,0,0,1,40.49,60.547a12.18,12.18,0,0,0-2.807-21.089A23.253,23.253,0,0,1,41.841,32.1L54.632,42.765A2.268,2.268,0,0,0,56.1,43.3q.1,0,.21-.009a2.282,2.282,0,0,0,1.007-.338l1.87,1.561a3.867,3.867,0,0,0,5.439-.492l.216-.259,2.636,2.2A4.5,4.5,0,0,0,70.379,47,5.144,5.144,0,0,0,74,45.458a4.216,4.216,0,0,0,1.214-3.217,4.826,4.826,0,0,0-1.725-3.482l-2.639-2.2.215-.258a3.865,3.865,0,0,0-.489-5.436L68.7,29.295a2.285,2.285,0,0,0,.151-1.068,2.253,2.253,0,0,0-.815-1.535l-3.78-3.152h0L48.9,10.737a6.044,6.044,0,0,0-7.97.214L36.191,7l.021-.025a4.25,4.25,0,0,0-6.526-5.445l-6.7,8.028A4.251,4.251,0,0,0,29.513,15l0,0,.022-.026,4.737,3.951a6.051,6.051,0,0,0,.238,6.846,33.254,33.254,0,0,0-7.034,14.274,12.219,12.219,0,0,0-2.864,2.131,12.16,12.16,0,0,0,5.853,20.456,33.387,33.387,0,0,0,20.88,16.773V83H42.1a1.367,1.367,0,0,0,0,2.733H93.16a.047.047,0,0,1,.035.035v4.761a.047.047,0,0,1-.035.035H26.9a.047.047,0,0,1-.035-.035V85.765a.047.047,0,0,1,.035-.035h8.858a1.367,1.367,0,1,0,0-2.733H26.9a2.772,2.772,0,0,0-2.768,2.768v4.761A2.772,2.772,0,0,0,26.9,93.295H93.16a2.772,2.772,0,0,0,2.768-2.769V85.765A2.772,2.772,0,0,0,93.16,83H68.711V79.414A33.4,33.4,0,0,0,90,61.855H104.38a2.339,2.339,0,0,0,2.291-2.379V57.809a6.378,6.378,0,0,0-6.133-6.584Zm-28.8-10.367a2.116,2.116,0,0,1,.746,1.507,1.509,1.509,0,0,1-.417,1.161,2.111,2.111,0,0,1-2.842.337l-2.636-2.2L67.979,40,69.1,38.655Zm-2.912-7.9a1.132,1.132,0,0,1,.142,1.584l-6.444,7.727a1.144,1.144,0,0,1-1.589.142l-1.781-1.487,7.886-9.459Zm-26.332-19.7a3.283,3.283,0,0,1,2.245-1.17c.1-.009.2-.014.3-.014a3.254,3.254,0,0,1,2.1.761L65.949,28.509l-9.9,11.877L37.241,24.712a3.3,3.3,0,0,1-.421-4.648Zm-15.078-.007a1.525,1.525,0,0,1-2.142.19,1.524,1.524,0,0,1-.189-2.135l6.7-8.028a1.51,1.51,0,0,1,1.031-.538q.071-.007.142-.007a1.5,1.5,0,0,1,.966.348,1.519,1.519,0,0,1,.192,2.137Zm3.87-.374L34.44,9.1l4.7,3.922L35.986,16.8ZM36.5,27.655l3.24,2.7a26.459,26.459,0,0,0-4.7,8.394,12.269,12.269,0,0,0-4.461.155A30.52,30.52,0,0,1,36.5,27.655ZM26.545,57.461A9.439,9.439,0,1,1,39.892,44.112h0A9.439,9.439,0,0,1,26.545,57.461Zm24.8,16.574v2.53A30.659,30.659,0,0,1,33.765,62.938a12.2,12.2,0,0,0,4.357-1.015A26.418,26.418,0,0,0,51.542,72.2,8.678,8.678,0,0,0,51.346,74.036ZM65.978,83h-11.9V74.036a5.949,5.949,0,1,1,11.9,0V83Zm15.7-14.132a30.513,30.513,0,0,1-12.962,7.707V74.036a8.69,8.69,0,0,0-.195-1.826A26.461,26.461,0,0,0,82,61.856h4.923a30.556,30.556,0,0,1-5.248,7.009Z" transform="translate(-21.046 -0.001)" fill="#3a3c07"/>
      </g>
    </g>
  </g>
</svg>
