<svg xmlns="http://www.w3.org/2000/svg" width="399" height="265" viewBox="0 0 399 265">
  <g id="Grupo_61739" data-name="Grupo 61739" transform="translate(-181 -1065)">
    <rect id="Rectángulo_5570" data-name="Rectángulo 5570" width="399" height="193" rx="10" transform="translate(181 1137)" fill="#a0a603" opacity="0.25"/>
    <g id="Grupo_61305" data-name="Grupo 61305" transform="translate(0 -108)">
      <rect id="Rectángulo_5999" data-name="Rectángulo 5999" width="252" height="252" transform="translate(264 1173)" fill="none"/>
      <g id="Grupo_61267" data-name="Grupo 61267" transform="translate(856.392 998.937)">
        <path id="Trazado_110775" data-name="Trazado 110775" d="M-552.724,414.308a18.06,18.06,0,0,1-7.882-1.546c-2.946-1.4-11.589-5.516-10.327-38.6a5.948,5.948,0,0,1-3.25-2.168,5.944,5.944,0,0,1-1.05-4.952,124.749,124.749,0,0,1,9.871-27.137c-.181-.652-.346-1.276-.5-1.88-.523-2.031-.985-4.131-1.363-6.205a93.27,93.27,0,0,1-1.278-9.742c-.2-2.381-.305-4.955-.305-7.607a95.284,95.284,0,0,1,9.957-42.383,26.744,26.744,0,0,1-2.5-11.292,26.914,26.914,0,0,1,26.883-26.884,26.482,26.482,0,0,1,8.212,1.3c.928-.62,1.878-1.226,2.834-1.813a7.016,7.016,0,0,1,.6-.364c2.078-1.259,4.256-2.462,6.48-3.579.211-.106.411-.206.622-.306q1.529-.755,3.083-1.454a36.859,36.859,0,0,1,.159-14.836,15.939,15.939,0,0,1,1.645-5.035,14.538,14.538,0,0,1,4.4-4.818,24.413,24.413,0,0,1,7.886-10.7,33.76,33.76,0,0,1,13.839-6.237,43.446,43.446,0,0,1,9.275-1,40.431,40.431,0,0,1,21.626,6.059,36.544,36.544,0,0,1,8.169,7.041,36.89,36.89,0,0,1,8.7,26.2q-.059,1.169-.193,2.359,1.171.488,2.328,1.009a26.89,26.89,0,0,1,16.544-5.724,26.913,26.913,0,0,1,26.882,26.883,26.559,26.559,0,0,1-3.269,12.842A94.917,94.917,0,0,1-385.5,279.03a15,15,0,0,1,9.882,14.044,14.855,14.855,0,0,1-3.527,9.626h15.809a5.95,5.95,0,0,1,4.828,2.472,5.952,5.952,0,0,1,.814,5.363l-21.549,64.479a5.948,5.948,0,0,1-5.643,4.065h-19.133a94.8,94.8,0,0,1-9.106,8.638,94.919,94.919,0,0,1-8.911,6.551c-.262.178-.515.341-.783.5a94.7,94.7,0,0,1-50.913,14.786,94.223,94.223,0,0,1-37.541-7.715l-1.491.061C-518.382,404.6-539.453,414.308-552.724,414.308Z" transform="translate(0 0)" fill="#fff"/>
        <g id="Grupo_61266" data-name="Grupo 61266" transform="translate(-568.935 191.013)">
          <g id="Grupo_61232" data-name="Grupo 61232" transform="translate(6.585 34.324)">
            <path id="Trazado_110776" data-name="Trazado 110776" d="M-383.647,315.889A88.635,88.635,0,0,1-394.1,357.8a89.521,89.521,0,0,1-21.857,26.756,88.408,88.408,0,0,1-8.41,6.177,6.672,6.672,0,0,1-.565.357,88.628,88.628,0,0,1-47.839,13.933,88.584,88.584,0,0,1-47.382-13.645,1.856,1.856,0,0,1-.268-.159l-.328-.208c-.416-.258-.833-.536-1.23-.8q-2.93-1.933-5.692-4.105c-.247-.188-.5-.386-.744-.585-1.656-1.319-3.252-2.7-4.81-4.155a87.486,87.486,0,0,1-9.689-10.483,89.3,89.3,0,0,1-8.033-12.158c-.108-.179-.208-.377-.307-.565a88.532,88.532,0,0,1-5.91-13.527q-1.116-3.257-1.964-6.634c-.5-1.923-.922-3.857-1.28-5.821a86.8,86.8,0,0,1-1.2-9.133c-.2-2.35-.287-4.74-.287-7.15A88.969,88.969,0,0,1-524.2,243.1q2.439-1.74,5-3.3a1.244,1.244,0,0,1,.247-.149q3.05-1.859,6.248-3.461c.179-.09.357-.179.546-.268,2.062-1.022,4.2-1.973,6.346-2.826h.011c1.735-.7,3.49-1.339,5.285-1.924a88,88,0,0,1,16.868-3.749c.5-.059.982-.119,1.468-.168q3.005-.327,6.088-.426c1.1-.05,2.212-.07,3.322-.07.516,0,1.022.01,1.527.019h.338a90.972,90.972,0,0,1,9.212.665c1.7.209,3.391.467,5.047.783A89.14,89.14,0,0,1-383.647,315.889Z" transform="translate(561.89 -226.757)" fill="#a0a603"/>
          </g>
          <g id="Grupo_61249" data-name="Grupo 61249">
            <path id="Trazado_110777" data-name="Trazado 110777" d="M-415.081,386.529c-2.678,2.221-5.274,5.653-8.2,7.547-.188.129-.308,1.157-.507,1.266-13.813,8.816-31,12.913-48.613,12.913-17.414,0-33.152-6.257-46.877-14.9a1.857,1.857,0,0,1-.268-.159l-.328-.208c-.416-.258-.833-.536-1.23-.8q-2.93-1.933-5.692-4.105c-.247-.188-.5-.386-.744-.585-1.656-1.319-3.252-2.7-4.81-4.155l-3.857-67.92a105.516,105.516,0,0,1,40.639-30.593l34.807,1.646s36.97,21.857,40.689,31.654C-417.67,324.45-415.973,361.291-415.081,386.529Z" transform="translate(567.6 -194.409)" fill="#fff"/>
            <g id="Grupo_61244" data-name="Grupo 61244" transform="translate(55.581)">
              <path id="Trazado_110778" data-name="Trazado 110778" d="M-503.736,215.135c-1.476,5.919-.415,12.165,1.076,18.08s3.422,11.793,3.69,17.888c.127,2.879-.1,5.865.97,8.539,1.353,3.367,4.6,5.663,8.027,6.858a12.526,12.526,0,0,0,1.028-5.66c.017-8.219-.352-16.518-2.448-24.466S-497.532,220.527-503.736,215.135Z" transform="translate(510.939 -192.037)" fill="#0b0a10"/>
              <path id="Trazado_110779" data-name="Trazado 110779" d="M-458.961,270.983l-.03,1.081-.248,9.4-.109,4.076s-3.034,6.208-15.063,7.338-19.744-8.984-19.744-8.984a94.89,94.89,0,0,0,1.388-13.041,50.431,50.431,0,0,0-2.023-13.288Z" transform="translate(510.61 -193.482)" fill="#ffa4d0"/>
              <path id="Trazado_110780" data-name="Trazado 110780" d="M-458.781,272.4l-.248,9.4a22.976,22.976,0,0,1-16.353-.783,25.883,25.883,0,0,1-13.238-13.7C-478.476,269.074-468.5,269.262-458.781,272.4Z" transform="translate(510.4 -193.813)" fill="#0b0a10"/>
              <g id="Grupo_61243" data-name="Grupo 61243">
                <g id="Grupo_61238" data-name="Grupo 61238" transform="translate(0 6.734)">
                  <g id="Grupo_61233" data-name="Grupo 61233" transform="translate(10.455)">
                    <path id="Trazado_110781" data-name="Trazado 110781" d="M-452.031,272.37c-14.5,8.879-36.685,4.711-42.176-13.755a170.4,170.4,0,0,1-4.562-18.909c-.469-2.67-.73-4.753-.892-6.234a29.651,29.651,0,0,1-.683-6.2,29.113,29.113,0,0,1,29.15-29.079,29.143,29.143,0,0,1,17.638,5.865,29.225,29.225,0,0,1,9.516,12.369c2.261,5.615,2.066,11.5,2.133,17.428.05,4.434.072,8.846-.279,13.276-.617,7.78-1.774,17.7-7.64,23.492A12.25,12.25,0,0,1-452.031,272.37Z" transform="translate(500.344 -198.194)" fill="#ffa4d0"/>
                  </g>
                  <g id="Grupo_61237" data-name="Grupo 61237" transform="translate(0 38.148)">
                    <g id="Grupo_61235" data-name="Grupo 61235">
                      <g id="Grupo_61234" data-name="Grupo 61234">
                        <path id="Trazado_110782" data-name="Trazado 110782" d="M-504.278,237.709a7.349,7.349,0,0,0-5.6,3.614,10.082,10.082,0,0,0-1.16,6.685,12.693,12.693,0,0,0,10.37,10.333,6.524,6.524,0,0,0,3.868-.417,5.716,5.716,0,0,0,2.853-4.23,12.825,12.825,0,0,0-.445-5.239C-495.62,243.589-498.029,237.259-504.278,237.709Z" transform="translate(511.167 -237.686)" fill="#ffa4d0"/>
                      </g>
                    </g>
                    <g id="Grupo_61236" data-name="Grupo 61236" transform="translate(5.522 6.744)">
                      <path id="Trazado_110783" data-name="Trazado 110783" d="M-499.777,250.993a.289.289,0,0,0,.07-.029.317.317,0,0,0,.124-.431,22.344,22.344,0,0,0-2.163-3.4,7.617,7.617,0,0,0-3.28-2.451.319.319,0,0,0-.406.192.317.317,0,0,0,.193.4,6.989,6.989,0,0,1,3,2.256,21.821,21.821,0,0,1,2.1,3.3A.317.317,0,0,0-499.777,250.993Z" transform="translate(505.451 -244.668)" fill="#0b0a10"/>
                    </g>
                  </g>
                </g>
                <g id="Grupo_61241" data-name="Grupo 61241" transform="translate(32.969 38.149)">
                  <g id="Grupo_61239" data-name="Grupo 61239" transform="translate(3.546 7.909)">
                    <path id="Trazado_110784" data-name="Trazado 110784" d="M-457.269,238.9c1.242,4.8,2.3,9.856,1.406,14.7a1,1,0,0,1-1.376.754c-.731-.317-1.476-.646-2.18-.938" transform="translate(472.89 -238.904)" fill="none" stroke="#0b0a10" stroke-linecap="round" stroke-linejoin="round" stroke-width="0.513"/>
                    <path id="Trazado_110785" data-name="Trazado 110785" d="M-469.266,241.38a2.224,2.224,0,0,1-2.05,2.365,2.224,2.224,0,0,1-2.05-2.365,2.224,2.224,0,0,1,2.05-2.365A2.224,2.224,0,0,1-469.266,241.38Z" transform="translate(473.365 -238.908)" fill="#0b0a10"/>
                    <path id="Trazado_110786" data-name="Trazado 110786" d="M-447.753,241.38a2.224,2.224,0,0,1-2.05,2.365,2.224,2.224,0,0,1-2.049-2.365,2.224,2.224,0,0,1,2.049-2.365A2.224,2.224,0,0,1-447.753,241.38Z" transform="translate(472.633 -238.908)" fill="#0b0a10"/>
                    <path id="Trazado_110787" data-name="Trazado 110787" d="M-462.89,256.082a3.966,3.966,0,0,0,2.315,2.877,2.88,2.88,0,0,0,3.4-1.016" transform="translate(473.008 -239.489)" fill="none" stroke="#0b0a10" stroke-linecap="round" stroke-linejoin="round" stroke-width="0.513"/>
                  </g>
                  <g id="Grupo_61240" data-name="Grupo 61240">
                    <path id="Trazado_110788" data-name="Trazado 110788" d="M-475.07,231.911a5.882,5.882,0,0,0-1.7,1.875,2.23,2.23,0,0,0,.161,2.4,2.889,2.889,0,0,0,1.882.791,10.385,10.385,0,0,0,4.917-.6,3.2,3.2,0,0,0,2.209-2.04,2.732,2.732,0,0,0-1.1-2.5A4.966,4.966,0,0,0-475.07,231.911Z" transform="translate(477.036 -230.716)" fill="#0b0a10"/>
                    <path id="Trazado_110789" data-name="Trazado 110789" d="M-450.351,231.372a5.887,5.887,0,0,0-2.053,1.474,2.226,2.226,0,0,0-.349,2.378,2.89,2.89,0,0,0,1.671,1.172,10.381,10.381,0,0,0,4.932.455,3.2,3.2,0,0,0,2.59-1.527,2.732,2.732,0,0,0-.548-2.678A4.967,4.967,0,0,0-450.351,231.372Z" transform="translate(476.216 -230.718)" fill="#0b0a10"/>
                  </g>
                </g>
                <g id="Grupo_61242" data-name="Grupo 61242" transform="translate(6.866)">
                  <path id="Trazado_110790" data-name="Trazado 110790" d="M-498.912,238.169l2.565,4.729a10.968,10.968,0,0,0,4.282-3.751c5.326-7.07,7.562-16.7,5.073-25.25a15.076,15.076,0,0,0-5.042-8.037,14.417,14.417,0,0,0-7.709,2.485,9.142,9.142,0,0,0-2.934,3.042,10.5,10.5,0,0,0-1.044,3.455C-504.95,222.749-502.71,231.168-498.912,238.169Z" transform="translate(504.059 -191.721)" fill="#0b0a10"/>
                  <path id="Trazado_110791" data-name="Trazado 110791" d="M-489.4,209.69a31.4,31.4,0,0,0,28.3,14.41c-.58-1.337-1.248-2.883-1.828-4.22,5.916,5.621,13.922,10.578,21.193,14.283.054.028,1.22-4.139,1.318-4.617a35.5,35.5,0,0,0,.679-5.275,30.893,30.893,0,0,0-7.263-22.007,30.7,30.7,0,0,0-6.839-5.9,35.752,35.752,0,0,0-26.456-4.279,28.042,28.042,0,0,0-11.428,5.1,17.88,17.88,0,0,0-6.653,10.411C-495.832,207.952-491.927,209.169-489.4,209.69Z" transform="translate(503.866 -191.223)" fill="#0b0a10"/>
                </g>
              </g>
            </g>
            <g id="Grupo_61248" data-name="Grupo 61248" transform="translate(0 115.607)">
              <path id="Trazado_110792" data-name="Trazado 110792" d="M-563.237,368.308s-4.557,40.258,6.077,45.322,43.8-11.393,43.8-11.393,22.914-.76,24.94-2.405,2.279-5.064,2.279-5.064,3.587-2.236,3.08-6.034c0,0,4.009-2.827,3.376-5.865l1.773-3.545-36.587-2.658-18.23,3.672.887-11.015Z" transform="translate(568.554 -312.858)" fill="#ffa4d0"/>
              <g id="Grupo_61245" data-name="Grupo 61245" transform="translate(70.387 65.831)">
                <path id="Trazado_110793" data-name="Trazado 110793" d="M-495.839,385.047s9.816.429,15.336-.658a5.945,5.945,0,0,0,4.158-3.158l1.1-2.176" transform="translate(495.839 -379.055)" fill="none" stroke="#0b0a10" stroke-linecap="round" stroke-linejoin="round" stroke-width="0.513"/>
                <path id="Trazado_110794" data-name="Trazado 110794" d="M-495.183,390.26c2.689.014,5.543.021,8.229-.127,4.4-.241,9.051-.95,9.7-7.321" transform="translate(495.817 -379.183)" fill="none" stroke="#0b0a10" stroke-linecap="round" stroke-linejoin="round" stroke-width="0.513"/>
                <path id="Trazado_110795" data-name="Trazado 110795" d="M-495.052,395.542s8.8.95,11.2-.38a5.777,5.777,0,0,0,3.1-5.95" transform="translate(495.812 -379.401)" fill="none" stroke="#0b0a10" stroke-linecap="round" stroke-linejoin="round" stroke-width="0.513"/>
              </g>
              <path id="Trazado_110796" data-name="Trazado 110796" d="M-532.585,310.9s-27.007,22.957-36.122,61.78l46.461,2.026Z" transform="translate(568.707 -310.904)" fill="#fff"/>
              <path id="Trazado_110797" data-name="Trazado 110797" d="M-517.2,377.561s27.978-14.558,28.737-12.406S-499.478,378.7-499.478,378.7Z" transform="translate(566.953 -312.744)" fill="#ffa4d0"/>
              <line id="Línea_154" data-name="Línea 154" y1="5.064" x2="29.708" transform="translate(21.268 64.649)" fill="none" stroke="#0b0a10" stroke-linecap="round" stroke-linejoin="round" stroke-width="0.513"/>
              <g id="Grupo_61247" data-name="Grupo 61247" transform="translate(59.626 2.03)">
                <path id="Trazado_110798" data-name="Trazado 110798" d="M-486.309,379.644l-20.671-3.21H-395.7l13.646,3.21S-486.458,379.494-486.309,379.644Z" transform="translate(506.979 -315.165)" fill="#b7b8fb"/>
                <path id="Trazado_110799" data-name="Trazado 110799" d="M-486.309,379.644l-20.671-3.21H-395.7l13.646,3.21S-486.458,379.494-486.309,379.644Z" transform="translate(506.979 -315.165)" fill="#0b0a10" opacity="0.31"/>
                <g id="Grupo_61246" data-name="Grupo 61246" transform="translate(20.67)">
                  <path id="Trazado_110800" data-name="Trazado 110800" d="M-359.776,313.006l-21.549,64.479H-485.58l19.288-64.479Z" transform="translate(485.58 -313.006)" fill="#0b0a10"/>
                  <circle id="Elipse_4284" data-name="Elipse 4284" cx="7.849" cy="7.849" r="7.849" transform="translate(55.78 39.658) rotate(-80.806)" fill="#faf0e3"/>
                </g>
              </g>
            </g>
            <line id="Línea_155" data-name="Línea 155" x1="3.671" y2="37.599" transform="translate(35.827 145.484)" fill="none" stroke="#0b0a10" stroke-linecap="round" stroke-linejoin="round" stroke-width="0.513"/>
          </g>
          <g id="Grupo_61256" data-name="Grupo 61256" transform="translate(12.346 36.069)">
            <g id="Grupo_61252" data-name="Grupo 61252" transform="translate(117.032 0)">
              <g id="Grupo_61250" data-name="Grupo 61250" transform="translate(0)">
                <circle id="Elipse_4285" data-name="Elipse 4285" cx="20.932" cy="20.932" r="20.932" transform="translate(0.879 0.879)" fill="#529ad9"/>
                <circle id="Elipse_4286" data-name="Elipse 4286" cx="19.313" cy="19.313" r="19.313" transform="translate(0 38.251) rotate(-82.005)" fill="none" stroke="#faf0e3" stroke-miterlimit="10" stroke-width="0.234"/>
              </g>
              <g id="Grupo_61251" data-name="Grupo 61251" transform="translate(16.543 11.712)">
                <path id="Trazado_110801" data-name="Trazado 110801" d="M-416.412,251.427a.927.927,0,0,1,.984.939,3.938,3.938,0,0,1-.091.775,3.372,3.372,0,0,0-.091.639c0,1.058,1.34,1.422,2.47,1.422,1.286,0,2.617-.483,2.617-2.024,0-1.577-1.6-2.252-2.89-2.771-1.687-.684-3.628-1.549-3.628-4.239a3.689,3.689,0,0,1,3.127-3.364V242c0-.776.136-1.314.984-1.314.565,0,.949.164.949.794,0,.327,0,.82-.01,1.248,1.413.219,3.2,1.012,3.2,2.662a.965.965,0,0,1-.985,1.031,1.121,1.121,0,0,1-1.093-.949c-.364-.738-1.249-.83-2.014-.83-.812,0-2.115.511-2.115,1.586,0,1.322,1.34,1.951,2.726,2.59,1.732.775,3.792,1.8,3.792,4.349a4.013,4.013,0,0,1-3.674,3.919v1.13c0,.785-.147,1.332-.985,1.332-.583,0-.966-.174-.966-.8,0-.374,0-1.076.018-1.64-1.851-.265-3.556-1.322-3.556-3.319C-417.643,252.7-417.634,251.427-416.412,251.427Z" transform="translate(417.643 -240.688)" fill="#fff"/>
              </g>
            </g>
            <g id="Grupo_61255" data-name="Grupo 61255" transform="translate(0 11.084)">
              <g id="Grupo_61253" data-name="Grupo 61253" transform="translate(0 0)">
                <circle id="Elipse_4287" data-name="Elipse 4287" cx="20.932" cy="20.932" r="20.932" transform="translate(1.695 1.695)" fill="#529ad9"/>
                <circle id="Elipse_4288" data-name="Elipse 4288" cx="19.313" cy="19.313" r="19.313" transform="matrix(0.19, -0.982, 0.982, 0.19, 0, 37.924)" fill="none" stroke="#faf0e3" stroke-miterlimit="10" stroke-width="0.234"/>
              </g>
              <g id="Grupo_61254" data-name="Grupo 61254" transform="translate(17.359 12.529)">
                <path id="Trazado_110802" data-name="Trazado 110802" d="M-536.724,263.747a.928.928,0,0,1,.985.94,3.948,3.948,0,0,1-.092.775,3.358,3.358,0,0,0-.091.638c0,1.058,1.34,1.423,2.471,1.423,1.285,0,2.616-.484,2.616-2.025,0-1.576-1.6-2.252-2.89-2.771-1.687-.684-3.628-1.549-3.628-4.239a3.687,3.687,0,0,1,3.127-3.363v-.8c0-.775.137-1.313.984-1.313.565,0,.949.164.949.793,0,.328,0,.821-.01,1.249,1.413.219,3.2,1.011,3.2,2.662a.964.964,0,0,1-.984,1.03,1.122,1.122,0,0,1-1.094-.948c-.364-.739-1.249-.83-2.014-.83-.811,0-2.115.51-2.115,1.586,0,1.322,1.34,1.951,2.726,2.589,1.732.776,3.792,1.8,3.792,4.349a4.014,4.014,0,0,1-3.674,3.92v1.13c0,.784-.146,1.331-.984,1.331-.584,0-.967-.173-.967-.8,0-.374,0-1.076.018-1.641-1.851-.265-3.556-1.322-3.556-3.318C-537.955,265.023-537.945,263.747-536.724,263.747Z" transform="translate(537.955 -253.008)" fill="#fff"/>
              </g>
            </g>
          </g>
          <g id="Grupo_61258" data-name="Grupo 61258" transform="translate(110.645 93.073)">
            <path id="Trazado_110803" data-name="Trazado 110803" d="M-385.926,305.552h-59.248a9.014,9.014,0,0,1-8.988-8.988h0a9.014,9.014,0,0,1,8.988-8.988h59.248a9.014,9.014,0,0,1,8.988,8.988h0A9.014,9.014,0,0,1-385.926,305.552Z" transform="translate(454.162 -287.576)" fill="#b7b8fb"/>
            <g id="Grupo_61257" data-name="Grupo 61257" transform="translate(6.33 2.405)">
              <line id="Línea_156" data-name="Línea 156" y2="13.673" transform="translate(16.204)" fill="none" stroke="#faf0e3" stroke-linecap="round" stroke-linejoin="round" stroke-width="0.513"/>
              <path id="Trazado_110804" data-name="Trazado 110804" d="M-439.084,294.678a4.262,4.262,0,0,1-4.263,4.262,4.261,4.261,0,0,1-4.262-4.262,4.262,4.262,0,0,1,4.262-4.263A4.263,4.263,0,0,1-439.084,294.678Z" transform="translate(447.609 -290.078)" fill="none" stroke="#faf0e3" stroke-linecap="round" stroke-linejoin="round" stroke-width="0.513"/>
              <line id="Línea_157" data-name="Línea 157" x2="2.616" y2="3.46" transform="translate(6.836 8.271)" fill="none" stroke="#faf0e3" stroke-linecap="round" stroke-linejoin="round" stroke-width="0.513"/>
            </g>
          </g>
          <g id="Grupo_61259" data-name="Grupo 61259" transform="translate(10.138 113.338)">
            <circle id="Elipse_4289" data-name="Elipse 4289" cx="20.245" cy="20.245" r="20.245" fill="#ffa4d0"/>
          </g>
          <g id="Grupo_61260" data-name="Grupo 61260" transform="translate(19.216 125.23)">
            <path id="Trazado_110805" data-name="Trazado 110805" d="M-537.94,325.081s-6.323-7.654-10.205-2.33,10.427,17.748,10.427,17.748S-538.107,325.247-537.94,325.081Z" transform="translate(548.814 -320.867)" fill="#ffcf03"/>
            <path id="Trazado_110806" data-name="Trazado 110806" d="M-537.79,325.081s6.323-7.654,10.205-2.33-9.8,17.748-9.8,17.748S-537.623,325.247-537.79,325.081Z" transform="translate(548.438 -320.867)" fill="#ffcf03"/>
          </g>
          <g id="Grupo_61262" data-name="Grupo 61262" transform="translate(56.408 109.264)">
            <path id="Trazado_110807" data-name="Trazado 110807" d="M-505.181,304.338h53.49a5.131,5.131,0,0,1,5.131,5.13V320.6a5.131,5.131,0,0,1-5.131,5.131h-14.923l1.278,11.135-8.214-11.135h-31.631a5.131,5.131,0,0,1-5.13-5.131V309.468A5.13,5.13,0,0,1-505.181,304.338Z" transform="translate(510.311 -304.338)" fill="#faf0e3"/>
            <g id="Grupo_61261" data-name="Grupo 61261" transform="translate(16.164 7.973)">
              <path id="Trazado_110808" data-name="Trazado 110808" d="M-488.735,315.013a2.422,2.422,0,0,1-2.422,2.422,2.422,2.422,0,0,1-2.421-2.422,2.421,2.421,0,0,1,2.421-2.421A2.421,2.421,0,0,1-488.735,315.013Z" transform="translate(493.577 -312.592)" fill="#b7b8fb"/>
              <path id="Trazado_110809" data-name="Trazado 110809" d="M-479.452,315.013a2.422,2.422,0,0,1-2.422,2.422,2.422,2.422,0,0,1-2.421-2.422,2.421,2.421,0,0,1,2.421-2.421A2.421,2.421,0,0,1-479.452,315.013Z" transform="translate(493.261 -312.592)" fill="#b7b8fb"/>
              <path id="Trazado_110810" data-name="Trazado 110810" d="M-470.169,315.013a2.422,2.422,0,0,1-2.421,2.422,2.422,2.422,0,0,1-2.422-2.422,2.421,2.421,0,0,1,2.422-2.421A2.421,2.421,0,0,1-470.169,315.013Z" transform="translate(492.945 -312.592)" fill="#b7b8fb"/>
              <path id="Trazado_110811" data-name="Trazado 110811" d="M-460.886,315.013a2.422,2.422,0,0,1-2.421,2.422,2.422,2.422,0,0,1-2.422-2.422,2.421,2.421,0,0,1,2.422-2.421A2.421,2.421,0,0,1-460.886,315.013Z" transform="translate(492.629 -312.592)" fill="#b7b8fb"/>
            </g>
          </g>
          <g id="Grupo_61264" data-name="Grupo 61264" transform="translate(99.277 159.179)">
            <path id="Trazado_110812" data-name="Trazado 110812" d="M-441.36,396.168a20.244,20.244,0,0,0,23.59-16.225A20.244,20.244,0,0,0-434,356.353a20.245,20.245,0,0,0-23.136,14.3l-8.8-4.928,8.021,9.8A20.247,20.247,0,0,0-441.36,396.168Z" transform="translate(465.931 -356.012)" fill="#a0a603"/>
            <g id="Grupo_61263" data-name="Grupo 61263" transform="translate(16.356 9.837)">
              <path id="Trazado_110813" data-name="Trazado 110813" d="M-449,366.2h4.989l-.409,11.2-2.535,7.279h20.611" transform="translate(448.998 -366.196)" fill="none" stroke="#faf0e3" stroke-linecap="round" stroke-linejoin="round" stroke-width="0.746"/>
              <path id="Trazado_110814" data-name="Trazado 110814" d="M-443.748,370.344h19.3l-2.944,8.751h-15.54Z" transform="translate(448.819 -366.337)" fill="none" stroke="#faf0e3" stroke-linecap="round" stroke-linejoin="round" stroke-width="0.746"/>
              <circle id="Elipse_4290" data-name="Elipse 4290" cx="2.167" cy="2.167" r="2.167" transform="translate(4.089 18.648)" fill="none" stroke="#faf0e3" stroke-linecap="round" stroke-linejoin="round" stroke-width="0.746"/>
              <path id="Trazado_110815" data-name="Trazado 110815" d="M-427.9,387.668a2.167,2.167,0,0,1-2.168,2.168,2.167,2.167,0,0,1-2.167-2.168,2.167,2.167,0,0,1,2.167-2.168A2.167,2.167,0,0,1-427.9,387.668Z" transform="translate(448.427 -366.853)" fill="none" stroke="#faf0e3" stroke-linecap="round" stroke-linejoin="round" stroke-width="0.746"/>
            </g>
          </g>
          <g id="Grupo_61265" data-name="Grupo 61265" transform="translate(15.544 76.004)">
            <path id="Trazado_110816" data-name="Trazado 110816" d="M-501.012,273.941l4.036,1.242-4.036,1.242-1.242,4.036-1.242-4.036-4.036-1.242,4.036-1.242,1.242-4.036Z" transform="translate(551.08 -269.905)" fill="#faf0e3"/>
            <path id="Trazado_110817" data-name="Trazado 110817" d="M-431.463,273.941l4.036,1.242-4.036,1.242-1.242,4.036-1.242-4.036-4.036-1.242,4.036-1.242,1.242-4.036Z" transform="translate(548.712 -269.905)" fill="#faf0e3"/>
            <path id="Trazado_110818" data-name="Trazado 110818" d="M-402.106,280.582l4.036,1.242-4.036,1.242-1.242,4.036-1.242-4.036-4.036-1.242,4.036-1.242,1.242-4.036Z" transform="translate(547.713 -270.131)" fill="#faf0e3"/>
            <path id="Trazado_110819" data-name="Trazado 110819" d="M-412.366,304.7l4.036,1.242-4.036,1.242-1.242,4.036-1.242-4.036-4.036-1.242,4.036-1.242,1.242-4.036Z" transform="translate(548.062 -270.952)" fill="#faf0e3"/>
            <path id="Trazado_110820" data-name="Trazado 110820" d="M-546.1,294.685l4.036,1.242-4.036,1.242-1.242,4.036-1.242-4.036-4.036-1.242,4.036-1.242,1.242-4.036Z" transform="translate(552.615 -270.611)" fill="#faf0e3"/>
            <path id="Trazado_110821" data-name="Trazado 110821" d="M-527.439,295.235l5.632,1.733-5.632,1.733-1.733,5.632L-530.9,298.7l-5.632-1.733,5.632-1.733,1.733-5.632Z" transform="translate(552.068 -270.576)" fill="#faf0e3"/>
          </g>
        </g>
      </g>
    </g>
  </g>
</svg>
