<svg xmlns="http://www.w3.org/2000/svg" width="105" height="105" viewBox="0 0 105 105">
  <g id="Grupo_61350" data-name="Grupo 61350" transform="translate(-582 -3161)">
    <rect id="Rectángulo_6027" data-name="Rectángulo 6027" width="105" height="105" transform="translate(582 3161)" fill="none"/>
    <g id="quotation" transform="translate(589.699 3168.287)">
      <path id="Trazado_111052" data-name="Trazado 111052" d="M20.05,10.5h31.7A10.05,10.05,0,0,1,61.8,20.549V50.632a10.05,10.05,0,0,1-10.05,10.05H35.2V71.406L24.471,60.682H20.05A10.05,10.05,0,0,1,10,50.632V20.549A10.05,10.05,0,0,1,20.05,10.5Z" transform="translate(-8.25 -8.25)" fill="#a0a603"/>
      <path id="SVGCleanerId_0" d="M282.109,200.5H254.692A8.692,8.692,0,0,0,246,209.191v26.017a8.692,8.692,0,0,0,8.692,8.692h4.667v9.275l9.275-9.275h13.475a8.692,8.692,0,0,0,8.692-8.692V209.191A8.692,8.692,0,0,0,282.109,200.5Z" transform="translate(-202.949 -164.999)" fill="#4dbaf6"/>
      <g id="Grupo_61436" data-name="Grupo 61436" transform="translate(52.16 46.962)">
        <path id="Trazado_111053" data-name="Trazado 111053" d="M391.809,286.707v-4.713q4.537-.413,4.537-6.569h-4.538a.906.906,0,0,1-.906-.906V266.9a.906.906,0,0,1,.906-.906h8.521a.906.906,0,0,1,.906.906v8.2Q401.236,286.176,391.809,286.707Z" transform="translate(-374.652 -265.997)" fill="#4dbaf6"/>
        <path id="Trazado_111054" data-name="Trazado 111054" d="M298.955,286.707v-4.713q4.537-.413,4.537-6.569h-4.538a.906.906,0,0,1-.906-.906V266.9a.906.906,0,0,1,.906-.906h8.521a.906.906,0,0,1,.906.906v8.2Q308.382,286.176,298.955,286.707Z" transform="translate(-298.048 -265.997)" fill="#4dbaf6"/>
      </g>
      <g id="Grupo_61437" data-name="Grupo 61437" transform="translate(43.051 35.5)">
        <path id="SVGCleanerId_0_1_" d="M282.109,200.5H254.692A8.692,8.692,0,0,0,246,209.191v26.017a8.692,8.692,0,0,0,8.692,8.692h4.667v9.275l9.275-9.275h13.475a8.692,8.692,0,0,0,8.692-8.692V209.191A8.692,8.692,0,0,0,282.109,200.5Z" transform="translate(-246 -200.499)" fill="#529ad9"/>
      </g>
      <g id="Grupo_61438" data-name="Grupo 61438" transform="translate(12.963 15.836)">
        <path id="Trazado_111055" data-name="Trazado 111055" d="M84.545,88.135v5.237q-5.041.459-5.041,7.3h5.042a1.007,1.007,0,0,1,1.007,1.007v8.46a1.007,1.007,0,0,1-1.007,1.007H75.078a1.007,1.007,0,0,1-1.007-1.007v-9.107Q74.071,88.725,84.545,88.135Z" transform="translate(-74.071 -88.135)" fill="#fff"/>
        <path id="Trazado_111056" data-name="Trazado 111056" d="M186.779,88.135v5.237q-5.041.459-5.041,7.3h5.042a1.007,1.007,0,0,1,1.007,1.007v8.46a1.007,1.007,0,0,1-1.007,1.007h-9.468a1.007,1.007,0,0,1-1.007-1.007v-9.107Q176.305,88.725,186.779,88.135Z" transform="translate(-158.414 -88.135)" fill="#fff"/>
        <path id="Trazado_111057" data-name="Trazado 111057" d="M391.809,286.707v-4.713q4.537-.413,4.537-6.569h-4.538a.906.906,0,0,1-.906-.906V266.9a.906.906,0,0,1,.906-.906h8.521a.906.906,0,0,1,.906.906v8.2Q401.236,286.176,391.809,286.707Z" transform="translate(-335.455 -234.87)" fill="#fff"/>
        <path id="Trazado_111058" data-name="Trazado 111058" d="M298.955,286.707v-4.713q4.537-.413,4.537-6.569h-4.538a.906.906,0,0,1-.906-.906V266.9a.906.906,0,0,1,.906-.906h8.521a.906.906,0,0,1,.906.906v8.2Q308.382,286.176,298.955,286.707Z" transform="translate(-258.851 -234.87)" fill="#fff"/>
      </g>
      <path id="Trazado_111059" data-name="Trazado 111059" d="M76.453,86.866a1.75,1.75,0,0,0,1.591-1.743V79.886A1.75,1.75,0,0,0,76.2,78.139c-5.532.311-12.126,3.1-12.126,14.644v9.107a2.76,2.76,0,0,0,2.757,2.757H76.3a2.76,2.76,0,0,0,2.757-2.757V93.43A2.76,2.76,0,0,0,76.3,90.673H73.111C73.59,87.126,75.551,86.948,76.453,86.866Zm-5.2,7.306h4.3v6.974H67.57V92.783c0-8.052,3.581-10.3,6.974-10.936v1.84C72.2,84.4,69.5,86.507,69.5,92.423A1.75,1.75,0,0,0,71.254,94.173Z" transform="translate(-52.857 -64.051)" fill="#3a3c07"/>
      <path id="Trazado_111060" data-name="Trazado 111060" d="M383.4,272a1.75,1.75,0,0,0-1.592,1.743v4.713a1.75,1.75,0,0,0,1.75,1.75l.1,0c5.054-.284,11.079-2.832,11.079-13.354v-8.2A2.659,2.659,0,0,0,392.081,256h-8.521a2.66,2.66,0,0,0-2.656,2.656v7.614a2.659,2.659,0,0,0,2.656,2.656h2.667C385.78,271.784,384.216,271.926,383.4,272Zm1.909,3.165c2.136-.692,4.537-2.656,4.537-7.992a1.75,1.75,0,0,0-1.75-1.75H384.4V259.5h6.834v7.353c0,6.948-3,9.01-5.927,9.627v-1.311h0Z" transform="translate(-314.243 -210.785)" fill="#3a3c07"/>
      <path id="Trazado_111061" data-name="Trazado 111061" d="M288.048,258.653v7.614a2.659,2.659,0,0,0,2.656,2.656h2.667c-.445,2.86-2.01,3-2.824,3.076a1.75,1.75,0,0,0-1.592,1.743v4.713a1.75,1.75,0,0,0,1.75,1.75l.1,0c5.054-.284,11.078-2.832,11.078-13.354v-8.2A2.659,2.659,0,0,0,299.226,256H290.7A2.659,2.659,0,0,0,288.048,258.653Zm3.5.844h6.834v7.353c0,6.948-3,9.01-5.927,9.627v-1.312c2.136-.692,4.537-2.657,4.537-7.992a1.75,1.75,0,0,0-1.75-1.75h-3.694V259.5Z" transform="translate(-237.638 -210.785)" fill="#3a3c07"/>
      <path id="Trazado_111062" data-name="Trazado 111062" d="M216.361,97.8h-5.584a1.75,1.75,0,0,0,0,3.5h5.584a6.95,6.95,0,0,1,6.942,6.942V134.26a6.95,6.95,0,0,1-6.942,6.942H202.886a1.751,1.751,0,0,0-1.237.513L195.361,148v-5.05a1.75,1.75,0,0,0-1.75-1.75h-4.667A6.95,6.95,0,0,1,182,134.259V108.242a6.95,6.95,0,0,1,6.942-6.942h6.533a1.75,1.75,0,0,0,0-3.5h-6.533a10.414,10.414,0,0,0-7.657,3.352V93.429a2.76,2.76,0,0,0-2.757-2.757h-3.185c.479-3.546,2.44-3.724,3.342-3.806a1.75,1.75,0,0,0,1.591-1.743V79.886a1.75,1.75,0,0,0-1.848-1.747c-5.532.311-12.126,3.1-12.126,14.644v9.107a2.76,2.76,0,0,0,2.757,2.757h9.468a2.743,2.743,0,0,0,.641-.078,10.385,10.385,0,0,0-.669,3.674V134.26A10.454,10.454,0,0,0,188.944,144.7h2.917v7.525a1.75,1.75,0,0,0,2.988,1.238l8.763-8.763h12.75A10.454,10.454,0,0,0,226.8,134.26V108.242A10.454,10.454,0,0,0,216.361,97.8Zm-38.574,3.346h-7.982V92.782c0-8.052,3.581-10.3,6.974-10.936v1.84c-2.344.713-5.041,2.82-5.041,8.735a1.75,1.75,0,0,0,1.75,1.75h4.3Z" transform="translate(-137.201 -64.05)" fill="#3a3c07"/>
      <path id="Trazado_111063" data-name="Trazado 111063" d="M370.75,194a1.751,1.751,0,1,0-1.237-.513A1.763,1.763,0,0,0,370.75,194Z" transform="translate(-304.423 -156.749)"/>
      <path id="Trazado_111064" data-name="Trazado 111064" d="M297.75,155.169a1.751,1.751,0,1,0,1.237.513A1.756,1.756,0,0,0,297.75,155.169Z" transform="translate(-244.199 -127.602)"/>
      <path id="Trazado_111065" data-name="Trazado 111065" d="M34.826,50.682H26.945a1.75,1.75,0,0,0-1.75,1.75v6.5l-7.737-7.737a1.751,1.751,0,0,0-1.237-.513H11.8a8.309,8.309,0,0,1-8.3-8.3V12.3A8.309,8.309,0,0,1,11.8,4H43.5a8.309,8.309,0,0,1,8.3,8.3V22.666a1.75,1.75,0,0,0,3.5,0V12.3A11.813,11.813,0,0,0,43.5.5H11.8A11.813,11.813,0,0,0,0,12.3V42.382a11.813,11.813,0,0,0,11.8,11.8h3.7L25.708,64.394A1.75,1.75,0,0,0,28.7,63.156V54.182h6.131a1.75,1.75,0,1,0,0-3.5Z" fill="#3a3c07"/>
    </g>
  </g>
</svg>
