<svg xmlns="http://www.w3.org/2000/svg" width="105" height="105" viewBox="0 0 105 105">
  <g id="Grupo_61671" data-name="Grupo 61671" transform="translate(-326 -504)">
    <rect id="Rectángulo_5987" data-name="Rectángulo 5987" width="105" height="105" transform="translate(326 504)" fill="none"/>
    <g id="investigar" transform="translate(334.1 512.095)">
      <g id="Grupo_61674" data-name="Grupo 61674" transform="translate(1.736 1.739)">
        <path id="Trazado_111459" data-name="Trazado 111459" d="M148.948,41.223A24.281,24.281,0,1,1,173.23,65.5a24.281,24.281,0,0,1-24.281-24.281Zm-6.937,0a31.088,31.088,0,0,0,6.827,19.486,31.4,31.4,0,0,0,4.905,4.905,31.22,31.22,0,1,0-11.732-24.392Z" transform="translate(-119.117 -10.004)" fill="#e6e6e6" fill-rule="evenodd"/>
        <circle id="Elipse_4327" data-name="Elipse 4327" cx="24.281" cy="24.281" r="24.281" transform="translate(29.831 6.937)" fill="#a0a603"/>
        <path id="Trazado_111460" data-name="Trazado 111460" d="M162.252,307.264a31.407,31.407,0,0,1-4.905-4.905l-5.042,5.042,4.905,4.905Z" transform="translate(-127.626 -251.653)" fill="gray" fill-rule="evenodd"/>
        <path id="Trazado_111461" data-name="Trazado 111461" d="M39.6,331.51,34.69,326.6a3.479,3.479,0,0,0-4.905,0L11.022,345.367a3.479,3.479,0,0,0,0,4.905l4.905,4.905a3.479,3.479,0,0,0,4.905,0L39.6,336.416A3.479,3.479,0,0,0,39.6,331.51Z" transform="translate(-10.01 -270.858)" fill="#529ad9" fill-rule="evenodd"/>
        <path id="Trazado_111462" data-name="Trazado 111462" d="M225.435,152.382c3.344,4.719,9.592,7.894,16.75,7.894a7.894,7.894,0,1,1,0-15.789C235.027,144.487,228.779,147.662,225.435,152.382Z" transform="translate(-188.072 -121.163)" fill="#fff" fill-rule="evenodd"/>
        <circle id="Elipse_4328" data-name="Elipse 4328" cx="7.894" cy="7.894" r="7.894" transform="translate(46.218 23.324)" fill="#e8e8e8"/>
        <path id="Trazado_111463" data-name="Trazado 111463" d="M329.906,152.38a7.9,7.9,0,0,1-7.895,7.895c7.157,0,13.406-3.175,16.75-7.895-3.344-4.719-9.592-7.895-16.75-7.895A7.9,7.9,0,0,1,329.906,152.38Z" transform="translate(-267.899 -121.162)" fill="#fff" fill-rule="evenodd"/>
      </g>
      <g id="Grupo_61675" data-name="Grupo 61675" transform="translate(0 0.005)">
        <path id="Trazado_111464" data-name="Trazado 111464" d="M55.848.005A32.86,32.86,0,0,0,38.3,5.061,1.734,1.734,0,0,0,40.154,8a29.48,29.48,0,1,1-9.268,9.269,1.734,1.734,0,1,0-2.935-1.85A32.92,32.92,0,0,0,29.17,52.278L26.2,55.244a5.211,5.211,0,0,0-5.921,1.015L1.521,75.021a5.209,5.209,0,0,0,0,7.358l4.905,4.905a5.213,5.213,0,0,0,7.358,0L32.547,68.523A5.226,5.226,0,0,0,33.563,62.6l2.965-2.965A32.947,32.947,0,1,0,55.848.005ZM30.094,66.071,11.332,84.832a1.744,1.744,0,0,1-2.453,0L3.974,79.927a1.736,1.736,0,0,1,0-2.453L22.736,58.712a1.736,1.736,0,0,1,2.453,0l4.906,4.906a1.745,1.745,0,0,1,0,2.453Zm1.226-6.132-2.453-2.453,2.5-2.5a33.257,33.257,0,0,0,2.453,2.453Z" transform="translate(0 -0.005)" fill="#3a3c07"/>
        <path id="Trazado_111465" data-name="Trazado 111465" d="M218.563,79.1a1.734,1.734,0,0,0,2.351-.7,26,26,0,1,0-10.51,10.51,1.734,1.734,0,1,0-1.653-3.05,22.534,22.534,0,1,1,9.113-9.113A1.734,1.734,0,0,0,218.563,79.1Z" transform="translate(-142.178 -33.068)" fill="#3a3c07"/>
        <path id="Trazado_111466" data-name="Trazado 111466" d="M186.466,56.191a1.734,1.734,0,1,0-1.167-3.018h0a1.734,1.734,0,0,0,1.167,3.017Z" transform="translate(-152.692 -43.579)"/>
        <path id="Trazado_111467" data-name="Trazado 111467" d="M412.74,282.466a1.734,1.734,0,1,0-1.111-3.067h0a1.734,1.734,0,0,0,1.112,3.066Z" transform="translate(-339.721 -230.61)" fill="#3a3c07"/>
        <path id="Trazado_111468" data-name="Trazado 111468" d="M252.085,145.118a1.734,1.734,0,0,0,0-2.005c-3.77-5.321-10.73-8.626-18.165-8.626s-14.4,3.306-18.165,8.626a1.735,1.735,0,0,0,0,2.005c3.77,5.321,10.73,8.626,18.165,8.626S248.315,150.439,252.085,145.118Zm-12-1a6.16,6.16,0,1,1-6.16-6.16A6.167,6.167,0,0,1,240.08,144.115Zm-20.714,0a16.884,16.884,0,0,1,5.976-4.366,9.593,9.593,0,0,0,0,8.732A16.883,16.883,0,0,1,219.366,144.115Zm23.131,4.366a9.594,9.594,0,0,0,0-8.732,16.885,16.885,0,0,1,5.975,4.366A16.883,16.883,0,0,1,242.5,148.481Z" transform="translate(-178.071 -111.162)" fill="#3a3c07"/>
        <path id="Trazado_111469" data-name="Trazado 111469" d="M313.741,183.474h0a1.734,1.734,0,1,0-1.736-1.734A1.734,1.734,0,0,0,313.743,183.474Z" transform="translate(-257.893 -148.786)" fill="#3a3c07"/>
      </g>
    </g>
  </g>
</svg>
