<svg xmlns="http://www.w3.org/2000/svg" width="59.981" height="60" viewBox="0 0 59.981 60">
  <g id="hand" transform="translate(-0.501)">
    <path id="Trazado_111122" data-name="Trazado 111122" d="M220.725,332.194a1.172,1.172,0,1,0-1.658,0A1.173,1.173,0,0,0,220.725,332.194Zm0,0" transform="translate(-192.65 -291.499)" fill="#3a3c07"/>
    <path id="Trazado_111123" data-name="Trazado 111123" d="M188.449,12.887A12.887,12.887,0,1,0,201.336,0,12.9,12.9,0,0,0,188.449,12.887Zm23.431,0A10.544,10.544,0,1,1,201.336,2.343,10.556,10.556,0,0,1,211.88,12.887Zm0,0" transform="translate(-165.923)" fill="#3a3c07"/>
    <path id="Trazado_111124" data-name="Trazado 111124" d="M14,247.091a1.171,1.171,0,0,0,1.653.01l5.68-5.6a3.54,3.54,0,0,0,.834-3.636l1.222-1.178a3.494,3.494,0,0,1,2.439-.986H41.4a10.489,10.489,0,0,0,7.354-2.988c.081-.079-.618.745,10.625-12.693a4.686,4.686,0,0,0-7.131-6.082l-6.913,7.105a4.708,4.708,0,0,0-3.642-1.744H28.627a15.115,15.115,0,0,0-5.867-1.171c-5.641,0-10.567,2.606-13.211,7.491a3.5,3.5,0,0,0-3.133.971l-5.573,5.59a1.172,1.172,0,0,0,0,1.653Zm8.765-26.616a12.789,12.789,0,0,1,5.158,1.073,1.17,1.17,0,0,0,.47.1h13.3a2.343,2.343,0,1,1,0,4.686H32.133a1.171,1.171,0,1,0,0,2.343h9.559a4.679,4.679,0,0,0,4.645-5.3c6.687-6.874,7.63-7.84,7.671-7.888a2.344,2.344,0,1,1,3.578,3.028L47.077,231.079a8.158,8.158,0,0,1-5.679,2.284H25.824a5.825,5.825,0,0,0-4.067,1.642l-1,.961-9.178-9.178c2.145-4.024,6.17-6.313,11.177-6.313ZM8.074,228.25a1.169,1.169,0,0,1,1.451-.165c.2.124-.379-.406,10.147,10.106a1.174,1.174,0,0,1,.006,1.651l-4.842,4.77-11.511-11.6Zm0,0" transform="translate(0 -187.438)" fill="#3a3c07"/>
    <path id="Trazado_111125" data-name="Trazado 111125" d="M268.205,41.16v1.373a3.514,3.514,0,0,0,1.171,6.828,1.171,1.171,0,0,1,0,2.343,2.119,2.119,0,0,1-1.521-.886,1.172,1.172,0,1,0-1.794,1.508,4.859,4.859,0,0,0,2.143,1.526v1.367a1.171,1.171,0,0,0,2.343,0V53.846a3.514,3.514,0,0,0-1.171-6.828,1.172,1.172,0,0,1,0-2.343,1.881,1.881,0,0,1,1.267.612,1.172,1.172,0,1,0,1.63-1.684,4.526,4.526,0,0,0-1.725-1.078V41.16a1.171,1.171,0,1,0-2.343,0Zm0,0" transform="translate(-234.197 -35.302)" fill="#3a3c07"/>
  </g>
</svg>
