<svg xmlns="http://www.w3.org/2000/svg" width="400" height="265" viewBox="0 0 400 265">
  <g id="Grupo_61740" data-name="Grupo 61740" transform="translate(-600 -1065)">
    <rect id="Rect치ngulo_5592" data-name="Rect치ngulo 5592" width="400" height="193" rx="10" transform="translate(600 1137)" fill="#a0a603" opacity="0.4"/>
    <g id="Grupo_61303" data-name="Grupo 61303" transform="translate(-11 -108)">
      <rect id="Rect치ngulo_6000" data-name="Rect치ngulo 6000" width="252" height="252" transform="translate(685 1173)" fill="none"/>
      <g id="Grupo_61231" data-name="Grupo 61231" transform="translate(1537.587 988.75)">
        <g id="Grupo_61147" data-name="Grupo 61147">
          <path id="Trazado_110731" data-name="Trazado 110731" d="M-714.691,416.765c-.915,0-1.82-.021-2.724-.042l-.12,0a103.927,103.927,0,0,1-46.99-12.683c-1.038-.578-2.018-1.138-3-1.731a102.555,102.555,0,0,1-14.038-9.973c-1.373-1.154-2.773-2.41-4.235-3.8h-10.4a13.862,13.862,0,0,1-13.846-13.846V353.9q-1.145-2.653-2.113-5.275a34.547,34.547,0,0,1-28.074-24.442,34.083,34.083,0,0,1,2.928-26.094,34.079,34.079,0,0,1,20.521-16.381,34.819,34.819,0,0,1,3.4-.8,102.95,102.95,0,0,1,4.923-12.365,34.091,34.091,0,0,1-13.35-11.232,34.08,34.08,0,0,1-5.75-25.621,34.081,34.081,0,0,1,14.05-22.182,34.1,34.1,0,0,1,19.728-6.259A34.368,34.368,0,0,1-765.7,217.808a34.146,34.146,0,0,1,2.229,3.621,103.471,103.471,0,0,1,48.779-12.165,104.111,104.111,0,0,1,44.864,10.186,19.589,19.589,0,0,1,6.283-1.039,19.538,19.538,0,0,1,15.138,7.154c5.338.131,10.062.245,13.554.327,6.994.163,12.473,6.7,12.473,14.874v24.9a104.007,104.007,0,0,1,11.416,47.351,104.062,104.062,0,0,1-2.967,24.717q.5.681.917,1.393a15.8,15.8,0,0,1,.964,14.6,15.485,15.485,0,0,1-11.268,8.421,103.355,103.355,0,0,1-24.258,29.961,102.512,102.512,0,0,1-10.16,7.617,101.874,101.874,0,0,1-9.344,5.483c-1.094.558-2.158,1.088-3.246,1.6a102.6,102.6,0,0,1-33.888,9.422A103.533,103.533,0,0,1-714.691,416.765Z" fill="#fff"/>
        </g>
        <g id="Grupo_61230" data-name="Grupo 61230">
          <g id="Grupo_61149" data-name="Grupo 61149">
            <g id="Grupo_61148" data-name="Grupo 61148">
              <path id="Trazado_110732" data-name="Trazado 110732" d="M-618.186,313.015a97.436,97.436,0,0,1-3.632,26.424,95.453,95.453,0,0,1-6.348,16.552,97.673,97.673,0,0,1-24.38,31.25,95.751,95.751,0,0,1-9.533,7.146,94.754,94.754,0,0,1-8.765,5.145c-1,.511-2,1.012-3.025,1.491a96.416,96.416,0,0,1-31.814,8.851,97.01,97.01,0,0,1-9.842.5c-.9,0-1.8-.021-2.694-.042a96.827,96.827,0,0,1-44.063-11.9c-.937-.522-1.853-1.044-2.769-1.6a96.122,96.122,0,0,1-13.218-9.383,95.274,95.274,0,0,1-13.495-13.91,97.022,97.022,0,0,1-16.54-30.952c-.82-2.577-1.545-5.2-2.141-7.86q-.735-3.147-1.225-6.369c-.437-2.674-.746-5.379-.948-8.127q-.272-3.579-.266-7.221a96.786,96.786,0,0,1,1.2-15.316,94.76,94.76,0,0,1,2.375-10.917,96.285,96.285,0,0,1,9.118-21.867,96.484,96.484,0,0,1,7.093-10.736q2.332-3.083,4.921-5.975a97.431,97.431,0,0,1,20.652-17.51,96.839,96.839,0,0,1,52-15.039A97.348,97.348,0,0,1-618.186,313.015Z" fill="#a0a603"/>
            </g>
          </g>
          <g id="Grupo_61191" data-name="Grupo 61191">
            <g id="Grupo_61150" data-name="Grupo 61150">
              <path id="Trazado_110733" data-name="Trazado 110733" d="M-673.388,396.366l-33.9,4.164-1.087-5.08s-5.6-11.833-7.359-21.536c-.959-5.209-.788-9.8,1.927-11.631,0,0,.363-8.34,8.883-7.978,0,0-5.269-10.856-1.64-14.506,3.2-3.219,6.529-2.354,6.529-2.354s-.362-4.356,5.081-5.443c.01,0,.032-.01.042-.01,5.453-.98,17,16.871,17,16.871Z" fill="#ffa4d0"/>
            </g>
            <g id="Grupo_61182" data-name="Grupo 61182">
              <g id="Grupo_61168" data-name="Grupo 61168">
                <g id="Grupo_61153" data-name="Grupo 61153">
                  <g id="Grupo_61151" data-name="Grupo 61151">
                    <path id="Trazado_110734" data-name="Trazado 110734" d="M-712.355,378.06c.989,1.618,10.742,9.869,14.739,8.692,2.548-.753,13.8-18.216,21.615-30.745,1.883-3.033,3.575-5.779,4.886-7.931,1.753-2.868,2.836-4.671,2.836-4.671l-12.548-7.279s-1.178,1.453-3.078,3.838c-1.326,1.649-3.006,3.765-4.888,6.136C-698.353,358.149-713.04,376.958-712.355,378.06Z" fill="#faf3ea"/>
                  </g>
                  <g id="Grupo_61152" data-name="Grupo 61152" opacity="0.31">
                    <path id="Trazado_110735" data-name="Trazado 110735" d="M-688.793,346.1A65.575,65.575,0,0,0-676,356.007c1.883-3.033,3.575-5.779,4.886-7.931a5.423,5.423,0,0,0-1.589-3.746,18.269,18.269,0,0,0-6.234-3.232,31.79,31.79,0,0,0-4.967-1.134C-685.231,341.613-686.911,343.729-688.793,346.1Z" fill="#b7b8fb"/>
                  </g>
                </g>
                <g id="Grupo_61167" data-name="Grupo 61167">
                  <g id="Grupo_61154" data-name="Grupo 61154">
                    <path id="Trazado_110736" data-name="Trazado 110736" d="M-624.108,330.123c-1.555,10.454-10.779,36.85-20.209,35.661-8.477-1.065-31.6-17.786-50.236-24.987-2.041-.793-4.046-1.472-5.956-2-17.772-4.9-50.849-12.868-71.318-8.055a7.77,7.77,0,0,1-4.28-.186,6.726,6.726,0,0,1-2.01-.945,7.613,7.613,0,0,1-2.972-3.842c-2.071-5.872-3.078-16.25,2.676-33.315,7.422-21.995,14.194-37.372,24.148-44.7a7.581,7.581,0,0,1,8.752-.154,7.725,7.725,0,0,1,1.451,1.248,7.556,7.556,0,0,1,1.265,1.869c3.4,7.123,9.646,18.046,18.533,24.774,11.6,8.785,30.254,18.806,49.431,27.478,4.1,1.851,8.225,3.641,12.309,5.35C-639.367,318.02-622.553,319.67-624.108,330.123Z" fill="#faf3ea"/>
                  </g>
                  <g id="Grupo_61155" data-name="Grupo 61155">
                    <path id="Trazado_110737" data-name="Trazado 110737" d="M-748.016,269.627c-.577,2.871-1.186,5.739-1.884,8.568a121.62,121.62,0,0,1-5.857,18.6c-1.643,3.888-3.524,7.659-5.507,11.359-.593,1.125-1.2,2.234-1.822,3.34-2.724,4.9-7.413,14.754-13.021,19.063a6.726,6.726,0,0,1-2.01-.945,7.613,7.613,0,0,1-2.972-3.842c-2.071-5.872-3.078-16.25,2.676-33.315,7.422-21.995,14.194-37.372,24.148-44.7a7.581,7.581,0,0,1,8.752-.154C-745.375,254.935-746.558,262.388-748.016,269.627Z" fill="#b7b8fb"/>
                  </g>
                  <g id="Grupo_61163" data-name="Grupo 61163">
                    <g id="Grupo_61158" data-name="Grupo 61158">
                      <g id="Grupo_61156" data-name="Grupo 61156">
                        <path id="Trazado_110738" data-name="Trazado 110738" d="M-618.666,351.012a9.062,9.062,0,0,1-6.675,4.859,11.219,11.219,0,0,1-3.953-.03,14.154,14.154,0,0,1-4.3-1.558c1.28-6.7,4.647-11.334,7.407-17.558.268.12.521.238.79.358a14.024,14.024,0,0,1,6.053,5.3A9.389,9.389,0,0,1-618.666,351.012Z" fill="#529ad9"/>
                      </g>
                      <g id="Grupo_61157" data-name="Grupo 61157" opacity="0.46">
                        <path id="Trazado_110739" data-name="Trazado 110739" d="M-629.294,355.841a14.154,14.154,0,0,1-4.3-1.558c1.28-6.7,4.647-11.334,7.407-17.558.268.12.521.238.79.358A60.751,60.751,0,0,1-629.294,355.841Z" fill="#b7b8fb"/>
                      </g>
                    </g>
                    <g id="Grupo_61159" data-name="Grupo 61159">
                      <path id="Trazado_110740" data-name="Trazado 110740" d="M-624.108,330.123c-1.555,10.454-10.779,36.85-20.209,35.661-2.632-.321-6.687-2.167-11.572-4.764-.1-.057-.222-.115-.339-.189-1.274-.67-2.6-1.408-3.976-2.181-.1-.057-.222-.115-.339-.189-10.232-5.723-22.921-13.384-34.01-17.664a35.147,35.147,0,0,0,7.875-8.526,72.852,72.852,0,0,0,11.845-29.3c4.1,1.851,8.225,3.641,12.309,5.35,7.882,3.312,15.032,5.68,20.979,7.774l.361.128c1.971.708,3.806,1.371,5.468,2.047a3.509,3.509,0,0,1,.36.145C-627.624,321.508-623.284,324.582-624.108,330.123Z" fill="#529ad9"/>
                    </g>
                    <g id="Grupo_61162" data-name="Grupo 61162">
                      <g id="Grupo_61160" data-name="Grupo 61160">
                        <path id="Trazado_110741" data-name="Trazado 110741" d="M-635.356,318.414a89.325,89.325,0,0,1-12.054,32.068,46.434,46.434,0,0,1-8.479,10.538c-.1-.057-.222-.115-.339-.189a46.885,46.885,0,0,0,8.5-10.552,88.978,88.978,0,0,0,12.017-32.01A3.509,3.509,0,0,1-635.356,318.414Z" fill="#faf3ea"/>
                      </g>
                      <g id="Grupo_61161" data-name="Grupo 61161">
                        <path id="Trazado_110742" data-name="Trazado 110742" d="M-641.184,316.222A105.2,105.2,0,0,1-660.2,358.65c-.1-.057-.222-.115-.339-.189a104.711,104.711,0,0,0,19-42.367Z" fill="#faf3ea"/>
                      </g>
                    </g>
                  </g>
                  <g id="Grupo_61166" data-name="Grupo 61166">
                    <g id="Grupo_61164" data-name="Grupo 61164">
                      <path id="Trazado_110743" data-name="Trazado 110743" d="M-749.9,278.2c-.4,1.72-.834,3.422-1.312,5.12a110.4,110.4,0,0,1-4.545,13.477c-1.643,3.888-3.524,7.659-5.507,11.359-.5-.5-1.131-1.17-1.832-1.956-2.82-3.173-6.548-8.2-5.7-11.741,1.34-5.569,5-14.492,7.89-15.657C-759.041,278.03-753.564,278.084-749.9,278.2Z" fill="#faf3ea"/>
                    </g>
                    <g id="Grupo_61165" data-name="Grupo 61165" opacity="0.32">
                      <path id="Trazado_110744" data-name="Trazado 110744" d="M-751.212,283.315a110.4,110.4,0,0,1-4.545,13.477c-1.643,3.888-3.524,7.659-5.507,11.359-.5-.5-1.131-1.17-1.832-1.956A108.1,108.1,0,0,0-751.212,283.315Z" fill="#b7b8fb"/>
                    </g>
                  </g>
                </g>
              </g>
              <g id="Grupo_61173" data-name="Grupo 61173">
                <g id="Grupo_61170" data-name="Grupo 61170">
                  <g id="Grupo_61169" data-name="Grupo 61169">
                    <path id="Trazado_110745" data-name="Trazado 110745" d="M-817.41,253.633a27.918,27.918,0,0,1,6.753-38.9,27.917,27.917,0,0,1,38.9,6.753,27.918,27.918,0,0,1-4.607,37.225l8.311,15.023-13.973-11.241A27.92,27.92,0,0,1-817.41,253.633Z" fill="#ffcf03"/>
                  </g>
                </g>
                <g id="Grupo_61172" data-name="Grupo 61172">
                  <g id="Grupo_61171" data-name="Grupo 61171">
                    <path id="Trazado_110746" data-name="Trazado 110746" d="M-782.37,225.935c-6.455-6.425-13.38,3.985-14.407,5.624-1.484-1.239-11.3-8.989-15.441-.878-4.36,8.534,18.231,22.935,19.527,23.752l.008.048.023-.028.032.02-.009-.049C-791.7,253.244-775.579,232.7-782.37,225.935Z" fill="#faf3ea"/>
                  </g>
                </g>
              </g>
              <g id="Grupo_61181" data-name="Grupo 61181">
                <g id="Grupo_61175" data-name="Grupo 61175">
                  <g id="Grupo_61174" data-name="Grupo 61174">
                    <path id="Trazado_110747" data-name="Trazado 110747" d="M-800.356,341.493a27.918,27.918,0,0,1-34.564-19.082,27.917,27.917,0,0,1,19.082-34.563,27.917,27.917,0,0,1,33.681,16.507l16.914-2.952-15.187,9.538A27.921,27.921,0,0,1-800.356,341.493Z" fill="#ffa4d0"/>
                  </g>
                </g>
                <g id="Grupo_61180" data-name="Grupo 61180">
                  <g id="Grupo_61176" data-name="Grupo 61176">
                    <circle id="Elipse_4281" data-name="Elipse 4281" cx="18.86" cy="18.86" r="18.86" transform="translate(-834.054 313.499) rotate(-39.398)" fill="#529ad9"/>
                  </g>
                  <g id="Grupo_61177" data-name="Grupo 61177">
                    <path id="Trazado_110748" data-name="Trazado 110748" d="M-800.773,315.937a2.358,2.358,0,0,0,2.116,2.576,2.357,2.357,0,0,0,2.577-2.116,2.358,2.358,0,0,0-2.116-2.576A2.358,2.358,0,0,0-800.773,315.937Z" fill="#0b0a10"/>
                  </g>
                  <g id="Grupo_61178" data-name="Grupo 61178">
                    <path id="Trazado_110749" data-name="Trazado 110749" d="M-819.433,314.107a2.357,2.357,0,0,0,2.116,2.576,2.357,2.357,0,0,0,2.576-2.116,2.357,2.357,0,0,0-2.116-2.576A2.357,2.357,0,0,0-819.433,314.107Z" fill="#0b0a10"/>
                  </g>
                  <g id="Grupo_61179" data-name="Grupo 61179">
                    <path id="Trazado_110750" data-name="Trazado 110750" d="M-799.011,321.564l-18.769-1.842s.605,8.433,8.68,9.225C-799.279,329.911-799.011,321.564-799.011,321.564Z" fill="#fff"/>
                  </g>
                </g>
              </g>
            </g>
            <g id="Grupo_61183" data-name="Grupo 61183">
              <path id="Trazado_110751" data-name="Trazado 110751" d="M-669.875,352.071v.054c-.011.34-.021.681-.032,1.033-.245,8.062-1.214,17.425-.937,21.632.277,4.324.17,15.241,0,24.742-1,.511-2,1.012-3.025,1.491a96.416,96.416,0,0,1-31.814,8.851l-2.248-12.025-.447-2.4,12.739-8.7s.383-1.236,1.182-3.121c.394-.927.894-2,1.491-3.174l.064-.128a42.174,42.174,0,0,1,4.25-6.646c.042-.064.085-.117.127-.17a31.394,31.394,0,0,1,3.142-3.409l.032-.032s1.822-8.957,4.495-17.222c.533-1.651,1.108-3.27,1.693-4.793a.011.011,0,0,0,.011-.011c.085-.223.171-.436.256-.66.255-.618.511-1.2.756-1.779l.064-.127a27.8,27.8,0,0,1,1.789-3.366,9.078,9.078,0,0,1,1.907-2.248,3.147,3.147,0,0,1,1.182-.607,1.807,1.807,0,0,1,.671-.032c.969.139,1.619,1.2,2.024,2.887a23.171,23.171,0,0,1,.543,4.058C-669.854,347.939-669.832,349.941-669.875,352.071Z" fill="#ffa4d0"/>
            </g>
            <g id="Grupo_61184" data-name="Grupo 61184">
              <path id="Trazado_110752" data-name="Trazado 110752" d="M-697.587,396.22h-.013a.266.266,0,0,1-.253-.279c.649-13.112,11.265-24.918,12.24-25.974.024-.592.254-3.626,2.455-11.206,3.658-12.6,6.958-18.879,10.387-19.764a1.649,1.649,0,0,1,1.563.348c2.617,2.241,1.535,13.594,1.488,14.077a.272.272,0,0,1-.291.238.265.265,0,0,1-.239-.291c.011-.115,1.1-11.558-1.3-13.62a1.124,1.124,0,0,0-1.083-.236c-4.732,1.221-8.7,14.9-10.008,19.4-2.4,8.27-2.437,11.138-2.437,11.165a.27.27,0,0,1-.074.184c-.114.121-11.5,12.235-12.164,25.709A.268.268,0,0,1-697.587,396.22Z" fill="#0b0a10"/>
            </g>
            <g id="Grupo_61190" data-name="Grupo 61190">
              <g id="Grupo_61185" data-name="Grupo 61185">
                <path id="Trazado_110753" data-name="Trazado 110753" d="M-684.423,356.979a4.69,4.69,0,0,1-4.739.01,6.4,6.4,0,0,1-.426,5.528,3.886,3.886,0,0,1-4.751,1.523s7.947,9.977,5.726,13.466c-2.5,3.932-5.484,2.81-5.484,2.81-1.813,4.8-5.47,4.623-11.467,2.131-3.408-1.417-7.286-5.5-10.172-8.533-.959-5.209-.788-9.8,1.927-11.631,0,0,.363-8.34,8.883-7.978,0,0-5.623-11.247-1.64-14.506a9.693,9.693,0,0,1,5.113-2.439,3.962,3.962,0,0,1,1.416.085s-.362-4.356,5.081-5.443c.01,0,.032-.01.042-.01,3.11.586,6.582,3.919,8.393,7.115C-684.007,343.548-682.186,355.456-684.423,356.979Z" fill="#ffa4d0"/>
              </g>
              <g id="Grupo_61186" data-name="Grupo 61186">
                <path id="Trazado_110754" data-name="Trazado 110754" d="M-692.705,364.505c-2.669,0-5.309-2.64-7.88-5.211-.264-.264-.526-.523-.787-.781-3.329-3.287-6.473-6.391-6.814-13.808a6.846,6.846,0,0,1,1.856-5.486c2.388-2.315,6.155-2.048,6.313-2.039a.266.266,0,0,1,.242.217,45.39,45.39,0,0,0,4.193,11.117c2.476,4.853,4.537,7.515,6.721,8.422a.27.27,0,0,1,.141.057,5.041,5.041,0,0,0,3.556-.043.267.267,0,0,1,.338.165.266.266,0,0,1-.165.339,5.638,5.638,0,0,1-3.5.148c.3,1.222.778,4.422-1.878,6.167A4.171,4.171,0,0,1-692.705,364.505Zm-7.744-26.8a8.248,8.248,0,0,0-5.513,1.9,6.339,6.339,0,0,0-1.692,5.077c.331,7.209,3.4,10.243,6.656,13.455q.393.387.79.782c3.893,3.893,6.661,6.3,9.545,4.407,2.718-1.786,1.747-5.337,1.557-5.943-2.6-1.117-4.748-4.307-6.951-8.624a47.766,47.766,0,0,1-4.2-11.055Z" fill="#0b0a10"/>
              </g>
              <g id="Grupo_61187" data-name="Grupo 61187">
                <path id="Trazado_110755" data-name="Trazado 110755" d="M-692.706,380.611c-3.381,0-7-3.216-9.859-5.754l-.365-.324c-3.958-3.508-11.013-11.995-11.084-12.08a.271.271,0,0,1-.056-.221c.685-3.514,2.091-5.964,4.178-7.279a6.868,6.868,0,0,1,5.033-.9.266.266,0,0,1,.191.324.267.267,0,0,1-.324.191,6.432,6.432,0,0,0-4.624.846c-1.929,1.22-3.244,3.508-3.907,6.8.8.955,7.247,8.646,10.946,11.925l.366.324c4.008,3.561,9,8,12.866,4.128,3.947-3.948-5.1-14.267-5.193-14.37a.266.266,0,0,1,.023-.376.264.264,0,0,1,.375.022c.389.44,9.469,10.8,5.172,15.1A5.141,5.141,0,0,1-692.706,380.611Z" fill="#0b0a10"/>
              </g>
              <g id="Grupo_61188" data-name="Grupo 61188">
                <path id="Trazado_110756" data-name="Trazado 110756" d="M-699.541,384.422c-7.031,0-13.275-7.216-13.567-7.559a.266.266,0,0,1,.029-.375.267.267,0,0,1,.376.029c.078.092,7.871,9.1,15.5,7.077a4.488,4.488,0,0,0,2.7-3.4.263.263,0,0,1,.292-.237.265.265,0,0,1,.238.292,4.94,4.94,0,0,1-3.072,3.847A9.735,9.735,0,0,1-699.541,384.422Z" fill="#0b0a10"/>
              </g>
              <g id="Grupo_61189" data-name="Grupo 61189">
                <path id="Trazado_110757" data-name="Trazado 110757" d="M-707.291,400.8a.267.267,0,0,1-.261-.22c-.535-2.964-2.2-7.619-3.958-12.548-1.987-5.56-4.04-11.309-4.83-15.55-1.513-8.116,2.24-10.338,2.4-10.427a.263.263,0,0,1,.361.1.266.266,0,0,1-.1.363c-.036.021-3.577,2.158-2.14,9.868.783,4.2,2.829,9.927,4.808,15.467,1.768,4.951,3.438,9.625,3.981,12.634a.266.266,0,0,1-.215.309A.25.25,0,0,1-707.291,400.8Z" fill="#0b0a10"/>
              </g>
            </g>
          </g>
          <g id="Grupo_61200" data-name="Grupo 61200">
            <g id="Grupo_61193" data-name="Grupo 61193">
              <g id="Grupo_61192" data-name="Grupo 61192">
                <path id="Trazado_110758" data-name="Trazado 110758" d="M-717.778,350.867-718,373.273a7.455,7.455,0,0,1-7.455,7.382h-10.5l1.862,17.878-14.153-16.388h-48.785a7.456,7.456,0,0,1-7.455-7.456V352.226a7.452,7.452,0,0,1,7.32-7.454c16.235-.286,55.133-.989,71.737-1.432A7.45,7.45,0,0,1-717.778,350.867Z" fill="#faf3ea"/>
              </g>
            </g>
            <g id="Grupo_61199" data-name="Grupo 61199">
              <g id="Grupo_61195" data-name="Grupo 61195">
                <g id="Grupo_61194" data-name="Grupo 61194">
                  <path id="Trazado_110759" data-name="Trazado 110759" d="M-770.172,354.46c-4.154-5.524-10.481,1.546-11.429,2.666-.981-1.091-7.513-7.973-11.5-2.329-4.2,5.938,11.213,19.2,12.1,19.951v.037l.02-.019.022.018,0-.037C-780.133,373.962-765.8,360.271-770.172,354.46Z" fill="#ffcf03"/>
                </g>
              </g>
              <g id="Grupo_61198" data-name="Grupo 61198">
                <g id="Grupo_61196" data-name="Grupo 61196">
                  <path id="Trazado_110760" data-name="Trazado 110760" d="M-752.042,367.886l1.68.075a1.111,1.111,0,0,1,1.1,1.1v1.53a1.112,1.112,0,0,1-1.1,1.1h-7.223a1.112,1.112,0,0,1-1.1-1.1v-1.53a1.1,1.1,0,0,1,1.1-1.1h1.605l.076-9.4h-1.43a1.231,1.231,0,0,1-1.229-1.229v-.075c0-.853.05-1.455.05-1.455l3.913-1.981a1.165,1.165,0,0,1,.576-.15h.753a1.12,1.12,0,0,1,.852.376,1.121,1.121,0,0,1,.377.852Z" fill="#0b0a10"/>
                </g>
                <g id="Grupo_61197" data-name="Grupo 61197">
                  <path id="Trazado_110761" data-name="Trazado 110761" d="M-745.47,371.7a.958.958,0,0,1-.953-.978v-15.7a.965.965,0,0,1,.953-1h1.756a.964.964,0,0,1,.953,1v6.069h.025l4.94-6.546a1.252,1.252,0,0,1,1.054-.526h2.006a.91.91,0,0,1,.928.927,1.141,1.141,0,0,1-.2.6l-5.542,7.223,5.567,7.449a1,1,0,0,1,.2.576.91.91,0,0,1-.928.928l-2.056-.025a1.207,1.207,0,0,1-1.029-.526l-4.84-6.446h-.125v5.994a.958.958,0,0,1-.953.978Z" fill="#0b0a10"/>
                </g>
              </g>
            </g>
          </g>
          <g id="Grupo_61210" data-name="Grupo 61210">
            <g id="Grupo_61202" data-name="Grupo 61202">
              <g id="Grupo_61201" data-name="Grupo 61201">
                <path id="Trazado_110762" data-name="Trazado 110762" d="M-703.432,239.218l.189,25.507c.034,4.654,2.866,8.4,6.348,8.4h8.937l.467,12.554,10-10.858h41.541c3.506,0,6.349-3.8,6.349-8.487V240.766c0-4.629-2.772-8.405-6.234-8.486-13.824-.326-46.946-1.126-61.085-1.63C-700.516,230.522-703.468,234.41-703.432,239.218Z" fill="#faf3ea"/>
              </g>
            </g>
            <g id="Grupo_61206" data-name="Grupo 61206">
              <g id="Grupo_61203" data-name="Grupo 61203">
                <path id="Trazado_110763" data-name="Trazado 110763" d="M-651.375,259.46h-27.861a.607.607,0,0,1-.583-.44l-4.953-17.336a.607.607,0,0,1,.417-.75.609.609,0,0,1,.749.416l4.828,16.9h26.937l4.214-15.853a.607.607,0,0,1,.586-.451h7.842a.606.606,0,0,1,.606.607.606.606,0,0,1-.606.606h-7.376l-4.214,15.853A.608.608,0,0,1-651.375,259.46Z" fill="#0b0a10"/>
              </g>
              <g id="Grupo_61204" data-name="Grupo 61204">
                <path id="Trazado_110764" data-name="Trazado 110764" d="M-670.981,265.148a3.405,3.405,0,0,1-3.4,3.4,3.405,3.405,0,0,1-3.405-3.4,3.4,3.4,0,0,1,3.405-3.4A3.4,3.4,0,0,1-670.981,265.148Z" fill="#0b0a10"/>
              </g>
              <g id="Grupo_61205" data-name="Grupo 61205">
                <circle id="Elipse_4282" data-name="Elipse 4282" cx="3.405" cy="3.405" r="3.405" transform="translate(-660.662 261.743)" fill="#0b0a10"/>
              </g>
            </g>
            <g id="Grupo_61209" data-name="Grupo 61209">
              <g id="Grupo_61207" data-name="Grupo 61207">
                <circle id="Elipse_4283" data-name="Elipse 4283" cx="13.208" cy="13.208" r="13.208" transform="translate(-677.585 224.801)" fill="#ffa4d0"/>
              </g>
              <g id="Grupo_61208" data-name="Grupo 61208">
                <path id="Trazado_110765" data-name="Trazado 110765" d="M-660.463,243.125a.858.858,0,0,1,.875.875v1.213a.87.87,0,0,1-.875.875l-6.78-.02a1.21,1.21,0,0,1-1.233-1.213v-1.193a2.584,2.584,0,0,1,.656-1.65s4.593-5.07,4.772-5.289a1.4,1.4,0,0,0,.238-.815c0-.915-.656-1.292-1.51-1.292a1.929,1.929,0,0,0-.339.02,4.529,4.529,0,0,0-1.789.635,6.946,6.946,0,0,0-.775.5l-.378-.576a2.139,2.139,0,0,1,1.093-3.061,5.746,5.746,0,0,1,2.386-.518c2.6,0,4.414,1.531,4.414,4.216a4.251,4.251,0,0,1-.716,2.425c-.457.636-4.374,4.871-4.374,4.871Z" fill="#faf3ea"/>
              </g>
            </g>
          </g>
          <g id="Grupo_61229" data-name="Grupo 61229">
            <g id="Grupo_61212" data-name="Grupo 61212">
              <g id="Grupo_61211" data-name="Grupo 61211">
                <path id="Trazado_110766" data-name="Trazado 110766" d="M-742,233.38l3.809,1.172L-742,235.723l-1.172,3.809-1.172-3.809-3.809-1.172,3.809-1.172,1.172-3.809Z" fill="#faf3ea"/>
              </g>
            </g>
            <g id="Grupo_61214" data-name="Grupo 61214">
              <g id="Grupo_61213" data-name="Grupo 61213">
                <path id="Trazado_110767" data-name="Trazado 110767" d="M-787.521,274.184l3.809,1.172-3.809,1.172-1.172,3.809-1.172-3.809-3.809-1.172,3.809-1.172,1.172-3.809Z" fill="#faf3ea"/>
              </g>
            </g>
            <g id="Grupo_61216" data-name="Grupo 61216">
              <g id="Grupo_61215" data-name="Grupo 61215">
                <path id="Trazado_110768" data-name="Trazado 110768" d="M-710.653,229.223l3.809,1.172-3.809,1.172-1.172,3.809L-713,231.567l-3.809-1.172,3.809-1.172,1.172-3.809Z" fill="#faf3ea"/>
              </g>
            </g>
            <g id="Grupo_61218" data-name="Grupo 61218">
              <g id="Grupo_61217" data-name="Grupo 61217">
                <path id="Trazado_110769" data-name="Trazado 110769" d="M-664.048,286.511l3.809,1.172-3.809,1.172-1.172,3.809-1.172-3.809-3.809-1.172,3.809-1.172,1.172-3.809Z" fill="#faf3ea"/>
              </g>
            </g>
            <g id="Grupo_61220" data-name="Grupo 61220">
              <g id="Grupo_61219" data-name="Grupo 61219">
                <path id="Trazado_110770" data-name="Trazado 110770" d="M-633.786,283.779l3.809,1.172-3.809,1.172-1.172,3.809-1.172-3.809-3.809-1.172,3.809-1.172,1.172-3.809Z" fill="#faf3ea"/>
              </g>
            </g>
            <g id="Grupo_61222" data-name="Grupo 61222">
              <g id="Grupo_61221" data-name="Grupo 61221">
                <path id="Trazado_110771" data-name="Trazado 110771" d="M-633.786,308.434l3.809,1.172-3.809,1.172-1.172,3.809-1.172-3.809-3.809-1.172,3.809-1.172,1.172-3.809Z" fill="#faf3ea"/>
              </g>
            </g>
            <g id="Grupo_61224" data-name="Grupo 61224">
              <g id="Grupo_61223" data-name="Grupo 61223">
                <path id="Trazado_110772" data-name="Trazado 110772" d="M-657.884,372.974l3.809,1.172-3.809,1.172-1.172,3.809-1.172-3.809-3.809-1.172,3.809-1.172,1.172-3.809Z" fill="#faf3ea"/>
              </g>
            </g>
            <g id="Grupo_61226" data-name="Grupo 61226">
              <g id="Grupo_61225" data-name="Grupo 61225">
                <path id="Trazado_110773" data-name="Trazado 110773" d="M-757.789,336.353l3.809,1.172-3.809,1.172-1.172,3.809-1.172-3.809-3.809-1.172,3.809-1.172,1.172-3.809Z" fill="#faf3ea"/>
              </g>
            </g>
            <g id="Grupo_61228" data-name="Grupo 61228">
              <g id="Grupo_61227" data-name="Grupo 61227">
                <path id="Trazado_110774" data-name="Trazado 110774" d="M-717.3,253.236l6.9,2.123-6.9,2.123-2.123,6.9-2.123-6.9-6.9-2.123,6.9-2.123,2.123-6.9Z" fill="#faf3ea"/>
              </g>
            </g>
          </g>
        </g>
      </g>
    </g>
  </g>
</svg>
