<svg xmlns="http://www.w3.org/2000/svg" width="105" height="105" viewBox="0 0 105 105">
  <g id="Grupo_61463" data-name="Grupo 61463" transform="translate(-326 -504)">
    <rect id="Rectángulo_5987" data-name="Rectángulo 5987" width="105" height="105" transform="translate(326 504)" fill="none"/>
    <g id="investigacion" transform="translate(316.25 494.748)">
      <path id="Trazado_111068" data-name="Trazado 111068" d="M64.035,219.08v46.194a3.079,3.079,0,0,1-3.08,3.08H27.08a3.079,3.079,0,0,1-3.08-3.08V229.595a3.107,3.107,0,0,1,.9-2.179L35.416,216.9a3.107,3.107,0,0,1,2.179-.9H60.955a3.079,3.079,0,0,1,3.08,3.08Z" transform="translate(-6.461 -161.9)" fill="#548aff"/>
      <path id="Trazado_111069" data-name="Trazado 111069" d="M37.489,217.45v8.96a3.079,3.079,0,0,1-3.08,3.08H25.45a3.047,3.047,0,0,1,.624-.9l10.513-10.513A3.046,3.046,0,0,1,37.489,217.45Z" transform="translate(-7.632 -163.071)" fill="#7dafff"/>
      <path id="Trazado_111070" data-name="Trazado 111070" d="M280,384h9.239v10.779H280Z" transform="translate(-213.187 -297.564)" fill="#f5714f"/>
      <path id="Trazado_111071" data-name="Trazado 111071" d="M328,336h9.239v20.017H328Z" transform="translate(-251.948 -258.803)" fill="#4976f2"/>
      <path id="Trazado_111072" data-name="Trazado 111072" d="M376,288h9.239v29.256H376Z" transform="translate(-290.709 -220.042)" fill="#548aff"/>
      <path id="Trazado_111073" data-name="Trazado 111073" d="M424,240h9.239v38.5H424Z" transform="translate(-329.471 -181.28)" fill="#639aff"/>
      <g id="Grupo_61462" data-name="Grupo 61462" transform="translate(17.539 24.844)">
        <circle id="Elipse_4310" data-name="Elipse 4310" cx="3.08" cy="3.08" r="3.08" transform="translate(0 21.557)" fill="#bed3f7"/>
        <circle id="Elipse_4311" data-name="Elipse 4311" cx="3.08" cy="3.08" r="3.08" transform="translate(10.779 10.779)" fill="#bed3f7"/>
        <circle id="Elipse_4312" data-name="Elipse 4312" cx="3.08" cy="3.08" r="3.08" transform="translate(26.177 10.779)" fill="#bed3f7"/>
        <circle id="Elipse_4313" data-name="Elipse 4313" cx="3.08" cy="3.08" r="3.08" transform="translate(41.575 0)" fill="#bed3f7"/>
      </g>
      <path id="Trazado_111074" data-name="Trazado 111074" d="M332.955,42.477a18.423,18.423,0,1,1-5.4-13.082,18.478,18.478,0,0,1,5.4,13.082Z" transform="translate(-226.107 -6.855)" fill="#f3d78a"/>
      <path id="Trazado_111075" data-name="Trazado 111075" d="M410.478,42.478H392V24a18.477,18.477,0,0,1,18.478,18.478Z" transform="translate(-303.63 -6.855)" fill="#548aff"/>
      <path id="Trazado_111076" data-name="Trazado 111076" d="M410.478,120a18.423,18.423,0,0,1-6.2,13.81L392,120Z" transform="translate(-303.63 -84.377)" fill="#f5714f"/>
      <circle id="Elipse_4314" data-name="Elipse 4314" cx="3.08" cy="3.08" r="3.08" transform="translate(45.256 60.259)" fill="#bed3f7"/>
      <circle id="Elipse_4315" data-name="Elipse 4315" cx="3.08" cy="3.08" r="3.08" transform="translate(46.796 94.135)" fill="#bed3f7"/>
      <path id="Trazado_111077" data-name="Trazado 111077" d="M120,264h4.619v3.08H120Z" transform="translate(-83.983 -200.661)" fill="#3a3c07"/>
      <path id="Trazado_111078" data-name="Trazado 111078" d="M176,304h4.619v3.08H176Z" transform="translate(-129.204 -232.962)" fill="#3a3c07"/>
      <path id="Trazado_111079" data-name="Trazado 111079" d="M120,304h7.7v3.08H120Z" transform="translate(-83.983 -232.962)" fill="#3a3c07"/>
      <path id="Trazado_111080" data-name="Trazado 111080" d="M56,304h9.239v3.08H56Z" transform="translate(-32.301 -232.962)" fill="#3a3c07"/>
      <path id="Trazado_111081" data-name="Trazado 111081" d="M104,344h18.478v3.08H104Z" transform="translate(-71.063 -265.263)" fill="#3a3c07"/>
      <path id="Trazado_111082" data-name="Trazado 111082" d="M56,344h6.159v3.08H56Z" transform="translate(-32.301 -265.263)" fill="#3a3c07"/>
      <path id="Trazado_111083" data-name="Trazado 111083" d="M152,384h9.239v3.08H152Z" transform="translate(-109.824 -297.564)" fill="#3a3c07"/>
      <path id="Trazado_111084" data-name="Trazado 111084" d="M56,384H71.4v3.08H56Z" transform="translate(-32.301 -297.564)" fill="#3a3c07"/>
      <path id="Trazado_111085" data-name="Trazado 111085" d="M104,424h9.239v3.08H104Z" transform="translate(-71.063 -329.865)" fill="#3a3c07"/>
      <path id="Trazado_111086" data-name="Trazado 111086" d="M56,424h6.159v3.08H56Z" transform="translate(-32.301 -329.865)" fill="#3a3c07"/>
      <path id="Trazado_111087" data-name="Trazado 111087" d="M105.309,214.159a1.54,1.54,0,0,0-1.54-1.54H94.53a1.54,1.54,0,0,0-1.54,1.54v7.7h-7.7a1.54,1.54,0,0,0-1.54,1.54v7.7h-7.7a1.54,1.54,0,0,0-1.54,1.54v7.7h-7.7a1.54,1.54,0,0,0-1.54,1.54v9.239H54.23a4.619,4.619,0,1,0,0,3.08h1.8v4.619a1.542,1.542,0,0,1-1.54,1.54H20.619a1.542,1.542,0,0,1-1.54-1.54V223.4h7.7a4.625,4.625,0,0,0,4.619-4.619v-7.7H54.5a1.542,1.542,0,0,1,1.54,1.54v1.54h3.08v-1.54A4.625,4.625,0,0,0,54.5,208H31.134a4.589,4.589,0,0,0-3.266,1.353L17.353,219.867A4.589,4.589,0,0,0,16,223.134v35.68a4.625,4.625,0,0,0,4.619,4.619H54.5a4.625,4.625,0,0,0,4.619-4.619v-4.619h49.274v-3.08h-3.08Zm-76.99-.9v5.521a1.542,1.542,0,0,1-1.54,1.54H21.257Zm21.557,40.937a1.54,1.54,0,1,1,1.54-1.54A1.54,1.54,0,0,1,49.876,254.194Zm18.478-10.779h6.159v7.7H68.353Zm9.239-9.239h6.159v16.938H77.592Zm9.239-9.239H92.99v26.177H86.831Zm9.239,26.177V215.7h6.159v35.415Z" transform="translate(0 -155.439)" fill="#3a3c07"/>
      <path id="Trazado_111088" data-name="Trazado 111088" d="M20.619,86.787a4.618,4.618,0,0,0,4.168-6.61l4.62-4.62a4.617,4.617,0,0,0,6.345-2.628h6.689a4.619,4.619,0,0,0,8.91-.777l8.7-7.454a4.62,4.62,0,1,0-2.095-2.261l-7.367,6.314a4.616,4.616,0,0,0-8.144,1.1H35.752a4.619,4.619,0,1,0-8.523,3.53L22.609,78a4.619,4.619,0,1,0-1.99,8.787ZM62.194,59.071a1.54,1.54,0,1,1-1.54,1.54,1.54,1.54,0,0,1,1.54-1.54ZM46.8,69.849a1.54,1.54,0,1,1-1.54,1.54A1.54,1.54,0,0,1,46.8,69.849Zm-15.4,0a1.54,1.54,0,1,1-1.54,1.54A1.54,1.54,0,0,1,31.4,69.849ZM20.619,80.628a1.54,1.54,0,1,1-1.54,1.54A1.54,1.54,0,0,1,20.619,80.628Z" transform="translate(0 -32.687)" fill="#3a3c07"/>
      <path id="Trazado_111089" data-name="Trazado 111089" d="M192.634,51.621,182.456,61.8H168.971a4.619,4.619,0,1,0,0,3.08h3.344V92.6h3.08V64.879h7.7a1.54,1.54,0,0,0,1.089-.451L195.3,53.315a20.072,20.072,0,1,0-2.662-1.693ZM164.616,64.879a1.54,1.54,0,1,1,1.54-1.54A1.54,1.54,0,0,1,164.616,64.879ZM217,47.2,208.08,37.162h13.438A16.881,16.881,0,0,1,217,47.2Zm4.516-13.117H206.191V18.756A16.966,16.966,0,0,1,221.518,34.083ZM203.111,18.756V35.623a1.532,1.532,0,0,0,.39,1.022h0l11.2,12.6a16.935,16.935,0,1,1-11.59-30.492Z" transform="translate(-116.281 0)" fill="#3a3c07"/>
    </g>
  </g>
</svg>
