<svg id="Capa_1" data-name="Capa 1" xmlns="http://www.w3.org/2000/svg" viewBox="0 0 414.75 173"><defs><style>.cls-1{fill:#12263f;}.cls-2,.cls-6{fill:none;stroke:#009ce0;stroke-miterlimit:10;}.cls-3,.cls-5{fill:#009ce0;}.cls-4{fill:#fff;}.cls-5{fill-rule:evenodd;}.cls-6{stroke-width:0.5px;}</style></defs><path class="cls-1" d="M168.64,29.27h-3.37v2.3h4V33h-5.72V24.45h5.71v1.42h-3.95v2h3.37Z" transform="translate(-10.99 -18)"/><path class="cls-1" d="M173.71,28.23a4.82,4.82,0,0,0-.61-.05,1.25,1.25,0,0,0-1.26.65V33h-1.69V26.64h1.6l.05.76a1.56,1.56,0,0,1,1.41-.88,1.84,1.84,0,0,1,.53.08Z" transform="translate(-10.99 -18)"/><path class="cls-1" d="M178.09,28.23a4.82,4.82,0,0,0-.61-.05,1.25,1.25,0,0,0-1.26.65V33h-1.69V26.64h1.6l0,.76a1.56,1.56,0,0,1,1.42-.88,1.77,1.77,0,0,1,.52.08Z" transform="translate(-10.99 -18)"/><path class="cls-1" d="M178.43,29.75a3.77,3.77,0,0,1,.36-1.68,2.63,2.63,0,0,1,1.05-1.14,3,3,0,0,1,1.58-.41,2.87,2.87,0,0,1,2.1.79,3.12,3.12,0,0,1,.9,2.13l0,.43a3.34,3.34,0,0,1-.82,2.35,3.15,3.15,0,0,1-4.37,0,3.35,3.35,0,0,1-.82-2.39Zm1.69.12a2.4,2.4,0,0,0,.34,1.38,1.23,1.23,0,0,0,1.94,0,2.61,2.61,0,0,0,.34-1.51,2.33,2.33,0,0,0-.34-1.37,1.21,1.21,0,0,0-1.94,0A2.7,2.7,0,0,0,180.12,29.87Z" transform="translate(-10.99 -18)"/><path class="cls-1" d="M189,28.23a4.82,4.82,0,0,0-.61-.05,1.25,1.25,0,0,0-1.26.65V33h-1.69V26.64h1.6l0,.76a1.57,1.57,0,0,1,1.42-.88,1.77,1.77,0,0,1,.52.08Z" transform="translate(-10.99 -18)"/><path class="cls-1" d="M194.87,25.08v1.56H196v1.24h-1.08v3.17a.75.75,0,0,0,.14.5.67.67,0,0,0,.51.15,2.53,2.53,0,0,0,.5,0v1.28a3.22,3.22,0,0,1-1,.16,1.61,1.61,0,0,1-1.81-1.8V27.88h-.93V26.64h.93V25.08Z" transform="translate(-10.99 -18)"/><path class="cls-1" d="M196.46,29.75a3.77,3.77,0,0,1,.36-1.68,2.63,2.63,0,0,1,1.05-1.14,3,3,0,0,1,1.58-.41,2.87,2.87,0,0,1,2.1.79,3.12,3.12,0,0,1,.9,2.13v.43a3.34,3.34,0,0,1-.81,2.35,3.15,3.15,0,0,1-4.37,0,3.35,3.35,0,0,1-.82-2.39Zm1.69.12a2.4,2.4,0,0,0,.34,1.38,1.12,1.12,0,0,0,1,.48,1.16,1.16,0,0,0,1-.47,2.61,2.61,0,0,0,.34-1.51,2.33,2.33,0,0,0-.34-1.37,1.14,1.14,0,0,0-1-.49,1.12,1.12,0,0,0-1,.48A2.7,2.7,0,0,0,198.15,29.87Z" transform="translate(-10.99 -18)"/><path class="cls-1" d="M205.53,25.08v1.56h1.09v1.24h-1.09v3.17a.75.75,0,0,0,.14.5.69.69,0,0,0,.52.15,2.43,2.43,0,0,0,.49,0v1.28a3.2,3.2,0,0,1-1,.16,1.62,1.62,0,0,1-1.82-1.8V27.88h-.92V26.64h.92V25.08Z" transform="translate(-10.99 -18)"/><path class="cls-1" d="M211.24,33a1.67,1.67,0,0,1-.17-.57,2.05,2.05,0,0,1-1.6.69,2.27,2.27,0,0,1-1.55-.54,1.72,1.72,0,0,1-.61-1.36,1.8,1.8,0,0,1,.75-1.55,3.64,3.64,0,0,1,2.16-.54H211v-.37a1.05,1.05,0,0,0-.23-.7.87.87,0,0,0-.71-.26,1,1,0,0,0-.67.2.72.72,0,0,0-.25.56h-1.69a1.71,1.71,0,0,1,.34-1,2.32,2.32,0,0,1,1-.73,3.5,3.5,0,0,1,1.4-.27,2.78,2.78,0,0,1,1.86.59,2.06,2.06,0,0,1,.68,1.66v2.75a3,3,0,0,0,.26,1.36V33Zm-1.4-1.18a1.46,1.46,0,0,0,.69-.16,1.27,1.27,0,0,0,.47-.45V30.1h-.64c-.84,0-1.3.29-1.35.88v.1a.68.68,0,0,0,.23.52A.88.88,0,0,0,209.84,31.8Z" transform="translate(-10.99 -18)"/><path class="cls-1" d="M215.78,33h-1.7V24h1.7Z" transform="translate(-10.99 -18)"/><rect class="cls-2" x="143.15" y="0.5" width="71" height="24"/><path class="cls-1" d="M158.47,165h-3.69v3h4.29V169h-5.42v-8.53H159v.92h-4.23v2.75h3.69Z" transform="translate(-10.99 -18)"/><path class="cls-1" d="M163.37,163.59a4.56,4.56,0,0,0-.54,0,1.43,1.43,0,0,0-1.45.91V169H160.3v-6.34h1.06v.73a1.71,1.71,0,0,1,1.51-.85,1.21,1.21,0,0,1,.49.08Z" transform="translate(-10.99 -18)"/><path class="cls-1" d="M167.43,163.59a4.56,4.56,0,0,0-.54,0,1.41,1.41,0,0,0-1.44.91V169h-1.09v-6.34h1.06v.73a1.71,1.71,0,0,1,1.52-.85,1.19,1.19,0,0,1,.48.08Z" transform="translate(-10.99 -18)"/><path class="cls-1" d="M168,165.73a3.76,3.76,0,0,1,.36-1.67,2.71,2.71,0,0,1,2.51-1.56,2.67,2.67,0,0,1,2.1.9,3.46,3.46,0,0,1,.8,2.38v.08a3.71,3.71,0,0,1-.36,1.66,2.69,2.69,0,0,1-1,1.15,2.82,2.82,0,0,1-1.51.41,2.66,2.66,0,0,1-2.09-.9,3.4,3.4,0,0,1-.8-2.37Zm1.09.13a2.67,2.67,0,0,0,.49,1.69,1.65,1.65,0,0,0,2.62,0,3,3,0,0,0,.49-1.81,2.72,2.72,0,0,0-.5-1.69,1.64,1.64,0,0,0-2.61,0A3,3,0,0,0,169.11,165.86Z" transform="translate(-10.99 -18)"/><path class="cls-1" d="M178.21,163.59a4.24,4.24,0,0,0-.53,0,1.43,1.43,0,0,0-1.45.91V169h-1.08v-6.34h1l0,.73a1.71,1.71,0,0,1,1.51-.85,1.19,1.19,0,0,1,.48.08Z" transform="translate(-10.99 -18)"/><path class="cls-1" d="M181.73,169.08a2.79,2.79,0,0,1-2.1-.85,3.13,3.13,0,0,1-.81-2.26v-.2a3.85,3.85,0,0,1,.36-1.69,2.86,2.86,0,0,1,1-1.16,2.52,2.52,0,0,1,1.4-.42,2.37,2.37,0,0,1,1.93.82,3.56,3.56,0,0,1,.68,2.33v.45h-4.29a2.23,2.23,0,0,0,.54,1.52,1.75,1.75,0,0,0,1.34.57,2,2,0,0,0,1-.23,2.58,2.58,0,0,0,.7-.62l.66.51A2.66,2.66,0,0,1,181.73,169.08Zm-.14-5.69a1.46,1.46,0,0,0-1.1.48,2.39,2.39,0,0,0-.55,1.34h3.18v-.08a2,2,0,0,0-.45-1.28A1.33,1.33,0,0,0,181.59,163.39Z" transform="translate(-10.99 -18)"/><path class="cls-1" d="M189.15,167.28a.8.8,0,0,0-.33-.68,3,3,0,0,0-1.16-.42,5.42,5.42,0,0,1-1.31-.43,1.75,1.75,0,0,1-.71-.58,1.45,1.45,0,0,1-.23-.81,1.65,1.65,0,0,1,.66-1.32,2.57,2.57,0,0,1,1.68-.54,2.66,2.66,0,0,1,1.75.56,1.76,1.76,0,0,1,.67,1.42h-1.09a1,1,0,0,0-.38-.76,1.39,1.39,0,0,0-.95-.33,1.48,1.48,0,0,0-.92.26.8.8,0,0,0-.34.68.68.68,0,0,0,.31.59,3.91,3.91,0,0,0,1.12.38,5.67,5.67,0,0,1,1.32.43,1.88,1.88,0,0,1,.75.61,1.48,1.48,0,0,1,.24.86,1.62,1.62,0,0,1-.68,1.36,2.79,2.79,0,0,1-1.76.52,3.19,3.19,0,0,1-1.35-.27,2.16,2.16,0,0,1-.92-.76,1.81,1.81,0,0,1-.33-1h1.09a1.08,1.08,0,0,0,.43.86,1.65,1.65,0,0,0,1.08.32,1.67,1.67,0,0,0,1-.25A.75.75,0,0,0,189.15,167.28Z" transform="translate(-10.99 -18)"/><path class="cls-1" d="M194.35,165.74a3.71,3.71,0,0,1,.69-2.35,2.2,2.2,0,0,1,1.81-.89,2.25,2.25,0,0,1,1.77.76V160h1.08v9h-1l0-.68a2.21,2.21,0,0,1-1.81.8,2.17,2.17,0,0,1-1.8-.91,3.75,3.75,0,0,1-.69-2.35Zm1.08.12a2.8,2.8,0,0,0,.45,1.69,1.46,1.46,0,0,0,1.23.61,1.59,1.59,0,0,0,1.51-.93v-2.91a1.61,1.61,0,0,0-1.5-.9,1.45,1.45,0,0,0-1.24.62A3.07,3.07,0,0,0,195.43,165.86Z" transform="translate(-10.99 -18)"/><path class="cls-1" d="M204,169.08a2.79,2.79,0,0,1-2.1-.85,3.17,3.17,0,0,1-.8-2.26v-.2a3.85,3.85,0,0,1,.36-1.69,2.83,2.83,0,0,1,1-1.16,2.56,2.56,0,0,1,1.41-.42,2.36,2.36,0,0,1,1.92.82,3.5,3.5,0,0,1,.68,2.33v.45h-4.29a2.29,2.29,0,0,0,.55,1.52,1.72,1.72,0,0,0,1.33.57,1.93,1.93,0,0,0,1-.23,2.58,2.58,0,0,0,.7-.62l.66.51A2.66,2.66,0,0,1,204,169.08Zm-.13-5.69a1.43,1.43,0,0,0-1.1.48,2.32,2.32,0,0,0-.56,1.34h3.18v-.08a2.08,2.08,0,0,0-.44-1.28A1.36,1.36,0,0,0,203.88,163.39Z" transform="translate(-10.99 -18)"/><path class="cls-1" d="M208.92,169h-1.09v-9h1.09Z" transform="translate(-10.99 -18)"/><path class="cls-1" d="M149.28,175.34a.69.69,0,0,1,.16-.45.73.73,0,0,1,1,0,.64.64,0,0,1,.17.45.64.64,0,0,1-.17.44.76.76,0,0,1-1,0A.68.68,0,0,1,149.28,175.34Zm1.17,8h-1.08V177h1.08Z" transform="translate(-10.99 -18)"/><path class="cls-1" d="M153.21,177l0,.8a2.31,2.31,0,0,1,1.9-.92c1.34,0,2,.76,2,2.27v4.19h-1.08v-4.2a1.47,1.47,0,0,0-.31-1,1.27,1.27,0,0,0-1-.33,1.65,1.65,0,0,0-.93.28,2,2,0,0,0-.62.74v4.52h-1.08V177Z" transform="translate(-10.99 -18)"/><path class="cls-1" d="M160.9,181.89l1.57-4.87h1.11l-2.27,6.34h-.83l-2.3-6.34h1.11Z" transform="translate(-10.99 -18)"/><path class="cls-1" d="M167.18,183.48a2.79,2.79,0,0,1-2.1-.85,3.13,3.13,0,0,1-.81-2.26v-.2a3.85,3.85,0,0,1,.36-1.69,2.86,2.86,0,0,1,1-1.16,2.52,2.52,0,0,1,1.4-.42,2.34,2.34,0,0,1,1.92.82,3.5,3.5,0,0,1,.69,2.33v.45h-4.3a2.29,2.29,0,0,0,.55,1.52,1.75,1.75,0,0,0,1.34.57,2,2,0,0,0,1-.23,2.74,2.74,0,0,0,.7-.62l.66.51A2.66,2.66,0,0,1,167.18,183.48Zm-.14-5.69a1.44,1.44,0,0,0-1.1.48,2.32,2.32,0,0,0-.55,1.34h3.18v-.08a2.09,2.09,0,0,0-.45-1.28A1.34,1.34,0,0,0,167,177.79Z" transform="translate(-10.99 -18)"/><path class="cls-1" d="M174.59,181.68a.8.8,0,0,0-.33-.68,2.89,2.89,0,0,0-1.15-.42,5.42,5.42,0,0,1-1.31-.43,1.75,1.75,0,0,1-.71-.58,1.38,1.38,0,0,1-.23-.81,1.65,1.65,0,0,1,.66-1.32,2.57,2.57,0,0,1,1.68-.54,2.66,2.66,0,0,1,1.75.56,1.76,1.76,0,0,1,.67,1.42h-1.09a1,1,0,0,0-.38-.76,1.39,1.39,0,0,0-1-.33,1.53,1.53,0,0,0-.93.26.82.82,0,0,0-.33.68.66.66,0,0,0,.31.59,3.91,3.91,0,0,0,1.12.38,5.84,5.84,0,0,1,1.32.43,2,2,0,0,1,.75.61,1.48,1.48,0,0,1,.24.86A1.62,1.62,0,0,1,175,183a2.79,2.79,0,0,1-1.76.52,3.19,3.19,0,0,1-1.35-.27,2.16,2.16,0,0,1-.92-.76,1.81,1.81,0,0,1-.33-1h1.08a1.12,1.12,0,0,0,.44.86,1.65,1.65,0,0,0,1.08.32,1.7,1.7,0,0,0,1-.25A.74.74,0,0,0,174.59,181.68Z" transform="translate(-10.99 -18)"/><path class="cls-1" d="M178.56,175.48V177h1.19v.84h-1.19v3.93a.87.87,0,0,0,.16.58.69.69,0,0,0,.54.19,3.17,3.17,0,0,0,.51-.07v.87a3,3,0,0,1-.83.12,1.34,1.34,0,0,1-1.09-.44,1.88,1.88,0,0,1-.37-1.25v-3.93h-1.16V177h1.16v-1.54Z" transform="translate(-10.99 -18)"/><path class="cls-1" d="M181,175.34a.64.64,0,0,1,.16-.45.6.6,0,0,1,.48-.18.62.62,0,0,1,.48.18.64.64,0,0,1,.16.45.63.63,0,0,1-.16.44.61.61,0,0,1-.48.17.6.6,0,0,1-.48-.17A.63.63,0,0,1,181,175.34Zm1.17,8H181.1V177h1.09Z" transform="translate(-10.99 -18)"/><path class="cls-1" d="M183.67,180.14a3.7,3.7,0,0,1,.68-2.36,2.18,2.18,0,0,1,1.82-.88,2.21,2.21,0,0,1,1.81.82l.05-.7h1v6.19a2.58,2.58,0,0,1-.73,1.94,2.71,2.71,0,0,1-2,.71,3.19,3.19,0,0,1-1.34-.3,2.24,2.24,0,0,1-1-.8l.56-.65a2.12,2.12,0,0,0,1.7.86,1.71,1.71,0,0,0,1.24-.44,1.74,1.74,0,0,0,.44-1.26v-.54a2.21,2.21,0,0,1-1.77.75,2.17,2.17,0,0,1-1.81-.9A3.91,3.91,0,0,1,183.67,180.14Zm1.08.12a2.82,2.82,0,0,0,.44,1.68,1.45,1.45,0,0,0,1.23.62,1.59,1.59,0,0,0,1.51-.93v-2.9a1.61,1.61,0,0,0-1.49-.91,1.45,1.45,0,0,0-1.24.62A3.07,3.07,0,0,0,184.75,180.26Z" transform="translate(-10.99 -18)"/><path class="cls-1" d="M194.57,183.36a2.49,2.49,0,0,1-.15-.67,2.42,2.42,0,0,1-1.81.79,2.27,2.27,0,0,1-1.54-.53,1.73,1.73,0,0,1-.6-1.35,1.79,1.79,0,0,1,.76-1.54,3.56,3.56,0,0,1,2.11-.54h1.06V179a1.22,1.22,0,0,0-.34-.91,1.39,1.39,0,0,0-1-.33,1.58,1.58,0,0,0-1,.29.86.86,0,0,0-.39.71H190.6a1.48,1.48,0,0,1,.34-.92,2.31,2.31,0,0,1,.91-.7,3.13,3.13,0,0,1,1.27-.26,2.55,2.55,0,0,1,1.72.55,2,2,0,0,1,.64,1.51v2.92a3.56,3.56,0,0,0,.23,1.39v.09Zm-1.8-.83a1.88,1.88,0,0,0,1-.26,1.62,1.62,0,0,0,.66-.69v-1.3h-.85c-1.33,0-2,.39-2,1.17a1,1,0,0,0,.34.8A1.3,1.3,0,0,0,192.77,182.53Z" transform="translate(-10.99 -18)"/><path class="cls-1" d="M196.92,180.14a3.71,3.71,0,0,1,.69-2.35,2.19,2.19,0,0,1,1.81-.89,2.21,2.21,0,0,1,1.76.76v-3.3h1.09v9h-1l-.05-.68a2.21,2.21,0,0,1-1.81.8,2.16,2.16,0,0,1-1.8-.91,3.75,3.75,0,0,1-.69-2.35Zm1.08.12a2.8,2.8,0,0,0,.45,1.69,1.46,1.46,0,0,0,1.23.61,1.56,1.56,0,0,0,1.5-.93v-2.91a1.58,1.58,0,0,0-1.49-.9,1.45,1.45,0,0,0-1.24.62A3.07,3.07,0,0,0,198,180.26Z" transform="translate(-10.99 -18)"/><path class="cls-1" d="M203.66,180.13a3.76,3.76,0,0,1,.37-1.67,2.66,2.66,0,0,1,1-1.15,2.75,2.75,0,0,1,1.49-.41,2.66,2.66,0,0,1,2.09.9,3.41,3.41,0,0,1,.8,2.38v.08a3.71,3.71,0,0,1-.35,1.66,2.76,2.76,0,0,1-1,1.15,2.86,2.86,0,0,1-1.52.41,2.67,2.67,0,0,1-2.09-.9,3.45,3.45,0,0,1-.8-2.37Zm1.09.13a2.74,2.74,0,0,0,.49,1.69,1.56,1.56,0,0,0,1.31.64,1.53,1.53,0,0,0,1.31-.65,2.91,2.91,0,0,0,.49-1.81,2.71,2.71,0,0,0-.49-1.69,1.58,1.58,0,0,0-1.32-.65,1.55,1.55,0,0,0-1.29.64A3,3,0,0,0,204.75,180.26Z" transform="translate(-10.99 -18)"/><path class="cls-1" d="M213.86,178a4.39,4.39,0,0,0-.53,0,1.42,1.42,0,0,0-1.45.91v4.5h-1.09V177h1.06l0,.73a1.69,1.69,0,0,1,1.51-.85,1.19,1.19,0,0,1,.48.08Z" transform="translate(-10.99 -18)"/><path class="cls-1" d="M259.55,165h-3.7v3h4.3V169h-5.42v-8.53h5.36v.92h-4.24v2.75h3.7Z" transform="translate(-10.99 -18)"/><path class="cls-1" d="M264.44,163.59a4.24,4.24,0,0,0-.53,0,1.43,1.43,0,0,0-1.45.91V169h-1.08v-6.34h1.05l0,.73a1.71,1.71,0,0,1,1.51-.85,1.19,1.19,0,0,1,.48.08Z" transform="translate(-10.99 -18)"/><path class="cls-1" d="M268.5,163.59a4.24,4.24,0,0,0-.53,0,1.43,1.43,0,0,0-1.45.91V169h-1.08v-6.34h1.05l0,.73a1.71,1.71,0,0,1,1.51-.85,1.19,1.19,0,0,1,.48.08Z" transform="translate(-10.99 -18)"/><path class="cls-1" d="M269.09,165.73a3.76,3.76,0,0,1,.37-1.67,2.66,2.66,0,0,1,1-1.15,2.78,2.78,0,0,1,1.49-.41,2.69,2.69,0,0,1,2.1.9,3.46,3.46,0,0,1,.8,2.38v.08a3.71,3.71,0,0,1-.36,1.66,2.76,2.76,0,0,1-1,1.15,2.86,2.86,0,0,1-1.52.41,2.67,2.67,0,0,1-2.09-.9,3.45,3.45,0,0,1-.8-2.37Zm1.09.13a2.74,2.74,0,0,0,.49,1.69,1.66,1.66,0,0,0,2.63,0,3,3,0,0,0,.48-1.81,2.71,2.71,0,0,0-.49-1.69,1.58,1.58,0,0,0-1.32-.65,1.56,1.56,0,0,0-1.29.64A3,3,0,0,0,270.18,165.86Z" transform="translate(-10.99 -18)"/><path class="cls-1" d="M279.29,163.59a4.24,4.24,0,0,0-.53,0,1.43,1.43,0,0,0-1.45.91V169h-1.08v-6.34h1l0,.73a1.69,1.69,0,0,1,1.51-.85,1.19,1.19,0,0,1,.48.08Z" transform="translate(-10.99 -18)"/><path class="cls-1" d="M282.81,169.08a2.79,2.79,0,0,1-2.1-.85,3.13,3.13,0,0,1-.81-2.26v-.2a3.85,3.85,0,0,1,.36-1.69,2.86,2.86,0,0,1,1-1.16,2.52,2.52,0,0,1,1.4-.42,2.35,2.35,0,0,1,1.92.82,3.5,3.5,0,0,1,.69,2.33v.45H281a2.29,2.29,0,0,0,.55,1.52,1.72,1.72,0,0,0,1.33.57,2,2,0,0,0,1-.23,2.7,2.7,0,0,0,.69-.62l.67.51A2.67,2.67,0,0,1,282.81,169.08Zm-.14-5.69a1.44,1.44,0,0,0-1.1.48,2.32,2.32,0,0,0-.55,1.34h3.17v-.08a2.08,2.08,0,0,0-.44-1.28A1.36,1.36,0,0,0,282.67,163.39Z" transform="translate(-10.99 -18)"/><path class="cls-1" d="M290.22,167.28a.8.8,0,0,0-.33-.68,2.89,2.89,0,0,0-1.15-.42,5.27,5.27,0,0,1-1.31-.43,1.75,1.75,0,0,1-.71-.58,1.38,1.38,0,0,1-.24-.81,1.65,1.65,0,0,1,.66-1.32,2.59,2.59,0,0,1,1.69-.54,2.66,2.66,0,0,1,1.75.56,1.79,1.79,0,0,1,.67,1.42h-1.09a1,1,0,0,0-.38-.76,1.39,1.39,0,0,0-.95-.33,1.51,1.51,0,0,0-.93.26.82.82,0,0,0-.33.68.66.66,0,0,0,.31.59,3.91,3.91,0,0,0,1.12.38,5.84,5.84,0,0,1,1.32.43,1.91,1.91,0,0,1,.74.61,1.41,1.41,0,0,1,.25.86,1.62,1.62,0,0,1-.68,1.36,2.82,2.82,0,0,1-1.77.52,3.18,3.18,0,0,1-1.34-.27,2.16,2.16,0,0,1-.92-.76,1.81,1.81,0,0,1-.33-1h1.08a1.12,1.12,0,0,0,.44.86,1.64,1.64,0,0,0,1.07.32,1.73,1.73,0,0,0,1-.25A.74.74,0,0,0,290.22,167.28Z" transform="translate(-10.99 -18)"/><path class="cls-1" d="M295.43,165.74a3.71,3.71,0,0,1,.69-2.35,2.19,2.19,0,0,1,1.81-.89,2.21,2.21,0,0,1,1.76.76V160h1.09v9h-1l0-.68a2.23,2.23,0,0,1-1.81.8,2.15,2.15,0,0,1-1.8-.91,3.75,3.75,0,0,1-.69-2.35Zm1.08.12a2.8,2.8,0,0,0,.45,1.69,1.44,1.44,0,0,0,1.23.61,1.57,1.57,0,0,0,1.5-.93v-2.91a1.58,1.58,0,0,0-1.49-.9A1.44,1.44,0,0,0,297,164,3.07,3.07,0,0,0,296.51,165.86Z" transform="translate(-10.99 -18)"/><path class="cls-1" d="M305.09,169.08a2.79,2.79,0,0,1-2.1-.85,3.13,3.13,0,0,1-.81-2.26v-.2a3.85,3.85,0,0,1,.36-1.69,2.86,2.86,0,0,1,1-1.16,2.52,2.52,0,0,1,1.4-.42,2.37,2.37,0,0,1,1.93.82,3.56,3.56,0,0,1,.68,2.33v.45h-4.29a2.23,2.23,0,0,0,.54,1.52,1.75,1.75,0,0,0,1.34.57,2,2,0,0,0,1-.23,2.74,2.74,0,0,0,.7-.62l.66.51A2.66,2.66,0,0,1,305.09,169.08Zm-.14-5.69a1.46,1.46,0,0,0-1.1.48,2.32,2.32,0,0,0-.55,1.34h3.18v-.08a2,2,0,0,0-.45-1.28A1.33,1.33,0,0,0,305,163.39Z" transform="translate(-10.99 -18)"/><path class="cls-1" d="M310,169h-1.08v-9H310Z" transform="translate(-10.99 -18)"/><path class="cls-1" d="M250.69,183.48a2.76,2.76,0,0,1-2.09-.85,3.13,3.13,0,0,1-.81-2.26v-.2a3.85,3.85,0,0,1,.36-1.69,2.83,2.83,0,0,1,1-1.16,2.56,2.56,0,0,1,1.41-.42,2.36,2.36,0,0,1,1.92.82,3.5,3.5,0,0,1,.69,2.33v.45h-4.3a2.29,2.29,0,0,0,.55,1.52,1.72,1.72,0,0,0,1.33.57,1.93,1.93,0,0,0,1-.23,2.58,2.58,0,0,0,.7-.62l.66.51A2.65,2.65,0,0,1,250.69,183.48Zm-.13-5.69a1.43,1.43,0,0,0-1.1.48,2.32,2.32,0,0,0-.55,1.34h3.17v-.08a2.08,2.08,0,0,0-.44-1.28A1.36,1.36,0,0,0,250.56,177.79Z" transform="translate(-10.99 -18)"/><path class="cls-1" d="M255.44,177l0,.8a2.31,2.31,0,0,1,1.9-.92c1.34,0,2,.76,2,2.27v4.19h-1.09v-4.2a1.47,1.47,0,0,0-.31-1,1.27,1.27,0,0,0-1-.33,1.65,1.65,0,0,0-.93.28,2,2,0,0,0-.62.74v4.52h-1.08V177Z" transform="translate(-10.99 -18)"/><path class="cls-1" d="M262.51,175.48V177h1.18v.84h-1.18v3.93a.87.87,0,0,0,.16.58.68.68,0,0,0,.54.19,3.17,3.17,0,0,0,.51-.07v.87a3,3,0,0,1-.83.12,1.34,1.34,0,0,1-1.09-.44,1.88,1.88,0,0,1-.37-1.25v-3.93h-1.16V177h1.16v-1.54Z" transform="translate(-10.99 -18)"/><path class="cls-1" d="M268,178a4.24,4.24,0,0,0-.53,0,1.43,1.43,0,0,0-1.45.91v4.5H265V177H266v.73a1.71,1.71,0,0,1,1.51-.85,1.12,1.12,0,0,1,.48.08Z" transform="translate(-10.99 -18)"/><path class="cls-1" d="M271.54,183.48a2.79,2.79,0,0,1-2.1-.85,3.13,3.13,0,0,1-.81-2.26v-.2a3.85,3.85,0,0,1,.36-1.69,2.86,2.86,0,0,1,1-1.16,2.53,2.53,0,0,1,1.41-.42,2.36,2.36,0,0,1,1.92.82,3.56,3.56,0,0,1,.68,2.33v.45h-4.29a2.24,2.24,0,0,0,.55,1.52,1.72,1.72,0,0,0,1.33.57,1.93,1.93,0,0,0,1-.23,2.58,2.58,0,0,0,.7-.62l.66.51A2.66,2.66,0,0,1,271.54,183.48Zm-.13-5.69a1.46,1.46,0,0,0-1.11.48,2.39,2.39,0,0,0-.55,1.34h3.18v-.08a2,2,0,0,0-.45-1.28A1.32,1.32,0,0,0,271.41,177.79Z" transform="translate(-10.99 -18)"/><path class="cls-1" d="M277.28,181.89l1.57-4.87H280l-2.27,6.34h-.83l-2.3-6.34h1.11Z" transform="translate(-10.99 -18)"/><path class="cls-1" d="M281,175.34a.64.64,0,0,1,.16-.45.73.73,0,0,1,1,0,.64.64,0,0,1,.16.45.63.63,0,0,1-.16.44.76.76,0,0,1-1,0A.63.63,0,0,1,281,175.34Zm1.17,8H281.1V177h1.08Z" transform="translate(-10.99 -18)"/><path class="cls-1" d="M287.61,181.68a.8.8,0,0,0-.33-.68,3,3,0,0,0-1.16-.42,5.42,5.42,0,0,1-1.31-.43,1.75,1.75,0,0,1-.71-.58,1.45,1.45,0,0,1-.23-.81,1.65,1.65,0,0,1,.66-1.32,2.57,2.57,0,0,1,1.68-.54,2.66,2.66,0,0,1,1.75.56,1.76,1.76,0,0,1,.67,1.42h-1.09a1,1,0,0,0-.38-.76,1.37,1.37,0,0,0-1-.33,1.48,1.48,0,0,0-.92.26.8.8,0,0,0-.34.68.68.68,0,0,0,.31.59,3.88,3.88,0,0,0,1.13.38,5.74,5.74,0,0,1,1.31.43,1.88,1.88,0,0,1,.75.61,1.48,1.48,0,0,1,.24.86A1.62,1.62,0,0,1,288,183a2.79,2.79,0,0,1-1.76.52,3.19,3.19,0,0,1-1.35-.27,2.16,2.16,0,0,1-.92-.76,1.81,1.81,0,0,1-.33-1h1.09a1.11,1.11,0,0,0,.43.86,1.65,1.65,0,0,0,1.08.32,1.67,1.67,0,0,0,1-.25A.75.75,0,0,0,287.61,181.68Z" transform="translate(-10.99 -18)"/><path class="cls-1" d="M291.57,175.48V177h1.19v.84h-1.19v3.93a.93.93,0,0,0,.16.58.7.7,0,0,0,.54.19,3.27,3.27,0,0,0,.52-.07v.87a3.15,3.15,0,0,1-.84.12,1.34,1.34,0,0,1-1.09-.44,1.88,1.88,0,0,1-.37-1.25v-3.93h-1.15V177h1.15v-1.54Z" transform="translate(-10.99 -18)"/><path class="cls-1" d="M297.94,183.36a2.09,2.09,0,0,1-.16-.67,2.38,2.38,0,0,1-1.8.79,2.25,2.25,0,0,1-1.54-.53,1.73,1.73,0,0,1-.6-1.35,1.8,1.8,0,0,1,.75-1.54,3.61,3.61,0,0,1,2.12-.54h1.06V179a1.26,1.26,0,0,0-.34-.91,1.39,1.39,0,0,0-1-.33,1.56,1.56,0,0,0-1,.29.86.86,0,0,0-.39.71H294a1.48,1.48,0,0,1,.34-.92,2.31,2.31,0,0,1,.91-.7,3.13,3.13,0,0,1,1.27-.26,2.55,2.55,0,0,1,1.72.55,2,2,0,0,1,.64,1.51v2.92a3.78,3.78,0,0,0,.22,1.39v.09Zm-1.8-.83a1.82,1.82,0,0,0,1-.26,1.59,1.59,0,0,0,.67-.69v-1.3h-.85c-1.33,0-2,.39-2,1.17a1,1,0,0,0,.34.8A1.28,1.28,0,0,0,296.14,182.53Z" transform="translate(-10.99 -18)"/><path class="cls-1" d="M300.29,180.14a3.71,3.71,0,0,1,.69-2.35,2.19,2.19,0,0,1,1.81-.89,2.21,2.21,0,0,1,1.76.76v-3.3h1.09v9h-1l-.05-.68a2.23,2.23,0,0,1-1.81.8,2.15,2.15,0,0,1-1.8-.91,3.75,3.75,0,0,1-.69-2.35Zm1.08.12a2.8,2.8,0,0,0,.45,1.69,1.44,1.44,0,0,0,1.23.61,1.57,1.57,0,0,0,1.5-.93v-2.91a1.58,1.58,0,0,0-1.49-.9,1.44,1.44,0,0,0-1.24.62A3.07,3.07,0,0,0,301.37,180.26Z" transform="translate(-10.99 -18)"/><path class="cls-1" d="M307,180.13a3.63,3.63,0,0,1,.37-1.67,2.66,2.66,0,0,1,1-1.15,2.75,2.75,0,0,1,1.49-.41,2.66,2.66,0,0,1,2.09.9,3.41,3.41,0,0,1,.8,2.38v.08a3.85,3.85,0,0,1-.35,1.66,2.78,2.78,0,0,1-1,1.15,2.82,2.82,0,0,1-1.51.41,2.66,2.66,0,0,1-2.09-.9,3.45,3.45,0,0,1-.8-2.37Zm1.09.13a2.67,2.67,0,0,0,.49,1.69,1.56,1.56,0,0,0,1.31.64,1.53,1.53,0,0,0,1.31-.65,2.91,2.91,0,0,0,.49-1.81,2.72,2.72,0,0,0-.5-1.69,1.64,1.64,0,0,0-2.61,0A3,3,0,0,0,308.12,180.26Z" transform="translate(-10.99 -18)"/><path class="cls-1" d="M317.23,178a4.56,4.56,0,0,0-.54,0,1.41,1.41,0,0,0-1.44.91v4.5h-1.09V177h1.06v.73a1.71,1.71,0,0,1,1.52-.85,1.19,1.19,0,0,1,.48.08Z" transform="translate(-10.99 -18)"/><path class="cls-1" d="M363.79,165H360.1v3h4.29V169H359v-8.53h5.36v.92H360.1v2.75h3.69Z" transform="translate(-10.99 -18)"/><path class="cls-1" d="M368.69,163.59a4.56,4.56,0,0,0-.54,0,1.41,1.41,0,0,0-1.44.91V169h-1.09v-6.34h1.06v.73a1.71,1.71,0,0,1,1.52-.85,1.19,1.19,0,0,1,.48.08Z" transform="translate(-10.99 -18)"/><path class="cls-1" d="M372.75,163.59a4.56,4.56,0,0,0-.54,0,1.41,1.41,0,0,0-1.44.91V169h-1.09v-6.34h1.06v.73a1.71,1.71,0,0,1,1.52-.85,1.19,1.19,0,0,1,.48.08Z" transform="translate(-10.99 -18)"/><path class="cls-1" d="M373.34,165.73a3.76,3.76,0,0,1,.36-1.67,2.71,2.71,0,0,1,2.51-1.56,2.67,2.67,0,0,1,2.1.9,3.46,3.46,0,0,1,.8,2.38v.08a3.71,3.71,0,0,1-.36,1.66,2.69,2.69,0,0,1-1,1.15,2.82,2.82,0,0,1-1.51.41,2.66,2.66,0,0,1-2.09-.9,3.4,3.4,0,0,1-.8-2.37Zm1.09.13a2.67,2.67,0,0,0,.49,1.69,1.65,1.65,0,0,0,2.62,0,3,3,0,0,0,.49-1.81,2.72,2.72,0,0,0-.5-1.69,1.64,1.64,0,0,0-2.61,0A3,3,0,0,0,374.43,165.86Z" transform="translate(-10.99 -18)"/><path class="cls-1" d="M383.53,163.59a4.24,4.24,0,0,0-.53,0,1.43,1.43,0,0,0-1.45.91V169h-1.08v-6.34h1l0,.73a1.71,1.71,0,0,1,1.51-.85,1.19,1.19,0,0,1,.48.08Z" transform="translate(-10.99 -18)"/><path class="cls-1" d="M387.05,169.08a2.79,2.79,0,0,1-2.1-.85,3.13,3.13,0,0,1-.81-2.26v-.2a3.85,3.85,0,0,1,.36-1.69,2.86,2.86,0,0,1,1-1.16,2.52,2.52,0,0,1,1.4-.42,2.37,2.37,0,0,1,1.93.82,3.56,3.56,0,0,1,.68,2.33v.45h-4.29a2.23,2.23,0,0,0,.54,1.52,1.75,1.75,0,0,0,1.34.57,2,2,0,0,0,1-.23,2.58,2.58,0,0,0,.7-.62l.66.51A2.66,2.66,0,0,1,387.05,169.08Zm-.14-5.69a1.46,1.46,0,0,0-1.1.48,2.39,2.39,0,0,0-.55,1.34h3.18v-.08a2,2,0,0,0-.45-1.28A1.33,1.33,0,0,0,386.91,163.39Z" transform="translate(-10.99 -18)"/><path class="cls-1" d="M394.47,167.28a.8.8,0,0,0-.33-.68,3,3,0,0,0-1.16-.42,5.42,5.42,0,0,1-1.31-.43,1.75,1.75,0,0,1-.71-.58,1.45,1.45,0,0,1-.23-.81,1.65,1.65,0,0,1,.66-1.32,2.57,2.57,0,0,1,1.68-.54,2.66,2.66,0,0,1,1.75.56,1.76,1.76,0,0,1,.67,1.42H394.4a1,1,0,0,0-.38-.76,1.37,1.37,0,0,0-.95-.33,1.48,1.48,0,0,0-.92.26.8.8,0,0,0-.34.68.68.68,0,0,0,.31.59,3.88,3.88,0,0,0,1.13.38,5.74,5.74,0,0,1,1.31.43,1.88,1.88,0,0,1,.75.61,1.48,1.48,0,0,1,.24.86,1.62,1.62,0,0,1-.68,1.36,2.79,2.79,0,0,1-1.76.52,3.19,3.19,0,0,1-1.35-.27,2.16,2.16,0,0,1-.92-.76,1.81,1.81,0,0,1-.33-1h1.09a1.11,1.11,0,0,0,.43.86,1.65,1.65,0,0,0,1.08.32,1.67,1.67,0,0,0,1-.25A.75.75,0,0,0,394.47,167.28Z" transform="translate(-10.99 -18)"/><path class="cls-1" d="M399.67,165.74a3.71,3.71,0,0,1,.69-2.35,2.2,2.2,0,0,1,1.81-.89,2.25,2.25,0,0,1,1.77.76V160H405v9h-1l0-.68a2.21,2.21,0,0,1-1.81.8,2.17,2.17,0,0,1-1.8-.91,3.75,3.75,0,0,1-.69-2.35Zm1.08.12a2.8,2.8,0,0,0,.45,1.69,1.46,1.46,0,0,0,1.23.61,1.59,1.59,0,0,0,1.51-.93v-2.91a1.61,1.61,0,0,0-1.5-.9,1.45,1.45,0,0,0-1.24.62A3.07,3.07,0,0,0,400.75,165.86Z" transform="translate(-10.99 -18)"/><path class="cls-1" d="M409.33,169.08a2.79,2.79,0,0,1-2.1-.85,3.17,3.17,0,0,1-.8-2.26v-.2a3.85,3.85,0,0,1,.36-1.69,2.83,2.83,0,0,1,1-1.16,2.56,2.56,0,0,1,1.41-.42,2.36,2.36,0,0,1,1.92.82,3.5,3.5,0,0,1,.68,2.33v.45h-4.29a2.29,2.29,0,0,0,.55,1.52,1.72,1.72,0,0,0,1.33.57,1.93,1.93,0,0,0,1-.23,2.58,2.58,0,0,0,.7-.62l.66.51A2.66,2.66,0,0,1,409.33,169.08Zm-.13-5.69a1.43,1.43,0,0,0-1.1.48,2.39,2.39,0,0,0-.56,1.34h3.18v-.08a2.08,2.08,0,0,0-.44-1.28A1.36,1.36,0,0,0,409.2,163.39Z" transform="translate(-10.99 -18)"/><path class="cls-1" d="M414.24,169h-1.09v-9h1.09Z" transform="translate(-10.99 -18)"/><path class="cls-1" d="M357,183.48a2.79,2.79,0,0,1-2.1-.85,3.13,3.13,0,0,1-.81-2.26v-.2a3.85,3.85,0,0,1,.36-1.69,2.86,2.86,0,0,1,1-1.16,2.52,2.52,0,0,1,1.4-.42,2.34,2.34,0,0,1,1.92.82,3.5,3.5,0,0,1,.69,2.33v.45h-4.3a2.29,2.29,0,0,0,.55,1.52,1.75,1.75,0,0,0,1.34.57,2,2,0,0,0,1-.23,2.74,2.74,0,0,0,.7-.62l.66.51A2.66,2.66,0,0,1,357,183.48Zm-.14-5.69a1.44,1.44,0,0,0-1.1.48,2.32,2.32,0,0,0-.55,1.34h3.18v-.08a2.09,2.09,0,0,0-.45-1.28A1.34,1.34,0,0,0,356.83,177.79Z" transform="translate(-10.99 -18)"/><path class="cls-1" d="M361.72,177l0,.8a2.33,2.33,0,0,1,1.9-.92c1.34,0,2,.76,2,2.27v4.19H364.6v-4.2a1.47,1.47,0,0,0-.32-1,1.24,1.24,0,0,0-1-.33,1.59,1.59,0,0,0-.92.28,1.94,1.94,0,0,0-.62.74v4.52h-1.09V177Z" transform="translate(-10.99 -18)"/><path class="cls-1" d="M368.79,175.48V177H370v.84h-1.18v3.93a.94.94,0,0,0,.15.58.7.7,0,0,0,.54.19,3.27,3.27,0,0,0,.52-.07v.87a3.08,3.08,0,0,1-.83.12,1.37,1.37,0,0,1-1.1-.44,1.88,1.88,0,0,1-.37-1.25v-3.93h-1.15V177h1.15v-1.54Z" transform="translate(-10.99 -18)"/><path class="cls-1" d="M374.3,178a4.39,4.39,0,0,0-.53,0,1.42,1.42,0,0,0-1.45.91v4.5h-1.09V177h1.06l0,.73a1.69,1.69,0,0,1,1.51-.85,1.19,1.19,0,0,1,.48.08Z" transform="translate(-10.99 -18)"/><path class="cls-1" d="M377.81,183.48a2.79,2.79,0,0,1-2.09-.85,3.13,3.13,0,0,1-.81-2.26v-.2a3.85,3.85,0,0,1,.36-1.69,2.78,2.78,0,0,1,1-1.16,2.52,2.52,0,0,1,1.4-.42,2.36,2.36,0,0,1,1.92.82,3.5,3.5,0,0,1,.69,2.33v.45H376a2.29,2.29,0,0,0,.55,1.52,1.72,1.72,0,0,0,1.33.57,2,2,0,0,0,1-.23,2.7,2.7,0,0,0,.69-.62l.67.51A2.68,2.68,0,0,1,377.81,183.48Zm-.13-5.69a1.44,1.44,0,0,0-1.1.48,2.32,2.32,0,0,0-.55,1.34h3.17v-.08a2.08,2.08,0,0,0-.44-1.28A1.36,1.36,0,0,0,377.68,177.79Z" transform="translate(-10.99 -18)"/><path class="cls-1" d="M383.56,181.89l1.57-4.87h1.1L384,183.36h-.83L380.84,177H382Z" transform="translate(-10.99 -18)"/><path class="cls-1" d="M387.28,175.34a.69.69,0,0,1,.16-.45.73.73,0,0,1,1,0,.64.64,0,0,1,.17.45.64.64,0,0,1-.17.44.76.76,0,0,1-1,0A.68.68,0,0,1,387.28,175.34Zm1.18,8h-1.09V177h1.09Z" transform="translate(-10.99 -18)"/><path class="cls-1" d="M393.88,181.68a.8.8,0,0,0-.33-.68,3,3,0,0,0-1.15-.42,5.27,5.27,0,0,1-1.31-.43,1.86,1.86,0,0,1-.72-.58,1.45,1.45,0,0,1-.23-.81,1.65,1.65,0,0,1,.66-1.32,2.58,2.58,0,0,1,1.69-.54,2.66,2.66,0,0,1,1.75.56,1.79,1.79,0,0,1,.67,1.42h-1.09a1,1,0,0,0-.38-.76,1.39,1.39,0,0,0-.95-.33,1.49,1.49,0,0,0-.93.26.82.82,0,0,0-.33.68.66.66,0,0,0,.31.59,3.79,3.79,0,0,0,1.12.38,5.57,5.57,0,0,1,1.31.43,1.88,1.88,0,0,1,.75.61,1.48,1.48,0,0,1,.24.86,1.61,1.61,0,0,1-.67,1.36,2.84,2.84,0,0,1-1.77.52,3.19,3.19,0,0,1-1.35-.27,2.13,2.13,0,0,1-.91-.76,1.81,1.81,0,0,1-.33-1H391a1.09,1.09,0,0,0,.44.86,1.64,1.64,0,0,0,1.07.32,1.73,1.73,0,0,0,1-.25A.74.74,0,0,0,393.88,181.68Z" transform="translate(-10.99 -18)"/><path class="cls-1" d="M397.85,175.48V177H399v.84h-1.18v3.93a.87.87,0,0,0,.16.58.67.67,0,0,0,.53.19,3.27,3.27,0,0,0,.52-.07v.87a3,3,0,0,1-.83.12,1.37,1.37,0,0,1-1.1-.44,1.94,1.94,0,0,1-.37-1.25v-3.93h-1.15V177h1.15v-1.54Z" transform="translate(-10.99 -18)"/><path class="cls-1" d="M404.21,183.36a2.49,2.49,0,0,1-.15-.67,2.42,2.42,0,0,1-1.81.79,2.24,2.24,0,0,1-1.53-.53,1.73,1.73,0,0,1-.6-1.35,1.8,1.8,0,0,1,.75-1.54,3.59,3.59,0,0,1,2.12-.54H404V179a1.22,1.22,0,0,0-.34-.91,1.39,1.39,0,0,0-1-.33,1.53,1.53,0,0,0-1,.29.84.84,0,0,0-.4.71h-1.09a1.54,1.54,0,0,1,.34-.92,2.35,2.35,0,0,1,.92-.7,3.05,3.05,0,0,1,1.26-.26,2.54,2.54,0,0,1,1.72.55,2,2,0,0,1,.65,1.51v2.92a3.58,3.58,0,0,0,.22,1.39v.09Zm-1.8-.83a1.88,1.88,0,0,0,1-.26,1.62,1.62,0,0,0,.66-.69v-1.3h-.85c-1.33,0-2,.39-2,1.17a1,1,0,0,0,.34.8A1.32,1.32,0,0,0,402.41,182.53Z" transform="translate(-10.99 -18)"/><path class="cls-1" d="M406.56,180.14a3.71,3.71,0,0,1,.69-2.35,2.2,2.2,0,0,1,1.81-.89,2.25,2.25,0,0,1,1.77.76v-3.3h1.08v9h-1l-.05-.68a2.21,2.21,0,0,1-1.81.8,2.17,2.17,0,0,1-1.8-.91,3.75,3.75,0,0,1-.69-2.35Zm1.08.12a2.8,2.8,0,0,0,.45,1.69,1.46,1.46,0,0,0,1.23.61,1.59,1.59,0,0,0,1.51-.93v-2.91a1.61,1.61,0,0,0-1.5-.9,1.45,1.45,0,0,0-1.24.62A3.07,3.07,0,0,0,407.64,180.26Z" transform="translate(-10.99 -18)"/><path class="cls-1" d="M413.3,180.13a3.76,3.76,0,0,1,.37-1.67,2.73,2.73,0,0,1,1-1.15,2.78,2.78,0,0,1,1.49-.41,2.69,2.69,0,0,1,2.1.9,3.46,3.46,0,0,1,.8,2.38v.08a3.71,3.71,0,0,1-.36,1.66,2.69,2.69,0,0,1-1,1.15,2.86,2.86,0,0,1-1.52.41,2.67,2.67,0,0,1-2.09-.9,3.45,3.45,0,0,1-.8-2.37Zm1.09.13a2.74,2.74,0,0,0,.49,1.69,1.66,1.66,0,0,0,2.63,0,3,3,0,0,0,.48-1.81,2.71,2.71,0,0,0-.49-1.69,1.58,1.58,0,0,0-1.32-.65,1.56,1.56,0,0,0-1.29.64A3,3,0,0,0,414.39,180.26Z" transform="translate(-10.99 -18)"/><rect class="cls-2" x="229.33" y="134.5" width="84" height="38"/><rect class="cls-2" x="128.25" y="134.5" width="84" height="38"/><rect class="cls-2" x="330.25" y="134.5" width="84" height="38"/><rect class="cls-3" x="183.29" y="48.24" width="174" height="24"/><rect class="cls-3" y="48.24" width="174" height="24"/><path class="cls-4" d="M31.15,76.78H27.46v3h4.29v.92H26.33V72.19h5.36v.92H27.46v2.75h3.69Z" transform="translate(-10.99 -18)"/><path class="cls-4" d="M36.05,75.35a4.41,4.41,0,0,0-.54,0,1.41,1.41,0,0,0-1.44.91v4.5H33V74.38H34v.73a1.71,1.71,0,0,1,1.52-.85,1.19,1.19,0,0,1,.48.08Z" transform="translate(-10.99 -18)"/><path class="cls-4" d="M40.11,75.35a4.41,4.41,0,0,0-.54,0,1.41,1.41,0,0,0-1.44.91v4.5H37V74.38H38.1l0,.73a1.68,1.68,0,0,1,1.51-.85,1.19,1.19,0,0,1,.48.08Z" transform="translate(-10.99 -18)"/><path class="cls-4" d="M40.7,77.49a3.63,3.63,0,0,1,.37-1.67,2.71,2.71,0,0,1,1-1.15,2.81,2.81,0,0,1,1.5-.41,2.66,2.66,0,0,1,2.09.9,3.46,3.46,0,0,1,.8,2.38v.08a3.85,3.85,0,0,1-.35,1.66,2.78,2.78,0,0,1-1,1.15,2.82,2.82,0,0,1-1.51.41,2.66,2.66,0,0,1-2.09-.9,3.45,3.45,0,0,1-.8-2.37Zm1.09.13a2.67,2.67,0,0,0,.49,1.69,1.55,1.55,0,0,0,1.31.64,1.53,1.53,0,0,0,1.31-.65,3,3,0,0,0,.49-1.81,2.72,2.72,0,0,0-.5-1.69,1.64,1.64,0,0,0-2.61,0A3,3,0,0,0,41.79,77.62Z" transform="translate(-10.99 -18)"/><path class="cls-4" d="M50.89,75.35a4.24,4.24,0,0,0-.53,0,1.43,1.43,0,0,0-1.45.91v4.5H47.83V74.38h1.05l0,.73a1.71,1.71,0,0,1,1.51-.85,1.12,1.12,0,0,1,.48.08Z" transform="translate(-10.99 -18)"/><path class="cls-4" d="M54.6,77.5a3.71,3.71,0,0,1,.69-2.35,2.19,2.19,0,0,1,1.81-.89,2.21,2.21,0,0,1,1.76.76v-3.3H60v9H59L58.9,80a2.23,2.23,0,0,1-1.81.8,2.15,2.15,0,0,1-1.8-.91,3.75,3.75,0,0,1-.69-2.35Zm1.08.12a2.8,2.8,0,0,0,.45,1.69,1.44,1.44,0,0,0,1.23.61,1.57,1.57,0,0,0,1.5-.93V76.08a1.58,1.58,0,0,0-1.49-.9,1.44,1.44,0,0,0-1.24.62A3.07,3.07,0,0,0,55.68,77.62Z" transform="translate(-10.99 -18)"/><path class="cls-4" d="M64.26,80.84a2.79,2.79,0,0,1-2.1-.85,3.13,3.13,0,0,1-.81-2.26v-.2a3.85,3.85,0,0,1,.36-1.69,2.86,2.86,0,0,1,1-1.16,2.53,2.53,0,0,1,1.41-.42,2.36,2.36,0,0,1,1.92.82,3.56,3.56,0,0,1,.68,2.33v.45H62.44A2.24,2.24,0,0,0,63,79.38a1.71,1.71,0,0,0,1.33.57,1.93,1.93,0,0,0,1-.23,2.58,2.58,0,0,0,.7-.62l.66.51A2.66,2.66,0,0,1,64.26,80.84Zm-.13-5.69a1.46,1.46,0,0,0-1.11.48A2.39,2.39,0,0,0,62.47,77h3.18v-.08a2,2,0,0,0-.45-1.28A1.32,1.32,0,0,0,64.13,75.15Z" transform="translate(-10.99 -18)"/><path class="cls-4" d="M72,74.38l0,.7a2.35,2.35,0,0,1,1.88-.82,1.82,1.82,0,0,1,1.81,1,2.44,2.44,0,0,1,.82-.74,2.53,2.53,0,0,1,1.2-.28c1.39,0,2.1.74,2.12,2.21v4.25H78.76V76.54a1.48,1.48,0,0,0-.31-1,1.37,1.37,0,0,0-1-.34,1.4,1.4,0,0,0-1.46,1.33v4.21H74.85V76.57a1.21,1.21,0,0,0-1.36-1.39,1.45,1.45,0,0,0-1.45.91v4.63H71V74.38Z" transform="translate(-10.99 -18)"/><path class="cls-4" d="M85.39,80.09a2.29,2.29,0,0,1-1.86.75A2,2,0,0,1,82,80.25a2.56,2.56,0,0,1-.54-1.75V74.38h1.09v4.1q0,1.44,1.17,1.44A1.61,1.61,0,0,0,85.36,79V74.38h1.08v6.34h-1Z" transform="translate(-10.99 -18)"/><path class="cls-4" d="M90.72,80.84a2.79,2.79,0,0,1-2.1-.85,3.13,3.13,0,0,1-.81-2.26v-.2a3.85,3.85,0,0,1,.36-1.69,2.93,2.93,0,0,1,1-1.16,2.53,2.53,0,0,1,1.41-.42,2.36,2.36,0,0,1,1.92.82,3.56,3.56,0,0,1,.68,2.33v.45H88.9a2.24,2.24,0,0,0,.55,1.52,1.72,1.72,0,0,0,1.33.57,1.93,1.93,0,0,0,1-.23,2.58,2.58,0,0,0,.7-.62l.66.51A2.66,2.66,0,0,1,90.72,80.84Zm-.13-5.69a1.46,1.46,0,0,0-1.11.48A2.39,2.39,0,0,0,88.93,77h3.18v-.08a2,2,0,0,0-.45-1.28A1.32,1.32,0,0,0,90.59,75.15Z" transform="translate(-10.99 -18)"/><path class="cls-4" d="M98.14,79a.8.8,0,0,0-.33-.68,3,3,0,0,0-1.16-.42,5.18,5.18,0,0,1-1.3-.43,1.79,1.79,0,0,1-.72-.58,1.45,1.45,0,0,1-.23-.81,1.65,1.65,0,0,1,.66-1.32,2.57,2.57,0,0,1,1.68-.54,2.64,2.64,0,0,1,1.75.56,1.76,1.76,0,0,1,.67,1.42H98.07a1,1,0,0,0-.37-.76,1.42,1.42,0,0,0-1-.33,1.48,1.48,0,0,0-.92.26.82.82,0,0,0-.34.67.68.68,0,0,0,.31.6,4,4,0,0,0,1.13.38,5.57,5.57,0,0,1,1.31.43,1.88,1.88,0,0,1,.75.61,1.48,1.48,0,0,1,.24.86,1.59,1.59,0,0,1-.68,1.36,2.79,2.79,0,0,1-1.76.52,3.19,3.19,0,0,1-1.35-.27,2.22,2.22,0,0,1-.92-.76,1.81,1.81,0,0,1-.33-1h1.09a1.11,1.11,0,0,0,.43.86,1.67,1.67,0,0,0,1.08.32,1.73,1.73,0,0,0,1-.25A.76.76,0,0,0,98.14,79Z" transform="translate(-10.99 -18)"/><path class="cls-4" d="M102.11,72.84v1.54h1.18v.84h-1.18v3.93a.94.94,0,0,0,.15.58.7.7,0,0,0,.54.19,3.27,3.27,0,0,0,.52-.07v.87a3.08,3.08,0,0,1-.83.12,1.37,1.37,0,0,1-1.1-.44,1.88,1.88,0,0,1-.37-1.25V75.22H99.87v-.84H101V72.84Z" transform="translate(-10.99 -18)"/><path class="cls-4" d="M107.62,75.35a4.24,4.24,0,0,0-.53,0,1.43,1.43,0,0,0-1.45.91v4.5h-1.09V74.38h1.06l0,.73a1.69,1.69,0,0,1,1.51-.85,1.19,1.19,0,0,1,.48.08Z" transform="translate(-10.99 -18)"/><path class="cls-4" d="M111.13,80.84A2.79,2.79,0,0,1,109,80a3.13,3.13,0,0,1-.81-2.26v-.2a3.85,3.85,0,0,1,.36-1.69,2.86,2.86,0,0,1,1-1.16,2.52,2.52,0,0,1,1.4-.42,2.36,2.36,0,0,1,1.92.82,3.5,3.5,0,0,1,.69,2.33v.45h-4.3a2.29,2.29,0,0,0,.55,1.52,1.72,1.72,0,0,0,1.33.57,2,2,0,0,0,1-.23,2.7,2.7,0,0,0,.69-.62l.67.51A2.68,2.68,0,0,1,111.13,80.84ZM111,75.15a1.44,1.44,0,0,0-1.1.48,2.32,2.32,0,0,0-.55,1.34h3.17v-.08a2.08,2.08,0,0,0-.44-1.28A1.36,1.36,0,0,0,111,75.15Z" transform="translate(-10.99 -18)"/><path class="cls-4" d="M114.57,77.49a3.76,3.76,0,0,1,.37-1.67,2.66,2.66,0,0,1,1-1.15,2.78,2.78,0,0,1,1.49-.41,2.69,2.69,0,0,1,2.1.9,3.46,3.46,0,0,1,.8,2.38v.08a3.71,3.71,0,0,1-.36,1.66,2.76,2.76,0,0,1-1,1.15,2.86,2.86,0,0,1-1.52.41,2.67,2.67,0,0,1-2.09-.9,3.45,3.45,0,0,1-.8-2.37Zm1.09.13a2.74,2.74,0,0,0,.49,1.69,1.66,1.66,0,0,0,2.63,0,3,3,0,0,0,.48-1.81,2.71,2.71,0,0,0-.49-1.69,1.58,1.58,0,0,0-1.32-.65,1.56,1.56,0,0,0-1.29.64A3,3,0,0,0,115.66,77.62Z" transform="translate(-10.99 -18)"/><path class="cls-4" d="M128.59,80.72a2.49,2.49,0,0,1-.15-.67,2.42,2.42,0,0,1-1.81.79,2.29,2.29,0,0,1-1.54-.53,1.74,1.74,0,0,1-.6-1.35,1.81,1.81,0,0,1,.76-1.54,3.59,3.59,0,0,1,2.12-.54h1v-.5a1.22,1.22,0,0,0-.34-.91,1.39,1.39,0,0,0-1-.33,1.53,1.53,0,0,0-1,.29.84.84,0,0,0-.4.71h-1.09a1.54,1.54,0,0,1,.34-.92,2.31,2.31,0,0,1,.91-.7,3.13,3.13,0,0,1,1.27-.26,2.54,2.54,0,0,1,1.72.55,2,2,0,0,1,.64,1.51v2.92a3.56,3.56,0,0,0,.23,1.39v.09Zm-1.8-.83a1.88,1.88,0,0,0,1-.26,1.62,1.62,0,0,0,.66-.69v-1.3h-.85c-1.33,0-2,.39-2,1.17a1,1,0,0,0,.34.8A1.3,1.3,0,0,0,126.79,79.89Z" transform="translate(-10.99 -18)"/><path class="cls-4" d="M132.38,80.72H131.3v-9h1.08Z" transform="translate(-10.99 -18)"/><path class="cls-4" d="M136.75,80.84a2.79,2.79,0,0,1-2.1-.85,3.13,3.13,0,0,1-.81-2.26v-.2a3.85,3.85,0,0,1,.36-1.69,2.86,2.86,0,0,1,1-1.16,2.52,2.52,0,0,1,1.4-.42,2.34,2.34,0,0,1,1.92.82,3.5,3.5,0,0,1,.69,2.33v.45h-4.3a2.29,2.29,0,0,0,.55,1.52,1.74,1.74,0,0,0,1.33.57,2,2,0,0,0,1-.23,2.54,2.54,0,0,0,.69-.62l.67.51A2.66,2.66,0,0,1,136.75,80.84Zm-.14-5.69a1.44,1.44,0,0,0-1.1.48A2.32,2.32,0,0,0,135,77h3.17v-.08a2,2,0,0,0-.44-1.28A1.36,1.36,0,0,0,136.61,75.15Z" transform="translate(-10.99 -18)"/><path class="cls-4" d="M144.39,80.72a2.09,2.09,0,0,1-.16-.67,2.38,2.38,0,0,1-1.8.79,2.25,2.25,0,0,1-1.54-.53,1.74,1.74,0,0,1-.6-1.35,1.8,1.8,0,0,1,.75-1.54,3.61,3.61,0,0,1,2.12-.54h1.06v-.5a1.26,1.26,0,0,0-.34-.91,1.39,1.39,0,0,0-1-.33,1.56,1.56,0,0,0-1,.29.86.86,0,0,0-.39.71h-1.09a1.48,1.48,0,0,1,.34-.92,2.31,2.31,0,0,1,.91-.7,3.13,3.13,0,0,1,1.27-.26,2.55,2.55,0,0,1,1.72.55,2,2,0,0,1,.64,1.51v2.92a3.78,3.78,0,0,0,.22,1.39v.09Zm-1.8-.83a1.82,1.82,0,0,0,1-.26,1.59,1.59,0,0,0,.67-.69v-1.3h-.85c-1.33,0-2,.39-2,1.17a1,1,0,0,0,.33.8A1.33,1.33,0,0,0,142.59,79.89Z" transform="translate(-10.99 -18)"/><path class="cls-4" d="M148.47,72.84v1.54h1.18v.84h-1.18v3.93a.87.87,0,0,0,.16.58.68.68,0,0,0,.54.19,3.32,3.32,0,0,0,.51-.07v.87a3,3,0,0,1-.83.12,1.34,1.34,0,0,1-1.09-.44,1.88,1.88,0,0,1-.37-1.25V75.22h-1.16v-.84h1.16V72.84Z" transform="translate(-10.99 -18)"/><path class="cls-4" d="M150.52,77.49a3.76,3.76,0,0,1,.36-1.67,2.71,2.71,0,0,1,2.51-1.56,2.68,2.68,0,0,1,2.1.9,3.46,3.46,0,0,1,.8,2.38v.08a3.71,3.71,0,0,1-.36,1.66,2.69,2.69,0,0,1-1,1.15,2.86,2.86,0,0,1-1.52.41,2.64,2.64,0,0,1-2.08-.9,3.4,3.4,0,0,1-.8-2.37Zm1.09.13a2.73,2.73,0,0,0,.48,1.69,1.57,1.57,0,0,0,1.31.64,1.55,1.55,0,0,0,1.32-.65,3,3,0,0,0,.48-1.81,2.71,2.71,0,0,0-.49-1.69,1.64,1.64,0,0,0-2.61,0A3,3,0,0,0,151.61,77.62Z" transform="translate(-10.99 -18)"/><path class="cls-4" d="M160.71,75.35a4.24,4.24,0,0,0-.53,0,1.43,1.43,0,0,0-1.45.91v4.5h-1.08V74.38h1l0,.73a1.69,1.69,0,0,1,1.51-.85,1.19,1.19,0,0,1,.48.08Z" transform="translate(-10.99 -18)"/><path class="cls-4" d="M161.71,72.7a.69.69,0,0,1,.16-.45.73.73,0,0,1,1,0,.64.64,0,0,1,.17.45.64.64,0,0,1-.17.44.76.76,0,0,1-1,0A.68.68,0,0,1,161.71,72.7Zm1.17,8H161.8V74.38h1.08Z" transform="translate(-10.99 -18)"/><path class="cls-4" d="M164.33,77.49a3.63,3.63,0,0,1,.37-1.67,2.66,2.66,0,0,1,1-1.15,2.75,2.75,0,0,1,1.49-.41,2.66,2.66,0,0,1,2.09.9,3.41,3.41,0,0,1,.8,2.38v.08a3.71,3.71,0,0,1-.35,1.66,2.83,2.83,0,0,1-1,1.15,2.86,2.86,0,0,1-1.52.41,2.67,2.67,0,0,1-2.09-.9,3.45,3.45,0,0,1-.8-2.37Zm1.09.13a2.67,2.67,0,0,0,.49,1.69,1.56,1.56,0,0,0,1.31.64,1.53,1.53,0,0,0,1.31-.65,2.91,2.91,0,0,0,.49-1.81,2.72,2.72,0,0,0-.5-1.69,1.64,1.64,0,0,0-2.61,0A3,3,0,0,0,165.42,77.62Z" transform="translate(-10.99 -18)"/><path class="cls-4" d="M206.62,76.78h-3.69v3h4.29v.92H201.8V72.19h5.36v.92h-4.23v2.75h3.69Z" transform="translate(-10.99 -18)"/><path class="cls-4" d="M211.52,75.35a4.56,4.56,0,0,0-.54,0,1.41,1.41,0,0,0-1.44.91v4.5h-1.09V74.38h1.06v.73a1.71,1.71,0,0,1,1.52-.85,1.19,1.19,0,0,1,.48.08Z" transform="translate(-10.99 -18)"/><path class="cls-4" d="M215.58,75.35a4.41,4.41,0,0,0-.54,0,1.41,1.41,0,0,0-1.44.91v4.5h-1.09V74.38h1.06v.73a1.71,1.71,0,0,1,1.52-.85,1.19,1.19,0,0,1,.48.08Z" transform="translate(-10.99 -18)"/><path class="cls-4" d="M216.17,77.49a3.63,3.63,0,0,1,.37-1.67,2.71,2.71,0,0,1,1-1.15,2.81,2.81,0,0,1,1.5-.41,2.66,2.66,0,0,1,2.09.9,3.46,3.46,0,0,1,.8,2.38v.08a3.85,3.85,0,0,1-.35,1.66,2.78,2.78,0,0,1-1,1.15,2.82,2.82,0,0,1-1.51.41,2.66,2.66,0,0,1-2.09-.9,3.45,3.45,0,0,1-.8-2.37Zm1.09.13a2.67,2.67,0,0,0,.49,1.69,1.55,1.55,0,0,0,1.31.64,1.53,1.53,0,0,0,1.31-.65,3,3,0,0,0,.49-1.81,2.72,2.72,0,0,0-.5-1.69,1.64,1.64,0,0,0-2.61,0A3,3,0,0,0,217.26,77.62Z" transform="translate(-10.99 -18)"/><path class="cls-4" d="M226.36,75.35a4.24,4.24,0,0,0-.53,0,1.43,1.43,0,0,0-1.45.91v4.5H223.3V74.38h1l0,.73a1.71,1.71,0,0,1,1.51-.85,1.19,1.19,0,0,1,.48.08Z" transform="translate(-10.99 -18)"/><path class="cls-4" d="M231.36,74.38l0,.8a2.33,2.33,0,0,1,1.9-.92c1.34,0,2,.76,2,2.27v4.19h-1.09v-4.2a1.42,1.42,0,0,0-.31-1,1.25,1.25,0,0,0-1-.33,1.59,1.59,0,0,0-.92.28,1.86,1.86,0,0,0-.62.74v4.52h-1.09V74.38Z" transform="translate(-10.99 -18)"/><path class="cls-4" d="M236.67,77.49a3.76,3.76,0,0,1,.36-1.67,2.71,2.71,0,0,1,2.51-1.56,2.68,2.68,0,0,1,2.1.9,3.46,3.46,0,0,1,.8,2.38v.08a3.71,3.71,0,0,1-.36,1.66,2.69,2.69,0,0,1-1,1.15,2.86,2.86,0,0,1-1.52.41,2.67,2.67,0,0,1-2.09-.9,3.45,3.45,0,0,1-.79-2.37Zm1.08.13a2.74,2.74,0,0,0,.49,1.69,1.66,1.66,0,0,0,2.63,0,3,3,0,0,0,.48-1.81,2.71,2.71,0,0,0-.49-1.69,1.64,1.64,0,0,0-2.61,0A3,3,0,0,0,237.75,77.62Z" transform="translate(-10.99 -18)"/><path class="cls-4" d="M250.68,80.72a2.49,2.49,0,0,1-.15-.67,2.42,2.42,0,0,1-1.81.79,2.24,2.24,0,0,1-1.53-.53,1.75,1.75,0,0,1-.61-1.35,1.81,1.81,0,0,1,.76-1.54,3.59,3.59,0,0,1,2.12-.54h1v-.5a1.22,1.22,0,0,0-.34-.91,1.39,1.39,0,0,0-1-.33,1.53,1.53,0,0,0-1,.29.84.84,0,0,0-.4.71h-1.09a1.54,1.54,0,0,1,.34-.92,2.39,2.39,0,0,1,.91-.7,3.13,3.13,0,0,1,1.27-.26,2.54,2.54,0,0,1,1.72.55,2,2,0,0,1,.64,1.51v2.92a3.56,3.56,0,0,0,.23,1.39v.09Zm-1.8-.83a1.88,1.88,0,0,0,1-.26,1.62,1.62,0,0,0,.66-.69v-1.3h-.85c-1.33,0-2,.39-2,1.17a1,1,0,0,0,.34.8A1.32,1.32,0,0,0,248.88,79.89Z" transform="translate(-10.99 -18)"/><path class="cls-4" d="M254.76,72.84v1.54H256v.84h-1.19v3.93a.93.93,0,0,0,.16.58.7.7,0,0,0,.54.19,3.27,3.27,0,0,0,.52-.07v.87a3.08,3.08,0,0,1-.83.12,1.37,1.37,0,0,1-1.1-.44,1.88,1.88,0,0,1-.37-1.25V75.22h-1.15v-.84h1.15V72.84Z" transform="translate(-10.99 -18)"/><path class="cls-4" d="M260.28,75.35a4.39,4.39,0,0,0-.53,0,1.42,1.42,0,0,0-1.45.91v4.5h-1.09V74.38h1.06l0,.73a1.69,1.69,0,0,1,1.51-.85,1.19,1.19,0,0,1,.48.08Z" transform="translate(-10.99 -18)"/><path class="cls-4" d="M261.28,72.7a.64.64,0,0,1,.16-.45.73.73,0,0,1,1,0,.64.64,0,0,1,.16.45.63.63,0,0,1-.16.44.76.76,0,0,1-1,0A.63.63,0,0,1,261.28,72.7Zm1.17,8h-1.08V74.38h1.08Z" transform="translate(-10.99 -18)"/><path class="cls-4" d="M269.55,77.62a3.82,3.82,0,0,1-.66,2.34,2.17,2.17,0,0,1-1.8.88,2.2,2.2,0,0,1-1.85-.85l-.06.73h-1v-9h1.08v3.36a2.18,2.18,0,0,1,1.81-.82,2.11,2.11,0,0,1,1.81.88,3.86,3.86,0,0,1,.66,2.39Zm-1.08-.12a2.88,2.88,0,0,0-.43-1.71,1.39,1.39,0,0,0-1.23-.61,1.59,1.59,0,0,0-1.54,1v2.74a1.64,1.64,0,0,0,1.55,1,1.41,1.41,0,0,0,1.22-.61A3.08,3.08,0,0,0,268.47,77.5Z" transform="translate(-10.99 -18)"/><path class="cls-4" d="M274.83,80.09a2.28,2.28,0,0,1-1.85.75,2,2,0,0,1-1.55-.59,2.56,2.56,0,0,1-.53-1.75V74.38H272v4.1q0,1.44,1.17,1.44A1.61,1.61,0,0,0,274.8,79V74.38h1.09v6.34h-1Z" transform="translate(-10.99 -18)"/><path class="cls-4" d="M277.54,72.7a.64.64,0,0,1,.16-.45.73.73,0,0,1,1,0,.64.64,0,0,1,.16.45.63.63,0,0,1-.16.44.76.76,0,0,1-1,0A.63.63,0,0,1,277.54,72.7Zm1.17,8h-1.08V74.38h1.08Z" transform="translate(-10.99 -18)"/><path class="cls-4" d="M285.81,77.62a3.82,3.82,0,0,1-.66,2.34,2.17,2.17,0,0,1-1.8.88A2.2,2.2,0,0,1,281.5,80l-.06.73h-1v-9h1.08v3.36a2.18,2.18,0,0,1,1.81-.82,2.13,2.13,0,0,1,1.81.88,3.86,3.86,0,0,1,.66,2.39Zm-1.08-.12a2.88,2.88,0,0,0-.43-1.71,1.39,1.39,0,0,0-1.23-.61,1.59,1.59,0,0,0-1.54,1v2.74a1.64,1.64,0,0,0,1.55,1,1.41,1.41,0,0,0,1.22-.61A3.16,3.16,0,0,0,284.73,77.5Z" transform="translate(-10.99 -18)"/><path class="cls-4" d="M288.36,80.72h-1.09v-9h1.09Z" transform="translate(-10.99 -18)"/><path class="cls-4" d="M292.72,80.84a2.79,2.79,0,0,1-2.1-.85,3.12,3.12,0,0,1-.8-2.26v-.2a3.85,3.85,0,0,1,.36-1.69,2.83,2.83,0,0,1,1-1.16,2.56,2.56,0,0,1,1.41-.42,2.36,2.36,0,0,1,1.92.82,3.5,3.5,0,0,1,.68,2.33v.45H290.9a2.29,2.29,0,0,0,.55,1.52,1.72,1.72,0,0,0,1.33.57,1.93,1.93,0,0,0,1-.23,2.58,2.58,0,0,0,.7-.62l.66.51A2.66,2.66,0,0,1,292.72,80.84Zm-.13-5.69a1.43,1.43,0,0,0-1.1.48,2.32,2.32,0,0,0-.56,1.34h3.18v-.08a2.08,2.08,0,0,0-.44-1.28A1.36,1.36,0,0,0,292.59,75.15Z" transform="translate(-10.99 -18)"/><path class="cls-4" d="M303.33,80.72a2.49,2.49,0,0,1-.15-.67,2.38,2.38,0,0,1-1.8.79,2.25,2.25,0,0,1-1.54-.53,1.74,1.74,0,0,1-.6-1.35,1.8,1.8,0,0,1,.75-1.54,3.59,3.59,0,0,1,2.12-.54h1.05v-.5a1.22,1.22,0,0,0-.34-.91,1.37,1.37,0,0,0-1-.33,1.53,1.53,0,0,0-1,.29.86.86,0,0,0-.39.71h-1.09a1.53,1.53,0,0,1,.33-.92,2.35,2.35,0,0,1,.92-.7,3.07,3.07,0,0,1,1.27-.26,2.51,2.51,0,0,1,1.71.55,2,2,0,0,1,.65,1.51v2.92a3.58,3.58,0,0,0,.22,1.39v.09Zm-1.8-.83a1.86,1.86,0,0,0,1-.26,1.51,1.51,0,0,0,.66-.69v-1.3h-.85c-1.32,0-2,.39-2,1.17a1,1,0,0,0,.34.8A1.32,1.32,0,0,0,301.53,79.89Z" transform="translate(-10.99 -18)"/><path class="cls-4" d="M307.12,80.72H306v-9h1.08Z" transform="translate(-10.99 -18)"/><path class="cls-4" d="M312.85,74.38l0,.7a2.35,2.35,0,0,1,1.88-.82,1.81,1.81,0,0,1,1.81,1,2.44,2.44,0,0,1,.82-.74,2.53,2.53,0,0,1,1.2-.28c1.39,0,2.1.74,2.12,2.21v4.25h-1.08V76.54a1.48,1.48,0,0,0-.31-1,1.37,1.37,0,0,0-1.05-.34,1.44,1.44,0,0,0-1,.36,1.49,1.49,0,0,0-.46,1v4.21h-1.09V76.57a1.21,1.21,0,0,0-1.35-1.39,1.46,1.46,0,0,0-1.46.91v4.63h-1.09V74.38Z" transform="translate(-10.99 -18)"/><path class="cls-4" d="M326.26,80.09a2.29,2.29,0,0,1-1.86.75,2,2,0,0,1-1.54-.59,2.61,2.61,0,0,1-.54-1.75V74.38h1.09v4.1q0,1.44,1.17,1.44a1.61,1.61,0,0,0,1.65-.93V74.38h1.09v6.34h-1Z" transform="translate(-10.99 -18)"/><path class="cls-4" d="M331.59,80.84A2.76,2.76,0,0,1,329.5,80a3.13,3.13,0,0,1-.81-2.26v-.2a3.85,3.85,0,0,1,.36-1.69,2.83,2.83,0,0,1,1-1.16,2.56,2.56,0,0,1,1.41-.42,2.36,2.36,0,0,1,1.92.82,3.5,3.5,0,0,1,.69,2.33v.45h-4.3a2.29,2.29,0,0,0,.55,1.52,1.72,1.72,0,0,0,1.33.57,1.93,1.93,0,0,0,1-.23,2.58,2.58,0,0,0,.7-.62l.66.51A2.65,2.65,0,0,1,331.59,80.84Zm-.13-5.69a1.43,1.43,0,0,0-1.1.48,2.32,2.32,0,0,0-.55,1.34H333v-.08a2.08,2.08,0,0,0-.44-1.28A1.36,1.36,0,0,0,331.46,75.15Z" transform="translate(-10.99 -18)"/><path class="cls-4" d="M339,79a.8.8,0,0,0-.33-.68,3,3,0,0,0-1.15-.42,5.27,5.27,0,0,1-1.31-.43,1.86,1.86,0,0,1-.72-.58,1.45,1.45,0,0,1-.23-.81,1.65,1.65,0,0,1,.66-1.32,2.58,2.58,0,0,1,1.69-.54,2.68,2.68,0,0,1,1.75.56,1.79,1.79,0,0,1,.67,1.42H339a1,1,0,0,0-.38-.76,1.39,1.39,0,0,0-.95-.33,1.49,1.49,0,0,0-.93.26.82.82,0,0,0-.33.67.66.66,0,0,0,.31.6,3.79,3.79,0,0,0,1.12.38,5.57,5.57,0,0,1,1.31.43,1.88,1.88,0,0,1,.75.61,1.48,1.48,0,0,1,.24.86,1.61,1.61,0,0,1-.67,1.36,2.84,2.84,0,0,1-1.77.52,3.19,3.19,0,0,1-1.35-.27,2.13,2.13,0,0,1-.91-.76,1.81,1.81,0,0,1-.33-1h1.08a1.09,1.09,0,0,0,.44.86,1.64,1.64,0,0,0,1.07.32,1.73,1.73,0,0,0,1-.25A.74.74,0,0,0,339,79Z" transform="translate(-10.99 -18)"/><path class="cls-4" d="M343,72.84v1.54h1.18v.84H343v3.93a.87.87,0,0,0,.16.58.67.67,0,0,0,.53.19,3.27,3.27,0,0,0,.52-.07v.87a3,3,0,0,1-.83.12,1.37,1.37,0,0,1-1.1-.44,1.94,1.94,0,0,1-.37-1.25V75.22h-1.15v-.84h1.15V72.84Z" transform="translate(-10.99 -18)"/><path class="cls-4" d="M348.49,75.35a4.24,4.24,0,0,0-.53,0,1.43,1.43,0,0,0-1.45.91v4.5h-1.08V74.38h1.05l0,.73a1.69,1.69,0,0,1,1.51-.85,1.19,1.19,0,0,1,.48.08Z" transform="translate(-10.99 -18)"/><path class="cls-4" d="M352,80.84a2.79,2.79,0,0,1-2.1-.85,3.13,3.13,0,0,1-.81-2.26v-.2a3.85,3.85,0,0,1,.36-1.69,2.86,2.86,0,0,1,1-1.16,2.52,2.52,0,0,1,1.4-.42,2.34,2.34,0,0,1,1.92.82,3.5,3.5,0,0,1,.69,2.33v.45h-4.3a2.29,2.29,0,0,0,.55,1.52,1.75,1.75,0,0,0,1.34.57,2,2,0,0,0,1-.23,2.74,2.74,0,0,0,.7-.62l.66.51A2.66,2.66,0,0,1,352,80.84Zm-.14-5.69a1.44,1.44,0,0,0-1.1.48,2.32,2.32,0,0,0-.55,1.34h3.18v-.08a2.09,2.09,0,0,0-.45-1.28A1.34,1.34,0,0,0,351.87,75.15Z" transform="translate(-10.99 -18)"/><path class="cls-4" d="M355.45,77.49a3.76,3.76,0,0,1,.36-1.67,2.71,2.71,0,0,1,2.51-1.56,2.68,2.68,0,0,1,2.1.9,3.46,3.46,0,0,1,.8,2.38v.08a3.71,3.71,0,0,1-.36,1.66,2.69,2.69,0,0,1-1,1.15,2.83,2.83,0,0,1-1.52.41,2.65,2.65,0,0,1-2.08-.9,3.4,3.4,0,0,1-.8-2.37Zm1.09.13a2.67,2.67,0,0,0,.49,1.69,1.65,1.65,0,0,0,2.62,0,3,3,0,0,0,.48-1.81,2.71,2.71,0,0,0-.49-1.69,1.64,1.64,0,0,0-2.61,0A3,3,0,0,0,356.54,77.62Z" transform="translate(-10.99 -18)"/><polygon class="cls-5" points="265.21 74 276.21 74 270.71 80.5 265.21 74"/><path class="cls-1" d="M32.21,118H28.52v3h4.29V122H27.39v-8.53h5.36v.92H28.52v2.75h3.69Z" transform="translate(-10.99 -18)"/><path class="cls-1" d="M37.11,116.6a4.56,4.56,0,0,0-.54,0,1.41,1.41,0,0,0-1.44.91V122H34v-6.34H35.1v.73a1.71,1.71,0,0,1,1.52-.85,1,1,0,0,1,.48.09Z" transform="translate(-10.99 -18)"/><path class="cls-1" d="M41.17,116.6a4.56,4.56,0,0,0-.54,0,1.41,1.41,0,0,0-1.44.91V122H38.1v-6.34h1.06v.73a1.71,1.71,0,0,1,1.52-.85,1,1,0,0,1,.48.09Z" transform="translate(-10.99 -18)"/><path class="cls-1" d="M41.76,118.74a3.76,3.76,0,0,1,.36-1.67,2.71,2.71,0,0,1,2.51-1.56,2.67,2.67,0,0,1,2.1.9,3.46,3.46,0,0,1,.8,2.38v.08a3.71,3.71,0,0,1-.36,1.66,2.69,2.69,0,0,1-1,1.15,2.82,2.82,0,0,1-1.51.41,2.66,2.66,0,0,1-2.09-.9,3.4,3.4,0,0,1-.8-2.37Zm1.09.13a2.67,2.67,0,0,0,.49,1.69,1.66,1.66,0,0,0,2.62,0,3,3,0,0,0,.49-1.82,2.72,2.72,0,0,0-.5-1.69,1.64,1.64,0,0,0-2.61,0A3,3,0,0,0,42.85,118.87Z" transform="translate(-10.99 -18)"/><path class="cls-1" d="M52,116.6a4.24,4.24,0,0,0-.53,0,1.43,1.43,0,0,0-1.45.91V122H48.89v-6.34h1l0,.73a1.71,1.71,0,0,1,1.51-.85,1,1,0,0,1,.48.09Z" transform="translate(-10.99 -18)"/><path class="cls-1" d="M61.28,118.87a3.79,3.79,0,0,1-.67,2.33,2.12,2.12,0,0,1-1.79.89,2.34,2.34,0,0,1-1.82-.74v3.06H55.92v-8.78h1l.05.7a2.26,2.26,0,0,1,1.84-.82,2.17,2.17,0,0,1,1.81.86,3.89,3.89,0,0,1,.67,2.4Zm-1.09-.12a2.79,2.79,0,0,0-.46-1.7,1.47,1.47,0,0,0-1.25-.62,1.59,1.59,0,0,0-1.48.88v3a1.61,1.61,0,0,0,1.49.86,1.45,1.45,0,0,0,1.24-.62A3,3,0,0,0,60.19,118.75Z" transform="translate(-10.99 -18)"/><path class="cls-1" d="M62.37,118.74a3.76,3.76,0,0,1,.36-1.67,2.71,2.71,0,0,1,2.51-1.56,2.68,2.68,0,0,1,2.1.9,3.46,3.46,0,0,1,.8,2.38v.08a3.71,3.71,0,0,1-.36,1.66,2.69,2.69,0,0,1-1,1.15,2.86,2.86,0,0,1-1.52.41,2.64,2.64,0,0,1-2.08-.9,3.4,3.4,0,0,1-.8-2.37Zm1.09.13a2.73,2.73,0,0,0,.48,1.69,1.67,1.67,0,0,0,2.63,0,3,3,0,0,0,.48-1.82,2.71,2.71,0,0,0-.49-1.69A1.64,1.64,0,0,0,64,117,3,3,0,0,0,63.46,118.87Z" transform="translate(-10.99 -18)"/><path class="cls-1" d="M72.56,116.6a4.24,4.24,0,0,0-.53,0,1.43,1.43,0,0,0-1.45.91V122H69.5v-6.34h1l0,.73a1.69,1.69,0,0,1,1.51-.85,1,1,0,0,1,.48.09Z" transform="translate(-10.99 -18)"/><path class="cls-1" d="M77.06,122v-5.5h-1v-.84h1V115a2.14,2.14,0,0,1,.55-1.58,2,2,0,0,1,1.54-.55,2.69,2.69,0,0,1,.74.1l-.06.87a2.72,2.72,0,0,0-.58,0,1,1,0,0,0-.82.31,1.24,1.24,0,0,0-.29.88v.67H79.5v.84H78.14V122Z" transform="translate(-10.99 -18)"/><path class="cls-1" d="M84.61,122a1.84,1.84,0,0,1-.15-.67,2.42,2.42,0,0,1-1.81.79,2.27,2.27,0,0,1-1.54-.53,1.73,1.73,0,0,1-.6-1.35,1.8,1.8,0,0,1,.75-1.54,3.61,3.61,0,0,1,2.12-.54h1.06v-.5a1.26,1.26,0,0,0-.34-.91,1.39,1.39,0,0,0-1-.33,1.56,1.56,0,0,0-1,.29.86.86,0,0,0-.39.71H80.64a1.48,1.48,0,0,1,.34-.92,2.31,2.31,0,0,1,.91-.7,3.13,3.13,0,0,1,1.27-.26,2.55,2.55,0,0,1,1.72.55,2,2,0,0,1,.64,1.51v2.92a3.78,3.78,0,0,0,.22,1.39V122Zm-1.8-.83a1.88,1.88,0,0,0,1-.26,1.62,1.62,0,0,0,.66-.69v-1.3h-.85c-1.33,0-2,.39-2,1.17a1,1,0,0,0,.34.8A1.28,1.28,0,0,0,82.81,121.14Z" transform="translate(-10.99 -18)"/><path class="cls-1" d="M88.4,122H87.31v-9H88.4Z" transform="translate(-10.99 -18)"/><path class="cls-1" d="M91.6,114.1v1.53h1.19v.84H91.6v3.93a.93.93,0,0,0,.16.58.7.7,0,0,0,.54.19,3.27,3.27,0,0,0,.52-.07V122a3.15,3.15,0,0,1-.84.12,1.34,1.34,0,0,1-1.09-.44,1.88,1.88,0,0,1-.37-1.25v-3.93H89.37v-.84h1.15V114.1Z" transform="translate(-10.99 -18)"/><path class="cls-1" d="M98,122a2,2,0,0,1-.16-.67,2.38,2.38,0,0,1-1.8.79,2.25,2.25,0,0,1-1.54-.53,1.73,1.73,0,0,1-.6-1.35,1.8,1.8,0,0,1,.75-1.54,3.61,3.61,0,0,1,2.12-.54H97.8v-.5a1.26,1.26,0,0,0-.34-.91,1.39,1.39,0,0,0-1-.33,1.56,1.56,0,0,0-1,.29.86.86,0,0,0-.39.71H94a1.48,1.48,0,0,1,.34-.92,2.31,2.31,0,0,1,.91-.7,3.13,3.13,0,0,1,1.27-.26,2.55,2.55,0,0,1,1.72.55,2,2,0,0,1,.64,1.51v2.92a3.78,3.78,0,0,0,.22,1.39V122Zm-1.8-.83a1.82,1.82,0,0,0,1-.26,1.59,1.59,0,0,0,.67-.69v-1.3H97c-1.33,0-2,.39-2,1.17a1,1,0,0,0,.33.8A1.33,1.33,0,0,0,96.17,121.14Z" transform="translate(-10.99 -18)"/><path class="cls-1" d="M103.29,118.75a3.71,3.71,0,0,1,.69-2.35,2.19,2.19,0,0,1,1.81-.89,2.21,2.21,0,0,1,1.76.76V113h1.09v9h-1l0-.68a2.23,2.23,0,0,1-1.81.8,2.16,2.16,0,0,1-1.8-.9,3.8,3.8,0,0,1-.69-2.36Zm1.08.12a2.8,2.8,0,0,0,.45,1.69,1.44,1.44,0,0,0,1.23.61,1.57,1.57,0,0,0,1.5-.93v-2.91a1.58,1.58,0,0,0-1.49-.9,1.44,1.44,0,0,0-1.24.62A3.07,3.07,0,0,0,104.37,118.87Z" transform="translate(-10.99 -18)"/><path class="cls-1" d="M113,122.09a2.76,2.76,0,0,1-2.1-.85A3.13,3.13,0,0,1,110,119v-.2a3.85,3.85,0,0,1,.36-1.69,2.86,2.86,0,0,1,1-1.16,2.52,2.52,0,0,1,1.4-.42,2.37,2.37,0,0,1,1.93.82,3.56,3.56,0,0,1,.68,2.33v.45h-4.29a2.28,2.28,0,0,0,.54,1.52,1.75,1.75,0,0,0,1.34.57,2,2,0,0,0,1-.23,2.58,2.58,0,0,0,.7-.62l.66.51A2.66,2.66,0,0,1,113,122.09Zm-.14-5.69a1.46,1.46,0,0,0-1.1.48,2.39,2.39,0,0,0-.55,1.34h3.18v-.08a2,2,0,0,0-.45-1.28A1.36,1.36,0,0,0,112.81,116.4Z" transform="translate(-10.99 -18)"/><path class="cls-1" d="M122.71,116.6a4.24,4.24,0,0,0-.53,0,1.43,1.43,0,0,0-1.45.91V122h-1.08v-6.34h1l0,.73a1.69,1.69,0,0,1,1.51-.85,1,1,0,0,1,.48.09Z" transform="translate(-10.99 -18)"/><path class="cls-1" d="M126.23,122.09a2.76,2.76,0,0,1-2.1-.85,3.13,3.13,0,0,1-.81-2.26v-.2a3.85,3.85,0,0,1,.36-1.69,2.86,2.86,0,0,1,1-1.16,2.52,2.52,0,0,1,1.4-.42,2.34,2.34,0,0,1,1.92.82,3.5,3.5,0,0,1,.69,2.33v.45h-4.3a2.29,2.29,0,0,0,.55,1.52,1.75,1.75,0,0,0,1.34.57,2,2,0,0,0,1-.23,2.74,2.74,0,0,0,.7-.62l.66.51A2.66,2.66,0,0,1,126.23,122.09Zm-.14-5.69a1.44,1.44,0,0,0-1.1.48,2.32,2.32,0,0,0-.55,1.34h3.18v-.08a2.09,2.09,0,0,0-.45-1.28A1.39,1.39,0,0,0,126.09,116.4Z" transform="translate(-10.99 -18)"/><path class="cls-1" d="M133.64,120.29a.8.8,0,0,0-.33-.68,2.89,2.89,0,0,0-1.15-.42,5.77,5.77,0,0,1-1.31-.42,1.85,1.85,0,0,1-.71-.59,1.38,1.38,0,0,1-.23-.81,1.65,1.65,0,0,1,.66-1.32,2.55,2.55,0,0,1,1.68-.54,2.66,2.66,0,0,1,1.75.56,1.76,1.76,0,0,1,.67,1.42h-1.09a1,1,0,0,0-.38-.76,1.39,1.39,0,0,0-.95-.33,1.53,1.53,0,0,0-.93.26.82.82,0,0,0-.33.68.66.66,0,0,0,.31.59,3.91,3.91,0,0,0,1.12.38,5.84,5.84,0,0,1,1.32.43,2,2,0,0,1,.75.61,1.48,1.48,0,0,1,.24.86,1.62,1.62,0,0,1-.68,1.36,2.79,2.79,0,0,1-1.76.52,3.19,3.19,0,0,1-1.35-.27,2.16,2.16,0,0,1-.92-.76,1.81,1.81,0,0,1-.33-1h1.08a1.12,1.12,0,0,0,.44.86,1.65,1.65,0,0,0,1.08.32,1.7,1.7,0,0,0,1-.25A.74.74,0,0,0,133.64,120.29Z" transform="translate(-10.99 -18)"/><path class="cls-1" d="M141.5,118.87a3.73,3.73,0,0,1-.67,2.33,2.12,2.12,0,0,1-1.79.89,2.34,2.34,0,0,1-1.82-.74v3.06h-1.08v-8.78h1l.05.7a2.27,2.27,0,0,1,1.84-.82,2.16,2.16,0,0,1,1.81.86,3.89,3.89,0,0,1,.67,2.4Zm-1.09-.12a2.86,2.86,0,0,0-.45-1.7,1.5,1.5,0,0,0-1.26-.62,1.59,1.59,0,0,0-1.48.88v3a1.61,1.61,0,0,0,1.49.86,1.44,1.44,0,0,0,1.24-.62A3,3,0,0,0,140.41,118.75Z" transform="translate(-10.99 -18)"/><path class="cls-1" d="M146.79,121.34a2.29,2.29,0,0,1-1.86.75,2,2,0,0,1-1.54-.59,2.5,2.5,0,0,1-.54-1.74v-4.13h1.08v4.1c0,1,.39,1.44,1.18,1.44a1.63,1.63,0,0,0,1.65-.93v-4.61h1.08V122h-1Z" transform="translate(-10.99 -18)"/><path class="cls-1" d="M152.12,122.09a2.76,2.76,0,0,1-2.1-.85,3.13,3.13,0,0,1-.81-2.26v-.2a3.85,3.85,0,0,1,.36-1.69,2.86,2.86,0,0,1,1-1.16,2.52,2.52,0,0,1,1.4-.42,2.37,2.37,0,0,1,1.93.82,3.56,3.56,0,0,1,.68,2.33v.45H150.3a2.28,2.28,0,0,0,.54,1.52,1.75,1.75,0,0,0,1.34.57,2,2,0,0,0,1-.23,2.58,2.58,0,0,0,.7-.62l.66.51A2.66,2.66,0,0,1,152.12,122.09ZM152,116.4a1.46,1.46,0,0,0-1.1.48,2.39,2.39,0,0,0-.55,1.34h3.18v-.08a2,2,0,0,0-.45-1.28A1.36,1.36,0,0,0,152,116.4Z" transform="translate(-10.99 -18)"/><path class="cls-1" d="M159.54,120.29a.8.8,0,0,0-.33-.68,3,3,0,0,0-1.16-.42,5.67,5.67,0,0,1-1.3-.42,1.82,1.82,0,0,1-.72-.59,1.45,1.45,0,0,1-.23-.81,1.65,1.65,0,0,1,.66-1.32,2.57,2.57,0,0,1,1.68-.54,2.66,2.66,0,0,1,1.75.56,1.76,1.76,0,0,1,.67,1.42h-1.09a1,1,0,0,0-.38-.76,1.37,1.37,0,0,0-1-.33,1.48,1.48,0,0,0-.92.26.8.8,0,0,0-.34.68.68.68,0,0,0,.31.59,3.88,3.88,0,0,0,1.13.38,5.74,5.74,0,0,1,1.31.43,1.88,1.88,0,0,1,.75.61,1.48,1.48,0,0,1,.24.86,1.62,1.62,0,0,1-.68,1.36,2.79,2.79,0,0,1-1.76.52,3.19,3.19,0,0,1-1.35-.27,2.16,2.16,0,0,1-.92-.76,1.81,1.81,0,0,1-.33-1h1.09a1.11,1.11,0,0,0,.43.86,1.65,1.65,0,0,0,1.08.32,1.73,1.73,0,0,0,1-.25A.76.76,0,0,0,159.54,120.29Z" transform="translate(-10.99 -18)"/><path class="cls-1" d="M163.5,114.1v1.53h1.19v.84H163.5v3.93a.93.93,0,0,0,.16.58.7.7,0,0,0,.54.19,3.27,3.27,0,0,0,.52-.07V122a3.15,3.15,0,0,1-.84.12,1.36,1.36,0,0,1-1.09-.44,1.88,1.88,0,0,1-.37-1.25v-3.93h-1.15v-.84h1.15V114.1Z" transform="translate(-10.99 -18)"/><path class="cls-1" d="M169.87,122a2,2,0,0,1-.16-.67,2.38,2.38,0,0,1-1.8.79,2.27,2.27,0,0,1-1.54-.53,1.73,1.73,0,0,1-.6-1.35,1.8,1.8,0,0,1,.75-1.54,3.61,3.61,0,0,1,2.12-.54h1.06v-.5a1.26,1.26,0,0,0-.34-.91,1.39,1.39,0,0,0-1-.33,1.56,1.56,0,0,0-1,.29.86.86,0,0,0-.39.71H165.9a1.48,1.48,0,0,1,.34-.92,2.31,2.31,0,0,1,.91-.7,3.13,3.13,0,0,1,1.27-.26,2.55,2.55,0,0,1,1.72.55,2,2,0,0,1,.64,1.51v2.92a3.78,3.78,0,0,0,.22,1.39V122Zm-1.8-.83a1.88,1.88,0,0,0,1-.26,1.62,1.62,0,0,0,.66-.69v-1.3h-.85c-1.33,0-2,.39-2,1.17a1,1,0,0,0,.34.8A1.28,1.28,0,0,0,168.07,121.14Z" transform="translate(-10.99 -18)"/><path class="cls-1" d="M239.32,120h-3.7v3h4.3V124H234.5v-8.53h5.36v.92h-4.24v2.75h3.7Z" transform="translate(-10.99 -18)"/><path class="cls-1" d="M244.21,118.6a4.24,4.24,0,0,0-.53,0,1.43,1.43,0,0,0-1.45.91V124h-1.08v-6.34h1l0,.73a1.71,1.71,0,0,1,1.51-.85,1,1,0,0,1,.48.09Z" transform="translate(-10.99 -18)"/><path class="cls-1" d="M248.27,118.6a4.24,4.24,0,0,0-.53,0,1.43,1.43,0,0,0-1.45.91V124h-1.08v-6.34h1l0,.73a1.71,1.71,0,0,1,1.51-.85,1,1,0,0,1,.48.09Z" transform="translate(-10.99 -18)"/><path class="cls-1" d="M248.86,120.74a3.76,3.76,0,0,1,.37-1.67,2.73,2.73,0,0,1,1-1.15,2.78,2.78,0,0,1,1.49-.41,2.69,2.69,0,0,1,2.1.9,3.46,3.46,0,0,1,.8,2.38v.08a3.71,3.71,0,0,1-.36,1.66,2.69,2.69,0,0,1-1,1.15,2.86,2.86,0,0,1-1.52.41,2.67,2.67,0,0,1-2.09-.9,3.45,3.45,0,0,1-.8-2.37Zm1.09.13a2.74,2.74,0,0,0,.49,1.69,1.67,1.67,0,0,0,2.63,0,3,3,0,0,0,.48-1.82,2.71,2.71,0,0,0-.49-1.69,1.58,1.58,0,0,0-1.32-.65,1.56,1.56,0,0,0-1.29.64A3,3,0,0,0,250,120.87Z" transform="translate(-10.99 -18)"/><path class="cls-1" d="M259.06,118.6a4.24,4.24,0,0,0-.53,0,1.43,1.43,0,0,0-1.45.91V124H256v-6.34h1.05l0,.73a1.69,1.69,0,0,1,1.51-.85,1,1,0,0,1,.48.09Z" transform="translate(-10.99 -18)"/><path class="cls-1" d="M262.76,120.75a3.71,3.71,0,0,1,.69-2.35,2.36,2.36,0,0,1,3.58-.13V115h1.08v9h-1l-.06-.68a2.2,2.2,0,0,1-1.81.8,2.16,2.16,0,0,1-1.79-.9,3.74,3.74,0,0,1-.7-2.36Zm1.09.12a2.88,2.88,0,0,0,.44,1.69,1.46,1.46,0,0,0,1.23.61,1.59,1.59,0,0,0,1.51-.93v-2.91a1.6,1.6,0,0,0-1.5-.9,1.45,1.45,0,0,0-1.24.62A3.15,3.15,0,0,0,263.85,120.87Z" transform="translate(-10.99 -18)"/><path class="cls-1" d="M272.43,124.09a2.76,2.76,0,0,1-2.1-.85,3.13,3.13,0,0,1-.81-2.26v-.2a3.85,3.85,0,0,1,.36-1.69,2.86,2.86,0,0,1,1-1.16,2.52,2.52,0,0,1,1.4-.42,2.35,2.35,0,0,1,1.92.82,3.5,3.5,0,0,1,.69,2.33v.45h-4.3a2.29,2.29,0,0,0,.55,1.52,1.72,1.72,0,0,0,1.33.57,2,2,0,0,0,1-.23,2.7,2.7,0,0,0,.69-.62l.67.51A2.67,2.67,0,0,1,272.43,124.09Zm-.14-5.69a1.44,1.44,0,0,0-1.1.48,2.32,2.32,0,0,0-.55,1.34h3.17v-.08a2.08,2.08,0,0,0-.44-1.28A1.39,1.39,0,0,0,272.29,118.4Z" transform="translate(-10.99 -18)"/><path class="cls-1" d="M282.19,118.6a4.41,4.41,0,0,0-.54,0,1.41,1.41,0,0,0-1.44.91V124h-1.09v-6.34h1.06v.73a1.71,1.71,0,0,1,1.52-.85,1,1,0,0,1,.48.09Z" transform="translate(-10.99 -18)"/><path class="cls-1" d="M285.7,124.09a2.76,2.76,0,0,1-2.1-.85,3.17,3.17,0,0,1-.8-2.26v-.2a3.85,3.85,0,0,1,.36-1.69,2.83,2.83,0,0,1,1-1.16,2.56,2.56,0,0,1,1.41-.42,2.36,2.36,0,0,1,1.92.82,3.5,3.5,0,0,1,.69,2.33v.45h-4.3a2.29,2.29,0,0,0,.55,1.52,1.72,1.72,0,0,0,1.33.57,1.93,1.93,0,0,0,1-.23,2.58,2.58,0,0,0,.7-.62l.66.51A2.65,2.65,0,0,1,285.7,124.09Zm-.13-5.69a1.43,1.43,0,0,0-1.1.48,2.32,2.32,0,0,0-.55,1.34h3.17v-.08a2.08,2.08,0,0,0-.44-1.28A1.39,1.39,0,0,0,285.57,118.4Z" transform="translate(-10.99 -18)"/><path class="cls-1" d="M293.12,122.29a.8.8,0,0,0-.33-.68,3,3,0,0,0-1.15-.42,5.77,5.77,0,0,1-1.31-.42,2,2,0,0,1-.72-.59,1.45,1.45,0,0,1-.23-.81,1.65,1.65,0,0,1,.66-1.32,2.58,2.58,0,0,1,1.69-.54,2.68,2.68,0,0,1,1.75.56,1.79,1.79,0,0,1,.67,1.42h-1.09a1,1,0,0,0-.38-.76,1.39,1.39,0,0,0-.95-.33,1.49,1.49,0,0,0-.93.26.82.82,0,0,0-.33.68.66.66,0,0,0,.31.59,3.79,3.79,0,0,0,1.12.38,5.57,5.57,0,0,1,1.31.43,1.88,1.88,0,0,1,.75.61,1.48,1.48,0,0,1,.24.86,1.59,1.59,0,0,1-.68,1.36,2.79,2.79,0,0,1-1.76.52,3.19,3.19,0,0,1-1.35-.27,2.13,2.13,0,0,1-.91-.76,1.81,1.81,0,0,1-.33-1h1.08a1.09,1.09,0,0,0,.44.86,1.64,1.64,0,0,0,1.07.32,1.73,1.73,0,0,0,1-.25A.74.74,0,0,0,293.12,122.29Z" transform="translate(-10.99 -18)"/><path class="cls-1" d="M301,120.87a3.79,3.79,0,0,1-.66,2.33,2.12,2.12,0,0,1-1.79.89,2.33,2.33,0,0,1-1.82-.74v3.06h-1.08v-8.78h1l.05.7a2.24,2.24,0,0,1,1.84-.82,2.19,2.19,0,0,1,1.81.86,3.89,3.89,0,0,1,.66,2.4Zm-1.08-.12a2.79,2.79,0,0,0-.46-1.7,1.47,1.47,0,0,0-1.25-.62,1.59,1.59,0,0,0-1.48.88v3a1.6,1.6,0,0,0,1.49.86,1.45,1.45,0,0,0,1.24-.62A3.08,3.08,0,0,0,299.89,120.75Z" transform="translate(-10.99 -18)"/><path class="cls-1" d="M306.26,123.34a2.28,2.28,0,0,1-1.85.75,2,2,0,0,1-1.55-.59,2.55,2.55,0,0,1-.53-1.74v-4.13h1.08v4.1q0,1.44,1.17,1.44a1.61,1.61,0,0,0,1.65-.93v-4.61h1.09V124h-1Z" transform="translate(-10.99 -18)"/><path class="cls-1" d="M311.6,124.09a2.76,2.76,0,0,1-2.1-.85,3.13,3.13,0,0,1-.81-2.26v-.2a3.85,3.85,0,0,1,.36-1.69,2.86,2.86,0,0,1,1-1.16,2.52,2.52,0,0,1,1.4-.42,2.34,2.34,0,0,1,1.92.82,3.5,3.5,0,0,1,.69,2.33v.45h-4.3a2.29,2.29,0,0,0,.55,1.52,1.74,1.74,0,0,0,1.33.57,2,2,0,0,0,1-.23,2.54,2.54,0,0,0,.69-.62l.67.51A2.66,2.66,0,0,1,311.6,124.09Zm-.14-5.69a1.44,1.44,0,0,0-1.1.48,2.32,2.32,0,0,0-.55,1.34H313v-.08a2.08,2.08,0,0,0-.44-1.28A1.39,1.39,0,0,0,311.46,118.4Z" transform="translate(-10.99 -18)"/><path class="cls-1" d="M319,122.29a.8.8,0,0,0-.33-.68,2.89,2.89,0,0,0-1.15-.42,5.77,5.77,0,0,1-1.31-.42,1.85,1.85,0,0,1-.71-.59,1.38,1.38,0,0,1-.23-.81,1.64,1.64,0,0,1,.65-1.32,2.59,2.59,0,0,1,1.69-.54,2.66,2.66,0,0,1,1.75.56,1.79,1.79,0,0,1,.67,1.42H319a1,1,0,0,0-.38-.76,1.39,1.39,0,0,0-.95-.33,1.51,1.51,0,0,0-.93.26.82.82,0,0,0-.33.68.66.66,0,0,0,.31.59,3.91,3.91,0,0,0,1.12.38,5.84,5.84,0,0,1,1.32.43,1.91,1.91,0,0,1,.74.61,1.41,1.41,0,0,1,.25.86,1.62,1.62,0,0,1-.68,1.36,2.82,2.82,0,0,1-1.77.52,3.18,3.18,0,0,1-1.34-.27,2.16,2.16,0,0,1-.92-.76,1.81,1.81,0,0,1-.33-1h1.08a1.12,1.12,0,0,0,.44.86,1.64,1.64,0,0,0,1.07.32,1.73,1.73,0,0,0,1-.25A.74.74,0,0,0,319,122.29Z" transform="translate(-10.99 -18)"/><path class="cls-1" d="M323,116.1v1.53h1.18v.84H323v3.93a.87.87,0,0,0,.16.58.68.68,0,0,0,.54.19,3.32,3.32,0,0,0,.51-.07V124a3,3,0,0,1-.83.12,1.34,1.34,0,0,1-1.09-.44,1.88,1.88,0,0,1-.37-1.25v-3.93h-1.16v-.84h1.16V116.1Z" transform="translate(-10.99 -18)"/><path class="cls-1" d="M329.34,124a2.39,2.39,0,0,1-.15-.67,2.38,2.38,0,0,1-1.8.79,2.25,2.25,0,0,1-1.54-.53,1.73,1.73,0,0,1-.6-1.35,1.8,1.8,0,0,1,.75-1.54,3.59,3.59,0,0,1,2.12-.54h1.05v-.5a1.22,1.22,0,0,0-.34-.91,1.37,1.37,0,0,0-1-.33,1.55,1.55,0,0,0-1,.29.86.86,0,0,0-.39.71h-1.09a1.53,1.53,0,0,1,.33-.92,2.35,2.35,0,0,1,.92-.7,3.1,3.1,0,0,1,1.27-.26,2.51,2.51,0,0,1,1.71.55,2,2,0,0,1,.65,1.51v2.92a3.58,3.58,0,0,0,.22,1.39V124Zm-1.8-.83a1.86,1.86,0,0,0,1-.26,1.51,1.51,0,0,0,.66-.69v-1.3h-.85c-1.32,0-2,.39-2,1.17a1,1,0,0,0,.34.8A1.32,1.32,0,0,0,327.54,123.14Z" transform="translate(-10.99 -18)"/><rect class="cls-2" x="212.33" y="89.49" width="118" height="24"/><rect class="cls-2" x="6.04" y="89.49" width="164" height="24"/><polygon class="cls-5" points="266.25 116 277.25 116 271.75 122.5 266.25 116"/><line class="cls-6" x1="87" y1="35.8" x2="271.33" y2="35.8"/><line class="cls-6" x1="271.65" y1="35.5" x2="271.65" y2="48"/><line class="cls-6" x1="86.65" y1="35.5" x2="86.65" y2="48"/><line class="cls-6" x1="178.65" y1="24.5" x2="178.65" y2="36"/></svg>