<svg xmlns="http://www.w3.org/2000/svg" width="59.981" height="58.911" viewBox="0 0 59.981 58.911">
  <g id="bar-chart_1_" data-name="bar-chart (1)" transform="translate(0 -4.569)">
    <g id="Grupo_61484" data-name="Grupo 61484" transform="translate(0 43.866)">
      <g id="Grupo_61483" data-name="Grupo 61483">
        <path id="Trazado_111126" data-name="Trazado 111126" d="M10.247,340.011H1.04A1.04,1.04,0,0,0,0,341.051v17.533a1.04,1.04,0,0,0,1.04,1.04h9.206a1.04,1.04,0,0,0,1.04-1.04V341.051A1.04,1.04,0,0,0,10.247,340.011ZM9.206,357.544H2.081v-5.393H9.207v5.393Zm0-7.474H2.081v-2.914H9.207v2.914Zm0-4.995H2.081v-2.983H9.207v2.983Z" transform="translate(0 -340.011)" fill="#3a3c07"/>
      </g>
    </g>
    <g id="Grupo_61486" data-name="Grupo 61486" transform="translate(16.231 28.069)">
      <g id="Grupo_61485" data-name="Grupo 61485" transform="translate(0 0)">
        <path id="Trazado_111127" data-name="Trazado 111127" d="M148.8,205.163h-9.206a1.04,1.04,0,0,0-1.04,1.04V223.58a1.04,1.04,0,0,0,2.081,0V217.3h7.126v21.19h-7.126V227.741a1.04,1.04,0,1,0-2.081,0v11.792a1.04,1.04,0,0,0,1.04,1.04H148.8a1.04,1.04,0,0,0,1.04-1.04V206.2A1.04,1.04,0,0,0,148.8,205.163Zm-1.04,10.059h-7.126v-2.914h7.126Zm0-4.995h-7.126v-2.983h7.126Z" transform="translate(-138.551 -205.163)" fill="#3a3c07"/>
      </g>
    </g>
    <g id="Grupo_61488" data-name="Grupo 61488" transform="translate(32.463 43.866)">
      <g id="Grupo_61487" data-name="Grupo 61487">
        <path id="Trazado_111128" data-name="Trazado 111128" d="M287.348,340.011h-9.206a1.04,1.04,0,0,0-1.04,1.04v17.533a1.04,1.04,0,0,0,1.04,1.04h9.206a1.04,1.04,0,0,0,1.04-1.04V341.051A1.04,1.04,0,0,0,287.348,340.011Zm-1.04,17.533h-7.126v-5.393h7.126Zm0-7.474h-7.126v-2.914h7.126Zm0-4.995h-7.126v-2.983h7.126Z" transform="translate(-277.101 -340.011)" fill="#3a3c07"/>
      </g>
    </g>
    <g id="Grupo_61490" data-name="Grupo 61490" transform="translate(48.694 21.106)">
      <g id="Grupo_61489" data-name="Grupo 61489">
        <path id="Trazado_111129" data-name="Trazado 111129" d="M425.9,145.727h-9.206a1.04,1.04,0,0,0-1.04,1.04v29.446a1.04,1.04,0,0,0,2.081,0V157.867h7.126V186.02h-7.126v-5.645a1.04,1.04,0,1,0-2.081,0v6.685a1.04,1.04,0,0,0,1.04,1.04H425.9a1.04,1.04,0,0,0,1.04-1.04V146.767A1.041,1.041,0,0,0,425.9,145.727Zm-1.041,10.059h-7.126v-2.914h7.126Zm0-4.995h-7.126v-2.983h7.126Z" transform="translate(-415.652 -145.727)" fill="#3a3c07"/>
      </g>
    </g>
    <g id="Grupo_61492" data-name="Grupo 61492" transform="translate(0.352 4.569)">
      <g id="Grupo_61491" data-name="Grupo 61491" transform="translate(0 0)">
        <path id="Trazado_111130" data-name="Trazado 111130" d="M56.991,4.569a4.456,4.456,0,0,0-3.874,6.663l-9.645,8.826a4.449,4.449,0,0,0-6.115.66l-8.519-5.06a4.46,4.46,0,1,0-8.29.854l-10.53,9.54A4.457,4.457,0,1,0,11.4,27.609L21.892,18.1a4.45,4.45,0,0,0,5.95-.614l8.575,5.093a4.459,4.459,0,1,0,8.367-.9l9.755-8.926a4.458,4.458,0,1,0,2.451-8.182ZM7.464,32.086a2.379,2.379,0,1,1,1.7-4.037,1.033,1.033,0,0,0,.082.1,1.018,1.018,0,0,0,.077.076,2.375,2.375,0,0,1-1.86,3.857Zm17.064-15.2a2.378,2.378,0,1,1,2.379-2.379A2.381,2.381,0,0,1,24.528,16.887Zm16.231,9.087A2.378,2.378,0,1,1,43.138,23.6,2.381,2.381,0,0,1,40.759,25.974ZM56.991,11.407a2.379,2.379,0,1,1,2.379-2.379A2.381,2.381,0,0,1,56.991,11.407Z" transform="translate(-3.005 -4.569)" fill="#3a3c07"/>
      </g>
    </g>
  </g>
</svg>
