<svg xmlns="http://www.w3.org/2000/svg" width="105" height="105" viewBox="0 0 105 105">
  <g id="Grupo_61724" data-name="Grupo 61724" transform="translate(-326 -504)">
    <rect id="Rectángulo_5987" data-name="Rectángulo 5987" width="105" height="105" transform="translate(326 504)" fill="none"/>
    <g id="walkie-talkie" transform="translate(303.606 508.325)">
      <g id="Grupo_61696" data-name="Grupo 61696" transform="translate(45.992 1.408)">
        <path id="Trazado_111634" data-name="Trazado 111634" d="M155.679,42.771h-5.536v-32.5a2.768,2.768,0,1,1,5.536,0Z" transform="translate(-141.231 -7.5)" fill="#cac5cb"/>
        <path id="Trazado_111635" data-name="Trazado 111635" d="M155.679,170.4c-.113-.008-.227-.013-.342-.013h-4.852c-.115,0-.229.005-.342.013v4.68h5.536Z" transform="translate(-141.231 -139.813)" fill="#b3adb5"/>
        <path id="Trazado_111636" data-name="Trazado 111636" d="M143.718,181.391h-4.852a3.027,3.027,0,0,0-3.027,3.027v6.388h10.907v-6.388A3.027,3.027,0,0,0,143.718,181.391Z" transform="translate(-129.612 -148.748)" fill="#b3adb5"/>
        <path id="Trazado_111637" data-name="Trazado 111637" d="M139.682,185.082a.851.851,0,0,1-.851-.851,3.025,3.025,0,0,1,1.986-2.839h-1.951a3.027,3.027,0,0,0-3.027,3.027v6.388h10.906v-5.725Z" transform="translate(-129.613 -148.748)" fill="#a59ca6"/>
        <path id="Trazado_111638" data-name="Trazado 111638" d="M293.892,43.335h-5.536V10.268a2.768,2.768,0,0,1,5.536,0Z" transform="translate(-253.498 -7.5)" fill="#cac5cb"/>
        <path id="Trazado_111639" data-name="Trazado 111639" d="M293.892,170.4c-.113-.008-.227-.013-.342-.013H288.7c-.115,0-.229.005-.342.013v5.243h5.536Z" transform="translate(-253.498 -139.813)" fill="#b3adb5"/>
        <path id="Trazado_111640" data-name="Trazado 111640" d="M281.931,181.391h-4.852a3.027,3.027,0,0,0-3.027,3.027v6.013h10.906v-6.013A3.027,3.027,0,0,0,281.931,181.391Z" transform="translate(-241.879 -148.748)" fill="#b3adb5"/>
        <path id="Trazado_111641" data-name="Trazado 111641" d="M277.681,184.988a.862.862,0,0,1-.862-.862,3.024,3.024,0,0,1,1.735-2.734h-1.476a3.027,3.027,0,0,0-3.027,3.027v6.013h10.906v-5.443Z" transform="translate(-241.879 -148.748)" fill="#a59ca6"/>
        <path id="Trazado_111642" data-name="Trazado 111642" d="M146.787,457.4H116.939l-2.69,3.209v1.763a4.011,4.011,0,0,0,4.012,4.01h26.283a4.011,4.011,0,0,0,4.012-4.01V460.61Z" transform="translate(-112.075 -372.944)" fill="#cac5cb"/>
        <path id="Trazado_111643" data-name="Trazado 111643" d="M123.5,463.631a3.968,3.968,0,0,1-4.012-3.923V457.4h-2.546l-2.69,3.209v1.763a4.011,4.011,0,0,0,4.012,4.01h26.283a4.015,4.015,0,0,0,3.811-2.753Z" transform="translate(-112.075 -372.945)" fill="#b3adb5"/>
        <path id="Trazado_111644" data-name="Trazado 111644" d="M141.323,220.832V244.7a1.221,1.221,0,0,1-.146.58L139.3,248.72a1.206,1.206,0,0,0-.148.58v14.453H104.843V249.3a1.206,1.206,0,0,0-.148-.58l-1.877-3.445a1.2,1.2,0,0,1-.148-.58V220.832a5.784,5.784,0,0,1,5.786-5.784h27.085a5.783,5.783,0,0,1,5.784,5.784Z" transform="translate(-102.669 -176.087)" fill="#a0a603"/>
        <path id="Trazado_111645" data-name="Trazado 111645" d="M158.3,257.73H134.957A1.961,1.961,0,0,1,133,255.77v-8.258a1.961,1.961,0,0,1,1.961-1.961H158.3a1.961,1.961,0,0,1,1.961,1.961v8.258A1.961,1.961,0,0,1,158.3,257.73Z" transform="translate(-127.303 -200.863)" fill="#b3e5ee"/>
        <g id="Grupo_61693" data-name="Grupo 61693" transform="translate(28.119 33.692)">
          <path id="Trazado_111647" data-name="Trazado 111647" d="M372.5,192.342l-.818-4.088a1.586,1.586,0,0,0-1.555-1.275h-2.346a1.585,1.585,0,0,0-1.555,1.275l-.818,4.088-.494,2.83h8.134Z" transform="translate(-343.807 -186.979)" fill="#cac5cb"/>
          <path id="Trazado_111648" data-name="Trazado 111648" d="M400.764,320.908a2.579,2.579,0,0,0,2.579-2.579V302.881a2.579,2.579,0,0,0-2.579-2.579H387.277V320.55Z" transform="translate(-361.969 -279.029)" fill="#cac5cb"/>
          <path id="Trazado_111649" data-name="Trazado 111649" d="M285,457.9H255.15l-2.69,3.209v1.763a4.011,4.011,0,0,0,4.012,4.01h26.283a4.011,4.011,0,0,0,4.012-4.01v-1.763Z" transform="translate(-252.46 -407.045)" fill="#cac5cb"/>
        </g>
        <path id="Trazado_111650" data-name="Trazado 111650" d="M261.708,464.133a3.968,3.968,0,0,1-4.012-3.923V457.9H255.15l-2.69,3.209v1.763a4.011,4.011,0,0,0,4.012,4.01h26.283a4.015,4.015,0,0,0,3.811-2.753Z" transform="translate(-224.341 -373.353)" fill="#b3adb5"/>
        <path id="Trazado_111651" data-name="Trazado 111651" d="M279.534,221.334V245.2a1.22,1.22,0,0,1-.146.58l-1.879,3.445a1.206,1.206,0,0,0-.148.58v14.453H243.054V249.8a1.206,1.206,0,0,0-.148-.58l-1.877-3.445a1.2,1.2,0,0,1-.148-.58V221.334a5.784,5.784,0,0,1,5.786-5.784H273.75A5.783,5.783,0,0,1,279.534,221.334Z" transform="translate(-214.935 -176.494)" fill="#a0a603"/>
        <g id="Grupo_61695" data-name="Grupo 61695" transform="translate(15.435 44.782)">
          <path id="Trazado_111652" data-name="Trazado 111652" d="M296.515,258.232H273.168a1.961,1.961,0,0,1-1.961-1.961v-8.258a1.961,1.961,0,0,1,1.961-1.961h23.348a1.961,1.961,0,0,1,1.961,1.961v8.258A1.961,1.961,0,0,1,296.515,258.232Z" transform="translate(-255.004 -246.053)" fill="#b3e5ee"/>
          <g id="Grupo_61694" data-name="Grupo 61694" transform="translate(0 19.351)">
            <path id="Trazado_111653" data-name="Trazado 111653" d="M329.422,354.486h-4.849a1.467,1.467,0,0,1-1.467-1.467V350.6a1.467,1.467,0,0,1,1.467-1.467h4.849a1.467,1.467,0,0,1,1.467,1.467v2.418A1.467,1.467,0,0,1,329.422,354.486Z" transform="translate(-297.16 -349.134)" fill="#6f7302"/>
            <path id="Trazado_111654" data-name="Trazado 111654" d="M186.36,354.486a1.467,1.467,0,0,1-1.467-1.467V350.6a1.467,1.467,0,0,1,1.467-1.467h4.669a1.477,1.477,0,0,1,1.477,1.477v2.4a1.477,1.477,0,0,1-1.477,1.477Z" transform="translate(-184.893 -349.134)" fill="#6f7302"/>
          </g>
        </g>
      </g>
      <g id="Grupo_61697" data-name="Grupo 61697" transform="translate(32.894 0)">
        <path id="Trazado_111656" data-name="Trazado 111656" d="M275.758,54.966h-.906V46.248a7.2,7.2,0,0,0-7.193-7.193h-.846l-.591-2.956a3,3,0,0,0-2.935-2.406H260.94A3,3,0,0,0,258,36.1l-.591,2.956H253.33V37.079A4.441,4.441,0,0,0,250.645,33V4.176a4.176,4.176,0,1,0-8.352,0V33a4.441,4.441,0,0,0-2.685,4.075v2.043a7.2,7.2,0,0,0-6.227,7.126V70.111a2.628,2.628,0,0,0,.32,1.254l1.855,3.4v3.5a1.408,1.408,0,1,0,2.816,0V74.715a2.626,2.626,0,0,0-.32-1.254l-1.855-3.4V46.248a4.382,4.382,0,0,1,4.377-4.377h27.085a4.382,4.382,0,0,1,4.377,4.377V70.061l-1.854,3.4a2.627,2.627,0,0,0-.32,1.255V87.76h-31.49v-3.5a1.408,1.408,0,0,0-2.816,0v6.669a5.425,5.425,0,0,0,5.419,5.419h26.284a5.425,5.425,0,0,0,5.419-5.419V78.388h3.081a3.991,3.991,0,0,0,3.987-3.987V58.952a3.991,3.991,0,0,0-3.987-3.987ZM260.766,36.651a.178.178,0,0,1,.174-.143h2.346a.178.178,0,0,1,.174.143l.481,2.4h-3.656Zm-18.342.427a1.621,1.621,0,0,1,1.619-1.619H248.9a1.621,1.621,0,0,1,1.619,1.619v1.977h-8.091V37.078Zm2.685-32.9a1.36,1.36,0,1,1,2.72,0V32.643h-2.72Zm22.149,89.358H240.974a2.606,2.606,0,0,1-2.6-2.6v-.355h31.49v.355A2.606,2.606,0,0,1,267.258,93.534ZM276.929,74.4a1.172,1.172,0,0,1-1.171,1.171h-3.081v-.807l1.854-3.4a2.627,2.627,0,0,0,.32-1.254V57.781h.906a1.172,1.172,0,0,1,1.171,1.171Z" transform="translate(-195.745 0)" fill="#3a3c07"/>
        <path id="Trazado_111657" data-name="Trazado 111657" d="M326.205,346.927v-2.418a2.878,2.878,0,0,0-2.875-2.875h-4.849a2.878,2.878,0,0,0-2.875,2.875v2.418a2.878,2.878,0,0,0,2.875,2.875h4.849A2.878,2.878,0,0,0,326.205,346.927Zm-7.783,0v-2.418a.059.059,0,0,1,.059-.059h4.849a.059.059,0,0,1,.059.059v2.418a.059.059,0,0,1-.059.059h-4.849A.059.059,0,0,1,318.422,346.927Z" transform="translate(-262.535 -277.501)" fill="#3a3c07"/>
        <path id="Trazado_111658" data-name="Trazado 111658" d="M280.791,357.3a1.408,1.408,0,0,0-1.408-1.408h-2.909a1.408,1.408,0,0,0,0,2.816h2.909A1.408,1.408,0,0,0,280.791,357.3Z" transform="translate(-229.605 -289.08)" fill="#3a3c07"/>
        <path id="Trazado_111659" data-name="Trazado 111659" d="M387.837,357.3a1.408,1.408,0,0,0-1.408-1.408H383.52a1.408,1.408,0,0,0,0,2.816h2.909A1.408,1.408,0,0,0,387.837,357.3Z" transform="translate(-316.556 -289.08)" fill="#3a3c07"/>
        <path id="Trazado_111660" data-name="Trazado 111660" d="M336.247,400.666h-.9a1.408,1.408,0,1,0,0,2.816h.9a1.408,1.408,0,1,0,0-2.816Z" transform="translate(-277.426 -325.452)" fill="#3a3c07"/>
        <path id="Trazado_111661" data-name="Trazado 111661" d="M295.2,400.666h-.9a1.408,1.408,0,1,0,0,2.816h.9a1.408,1.408,0,1,0,0-2.816Z" transform="translate(-244.084 -325.452)" fill="#3a3c07"/>
        <path id="Trazado_111662" data-name="Trazado 111662" d="M377.289,400.666h-.9a1.408,1.408,0,1,0,0,2.816h.9a1.408,1.408,0,0,0,0-2.816Z" transform="translate(-310.763 -325.452)" fill="#3a3c07"/>
        <path id="Trazado_111663" data-name="Trazado 111663" d="M336.247,433.183h-.9a1.408,1.408,0,0,0,0,2.816h.9a1.408,1.408,0,0,0,0-2.816Z" transform="translate(-277.426 -351.865)" fill="#3a3c07"/>
        <path id="Trazado_111664" data-name="Trazado 111664" d="M295.2,433.183h-.9a1.408,1.408,0,0,0,0,2.816h.9a1.408,1.408,0,0,0,0-2.816Z" transform="translate(-244.084 -351.865)" fill="#3a3c07"/>
        <path id="Trazado_111665" data-name="Trazado 111665" d="M377.289,433.183h-.9a1.408,1.408,0,0,0,0,2.816h.9a1.408,1.408,0,0,0,0-2.816Z" transform="translate(-310.763 -351.865)" fill="#3a3c07"/>
        <path id="Trazado_111666" data-name="Trazado 111666" d="M119.941,93.534h-17.18a2.606,2.606,0,0,1-2.6-2.6v-.355h18.906a1.408,1.408,0,1,0,0-2.816H100.158V74.715a2.628,2.628,0,0,0-.32-1.254l-1.855-3.4V46.248a4.382,4.382,0,0,1,4.377-4.377H118.47a1.408,1.408,0,0,0,0-2.816h-3.353V37.078A4.441,4.441,0,0,0,112.432,33V14.062a1.408,1.408,0,1,0-2.816,0V32.643H106.9V4.176a1.36,1.36,0,0,1,2.72,0V8.062a1.408,1.408,0,1,0,2.816,0V4.176a4.176,4.176,0,1,0-8.352,0V33a4.441,4.441,0,0,0-2.685,4.075v2.043a7.2,7.2,0,0,0-6.227,7.126V70.111a2.626,2.626,0,0,0,.32,1.254l1.855,3.4V90.931a5.425,5.425,0,0,0,5.419,5.419h17.18a1.408,1.408,0,1,0,0-2.816ZM104.211,39.055V37.078a1.621,1.621,0,0,1,1.619-1.619h4.852a1.621,1.621,0,0,1,1.619,1.619v1.977Z" transform="translate(-83.478 0)" fill="#3a3c07"/>
        <path id="Trazado_111667" data-name="Trazado 111667" d="M142.931,252.14a1.408,1.408,0,0,0-1.408-1.408H128.862a.553.553,0,0,1-.553-.553v-8.258a.553.553,0,0,1,.553-.553h12.662a1.408,1.408,0,0,0,0-2.816H128.862a3.372,3.372,0,0,0-3.368,3.368v8.258a3.372,3.372,0,0,0,3.368,3.368h12.661A1.408,1.408,0,0,0,142.931,252.14Z" transform="translate(-108.111 -193.771)" fill="#3a3c07"/>
        <path id="Trazado_111668" data-name="Trazado 111668" d="M185.134,348.394a1.408,1.408,0,0,0-1.408-1.408h-3.458a.059.059,0,0,1-.059-.059v-2.418a.059.059,0,0,1,.059-.059h3.411a1.408,1.408,0,1,0,0-2.816h-3.411a2.878,2.878,0,0,0-2.875,2.875v2.418a2.878,2.878,0,0,0,2.875,2.875h3.458A1.408,1.408,0,0,0,185.134,348.394Z" transform="translate(-150.267 -277.501)" fill="#3a3c07"/>
        <path id="Trazado_111669" data-name="Trazado 111669" d="M142.579,357.3a1.408,1.408,0,0,0-1.408-1.408h-2.909a1.408,1.408,0,0,0,0,2.816h2.909A1.408,1.408,0,0,0,142.579,357.3Z" transform="translate(-117.338 -289.08)" fill="#3a3c07"/>
        <path id="Trazado_111670" data-name="Trazado 111670" d="M198.034,400.666h-.9a1.408,1.408,0,1,0,0,2.816h.9a1.408,1.408,0,1,0,0-2.816Z" transform="translate(-165.159 -325.452)" fill="#3a3c07"/>
        <path id="Trazado_111671" data-name="Trazado 111671" d="M156.987,400.666h-.9a1.408,1.408,0,1,0,0,2.816h.9a1.408,1.408,0,1,0,0-2.816Z" transform="translate(-131.817 -325.452)" fill="#3a3c07"/>
        <path id="Trazado_111672" data-name="Trazado 111672" d="M198.034,433.183h-.9a1.408,1.408,0,0,0,0,2.816h.9a1.408,1.408,0,1,0,0-2.816Z" transform="translate(-165.159 -351.865)" fill="#3a3c07"/>
        <path id="Trazado_111673" data-name="Trazado 111673" d="M156.987,433.183h-.9a1.408,1.408,0,0,0,0,2.816h.9a1.408,1.408,0,1,0,0-2.816Z" transform="translate(-131.817 -351.865)" fill="#3a3c07"/>
        <path id="Trazado_111674" data-name="Trazado 111674" d="M395.588,52.564a1.408,1.408,0,0,0,1.991.014,15.035,15.035,0,0,0,0-21.417,1.408,1.408,0,0,0-1.977,2.005,12.219,12.219,0,0,1,0,17.406A1.408,1.408,0,0,0,395.588,52.564Z" transform="translate(-327.173 -24.983)" fill="#3a3c07"/>
        <path id="Trazado_111675" data-name="Trazado 111675" d="M364.3,78.281a1.4,1.4,0,0,0,.988-.405,6.41,6.41,0,0,0,1.091-7.693,1.389,1.389,0,0,0-2.2-.3l-.056.057a1.363,1.363,0,0,0-.2,1.632,3.59,3.59,0,0,1-.583,4.265,1.438,1.438,0,0,0-.286,1.707,1.415,1.415,0,0,0,1.241.737Z" transform="translate(-300.946 -56.43)" fill="#3a3c07"/>
        <path id="Trazado_111676" data-name="Trazado 111676" d="M35.71,41.87a12.131,12.131,0,0,1,3.642-8.7,1.408,1.408,0,1,0-1.977-2.005,15.035,15.035,0,0,0,0,21.417,1.408,1.408,0,1,0,1.977-2.005,12.13,12.13,0,0,1-3.642-8.7Z" transform="translate(-32.894 -24.983)" fill="#3a3c07"/>
        <path id="Trazado_111677" data-name="Trazado 111677" d="M82.777,71.036a3.584,3.584,0,0,1,0-5.105A1.408,1.408,0,0,0,80.8,63.926a6.4,6.4,0,0,0,0,9.116,1.408,1.408,0,0,0,1.977-2.006Z" transform="translate(-70.258 -51.596)" fill="#3a3c07"/>
        <path id="Trazado_111678" data-name="Trazado 111678" d="M267.074,241.369h13.659a1.408,1.408,0,1,0,0-2.816H267.074a3.372,3.372,0,0,0-3.369,3.368v8.258a3.372,3.372,0,0,0,3.369,3.368h23.348a3.372,3.372,0,0,0,3.368-3.368v-8.258a3.372,3.372,0,0,0-3.368-3.368h-3.688a1.408,1.408,0,1,0,0,2.816h3.688a.553.553,0,0,1,.553.553v8.258a.553.553,0,0,1-.553.553H267.074a.553.553,0,0,1-.553-.553v-8.258a.554.554,0,0,1,.553-.553Z" transform="translate(-220.377 -193.771)" fill="#3a3c07"/>
      </g>
    </g>
  </g>
</svg>
