<svg xmlns="http://www.w3.org/2000/svg" width="59.981" height="44.021" viewBox="0 0 59.981 44.021">
  <g id="simulation" transform="translate(-0.001 -67.466)">
    <circle id="Elipse_4316" data-name="Elipse 4316" cx="1.183" cy="1.183" r="1.183" transform="translate(56.015 85.632)" fill="#3a3c07"/>
    <path id="Trazado_111131" data-name="Trazado 111131" d="M143.3,171.875a3.549,3.549,0,1,0,5.711.98l1.188-1.188a6.145,6.145,0,0,0,9.521-3.881h1.711a3.549,3.549,0,1,0,0-2.366h-1.711a6.144,6.144,0,0,0-9.811-3.668l-1.4-1.4a3.543,3.543,0,1,0-1.673,1.673l1.518,1.518a6.13,6.13,0,0,0,.192,6.433l-1.206,1.206A3.554,3.554,0,0,0,143.3,171.875Zm3.346,3.346a1.183,1.183,0,1,1,.346-.836A1.175,1.175,0,0,1,146.644,175.221Zm18.13-9.8a1.183,1.183,0,1,1-1.183,1.188s0,0,0,0,0,0,0,0A1.184,1.184,0,0,1,164.774,165.421Zm-7.306,1.183a3.785,3.785,0,1,1-3.785-3.785A3.789,3.789,0,0,1,157.467,166.6Zm-13-6.944a1.183,1.183,0,1,1,1.678-.005l-.006.005,0,.005a1.182,1.182,0,0,1-1.667-.005Z" transform="translate(-124.989 -77.423)" fill="#3a3c07"/>
    <path id="Trazado_111132" data-name="Trazado 111132" d="M59.461,104.683a2.356,2.356,0,0,0-1.08-.759V92.137a1.183,1.183,0,0,0-2.366,0V103.8H53.649V73.38A1.183,1.183,0,0,0,52.466,72.2H7.516A1.183,1.183,0,0,0,6.334,73.38V103.8H3.968V69.832H56.015V81.493a1.183,1.183,0,1,0,2.366,0V69.832a2.368,2.368,0,0,0-2.366-2.366H3.968A2.368,2.368,0,0,0,1.6,69.832v34.093a2.367,2.367,0,0,0-1.544,2.753l.245,1.1a4.7,4.7,0,0,0,4.619,3.705H55.061a4.7,4.7,0,0,0,4.619-3.705l.245-1.1A2.354,2.354,0,0,0,59.461,104.683ZM8.7,74.563H51.283V103.8H8.7Zm14.637,34.558-1.314-2.957H37.96l-1.314,2.957ZM2.612,107.268l-.245-1.1H19.434l1.314,2.957H4.922a2.352,2.352,0,0,1-2.309-1.853Zm54.758,0a2.352,2.352,0,0,1-2.309,1.853H39.234l1.314-2.957H57.616Z" transform="translate(0)" fill="#3a3c07"/>
  </g>
</svg>
