<svg xmlns="http://www.w3.org/2000/svg" width="582.149" height="319.332" viewBox="0 0 582.149 319.332">
  <g id="Grupo_61761" data-name="Grupo 61761" transform="translate(-181 -4037.834)">
    <g id="Grupo_61738" data-name="Grupo 61738" transform="translate(-147.591 3649.974)">
      <g id="Grupo_61736" data-name="Grupo 61736" transform="translate(328.591 437.362)">
        <path id="Trazado_111713" data-name="Trazado 111713" d="M907.716,653.34c3.852-21.5,4.6-43.9-1.172-64.969s-18.573-40.724-37.359-51.865c-34.056-20.2-77.338-8.729-114.921,3.736,3.069-24.908,4.943-53.605-12.639-71.515-14.8-15.081-38.6-16.835-59.46-13.46A161.117,161.117,0,0,0,606.2,489.975c-24.172,19.845-56.861,24.54-85.889,12.9q-1.62-.65-3.271-1.229c-19.817-6.941-43.212-5.195-60.081,7.309s-25.352,36.428-17.389,55.858c-26.863-10.1-58.524-19.8-82.741-4.4-20.048,12.75-27.346,38.652-28.148,62.4-1.2,35.479,9.246,71,28.43,100.838h525.48A229.692,229.692,0,0,0,907.716,653.34Z" transform="translate(-328.591 -453.816)" fill="#e5ecff"/>
      </g>
      <path id="Trazado_111714" data-name="Trazado 111714" d="M451.588,440.123c-6.8-9.78-15.654-18.155-22.834-22.5-26.5-16.05-51.417,9.952-42.189,37.167,4.692,13.836,16.315,24.337,29.055,31.489,10.291,5.778,23.421,9.658,33.57,3.627C468.969,478.142,463.347,457.033,451.588,440.123Z" transform="translate(-22.412 0)" fill="#e5ecff"/>
      <path id="Trazado_111715" data-name="Trazado 111715" d="M1201.607,485.428c9.7-3.891,18.489-9.718,23.456-14.871,18.328-19.015-.731-44.089-26.216-41.248-12.956,1.445-24.053,9.181-32.367,18.423-6.716,7.465-12.2,17.6-8.465,27.015C1165.3,493.093,1184.828,492.155,1201.607,485.428Z" transform="translate(-331.367 -6.56)" fill="#e5ecff"/>
      <g id="Grupo_61737" data-name="Grupo 61737" transform="translate(329.381 473.696)">
        <path id="Trazado_111716" data-name="Trazado 111716" d="M538.027,545.994c31.41-5.7,67.437-2.511,107.33,9.524,25.061,7.562,49.681,17.791,73.492,27.684,13.409,5.57,27.274,11.33,41.082,16.559a703.987,703.987,0,0,0,234.128,44.988c-.066-.8-.136-1.6-.217-2.405a701.574,701.574,0,0,1-233.06-44.828c-13.772-5.215-27.62-10.967-41.012-16.531-23.866-9.914-48.543-20.167-73.719-27.763-38.415-11.593-73.3-15.014-104.038-10.294-.416.29-.846.557-1.256.861C539.817,544.485,538.913,545.229,538.027,545.994Z" transform="translate(-413.176 -524.983)" fill="#fff"/>
        <path id="Trazado_111717" data-name="Trazado 111717" d="M450.349,626.4c3.891,9.616,13.266,15.533,22.816,20.5,69.163,35.929,149.019,46.608,218.012,52.318,17.177,1.42,34.686,2.619,51.617,3.776,56.827,3.889,115.588,7.909,171.832,21.042,11.433,2.669,25.022,6.514,37.4,12.786.207-.791.388-1.589.585-2.382-12.458-6.23-26.008-10.07-37.444-12.74-56.434-13.178-115.292-17.205-172.213-21.1-16.924-1.158-34.423-2.355-51.585-3.775-68.755-5.689-148.316-16.322-217.1-52.056-9.143-4.749-18.1-10.37-21.7-19.265a21.96,21.96,0,0,1-1.343-5.021q-1.243-.224-2.484-.417A24.351,24.351,0,0,0,450.349,626.4Z" transform="translate(-377.455 -556.663)" fill="#fff"/>
        <path id="Trazado_111718" data-name="Trazado 111718" d="M489.051,780.505c-10.012-5.042-20.1-10.4-29.861-15.578-26.628-14.132-54.162-28.746-83.17-38.642A231.448,231.448,0,0,0,330.2,715.513c-.1.794-.208,1.587-.3,2.382a229.063,229.063,0,0,1,45.337,10.662c28.827,9.835,56.275,24.4,82.82,38.491,9.769,5.186,19.872,10.547,29.906,15.6,34.9,17.574,71.04,32.491,107.788,45.7H603C564.125,814.607,525.877,799.052,489.051,780.505Z" transform="translate(-329.908 -594.855)" fill="#fff"/>
        <path id="Trazado_111719" data-name="Trazado 111719" d="M939.511,534.684c-.019-.806-.052-1.609-.087-2.411-49.458-3.548-98.817-9.376-147.539-17.437q-1.3-.216-2.616-.452c-.836.682-1.7,1.311-2.556,1.956,1.6.311,3.2.6,4.781.863C840.372,525.289,889.892,531.132,939.511,534.684Z" transform="translate(-512.676 -514.383)" fill="#fff"/>
      </g>
    </g>
    <g id="Grupo_61692" data-name="Grupo 61692" transform="translate(-1622.858 3630.863)">
      <g id="Grupo_61690" data-name="Grupo 61690" transform="translate(1939.558 406.971)">
        <path id="Trazado_111577" data-name="Trazado 111577" d="M1932.854,406.971a5.474,5.474,0,1,0,5.472,5.474A5.473,5.473,0,0,0,1932.854,406.971Z" transform="translate(-1927.38 -406.971)" fill="#e8eaff"/>
        <path id="Trazado_111578" data-name="Trazado 111578" d="M1941.749,406.971a5.474,5.474,0,1,0,5.474,5.474A5.473,5.473,0,0,0,1941.749,406.971Z" transform="translate(-1921.831 -406.971)" fill="#e8eaff"/>
        <path id="Trazado_111579" data-name="Trazado 111579" d="M1950.644,406.971a5.474,5.474,0,1,0,5.474,5.474A5.474,5.474,0,0,0,1950.644,406.971Z" transform="translate(-1916.282 -406.971)" fill="#e8eaff"/>
      </g>
      <path id="Trazado_111580" data-name="Trazado 111580" d="M2063.1,479.956l-.742-1.046c-.768-1.093-.768-1.093,4.818-6.612.911-.9,1.625-1.6,1.747-1.728a26.113,26.113,0,0,0,3.415-6.578,26.269,26.269,0,0,1,6.117-51.815h41.91c14.644,0,26.715,11.627,26.9,25.916a26.267,26.267,0,0,1-26.253,26.621h-29.662c-8.535,6.685-20.182,11.7-25.2,13.863-.859.369-1.505.648-1.889.83Zm15.354-64.735a23.222,23.222,0,0,0-3.873,46.118l1.707.284-.5,1.658a30.412,30.412,0,0,1-4.588,9.306c-.034.036-.322.326-.765.766,5.729-2.635,13.481-6.583,19.439-11.349l.416-.335h30.726a23.222,23.222,0,0,0,23.209-23.537c-.167-12.635-10.87-22.912-23.859-22.912Z" transform="translate(90.041 3.248)" fill="#e8eaff"/>
      <path id="Trazado_111581" data-name="Trazado 111581" d="M2118.847,432.567a3.283,3.283,0,0,1-2.006,1.694c.2-2.234-1.736-4.535-4.039-5.243a16.641,16.641,0,0,0-.057-3.194,1.569,1.569,0,0,0-1.614-1.422c-4.441-.091-7.993,2.129-10.9,5.178a49.823,49.823,0,0,0,1.082-6.921,1.542,1.542,0,0,0-1.978-1.734,35.137,35.137,0,0,0-11.87,7.411,23.479,23.479,0,0,0-.653-3.046,1.541,1.541,0,0,0-1.928-.96,20.359,20.359,0,0,0-5.636,2.968,7.3,7.3,0,0,0-2.106-2.546c-4.334-3.371-11.766-.507-12.472,4.985-.249,1.934,2.736,2.528,2.986.581.444-3.444,5.649-5.511,8.1-2.717a4.76,4.76,0,0,1,1.013,1.864,20.388,20.388,0,0,0-5.776,12.234,1.534,1.534,0,0,0,2.647,1.281c2.7-2.91,6.257-7.9,6.333-12.374a17.374,17.374,0,0,1,4.335-2.778,20.248,20.248,0,0,1,.385,3.451,35.161,35.161,0,0,0-8.045,17.636c-.17,1.179,1.255,2.452,2.342,1.552a24.24,24.24,0,0,0,8.736-18.068,32.16,32.16,0,0,1,10.29-7.627,47.783,47.783,0,0,1-3.925,13.476,1.522,1.522,0,0,0,2.74,1.322c2.874-4.987,6.83-11.245,12.968-12.039a14.527,14.527,0,0,1-.06,1.53c-4.974,1.457-7.7,8.046-8.58,12.577a1.541,1.541,0,0,0,2.342,1.554,17.352,17.352,0,0,0,8.832-11.258,1.938,1.938,0,0,1,.313.13,1.691,1.691,0,0,1,.575,2.687c-.941.836-.086,2.207.864,2.483a6.435,6.435,0,0,0,7.5-3.345C2122.483,432.147,2119.744,430.823,2118.847,432.567Zm-37.842,11.286a32.686,32.686,0,0,1,2.936-6.349A21.108,21.108,0,0,1,2081.006,443.853Zm24.352-5.713a13.452,13.452,0,0,1,3.28-4.922A13.308,13.308,0,0,1,2105.358,438.14Z" transform="translate(97.815 8.644)" fill="#d4d4ff"/>
      <path id="Trazado_111582" data-name="Trazado 111582" d="M2035.212,470.484c20.444-2.142,103.449,35.518,126.506,70.872s3.074,50.727-7.686,54.569-115.285-28.437-126.046-39.2S2014.772,472.625,2035.212,470.484Z" transform="translate(69.851 39.566)" fill="#529ad9"/>
      <path id="Trazado_111583" data-name="Trazado 111583" d="M2136.137,575.44c-3.8,4.457-9.371,7.012-15.045,8.122-6.053,1.171-12.854.974-18.588-1.429-6.115-2.556-10.009-8.184-11.56-14.481-1.872-7.561-.716-15.486-.047-23.107q1.1-12.822,2.222-25.616c.349-4.138.714-8.29,1.079-12.427.3-3.545.108-7.712,1.871-10.922,2.967-5.445,10.177-7.53,15.912-8.2,6.251-.745,12.413,1.125,16.017,6.51a20.582,20.582,0,0,1,1.384,2.465,1.205,1.205,0,0,1,.654.607c.062.122.107.245.167.365a44.347,44.347,0,0,1,4.3,15.076q.548,2.509.867,5.065,1.529,7.12,2.646,14.329c.077.456.167.9.259,1.354a187.728,187.728,0,0,1,2.906,23.5C2141.476,563.271,2140.593,570.206,2136.137,575.44Z" transform="translate(113.579 50.064)" fill="#ffc89e"/>
      <path id="Trazado_111584" data-name="Trazado 111584" d="M2135.088,526.254c-5.385,1.825-12.185,1.445-16.688-2.221-2.418-1.962-4.3-4.487-6.737-6.434a47.764,47.764,0,0,0-8.731-5.187,104.061,104.061,0,0,1-17.327-10.5c-4.426-3.392-9.613-7.819-9.218-13.98.411-6.175,5.735-10.435,11.318-12,10.723-3.012,22.74-.395,32.111,5.506a1.231,1.231,0,0,1,1.627-.182,43.562,43.562,0,0,1,20.444,31.533C2142.587,518.6,2141.127,524.186,2135.088,526.254Z" transform="translate(105.12 42.237)" fill="#ffc89e"/>
      <path id="Trazado_111585" data-name="Trazado 111585" d="M2083.575,459.748a184.482,184.482,0,0,1-7.088,25.434c-2.814,8.2-5.812,16.367-9.066,24.4-2.952,7.241-6.435,14.4-11.531,20.4-5.157,6.07-11.88,10.36-19.03,13.707a178.911,178.911,0,0,1-24.185,9.05c-8.184,2.48-16.718,4.228-25.312,4a64.692,64.692,0,0,1-21.037-4.154,71.028,71.028,0,0,1-33.785-26.694c-4.289-6.375-7.864-13.812-7.057-21.693a18.773,18.773,0,0,1,3.7-9.537c2.251-2.89,6.328-4.259,7.85-7.666.867-1.949,1.02-4.23,1.383-6.313.365-2.023.745-4.061,1.233-6.07a37.77,37.77,0,0,1,4.457-11.256,21.131,21.131,0,0,1,17.69-10.358c3.939-.136,8.108.365,11.925-.851,3.758-1.2,6.115-4.3,8.519-7.242a28.233,28.233,0,0,1,7.8-6.966,41.064,41.064,0,0,1,9.6-3.772c7.073-1.916,14.527-2.89,20.991-6.541,6.951-3.956,12.823-9.538,20.642-11.834,14.542-4.259,30.255,1.171,42.059,9.857a1.349,1.349,0,0,1-.076,2.236,15.9,15.9,0,0,1,1.323,8.351c.031.122.076.244.091.349C2086.511,444.02,2084.989,452.371,2083.575,459.748Z" transform="translate(10.924 4.576)" fill="#1a1a1a"/>
      <path id="Trazado_111586" data-name="Trazado 111586" d="M2032.724,418.693c-3.379,1.835-6.3,4.329-9.514,6.417a29.93,29.93,0,0,1-11.07,4.222c-7.621,1.392-15.53,1.054-22.968,3.444-5.964,1.916-11.769,5.994-13.986,12.08a27.637,27.637,0,0,0-.973,4.417c-.448,2.335-1.976,2.445-4.011,2.041a40.692,40.692,0,0,0-9.982-1.2,25.576,25.576,0,0,0-17.666,7.8,22.214,22.214,0,0,0-5.873,17.412c.43,3.4,2.509,6.728.076,9.8-1.916,2.424-4.755,3.931-7.067,5.929a22.508,22.508,0,0,0-7.526,15.746c-.406,7.273,2.806,14.514,9.2,18.253a86.229,86.229,0,0,0,12.32,5.463c4.388,1.707,8.844,3.231,13.346,4.607,1.874.573,2.441-2.418.583-2.986a166.351,166.351,0,0,1-22.415-8.522,16.36,16.36,0,0,1-8.015-7.124,18.192,18.192,0,0,1-2.03-8.624,19.69,19.69,0,0,1,7.863-15.6c2.28-1.734,4.818-3.361,6.484-5.747a8.8,8.8,0,0,0,1.1-7.677,18.642,18.642,0,0,1,3.7-18.328c4.41-5.17,11.234-7.523,17.909-7.39,4.9.1,13.4,4.362,14.925-3a25.52,25.52,0,0,1,.976-4.459,14.221,14.221,0,0,1,2.507-4.051,19.9,19.9,0,0,1,7.916-5.393c7.846-3.027,16.475-2.426,24.628-4.016a32.676,32.676,0,0,0,10.907-4.05c3.551-2.169,6.677-4.953,10.344-6.943C2036.143,420.281,2034.433,417.764,2032.724,418.693Z" transform="translate(8.904 7.186)" fill="#1a1a1a"/>
      <path id="Trazado_111587" data-name="Trazado 111587" d="M2054.6,495.821c-1.8,2.861-4.944,5.339-4.715,9.006.122,1.887.593,3.772-.306,5.552a6.261,6.261,0,0,1-3.772,2.907,29.008,29.008,0,0,1-11.469,1.323c-16.244-1.158-28.81-13.858-31.944-29.48-3.27-16.292,3.758-32.993,15.912-43.9,5.734-5.141,13.492-9.491,21.462-8.062a17.121,17.121,0,0,1,7,3.028c-.214-.442-.427-.9-.671-1.325-.943-1.7,1.582-3.407,2.525-1.7a40.987,40.987,0,0,1,4.518,27.625,50.375,50.375,0,0,1-1.885,6.632c-.943,2.709-2.054,5.674-1.431,8.595.807,3.787,3.789,6.754,5.355,10.206A9.7,9.7,0,0,1,2054.6,495.821Z" transform="translate(58.473 15.901)" fill="#1a1a1a"/>
      <path id="Trazado_111588" data-name="Trazado 111588" d="M2050.693,461.742a31.812,31.812,0,0,1-.578,6.054,36.874,36.874,0,0,1-40.737,15.5c-.865-.227-1.734-.5-2.571-.805a36.846,36.846,0,0,1-13.75-8.748,10.786,10.786,0,0,0,1.049-5.688,47.8,47.8,0,0,0-1.08-6.815c-.851-4.319-1.171-8.473.425-12.671a28.02,28.02,0,0,1,7.226-10.009c1.536-1.46,3.18-3.012,4.928-4.427a30.143,30.143,0,0,1,2.814-2.038c.685-.426,1.171-.7,1.658-.943a5.2,5.2,0,0,1,4.792-.882l.274.091c1.384-.107,2.661-.182,3.97-.182A31.576,31.576,0,0,1,2050.693,461.742Z" transform="translate(52.69 14.386)" fill="#ffc89e"/>
      <path id="Trazado_111589" data-name="Trazado 111589" d="M2123.171,507.291a36.694,36.694,0,0,1-6.738,21.22c-.487,3.058-1.126,6.237-1.978,9.538-10.953,42.666-25.95,106.645-27.67,107.223s-132.581-4.608-136.613-7.5c-3.817-2.723-9.673-89.549-10.8-102.127a36.8,36.8,0,0,1,17.114-42.289c7.544-5.583,20.429-10.435,30.666-13.72,6.83,10.587,21.569,26.1,51.216,25.556,29.982-.549,39.9-22.362,43.095-34.424a36.254,36.254,0,0,1,4.866-.32A36.843,36.843,0,0,1,2123.171,507.291Z" transform="translate(18.74 39.6)" fill="#529ad9"/>
      <path id="Trazado_111590" data-name="Trazado 111590" d="M1981.762,593.2a36.841,36.841,0,1,1-36.84-36.841A36.842,36.842,0,0,1,1981.762,593.2Z" transform="translate(0.139 93.191)" fill="#7966f3"/>
      <path id="Trazado_111591" data-name="Trazado 111591" d="M2062.541,470.647c-3.2,12.062-13.112,33.875-43.095,34.424-29.646.547-44.386-14.969-51.214-25.556.115.179,10.7-2.76,11.748-3.006a95.493,95.493,0,0,1,12.8-1.772c22.961-2.2,45.9-4.068,69-3.985C2062.022,470.722,2062.282,470.678,2062.541,470.647Z" transform="translate(37.663 39.723)" fill="#ffc89e"/>
      <path id="Trazado_111592" data-name="Trazado 111592" d="M2035.49,460.413l-4.288,10.009-.533,1.247-7.226,16.868-.776,1.8-2.738,6.388-38.621,3.469,9.568-28.7a7.212,7.212,0,0,0,2.632.64c3.072.167,5.7-1.811,7.711-4.319a24.893,24.893,0,0,0,3.089-5.188,23.239,23.239,0,0,0,1.9-7.575,16.813,16.813,0,0,0-.122-4.274Z" transform="translate(45.82 27.322)" fill="#ffc89e"/>
      <path id="Trazado_111593" data-name="Trazado 111593" d="M2021.748,466.771l-7.226,16.868c-9.508-4.167-17.964-11.956-18.908-22.816a1.349,1.349,0,0,1,.685-1.338,1.365,1.365,0,0,1,1.947-.669c5.826,3.421,12.4,5.034,18.891,6.708A33.844,33.844,0,0,1,2021.748,466.771Z" transform="translate(54.741 32.221)" fill="#ff7e64"/>
      <path id="Trazado_111594" data-name="Trazado 111594" d="M2013.64,469.515a1.533,1.533,0,0,0-.711-2.031,1.556,1.556,0,0,0-2.031.71,61.24,61.24,0,0,0-5.557,11.6,6.119,6.119,0,0,0,.479,5.472,12.377,12.377,0,0,0,3.873,3.517,1.574,1.574,0,0,0,2.145-.164,1.532,1.532,0,0,0-.164-2.147,11.142,11.142,0,0,1-3.187-2.691c-.982-1.413-.377-2.827.2-4.287A68.9,68.9,0,0,1,2013.64,469.515Z" transform="translate(60.548 37.655)" fill="#ff7e64"/>
      <path id="Trazado_111595" data-name="Trazado 111595" d="M2051.147,462.235c.06.822.122,1.658.122,2.494a31.536,31.536,0,0,1-31.578,31.579,31.46,31.46,0,0,1-14.985-3.772c-.258-.136-.516-.289-.76-.425a31.61,31.61,0,0,1-12.245-12.762c-.105-.2-.2-.4-.3-.593a4.74,4.74,0,0,0,.335-.427,8.669,8.669,0,0,0,1.216-2.312c.229.244.456.487.685.714a10.786,10.786,0,0,0,1.049-5.688,47.8,47.8,0,0,0-1.08-6.815c-.851-4.319-1.171-8.473.425-12.671a24.036,24.036,0,0,1,4.4-7.059,25.387,25.387,0,0,1,4.03-8.182c8.093-11,23.624-14.421,35.412-7.453a27.53,27.53,0,0,1,12.275,15.043C2052.06,449.837,2051.953,456.105,2051.147,462.235Z" transform="translate(52.114 11.399)" fill="#ffc89e"/>
      <path id="Trazado_111596" data-name="Trazado 111596" d="M2045.557,557.832a26.468,26.468,0,0,1-3.15,5.6c-1.07,1.666-2.166,3.3-3.306,4.928a123.525,123.525,0,0,1-16.975,19.419c-3.051,2.83-6.2,5.862-9.93,7.757a21.186,21.186,0,0,1-11.391,1.983,38.454,38.454,0,0,1-20.632-8.059c-4.43-3.59-7.018-8.431-6.822-13.79a8.519,8.519,0,0,1-.969-3.017c-.536-4.482,2.39-8.531,4.6-12.109,2.882-4.669,5.766-9.352,8.663-14.005,2.335-3.735,4.894-6.838,9.381-7.642,3.938-.7,8.2-.216,12.166.057a104.4,104.4,0,0,1,12.32,1.465,55.64,55.64,0,0,1,21.686,8.562C2044.121,551.009,2046.822,553.953,2045.557,557.832Z" transform="translate(40.211 82.074)" fill="#ffc89e"/>
      <path id="Trazado_111597" data-name="Trazado 111597" d="M2214.509,645.239H2043.6a8.644,8.644,0,0,1-7.894-5.122l-42.359-94.926a8.642,8.642,0,0,1,7.894-12.164H2172.15a8.641,8.641,0,0,1,7.892,5.121l42.359,94.924A8.643,8.643,0,0,1,2214.509,645.239Z" transform="translate(52.857 78.638)" fill="#f9ca48"/>
      <path id="Trazado_111598" data-name="Trazado 111598" d="M2057.522,549.316c-1.674,3.222-5.607,2.376-8.4,2.392-.83,0-1.643.016-2.473.016,1.112,0,.607,6.11.378,6.793-1.585,4.756-5.451,6.383-9.564,4.893.677.245-4.318,4.513-5.185,4.688a8.843,8.843,0,0,1-6.862-1.97c.228.185-2.34,4.263-2.788,4.651a4.314,4.314,0,0,1-5.326.49c-2.52-.5-4.558-2.669-6.263-4.881-2.636-3.418-5.446-6.737-8.943-9.1a18.287,18.287,0,0,0-5.547-2.652,28.264,28.264,0,0,0-6.627-.521,11.594,11.594,0,0,1-4.69-1.122c-1.457,2.212-2.781,4.539-4.064,6.786a1.49,1.49,0,1,1-2.621-1.416c.685-1.2,1.4-2.441,2.142-3.662a15.814,15.814,0,0,0,3.509-4.638l.83-1.513c.132-.261.278-.521.408-.765.073-.132.146-.261.219-.375a24.327,24.327,0,0,1,9.787-7.794,1.356,1.356,0,0,1,.422-.408,48.728,48.728,0,0,1,13.064-5.646,25.065,25.065,0,0,1,12.786-4.313,20.975,20.975,0,0,1,10.589,2.588,34.638,34.638,0,0,1,16.98,1.773,14.286,14.286,0,0,1,7.572,6.607C2058.208,542.871,2058.964,546.5,2057.522,549.316Z" transform="translate(43.956 76.275)" fill="#ffc89e"/>
      <path id="Trazado_111599" data-name="Trazado 111599" d="M2127.176,488.461v18.012c-6.681,2.205-14.16,5.312-19.674,9.4-12.653,9.373-20.936,22.359-42.169,21.085-9.542-.573-16.439,2.583-21.55,7.01v-55.5a9.132,9.132,0,0,1,9.132-9.136h65.128A9.132,9.132,0,0,1,2127.176,488.461Z" transform="translate(84.793 45.136)" fill="#d4d4ff"/>
      <path id="Trazado_111600" data-name="Trazado 111600" d="M2127.176,496.043v47.115a9.134,9.134,0,0,1-9.132,9.136h-65.128a9.134,9.134,0,0,1-9.132-9.136v-9.624c5.11-4.426,12.008-7.583,21.55-7.01,21.233,1.273,29.516-11.713,42.169-21.085C2113.017,501.355,2120.5,498.248,2127.176,496.043Z" transform="translate(84.793 55.565)" fill="#a2a0eb"/>
      <path id="Trazado_111601" data-name="Trazado 111601" d="M2083.395,501.151a16.633,16.633,0,1,1-16.633-16.633A16.633,16.633,0,0,1,2083.395,501.151Z" transform="translate(88.752 48.376)" fill="#fff"/>
      <path id="Trazado_111602" data-name="Trazado 111602" d="M2136.508,506.537c-2.034,3.714-6.028,4.888-9.965,5.359a69.334,69.334,0,0,0-6.948,1.036,68.439,68.439,0,0,0-6.635,2.109c-3.436,1.14-8.062,1.669-9.849-2.348a6.237,6.237,0,0,1-.343-1.015c-2.97,1.447-6.9,1.757-9.262-.952a6.831,6.831,0,0,1-1.317-5.882c-2.739,1.7-5.849,2.912-9,2.236a6.726,6.726,0,0,1-5.177-6.417c-3.244,1.9-6.6,2.406-9.057-1.3-2.131-3.235-1.075-7.184.414-10.457a36.359,36.359,0,0,1,6.276-9.527c5.154-5.638,12.291-10.011,20.032-10.651,6.8-.559,13.825,2.015,18.013,7.5a16.959,16.959,0,0,1,3.122,1.431,11.547,11.547,0,0,1,3.225,1.965,34.283,34.283,0,0,1,9.635,5.925C2135.129,490.409,2140.513,499.194,2136.508,506.537Z" transform="translate(99.743 38.477)" fill="#ffc89e"/>
      <path id="Trazado_111603" data-name="Trazado 111603" d="M2231.059,525.133l.883-5.013a11.68,11.68,0,0,0-11.5-13.708h-52.268a11.68,11.68,0,0,0-9.918,5.508l-8.223,13.213h-98.984a11.682,11.682,0,0,0-11.5,9.652L2019.4,649a11.681,11.681,0,0,0,11.505,13.708h166.113a11.68,11.68,0,0,0,11.5-9.652l22.555-127.922Z" transform="translate(69.473 62.034)" fill="#fcd770"/>
      <path id="Trazado_111604" data-name="Trazado 111604" d="M1994.081,480.491c-12.3,3.842-33.05,7.686-59.18,62.254s-31.512,97.608-23.826,107.6,56.106,27.668,68.4,4.612,44.577-108.369,46.883-117.591S1994.081,480.491,1994.081,480.491Z" transform="translate(0 45.864)" fill="#529ad9"/>
      <path id="Trazado_111605" data-name="Trazado 111605" d="M1976.489,526.679a192.313,192.313,0,0,0-23.239,58.088c-.422,1.916,2.564,2.494,2.986.583A189.845,189.845,0,0,1,1979.23,528C1980.244,526.327,1977.5,525.013,1976.489,526.679Z" transform="translate(28.292 74.197)" fill="#e8eaff"/>
      <path id="Trazado_111606" data-name="Trazado 111606" d="M1993.545,621.616q-1.369.709-2.738,1.323a74.4,74.4,0,0,1-12.078,4.563c-28.43,7.682-47.656,3.85-59.171-8.457-11.531-12.291-7.7-42.271,6.145-46.1,8.093-2.252,35.365-8.444,56.616-13.189,1.14-.26,2.267-.5,3.377-.762a30.079,30.079,0,0,0-1.309,7.379,162.807,162.807,0,0,0-.091,18.693,100.894,100.894,0,0,0,2.6,19.79A63.771,63.771,0,0,0,1993.545,621.616Z" transform="translate(3.053 94.835)" fill="#529ad9"/>
      <path id="Trazado_111607" data-name="Trazado 111607" d="M2017.424,587.087s-26.119,24.52-51.279,37.145a63.771,63.771,0,0,1-6.646-16.763,100.894,100.894,0,0,1-2.6-19.79,162.807,162.807,0,0,1,.091-18.693,30.079,30.079,0,0,1,1.309-7.379c13.476-3,30.309-6.807,30.309-6.807Z" transform="translate(30.453 92.22)" fill="#ffc89e"/>
      <path id="Trazado_111608" data-name="Trazado 111608" d="M2114.66,483.171c-6.12,1.122-12.45,2.3-17.666,5.919a20.479,20.479,0,0,0-8.51,14.485,1.548,1.548,0,0,0,1.2,1.785,1.96,1.96,0,0,0,2.372-2.095,1.4,1.4,0,0,0-.291-.783,17.122,17.122,0,0,1,7.26-11.1c4.694-3.124,10.375-4.178,15.828-5.178C2116.761,485.858,2116.584,482.819,2114.66,483.171Z" transform="translate(112.669 47.518)" fill="#ff7e64"/>
      <path id="Trazado_111609" data-name="Trazado 111609" d="M2109.948,476.085a43.243,43.243,0,0,0-18.707,9.365c-5.062,4.362-10.035,10.443-9.222,17.567.222,1.942,3.259,1.754,3.036-.195-.734-6.432,4.251-11.935,8.9-15.7a41.187,41.187,0,0,1,16.959-8.155C2112.827,478.542,2111.841,475.661,2109.948,476.085Z" transform="translate(108.592 43.089)" fill="#ff7e64"/>
      <path id="Trazado_111610" data-name="Trazado 111610" d="M2104.425,472.207c-9.4-.723-17.545,5.9-23.518,12.474a28.638,28.638,0,0,0-6.742,11.5c-1.067,3.891-.913,8.821,3.04,11.019,4.517,2.512,9.317-.317,12.688-3.355,1.45-1.3-.869-3.277-2.31-1.981-1.685,1.518-3.733,3.054-6.078,3.222a4.221,4.221,0,0,1-4.667-2.973c-1.184-4.246,1.546-9.277,3.995-12.568a47.065,47.065,0,0,1,9.689-9.537c3.843-2.851,8.4-5.193,13.319-4.815C2105.774,475.342,2106.376,472.358,2104.425,472.207Z" transform="translate(103.394 40.662)" fill="#ff7e64"/>
      <path id="Trazado_111611" data-name="Trazado 111611" d="M2095.019,495.7a1.731,1.731,0,0,0-2.454.317c-.338.114-.615.2-.894.289a14.945,14.945,0,0,1-1.5.39,7.784,7.784,0,0,1-1.8.149,4.756,4.756,0,0,1-.65-.08c-.141-.026-.281-.062-.421-.093a7.657,7.657,0,0,1-.7-.315,3.093,3.093,0,0,1-.338-.229,5.7,5.7,0,0,1-.489-.438c-.135-.169-.206-.263-.273-.362a3.325,3.325,0,0,1-.354-.827,3.62,3.62,0,0,1,.1-.921,1.53,1.53,0,0,0-1.2-1.785,1.56,1.56,0,0,0-1.785,1.2,5.006,5.006,0,0,0,1.332,4.789,6.584,6.584,0,0,0,4.6,2.075,15.028,15.028,0,0,0,5.651-1.064,2.409,2.409,0,0,0,1.557-1.109A1.685,1.685,0,0,0,2095.019,495.7Z" transform="translate(108.683 52.898)" fill="#ff7e64"/>
      <path id="Trazado_111612" data-name="Trazado 111612" d="M2116.36,492.525a18.153,18.153,0,0,0-12.911,2.713c-1.943,1.291-3.52,3.03-5.88,3.558a7.6,7.6,0,0,1-3.356,0c-.576-.132-2.04-.625-1.971-1.434.159-1.932-2.826-2.535-2.988-.583-.5,5.966,7.992,5.883,11.62,4.009,2.442-1.263,4.264-3.357,6.864-4.391a15.147,15.147,0,0,1,8.042-.887C2117.71,495.82,2118.3,492.836,2116.36,492.525Z" transform="translate(113.147 53.223)" fill="#ff7e64"/>
      <path id="Trazado_111613" data-name="Trazado 111613" d="M2097.346,467.577a34.319,34.319,0,0,0-22.264,11.485,32.809,32.809,0,0,0-6.443,10.875c-1.33,3.827-2.343,8.717.364,12.216a7.555,7.555,0,0,0,11.209.456c1.374-1.393-.937-3.373-2.311-1.983a4.548,4.548,0,0,1-5.256.724c-2.079-1.117-2.454-3.678-2.254-5.818.4-4.323,2.563-8.678,5.1-12.136a31.37,31.37,0,0,1,22.05-12.783C2099.489,470.429,2099.3,467.392,2097.346,467.577Z" transform="translate(99.462 37.803)" fill="#ff7e64"/>
      <path id="Trazado_111614" data-name="Trazado 111614" d="M2120.914,504.968c-4.246,1.4-9.549,1.642-12.376-2.473-2.315-3.373-3.573-7.971-8.184-8.837a1.522,1.522,0,0,0-.582,2.986c2.051.385,3.272,2.262,4.216,3.965,1.12,2.022,2.085,4.146,3.875,5.687,3.913,3.369,9.407,3.076,14.02,1.557A1.523,1.523,0,0,0,2120.914,504.968Z" transform="translate(118.98 54.059)" fill="#ff7e64"/>
      <path id="Trazado_111615" data-name="Trazado 111615" d="M2012.938,449.705a4.717,4.717,0,0,0-.128-.8,2.375,2.375,0,0,0-.151-.456,1.6,1.6,0,0,0-.781-.885,1.561,1.561,0,0,0-1.145-.073,4.164,4.164,0,0,0-1.885,1.349,4.284,4.284,0,0,0-.908,2.1,5.368,5.368,0,0,0-.039.737,1.876,1.876,0,0,0,.591,1.33,2.216,2.216,0,0,0,1.53.565,1.871,1.871,0,0,0,.422-.046,2.576,2.576,0,0,0,.674-.229,2.789,2.789,0,0,0,1.172-1.12,9.773,9.773,0,0,0,.507-1.216A3.825,3.825,0,0,0,2012.938,449.705Z" transform="translate(62.408 25.23)" fill="#1a1a1a"/>
      <path id="Trazado_111616" data-name="Trazado 111616" d="M2027.192,451.587a2.9,2.9,0,0,0-.5-1.3,2.938,2.938,0,0,0-.4-.438,3.008,3.008,0,0,0-.542-.365c-.26-.1-.336-.132-.445-.166a2.045,2.045,0,0,0-.643-.063,1.952,1.952,0,0,0-.688.148,2.442,2.442,0,0,0-1.268,1.135,2.935,2.935,0,0,0-.341,1.06,5.752,5.752,0,0,0-.041,1.192,1.542,1.542,0,0,0,.1.343,5.749,5.749,0,0,0-.073.745,1.456,1.456,0,0,0,.692,1.166,1.121,1.121,0,0,0,.534.231,1.51,1.51,0,0,0,.774-.05c.369-.172.739-.344,1.088-.549a4.565,4.565,0,0,0,.956-.763,2.933,2.933,0,0,0,.679-1.132A2.5,2.5,0,0,0,2027.192,451.587Z" transform="translate(71.398 26.374)" fill="#1a1a1a"/>
      <path id="Trazado_111617" data-name="Trazado 111617" d="M2032.561,445.834a5.335,5.335,0,0,0-7.346,0,7.864,7.864,0,0,0-1.522,1.825c-.9-.684-1.932-1.658-1.719-2.783a9.526,9.526,0,0,1,4.016-3,8.031,8.031,0,0,1,8.55,1.642C2035.877,444.921,2033.9,447.248,2032.561,445.834Z" transform="translate(71.171 21.427)" fill="#1a1a1a"/>
      <path id="Trazado_111618" data-name="Trazado 111618" d="M2022.708,444.4a14.3,14.3,0,0,0-8.4-3.939c-3.033-.323-7.1.088-9.28,2.484-1.313,1.45.992,3.434,2.309,1.983a5.906,5.906,0,0,1,3.144-1.335,11.349,11.349,0,0,1,3.7-.089,11.558,11.558,0,0,1,6.549,3.205C2022.123,448.084,2024.1,445.773,2022.708,444.4Z" transform="translate(60.372 20.833)" fill="#1a1a1a"/>
      <path id="Trazado_111619" data-name="Trazado 111619" d="M2028.04,465.367a3.061,3.061,0,0,1-2.129,3.087c-1.887.533-2.86-2.356-.974-2.889.274-.076-.395-.989-.578-1.216-.533-.716-1.094-1.4-1.567-2.176a17.637,17.637,0,0,1-1.84-14.634,13.1,13.1,0,0,1,2.16-4.03c-.213,1.125.822,2.1,1.719,2.783a12.258,12.258,0,0,0-1.674,6.374,15.018,15.018,0,0,0,2.921,8.944C2026.929,462.768,2027.995,463.846,2028.04,465.367Z" transform="translate(70.033 22.793)" fill="#ff7e64"/>
      <path id="Trazado_111620" data-name="Trazado 111620" d="M2022.612,462.957a1.566,1.566,0,0,0-1.926-.96c-.386.067-.551.086-.716.1a8.747,8.747,0,0,1-1.052.031c-.4-.032-.559-.054-.723-.08a9,9,0,0,1-1.031-.227c-.377-.123-.533-.182-.685-.247a8.7,8.7,0,0,1-.892-.435c-.12-.068-.239-.141-.357-.214a9.765,9.765,0,0,1-1.094-.9,1.535,1.535,0,0,0-2.147.164,1.559,1.559,0,0,0,.164,2.145,10.417,10.417,0,0,0,9.5,2.551A1.526,1.526,0,0,0,2022.612,462.957Z" transform="translate(64.739 32.868)" fill="#ff7e64"/>
      <path id="Trazado_111621" data-name="Trazado 111621" d="M2061.49,454.861c-.029.9-.775,1.887-1.809,1.6-1.233-.351-2.465-.669-3.7-.989-5.339.045-10.664-.213-15.987-.669-.06-.578-.122-1.156-.2-1.734-.776-6.693-2.191-13.31-5.476-19.242-.836-1.522-3.24-.258-2.692,1.323a32.624,32.624,0,0,1,.655,18.877c-1.445-.153-2.891-.335-4.336-.516-.016-.5-.031-.989-.045-1.476q-.229-5.661-.426-11.318c0-.913-.031-1.811-.093-2.721a1.525,1.525,0,0,0-3.042.2c.029.838.06,1.674.091,2.525a33.653,33.653,0,0,1-2.16,12c-8.473-1.216-16.915-2.676-25.327-3.97-1.78-.273-1.416-2.783.151-2.965a21.108,21.108,0,0,1-.167-3.5,23.885,23.885,0,0,1,6.541-15.3c5.614-5.994,13.523-8.472,21.4-8.122a34.57,34.57,0,0,1,14.481,3.939,45.939,45.939,0,0,1,14.8,12.823C2058.372,441.142,2061.795,447.743,2061.49,454.861Z" transform="translate(54.837 7.394)" fill="#1a1a1a"/>
      <path id="Trazado_111622" data-name="Trazado 111622" d="M2005.166,452.542a11.337,11.337,0,1,1-11.337-11.336A11.338,11.338,0,0,1,2005.166,452.542Z" transform="translate(46.559 21.357)" fill="#ffc89e"/>
      <path id="Trazado_111623" data-name="Trazado 111623" d="M2000.308,457.98c-3.248-4.833-8.709-7.724-11.552-12.784a1.536,1.536,0,0,0-2.113-.412,1.554,1.554,0,0,0-.412,2.111c2.876,5.117,8.35,8.018,11.553,12.786A1.522,1.522,0,0,0,2000.308,457.98Z" transform="translate(48.742 23.433)" fill="#ff7e64"/>
      <g id="Grupo_61691" data-name="Grupo 61691" transform="translate(2029.884 443.649)">
        <path id="Trazado_111624" data-name="Trazado 111624" d="M2022.332,433.1a5.3,5.3,0,0,0-3.132-3.163c-.236-.076-.338-.107-.438-.136a6.254,6.254,0,0,0-5.3.882c-.539.244-1.078.516-1.583.807-.084.044-.167.089-.251.136a32.883,32.883,0,0,0-3.116,2.038c-1.937,1.414-3.756,2.967-5.456,4.427-3.3,2.829-6.367,6.13-8,10.009-1.769,4.2-1.414,8.351-.471,12.671a43.671,43.671,0,0,1,1.2,6.815,9.882,9.882,0,0,1-1.163,5.688,7.705,7.705,0,0,1-.825,1.216,4.407,4.407,0,0,1-.37.427c-.3.335-.606.653-.944.973-2.762,2.723-6.3,4.777-8.269,8.124-2.34,3.969-.943,7.468,1.549,11,1.364,1.918,2.426,3.681,2.106,6.055-.338,2.4-1.432,4.654-1.635,7.072a10.646,10.646,0,0,0,5.458,9.706c6.838,4.183,15.612.38,17.766-6.008a1.488,1.488,0,0,0,.388-.685,21.619,21.619,0,0,0,.336-8.7c-.537-3.058-1.9-5.628-3.2-8.442a5.632,5.632,0,0,1-.1-4.928,7.907,7.907,0,0,1,.437-.807c1.229-2.007,3.452-3.71,5.373-5.445.117-.107.235-.214.354-.32a19.644,19.644,0,0,0,1.9-2.023,14.084,14.084,0,0,0,3.183-11.575c-.893-5.9-3.806-11.394-4.21-17.372-.219-3.179.066-8.884,2.476-12.413a6.566,6.566,0,0,1,5.388-3.118A1.5,1.5,0,0,0,2022.332,433.1Z" transform="translate(-1983.005 -429.558)" fill="#1a1a1a"/>
      </g>
      <path id="Trazado_111625" data-name="Trazado 111625" d="M2002.534,455.99a22.832,22.832,0,0,1-1.841,7.422c-1.794,4.154-5.688,9.949-10.86,9.66a7.212,7.212,0,0,1-2.632-.64l7.728-23.182,7.484,2.465A16.813,16.813,0,0,1,2002.534,455.99Z" transform="translate(49.496 26.375)" fill="#1a1a1a"/>
      <path id="Trazado_111626" data-name="Trazado 111626" d="M2024.131,416.879c-1.546-.1-2.76.974-3.813,1.968a16.731,16.731,0,0,0-.594-2.772,1.533,1.533,0,0,0-2.936.193,20.516,20.516,0,0,0,.235,7.145,1.3,1.3,0,0,0,.776.878,1.313,1.313,0,0,0,.232.7,1.549,1.549,0,0,0,2.111.412l3.485-2.325c1.19-.794,2.656-1.528,3.069-3.009A2.675,2.675,0,0,0,2024.131,416.879Z" transform="translate(67.824 5.052)" fill="#1a1a1a"/>
      <path id="Trazado_111627" data-name="Trazado 111627" d="M2019.875,557.228c-.438-6.016-3.967-10.735-8.166-14.786-4.521-4.36-9.685-9.3-16.245-9.928-1.934-.185-2.533,2.8-.583,2.986,5.506.528,9.683,4.44,13.559,8.036,4.17,3.873,8.09,8.22,8.415,14.2a12.436,12.436,0,0,1-2.08,8.124c-1.794,2.327-4.5,2.3-6.632.408-2.088-1.848-2.842-4.717-3.667-7.276a19.559,19.559,0,0,0-3.326-6.822c-3.03-3.576-8.906-4.532-11.674-.119-1.038,1.656,1.71,2.968,2.741,1.322,1.466-2.34,4.876-1.133,6.357.456,1.984,2.13,2.662,5.126,3.56,7.809,1.531,4.571,5.13,10.329,10.854,8.954C2018.526,569.259,2020.231,562.119,2019.875,557.228Z" transform="translate(50.773 78.311)" fill="#ff7e64"/>
      <path id="Trazado_111628" data-name="Trazado 111628" d="M2024.265,551.858c-1.19-5.8-4.172-10.6-8.111-14.946-3.128-3.447-8.079-9.758-13.424-7.863-1.846.654-.878,3.54.969,2.884,2.353-.833,4.488,1.341,6.062,2.829,1.635,1.546,3.248,3.132,4.735,4.823a28.192,28.192,0,0,1,6.426,11.265c.963,3.623,2.225,8.708,1.016,12.421-1.6,4.925-7.458,2.988-10.871,1.5-1.79-.781-3.121,1.953-1.32,2.741,4.334,1.9,10.363,3.608,13.8-.844C2026.677,562.611,2025.2,556.4,2024.265,551.858Z" transform="translate(58.565 75.939)" fill="#ff7e64"/>
      <path id="Trazado_111629" data-name="Trazado 111629" d="M2028.7,547.93c-1.523-8.278-7.853-14.733-15.4-18-1.791-.775-3.126,1.962-1.322,2.741,6.031,2.608,11.3,7.372,13.259,13.8a18.129,18.129,0,0,1,.2,9.842c-.716,2.723-2.951,7.781-6.447,7.533-1.931-.138-2.535,2.847-.583,2.986,4.235.3,7.174-3.081,8.835-6.635A20.411,20.411,0,0,0,2028.7,547.93Z" transform="translate(64.419 76.621)" fill="#ff7e64"/>
      <path id="Trazado_111630" data-name="Trazado 111630" d="M1999.8,554.541c-22.433,5.573-45.456,11.232-68.75,9.028-1.936-.183-2.535,2.8-.583,2.986,23.854,2.257,47.318-3.42,70.3-9.129C2002.667,556.954,2001.685,554.073,1999.8,554.541Z" transform="translate(13.354 92.026)" fill="#e8eaff"/>
      <path id="Trazado_111631" data-name="Trazado 111631" d="M1997.731,542.4c-9.246,1.223-6.83,15.655-6.221,21.889.812,8.332,1.642,17.985-4.527,24.627-1.332,1.434.978,3.417,2.311,1.981,5.019-5.4,6.112-13.033,5.789-20.139-.206-4.574-.914-9.11-1.086-13.686-.12-3.225-.688-11.026,3.928-11.636C1999.86,545.181,1999.675,542.143,1997.731,542.4Z" transform="translate(49.11 84.475)" fill="#ff7e64"/>
      <path id="Trazado_111632" data-name="Trazado 111632" d="M2043.386,518.906c-4.852,3.74-5.779,9.881-6.391,15.607-.862,8.092-2.319,16.082-3.908,24.059q-4.962,24.893-9.983,49.774-2.838,14.14-5.674,28.279a1.522,1.522,0,0,0,2.986.583q4.852-24.187,9.7-48.371c3.162-15.764,6.867-31.531,9.1-47.458.52-3.71.742-7.474,1.416-11.161.606-3.306,1.689-6.661,4.448-8.788C2046.627,520.239,2044.94,517.707,2043.386,518.906Z" transform="translate(68.332 69.632)" fill="#fff"/>
      <path id="Trazado_111633" data-name="Trazado 111633" d="M2170.869,488.118c-1.418-9.194-9-16.956-17.932-19.332a26.6,26.6,0,0,0-.742-9.22c-3.956-14.558-20.067-21.667-34.031-21.571-1.961.013-1.757,3.05.2,3.037,10.866-.075,22.531,4.318,28.5,13.845a22.385,22.385,0,0,1,3.176,13.338,20.844,20.844,0,0,0-5.2-.044c-6.145.76-12.805,4.466-14.947,10.594-1.021,2.928-.628,6.349,2.088,8.208,2.3,1.57,5.383,1.447,7.937.63,7.044-2.254,11.193-8.72,12.6-15.769,7.207,2.044,13.39,8.041,15.1,15.368,3.12,13.374-8.749,24.9-17.966,32.615-1.486,1.244.2,3.782,1.7,2.523C2161.257,514.044,2173.064,502.361,2170.869,488.118Zm-26.474-6.877a13.562,13.562,0,0,1-5.927,3.618c-2.387.635-5.828.339-6.087-2.761s2.356-6.067,4.684-7.755a17.248,17.248,0,0,1,7.708-3.1,18.287,18.287,0,0,1,4.83.008A19.729,19.729,0,0,1,2144.4,481.241Z" transform="translate(130.337 19.353)" fill="#d4d4ff"/>
    </g>
  </g>
</svg>
