<svg xmlns="http://www.w3.org/2000/svg" width="716" height="342" viewBox="0 0 716 342">
  <g id="Grupo_61762" data-name="Grupo 61762" transform="translate(-442 -7829)">
    <rect id="Rectángulo_6167" data-name="Rectángulo 6167" width="716" height="342" transform="translate(442 7829)" fill="#fff"/>
    <g id="Grupo_61718" data-name="Grupo 61718" transform="translate(0 1594)">
      <g id="Grupo_61711" data-name="Grupo 61711" transform="translate(9 115)">
        <g id="Grupo_61702" data-name="Grupo 61702" transform="translate(201 5752)">
          <rect id="Rectángulo_5987" data-name="Rectángulo 5987" width="139" height="139" transform="translate(326 504)" fill="none"/>
          <g id="restaurant" transform="translate(333 511)">
            <rect id="Rectángulo_6156" data-name="Rectángulo 6156" width="97" height="56" transform="translate(14 67)" fill="#ececec"/>
            <rect id="Rectángulo_6157" data-name="Rectángulo 6157" width="97" height="6" transform="translate(14 117)" fill="#b6c1ce"/>
            <path id="Trazado_111679" data-name="Trazado 111679" d="M128.774,88H44.1L32,124.29v6.048a6.048,6.048,0,0,0,12.1,0,6.048,6.048,0,0,0,12.1,0,6.048,6.048,0,1,0,12.1,0,6.048,6.048,0,0,0,12.1,0,6.048,6.048,0,0,0,12.1,0,6.048,6.048,0,1,0,12.1,0,6.048,6.048,0,0,0,12.1,0,6.048,6.048,0,0,0,12.1,0,6.048,6.048,0,1,0,12.1,0V124.29Z" transform="translate(-23.935 -65.823)" fill="#fb5968"/>
            <path id="Trazado_111680" data-name="Trazado 111680" d="M38.048,244.1a6.048,6.048,0,0,0,6.048-6.048,6.048,6.048,0,0,0,12.1,0,6.048,6.048,0,1,0,12.1,0,6.048,6.048,0,0,0,12.1,0,6.048,6.048,0,0,0,12.1,0,6.048,6.048,0,1,0,12.1,0,6.048,6.048,0,0,0,12.1,0,6.048,6.048,0,0,0,12.1,0,6.048,6.048,0,1,0,12.1,0V232H32v6.048A6.048,6.048,0,0,0,38.048,244.1Z" transform="translate(-23.935 -173.532)" fill="#cd2c5a"/>
            <circle id="Elipse_4333" data-name="Elipse 4333" cx="24" cy="24" r="24" transform="translate(38 2)" fill="#ffeaa7"/>
            <g id="Grupo_61699" data-name="Grupo 61699" transform="translate(2.016 100.806)">
              <path id="Trazado_111681" data-name="Trazado 111681" d="M38.242,406.048c-.123,0-.238.028-.359.036a5.935,5.935,0,0,0-7.107-3.883,5.971,5.971,0,0,0-9.262,0,5.935,5.935,0,0,0-7.107,3.883c-.121-.008-.236-.036-.359-.036A6.048,6.048,0,0,0,8,412.1v10.081H44.29V412.1A6.048,6.048,0,0,0,38.242,406.048Z" transform="translate(-8 -400)" fill="#92e0c0"/>
              <path id="Trazado_111682" data-name="Trazado 111682" d="M374.242,406.048c-.123,0-.238.028-.359.036a5.935,5.935,0,0,0-7.107-3.883,5.971,5.971,0,0,0-9.262,0,5.935,5.935,0,0,0-7.107,3.883c-.121-.008-.236-.036-.359-.036A6.048,6.048,0,0,0,344,412.1v10.081h36.29V412.1A6.048,6.048,0,0,0,374.242,406.048Z" transform="translate(-259.323 -400)" fill="#92e0c0"/>
            </g>
            <g id="Grupo_61700" data-name="Grupo 61700" transform="translate(1.629 114.821)">
              <rect id="Rectángulo_6158" data-name="Rectángulo 6158" width="37" height="8" transform="translate(84.371 0.179)" fill="#d3a06c"/>
              <rect id="Rectángulo_6159" data-name="Rectángulo 6159" width="36" height="8" transform="translate(0.371 0.179)" fill="#d3a06c"/>
            </g>
            <rect id="Rectángulo_6160" data-name="Rectángulo 6160" width="33" height="44" transform="translate(46 79)" fill="#eabd8c"/>
            <rect id="Rectángulo_6161" data-name="Rectángulo 6161" width="33" height="6" transform="translate(46 117)" fill="#d3a06c"/>
            <g id="Grupo_61701" data-name="Grupo 61701" transform="translate(24.43 80.619)">
              <rect id="Rectángulo_6162" data-name="Rectángulo 6162" width="13" height="12" transform="translate(-0.43 0.381)" fill="#39c3fc"/>
              <rect id="Rectángulo_6163" data-name="Rectángulo 6163" width="12" height="12" transform="translate(64.57 0.381)" fill="#39c3fc"/>
            </g>
            <path id="Trazado_111683" data-name="Trazado 111683" d="M117.875,104.893a7.993,7.993,0,0,0-4.972-3.829V72.294a8.056,8.056,0,0,0,6.048-7.778V58.141l-12.659-37.98H87.978a26.179,26.179,0,0,0-50.956,0H18.708L6.048,58.141v6.375A8.056,8.056,0,0,0,12.1,72.294v28.77a7.986,7.986,0,0,0-4.972,3.829A8.077,8.077,0,0,0,0,112.9V125H125V112.9A8.077,8.077,0,0,0,117.875,104.893Zm-3.2,2.661.5,1.423,1.506-.073a1.222,1.222,0,0,0,.262-.034,4.036,4.036,0,0,1,4.032,4.032H88.71a4.021,4.021,0,0,1,3.956-4.032l1.843.107.5-1.423a4.027,4.027,0,0,1,3.786-2.716,4.136,4.136,0,0,1,.944.127l1.222.294.8-.966a4.077,4.077,0,0,1,6.161,0l.8.966,1.222-.294a4.136,4.136,0,0,1,.944-.127A4.022,4.022,0,0,1,114.671,107.554Zm-3.784-39.006a4.036,4.036,0,0,1-4.032-4.032V60.484h8.065v4.032A4.036,4.036,0,0,1,110.887,68.548ZM52.419,28.226a4.036,4.036,0,0,1-4.032-4.032c0-3.014,2.524-8.065,4.032-8.065s4.032,5.05,4.032,8.065A4.036,4.036,0,0,1,52.419,28.226ZM54.833,51.27l-.288,5.181H46.607l.97-8.724A26.146,26.146,0,0,0,54.833,51.27Zm22.591-3.542.97,8.724H70.456l-.288-5.181A26.146,26.146,0,0,0,77.423,47.728ZM94.45,56.452,89.073,24.194h6.085l7.169,32.258Zm-4.087,0H82.45L81.135,44.613a26.282,26.282,0,0,0,5.77-8.913ZM66.177,52.131l.24,4.321H58.583l.24-4.321a23.6,23.6,0,0,0,7.355,0ZM42.55,56.452H34.637L38.095,35.7a26.271,26.271,0,0,0,5.77,8.913Zm-12,0H22.673l7.169-32.258h6.085Zm-8.373,4.032h8.065v4.032a4.032,4.032,0,0,1-8.065,0Zm12.1,0h8.065v4.032a4.032,4.032,0,0,1-8.065,0Zm12.1,0h8.065v4.032a4.032,4.032,0,1,1-8.065,0Zm12.1,0h8.065v4.032a4.032,4.032,0,0,1-8.065,0Zm12.1,0h8.065v4.032a4.032,4.032,0,1,1-8.065,0Zm12.1,0h8.065v4.032a4.032,4.032,0,0,1-8.065,0Zm12.1,0h8.065v4.032a4.032,4.032,0,0,1-8.065,0Zm19.381-4.032h-7.683L99.286,24.194h4.1ZM62.5,4.032A22.162,22.162,0,0,1,74.6,44.774v-12.8a8.056,8.056,0,0,0,6.048-7.778V14.113H76.613V24.194A4.019,4.019,0,0,1,74.6,27.665V14.113H70.565V27.665a4.019,4.019,0,0,1-2.016-3.472V14.113H64.516V24.194a8.056,8.056,0,0,0,6.048,7.778V46.847a21.881,21.881,0,0,1-16.129,0V31.972a8.056,8.056,0,0,0,6.048-7.778c0-4.155-3.141-12.1-8.065-12.1s-8.065,7.942-8.065,12.1A8.056,8.056,0,0,0,50.4,31.972v12.8A22.162,22.162,0,0,1,62.5,4.032ZM21.615,24.194h4.1L18.544,56.452H10.861ZM10.081,64.516V60.484h8.065v4.032a4.032,4.032,0,0,1-8.065,0ZM7.988,108.871l1.843.107.5-1.423a4.027,4.027,0,0,1,3.786-2.716,4.136,4.136,0,0,1,.944.127l1.222.294.8-.966a4.077,4.077,0,0,1,6.161,0l.8.966,1.222-.294a4.136,4.136,0,0,1,.944-.127,4.022,4.022,0,0,1,3.784,2.716l.5,1.423L32,108.905a1.222,1.222,0,0,0,.262-.034A4.036,4.036,0,0,1,36.29,112.9H4.032A4.021,4.021,0,0,1,7.988,108.871Zm-3.956,12.1v-4.032H36.29v4.032Zm72.581,0H48.387V80.645H76.613Zm8.065,0H80.645V76.613H44.355v44.355H40.323V112.9a8.077,8.077,0,0,0-7.125-8.01,7.921,7.921,0,0,0-7.7-4.052,8.241,8.241,0,0,0-9.369-.921V72.3a8.067,8.067,0,0,0,4.032-2.456,8.052,8.052,0,0,0,12.1,0,8.054,8.054,0,0,0,12.1,0,8.054,8.054,0,0,0,12.1,0,8.054,8.054,0,0,0,12.1,0,8.054,8.054,0,0,0,12.1,0,8.054,8.054,0,0,0,12.1,0,8.054,8.054,0,0,0,12.1,0,8.053,8.053,0,0,0,4.032,2.456V99.921a8.234,8.234,0,0,0-9.369.921,7.919,7.919,0,0,0-7.7,4.052,8.073,8.073,0,0,0-7.125,8.008Zm4.032,0v-4.032h32.258v4.032Z" fill="#3a3c07"/>
            <rect id="Rectángulo_6164" data-name="Rectángulo 6164" width="4" height="4" transform="translate(52 99)" fill="#3a3c07"/>
            <path id="Trazado_111684" data-name="Trazado 111684" d="M88,328.129h16.129V312H88Zm4.032-12.1H100.1V324.1H92.032Z" transform="translate(-65.823 -233.371)" fill="#3a3c07"/>
            <path id="Trazado_111685" data-name="Trazado 111685" d="M360.129,312H344v16.129h16.129ZM356.1,324.1h-8.065v-8.065H356.1Z" transform="translate(-257.306 -233.371)" fill="#3a3c07"/>
          </g>
        </g>
        <g id="Grupo_61706" data-name="Grupo 61706">
          <text id="El_Corte_Ingles" data-name="El Corte Ingles" transform="translate(549 6411)" fill="#12263f" font-size="16" font-family="Roboto-Regular, Roboto"><tspan x="0" y="15">El Corte Ingles</tspan></text>
          <rect id="Rectángulo_6072" data-name="Rectángulo 6072" width="5" height="28" transform="translate(536 6406)" fill="#529ad9"/>
        </g>
      </g>
      <g id="Grupo_61709" data-name="Grupo 61709" transform="translate(232 115)">
        <g id="Grupo_61703" data-name="Grupo 61703" transform="translate(377 5752)">
          <rect id="Rectángulo_5987-2" data-name="Rectángulo 5987" width="139" height="139" transform="translate(326 504)" fill="none"/>
          <g id="cola" transform="translate(336 514)">
            <path id="Trazado_111686" data-name="Trazado 111686" d="M43.34,137.316a154.225,154.225,0,0,1,9.175-13.058c6.956-8.66,13.345-11.925,23.045-19.829A108.67,108.67,0,0,0,96.247,82.514c5.258-7.245,8.371-26.258,14.334-32.221l8.233-8.233-6.246-6.247-6.247-6.247L98.087,37.8c-5.963,5.962-24.976,9.075-32.221,14.333A108.7,108.7,0,0,0,43.952,72.82c-7.9,9.7-11.169,16.088-19.829,23.044a154.089,154.089,0,0,1-13.058,9.176A7.711,7.711,0,0,0,9.763,117l10.81,10.811,10.811,10.811a7.713,7.713,0,0,0,11.957-1.3Zm0,0" transform="translate(-5.743 -22.637)" fill="#d7f3ff"/>
            <path id="Trazado_111687" data-name="Trazado 111687" d="M413.83,48.574l6.514-6.514L414.1,35.813l-6.247-6.247-6.515,6.514Zm0,0" transform="translate(-307.273 -22.637)" fill="#bdebff"/>
            <path id="Trazado_111688" data-name="Trazado 111688" d="M17.694,111.669a154.079,154.079,0,0,0,13.058-9.175c8.66-6.956,11.925-13.345,19.829-23.045A108.693,108.693,0,0,1,72.5,58.763c7.246-5.258,26.258-8.371,32.221-14.334l8.234-8.234-.383-.382-6.247-6.247L98.087,37.8c-5.962,5.962-24.976,9.075-32.221,14.333A108.7,108.7,0,0,0,43.952,72.821c-7.9,9.7-11.169,16.088-19.829,23.044a154.3,154.3,0,0,1-13.058,9.176A7.711,7.711,0,0,0,9.764,117l6.628,6.629a7.713,7.713,0,0,1,1.3-11.957Zm0,0" transform="translate(-5.744 -22.637)" fill="#bdebff"/>
            <path id="Trazado_111689" data-name="Trazado 111689" d="M98.892,104.934c-1.765.634-3.6,1.255-5.457,1.885-5.475,1.854-11.136,3.771-14.02,5.863a105.586,105.586,0,0,0-21.253,20.062c-2.352,2.886-4.259,5.438-6.1,7.907-4.223,5.652-7.871,10.533-14.25,15.658a153.991,153.991,0,0,1-13.37,9.4,4.2,4.2,0,0,0-.7,6.507l21.62,21.62a4.2,4.2,0,0,0,6.507-.706,153.988,153.988,0,0,1,9.4-13.369c5.125-6.38,10.007-10.027,15.658-14.25,2.468-1.845,5.021-3.751,7.907-6.1a105.612,105.612,0,0,0,20.062-21.253c2.092-2.883,4.009-8.545,5.863-14.02,2.579-7.614,5.014-14.807,8.829-18.622l.577-.577Zm0,0" transform="translate(-17.228 -80.34)" fill="#444346"/>
            <path id="Trazado_111690" data-name="Trazado 111690" d="M62.067,137.152a108.694,108.694,0,0,1,21.914-20.686c6.021-4.37,20.17-7.258,28.2-11.532H98.894c-1.766.634-3.6,1.255-5.457,1.885-5.475,1.854-11.136,3.771-14.019,5.863a105.586,105.586,0,0,0-21.254,20.062c-2.351,2.886-4.258,5.438-6.1,7.907-4.223,5.652-7.87,10.533-14.25,15.658a153.961,153.961,0,0,1-13.369,9.4,4.2,4.2,0,0,0-.706,6.507l2.053,2.052a7.651,7.651,0,0,1,3.392-4.893A154.071,154.071,0,0,0,42.237,160.2c8.66-6.956,11.925-13.345,19.829-23.045Zm0,0" transform="translate(-17.229 -80.339)" fill="#222223"/>
            <path id="Trazado_111691" data-name="Trazado 111691" d="M421.426,29.916,407.49,15.979a1.438,1.438,0,0,1,0-2.034l6.021-6.022a1.441,1.441,0,0,1,2.035,0l13.936,13.937a1.439,1.439,0,0,1,0,2.034l-6.022,6.022A1.438,1.438,0,0,1,421.426,29.916Zm0,0" transform="translate(-311.662 -5.743)" fill="#f46262"/>
            <path id="Trazado_111692" data-name="Trazado 111692" d="M414.118,20.574l6.022-6.022a1.439,1.439,0,0,1,2.034,0l-6.628-6.629a1.441,1.441,0,0,0-2.035,0l-6.021,6.022a1.438,1.438,0,0,0,0,2.034l6.628,6.629A1.439,1.439,0,0,1,414.118,20.574Zm0,0" transform="translate(-311.661 -5.743)" fill="#d65b5b"/>
            <path id="Trazado_111693" data-name="Trazado 111693" d="M187.24,113.22a108.275,108.275,0,0,0-21.209,19.829l31.761,31.762a108.25,108.25,0,0,0,19.829-21.21,35.478,35.478,0,0,0,3.868-7.9l-26.344-26.343a35.48,35.48,0,0,0-7.9,3.867Zm0,0" transform="translate(-127.117 -83.723)" fill="#f46262"/>
            <path id="Trazado_111695" data-name="Trazado 111695" d="M193.87,119.848a35.42,35.42,0,0,1,7.9-3.867l-6.629-6.629a35.479,35.479,0,0,0-7.9,3.867,108.275,108.275,0,0,0-21.209,19.829l6.628,6.629A108.275,108.275,0,0,1,193.87,119.848Zm0,0" transform="translate(-127.118 -83.722)" fill="#d65b5b"/>
            <path id="Trazado_111696" data-name="Trazado 111696" d="M119.064,14.873,105.127.937a3.2,3.2,0,0,0-4.521,0L94.585,6.958a3.2,3.2,0,0,0-.458,3.937L91.1,13.921c-2.944,2.944-9.879,5.293-16.585,7.563C68.4,23.556,62.621,25.512,59.09,28.075A110.058,110.058,0,0,0,37.558,48.208l-.015.017q-.347.419-.7.848c-2.422,2.972-4.45,5.686-6.239,8.08-4.174,5.586-7.47,10-13.328,14.7a148.821,148.821,0,0,1-12.9,9.064A9.469,9.469,0,0,0,2.777,95.6L24.4,117.223A9.424,9.424,0,0,0,31.084,120a9.762,9.762,0,0,0,1.044-.057,9.422,9.422,0,0,0,6.952-4.319,148.473,148.473,0,0,1,9.064-12.9q.389-.483.775-.945a1.758,1.758,0,1,0-2.7-2.257q-.409.489-.82,1a152.037,152.037,0,0,0-9.287,13.214,5.954,5.954,0,0,1-9.231,1L5.262,93.118a5.955,5.955,0,0,1,1-9.231A152,152,0,0,0,19.48,74.6c6.206-4.985,9.793-9.783,13.944-15.34,1.715-2.3,3.489-4.666,5.623-7.314l9.323,9.324a1.758,1.758,0,1,0,2.486-2.487L41.3,49.223a106.335,106.335,0,0,1,19.86-18.3,30.671,30.671,0,0,1,6.439-3.238L92.318,52.406a30.615,30.615,0,0,1-3.237,6.44,106.377,106.377,0,0,1-18.3,19.86L55.387,63.313A1.758,1.758,0,1,0,52.9,65.8L68.056,80.955c-2.647,2.134-5.018,3.908-7.314,5.623a104.431,104.431,0,0,0-10.01,8.131,1.758,1.758,0,0,0,2.425,2.545,102.066,102.066,0,0,1,9.689-7.86c2.4-1.79,5.11-3.818,8.082-6.239.287-.233.568-.466.847-.7l.018-.014A110.09,110.09,0,0,0,91.926,60.91c2.563-3.53,4.518-9.308,6.59-15.426,2.271-6.706,4.619-13.64,7.564-16.585l3.025-3.025a3.193,3.193,0,0,0,3.937-.459l6.022-6.022a3.2,3.2,0,0,0,0-4.521Zm-15.471,11.54c-3.525,3.526-6.007,10.855-8.407,17.943-.5,1.479-1.007,2.972-1.521,4.425L71.219,26.334c1.453-.514,2.945-1.02,4.425-1.521,7.088-2.4,14.419-4.883,17.943-8.407l2.963-2.963L106.556,23.45Zm7.188-3.709-.5-.5h0L97.794,9.716h0l-.5-.5,5.571-5.57,13.486,13.485Zm0,0" transform="translate(0 0)" fill="#3a3c07"/>
          </g>
        </g>
        <g id="Grupo_61707" data-name="Grupo 61707" transform="translate(167)">
          <text id="Coca-Cola" transform="translate(549 6411)" fill="#12263f" font-size="16" font-family="Roboto-Regular, Roboto"><tspan x="0" y="15">Coca-Cola</tspan></text>
          <rect id="Rectángulo_6072-2" data-name="Rectángulo 6072" width="5" height="28" transform="translate(536 6406)" fill="#529ad9"/>
        </g>
      </g>
      <g id="Grupo_61710" data-name="Grupo 61710" transform="translate(-260 -5)">
        <g id="Grupo_61705" data-name="Grupo 61705" transform="translate(665 5752)">
          <rect id="Rectángulo_5987-3" data-name="Rectángulo 5987" width="139" height="139" transform="translate(326 504)" fill="none"/>
          <g id="signal-tower" transform="translate(354 511.001)">
            <g id="Grupo_61704" data-name="Grupo 61704" transform="translate(2.45 18.228)">
              <path id="Trazado_111697" data-name="Trazado 111697" d="M15.654,452.957c-7.532,0-7.532,12.01,0,12.01h67.8c7.532,0,7.532-12.01,0-12.01h-67.8Zm0,0" transform="translate(-10.005 -360.258)" fill="#d7d6d8" fill-rule="evenodd"/>
              <path id="Trazado_111698" data-name="Trazado 111698" d="M73.629,353.1h37.747a4.838,4.838,0,0,0,.847-.07,4.878,4.878,0,0,0-.847-9.712H73.629a4.885,4.885,0,0,0-.437,9.76c.139.013.292.021.437.021Zm0,0" transform="translate(-54.195 -277.468)" fill="#d7d6d8" fill-rule="evenodd"/>
              <path id="Trazado_111699" data-name="Trazado 111699" d="M96.515,248.589h26.717c2.249,0,4.1-2.2,4.1-4.886s-1.846-4.894-4.1-4.894H92.948c-2.256,0-4.1,2.2-4.1,4.894s1.84,4.886,4.1,4.886Zm0,0" transform="translate(-69.543 -198.553)" fill="#d7d6d8" fill-rule="evenodd"/>
              <path id="Trazado_111700" data-name="Trazado 111700" d="M140.719,80.939a6.5,6.5,0,1,0,6.5-6.505A6.51,6.51,0,0,0,140.719,80.939Zm0,0" transform="translate(-108.707 -74.434)" fill="#d7d6d8" fill-rule="evenodd"/>
            </g>
            <path id="Trazado_111701" data-name="Trazado 111701" d="M75.9,157.129H67.625l-4.12-13.212a7.31,7.31,0,0,0,3.678-6.3,7.456,7.456,0,0,0-7.553-7.337h-.383l-3.4-10.912h.29c3.609,0,6.545-3.292,6.545-7.337s-2.936-7.344-6.545-7.344H51.265L44.118,81.771a8.955,8.955,0,1,0-6.3,0l-7.147,22.913H25.855c-3.609,0-6.545,3.295-6.545,7.344s2.936,7.337,6.545,7.337h.236l-3.406,10.912h-.8a7.456,7.456,0,0,0-7.553,7.337,7.326,7.326,0,0,0,4.041,6.5l-4.014,12.858-.049.157H8.1c-5.317,0-8.1,4.253-8.1,8.455s2.782,8.455,8.1,8.455H75.9c5.317,0,8.1-4.253,8.1-8.455s-2.782-8.455-8.1-8.455ZM32.917,144.96l-12.343,8.55,2.669-8.55Zm25.78,0,2.622,8.41L48.8,144.96Zm-6.454-20.686-5.062-4.908h3.533Zm-.847,6H30.625l10.49-9.966ZM40.966,69.33a4.058,4.058,0,1,1-4.054,4.054A4.059,4.059,0,0,1,40.966,69.33Zm0,18.794,5.165,16.56H35.8Zm-16.756,23.9c0-1.44.867-2.443,1.645-2.443H56.139c.777,0,1.645,1.045,1.645,2.443s-.869,2.437-1.645,2.437H25.855c-.779,0-1.645-1-1.645-2.437ZM35,119.366l-5.36,5.092,1.589-5.092ZM21.884,135.179H59.631a2.448,2.448,0,1,1,0,4.88H21.884c-.064,0-.127,0-.19-.009-.029,0-.057,0-.087,0a2.532,2.532,0,0,1-2.374-2.43,2.586,2.586,0,0,1,2.652-2.437ZM75.9,169.138H8.1c-3.108,0-3.2-3.19-3.2-3.554s.09-3.554,3.2-3.554H30.728a2.45,2.45,0,0,0,0-4.9H23.957l16.821-11.654,17.348,11.654H50.114a2.45,2.45,0,0,0,0,4.9H75.9c3.108,0,3.2,3.19,3.2,3.554s-.09,3.554-3.2,3.554Zm0,0" transform="translate(0 -48.651)" fill="#3a3c07"/>
            <path id="Trazado_111702" data-name="Trazado 111702" d="M159.773,442.953h-.049a2.45,2.45,0,0,0,0,4.9h.049a2.45,2.45,0,0,0,0-4.9Zm0,0" transform="translate(-118.758 -334.475)" fill="#3a3c07"/>
            <path id="Trazado_111703" data-name="Trazado 111703" d="M88.524,63.3a2.45,2.45,0,0,0,3.2-3.715,16.194,16.194,0,0,1,.891-25.3,2.451,2.451,0,1,0-2.923-3.934A21.094,21.094,0,0,0,88.524,63.3Zm0,0" transform="translate(-61.29 -22.56)" fill="#3a3c07"/>
            <path id="Trazado_111704" data-name="Trazado 111704" d="M44.033,47.661a2.451,2.451,0,0,0,3.192-3.719A25.3,25.3,0,0,1,48.618,4.416,2.45,2.45,0,1,0,45.694.484a30.207,30.207,0,0,0-1.661,47.177Zm0,0" transform="translate(-25.293)" fill="#3a3c07"/>
            <path id="Trazado_111705" data-name="Trazado 111705" d="M203.638,34.294a16.2,16.2,0,0,1,.885,25.3,2.45,2.45,0,0,0,3.193,3.717,21.1,21.1,0,0,0-1.156-32.946,2.45,2.45,0,0,0-2.923,3.934Zm0,0" transform="translate(-153.021 -22.56)" fill="#3a3c07"/>
            <path id="Trazado_111706" data-name="Trazado 111706" d="M236.261,4.418a25.294,25.294,0,0,1,1.395,39.523,2.451,2.451,0,0,0,3.189,3.721A30.2,30.2,0,0,0,239.185.484a2.451,2.451,0,0,0-2.923,3.934Zm0,0" transform="translate(-177.655 0)" fill="#3a3c07"/>
          </g>
        </g>
        <g id="Grupo_61708" data-name="Grupo 61708" transform="translate(485)">
          <text id="Con_EDI" data-name="Con EDI" transform="translate(549 6411)" fill="#12263f" font-size="16" font-family="Roboto-Regular, Roboto"><tspan x="0" y="15">Con EDI</tspan></text>
          <rect id="Rectángulo_6072-3" data-name="Rectángulo 6072" width="5" height="28" transform="translate(536 6406)" fill="#529ad9"/>
        </g>
      </g>
      <g id="Grupo_61714" data-name="Grupo 61714" transform="translate(5.75 51.5)">
        <line id="Línea_177" data-name="Línea 177" x2="210" transform="translate(685.5 6434.5)" fill="none" stroke="#afafaf" stroke-width="2"/>
        <path id="Polígono_5" data-name="Polígono 5" d="M5,0l5,9H0Z" transform="translate(904 6429.5) rotate(90)" fill="#afafaf"/>
      </g>
      <text id="Pedido" transform="translate(772.75 6497)" fill="#12263f" font-size="13" font-family="Roboto-Regular, Roboto"><tspan x="-20.119" y="12">Pedido</tspan></text>
    </g>
  </g>
</svg>
