<svg xmlns="http://www.w3.org/2000/svg" width="295" height="199.637" viewBox="0 0 295 199.637">
  <g id="Grupo_61802" data-name="Grupo 61802" transform="translate(-338 -2764.363)">
    <rect id="Rect치ngulo_6179" data-name="Rect치ngulo 6179" width="295" height="147.137" rx="10" transform="translate(338 2816.863)" fill="#ecedcc"/>
    <g id="Grupo_20708" data-name="Grupo 20708" transform="translate(553.552 3045.87)">
      <path id="Trazado_112019" data-name="Trazado 112019" d="M8.719,11.085H3.173V15.62H9.615V17H1.485V4.2H9.527v1.38H3.173V9.705H8.719ZM13.228,17H11.6V3.5h1.626ZM22.491,5.188v2.3h1.775V8.747H22.491v5.9a1.32,1.32,0,0,0,.237.858,1,1,0,0,0,.809.286,3.937,3.937,0,0,0,.773-.105V17a4.742,4.742,0,0,1-1.248.175,2.025,2.025,0,0,1-1.644-.659,2.832,2.832,0,0,1-.554-1.872v-5.9H19.134V7.49h1.731v-2.3ZM32.036,17a3.416,3.416,0,0,1-.229-1A3.628,3.628,0,0,1,29.1,17.176a3.357,3.357,0,0,1-2.307-.8,2.573,2.573,0,0,1-.9-2.017,2.688,2.688,0,0,1,1.129-2.307,5.325,5.325,0,0,1,3.177-.822h1.582v-.747a1.826,1.826,0,0,0-.51-1.358,2.049,2.049,0,0,0-1.5-.505,2.371,2.371,0,0,0-1.459.439,1.3,1.3,0,0,0-.589,1.063H26.086a2.244,2.244,0,0,1,.505-1.375A3.449,3.449,0,0,1,27.962,7.7a4.613,4.613,0,0,1,1.9-.387,3.759,3.759,0,0,1,2.575.822,2.964,2.964,0,0,1,.967,2.263v4.377a5.351,5.351,0,0,0,.334,2.083V17Zm-2.7-1.239a2.858,2.858,0,0,0,1.45-.4,2.392,2.392,0,0,0,.993-1.028V12.386H30.507q-2.988,0-2.988,1.749a1.48,1.48,0,0,0,.51,1.2A1.959,1.959,0,0,0,29.338,15.761ZM37.485,7.49l.044,1.055a3.512,3.512,0,0,1,2.821-1.23,2.719,2.719,0,0,1,2.716,1.529A3.6,3.6,0,0,1,44.3,7.736a3.647,3.647,0,0,1,1.8-.422q3.129,0,3.182,3.313V17H47.654V10.725A2.184,2.184,0,0,0,47.188,9.2a2.051,2.051,0,0,0-1.564-.505,2.156,2.156,0,0,0-1.5.541,2.193,2.193,0,0,0-.694,1.455V17H41.792V10.769a1.814,1.814,0,0,0-2.03-2.074,2.175,2.175,0,0,0-2.188,1.362V17H35.947V7.49ZM57.6,17a3.416,3.416,0,0,1-.229-1,3.628,3.628,0,0,1-2.707,1.178,3.357,3.357,0,0,1-2.307-.8,2.573,2.573,0,0,1-.9-2.017,2.688,2.688,0,0,1,1.129-2.307,5.325,5.325,0,0,1,3.177-.822h1.582v-.747a1.826,1.826,0,0,0-.51-1.358,2.049,2.049,0,0,0-1.5-.505,2.371,2.371,0,0,0-1.459.439,1.3,1.3,0,0,0-.589,1.063H51.653a2.244,2.244,0,0,1,.505-1.375A3.449,3.449,0,0,1,53.53,7.7a4.613,4.613,0,0,1,1.9-.387,3.759,3.759,0,0,1,2.575.822,2.964,2.964,0,0,1,.967,2.263v4.377a5.351,5.351,0,0,0,.334,2.083V17Zm-2.7-1.239a2.858,2.858,0,0,0,1.45-.4,2.392,2.392,0,0,0,.993-1.028V12.386H56.074q-2.988,0-2.988,1.749a1.48,1.48,0,0,0,.51,1.2A1.959,1.959,0,0,0,54.905,15.761ZM63.062,7.49l.053,1.2a3.465,3.465,0,0,1,2.848-1.371q3.015,0,3.041,3.4V17H67.377V10.707a2.189,2.189,0,0,0-.47-1.521,1.884,1.884,0,0,0-1.437-.492,2.347,2.347,0,0,0-1.389.422,2.865,2.865,0,0,0-.932,1.107V17H61.523V7.49ZM68.44,3.781A2.185,2.185,0,0,1,67.9,5.319a1.756,1.756,0,0,1-1.349.589,1.979,1.979,0,0,1-.624-.088,3.367,3.367,0,0,1-.69-.36,2.988,2.988,0,0,0-.615-.33,1.506,1.506,0,0,0-.435-.057.806.806,0,0,0-.615.277,1,1,0,0,0-.255.708L62.227,6a2.294,2.294,0,0,1,.532-1.556,1.705,1.705,0,0,1,1.349-.615,1.639,1.639,0,0,1,.554.088,4.035,4.035,0,0,1,.668.343,3.931,3.931,0,0,0,.646.334,1.484,1.484,0,0,0,.5.079.786.786,0,0,0,.628-.3,1.048,1.048,0,0,0,.25-.694Zm2.584,8.376a5.617,5.617,0,0,1,.549-2.514A4.1,4.1,0,0,1,73.1,7.921a4.163,4.163,0,0,1,2.237-.606,4.01,4.01,0,0,1,3.142,1.345,5.174,5.174,0,0,1,1.2,3.577v.114a5.666,5.666,0,0,1-.532,2.492,4.038,4.038,0,0,1-1.521,1.718,4.211,4.211,0,0,1-2.272.615,4,4,0,0,1-3.133-1.345,5.147,5.147,0,0,1-1.2-3.56Zm1.635.193a4.068,4.068,0,0,0,.734,2.54,2.487,2.487,0,0,0,3.933-.013,4.449,4.449,0,0,0,.729-2.72,4.061,4.061,0,0,0-.743-2.536A2.361,2.361,0,0,0,75.34,8.65a2.335,2.335,0,0,0-1.942.958A4.416,4.416,0,0,0,72.659,12.351Zm13.122-.185a5.571,5.571,0,0,1,1.037-3.52,3.529,3.529,0,0,1,5.361-.189V3.5h1.626V17H92.312l-.079-1.02a3.311,3.311,0,0,1-2.716,1.2,3.248,3.248,0,0,1-2.694-1.354,5.634,5.634,0,0,1-1.042-3.533Zm1.626.185a4.218,4.218,0,0,0,.668,2.531,2.159,2.159,0,0,0,1.846.914,2.372,2.372,0,0,0,2.259-1.389V10.039a2.39,2.39,0,0,0-2.241-1.345,2.17,2.17,0,0,0-1.863.923A4.644,4.644,0,0,0,87.407,12.351Zm12.867,4.825a4.155,4.155,0,0,1-3.146-1.27,4.714,4.714,0,0,1-1.213-3.4v-.3a5.707,5.707,0,0,1,.541-2.527,4.217,4.217,0,0,1,1.512-1.74,3.8,3.8,0,0,1,2.1-.628,3.562,3.562,0,0,1,2.883,1.222,5.289,5.289,0,0,1,1.028,3.5v.677H97.541a3.38,3.38,0,0,0,.822,2.272,2.583,2.583,0,0,0,2,.866,2.832,2.832,0,0,0,1.459-.352,3.666,3.666,0,0,0,1.046-.932l.993.773A3.993,3.993,0,0,1,100.274,17.176Zm-.2-8.525a2.169,2.169,0,0,0-1.652.716,3.482,3.482,0,0,0-.826,2.008h4.764v-.123a3.1,3.1,0,0,0-.668-1.92A2.042,2.042,0,0,0,100.072,8.65ZM112.087,17h-1.626V3.5h1.626Zm8.473,0a3.416,3.416,0,0,1-.229-1,3.628,3.628,0,0,1-2.707,1.178,3.357,3.357,0,0,1-2.307-.8,2.573,2.573,0,0,1-.9-2.017,2.688,2.688,0,0,1,1.129-2.307,5.325,5.325,0,0,1,3.177-.822H120.3v-.747a1.826,1.826,0,0,0-.51-1.358,2.049,2.049,0,0,0-1.5-.505,2.371,2.371,0,0,0-1.459.439,1.3,1.3,0,0,0-.589,1.063h-1.635a2.244,2.244,0,0,1,.505-1.375,3.449,3.449,0,0,1,1.371-1.05,4.613,4.613,0,0,1,1.9-.387,3.759,3.759,0,0,1,2.575.822,2.964,2.964,0,0,1,.967,2.263v4.377a5.351,5.351,0,0,0,.334,2.083V17Zm-2.7-1.239a2.858,2.858,0,0,0,1.45-.4,2.392,2.392,0,0,0,.993-1.028V12.386H119.03q-2.988,0-2.988,1.749a1.48,1.48,0,0,0,.51,1.2A1.959,1.959,0,0,0,117.861,15.761Zm12.6-8.271.044,1.055a3.512,3.512,0,0,1,2.821-1.23,2.719,2.719,0,0,1,2.716,1.529,3.6,3.6,0,0,1,1.235-1.107,3.647,3.647,0,0,1,1.8-.422q3.129,0,3.182,3.313V17h-1.626V10.725a2.184,2.184,0,0,0-.466-1.525,2.051,2.051,0,0,0-1.564-.505,2.156,2.156,0,0,0-1.5.541,2.193,2.193,0,0,0-.694,1.455V17h-1.635V10.769a1.814,1.814,0,0,0-2.03-2.074,2.175,2.175,0,0,0-2.188,1.362V17h-1.626V7.49Zm20.118,8.569a3.454,3.454,0,0,1-2.786,1.116,2.956,2.956,0,0,1-2.316-.883,3.823,3.823,0,0,1-.8-2.615V7.49H146.3v6.144q0,2.162,1.758,2.162a2.434,2.434,0,0,0,2.479-1.389V7.49h1.626V17h-1.547Zm8,1.116a4.155,4.155,0,0,1-3.146-1.27,4.714,4.714,0,0,1-1.213-3.4v-.3a5.707,5.707,0,0,1,.541-2.527,4.217,4.217,0,0,1,1.512-1.74,3.8,3.8,0,0,1,2.1-.628,3.562,3.562,0,0,1,2.883,1.222,5.289,5.289,0,0,1,1.028,3.5v.677h-6.442a3.38,3.38,0,0,0,.822,2.272,2.583,2.583,0,0,0,2,.866,2.832,2.832,0,0,0,1.459-.352,3.666,3.666,0,0,0,1.046-.932l.993.773A3.993,3.993,0,0,1,158.581,17.176Zm-.2-8.525a2.169,2.169,0,0,0-1.652.716,3.482,3.482,0,0,0-.826,2.008h4.764v-.123A3.1,3.1,0,0,0,160,9.332,2.042,2.042,0,0,0,158.379,8.65Zm11.329,5.827a1.2,1.2,0,0,0-.5-1.024,4.78,4.78,0,0,0-1.731-.628,8.186,8.186,0,0,1-1.96-.633,2.788,2.788,0,0,1-1.072-.879A2.1,2.1,0,0,1,164.1,10.1a2.467,2.467,0,0,1,.989-1.978,3.861,3.861,0,0,1,2.527-.809,3.974,3.974,0,0,1,2.624.835,2.652,2.652,0,0,1,1.006,2.136h-1.635a1.468,1.468,0,0,0-.567-1.151,2.124,2.124,0,0,0-1.428-.483,2.223,2.223,0,0,0-1.389.387,1.217,1.217,0,0,0-.5,1.011.986.986,0,0,0,.466.888,5.731,5.731,0,0,0,1.683.571,8.77,8.77,0,0,1,1.973.65,2.878,2.878,0,0,1,1.121.91,2.237,2.237,0,0,1,.365,1.3,2.434,2.434,0,0,1-1.02,2.043,4.277,4.277,0,0,1-2.646.769,4.789,4.789,0,0,1-2.021-.4,3.288,3.288,0,0,1-1.375-1.129,2.722,2.722,0,0,1-.5-1.569H165.4a1.683,1.683,0,0,0,.655,1.3,2.54,2.54,0,0,0,1.613.479,2.622,2.622,0,0,0,1.481-.374A1.148,1.148,0,0,0,169.708,14.478Zm5.95-9.29v2.3h1.775V8.747h-1.775v5.9a1.32,1.32,0,0,0,.237.858,1,1,0,0,0,.809.286,3.937,3.937,0,0,0,.773-.105V17a4.742,4.742,0,0,1-1.248.175,2.025,2.025,0,0,1-1.644-.659,2.832,2.832,0,0,1-.554-1.872v-5.9H172.3V7.49h1.731v-2.3Zm8.271,3.762a4.873,4.873,0,0,0-.8-.062,2.143,2.143,0,0,0-2.171,1.362V17h-1.626V7.49h1.582l.026,1.1a2.532,2.532,0,0,1,2.268-1.274,1.661,1.661,0,0,1,.721.123ZM190.942,17a3.416,3.416,0,0,1-.229-1,3.628,3.628,0,0,1-2.707,1.178,3.357,3.357,0,0,1-2.307-.8,2.573,2.573,0,0,1-.9-2.017,2.688,2.688,0,0,1,1.129-2.307,5.325,5.325,0,0,1,3.177-.822h1.582v-.747a1.826,1.826,0,0,0-.51-1.358,2.049,2.049,0,0,0-1.5-.505,2.371,2.371,0,0,0-1.459.439,1.3,1.3,0,0,0-.589,1.063h-1.635a2.244,2.244,0,0,1,.505-1.375,3.449,3.449,0,0,1,1.371-1.05,4.613,4.613,0,0,1,1.9-.387,3.759,3.759,0,0,1,2.575.822,2.964,2.964,0,0,1,.967,2.263v4.377a5.351,5.351,0,0,0,.334,2.083V17Zm-2.7-1.239a2.858,2.858,0,0,0,1.45-.4,2.392,2.392,0,0,0,.993-1.028V12.386h-1.274q-2.988,0-2.988,1.749a1.48,1.48,0,0,0,.51,1.2A1.959,1.959,0,0,0,188.244,15.761Zm6.653.387a1.018,1.018,0,0,1,.25-.7.954.954,0,0,1,.751-.281.983.983,0,0,1,.76.281,1,1,0,0,1,.259.7.944.944,0,0,1-.259.677,1,1,0,0,1-.76.272.9.9,0,0,1-1-.949Z" transform="translate(-175.552 -154)" fill="#12263f"/>
    </g>
    <g id="Grupo_61771" data-name="Grupo 61771" transform="translate(107 2260.363)">
      <rect id="Rect치ngulo_5987" data-name="Rect치ngulo 5987" width="105" height="105" transform="translate(326 504)" fill="none"/>
      <g id="exam" transform="translate(330.166 508.167)">
        <g id="Grupo_61797" data-name="Grupo 61797" transform="translate(1.417 1.419)">
          <path id="Trazado_111941" data-name="Trazado 111941" d="M112.9,120.443H43.238a6.588,6.588,0,0,0-6.581,6.581v49.362a6.823,6.823,0,0,0,5.543,6.687h71.739a6.823,6.823,0,0,0,5.543-6.687V127.024a6.588,6.588,0,0,0-6.581-6.581Z" transform="translate(-31.152 -99.122)" fill="#ff826e"/>
          <path id="Trazado_111942" data-name="Trazado 111942" d="M44.35,176.384V127.023a6.588,6.588,0,0,1,6.581-6.581H43.237a6.588,6.588,0,0,0-6.581,6.581v49.362a6.823,6.823,0,0,0,5.543,6.687h7.694A6.823,6.823,0,0,1,44.35,176.384Z" transform="translate(-31.151 -99.121)" fill="#fc6952"/>
          <path id="Trazado_111943" data-name="Trazado 111943" d="M100.237,451.161H8.6a1.1,1.1,0,0,0-1.1,1.109v3.816a5.139,5.139,0,0,0,5.1,5.148H96.237a5.139,5.139,0,0,0,5.1-5.148V452.27A1.1,1.1,0,0,0,100.237,451.161Z" transform="translate(-7.501 -367.4)" fill="#dfebfa"/>
          <path id="Trazado_111944" data-name="Trazado 111944" d="M100.237,451.161H8.6a1.1,1.1,0,0,0-1.1,1.109v3.816a5.139,5.139,0,0,0,5.1,5.148H96.237a5.139,5.139,0,0,0,5.1-5.148V452.27A1.1,1.1,0,0,0,100.237,451.161Z" transform="translate(-7.501 -367.4)" fill="#dfebfa"/>
          <path id="Trazado_111945" data-name="Trazado 111945" d="M23.354,456.088v-3.816a1.1,1.1,0,0,1,1.1-1.109H8.6a1.1,1.1,0,0,0-1.1,1.109v3.816a5.139,5.139,0,0,0,5.1,5.148H28.453A5.139,5.139,0,0,1,23.354,456.088Z" transform="translate(-7.501 -367.401)" fill="#b1dbfc"/>
          <path id="Trazado_111946" data-name="Trazado 111946" d="M183.509,451.161v2.56a2.284,2.284,0,0,0,2.266,2.288h22.842a2.284,2.284,0,0,0,2.266-2.288v-2.56" transform="translate(-150.278 -367.4)" fill="#b1dbfc"/>
          <path id="Trazado_111947" data-name="Trazado 111947" d="M195.876,453.721v-2.56H183.509v2.56a2.284,2.284,0,0,0,2.266,2.288h12.366A2.284,2.284,0,0,1,195.876,453.721Z" transform="translate(-150.278 -367.4)" fill="#8bcaff"/>
          <path id="Trazado_111948" data-name="Trazado 111948" d="M137.789,151.521H69.149a1.181,1.181,0,0,0-1.181,1.181v48.352a1.181,1.181,0,0,0,1.181,1.181h68.641a1.181,1.181,0,0,0,1.181-1.181V152.7A1.181,1.181,0,0,0,137.789,151.521Z" transform="translate(-56.552 -124.333)" fill="#fcd770"/>
          <path id="Trazado_111949" data-name="Trazado 111949" d="M75.662,201.054V152.7a1.181,1.181,0,0,1,1.181-1.181H69.149a1.181,1.181,0,0,0-1.181,1.181v48.352a1.181,1.181,0,0,0,1.181,1.181h7.694A1.181,1.181,0,0,1,75.662,201.054Z" transform="translate(-56.552 -124.333)" fill="#fec458"/>
          <path id="Trazado_111950" data-name="Trazado 111950" d="M168.572,7.516H130.5L119.511,18.508V75.242a2.435,2.435,0,0,0,2.435,2.435h46.668a2.435,2.435,0,0,0,2.435-2.435V9.994A2.478,2.478,0,0,0,168.572,7.516Z" transform="translate(-98.363 -7.516)" fill="#dfebfa"/>
          <path id="Trazado_111951" data-name="Trazado 111951" d="M124.137,102.4V41.237l-4.626,4.626V102.6a2.435,2.435,0,0,0,2.435,2.435h4A2.815,2.815,0,0,1,124.137,102.4Z" transform="translate(-98.363 -34.87)" fill="#b1dbfc"/>
          <path id="Trazado_111952" data-name="Trazado 111952" d="M119.511,18.508h8.514A2.478,2.478,0,0,0,130.5,16.03V7.516Z" transform="translate(-98.363 -7.516)" fill="#b1dbfc"/>
          <path id="Trazado_111953" data-name="Trazado 111953" d="M130.5,7.516,119.511,18.508h4.58L130.5,12.1Z" transform="translate(-98.363 -7.516)" fill="#8bcaff"/>
        </g>
        <g id="Grupo_61798" data-name="Grupo 61798" transform="translate(0.001 0)">
          <path id="Trazado_111954" data-name="Trazado 111954" d="M164.487,86.776a1.416,1.416,0,0,0-2,0l-3.449,3.449-1.958-1.958a1.416,1.416,0,0,0-2,2l2.959,2.959a1.416,1.416,0,0,0,2,0l4.45-4.45A1.416,1.416,0,0,0,164.487,86.776Z" transform="translate(-125.46 -70.056)" fill="#3a3c07"/>
          <path id="Trazado_111955" data-name="Trazado 111955" d="M164.487,154.423a1.416,1.416,0,0,0-2,0l-3.449,3.449-1.958-1.958a1.416,1.416,0,0,0-2,2l2.959,2.959a1.416,1.416,0,0,0,2,0l4.45-4.45A1.416,1.416,0,0,0,164.487,154.423Z" transform="translate(-125.46 -124.931)" fill="#3a3c07"/>
          <path id="Trazado_111956" data-name="Trazado 111956" d="M164.487,223.444a1.416,1.416,0,0,0-2,0l-3.449,3.449-1.958-1.958a1.416,1.416,0,0,0-2,2l2.959,2.959a1.416,1.416,0,0,0,2,0l4.45-4.45A1.416,1.416,0,0,0,164.487,223.444Z" transform="translate(-125.46 -180.921)" fill="#3a3c07"/>
          <path id="Trazado_111957" data-name="Trazado 111957" d="M6.516,96.667H90.153A6.547,6.547,0,0,0,96.668,90.1V86.286a2.523,2.523,0,0,0-2.515-2.525H89.311a7.976,7.976,0,0,0,1.852-5.082V58.319a1.416,1.416,0,1,0-2.832,0v20.36a5.21,5.21,0,0,1-4.247,5.082h-71.5a5.21,5.21,0,0,1-4.247-5.082V29.318A5.17,5.17,0,0,1,13.5,24.153h7.646v3.036H14.014a2.6,2.6,0,0,0-2.6,2.6V78.138a2.6,2.6,0,0,0,2.6,2.6H82.655a2.6,2.6,0,0,0,2.6-2.6V29.785a2.6,2.6,0,0,0-2.6-2.6H75.52V24.153h7.646a5.17,5.17,0,0,1,5.165,5.165V51.711a1.416,1.416,0,1,0,2.832,0V29.318a8.006,8.006,0,0,0-8-8H75.52V3.895A3.9,3.9,0,0,0,71.625,0H51.638a1.416,1.416,0,1,0,0,2.832H71.625a1.064,1.064,0,0,1,1.063,1.062V69.142a1.02,1.02,0,0,1-1.019,1.019H25a1.02,1.02,0,0,1-1.019-1.019V13.824h7.1A3.9,3.9,0,0,0,34.973,9.93v-7.1H45.03A1.416,1.416,0,1,0,45.03,0H33.557a1.426,1.426,0,0,0-1,.415L21.563,11.407a1.434,1.434,0,0,0-.415,1v8.913H13.5a8.006,8.006,0,0,0-8,8V78.679a7.975,7.975,0,0,0,1.852,5.082H2.516A2.523,2.523,0,0,0,0,86.286V90.1a6.547,6.547,0,0,0,6.515,6.565ZM32.141,4.835v5.1a1.064,1.064,0,0,1-1.062,1.062h-5.1ZM25,72.994H71.669a3.856,3.856,0,0,0,3.851-3.851V30.02h6.9V77.9H14.249V30.02h6.9V69.142A3.856,3.856,0,0,0,25,72.994Zm11.063,13.6H60.605v1.144a.873.873,0,0,1-.85.872H36.913a.873.873,0,0,1-.85-.872Zm-33.231,0h30.4v1.144a3.7,3.7,0,0,0,3.682,3.7H59.755a3.7,3.7,0,0,0,3.682-3.7V86.593h30.4V90.1a3.712,3.712,0,0,1-3.683,3.732H6.516A3.712,3.712,0,0,1,2.833,90.1Z" transform="translate(-0.001 0)" fill="#3a3c07"/>
          <path id="Trazado_111958" data-name="Trazado 111958" d="M249.367,84.986H226.3a1.416,1.416,0,1,0,0,2.832h23.072a1.416,1.416,0,1,0,0-2.832Z" transform="translate(-182.423 -68.941)" fill="#3a3c07"/>
          <path id="Trazado_111959" data-name="Trazado 111959" d="M249.367,114.586H226.3a1.416,1.416,0,0,0,0,2.832h23.072a1.416,1.416,0,0,0,0-2.832Z" transform="translate(-182.423 -92.952)" fill="#3a3c07"/>
          <path id="Trazado_111960" data-name="Trazado 111960" d="M249.367,154.008H226.3a1.416,1.416,0,1,0,0,2.832h23.072a1.416,1.416,0,0,0,0-2.832Z" transform="translate(-182.423 -124.931)" fill="#3a3c07"/>
          <path id="Trazado_111961" data-name="Trazado 111961" d="M249.367,183.608H226.3a1.416,1.416,0,1,0,0,2.832h23.072a1.416,1.416,0,1,0,0-2.832Z" transform="translate(-182.423 -148.943)" fill="#3a3c07"/>
          <path id="Trazado_111962" data-name="Trazado 111962" d="M249.367,223.029H226.3a1.416,1.416,0,1,0,0,2.832h23.072a1.416,1.416,0,1,0,0-2.832Z" transform="translate(-182.423 -180.921)" fill="#3a3c07"/>
          <path id="Trazado_111963" data-name="Trazado 111963" d="M249.367,252.629H226.3a1.416,1.416,0,1,0,0,2.832h23.072a1.416,1.416,0,1,0,0-2.832Z" transform="translate(-182.423 -204.932)" fill="#3a3c07"/>
          <path id="Trazado_111964" data-name="Trazado 111964" d="M162.484,292.465l-3.449,3.449-1.958-1.958a1.416,1.416,0,0,0-2,2l2.959,2.959a1.416,1.416,0,0,0,2,0l4.45-4.45a1.416,1.416,0,1,0-2-2Z" transform="translate(-125.46 -236.911)" fill="#3a3c07"/>
          <path id="Trazado_111965" data-name="Trazado 111965" d="M249.367,292.05H226.3a1.416,1.416,0,1,0,0,2.832h23.072a1.416,1.416,0,1,0,0-2.832Z" transform="translate(-182.423 -236.911)" fill="#3a3c07"/>
          <path id="Trazado_111966" data-name="Trazado 111966" d="M249.367,321.65H226.3a1.416,1.416,0,1,0,0,2.832h23.072a1.416,1.416,0,1,0,0-2.832Z" transform="translate(-182.423 -260.922)" fill="#3a3c07"/>
        </g>
      </g>
    </g>
  </g>
</svg>
