<svg xmlns="http://www.w3.org/2000/svg" width="620.001" height="634.4" viewBox="0 0 620.001 634.4">
  <g id="Grupo_61800" data-name="Grupo 61800" transform="translate(-179.999 -1826.542)">
    <g id="Grupo_61767" data-name="Grupo 61767" transform="translate(62.998 590.717)">
      <path id="Trazado_111833" data-name="Trazado 111833" d="M257.691,1759.9c-137.4-93.239-213.01-302.662-41.9-414.471,34.544-22.574,89.5-31.807,130.628-25.473,48.017,7.393,77.169,40.365,115.851,65.482,56.494,36.677,123.921,7.543,180.833,45.863,47.7,32.116,87.87,84.171,92.833,140.079,8.258,93.039-31.495,182.292-120.642,222.1-40.033,17.877-104.2,20.193-145.642,24.016C404.092,1823.545,311.089,1796.132,257.691,1759.9Z" transform="translate(0 51.89)" fill="#f3f9ff"/>
      <path id="Trazado_111834" data-name="Trazado 111834" d="M311.829,1382.193c-28.031-2.313-57.862-16.594-79.2-39.839-13.418-14.622-37.443-49.675-10.3-51.043,16.823-.848,102.8,31.9,118.947,53.668C352.753,1360.446,341.546,1383.862,311.829,1382.193Z" transform="translate(180.622 0)" fill="#f3f9ff"/>
    </g>
    <g id="Grupo_61766" data-name="Grupo 61766" transform="translate(265 1826.542)">
      <g id="Grupo_61765" data-name="Grupo 61765" transform="translate(0 0)">
        <g id="Grupo_61760" data-name="Grupo 61760" transform="translate(17.278 0)">
          <path id="Trazado_111788" data-name="Trazado 111788" d="M332.445,320.058a1.179,1.179,0,0,0-1.468-1.776l-55.989,28.965a1.178,1.178,0,1,0,1.082,2.092l55.991-28.964A1.19,1.19,0,0,0,332.445,320.058Z" transform="translate(-244.653 -300.097)"/>
          <path id="Trazado_111789" data-name="Trazado 111789" d="M211.454,400.358a1.179,1.179,0,0,0,.77-2.07l-37.516-32.355a1.178,1.178,0,0,0-1.538,1.784l37.514,32.355A1.18,1.18,0,0,0,211.454,400.358Z" transform="translate(78.64 -252.579)"/>
          <path id="Trazado_111790" data-name="Trazado 111790" d="M331.655,355.743a16.91,16.91,0,1,0-23.745,2.829A16.931,16.931,0,0,0,331.655,355.743Zm-24.724-19.46a14.553,14.553,0,1,1,2.435,20.437A14.57,14.57,0,0,1,306.931,336.283Z" transform="translate(-301.464 -289.859)"/>
          <path id="Trazado_111791" data-name="Trazado 111791" d="M206.513,386.467a16.91,16.91,0,1,0-16.91-16.91A16.929,16.929,0,0,0,206.513,386.467Zm0-31.463a14.553,14.553,0,1,1-14.553,14.553A14.571,14.571,0,0,1,206.513,355Z" transform="translate(34.156 -265.583)"/>
          <ellipse id="Elipse_4340" data-name="Elipse 4340" cx="15.732" cy="15.731" rx="15.732" ry="15.731" transform="translate(98.052 38.462) rotate(-165.185)" fill="#529ad9"/>
          <g id="Grupo_61759" data-name="Grupo 61759" transform="translate(386.434 197.95)">
            <g id="Grupo_61758" data-name="Grupo 61758" transform="translate(0)">
              <path id="Trazado_111792" data-name="Trazado 111792" d="M132.156,424.366a1.179,1.179,0,0,0,.834-2.013l-13.931-13.931a1.178,1.178,0,1,0-1.666,1.666l13.931,13.931A1.176,1.176,0,0,0,132.156,424.366Z" transform="translate(-117.048 -408.078)"/>
              <path id="Trazado_111793" data-name="Trazado 111793" d="M118.225,424.366a1.177,1.177,0,0,0,.834-.346l13.931-13.931a1.178,1.178,0,1,0-1.666-1.666l-13.931,13.931a1.179,1.179,0,0,0,.832,2.013Z" transform="translate(-117.048 -408.078)"/>
            </g>
          </g>
        </g>
        <ellipse id="Elipse_4341" data-name="Elipse 4341" cx="35.77" cy="35.77" rx="35.77" ry="35.77" transform="translate(204.036 122.62) rotate(-179.892)"/>
        <path id="Trazado_111794" data-name="Trazado 111794" d="M187.054,479.574H367.682l19.609,36.774H184.877Z" transform="translate(-102.98 -138.599)" fill="#fff"/>
        <path id="Trazado_111795" data-name="Trazado 111795" d="M387.882,518.116a1.182,1.182,0,0,0,1.038-1.734l-19.608-36.774a1.178,1.178,0,0,0-1.04-.622H187.643a1.179,1.179,0,0,0-1.176,1.108l-2.176,36.774a1.178,1.178,0,1,0,2.353.138l2.112-35.664h178.81l19.274,36.15A1.182,1.182,0,0,0,387.882,518.116Z" transform="translate(-103.569 -139.188)"/>
        <path id="Trazado_111796" data-name="Trazado 111796" d="M216.693,509.593a1.179,1.179,0,0,0,1.178-1.178c0-3.941,1.969-7.864,5.543-11.049l8.762-7.8a1.178,1.178,0,1,0-1.566-1.76l-8.764,7.806c-4.083,3.635-6.331,8.184-6.331,12.807A1.178,1.178,0,0,0,216.693,509.593Z" transform="translate(-9.55 -130.665)"/>
        <path id="Trazado_111797" data-name="Trazado 111797" d="M218.579,409.862c14.577-14.559,43.71-33.215,78.288-31.161l46.849.62c28.64,0,51.2,11.06,62.758,26.712,13.849,18.752,9.812,34.436,21.349,42.658,13.615,9.7,28.158-32.517,28.158-32.517l50.942,9.646c10.5,77.255,7.5,105.772-9.886,129.579-26.294,36.018-76.375,31.911-87.566,5.6l3.681,27.548H224.628C147.659,633.712,83.23,545.044,218.579,409.862Z" transform="translate(-138.687 -239.673)"/>
        <path id="Trazado_111798" data-name="Trazado 111798" d="M218.541,382.292a72.68,72.68,0,0,1,28.124-3.833s50.737.636,54.96,1.35l2.453,1.844S267.248,405.868,218.541,382.292Z" transform="translate(-87.111 -239.906)" fill="#fff"/>
        <path id="Trazado_111799" data-name="Trazado 111799" d="M185.973,602.257c12.261,0,25.872-3.955,39.579-11.945h188.2a1.179,1.179,0,0,0,1.168-1.334l-2.865-21.437c6.045,8.562,16.71,14.335,29.7,15.826,16.924,1.941,40.737-3.843,56.837-25.9,18.052-24.724,20.411-55.382,10.1-131.217a1.177,1.177,0,0,0-.948-1L456.8,415.6a1.179,1.179,0,0,0-1.334.774c-.1.294-10.254,29.441-20.955,32.865a5.762,5.762,0,0,1-5.405-.924c-5.571-3.971-7.312-9.838-9.512-17.266-2.088-7.042-4.685-15.806-11.573-25.132-12.577-17.026-36.392-27.19-63.706-27.19l-46.833-.62c-33.111-1.97-62.594,14.985-79.136,31.505-37.164,37.12-62.484,74.2-73.225,107.238-9.194,28.284-7.48,52.636,4.829,68.569C158.589,596.6,171.314,602.257,185.973,602.257Zm226.435-14.3H225.232a1.175,1.175,0,0,0-.6.162c-29.1,17.078-57.683,15.455-72.816-4.135-22.7-29.385-10.416-94.181,68.2-172.7,16.18-16.16,45-32.743,77.385-30.819l46.9.622c26.586,0,49.693,9.806,61.826,26.234,6.642,8.992,9.068,17.178,11.209,24.4,2.238,7.552,4.171,14.073,10.4,18.516a8.092,8.092,0,0,0,7.494,1.248c10.764-3.447,20.2-28.082,22.123-33.381l49.113,9.3c10.082,74.5,7.774,104.623-9.782,128.671-15.505,21.237-38.4,26.812-54.664,24.944-14.747-1.69-26.286-9.13-30.867-19.9a1.178,1.178,0,0,0-2.253.616Z" transform="translate(-139.29 -240.263)"/>
        <path id="Trazado_111800" data-name="Trazado 111800" d="M295.675,432.325a1.181,1.181,0,0,0,1.112-1.57c-9.772-27.714-41.143-16.824-66.349-8.074a1.177,1.177,0,1,0,.772,2.224c30.8-10.69,55.024-16.99,63.354,6.633A1.181,1.181,0,0,0,295.675,432.325Z" transform="translate(-102.103 -205.179)"/>
        <g id="Grupo_61761" data-name="Grupo 61761" transform="translate(313.486 70.901)">
          <path id="Trazado_111801" data-name="Trazado 111801" d="M142.775,412.307l1.992-26.228a11.934,11.934,0,0,1,3.5-7.362c9.038-8.912,25.782-19.348,33.069-23.5,15.421-8.782,19.953,1.957,20.453,2.995,3.435,7.144-1.574,19.086-1.574,19.086,1.77,3.873,6,5.727,2.927,20.927,0,0,8.512,6.8.018,18.648,0,0,6.4,11.26-14.721,15.911l-3.281,27.032a26.435,26.435,0,1,1-51.884-9.612Z" transform="translate(-131.289 -337.341)" fill="#fff"/>
          <path id="Trazado_111802" data-name="Trazado 111802" d="M159.554,484.852a27.649,27.649,0,0,0,27.384-24.3l3.179-26.21c8.026-1.892,13.051-5.005,14.941-9.256a9.586,9.586,0,0,0,.066-7.5c7.118-10.436,1.736-17.31-.09-19.176,2.367-12.249-.052-16.012-2-19.046-.332-.518-.652-1.014-.92-1.522.942-2.429,4.6-12.789,1.348-19.546l-.04-.086a11.579,11.579,0,0,0-7.04-6.454c-4.133-1.312-9.184-.292-15.017,3.031-8.17,4.651-24.38,14.875-33.316,23.683a13.148,13.148,0,0,0-3.849,8.088l-1.984,26.152-9.476,37.8a27.655,27.655,0,0,0,26.814,34.342Zm33.107-131.3a9.858,9.858,0,0,1,3.009.446,9.283,9.283,0,0,1,5.617,5.207l.05.106c3.163,6.578-1.55,18.006-1.6,18.12a1.188,1.188,0,0,0,.014.946,18.173,18.173,0,0,0,1.3,2.255c1.844,2.871,3.933,6.125,1.546,17.948a1.177,1.177,0,0,0,.42,1.154c.306.248,7.5,6.293-.206,17.042a1.179,1.179,0,0,0-.066,1.27,7.2,7.2,0,0,1,.144,6.111c-1.626,3.6-6.5,6.391-14.1,8.066a1.177,1.177,0,0,0-.916,1.008L184.6,460.267a25.256,25.256,0,1,1-49.571-9.182l9.5-37.9a1.283,1.283,0,0,0,.032-.2l1.99-26.228a10.768,10.768,0,0,1,3.155-6.613c8.78-8.656,25.312-19.034,32.827-23.313C186.36,354.651,189.755,353.555,192.661,353.555Z" transform="translate(-131.897 -337.932)"/>
          <path id="Trazado_111803" data-name="Trazado 111803" d="M136.406,390.429c2.775,0,8.624-.54,13.047-4.651a1.178,1.178,0,0,0-1.6-1.726c-5.075,4.717-12.695,3.975-12.771,3.967a1.178,1.178,0,0,0-.252,2.343A15.555,15.555,0,0,0,136.406,390.429Z" transform="translate(-76.778 -305.381)"/>
          <path id="Trazado_111804" data-name="Trazado 111804" d="M134.957,383.987a1.215,1.215,0,0,0,.148-.008,14.824,14.824,0,0,0,10.668-7.85,1.179,1.179,0,1,0-2.1-1.074,12.442,12.442,0,0,1-8.866,6.585,1.178,1.178,0,0,0,.148,2.347Z" transform="translate(-72.868 -314.708)"/>
          <path id="Trazado_111805" data-name="Trazado 111805" d="M135.836,407.022l7.135,6.937,30.473-38.12,20.6-23.745-4.508-.3Z" transform="translate(-125.115 -337.341)"/>
          <path id="Trazado_111806" data-name="Trazado 111806" d="M127.6,359.468l6.932,7.146,12.707-13.069,1.74-7.388a1.293,1.293,0,0,0-1.6-1.542l-7.274,1.992Z" transform="translate(-63.623 -344.567)"/>
          <path id="Trazado_111807" data-name="Trazado 111807" d="M167.083,435.835a1.171,1.171,0,0,0,.9-.42c14.357-17.082,11.751-42.74,11.106-47.575,1.236-.936,3.785-3.459,7.236-9.92,4.767-8.932,5.111-19.636.752-23.373-1.384-1.184-4.421-2.637-9.224.968-11.038,8.286-42.53,54.382-43.864,56.341a1.178,1.178,0,0,0,1.946,1.328c.324-.478,32.605-47.731,43.332-55.782,1.828-1.374,4.4-2.671,6.275-1.064,3.119,2.673,3.227,12-1.3,20.473-4.257,7.974-6.906,9.376-6.932,9.39a1.217,1.217,0,0,0-.662,1.252c.046.286,4.391,28.76-10.474,46.446a1.178,1.178,0,0,0,.9,1.936Z" transform="translate(-117.109 -335.901)"/>
        </g>
        <rect id="Rect치ngulo_6176" data-name="Rect치ngulo 6176" width="76.169" height="88.434" transform="translate(134.607 174.506)" fill="#fff"/>
        <path id="Trazado_111808" data-name="Trazado 111808" d="M222.135,348.266c.808-7.276,6.293-13.1,12.973-15.76a12.091,12.091,0,0,1,10.286.622c2.557,1.4,5.021,3.963,5.013,6.94,5.567-2.5,12.479.042,15.661,5.2,4.793,7.762,3.677,19.084-4.051,24.618-4.427,3.173-9.164,2.467-14.255,2.709-6.778.324-13.805-1.7-18.814-6.413A21.815,21.815,0,0,1,222.135,348.266Z" transform="translate(-58.928 -286.594)"/>
        <path id="Trazado_111809" data-name="Trazado 111809" d="M220.889,393.766c18.746-3.409,14.079-19.126,14.079-19.126,5.223-4.173,2.919-14.819,1.3-20.243a2.908,2.908,0,0,1,2.306-3.7c15.834-2.651,28.726-13.693,32.361-1.048.794,2.759.938,3.173,1.836,6.612,6.786,25.934,15.716,46.194-10.56,47.939l.032,14.115-41.359-1.386Z" transform="translate(-67.632 -274.537)" fill="#fff"/>
        <path id="Trazado_111810" data-name="Trazado 111810" d="M250.978,391.426a1.178,1.178,0,0,0,1.178-1.178v-21.2a1.178,1.178,0,0,0-2.357,0v21.2A1.178,1.178,0,0,0,250.978,391.426Z" transform="translate(-97.721 -250.352)"/>
        <path id="Trazado_111811" data-name="Trazado 111811" d="M230.33,386.353a1.181,1.181,0,0,0,1.178-1.18l-.022-10.646a1.178,1.178,0,0,0-2.357,0l.022,10.646A1.177,1.177,0,0,0,230.33,386.353Z" transform="translate(-35.724 -244.871)"/>
        <path id="Trazado_111812" data-name="Trazado 111812" d="M221.487,399.682c.026,0,.052,0,.078,0,7.96-.53,13.231-2.763,16.114-6.83,5.233-7.376,1.774-19.836-2.229-34.266-.746-2.691-1.518-5.473-2.262-8.318a1.179,1.179,0,0,0-2.281.6c.75,2.861,1.524,5.653,2.273,8.352,3.843,13.849,7.16,25.812,2.577,32.273-2.447,3.451-7.14,5.361-14.347,5.839a1.179,1.179,0,0,0,.078,2.354Z" transform="translate(-26.903 -268.846)"/>
        <path id="Trazado_111813" data-name="Trazado 111813" d="M223.867,356.627a1.156,1.156,0,0,0,.246-.026l25.874-5.519a1.178,1.178,0,0,0-.492-2.3L223.621,354.3a1.178,1.178,0,0,0,.246,2.33Z" transform="translate(-42.25 -269.481)" fill="#529ad9"/>
        <path id="Trazado_111814" data-name="Trazado 111814" d="M235.893,375.961a50.467,50.467,0,0,0,5.273-.26,1.179,1.179,0,0,0-.25-2.345,57.515,57.515,0,0,1-10.474,0,1.179,1.179,0,0,0-.244,2.345C230.345,375.717,232.742,375.961,235.893,375.961Z" transform="translate(-46.456 -244.871)"/>
        <path id="Trazado_111815" data-name="Trazado 111815" d="M230.026,373.959s-1.008,12.051,10.35,9.168l.4-8.872Z" transform="translate(-46.74 -244.261)"/>
        <ellipse id="Elipse_4342" data-name="Elipse 4342" cx="15.137" cy="15.137" rx="15.137" ry="15.137" transform="translate(184.726 84.237) rotate(-97.018)"/>
        <ellipse id="Elipse_4343" data-name="Elipse 4343" cx="12.934" cy="12.934" rx="12.934" ry="12.934" transform="matrix(-0.899, -0.439, 0.439, -0.899, 185.345, 73.435)"/>
        <path id="Trazado_111816" data-name="Trazado 111816" d="M244.377,357.113A14.112,14.112,0,1,0,230.266,343,14.13,14.13,0,0,0,244.377,357.113Zm0-25.868A11.756,11.756,0,1,1,232.622,343,11.768,11.768,0,0,1,244.377,331.246Z" transform="translate(-64.978 -289.352)"/>
        <rect id="Rect치ngulo_6177" data-name="Rect치ngulo 6177" width="47.246" height="11.919" transform="translate(149.068 166.36)" fill="#fee45a"/>
        <g id="Grupo_61762" data-name="Grupo 61762" transform="translate(155.757 91.707)">
          <path id="Trazado_111817" data-name="Trazado 111817" d="M238.517,365.592a10.624,10.624,0,1,0,10.624-10.624A10.625,10.625,0,0,0,238.517,365.592Z" transform="translate(-238.517 -354.968)" fill="#fff"/>
          <path id="Trazado_111818" data-name="Trazado 111818" d="M247.332,365.722a1.177,1.177,0,0,0,.958-1.862l-3.891-5.445a1.178,1.178,0,1,0-1.916,1.37l3.889,5.445A1.176,1.176,0,0,0,247.332,365.722Z" transform="translate(-234.755 -352.014)"/>
        </g>
        <path id="Trazado_111819" data-name="Trazado 111819" d="M234.3,357.927a2.383,2.383,0,1,0,2.383-2.383A2.382,2.382,0,0,0,234.3,357.927Z" transform="translate(-53.632 -262.685)"/>
        <path id="Trazado_111820" data-name="Trazado 111820" d="M224.7,356.736a2.383,2.383,0,1,0,2.383-2.383A2.382,2.382,0,0,0,224.7,356.736Z" transform="translate(-24.831 -263.876)"/>
        <path id="Trazado_111821" data-name="Trazado 111821" d="M241.094,376.587a13.174,13.174,0,0,0,2-.08,12.519,12.519,0,1,0-2,.08Zm.938-22.783a10.267,10.267,0,1,1-1.626.066A10.32,10.32,0,0,1,242.033,353.8Z" transform="translate(-58.209 -266.792)" fill="#529ad9"/>
        <path id="Trazado_111822" data-name="Trazado 111822" d="M228.67,373.836a12.577,12.577,0,1,0-12.415-10.608A12.527,12.527,0,0,0,228.67,373.836Zm.03-22.8a10.245,10.245,0,1,1-1.622.128A10.355,10.355,0,0,1,228.7,351.037Z" transform="translate(-19.403 -269.552)" fill="#529ad9"/>
        <path id="Trazado_111823" data-name="Trazado 111823" d="M231.976,372.555a1.18,1.18,0,0,0,1.124-1.53L228.127,355.1a1.178,1.178,0,1,0-2.248.7l4.973,15.924A1.178,1.178,0,0,0,231.976,372.555Z" transform="translate(-30.759 -263.956)"/>
        <path id="Trazado_111824" data-name="Trazado 111824" d="M224.254,368.808a1.178,1.178,0,0,0,.8-.318l3.731-3.485a1.178,1.178,0,0,0-1.608-1.722l-3.733,3.485a1.179,1.179,0,0,0,.806,2.04Z" transform="translate(-21.266 -255.26)"/>
        <path id="Trazado_111825" data-name="Trazado 111825" d="M203.745,564.89a.8.8,0,0,0,.1,0,1.177,1.177,0,0,0,1.076-1.272L191.563,404.448a1.178,1.178,0,1,0-2.349.2l13.357,159.168A1.178,1.178,0,0,0,203.745,564.89Z" transform="translate(70.719 -214.841)" fill="#fff"/>
        <path id="Trazado_111826" data-name="Trazado 111826" d="M282.706,467.259a1.178,1.178,0,0,0,.964-.5c18.238-25.86,29.771-27.838,45.734-30.577,7.688-1.32,16.4-2.815,27.146-7.316a1.179,1.179,0,0,0-.91-2.174c-10.5,4.4-19.07,5.869-26.636,7.168-15.9,2.727-28.458,4.883-47.259,31.541a1.176,1.176,0,0,0,.96,1.856Z" transform="translate(-266.314 -191.595)" fill="#fff"/>
        <path id="Trazado_111827" data-name="Trazado 111827" d="M242.506,456.269l24.2-18.148s10.016-40.463,22.193-39.285,1.376,29.581,1.376,29.581,22.943-16.4,28.783-18.366,12.809-3.339,16.758,2.543c3.5,5.211-1.378,9.436-6.9,12.529,4.269-2.078,13.767-5.729,17.608.678,2.843,4.743-1.932,9.4-6.616,12.549,3.381-1.24,7.148-1.582,9.336,1.546,3.587,5.125-.572,10.022-7.8,14.573,2.046,1.9,4.7,5.615,1.982,10.744-4.053,7.66-33.848,20.6-33.848,20.6l-27.8,21.739a32.3,32.3,0,1,1-39.275-51.286Z" transform="translate(-155.672 -219.399)" fill="#fff"/>
        <path id="Trazado_111828" data-name="Trazado 111828" d="M262.6,516.192a33.1,33.1,0,0,0,20.511-7.12l27.68-21.647c2.491-1.09,30.185-13.331,34.282-21.071a9.278,9.278,0,0,0-1.186-11.084c4.957-3.315,7.68-6.453,8.308-9.574a7.424,7.424,0,0,0-1.38-5.885,6.792,6.792,0,0,0-5.739-2.949c5.045-4.711,4.587-8.536,3.063-11.078-2.17-3.621-6.273-4.9-11.685-3.787a8.843,8.843,0,0,0,2.148-3.821,6.962,6.962,0,0,0-1.2-5.649c-4.413-6.573-12-5.059-18.11-3-4.709,1.582-19.646,11.877-26.1,16.41,1.962-6.137,5.269-18.7,1.664-24.506a6.6,6.6,0,0,0-5.231-3.177c-12.5-1.212-21.887,33.978-23.347,39.767l-23.869,17.9a33.477,33.477,0,0,0,14.885,59.858A34.1,34.1,0,0,0,262.6,516.192Zm82.281-76.971a4.58,4.58,0,0,1,4,1.94,5.1,5.1,0,0,1,1,4.069c-.538,2.663-3.387,5.633-8.466,8.832a1.177,1.177,0,0,0-.174,1.86c2.044,1.9,4.009,5.053,1.744,9.33-3.167,5.981-25.1,16.518-33.278,20.071a1.145,1.145,0,0,0-.256.154l-27.8,21.739A31.122,31.122,0,1,1,243.815,457.8l24.206-18.146a1.18,1.18,0,0,0,.436-.66c2.719-10.98,11.8-39.3,20.935-38.4a4.289,4.289,0,0,1,3.457,2.073c3.451,5.555-1.044,20.593-3.069,25.918a1.18,1.18,0,0,0,1.788,1.376c.228-.164,22.865-16.324,28.472-18.208,5.651-1.9,11.9-3.137,15.4,2.082a4.645,4.645,0,0,1,.864,3.789c-.536,2.247-3.015,4.621-7.364,7.056a1.178,1.178,0,0,0,1.09,2.089c3.711-1.808,12.707-5.4,16.082.224,2.385,3.977-2.09,8.158-6.261,10.964a1.178,1.178,0,0,0,1.062,2.085A11.7,11.7,0,0,1,344.88,439.221Z" transform="translate(-156.275 -219.989)"/>
        <g id="Grupo_61764" data-name="Grupo 61764" transform="translate(127.544 204.544)">
          <g id="Grupo_61763" data-name="Grupo 61763">
            <path id="Trazado_111829" data-name="Trazado 111829" d="M240.988,430.908a1.172,1.172,0,0,0,.53-.126l34.04-17.178a1.179,1.179,0,0,0-1.062-2.1l-34.04,17.178a1.179,1.179,0,0,0,.532,2.231Z" transform="translate(-229.326 -411.374)"/>
            <path id="Trazado_111830" data-name="Trazado 111830" d="M260.3,418.791a1.176,1.176,0,0,0,.59-.16l5.883-3.413a1.178,1.178,0,1,0-1.18-2.038l-5.885,3.413a1.179,1.179,0,0,0,.592,2.2Z" transform="translate(-259.123 -409.727)"/>
            <path id="Trazado_111831" data-name="Trazado 111831" d="M235.492,437.581a1.189,1.189,0,0,0,.516-.12l35.322-17.238a1.178,1.178,0,1,0-1.034-2.116l-35.32,17.236a1.179,1.179,0,0,0,.516,2.239Z" transform="translate(-214.12 -404.759)"/>
            <path id="Trazado_111832" data-name="Trazado 111832" d="M234.726,443.448a1.178,1.178,0,0,0,.538-.13l29.259-15.047a1.179,1.179,0,0,0-1.078-2.1l-29.257,15.047a1.178,1.178,0,0,0,.538,2.226Z" transform="translate(-205.756 -396.697)"/>
          </g>
        </g>
      </g>
    </g>
  </g>
</svg>
