<svg xmlns="http://www.w3.org/2000/svg" width="295" height="199.637" viewBox="0 0 295 199.637">
  <g id="Grupo_61804" data-name="Grupo 61804" transform="translate(-968 -2764.363)">
    <rect id="Rect치ngulo_6180" data-name="Rect치ngulo 6180" width="295" height="147.137" rx="10" transform="translate(968 2816.863)" fill="#ecedcc"/>
    <path id="Trazado_112021" data-name="Trazado 112021" d="M10.9,12.939a4.708,4.708,0,0,1-1.5,3.133,4.911,4.911,0,0,1-3.353,1.1A4.509,4.509,0,0,1,2.413,15.55,6.542,6.542,0,0,1,1.046,11.2V9.969a7.291,7.291,0,0,1,.637-3.138A4.76,4.76,0,0,1,3.489,4.752,5.029,5.029,0,0,1,6.2,4.027a4.624,4.624,0,0,1,3.27,1.138A4.765,4.765,0,0,1,10.9,8.316H9.2a3.677,3.677,0,0,0-.954-2.222A2.885,2.885,0,0,0,6.2,5.407,3.019,3.019,0,0,0,3.661,6.6a5.492,5.492,0,0,0-.918,3.4v1.24a5.645,5.645,0,0,0,.87,3.316A2.812,2.812,0,0,0,6.047,15.8,3.247,3.247,0,0,0,8.2,15.159a3.536,3.536,0,0,0,1-2.219Zm1.617-.782a5.617,5.617,0,0,1,.549-2.514,4.1,4.1,0,0,1,1.529-1.723,4.163,4.163,0,0,1,2.237-.606,4.01,4.01,0,0,1,3.142,1.345,5.174,5.174,0,0,1,1.2,3.577v.114a5.666,5.666,0,0,1-.532,2.492,4.038,4.038,0,0,1-1.521,1.718,4.211,4.211,0,0,1-2.272.615,4,4,0,0,1-3.133-1.345,5.147,5.147,0,0,1-1.2-3.56Zm1.635.193a4.068,4.068,0,0,0,.734,2.54,2.487,2.487,0,0,0,3.933-.013,4.449,4.449,0,0,0,.729-2.72A4.061,4.061,0,0,0,18.8,9.622a2.361,2.361,0,0,0-1.973-.971,2.335,2.335,0,0,0-1.942.958A4.416,4.416,0,0,0,14.15,12.351Zm10.6-4.86.053,1.2A3.465,3.465,0,0,1,27.65,7.314q3.015,0,3.041,3.4V17H29.065V10.707a2.189,2.189,0,0,0-.47-1.521,1.884,1.884,0,0,0-1.437-.492,2.347,2.347,0,0,0-1.389.422,2.865,2.865,0,0,0-.932,1.107V17H23.212V7.49Zm13.931,6.987a1.2,1.2,0,0,0-.5-1.024,4.78,4.78,0,0,0-1.731-.628,8.186,8.186,0,0,1-1.96-.633,2.788,2.788,0,0,1-1.072-.879,2.1,2.1,0,0,1-.347-1.213,2.467,2.467,0,0,1,.989-1.978,3.861,3.861,0,0,1,2.527-.809,3.974,3.974,0,0,1,2.624.835,2.652,2.652,0,0,1,1.006,2.136H38.584a1.468,1.468,0,0,0-.567-1.151,2.124,2.124,0,0,0-1.428-.483,2.223,2.223,0,0,0-1.389.387,1.217,1.217,0,0,0-.5,1.011.986.986,0,0,0,.466.888,5.731,5.731,0,0,0,1.683.571,8.77,8.77,0,0,1,1.973.65,2.878,2.878,0,0,1,1.121.91,2.237,2.237,0,0,1,.365,1.3,2.434,2.434,0,0,1-1.02,2.043,4.277,4.277,0,0,1-2.646.769,4.789,4.789,0,0,1-2.021-.4,3.288,3.288,0,0,1-1.375-1.129,2.722,2.722,0,0,1-.5-1.569h1.626a1.683,1.683,0,0,0,.655,1.3,2.54,2.54,0,0,0,1.613.479,2.622,2.622,0,0,0,1.481-.374A1.148,1.148,0,0,0,38.681,14.478ZM48.3,16.06a3.454,3.454,0,0,1-2.786,1.116,2.956,2.956,0,0,1-2.316-.883,3.823,3.823,0,0,1-.8-2.615V7.49h1.626v6.144q0,2.162,1.758,2.162a2.434,2.434,0,0,0,2.479-1.389V7.49h1.626V17H48.331ZM53.877,7.49l.044,1.055a3.512,3.512,0,0,1,2.821-1.23,2.719,2.719,0,0,1,2.716,1.529,3.6,3.6,0,0,1,1.235-1.107,3.647,3.647,0,0,1,1.8-.422q3.129,0,3.182,3.313V17H64.046V10.725A2.184,2.184,0,0,0,63.58,9.2a2.051,2.051,0,0,0-1.564-.505,2.156,2.156,0,0,0-1.5.541,2.193,2.193,0,0,0-.694,1.455V17H58.184V10.769a1.814,1.814,0,0,0-2.03-2.074,2.175,2.175,0,0,0-2.188,1.362V17H52.339V7.49ZM69.891,17H68.265V7.49h1.626ZM68.133,4.968a.971.971,0,0,1,.242-.668.907.907,0,0,1,.716-.272.922.922,0,0,1,.721.272.96.96,0,0,1,.246.668.929.929,0,0,1-.246.659.938.938,0,0,1-.721.264.924.924,0,0,1-.716-.264A.938.938,0,0,1,68.133,4.968Zm8.956,3.981a4.873,4.873,0,0,0-.8-.062,2.143,2.143,0,0,0-2.171,1.362V17H72.492V7.49h1.582l.026,1.1a2.532,2.532,0,0,1,2.268-1.274,1.661,1.661,0,0,1,.721.123Zm5.555,3.217a5.571,5.571,0,0,1,1.037-3.52,3.529,3.529,0,0,1,5.361-.189V3.5h1.626V17H89.174l-.079-1.02a3.311,3.311,0,0,1-2.716,1.2,3.248,3.248,0,0,1-2.694-1.354,5.634,5.634,0,0,1-1.042-3.533Zm1.626.185a4.218,4.218,0,0,0,.668,2.531,2.159,2.159,0,0,0,1.846.914,2.372,2.372,0,0,0,2.259-1.389V10.039A2.39,2.39,0,0,0,86.8,8.694a2.17,2.17,0,0,0-1.863.923A4.644,4.644,0,0,0,84.27,12.351Zm12.867,4.825a4.155,4.155,0,0,1-3.146-1.27,4.714,4.714,0,0,1-1.213-3.4v-.3a5.707,5.707,0,0,1,.541-2.527,4.217,4.217,0,0,1,1.512-1.74,3.8,3.8,0,0,1,2.1-.628,3.562,3.562,0,0,1,2.883,1.222,5.289,5.289,0,0,1,1.028,3.5v.677H94.4a3.38,3.38,0,0,0,.822,2.272,2.583,2.583,0,0,0,2,.866,2.832,2.832,0,0,0,1.459-.352,3.666,3.666,0,0,0,1.046-.932l.993.773A3.993,3.993,0,0,1,97.137,17.176Zm-.2-8.525a2.169,2.169,0,0,0-1.652.716,3.482,3.482,0,0,0-.826,2.008H99.22v-.123a3.1,3.1,0,0,0-.668-1.92A2.042,2.042,0,0,0,96.935,8.65Zm8-3.463v2.3h1.775V8.747h-1.775v5.9a1.32,1.32,0,0,0,.237.858,1,1,0,0,0,.809.286,3.937,3.937,0,0,0,.773-.105V17a4.742,4.742,0,0,1-1.248.175,2.025,2.025,0,0,1-1.644-.659,2.832,2.832,0,0,1-.554-1.872v-5.9h-1.731V7.49h1.731v-2.3Zm7.62,11.988a4.155,4.155,0,0,1-3.146-1.27,4.714,4.714,0,0,1-1.213-3.4v-.3a5.707,5.707,0,0,1,.541-2.527,4.217,4.217,0,0,1,1.512-1.74,3.8,3.8,0,0,1,2.1-.628,3.562,3.562,0,0,1,2.883,1.222,5.289,5.289,0,0,1,1.028,3.5v.677h-6.442a3.38,3.38,0,0,0,.822,2.272,2.583,2.583,0,0,0,2,.866A2.832,2.832,0,0,0,114.1,15.5a3.666,3.666,0,0,0,1.046-.932l.993.773A3.993,3.993,0,0,1,112.553,17.176Zm-.2-8.525a2.169,2.169,0,0,0-1.652.716,3.482,3.482,0,0,0-.826,2.008h4.764v-.123a3.1,3.1,0,0,0-.668-1.92A2.042,2.042,0,0,0,112.351,8.65Zm10.389.3a4.873,4.873,0,0,0-.8-.062,2.143,2.143,0,0,0-2.171,1.362V17h-1.626V7.49h1.582l.026,1.1a2.532,2.532,0,0,1,2.268-1.274,1.661,1.661,0,0,1,.721.123Zm3.023-1.459.044,1.055a3.512,3.512,0,0,1,2.821-1.23,2.719,2.719,0,0,1,2.716,1.529,3.6,3.6,0,0,1,1.235-1.107,3.647,3.647,0,0,1,1.8-.422q3.129,0,3.182,3.313V17h-1.626V10.725a2.184,2.184,0,0,0-.466-1.525,2.051,2.051,0,0,0-1.564-.505,2.156,2.156,0,0,0-1.5.541,2.193,2.193,0,0,0-.694,1.455V17h-1.635V10.769a1.814,1.814,0,0,0-2.03-2.074,2.175,2.175,0,0,0-2.188,1.362V17h-1.626V7.49ZM141.776,17H140.15V7.49h1.626ZM140.019,4.968a.971.971,0,0,1,.242-.668.907.907,0,0,1,.716-.272.922.922,0,0,1,.721.272.96.96,0,0,1,.246.668.929.929,0,0,1-.246.659.938.938,0,0,1-.721.264.924.924,0,0,1-.716-.264A.938.938,0,0,1,140.019,4.968Zm5.9,2.522.053,1.2a3.465,3.465,0,0,1,2.848-1.371q3.015,0,3.041,3.4V17h-1.626V10.707a2.189,2.189,0,0,0-.47-1.521,1.884,1.884,0,0,0-1.437-.492,2.347,2.347,0,0,0-1.389.422A2.865,2.865,0,0,0,146,10.224V17h-1.626V7.49ZM160.181,17a3.416,3.416,0,0,1-.229-1,3.628,3.628,0,0,1-2.707,1.178,3.357,3.357,0,0,1-2.307-.8,2.573,2.573,0,0,1-.9-2.017,2.688,2.688,0,0,1,1.129-2.307,5.325,5.325,0,0,1,3.177-.822h1.582v-.747a1.826,1.826,0,0,0-.51-1.358,2.049,2.049,0,0,0-1.5-.505,2.371,2.371,0,0,0-1.459.439,1.3,1.3,0,0,0-.589,1.063H154.23a2.244,2.244,0,0,1,.505-1.375,3.449,3.449,0,0,1,1.371-1.05,4.613,4.613,0,0,1,1.9-.387,3.759,3.759,0,0,1,2.575.822,2.964,2.964,0,0,1,.967,2.263v4.377a5.351,5.351,0,0,0,.334,2.083V17Zm-2.7-1.239a2.858,2.858,0,0,0,1.45-.4,2.392,2.392,0,0,0,.993-1.028V12.386h-1.274q-2.988,0-2.988,1.749a1.48,1.48,0,0,0,.51,1.2A1.959,1.959,0,0,0,157.482,15.761Zm6.223-3.595a5.571,5.571,0,0,1,1.037-3.52,3.529,3.529,0,0,1,5.361-.189V3.5h1.626V17h-1.494l-.079-1.02a3.311,3.311,0,0,1-2.716,1.2,3.248,3.248,0,0,1-2.694-1.354,5.634,5.634,0,0,1-1.042-3.533Zm1.626.185A4.218,4.218,0,0,0,166,14.882a2.159,2.159,0,0,0,1.846.914,2.372,2.372,0,0,0,2.259-1.389V10.039a2.39,2.39,0,0,0-2.241-1.345A2.17,2.17,0,0,0,166,9.617,4.644,4.644,0,0,0,165.331,12.351Zm8.49-.193a5.617,5.617,0,0,1,.549-2.514A4.1,4.1,0,0,1,175.9,7.921a4.163,4.163,0,0,1,2.237-.606,4.01,4.01,0,0,1,3.142,1.345,5.174,5.174,0,0,1,1.2,3.577v.114a5.666,5.666,0,0,1-.532,2.492,4.038,4.038,0,0,1-1.521,1.718,4.211,4.211,0,0,1-2.272.615,4,4,0,0,1-3.133-1.345,5.147,5.147,0,0,1-1.2-3.56Zm1.635.193a4.068,4.068,0,0,0,.734,2.54,2.487,2.487,0,0,0,3.933-.013,4.449,4.449,0,0,0,.729-2.72,4.061,4.061,0,0,0-.743-2.536,2.361,2.361,0,0,0-1.973-.971,2.335,2.335,0,0,0-1.942.958A4.416,4.416,0,0,0,175.456,12.351Zm-166.192,25a5.694,5.694,0,0,1-.993,3.5,3.183,3.183,0,0,1-2.689,1.327,3.488,3.488,0,0,1-2.725-1.1v4.579H1.23V32.49H2.716l.079,1.055a3.35,3.35,0,0,1,2.76-1.23,3.243,3.243,0,0,1,2.711,1.292,5.756,5.756,0,0,1,1,3.595Zm-1.626-.185a4.2,4.2,0,0,0-.686-2.54,2.208,2.208,0,0,0-1.881-.932A2.39,2.39,0,0,0,2.856,35v4.544a2.4,2.4,0,0,0,2.232,1.3,2.2,2.2,0,0,0,1.859-.927A4.587,4.587,0,0,0,7.638,37.166Zm8.288-3.217a4.873,4.873,0,0,0-.8-.062,2.143,2.143,0,0,0-2.171,1.362V42H11.329V32.49h1.582l.026,1.1a2.532,2.532,0,0,1,2.268-1.274,1.661,1.661,0,0,1,.721.123Zm.888,3.208a5.617,5.617,0,0,1,.549-2.514,4.1,4.1,0,0,1,1.529-1.723,4.163,4.163,0,0,1,2.237-.606,4.01,4.01,0,0,1,3.142,1.345,5.174,5.174,0,0,1,1.2,3.577v.114a5.666,5.666,0,0,1-.532,2.492,4.038,4.038,0,0,1-1.521,1.718,4.211,4.211,0,0,1-2.272.615,4,4,0,0,1-3.133-1.345,5.147,5.147,0,0,1-1.2-3.56Zm1.635.193a4.068,4.068,0,0,0,.734,2.54,2.487,2.487,0,0,0,3.933-.013,4.449,4.449,0,0,0,.729-2.72,4.061,4.061,0,0,0-.743-2.536,2.361,2.361,0,0,0-1.973-.971,2.335,2.335,0,0,0-1.942.958A4.416,4.416,0,0,0,18.448,37.351Zm8.666-.185a5.571,5.571,0,0,1,1.037-3.52,3.529,3.529,0,0,1,5.361-.189V28.5h1.626V42H33.645l-.079-1.02a3.311,3.311,0,0,1-2.716,1.2,3.248,3.248,0,0,1-2.694-1.354,5.634,5.634,0,0,1-1.042-3.533Zm1.626.185a4.218,4.218,0,0,0,.668,2.531,2.159,2.159,0,0,0,1.846.914,2.372,2.372,0,0,0,2.259-1.389V35.039a2.39,2.39,0,0,0-2.241-1.345,2.17,2.17,0,0,0-1.863.923A4.644,4.644,0,0,0,28.74,37.351ZM43.532,41.06a3.454,3.454,0,0,1-2.786,1.116,2.956,2.956,0,0,1-2.316-.883,3.823,3.823,0,0,1-.8-2.615V32.49h1.626v6.144q0,2.162,1.758,2.162a2.434,2.434,0,0,0,2.479-1.389V32.49h1.626V42H43.567Zm7.866-.211a2.342,2.342,0,0,0,1.521-.527A1.855,1.855,0,0,0,53.64,39h1.538a2.949,2.949,0,0,1-.562,1.556,3.7,3.7,0,0,1-1.384,1.178,3.994,3.994,0,0,1-1.833.439,3.918,3.918,0,0,1-3.089-1.3,5.163,5.163,0,0,1-1.147-3.546v-.272a5.725,5.725,0,0,1,.51-2.47,3.883,3.883,0,0,1,1.463-1.679,4.157,4.157,0,0,1,2.254-.6,3.814,3.814,0,0,1,2.659.958,3.424,3.424,0,0,1,1.129,2.487H53.64a2.241,2.241,0,0,0-.7-1.516,2.174,2.174,0,0,0-1.551-.593,2.276,2.276,0,0,0-1.92.892,4.19,4.19,0,0,0-.681,2.58v.308a4.106,4.106,0,0,0,.677,2.531A2.287,2.287,0,0,0,51.4,40.849Zm7.813-10.661v2.3h1.775v1.257H59.212v5.9a1.32,1.32,0,0,0,.237.858,1,1,0,0,0,.809.286,3.937,3.937,0,0,0,.773-.105V42a4.742,4.742,0,0,1-1.248.175,2.025,2.025,0,0,1-1.644-.659,2.832,2.832,0,0,1-.554-1.872v-5.9H55.854V32.49h1.731v-2.3Zm3.067,6.97a5.617,5.617,0,0,1,.549-2.514,4.1,4.1,0,0,1,1.529-1.723,4.163,4.163,0,0,1,2.237-.606,4.01,4.01,0,0,1,3.142,1.345,5.174,5.174,0,0,1,1.2,3.577v.114a5.666,5.666,0,0,1-.532,2.492,4.038,4.038,0,0,1-1.521,1.718,4.211,4.211,0,0,1-2.272.615,4,4,0,0,1-3.133-1.345,5.147,5.147,0,0,1-1.2-3.56Zm1.635.193a4.068,4.068,0,0,0,.734,2.54,2.487,2.487,0,0,0,3.933-.013,4.449,4.449,0,0,0,.729-2.72,4.061,4.061,0,0,0-.743-2.536,2.361,2.361,0,0,0-1.973-.971,2.335,2.335,0,0,0-1.942.958A4.416,4.416,0,0,0,63.914,37.351Zm9.1,3.8a1.018,1.018,0,0,1,.25-.7.954.954,0,0,1,.751-.281.983.983,0,0,1,.76.281,1,1,0,0,1,.259.7.944.944,0,0,1-.259.677,1,1,0,0,1-.76.272.9.9,0,0,1-1-.949Z" transform="translate(1008 2891.87)" fill="#12263f"/>
    <g id="Grupo_61768" data-name="Grupo 61768" transform="translate(737 2260.363)">
      <rect id="Rect치ngulo_5987" data-name="Rect치ngulo 5987" width="105" height="105" transform="translate(326 504)" fill="none"/>
      <g id="productos" transform="translate(331.083 510.129)">
        <path id="Trazado_111988" data-name="Trazado 111988" d="M261.242,50.449h12.4v6.406h-12.4Zm0,0" transform="translate(-212.854 -41.105)" fill="#a2f9f9"/>
        <path id="Trazado_111989" data-name="Trazado 111989" d="M247.23,14.529a.929.929,0,0,0,.926.926h15.737a.929.929,0,0,0,.926-.926v-6.1a.929.929,0,0,0-.926-.926H248.156a.929.929,0,0,0-.926.926Zm0,0" transform="translate(-201.438 -6.111)" fill="#529ad9"/>
        <path id="Trazado_111990" data-name="Trazado 111990" d="M236.757,85.53c0-.166.007-.33.012-.495H215.259a4.629,4.629,0,0,0-4.617,4.629v14.547a4.621,4.621,0,0,0,2.83,4.269,2.2,2.2,0,0,1,1.347,2.032v7.147a2.2,2.2,0,0,1-1.418,2.061,4.655,4.655,0,0,0-2.979,4.329v8.732h10.291a.969.969,0,0,1,.965.967v6.578a.969.969,0,0,1-.965.967h-2.276v18.378a.968.968,0,0,1-.964.967H241.2a.929.929,0,0,1-.926-.926v-8.156L235.5,106a1.134,1.134,0,0,1,1.148-1.278h4.75a4.649,4.649,0,0,0,.031-.513v-8.83a12.7,12.7,0,0,1-4.67-9.851Zm0,0" transform="translate(-171.447 -69.285)" fill="#c7fffd"/>
        <path id="Trazado_111991" data-name="Trazado 111991" d="M235.5,172.425a1.134,1.134,0,0,1,1.148-1.278h4.75a4.641,4.641,0,0,0,.031-.513v-4.076H210.642v4.076a4.62,4.62,0,0,0,2.831,4.27,2.205,2.205,0,0,1,1.347,2.032v7.147a2.2,2.2,0,0,1-1.419,2.061,4.655,4.655,0,0,0-2.979,4.329v4.594h27.453Zm0,0" transform="translate(-171.447 -135.708)" fill="#529ad9"/>
        <path id="Trazado_111992" data-name="Trazado 111992" d="M216.51,202.772a4.62,4.62,0,0,1-2.246-2.011h17.48a1.133,1.133,0,0,1,1.129,1.131v12.9a1.134,1.134,0,0,1-1.129,1.132H214.149a4.63,4.63,0,0,1,2.289-1.909,2.2,2.2,0,0,0,1.419-2.061V204.8a2.206,2.206,0,0,0-1.347-2.032Zm0,0" transform="translate(-174.484 -163.576)" fill="#75eae7"/>
        <path id="Trazado_111993" data-name="Trazado 111993" d="M371.621,452.329a.929.929,0,0,0,.926.926h15.224a.929.929,0,0,0,.926-.926v-8.157H371.621Zm0,0" transform="translate(-302.789 -361.902)" fill="#a0a603"/>
        <path id="Trazado_111994" data-name="Trazado 111994" d="M347.637,215.613l4.442,42.334h17.077l4.443-42.334Zm0,0" transform="translate(-283.247 -175.677)" fill="#d5e962"/>
        <path id="Trazado_111995" data-name="Trazado 111995" d="M371.271,191.336H346.93a1.134,1.134,0,0,0-1.148,1.278l.337,3.219h25.964l.338-3.219a1.135,1.135,0,0,0-1.149-1.278Zm0,0" transform="translate(-281.729 -155.897)" fill="#a0a603"/>
        <path id="Trazado_111996" data-name="Trazado 111996" d="M405.107,298.722a.929.929,0,0,1-.926.926H398.61a.929.929,0,0,1-.926-.926V284.828a.929.929,0,0,1,.926-.926h5.571a.929.929,0,0,1,.926.926Zm0,0" transform="translate(-324.024 -231.318)" fill="#fff"/>
        <path id="Trazado_111997" data-name="Trazado 111997" d="M49.621,388.77v18.377a.97.97,0,0,0,.966.967H86.455a.969.969,0,0,0,.964-.967V388.77Zm0,0" transform="translate(-40.43 -316.762)" fill="#ffb98a"/>
        <path id="Trazado_111998" data-name="Trazado 111998" d="M188.15,414.879H174.215a.969.969,0,0,0-.965.967v6.578a.969.969,0,0,0,.965.967H188.15Zm0,0" transform="translate(-141.16 -338.035)" fill="#fff"/>
        <path id="Trazado_111999" data-name="Trazado 111999" d="M75.441,342.816H33.09a.969.969,0,0,0-.965.967v6.578a.969.969,0,0,0,.965.967h42.35a.969.969,0,0,0,.965-.967v-6.578A.969.969,0,0,0,75.441,342.816Zm0,0" transform="translate(-26.175 -279.319)" fill="#ff826e"/>
        <path id="Trazado_112000" data-name="Trazado 112000" d="M44.363,143.792a.69.69,0,0,1,1.14,0l3.386,4.339a1.815,1.815,0,0,0,1.488.616l5.477-.682a.687.687,0,0,1,.8.8l-.684,5.452a1.8,1.8,0,0,0,.616,1.486l4.355,3.375a.683.683,0,0,1,0,1.134l-4.355,3.376a1.8,1.8,0,0,0-.616,1.485l.684,5.452a.687.687,0,0,1-.8.8l-5.477-.683a1.815,1.815,0,0,0-1.489.615L45.5,175.705a.69.69,0,0,1-1.14,0l-3.385-4.338a1.815,1.815,0,0,0-1.488-.616l-5.478.682a.686.686,0,0,1-.8-.8l.684-5.452a1.8,1.8,0,0,0-.616-1.485l-4.356-3.376a.683.683,0,0,1,0-1.134l4.356-3.375a1.8,1.8,0,0,0,.616-1.486l-.684-5.452a.687.687,0,0,1,.8-.8l5.477.683a1.815,1.815,0,0,0,1.488-.616Zm0,0" transform="translate(-23.317 -116.914)" fill="#fcd770"/>
        <path id="Trazado_112001" data-name="Trazado 112001" d="M136.338,237.087a2.317,2.317,0,1,1-2.268-2.8A2.576,2.576,0,0,1,136.338,237.087Zm0,0" transform="translate(-107.391 -190.894)" fill="#fff"/>
        <path id="Trazado_112002" data-name="Trazado 112002" d="M81.652,200.815a2.318,2.318,0,1,0-2.267,2.8A2.576,2.576,0,0,0,81.652,200.815Zm0,0" transform="translate(-62.833 -161.339)" fill="#fff"/>
        <path id="Trazado_112003" data-name="Trazado 112003" d="M378,31.774A12.693,12.693,0,1,1,365.3,19.059,12.7,12.7,0,0,1,378,31.774Zm0,0" transform="translate(-287.298 -15.529)" fill="#fcd770"/>
        <path id="Trazado_112004" data-name="Trazado 112004" d="M390.615,48.13a8.981,8.981,0,1,0-8.981,9A8.99,8.99,0,0,0,390.615,48.13Zm0,0" transform="translate(-303.629 -31.885)" fill="#ffe7a4"/>
        <path id="Trazado_112005" data-name="Trazado 112005" d="M93.444,89.964H87.3V82.343L90.223,54.48a1.389,1.389,0,1,0-2.763-.29l-2.8,26.691H70.083L65.932,41.325H88.81l-.69,6.567a1.389,1.389,0,1,0,2.763.29l1.189-11.321a2.524,2.524,0,0,0-2.531-2.812H71.37V28.682a14.107,14.107,0,1,0-7.318-14.321H62.177V10.733h.279a2.317,2.317,0,0,0,2.315-2.315v-6.1A2.317,2.317,0,0,0,62.456,0H46.719A2.318,2.318,0,0,0,44.4,2.315v6.1a2.318,2.318,0,0,0,2.315,2.315H47v3.628H43.812a6.019,6.019,0,0,0-6.007,6.018V34.926a6.006,6.006,0,0,0,3.681,5.549.813.813,0,0,1,.5.752v7.147a.819.819,0,0,1-.523.763,6.051,6.051,0,0,0-3.874,5.627v7.343H19.263a1.389,1.389,0,1,0,0,2.778H48.842v5.733H7.34V64.886H12.6a1.389,1.389,0,1,0,0-2.778H6.916a2.358,2.358,0,0,0-2.354,2.357v6.578A2.358,2.358,0,0,0,6.916,73.4H7.8V89.964H1.39a1.389,1.389,0,0,0,0,2.778H93.444a1.389,1.389,0,0,0,0-2.778ZM89.282,36.829,89.1,38.547H65.64l-.18-1.718ZM78,4.918A11.326,11.326,0,1,1,66.7,16.245,11.328,11.328,0,0,1,78,4.918ZM47.182,2.778H61.993V7.955H47.182ZM59.4,10.733v3.628H49.777V10.733ZM40.364,54.765a3.217,3.217,0,0,1,.171-1.031H57.26a2.522,2.522,0,0,0,2.518-2.52v-12.9A2.522,2.522,0,0,0,57.26,35.8H40.7a3.244,3.244,0,0,1-.12-.87V32.239H58.715a1.389,1.389,0,1,0,0-2.778H40.584V20.379a3.238,3.238,0,0,1,3.229-3.24H63.954a14.08,14.08,0,0,0,4.638,9.586v2.736H65.383a1.389,1.389,0,1,0,0,2.778h3.208v1.81H65.2a2.524,2.524,0,0,0-2.53,2.812l2.215,21.107H40.364Zm3.228-16.19H57V50.955H43.663a3.61,3.61,0,0,0,1.1-2.58V41.228a3.589,3.589,0,0,0-1.171-2.654ZM45.6,83.967H33.479V78.234H45.6Zm0-8.511H33.055A2.358,2.358,0,0,0,30.7,77.812v6.578a2.358,2.358,0,0,0,2.354,2.357H45.6v3.218H10.58V73.4H45.6ZM67.443,89.964H48.379V73.4h.887a2.337,2.337,0,0,0,1.208-.338V85.605a1.389,1.389,0,0,0,2.778,0V68.183a1.389,1.389,0,0,0-1.389-1.389,1.412,1.412,0,0,0-.243.022V64.464a2.358,2.358,0,0,0-2.354-2.357h-8.9V60.747H65.176l2.267,21.6Zm17.077,0h-14.3v-6.3h14.3Zm0,0" transform="translate(0 0)" fill="#3a3c07"/>
        <path id="Trazado_112006" data-name="Trazado 112006" d="M332.717,360.617a1.39,1.39,0,0,0-1.389,1.389v17.423a1.389,1.389,0,1,0,2.778,0V362.006A1.389,1.389,0,0,0,332.717,360.617Zm0,0" transform="translate(-269.959 -293.823)" fill="#3a3c07"/>
        <path id="Trazado_112007" data-name="Trazado 112007" d="M303.307,360.617a1.389,1.389,0,0,0-1.389,1.389v17.423a1.389,1.389,0,1,0,2.778,0V362.006A1.389,1.389,0,0,0,303.307,360.617Zm0,0" transform="translate(-245.996 -293.823)" fill="#3a3c07"/>
        <path id="Trazado_112008" data-name="Trazado 112008" d="M390.184,278.717v13.894a2.317,2.317,0,0,0,2.315,2.315h5.571a2.317,2.317,0,0,0,2.315-2.315V278.717a2.317,2.317,0,0,0-2.315-2.315H392.5A2.317,2.317,0,0,0,390.184,278.717Zm2.778.463h4.645v12.968h-4.645Zm0,0" transform="translate(-317.913 -225.207)" fill="#3a3c07"/>
        <path id="Trazado_112009" data-name="Trazado 112009" d="M404.15,251.747a1.389,1.389,0,0,0,0-2.778h-4.39a1.389,1.389,0,0,0,0,2.778Zm0,0" transform="translate(-324.584 -202.855)" fill="#3a3c07"/>
        <path id="Trazado_112010" data-name="Trazado 112010" d="M69.194,420.6h1.737a1.389,1.389,0,1,0,0-2.778H69.194a1.389,1.389,0,1,0,0,2.778Zm0,0" transform="translate(-55.246 -340.434)" fill="#3a3c07"/>
        <path id="Trazado_112011" data-name="Trazado 112011" d="M69.194,443.579H78.78a1.389,1.389,0,1,0,0-2.778H69.194a1.389,1.389,0,0,0,0,2.778Zm0,0" transform="translate(-55.246 -359.155)" fill="#3a3c07"/>
        <path id="Trazado_112012" data-name="Trazado 112012" d="M98.369,420.6h4.181a1.389,1.389,0,1,0,0-2.778H98.369a1.389,1.389,0,1,0,0,2.778Zm0,0" transform="translate(-79.017 -340.434)" fill="#3a3c07"/>
        <path id="Trazado_112013" data-name="Trazado 112013" d="M21.961,155.3l4.342,3.364a.573.573,0,0,1,.1.242l-.682,5.434a2.072,2.072,0,0,0,2.354,2.356l5.46-.68a.576.576,0,0,1,.25.1l3.375,4.325a2.076,2.076,0,0,0,3.33,0l3.376-4.325a.573.573,0,0,1,.249-.1l5.46.681a2.073,2.073,0,0,0,2.353-2.356l-.682-5.435a.564.564,0,0,1,.1-.242l4.341-3.364a2.071,2.071,0,0,0,0-3.331l-4.341-3.364a.563.563,0,0,1-.1-.243l.682-5.434a2.073,2.073,0,0,0-2.354-2.356l-5.46.68a.577.577,0,0,1-.249-.1l-3.376-4.326a2.076,2.076,0,0,0-3.33,0l-3.375,4.326a.584.584,0,0,1-.249.1l-5.46-.681a2.074,2.074,0,0,0-2.354,2.356l.682,5.435a.564.564,0,0,1-.1.242l-4.342,3.365a2.071,2.071,0,0,0,0,3.331Zm6.057-4.51a3.2,3.2,0,0,0,1.144-2.757l-.577-4.6,4.623.577a2.6,2.6,0,0,0,.321.02,3.227,3.227,0,0,0,2.435-1.159l2.86-3.666,2.861,3.666a3.227,3.227,0,0,0,2.435,1.159,2.6,2.6,0,0,0,.321-.02l4.623-.576-.577,4.6a3.2,3.2,0,0,0,1.144,2.757l3.67,2.844-3.67,2.844a3.2,3.2,0,0,0-1.144,2.757l.577,4.6-4.623-.577a2.592,2.592,0,0,0-.321-.02,3.227,3.227,0,0,0-2.435,1.159l-2.861,3.665-2.86-3.665a3.229,3.229,0,0,0-2.435-1.159,2.589,2.589,0,0,0-.32.02l-4.624.576.577-4.6a3.2,3.2,0,0,0-1.144-2.757l-3.67-2.844Zm0,0" transform="translate(-17.209 -110.8)" fill="#3a3c07"/>
        <path id="Trazado_112014" data-name="Trazado 112014" d="M124.305,230.976a3.69,3.69,0,1,0,3.655-4.188A3.954,3.954,0,0,0,124.305,230.976Zm3.655-1.409c.415,0,.878.6.878,1.409s-.463,1.411-.878,1.411-.877-.6-.877-1.411.463-1.409.877-1.409Zm0,0" transform="translate(-101.281 -184.783)" fill="#3a3c07"/>
        <path id="Trazado_112015" data-name="Trazado 112015" d="M73.274,198.893a4.228,4.228,0,1,0-3.657-4.188A3.954,3.954,0,0,0,73.274,198.893Zm0-5.6c.415,0,.878.6.878,1.41s-.463,1.411-.878,1.411-.878-.6-.878-1.411S72.859,193.294,73.274,193.294Zm0,0" transform="translate(-56.722 -155.228)" fill="#3a3c07"/>
        <path id="Trazado_112016" data-name="Trazado 112016" d="M95.464,206.477a1.389,1.389,0,0,0,1.851-.658l5.573-11.73a1.389,1.389,0,1,0-2.51-1.192l-5.572,11.73A1.389,1.389,0,0,0,95.464,206.477Zm0,0" transform="translate(-77.135 -156.521)" fill="#3a3c07"/>
        <path id="Trazado_112017" data-name="Trazado 112017" d="M375.523,52.4a10.386,10.386,0,1,0-10.37-10.386A10.39,10.39,0,0,0,375.523,52.4Zm0-17.994a7.607,7.607,0,1,1-7.592,7.608A7.608,7.608,0,0,1,375.523,34.411Zm0,0" transform="translate(-297.518 -25.774)" fill="#3a3c07"/>
        <path id="Trazado_112018" data-name="Trazado 112018" d="M399.561,58.21h2.712a.466.466,0,0,1,0,.932h-4.107a1.389,1.389,0,1,0,0,2.778h1.362v.043a1.389,1.389,0,0,0,2.778,0v-.046a3.243,3.243,0,0,0-.033-6.486H399.56a.466.466,0,0,1,0-.931h3.469a1.389,1.389,0,1,0,0-2.778h-.723V51.3a1.389,1.389,0,1,0-2.778,0v.42a3.243,3.243,0,0,0,.033,6.486Zm0,0" transform="translate(-322.913 -40.669)" fill="#3a3c07"/>
      </g>
    </g>
  </g>
</svg>
