<svg xmlns="http://www.w3.org/2000/svg" width="105" height="105" viewBox="0 0 105 105">
  <g id="Grupo_61788" data-name="Grupo 61788" transform="translate(-326 -504)">
    <rect id="Rectángulo_5987" data-name="Rectángulo 5987" width="105" height="105" transform="translate(326 504)" fill="none"/>
    <g id="Grupo_61792" data-name="Grupo 61792" transform="translate(231.55 -1073.45)">
      <path id="Trazado_111902" data-name="Trazado 111902" d="M139.247,1629.049a10.862,10.862,0,0,0-5.3-3.033l-7.513-1.8,0,0,0,0v-4.587h-9.175v4.6h0l-7.494,1.792a10.885,10.885,0,0,0-8.358,10.587v12.276h16.611Z" transform="translate(0.619 18.686)" fill="#529ad9"/>
      <path id="Trazado_111903" data-name="Trazado 111903" d="M121.305,1619.628v4.711l-4.762,11.406-4.756-11.389v-4.727Z" transform="translate(5.944 18.686)" fill="#ffb487"/>
      <path id="Trazado_111904" data-name="Trazado 111904" d="M128.615,1609.183v6.353a10.227,10.227,0,0,1-10.228,10.226h0a10.227,10.227,0,0,1-10.228-10.226v-6.353Z" transform="translate(4.083 13.328)" fill="#ffcdac"/>
      <path id="Trazado_111905" data-name="Trazado 111905" d="M128.615,1614.813v-2.461a10.228,10.228,0,0,0-10.228-10.228h0a10.228,10.228,0,0,0-10.228,10.228v2.461h7.05a24.38,24.38,0,0,0,12.533-3.468h0" transform="translate(4.083 9.707)" fill="#878791"/>
      <path id="Trazado_111906" data-name="Trazado 111906" d="M135.782,1629.049a10.849,10.849,0,0,1,5.3-3.033l7.513-1.8,0,0,0,0v-4.587h9.174v4.6h0l7.494,1.792a10.885,10.885,0,0,1,8.358,10.587v12.276H157.012Z" transform="translate(18.252 18.686)" fill="#a0a603"/>
      <path id="Trazado_111907" data-name="Trazado 111907" d="M134.361,1625.736l-10.465,2.509a15.163,15.163,0,0,0-11.63,14.745v10.066h56.952V1643a15.162,15.162,0,0,0-11.639-14.748l-10.439-2.493Z" transform="translate(6.189 21.819)" fill="#ff5a5a"/>
      <g id="Grupo_61791" data-name="Grupo 61791" transform="translate(140.134 1638.313)">
        <path id="Trazado_111908" data-name="Trazado 111908" d="M153.639,1619.628v4.727l-4.756,11.389-4.762-11.406v-4.711Z" transform="translate(-117.605 -1619.628)" fill="#ffb487"/>
        <path id="Trazado_111909" data-name="Trazado 111909" d="M133.412,1642.16l6.814-15.47a5.611,5.611,0,0,1-.794-2.884v-1.487H127.386v1.487a5.63,5.63,0,0,1-.791,2.881Z" transform="translate(-126.595 -1618.247)" fill="#ffb487"/>
      </g>
      <path id="Trazado_111910" data-name="Trazado 111910" d="M150.174,1606.318v9.828a14.245,14.245,0,0,1-14.244,14.244h0a14.244,14.244,0,0,1-14.244-14.244v-9.828Z" transform="translate(11.021 11.858)" fill="#ffcdac"/>
      <path id="Trazado_111911" data-name="Trazado 111911" d="M135.929,1597.134h0a14.244,14.244,0,0,0-14.244,14.243v3.43h6.964a15.655,15.655,0,0,0,12-5.6h0l9.529,5.6v-3.43A14.243,14.243,0,0,0,135.929,1597.134Z" transform="translate(11.021 7.147)" fill="#fee45a"/>
      <path id="Trazado_111912" data-name="Trazado 111912" d="M140.52,1609.183v6.353a10.227,10.227,0,0,0,10.228,10.226h0a10.227,10.227,0,0,0,10.228-10.226v-6.353Z" transform="translate(20.682 13.328)" fill="#ffcdac"/>
      <path id="Trazado_111913" data-name="Trazado 111913" d="M140.52,1614.813v-2.461a10.228,10.228,0,0,1,10.228-10.228h0a10.228,10.228,0,0,1,10.228,10.228v2.461h-7.05a24.38,24.38,0,0,1-12.533-3.468h0" transform="translate(20.682 9.707)" fill="#878791"/>
      <path id="Trazado_111914" data-name="Trazado 111914" d="M131.688,1642.586a1.828,1.828,0,1,0,1.291.535A1.84,1.84,0,0,0,131.688,1642.586Z" transform="translate(15.215 30.462)" fill="#3a3c07"/>
      <path id="Trazado_111915" data-name="Trazado 111915" d="M183.942,1636.4l-6.093-1.454v-2.418a12.05,12.05,0,0,0,5.634-10.193v-6.805a12.046,12.046,0,0,0-21.071-7.986,16.1,16.1,0,0,0-15.443-11.618h0a16.1,16.1,0,0,0-15.452,11.649,12.045,12.045,0,0,0-21.1,7.954v6.805a12.048,12.048,0,0,0,5.633,10.193v2.418l-6.091,1.454a12.674,12.674,0,0,0-9.76,12.365v12.276a1.826,1.826,0,0,0,1.826,1.826h14.6v5.479a1.825,1.825,0,0,0,1.826,1.826h20.033a1.826,1.826,0,0,0,0-3.652h-8.152v-8.037a1.826,1.826,0,1,0-3.652,0v8.037h-6.4v-8.24a13.3,13.3,0,0,1,10.229-12.97l8.981-2.151,5.779,13.147a1.827,1.827,0,0,0,1.672,1.091h0a1.827,1.827,0,0,0,1.672-1.091l5.773-13.128,8.955,2.139a13.291,13.291,0,0,1,10.238,12.972v2.038a1.846,1.846,0,0,0,0,1.428v4.764h-6.365v-8.037a1.826,1.826,0,1,0-3.652,0v8.037h-8.943a1.826,1.826,0,0,0,0,3.652h20.788a1.826,1.826,0,0,0,1.826-1.826v-5.479h14.639a1.827,1.827,0,0,0,1.826-1.826v-12.276A12.674,12.674,0,0,0,183.942,1636.4Zm-9.74.085-2.788,6.677-2.751-6.587a1.776,1.776,0,0,0,.012-.2v-2.306a11.99,11.99,0,0,0,5.522,0v2.322C174.2,1636.42,174.2,1636.453,174.2,1636.485Zm-35.477,1.468a12.688,12.688,0,0,0-3.732-1.555l-6.114-1.465v-2.4a12.145,12.145,0,0,0,3.775-3.764,16.185,16.185,0,0,0,6.071,6.492Zm-4.174-16.476v-4.224h5.139a17.434,17.434,0,0,0,12.343-5.1l7.344,4.316v5.439a12.417,12.417,0,0,1-24.826-.428Zm20.606,13.824a16.2,16.2,0,0,0,6.112-6.493,12.152,12.152,0,0,0,3.754,3.731v2.4l-6.114,1.465a12.659,12.659,0,0,0-3.752,1.569V1635.3Zm16.273-4.565a8.409,8.409,0,0,1-8.4-8.4v-.3c.008-.186.012-4.91.012-4.91a26.2,26.2,0,0,0,11.566,2.69h5.224v2.518A8.41,8.41,0,0,1,171.43,1630.735Zm0-23.606a8.409,8.409,0,0,1,8.4,8.4v.635h-5.223a22.562,22.562,0,0,1-11.24-3A8.416,8.416,0,0,1,171.43,1607.129ZM134.55,1612a12.418,12.418,0,0,1,24.837,0v.238l-6.777-3.982a1.828,1.828,0,0,0-2.325.4,13.793,13.793,0,0,1-10.6,4.946H134.55Zm-20.481,3.533a8.4,8.4,0,0,1,16.464-2.365,22.566,22.566,0,0,1-11.24,3h-5.224v-.635Zm0,4.288h5.224a26.228,26.228,0,0,0,11.579-2.7v5.214a8.4,8.4,0,0,1-16.8,0Zm8.4,14.57a12.065,12.065,0,0,0,2.755-.321v2.2c0,.035,0,.068,0,.1a1.657,1.657,0,0,0,.012.173l-2.764,6.615-2.773-6.643c0-.044.006-.086.006-.132v-2.322A12.018,12.018,0,0,0,122.471,1634.388Zm-5.841,23.893v.935h-5.472V1651.1a1.826,1.826,0,1,0-3.652,0v8.114h-3.652v-10.45a9.028,9.028,0,0,1,6.955-8.811l5.789-1.384,3.778,9.051A16.957,16.957,0,0,0,116.629,1658.28Zm13.03-16.521a17.23,17.23,0,0,0-3.086,1.061l1.778-4.259,5.79,1.387a8.9,8.9,0,0,1,1.31.424Zm17.284,9.274-4.566-10.389v-3.767a16.061,16.061,0,0,0,9.126.017v3.77Zm11.474-10.648a9.133,9.133,0,0,1,1.344-.437l5.775-1.383,1.787,4.277a17.221,17.221,0,0,0-3.13-1.077Zm31.631,18.83H186.4V1651.1a1.826,1.826,0,1,0-3.652,0v8.114h-5.509v-.926a16.951,16.951,0,0,0-3.735-10.648l3.79-9.075,5.8,1.387a9.03,9.03,0,0,1,6.955,8.811Z" transform="translate(0 6.528)" fill="#3a3c07"/>
      <path id="Trazado_111916" data-name="Trazado 111916" d="M127.671,1611.113a1.826,1.826,0,1,0,1.291.534A1.844,1.844,0,0,0,127.671,1611.113Z" transform="translate(13.155 14.318)" fill="#3a3c07"/>
      <path id="Trazado_111917" data-name="Trazado 111917" d="M135.742,1614.765a1.829,1.829,0,1,0-1.291-.536A1.841,1.841,0,0,0,135.742,1614.765Z" transform="translate(17.295 14.318)" fill="#3a3c07"/>
      <path id="Trazado_111918" data-name="Trazado 111918" d="M136.02,1615.71a1.827,1.827,0,0,0-2.583,0,1.387,1.387,0,0,1-1.959,0,1.826,1.826,0,1,0-2.583,2.583,5.042,5.042,0,0,0,7.124,0A1.827,1.827,0,0,0,136.02,1615.71Z" transform="translate(14.445 16.402)" fill="#3a3c07"/>
      <path id="Trazado_111919" data-name="Trazado 111919" d="M149.9,1593.37h1.253a1.826,1.826,0,1,0,0-3.652H149.9a1.826,1.826,0,1,0,0,3.652Z" transform="translate(24.556 3.343)" fill="#3a3c07"/>
      <path id="Trazado_111920" data-name="Trazado 111920" d="M155.756,1593.37h1.253a1.826,1.826,0,1,0,0-3.652h-1.253a1.826,1.826,0,1,0,0,3.652Z" transform="translate(27.561 3.343)" fill="#3a3c07"/>
      <path id="Trazado_111921" data-name="Trazado 111921" d="M153.242,1597.137a1.826,1.826,0,0,0,1.826-1.826v-1.253a1.826,1.826,0,0,0-3.652,0v1.253A1.825,1.825,0,0,0,153.242,1597.137Z" transform="translate(26.271 4.633)" fill="#3a3c07"/>
      <path id="Trazado_111922" data-name="Trazado 111922" d="M153.242,1591.281a1.827,1.827,0,0,0,1.826-1.826V1588.2a1.826,1.826,0,1,0-3.652,0v1.253A1.826,1.826,0,0,0,153.242,1591.281Z" transform="translate(26.271 1.629)" fill="#3a3c07"/>
      <path id="Trazado_111923" data-name="Trazado 111923" d="M106.787,1593.37h1.253a1.826,1.826,0,1,0,0-3.652h-1.253a1.826,1.826,0,1,0,0,3.652Z" transform="translate(2.442 3.343)" fill="#3a3c07"/>
      <path id="Trazado_111924" data-name="Trazado 111924" d="M112.644,1593.37H113.9a1.826,1.826,0,1,0,0-3.652h-1.251a1.826,1.826,0,1,0,0,3.652Z" transform="translate(5.446 3.343)" fill="#3a3c07"/>
      <path id="Trazado_111925" data-name="Trazado 111925" d="M110.129,1597.137a1.825,1.825,0,0,0,1.826-1.826v-1.253a1.826,1.826,0,0,0-3.652,0v1.253A1.826,1.826,0,0,0,110.129,1597.137Z" transform="translate(4.156 4.633)" fill="#3a3c07"/>
      <path id="Trazado_111926" data-name="Trazado 111926" d="M110.129,1591.281a1.826,1.826,0,0,0,1.826-1.826V1588.2a1.826,1.826,0,1,0-3.652,0v1.253A1.827,1.827,0,0,0,110.129,1591.281Z" transform="translate(4.156 1.629)" fill="#3a3c07"/>
      <path id="Trazado_111927" data-name="Trazado 111927" d="M131.719,1596.254a1.826,1.826,0,0,0,1.826-1.826v-4.805a1.826,1.826,0,1,0-3.652,0v4.805A1.825,1.825,0,0,0,131.719,1596.254Z" transform="translate(15.231 2.358)" fill="#3a3c07"/>
      <path id="Trazado_111928" data-name="Trazado 111928" d="M131.719,1586.853a1.829,1.829,0,1,0-1.291-.536A1.836,1.836,0,0,0,131.719,1586.853Z" transform="translate(15.231 0)" fill="#3a3c07"/>
      <path id="Trazado_111929" data-name="Trazado 111929" d="M126.251,1591.713a1.827,1.827,0,0,0,2.583-2.584l-2.672-2.672a1.827,1.827,0,0,0-2.584,2.583Z" transform="translate(11.717 1.397)" fill="#3a3c07"/>
      <path id="Trazado_111930" data-name="Trazado 111930" d="M136.743,1592.271a1.82,1.82,0,0,0,1.292-.536l2.761-2.761a1.826,1.826,0,1,0-2.583-2.583l-2.761,2.761a1.827,1.827,0,0,0,1.291,3.118Z" transform="translate(17.808 1.362)" fill="#3a3c07"/>
    </g>
  </g>
</svg>
