<svg xmlns="http://www.w3.org/2000/svg" width="105" height="105" viewBox="0 0 105 105">
  <g id="Grupo_61309" data-name="Grupo 61309" transform="translate(-1211 -3166)">
    <g id="save-water" transform="translate(1216.704 3170)">
      <path id="Trazado_110896" data-name="Trazado 110896" d="M168.574,49.19c0-13.463-15.242-42.053-24.378-42.358S119.816,35.726,119.816,49.19a24.381,24.381,0,1,0,48.758,0" transform="translate(-92.843 -5.305)" fill="#529ad9"/>
      <path id="Trazado_110897" data-name="Trazado 110897" d="M163.273,43.884H164.8a41.668,41.668,0,0,0-2.607-12.751,87.611,87.611,0,0,0-10.317-20.491,41.378,41.378,0,0,0-6.331-7.392A16.3,16.3,0,0,0,142.308.97,7.959,7.959,0,0,0,138.945,0l-.051,1.523L138.965,0l-.213,0a8.484,8.484,0,0,0-4.488,1.507,30.062,30.062,0,0,0-7.431,7.573,84.848,84.848,0,0,0-9.6,17.59c-2.544,6.3-4.228,12.461-4.239,17.214a25.9,25.9,0,1,0,51.806,0h-3.049a23.276,23.276,0,0,1-6.7,16.324,22.5,22.5,0,0,1-32.3,0,23.274,23.274,0,0,1-6.7-16.324A39.5,39.5,0,0,1,118.458,32.1a84.973,84.973,0,0,1,9.856-19.845,37.46,37.46,0,0,1,5.8-6.828,12.744,12.744,0,0,1,2.6-1.817,4.653,4.653,0,0,1,2.035-.567l.071,0h.021a5.928,5.928,0,0,1,2.893,1.113,28.448,28.448,0,0,1,6.653,6.849,81.976,81.976,0,0,1,9.3,16.85c2.488,6.02,4.066,11.969,4.054,16.025Z" transform="translate(-87.542)" fill="#3a3c07"/>
      <path id="Trazado_110898" data-name="Trazado 110898" d="M172.255,188.035a24.219,24.219,0,0,1-45.517,0c-.065.677-.1,1.317-.1,1.914a23.28,23.28,0,0,0,6.7,16.325,22.5,22.5,0,0,0,32.3,0,23.273,23.273,0,0,0,6.7-16.325h0c0-.6-.031-1.239-.1-1.915" transform="translate(-98.144 -146.066)" fill="#2e7ec4"/>
      <g id="Grupo_61306" data-name="Grupo 61306" transform="translate(26.973 28.954)">
        <path id="Trazado_110899" data-name="Trazado 110899" d="M167.971,172.783a24.949,24.949,0,0,1-1.017,3.4c.065.675.1,1.316.1,1.915h1.523a27.647,27.647,0,0,0-.6-5.312m-47.553-.01a27.91,27.91,0,0,0-.6,5.322,24.381,24.381,0,1,0,48.758,0H167.05a23.276,23.276,0,0,1-6.7,16.324,22.5,22.5,0,0,1-32.3,0,23.274,23.274,0,0,1-6.7-16.324c0-.6.032-1.237.1-1.915a24.72,24.72,0,0,1-1.018-3.407" transform="translate(-119.817 -163.164)" fill="#3a3c07"/>
        <path id="Trazado_110900" data-name="Trazado 110900" d="M171.5,130.391a2.285,2.285,0,1,0,0,3.232A2.285,2.285,0,0,0,171.5,130.391Zm0,0" transform="translate(-156.936 -129.722)" fill="#3a3c07"/>
        <path id="Trazado_110901" data-name="Trazado 110901" d="M260.248,130.393a2.285,2.285,0,1,0,0,3.231A2.284,2.284,0,0,0,260.248,130.393Zm0,0" transform="translate(-225.874 -129.723)" fill="#3a3c07"/>
        <path id="Trazado_110902" data-name="Trazado 110902" d="M174.431,179.3c.024-2.391,21.308-2.391,21.331,0v.051c0,4.032-4.775,7.3-10.666,7.3s-10.666-3.268-10.666-7.3Zm0,0" transform="translate(-162.24 -166.841)" fill="#3a3c07"/>
      </g>
      <path id="Trazado_110903" data-name="Trazado 110903" d="M209.728,192.684c0-.842-2.047-1.524-4.571-1.524s-4.571.682-4.571,1.524,2.046,1.523,4.571,1.523S209.728,193.525,209.728,192.684Zm0,0" transform="translate(-155.585 -148.494)" fill="#ff927d"/>
      <path id="Trazado_110905" data-name="Trazado 110905" d="M246.488,313.67l32.666-7.314a3.809,3.809,0,1,0-1.314-7.5l-29.266,5.126Zm0,0" transform="translate(-191.242 -232.105)" fill="#f3b588"/>
      <path id="Trazado_110906" data-name="Trazado 110906" d="M241.184,308.361l.333,1.486,32.666-7.313-.333-1.487.263,1.5a5.334,5.334,0,0,0-.915-10.587,5.169,5.169,0,0,0-.937.084l.013,0-29.267,5.126a1.522,1.522,0,0,0-1.227,1.18l-2.086,9.692a1.523,1.523,0,0,0,1.822,1.807l-.332-1.486,1.489.32,1.87-8.688,28.256-4.949.013,0,.386-.034a2.288,2.288,0,0,1,2.246,1.894l.036.4a2.287,2.287,0,0,1-1.893,2.247l-.07.014-32.666,7.314.333,1.487,1.489.32Zm0,0" transform="translate(-185.938 -226.796)" fill="#3a3c07"/>
      <path id="Trazado_110907" data-name="Trazado 110907" d="M130.975,246.875a3.81,3.81,0,0,0-4.994-2.019l-22.625,9.326H74.406l4.571-7.618h6.094a7.618,7.618,0,0,0,7.618-7.618H74.406L51.551,255.707l12.19,13.714,13.713,3.047H89.029a27.82,27.82,0,0,0,17.375-6.1l22.553-14.5a3.811,3.811,0,0,0,2.019-4.995Zm0,0" transform="translate(-39.815 -185.614)" fill="#fdc8a2"/>
      <path id="Trazado_110908" data-name="Trazado 110908" d="M125.672,241.574l1.4-.595a5.332,5.332,0,0,0-4.912-3.252,5.264,5.264,0,0,0-2.086.427l.6,1.4-.582-1.409L97.75,247.358H71.793l2.743-4.57h5.232a9.144,9.144,0,0,0,9.142-9.142,1.523,1.523,0,0,0-1.524-1.524H69.1a1.516,1.516,0,0,0-.9.295L45.346,249.177a1.524,1.524,0,0,0-.238,2.241L57.3,265.131a1.53,1.53,0,0,0,.808.475l13.714,3.047.33.036H83.725a29.345,29.345,0,0,0,18.327-6.427l-.951-1.19.824,1.281,22.553-14.5-.824-1.281.6,1.4a5.332,5.332,0,0,0,2.826-6.994l-1.4.6-1.4.6a2.283,2.283,0,0,1-1.212,3l-.228.121-22.553,14.5-.128.092a26.3,26.3,0,0,1-16.423,5.761H72.32l-13.071-2.906L48.5,250.643l21.1-15.476H87.386v-1.522H85.863a6.1,6.1,0,0,1-6.1,6.094H73.674a1.526,1.526,0,0,0-1.307.739L67.8,248.1A1.523,1.523,0,0,0,69.1,250.4h28.95a1.525,1.525,0,0,0,.581-.114l22.625-9.327.02-.009a2.256,2.256,0,0,1,.884-.18,2.29,2.29,0,0,1,2.107,1.395Zm0,0" transform="translate(-34.511 -180.312)" fill="#3a3c07"/>
      <path id="Trazado_110909" data-name="Trazado 110909" d="M7.113,310,17,302.867l14.961,20.754-9.888,7.128Zm0,0" transform="translate(-5.295 -235.268)" fill="#fff"/>
      <path id="Trazado_110910" data-name="Trazado 110910" d="M26.67,318.293l-.891-1.236-8.652,6.237L3.947,305.013l7.415-5.346,14.071,19.518,1.236-.891-.891-1.236.891,1.236,1.235-.891L12.944,296.649a1.524,1.524,0,0,0-2.127-.345L.93,303.431a1.524,1.524,0,0,0-.345,2.127l14.961,20.755a1.523,1.523,0,0,0,2.127.344l9.888-7.128a1.523,1.523,0,0,0,.344-2.127Zm0,0" transform="translate(0 -229.946)" fill="#3a3c07"/>
      <path id="Trazado_110911" data-name="Trazado 110911" d="M71.3,378.528a3.047,3.047,0,1,1-3.047-3.047A3.047,3.047,0,0,1,71.3,378.528Zm0,0" transform="translate(-50.42 -291.674)" fill="#3a3c07"/>
    </g>
    <rect id="Rectángulo_6029" data-name="Rectángulo 6029" width="105" height="105" transform="translate(1211 3166)" fill="none"/>
  </g>
</svg>
