<svg xmlns="http://www.w3.org/2000/svg" width="52.667" height="53.56" viewBox="0 0 52.667 53.56">
  <g id="datos" transform="translate(-4)">
    <g id="Grupo_61390" data-name="Grupo 61390" transform="translate(4)">
      <g id="Grupo_61389" data-name="Grupo 61389" transform="translate(0)">
        <path id="Trazado_110987" data-name="Trazado 110987" d="M44.17,0H8.463A4.469,4.469,0,0,0,4,4.463V33.029a4.463,4.463,0,0,0,3.348,4.322l.446-1.728a2.678,2.678,0,0,1-2.009-2.594V4.463A2.678,2.678,0,0,1,8.463,1.785H44.17a2.678,2.678,0,0,1,2.678,2.678v.893h1.785V4.463A4.469,4.469,0,0,0,44.17,0Z" transform="translate(-4)" fill="#3a3c07"/>
      </g>
    </g>
    <g id="Grupo_61392" data-name="Grupo 61392" transform="translate(7.15 3.151)">
      <g id="Grupo_61391" data-name="Grupo 61391" transform="translate(0 0)">
        <rect id="Rectángulo_6048" data-name="Rectángulo 6048" width="2" height="2" transform="translate(-0.15 -0.151)" fill="#3a3c07"/>
      </g>
    </g>
    <g id="Grupo_61394" data-name="Grupo 61394" transform="translate(11.352 3.151)">
      <g id="Grupo_61393" data-name="Grupo 61393" transform="translate(0 0)">
        <rect id="Rectángulo_6049" data-name="Rectángulo 6049" width="1" height="2" transform="translate(-0.352 -0.151)" fill="#3a3c07"/>
      </g>
    </g>
    <g id="Grupo_61396" data-name="Grupo 61396" transform="translate(14.502 3.151)">
      <g id="Grupo_61395" data-name="Grupo 61395" transform="translate(0 0)">
        <rect id="Rectángulo_6050" data-name="Rectángulo 6050" width="2" height="2" transform="translate(0.498 -0.151)" fill="#3a3c07"/>
      </g>
    </g>
    <g id="Grupo_61398" data-name="Grupo 61398" transform="translate(12.927 14.283)">
      <g id="Grupo_61397" data-name="Grupo 61397">
        <path id="Trazado_110988" data-name="Trazado 110988" d="M127.479,163.075l-8.467-8.467a12.345,12.345,0,0,0,1.06-2.507h1.419v-1.785h-1.035a12.028,12.028,0,0,0-.75-6.4v-8.778h-1.785v5.684a12.564,12.564,0,0,0-1.785-1.853v-7.4h-1.785v6.154a12.415,12.415,0,0,0-1.785-.852V128H110.78v8.33a12.362,12.362,0,0,0-1.785-.251v-6.294h-1.785v6.294a12.362,12.362,0,0,0-1.785.251v-2.974h-1.785v3.516a12.421,12.421,0,0,0-1.785.852v-5.261h-1.785v6.509a12.565,12.565,0,0,0-1.785,1.853v-6.577H96.5v9.671a12.028,12.028,0,0,0-.75,6.4H84V152.1H96.131a12.472,12.472,0,0,0,19.142,6.649l8.265,8.265a.893.893,0,0,0,1.262,0l2.678-2.678A.893.893,0,0,0,127.479,163.075ZM108.1,159.243a10.712,10.712,0,1,1,10.712-10.712A10.723,10.723,0,0,1,108.1,159.243Zm16.068,5.879-7.509-7.509A12.646,12.646,0,0,0,118,156.125l7.581,7.581Z" transform="translate(-84 -128)" fill="#3a3c07"/>
      </g>
    </g>
    <g id="Grupo_61400" data-name="Grupo 61400" transform="translate(28.102 25.887)">
      <g id="Grupo_61399" data-name="Grupo 61399">
        <path id="Trazado_110989" data-name="Trazado 110989" d="M228.927,232a8.927,8.927,0,1,0,8.927,8.927A8.927,8.927,0,0,0,228.927,232Zm0,16.068a7.141,7.141,0,0,1-6.175-3.571H235.1A7.141,7.141,0,0,1,228.927,248.068Zm-6.907-5.356a7.076,7.076,0,0,1,2.443-7.351v5.566h1.785v-6.616a7.107,7.107,0,0,1,1.785-.464v7.08h1.785v-7.08a7.107,7.107,0,0,1,1.785.464v6.616h1.785v-5.566a7.076,7.076,0,0,1,2.443,7.351Z" transform="translate(-220 -232)" fill="#3a3c07"/>
      </g>
    </g>
    <g id="Grupo_61402" data-name="Grupo 61402" transform="translate(9.356 7.141)">
      <g id="Grupo_61401" data-name="Grupo 61401" transform="translate(0)">
        <path id="Trazado_110990" data-name="Trazado 110990" d="M92.17,64H56.463A4.469,4.469,0,0,0,52,68.463V97.029a4.469,4.469,0,0,0,4.463,4.463h11.6V99.707h-11.6a2.678,2.678,0,0,1-2.678-2.678V68.463a2.678,2.678,0,0,1,2.678-2.678H92.17a2.678,2.678,0,0,1,2.678,2.678V97.029a2.678,2.678,0,0,1-.67,1.771l1.339,1.181a4.458,4.458,0,0,0,1.116-2.952V68.463A4.469,4.469,0,0,0,92.17,64Z" transform="translate(-52 -64)" fill="#3a3c07"/>
      </g>
    </g>
    <g id="Grupo_61404" data-name="Grupo 61404" transform="translate(13.452 10.502)">
      <g id="Grupo_61403" data-name="Grupo 61403" transform="translate(0 0)">
        <rect id="Rectángulo_6051" data-name="Rectángulo 6051" width="2" height="2" transform="translate(-0.452 0.498)" fill="#3a3c07"/>
      </g>
    </g>
    <g id="Grupo_61406" data-name="Grupo 61406" transform="translate(16.602 10.502)">
      <g id="Grupo_61405" data-name="Grupo 61405" transform="translate(0 0)">
        <rect id="Rectángulo_6052" data-name="Rectángulo 6052" width="2" height="2" transform="translate(0.398 0.498)" fill="#3a3c07"/>
      </g>
    </g>
    <g id="Grupo_61408" data-name="Grupo 61408" transform="translate(19.753 10.502)">
      <g id="Grupo_61407" data-name="Grupo 61407" transform="translate(0 0)">
        <rect id="Rectángulo_6053" data-name="Rectángulo 6053" width="2" height="2" transform="translate(0.247 0.498)" fill="#3a3c07"/>
      </g>
    </g>
    <g id="Grupo_61410" data-name="Grupo 61410" transform="translate(14.502 29.405)">
      <g id="Grupo_61409" data-name="Grupo 61409" transform="translate(0 0)">
        <rect id="Rectángulo_6054" data-name="Rectángulo 6054" width="2" height="6" transform="translate(0.498 -0.405)" fill="#3a3c07"/>
      </g>
    </g>
    <g id="Grupo_61412" data-name="Grupo 61412" transform="translate(18.703 24.154)">
      <g id="Grupo_61411" data-name="Grupo 61411" transform="translate(0 0)">
        <rect id="Rectángulo_6055" data-name="Rectángulo 6055" width="1" height="11" transform="translate(0.297 -0.154)" fill="#3a3c07"/>
      </g>
    </g>
    <g id="Grupo_61414" data-name="Grupo 61414" transform="translate(21.853 27.305)">
      <g id="Grupo_61413" data-name="Grupo 61413" transform="translate(0 0)">
        <rect id="Rectángulo_6056" data-name="Rectángulo 6056" width="2" height="8" transform="translate(0.146 -0.305)" fill="#3a3c07"/>
      </g>
    </g>
  </g>
</svg>
