<svg xmlns="http://www.w3.org/2000/svg" width="105" height="105" viewBox="0 0 105 105">
  <g id="Grupo_61420" data-name="Grupo 61420" transform="translate(-326 -504)">
    <rect id="Rectángulo_5987" data-name="Rectángulo 5987" width="105" height="105" transform="translate(326 504)" fill="none"/>
    <g id="investigacion-cualitativa" transform="translate(331 509.63)">
      <g id="Grupo_61427" data-name="Grupo 61427" transform="translate(2.484 8.419)">
        <path id="Trazado_111015" data-name="Trazado 111015" d="M63.81,18a5.934,5.934,0,0,1,5.935,5.935V41.742a5.934,5.934,0,0,1-5.935,5.935H60.842l-8.9,5.935V47.677H39.86a21.3,21.3,0,0,0,0-5.935H60.842V40.258A13.355,13.355,0,0,0,49.283,27.022a14.4,14.4,0,0,0-1.8-.119,7.422,7.422,0,0,0,7.419-7.419A6.992,6.992,0,0,0,54.758,18Z" transform="translate(16.319 -0.194)" fill="#fcd770"/>
        <path id="Trazado_111016" data-name="Trazado 111016" d="M44.839,19.484A7.422,7.422,0,0,0,52.258,26.9a14.4,14.4,0,0,0-1.8.119,26.259,26.259,0,0,0-4.57,1.484,13.328,13.328,0,0,0-4.7,4.288l-.074.059A20.807,20.807,0,0,0,30,24.8v-.861A5.95,5.95,0,0,1,35.935,18h9.052A6.993,6.993,0,0,0,44.839,19.484Z" transform="translate(11.548 -0.194)" fill="#fcd770"/>
        <path id="Trazado_111017" data-name="Trazado 111017" d="M27.226,29.742H37.613a20.714,20.714,0,0,0-14.542,5.935H7.935A5.934,5.934,0,0,1,2,29.742V11.935A5.934,5.934,0,0,1,7.935,6h9.052a6.992,6.992,0,0,0-.148,1.484A7.422,7.422,0,0,0,24.258,14.9l-1.8.119c-4.971,1.588-6.425,2.582-7.642,3.8A13.287,13.287,0,0,0,10.9,28.258v1.484H27.226Z" transform="translate(-2 -6)" fill="#fcd770"/>
        <path id="Trazado_111018" data-name="Trazado 111018" d="M39.258,11.935V24.608a5.906,5.906,0,0,0-2.968,5.134V30.6a20.652,20.652,0,0,0-5.935-.861V28.258A13.355,13.355,0,0,0,18.8,15.022,14.216,14.216,0,0,0,17,14.9a7.422,7.422,0,0,0,7.419-7.419A6.992,6.992,0,0,0,24.271,6h9.052A5.934,5.934,0,0,1,39.258,11.935Z" transform="translate(5.258 -6)" fill="#fcd770"/>
      </g>
      <path id="Trazado_111019" data-name="Trazado 111019" d="M29.769,25.316V26.8H19.382L18.21,12.095V12.08A13.355,13.355,0,0,1,29.769,25.316Z" transform="translate(8.327 5.361)" fill="#ff826e"/>
      <path id="Trazado_111020" data-name="Trazado 111020" d="M19.559,12.095,18.387,26.8H8V25.316a13.287,13.287,0,0,1,3.917-9.437c1.217-1.217,2.671-2.211,7.642-3.8Z" transform="translate(3.387 5.361)" fill="#ff826e"/>
      <path id="Trazado_111021" data-name="Trazado 111021" d="M19.763,12.134l1.172,14.705H15l1.172-14.705v-.015l1.8-.119a14.216,14.216,0,0,1,1.8.119Z" transform="translate(6.774 5.322)" fill="#e6e9ed"/>
      <path id="Trazado_111022" data-name="Trazado 111022" d="M57.769,37.316V38.8H47.382L46.21,24.095V24.08A13.355,13.355,0,0,1,57.769,37.316Z" transform="translate(21.875 11.168)" fill="#b4dd7f"/>
      <path id="Trazado_111023" data-name="Trazado 111023" d="M46.838,24.08v.015L45.666,38.8H41.007a20.752,20.752,0,0,0-3.517-8.888l.074-.059a13.328,13.328,0,0,1,4.7-4.288A26.259,26.259,0,0,1,46.838,24.08Z" transform="translate(17.656 11.168)" fill="#b4dd7f"/>
      <path id="Trazado_111024" data-name="Trazado 111024" d="M47.763,24.134l1.172,14.705H43l1.172-14.705v-.015a13.638,13.638,0,0,1,3.591,0Z" transform="translate(20.322 11.129)" fill="#e6e9ed"/>
      <path id="Trazado_111025" data-name="Trazado 111025" d="M72.645,48.968V66.774a2.976,2.976,0,0,1-2.968,2.968H42.968A2.976,2.976,0,0,1,40,66.774V48.968A2.976,2.976,0,0,1,42.968,46h26.71A2.976,2.976,0,0,1,72.645,48.968Z" transform="translate(18.871 21.774)" fill="#b4dd7f"/>
      <path id="Trazado_111026" data-name="Trazado 111026" d="M16.839,47.484l4.452,4.452,1.484,1.484L10.963,65.231a5.246,5.246,0,1,1-7.419-7.419L15.355,46Z" transform="translate(0.484 21.774)" fill="#dfb28b"/>
      <path id="Trazado_111027" data-name="Trazado 111027" d="M20.488,48.732l-4.036,4.036L12,48.316l4.036-4.036A20.43,20.43,0,0,0,20.488,48.732Z" transform="translate(5.322 20.942)" fill="#fcd770"/>
      <path id="Trazado_111028" data-name="Trazado 111028" d="M20.488,59.512a20.43,20.43,0,0,1-4.452-4.452,20.765,20.765,0,1,1,37.3-15.254,21.3,21.3,0,0,1,0,5.935,20.763,20.763,0,0,1-32.853,13.77Z" transform="translate(5.322 10.161)" fill="#e6e9ed"/>
      <circle id="Elipse_4309" data-name="Elipse 4309" cx="15" cy="15" r="15" transform="translate(23 38)" fill="#529ad9"/>
      <path id="Trazado_111029" data-name="Trazado 111029" d="M26.69,7.935a6.992,6.992,0,0,1,.148,1.484A7.419,7.419,0,1,1,12,9.419a6.992,6.992,0,0,1,.148-1.484,7.421,7.421,0,0,1,14.542,0Z" transform="translate(5.322 0.484)" fill="#f0d0b4"/>
      <path id="Trazado_111030" data-name="Trazado 111030" d="M54.839,21.419a7.419,7.419,0,1,1-14.839,0,6.993,6.993,0,0,1,.148-1.484,7.421,7.421,0,0,1,14.542,0A6.992,6.992,0,0,1,54.839,21.419Z" transform="translate(18.871 6.29)" fill="#f0d0b4"/>
      <path id="Trazado_111031" data-name="Trazado 111031" d="M31.322,25A16.322,16.322,0,1,0,47.645,41.322,16.342,16.342,0,0,0,31.322,25Zm0,29.677A13.355,13.355,0,1,1,44.677,41.322,13.37,13.37,0,0,1,31.322,54.677Z" transform="translate(6.774 11.613)" fill="#3a3c07"/>
      <path id="Trazado_111032" data-name="Trazado 111032" d="M69.258,57.387V64.61l10.837-7.223h2.518a7.428,7.428,0,0,0,7.419-7.419V32.161a7.428,7.428,0,0,0-7.419-7.419H74.674a8.889,8.889,0,0,0-16.768,0H49.967a7.412,7.412,0,0,0-1.484.15V14.355a7.428,7.428,0,0,0-7.419-7.419H33.126a8.889,8.889,0,0,0-16.768,0H8.419A7.428,7.428,0,0,0,1,14.355V32.161A7.428,7.428,0,0,0,8.419,39.58H20.332a22.109,22.109,0,0,0-.889,25.459l-2.12,2.12-1.484-1.484L2.972,78.544a6.73,6.73,0,0,0,9.517,9.518L25.356,75.193l-1.484-1.484,2.12-2.12a22.224,22.224,0,0,0,33.914-14.2ZM75.193,27.71h7.419a4.457,4.457,0,0,1,4.452,4.452V49.967a4.457,4.457,0,0,1-4.452,4.452H79.2l-6.97,4.647V54.419H60.279c.033-.493.076-.982.076-1.484s-.043-.991-.076-1.484h20.85V48.484a14.854,14.854,0,0,0-9.354-13.775A8.886,8.886,0,0,0,75.193,27.71ZM70.629,48.484l-.907-11.36a11.89,11.89,0,0,1,8.439,11.36ZM66.7,36.633l.947,11.85H64.929l.945-11.846c.139,0,.276-.025.415-.025S66.566,36.629,66.7,36.633Zm-4.753,11.85H59.9a22.085,22.085,0,0,0-2.945-7.307,11.832,11.832,0,0,1,5.9-4.036Zm4.339-26.71a5.935,5.935,0,1,1-5.935,5.935A5.941,5.941,0,0,1,66.29,21.774Zm-8.9,5.935a8.888,8.888,0,0,0,3.414,7,14.819,14.819,0,0,0-5.639,3.966,22.323,22.323,0,0,0-9.629-6.689,4.448,4.448,0,0,1,4.434-4.274ZM33.645,9.9h7.419a4.457,4.457,0,0,1,4.452,4.452V26.264a7.381,7.381,0,0,0-2.865,4.886,21.979,21.979,0,0,0-3.07-.4v-.077A14.854,14.854,0,0,0,30.226,16.9,8.886,8.886,0,0,0,33.645,9.9ZM12.871,30.677a11.889,11.889,0,0,1,8.44-11.36L20.4,30.677Zm11.457-11.85c.138,0,.275-.021.414-.021s.276.016.414.021l.947,11.85H23.381Zm3.845.49a11.889,11.889,0,0,1,8.44,11.36H29.081ZM24.742,3.968A5.935,5.935,0,1,1,18.806,9.9,5.941,5.941,0,0,1,24.742,3.968ZM3.968,32.161V14.355A4.457,4.457,0,0,1,8.419,9.9h7.419a8.886,8.886,0,0,0,3.419,7A14.854,14.854,0,0,0,9.9,30.677v2.968H27.04a22.344,22.344,0,0,0-4.024,2.968H8.419A4.457,4.457,0,0,1,3.968,32.161Zm6.424,53.8A3.763,3.763,0,1,1,5.07,80.642l10.768-10.77,5.321,5.321ZM21.774,71.611l-2.353-2.353,1.824-1.824A22.587,22.587,0,0,0,23.6,69.787Zm16.322.614a19.29,19.29,0,1,1,19.29-19.29A19.312,19.312,0,0,1,38.1,72.225Z" fill="#3a3c07"/>
      <path id="Trazado_111033" data-name="Trazado 111033" d="M70.161,45H43.452A4.457,4.457,0,0,0,39,49.452V67.258a4.457,4.457,0,0,0,4.452,4.452h26.71a4.457,4.457,0,0,0,4.452-4.452V49.452A4.457,4.457,0,0,0,70.161,45Zm1.484,22.258a1.485,1.485,0,0,1-1.484,1.484H43.452a1.485,1.485,0,0,1-1.484-1.484V49.452a1.485,1.485,0,0,1,1.484-1.484h26.71a1.485,1.485,0,0,1,1.484,1.484Z" transform="translate(18.387 21.29)" fill="#3a3c07"/>
      <path id="Trazado_111034" data-name="Trazado 111034" d="M63.774,51.968H60.806v8.9H57.839V54.935H54.871v5.935H51.9V57.9H48.935v2.968H45.968V49H43V63.839H66.742V60.871H63.774Z" transform="translate(20.322 23.225)" fill="#3a3c07"/>
      <path id="Trazado_111035" data-name="Trazado 111035" d="M55,21h2.968v2.968H55Z" transform="translate(26.129 9.677)" fill="#3a3c07"/>
      <path id="Trazado_111036" data-name="Trazado 111036" d="M55,25h2.968v2.968H55Z" transform="translate(26.129 11.613)" fill="#3a3c07"/>
      <path id="Trazado_111037" data-name="Trazado 111037" d="M5,9H7.968v2.968H5Z" transform="translate(1.935 3.871)" fill="#3a3c07"/>
      <path id="Trazado_111038" data-name="Trazado 111038" d="M5,13H7.968v2.968H5Z" transform="translate(1.935 5.806)" fill="#3a3c07"/>
    </g>
  </g>
</svg>
