<svg xmlns="http://www.w3.org/2000/svg" xmlns:xlink="http://www.w3.org/1999/xlink" width="293.89" height="401" viewBox="0 0 293.89 401">
  <defs>
    <clipPath id="clip-path">
      <path id="Trazado_110633" data-name="Trazado 110633" d="M438.4,194.915c-1.732.605-3.443,1.284-5.133,1.994a87.033,87.033,0,0,0-24.222,12.778A90.273,90.273,0,0,0,389.32,230.06a103.1,103.1,0,0,0-13.227,26.309,121.629,121.629,0,0,0-6.05,44.3,61.681,61.681,0,0,0,2.753,16.169c2.932,8.847,8.9,16.764,17.755,20.258,9.347,3.694,19.8,2.306,29.553,1.514a174.782,174.782,0,0,1,34.488.824c5.915.7,11.767,1.68,17.63,2.692a163.92,163.92,0,0,0,17,2.254c9.639.625,19.726-.523,28.2-5.457a30.788,30.788,0,0,0,10.078-9.389,53.6,53.6,0,0,0,6.3-13.927,102.172,102.172,0,0,0,4.444-32.62,120.714,120.714,0,0,0-4.569-31.587,83.012,83.012,0,0,0-13.582-27.467,98.253,98.253,0,0,0-21.937-20.551c-8.534-5.987-18.026-11.109-28.488-12.528a52.393,52.393,0,0,0-7.028-.461,74,74,0,0,0-24.237,4.518" transform="translate(-369.891 -190.397)" fill="none"/>
    </clipPath>
    <clipPath id="clip-path-3">
      <path id="Trazado_110637" data-name="Trazado 110637" d="M412.789,253.106l4.812,94.981c2.866-.191,5.716-.466,8.51-.693a174.777,174.777,0,0,1,34.488.824c5.915.7,11.767,1.68,17.63,2.692a163.892,163.892,0,0,0,17,2.254c1.133.073,2.273.122,3.414.143l5.076-100.2Z" transform="translate(-412.789 -253.106)" fill="none"/>
    </clipPath>
    <clipPath id="clip-path-4">
      <rect id="Rectángulo_5978" data-name="Rectángulo 5978" width="97.927" height="7.603" fill="#5ea466"/>
    </clipPath>
    <clipPath id="clip-path-6">
      <path id="Trazado_110640" data-name="Trazado 110640" d="M445.74,139.882a6.379,6.379,0,0,0-3.667,4.88,6.385,6.385,0,0,0-9.252,8.025s.038.081.11.228a1.657,1.657,0,0,1,.081.149,5.481,5.481,0,0,0,.386.632c.031.041.058.085.091.132,1.507,2.206,5.84,6.926,15.782,7.879,0,0,7.515-8.024,5.429-17.064a13.455,13.455,0,0,0-.5-1.7,6.386,6.386,0,0,0-7.915-3.381c-.182.064-.362.136-.542.217" transform="translate(-432.247 -139.307)" fill="none"/>
    </clipPath>
    <clipPath id="clip-path-7">
      <path id="Trazado_110646" data-name="Trazado 110646" d="M498.019,194.588a8.574,8.574,0,0,0-5.4,6.186,8.59,8.59,0,0,0-13.209,9.852s.043.114.126.318a2.166,2.166,0,0,1,.093.206,7.162,7.162,0,0,0,.457.888c.037.058.069.12.109.186,1.8,3.111,7.152,9.873,20.4,12.135,0,0,10.876-10.025,8.971-22.362a18.322,18.322,0,0,0-.506-2.331,8.581,8.581,0,0,0-11.037-5.079" transform="translate(-478.872 -194.052)" fill="none"/>
    </clipPath>
    <clipPath id="clip-path-8">
      <path id="Trazado_110653" data-name="Trazado 110653" d="M427.758,181.841c.23.568.448,1.14.642,1.725a.916.916,0,0,1-.25.492,4.706,4.706,0,0,1-2.81,1.561,1.3,1.3,0,0,1-.621-.021.613.613,0,0,1-.232-.12,15.047,15.047,0,0,0-.963-1.878l-.3.175a4.339,4.339,0,0,0-1.982.273,9.113,9.113,0,0,0-5.288,6.224,22.386,22.386,0,0,0-.331,8.428,6.362,6.362,0,0,0,.46,2.065,4.82,4.82,0,0,1,.795-1.9,6.135,6.135,0,0,1,2.34-2,5.937,5.937,0,0,1,1.794-.536,6.068,6.068,0,0,1,4.661,1.372,8.746,8.746,0,0,1,2.482-4.333c1.9-2.18,3.838-4.456,4.738-7.2a3.864,3.864,0,0,0,.156-2.416,3.484,3.484,0,0,0-1-1.4,6.947,6.947,0,0,0-2.765-1.549,5.6,5.6,0,0,0-1.533,1.047" transform="translate(-415.39 -180.794)" fill="#d39142"/>
    </clipPath>
    <clipPath id="clip-path-9">
      <path id="Trazado_110656" data-name="Trazado 110656" d="M439.948,221.764a7.016,7.016,0,0,1-6.747-.421,11.152,11.152,0,0,1-1.346,4,5.473,5.473,0,0,1-1.954,1.8,5.968,5.968,0,0,1-5.342.312,1.069,1.069,0,0,0,.13.439,10.691,10.691,0,0,0,4.3,4.548,5.712,5.712,0,0,0,4.558.711,8.182,8.182,0,0,0,3.274-2.768.606.606,0,0,1,.257-.2c.188-.047.358.108.5.241a5.286,5.286,0,0,0,1.819,1.132,7.283,7.283,0,0,0,4.026-2.278,10.236,10.236,0,0,0,2.911-6.273,8.066,8.066,0,0,0-2.407-6.38l-.182-.021a7.056,7.056,0,0,1-3.8,5.152" transform="translate(-424.56 -216.612)" fill="none"/>
    </clipPath>
    <clipPath id="clip-path-10">
      <path id="Trazado_110658" data-name="Trazado 110658" d="M465.376,117.4s-.015.074-.037.209a1.021,1.021,0,0,1-.016.142,4.415,4.415,0,0,0-.043.618c0,.045,0,.087,0,.135-.044,2.236.619,7.559,6.937,13.038,0,0,9.021-1.823,11.989-9a11.458,11.458,0,0,0,.483-1.4,5.346,5.346,0,0,0-9.1-4.719,5.344,5.344,0,0,0-10.205.98" transform="translate(-465.275 -113.068)" fill="none"/>
    </clipPath>
  </defs>
  <g id="Grupo_61123" data-name="Grupo 61123" transform="translate(-996.785 -378)">
    <g id="Grupo_61121" data-name="Grupo 61121" transform="translate(1012.234 391.32)">
      <g id="Grupo_61101" data-name="Grupo 61101" transform="translate(0)">
        <g id="Grupo_61074" data-name="Grupo 61074" transform="translate(0 73.662)">
          <g id="Grupo_61073" data-name="Grupo 61073" clip-path="url(#clip-path)">
            <rect id="Rectángulo_5971" data-name="Rectángulo 5971" width="170.129" height="156.226" transform="translate(-1.597 0.014) rotate(-0.551)" fill="#cce5d6" opacity="0.4"/>
          </g>
        </g>
        <g id="Grupo_61076" data-name="Grupo 61076" transform="translate(0 73.662)">
          <g id="Grupo_61075" data-name="Grupo 61075" clip-path="url(#clip-path)">
            <rect id="Rectángulo_5972" data-name="Rectángulo 5972" width="91.816" height="5.322" transform="translate(36.45 148.454)" fill="#070b0c"/>
            <path id="Trazado_110634" data-name="Trazado 110634" d="M407.557,380.717h-5.213a2.927,2.927,0,0,1-2.918-2.918V344.48a2.926,2.926,0,0,1,2.918-2.918h5.213a2.927,2.927,0,0,1,2.919,2.918V377.8a2.927,2.927,0,0,1-2.919,2.918" transform="translate(-374.027 -211.563)" fill="#4d4d4d"/>
            <rect id="Rectángulo_5973" data-name="Rectángulo 5973" width="6.053" height="39.155" transform="translate(27.898 129.998)" fill="#070b0c"/>
            <path id="Trazado_110635" data-name="Trazado 110635" d="M527.173,380.717h-5.214a2.928,2.928,0,0,1-2.918-2.918V344.48a2.927,2.927,0,0,1,2.918-2.918h5.214a2.927,2.927,0,0,1,2.919,2.918V377.8a2.927,2.927,0,0,1-2.919,2.918" transform="translate(-390.775 -211.563)" fill="#4d4d4d"/>
            <rect id="Rectángulo_5974" data-name="Rectángulo 5974" width="6.053" height="39.155" transform="translate(130.764 129.998)" fill="#070b0c"/>
          </g>
        </g>
        <g id="Grupo_61078" data-name="Grupo 61078" transform="translate(36.891 127.59)">
          <g id="Grupo_61077" data-name="Grupo 61077" clip-path="url(#clip-path-3)">
            <rect id="Rectángulo_5975" data-name="Rectángulo 5975" width="90.933" height="100.2" transform="translate(0 0)" fill="#5ea466"/>
          </g>
        </g>
        <g id="Grupo_61080" data-name="Grupo 61080" transform="translate(33.394 119.988)">
          <rect id="Rectángulo_5976" data-name="Rectángulo 5976" width="97.927" height="7.603" fill="#5ea466"/>
          <g id="Grupo_61079" data-name="Grupo 61079" clip-path="url(#clip-path-4)">
            <rect id="Rectángulo_5977" data-name="Rectángulo 5977" width="97.927" height="7.603" fill="#5ea466"/>
          </g>
        </g>
        <g id="Grupo_61082" data-name="Grupo 61082" transform="translate(0 73.662)">
          <g id="Grupo_61081" data-name="Grupo 61081" clip-path="url(#clip-path)">
            <path id="Trazado_110638" data-name="Trazado 110638" d="M503.721,253.107l-90.356,11.374-.576-11.374Z" transform="translate(-375.898 -199.178)" fill="#5ea466" opacity="0.5" style="mix-blend-mode: multiply;isolation: isolate"/>
          </g>
        </g>
        <g id="Grupo_61084" data-name="Grupo 61084" transform="translate(53.624 29.726)">
          <g id="Grupo_61083" data-name="Grupo 61083" clip-path="url(#clip-path-6)">
            <rect id="Rectángulo_5979" data-name="Rectángulo 5979" width="23.723" height="21.886" transform="matrix(0.944, -0.331, 0.331, 0.944, -2.349, 6.101)" fill="#5ebd75"/>
          </g>
        </g>
        <g id="Grupo_61085" data-name="Grupo 61085" transform="translate(65.051)">
          <path id="Trazado_110641" data-name="Trazado 110641" d="M498.16,188.855l-3.988,7.545-4.125,7.9-7.319,14.019a7.8,7.8,0,0,1-6.808,4.211.147.147,0,0,1-.047,0,7.643,7.643,0,0,1-3.873-.9l-11.077-5.855-11.1-5.8a7.615,7.615,0,0,1-2.924-2.644,5.2,5.2,0,0,1-.34-.567,7.783,7.783,0,0,1-.109-7.505l7.4-13.976L457.165,179l4.785-9.175,6-11.5,1.4-2.659a19.723,19.723,0,0,1,8.48-8.425,17.692,17.692,0,0,1,2.711-1.144l.118-.044a19.615,19.615,0,0,0,11.177-9.565l13.259-25.415.19-.36a3.274,3.274,0,0,1,3-5.764,1.678,1.678,0,0,1,.286.127,2.835,2.835,0,0,1,.546.216l7.705,4.086,7.736,4.028a2.721,2.721,0,0,1,.487.327l.268.141a3.285,3.285,0,0,1-.9,5.833,3.222,3.222,0,0,1-2.145-.067l-.189.36-13.408,25.338a19.614,19.614,0,0,0-1.536,14.63l.03.122a17.612,17.612,0,0,1,.6,2.881,19.7,19.7,0,0,1-2.136,11.758l-1.4,2.66Z" transform="translate(-445.534 -104.742)" fill="#d3efe8"/>
          <path id="Trazado_110642" data-name="Trazado 110642" d="M531.407,121.024a9.363,9.363,0,0,1-4.354,1.9,7.2,7.2,0,0,1-4.843-1.237c-2.588-1.69-5.152-4.546-5.147-7.808a.514.514,0,0,1,.065-.236.566.566,0,0,1,.892-.464,48.872,48.872,0,0,0,13.58,6.83c.626.2.425,1.166-.194,1.018" transform="translate(-455.55 -105.908)" fill="#aaddce"/>
          <path id="Trazado_110643" data-name="Trazado 110643" d="M481.675,157.472c1.7-2.817,5.089-3.361,7.884-4.554a18.082,18.082,0,0,0,4.2-2.566q.428-.411.844-.865a31.2,31.2,0,0,0,3.578-5.06,25.029,25.029,0,0,1,3.385-4.985,2.677,2.677,0,0,1,3.5-.625c1.292.9,1.729,2.653,1.96,4.118a15.52,15.52,0,0,1-1.465,8.869,25.388,25.388,0,0,1-6.465,8.175c-1.368,1.213-2.809,2.343-4.273,3.447a26.338,26.338,0,0,1-3.949,2.6c-2.668,1.331-5.759,1.451-8.078-.662a6.317,6.317,0,0,1-1.12-7.895" transform="translate(-450.468 -109.454)" fill="#aaddce"/>
          <path id="Trazado_110644" data-name="Trazado 110644" d="M476.98,236.3a3.63,3.63,0,0,1-1.492-.324,2.473,2.473,0,0,1-.259-.112c-.3-.123-.583-.26-.842-.372a53.867,53.867,0,0,1-5.742-3.312c-1.964-1.174-3.986-2.259-6.047-3.247-2.033-.975-4.112-1.842-6.214-2.618a28.409,28.409,0,0,1-5.98-2.612,3.921,3.921,0,0,1-1.673-1.7,1.454,1.454,0,0,1,.7-1.74c1.536-.927,3.652-.627,5.333-.415a35.2,35.2,0,0,1,20.893,10.518,27.445,27.445,0,0,1,1.916,2.185,3.116,3.116,0,0,1,.782,1.967,1.676,1.676,0,0,1-.316.87,1.141,1.141,0,0,1-1.059.916" transform="translate(-445.97 -120.827)" fill="#aaddce"/>
          <path id="Trazado_110645" data-name="Trazado 110645" d="M509.483,128.062a4.9,4.9,0,0,1,2.738-3.664,2.672,2.672,0,0,1,2.7.218,3.546,3.546,0,0,1,.955,2.622,5.715,5.715,0,0,1-2.495,5.264,3.551,3.551,0,0,1-2.809.457,2.489,2.489,0,0,1-1.643-1.852,4.106,4.106,0,0,1,.551-3.045" transform="translate(-454.397 -107.458)" fill="#aaddce"/>
        </g>
        <g id="Grupo_61087" data-name="Grupo 61087" transform="translate(93.721 76.805)">
          <g id="Grupo_61086" data-name="Grupo 61086" clip-path="url(#clip-path-7)">
            <rect id="Rectángulo_5980" data-name="Rectángulo 5980" width="33.703" height="30.307" transform="translate(-1.109 0)" fill="#5ea466"/>
          </g>
        </g>
        <g id="Grupo_61092" data-name="Grupo 61092" transform="translate(39.128 61.329)">
          <path id="Trazado_110647" data-name="Trazado 110647" d="M452.243,215.232a6.261,6.261,0,0,0,3-4.72c1.974,1.3,3.651,3.316,3.732,5.664a8.509,8.509,0,0,1-1.321,4.351,8.6,8.6,0,0,1-2.247,2.846,3.893,3.893,0,0,1-3.44.738.611.611,0,0,0-.286-.059c-.264.037-.372.344-.432.6a8.741,8.741,0,0,1-4.33,5.755,6.563,6.563,0,0,1-5.107.3,7.281,7.281,0,0,0,4.025-2.278,10.245,10.245,0,0,0,2.912-6.273,8.066,8.066,0,0,0-2.407-6.38l-.182-.021c.021-.132.036-.275.049-.41a6.251,6.251,0,0,0,6.034-.115" transform="translate(-419.09 -180.88)" fill="#d39142"/>
          <path id="Trazado_110648" data-name="Trazado 110648" d="M428.455,181.266c.229.567.447,1.141.642,1.724a.921.921,0,0,1-.25.493,4.715,4.715,0,0,1-2.809,1.561,1.324,1.324,0,0,1-.622-.021.61.61,0,0,1-.233-.12,15.267,15.267,0,0,0-.961-1.879,17.124,17.124,0,0,0-3.862-4.525c.014-.015.022-.032.037-.046a5.626,5.626,0,0,0,3.575-.027,3.8,3.8,0,0,0,2.168-1.739c.049.08.1.159.148.237a31.386,31.386,0,0,1,2.167,4.341" transform="translate(-416.086 -176.144)" fill="#070b0c"/>
          <path id="Trazado_110649" data-name="Trazado 110649" d="M428.432,208.068c-.318-.832-.66-1.653-1.05-2.452a17.118,17.118,0,0,0-3.168-4.668,9.531,9.531,0,0,0-4.369-2.546,5.89,5.89,0,0,1,1.794-.534,6.056,6.056,0,0,1,4.662,1.37,8.745,8.745,0,0,1,2.483-4.333,14.8,14.8,0,0,1,1.586-1.393c1.376-1.056,3.07-1.979,4.772-1.631a6.4,6.4,0,0,1,2.68,1.464,15.461,15.461,0,0,0,1.109,6.978c.123.326.25.644.385.966l-1.086,2.347a3.741,3.741,0,0,0-1.795-1.452,1.258,1.258,0,0,0-1.064-.012,1.058,1.058,0,0,0-.433.682,7.708,7.708,0,0,0,.29,1.419l-1.934,2.009a4.32,4.32,0,0,0-.42-.671,1.678,1.678,0,0,0-1.714-.783,1.423,1.423,0,0,0-.869,1.191,2.479,2.479,0,0,0,.023.768Z" transform="translate(-416.014 -178.261)" fill="#fff4b6"/>
          <path id="Trazado_110650" data-name="Trazado 110650" d="M437.685,205.943a7.774,7.774,0,0,1-.29-1.42,1.055,1.055,0,0,1,.433-.681,1.262,1.262,0,0,1,1.064.011,3.782,3.782,0,0,1,2.394,3.131,1.529,1.529,0,0,1-.394,1.305,1.153,1.153,0,0,1-.912.217,2.054,2.054,0,0,1-.863-.4,4.294,4.294,0,0,1-1.432-2.16" transform="translate(-418.471 -179.93)" fill="#070b0c"/>
          <path id="Trazado_110651" data-name="Trazado 110651" d="M439.276,191.7a6.417,6.417,0,0,0-2.68-1.464c-1.7-.348-3.4.575-4.772,1.631a14.706,14.706,0,0,0-1.586,1.394c1.9-2.181,3.837-4.457,4.739-7.2a3.873,3.873,0,0,0,.155-2.417,3.49,3.49,0,0,0-1-1.4,6.947,6.947,0,0,0-2.766-1.549,6.972,6.972,0,0,1,2.853-.665,10.053,10.053,0,0,1,4.661,1.112,13.93,13.93,0,0,1,7.361,9.321,4.382,4.382,0,0,0-6.906,1.287.218.218,0,0,0-.062-.045" transform="translate(-417.469 -176.61)" fill="#d39142"/>
          <g id="Grupo_61089" data-name="Grupo 61089" transform="translate(0 4.075)">
            <path id="Trazado_110652" data-name="Trazado 110652" d="M427.758,181.841c.23.568.448,1.14.642,1.725a.916.916,0,0,1-.25.492,4.706,4.706,0,0,1-2.81,1.561,1.3,1.3,0,0,1-.621-.021.613.613,0,0,1-.232-.12,15.047,15.047,0,0,0-.963-1.878l-.3.175a4.339,4.339,0,0,0-1.982.273,9.113,9.113,0,0,0-5.288,6.224,22.386,22.386,0,0,0-.331,8.428,6.362,6.362,0,0,0,.46,2.065,4.82,4.82,0,0,1,.795-1.9,6.135,6.135,0,0,1,2.34-2,5.937,5.937,0,0,1,1.794-.536,6.068,6.068,0,0,1,4.661,1.372,8.746,8.746,0,0,1,2.482-4.333c1.9-2.18,3.838-4.456,4.738-7.2a3.864,3.864,0,0,0,.156-2.416,3.484,3.484,0,0,0-1-1.4,6.947,6.947,0,0,0-2.765-1.549,5.6,5.6,0,0,0-1.533,1.047" transform="translate(-415.39 -180.794)" fill="#d39142"/>
            <g id="Grupo_61088" data-name="Grupo 61088" clip-path="url(#clip-path-8)">
              <rect id="Rectángulo_5981" data-name="Rectángulo 5981" width="18.136" height="19.968" transform="translate(-0.206 0)" fill="#faaf4c"/>
            </g>
          </g>
          <path id="Trazado_110654" data-name="Trazado 110654" d="M439.627,205.181l1.086-2.346a24.864,24.864,0,0,0,9.852,11.322,6.243,6.243,0,0,1-6.034.115c-.013.135-.028.279-.049.411a6.878,6.878,0,0,1-10.543,4.732,11.093,11.093,0,0,1-1.346,4,5.448,5.448,0,0,1-1.953,1.8c1.585-2.193,1.528-5.17,1.146-7.853a36.149,36.149,0,0,0-1.956-7.753l1.882-1.279c.038.263.111.511.173.765l.111-.027a3.88,3.88,0,0,0,1.177,1.992,1.278,1.278,0,0,0,.892.4.993.993,0,0,0,.75-.47,2,2,0,0,0,.277-.871,4.148,4.148,0,0,0-.4-2.3l1.933-2.008a4.292,4.292,0,0,0,1.434,2.159,2.041,2.041,0,0,0,.862.4,1.146,1.146,0,0,0,.912-.216,1.535,1.535,0,0,0,.395-1.305,3.8,3.8,0,0,0-.6-1.679" transform="translate(-417.412 -179.805)" fill="#fff4b6"/>
          <path id="Trazado_110655" data-name="Trazado 110655" d="M432.295,209.639l-.111.027c-.061-.254-.135-.5-.173-.765a2.487,2.487,0,0,1-.022-.769,1.419,1.419,0,0,1,.869-1.191,1.681,1.681,0,0,1,1.714.782,4.408,4.408,0,0,1,.42.671,4.148,4.148,0,0,1,.4,2.3,2,2,0,0,1-.277.871.993.993,0,0,1-.75.47,1.278,1.278,0,0,1-.892-.4,3.88,3.88,0,0,1-1.177-1.992" transform="translate(-417.711 -180.373)" fill="#070b0c"/>
          <g id="Grupo_61091" data-name="Grupo 61091" transform="translate(7.886 34.878)">
            <g id="Grupo_61090" data-name="Grupo 61090" clip-path="url(#clip-path-9)">
              <rect id="Rectángulo_5982" data-name="Rectángulo 5982" width="21.931" height="17.066" transform="translate(0 0)" fill="#faaf4c"/>
            </g>
          </g>
          <path id="Trazado_110657" data-name="Trazado 110657" d="M426.146,176.6a3.8,3.8,0,0,1-2.169,1.738,5.617,5.617,0,0,1-3.574.028,6.744,6.744,0,0,1,4.358-2.29,1.621,1.621,0,0,1,1.022.146,1.374,1.374,0,0,1,.363.378" transform="translate(-416.092 -176.056)" fill="#482d6b"/>
        </g>
        <g id="Grupo_61094" data-name="Grupo 61094" transform="translate(82.028 7.16)">
          <g id="Grupo_61093" data-name="Grupo 61093" clip-path="url(#clip-path-10)">
            <rect id="Rectángulo_5983" data-name="Rectángulo 5983" width="20.012" height="18.473" transform="translate(-0.042 0)" fill="#97d19d"/>
          </g>
        </g>
        <g id="Grupo_61100" data-name="Grupo 61100" transform="translate(70.474 153.765)">
          <g id="Grupo_61099" data-name="Grupo 61099">
            <g id="Grupo_61098" data-name="Grupo 61098">
              <g id="Grupo_61095" data-name="Grupo 61095" transform="translate(0 9.144)">
                <path id="Trazado_110659" data-name="Trazado 110659" d="M454.684,306.419a3.046,3.046,0,0,1-.121-2.177,7.642,7.642,0,0,1,1.239-2.363,1.3,1.3,0,0,1,.01-.3l2.165-2.9,2.765,2.269-1.348-6.768-6.578.266,2.1,1.72-2.686,3.6-.1.292a5.3,5.3,0,0,0,2.589,6.427Z" transform="translate(-451.84 -294.175)" fill="#02595d"/>
                <path id="Trazado_110660" data-name="Trazado 110660" d="M457.756,304.495a1.3,1.3,0,0,1-1.005-.381,7.134,7.134,0,0,0-.758,1.434,2.494,2.494,0,0,0-.081,1.8,2.441,2.441,0,0,0,.822,1.024,5.332,5.332,0,0,0,1.231.079l4.135-.219-.209-3.953Z" transform="translate(-452.391 -295.567)" fill="#02595d"/>
              </g>
              <g id="Grupo_61096" data-name="Grupo 61096" transform="translate(11.808 10.379)">
                <path id="Trazado_110661" data-name="Trazado 110661" d="M478.3,302.13a3.04,3.04,0,0,1-1.711,1.349,7.63,7.63,0,0,1-2.646.344,1.317,1.317,0,0,1-.254.165l-3.619-.106.268-3.565-4.765,4.991,4,5.23.2-2.7,4.487.131.3-.086a5.295,5.295,0,0,0,3.774-5.811C478.318,302.089,478.308,302.11,478.3,302.13Z" transform="translate(-465.57 -296.271)" fill="#02595d"/>
                <path id="Trazado_110662" data-name="Trazado 110662" d="M475.114,301.313a1.3,1.3,0,0,1,.266,1.041,7.1,7.1,0,0,0,1.61-.2,2.492,2.492,0,0,0,1.517-.966,2.443,2.443,0,0,0,.366-1.262,5.254,5.254,0,0,0-.642-1.053l-2.555-3.258-3.116,2.442Z" transform="translate(-466.548 -295.612)" fill="#02595d"/>
              </g>
              <g id="Grupo_61097" data-name="Grupo 61097" transform="translate(5.984)">
                <path id="Trazado_110663" data-name="Trazado 110663" d="M462.738,284.591a3.043,3.043,0,0,1,2.007.849,7.63,7.63,0,0,1,1.576,2.153,1.291,1.291,0,0,1,.268.143l1.652,3.221-3.253,1.484,6.67,1.768,2.656-6.023-2.467,1.126-2.049-4-.218-.219a5.294,5.294,0,0,0-6.911-.5Z" transform="translate(-459.34 -283.543)" fill="#02595d"/>
                <path id="Trazado_110664" data-name="Trazado 110664" d="M464.064,288.615a1.3,1.3,0,0,1,.784-.734,7.085,7.085,0,0,0-.955-1.312,2.5,2.5,0,0,0-1.578-.863,2.45,2.45,0,0,0-1.281.288,5.314,5.314,0,0,0-.611,1.071l-1.624,3.81,3.643,1.551Z" transform="translate(-458.798 -283.844)" fill="#02595d"/>
              </g>
            </g>
          </g>
          <path id="Trazado_110665" data-name="Trazado 110665" d="M473.528,320.205H454.795a1.735,1.735,0,1,1,0-3.469h18.734a1.735,1.735,0,0,1,0,3.469Z" transform="translate(-452.011 -288.19)" fill="#02595d"/>
          <path id="Trazado_110666" data-name="Trazado 110666" d="M473.528,330.29H454.795a1.735,1.735,0,1,1,0-3.469h18.734a1.735,1.735,0,0,1,0,3.469Z" transform="translate(-452.011 -289.602)" fill="#02595d"/>
        </g>
      </g>
      <g id="Grupo_61120" data-name="Grupo 61120" transform="translate(77.256 32.652)">
        <g id="Grupo_61114" data-name="Grupo 61114">
          <g id="Grupo_61103" data-name="Grupo 61103" transform="translate(73.725)">
            <path id="Trazado_110667" data-name="Trazado 110667" d="M605.853,197.435c-3.3-20.025-15.088-6.959-12.6-12.015s2.04-13.873-4.112-17.2-1.783.577-2.367-6.832-12.158-11.357-12.158-11.357c-6.862-.507-14.105.944-19.577,5.116-2,1.523-4.122,6.974-4.122,15.927,0,0,1.884,13.193-2.356,15.077-7.1,3.156-.091,9.634,2.049,10.928l34.639-.76.188-4.555,1.581,4.519Z" transform="translate(-545.455 -143.722)" fill="#070b0c"/>
            <path id="Trazado_110668" data-name="Trazado 110668" d="M586.023,156.549a19.093,19.093,0,0,1-2.11-7.259c-.04-2.538,1.187-5.273,3.54-6.225,2.481-1,5.346.255,7.324,2.058,2.607,2.374,4.33,6.053,3.411,9.458s-5.152,5.81-8.219,4.069" transform="translate(-550.84 -142.71)" fill="#070b0c"/>
            <path id="Trazado_110669" data-name="Trazado 110669" d="M556.374,179.942l2.307,7.983a4.952,4.952,0,1,1-8.58-2.413Z" transform="translate(-545.93 -147.923)" fill="#fad082"/>
            <path id="Trazado_110670" data-name="Trazado 110670" d="M575.358,171.42a.583.583,0,0,0,.658.522c1.372-.187,4.5-.9,5.423,2.634.931,3.571-2.258,6.071-4.325,6.458-.6.113-1.968.418-2.316.915-1.072,1.526-1.268,4.58-1.741,8.417a10.625,10.625,0,0,0,5.882,11.366s-39.711,42.648-21.264,2.779c0,0-.871-19.681-.984-19.767-1.9-1.454-8.5-1.315-6.237-15.724,2.095-13.348,11.641-13.677,14.093-13.569C566.617,155.543,573.694,155.057,575.358,171.42Z" transform="translate(-546.09 -144.492)" fill="#f7a096"/>
            <g id="Grupo_61102" data-name="Grupo 61102" transform="translate(3.853 19.553)">
              <path id="Trazado_110671" data-name="Trazado 110671" d="M584.141,178.917s-2.758-4.267-4.691,2.193Z" transform="translate(-554.068 -167.139)" fill="#e75b5d" opacity="0.5"/>
              <path id="Trazado_110672" data-name="Trazado 110672" d="M565.147,175.868a3.252,3.252,0,1,0,3.586,2.88A3.252,3.252,0,0,0,565.147,175.868Z" transform="translate(-551.659 -166.903)" fill="#e75b5d" opacity="0.5"/>
              <path id="Trazado_110673" data-name="Trazado 110673" d="M550.147,178.341a3.253,3.253,0,0,0,.295-6.082S549.535,176.008,550.147,178.341Z" transform="translate(-549.935 -166.401)" fill="#e75b5d" opacity="0.5"/>
              <path id="Trazado_110674" data-name="Trazado 110674" d="M553.082,176.983l5.238,1.8s-2.173,2.067-3.6,1.281S553.082,176.983,553.082,176.983Z" transform="translate(-550.376 -167.062)" fill="#fff"/>
              <path id="Trazado_110675" data-name="Trazado 110675" d="M557.132,172.327l-.315,3.611-1.808-.53a.457.457,0,0,1-.2-.762Z" transform="translate(-550.6 -166.41)" fill="#e75b5d" opacity="0.5"/>
              <path id="Trazado_110676" data-name="Trazado 110676" d="M563.593,169.418c.5.54-.016-1.507-.781-1.892a1.454,1.454,0,0,0-1.986.5A4.55,4.55,0,0,1,563.593,169.418Z" transform="translate(-551.46 -165.711)"/>
              <path id="Trazado_110677" data-name="Trazado 110677" d="M552.694,166.869c-.679.291.621-1.374,1.475-1.42a1.455,1.455,0,0,1,1.619,1.252A4.546,4.546,0,0,0,552.694,166.869Z" transform="translate(-550.295 -165.447)"/>
              <path id="Trazado_110678" data-name="Trazado 110678" d="M560.953,172.987c-.159.618-.532,1.058-.832.98s-.414-.642-.254-1.261.532-1.058.832-.98S561.113,172.368,560.953,172.987Z" transform="translate(-551.316 -166.325)"/>
              <path id="Trazado_110679" data-name="Trazado 110679" d="M555.335,171.174c-.152.591-.508,1.01-.795.936s-.4-.613-.243-1.2.508-1.01.794-.937S555.488,170.583,555.335,171.174Z" transform="translate(-550.536 -166.079)"/>
              <path id="Trazado_110680" data-name="Trazado 110680" d="M557.783,189.472s6.28.362,9.347-.245S559.6,199.516,557.783,189.472Z" transform="translate(-551.034 -168.773)" fill="#e75b5d" opacity="0.5"/>
            </g>
            <path id="Trazado_110681" data-name="Trazado 110681" d="M554.871,158.166a19.048,19.048,0,0,1,8.835,3.534c4.83,3.651,2.981-4.609,5.566,1.55s1.033,9.32,9.063,7.472C578.335,170.722,576.9,139.319,554.871,158.166Z" transform="translate(-546.773 -144.031)" fill="#070b0c"/>
          </g>
          <path id="Trazado_110682" data-name="Trazado 110682" d="M666.135,549.072c0-2.05-28.888-3.713-64.524-3.713s-64.524,1.662-64.524,3.713,28.888,3.712,64.524,3.712S666.135,551.122,666.135,549.072Z" transform="translate(-470.558 -199.089)" fill="#e3d0bd" style="mix-blend-mode: multiply;isolation: isolate"/>
          <g id="Grupo_61105" data-name="Grupo 61105" transform="translate(59.816 312.858)">
            <path id="Trazado_110683" data-name="Trazado 110683" d="M560.142,507.027l-3.808,28.645s1.758,5.077,1.758,8.2c-3.787,2.6-24.951,2.868-26.643.8,4-4,14.046-9.781,14.046-9.781l-4.1-28.384Z" transform="translate(-529.584 -506.507)" fill="#d44f18"/>
            <path id="Trazado_110684" data-name="Trazado 110684" d="M554.141,512.439l4.98,33.983s1.1.861,2.148-1.367c.63-1.337-.2-2.343-1.66-7.715l3.027-25.194Z" transform="translate(-532.762 -507.297)" fill="#f2682d"/>
            <path id="Trazado_110685" data-name="Trazado 110685" d="M622.347,506.507l8.724,26.17s-2.058,9.93-2.318,10.581c-.924,2.31,7.3,3.534,7.3,3.534l.236-38.636Z" transform="translate(-542.312 -506.507)" fill="#d44f18"/>
            <path id="Trazado_110686" data-name="Trazado 110686" d="M632.642,506.507l5.043,30.927s8.97,6.175,9.67,4.228c.291-.81-5.329-7.355-6.485-9.438l.626-25.2Z" transform="translate(-543.753 -506.507)" fill="#f2682d"/>
            <path id="Trazado_110687" data-name="Trazado 110687" d="M530.438,549.439c-.684.508-1.74,2.945-.761,2.952l19.734.16c.476,0,9.464-.494,9.817-.729.036-.025-.519-2.854-.519-2.854Z" transform="translate(-529.281 -512.452)" fill="#fad082"/>
            <path id="Trazado_110688" data-name="Trazado 110688" d="M542.346,548.351l-5.418-4.476,9.334-4.363,7.157,8.839Z" transform="translate(-530.351 -511.128)" fill="#fad082"/>
            <path id="Trazado_110689" data-name="Trazado 110689" d="M648.253,546.021c.81,1.237.359,2.712-1.106,3.583-2.373,1.413-7.533,1.221-7.533,1.221s-5.168.285-7.613-.782c-1.641-.716-2.926-1.764-2.723-3.135l.286-1.84c.023-.158,6.281-.839,6.281-.839l.942-10.6Z" transform="translate(-543.279 -510.304)" fill="#f2682d"/>
            <g id="Grupo_61104" data-name="Grupo 61104" transform="translate(84.32 27.799)">
              <path id="Trazado_110690" data-name="Trazado 110690" d="M628.425,545.664l19.554-.471-6.125-6.361-11.308.235Z" transform="translate(-627.483 -538.833)" fill="#fad082"/>
              <path id="Trazado_110691" data-name="Trazado 110691" d="M651.595,554.463l-24.265.236,1.414-5.183H649Z" transform="translate(-627.33 -540.328)" fill="#fad082"/>
            </g>
          </g>
          <g id="Grupo_61110" data-name="Grupo 61110" transform="translate(58.489 112.079)">
            <path id="Trazado_110692" data-name="Trazado 110692" d="M580.4,274.982c6.129,10.835,15.149,18.249,18.671,32.025,4.084,15.976,44.615,151.209,52.947,181.416-1.976.476-41.934,0-41.934,0l-42.773-149.5a3.348,3.348,0,0,0-6.568.939l.81,149.034s-29.169,1.066-30.155.942c-3.316-35.785-11.083-172.344,15.487-216.258C559.037,271.9,568.083,274.615,580.4,274.982Z" transform="translate(-527.738 -273.037)" fill="#02595d"/>
            <g id="Grupo_61106" data-name="Grupo 61106" transform="translate(6.175 2.802)">
              <path id="Trazado_110693" data-name="Trazado 110693" d="M537.869,489.826c-.029-1.079-2.951-108.388-2.951-145.755,0-37.41,14.836-67.477,14.985-67.776l.343.172c-.15.3-14.946,30.288-14.946,67.6,0,37.363,2.921,144.666,2.952,145.745Z" transform="translate(-534.918 -276.295)" fill="#fff"/>
            </g>
            <g id="Grupo_61107" data-name="Grupo 61107" transform="translate(52.143 1.906)">
              <rect id="Rectángulo_5984" data-name="Rectángulo 5984" width="0.384" height="222.347" transform="translate(0 0.11) rotate(-16.714)" fill="#fff"/>
            </g>
            <g id="Grupo_61108" data-name="Grupo 61108" transform="translate(44.084 1.353)">
              <path id="Trazado_110694" data-name="Trazado 110694" d="M598.483,312.983,579,274.785l.341-.175,19.483,38.2Z" transform="translate(-579 -274.611)" fill="#fff"/>
            </g>
            <path id="Trazado_110695" data-name="Trazado 110695" d="M548.091,274.872l53.182,35.408c4.2.493-5.9-16.674-18.021-35.041Z" transform="translate(-530.588 -273.294)" opacity="0.21" style="mix-blend-mode: multiply;isolation: isolate"/>
            <g id="Grupo_61109" data-name="Grupo 61109" transform="translate(8.905 4.931)">
              <path id="Trazado_110696" data-name="Trazado 110696" d="M538.444,316.617l-.351-.153,16.492-37.694.351.153Z" transform="translate(-538.093 -278.771)" fill="#fff"/>
            </g>
          </g>
          <g id="Grupo_61111" data-name="Grupo 61111" transform="translate(0 56.769)">
            <path id="Trazado_110697" data-name="Trazado 110697" d="M460.452,261.18c11.191-.346,18.664-.332,19.708-.25l36.077-.789-.108-.093s1.821-.01,3.1-.107a1.421,1.421,0,0,0,1.282-1.088c3.461-14.6,10.463-53.089,23.019-49.95.181.045,4.415.665,3.964,1.233-4.112,5.18-11.608,30.626-11.608,30.626-.087.386-.075,2.091-.066,4.552,4.419,25.331-.866,27.293-.866,27.293a12.07,12.07,0,0,1-2.663,1.173c-.019.026-.038.053-.057.079l-.051-.044c-16.11,5.007-62.72-5.876-62.72-5.876C465.668,266.919,457.207,261.28,460.452,261.18Z" transform="translate(-459.726 -208.722)" fill="#f7a096"/>
          </g>
          <g id="Grupo_61112" data-name="Grupo 61112" transform="translate(67.766 56.77)">
            <path id="Trazado_110698" data-name="Trazado 110698" d="M554.4,217.027c.885-4.344,1.606-8.1,1.528-8.123-2.288-.573-4.391.248-6.322,2.044a86.582,86.582,0,0,1-1.372,16.086C550.344,223.732,552.331,220.33,554.4,217.027Z" transform="translate(-539.885 -208.723)" fill="#e75b5d" opacity="0.5"/>
            <path id="Trazado_110699" data-name="Trazado 110699" d="M538.641,279.674a20.743,20.743,0,0,0-.071,3.58,26.958,26.958,0,0,0,4.648-.937l.051.044c.02-.026.039-.053.058-.08a12.038,12.038,0,0,0,2.663-1.172s2.847-1.071,2.61-11.666C543.552,269.886,539.193,274.95,538.641,279.674Z" transform="translate(-538.526 -217.225)" fill="#d44f18"/>
          </g>
          <path id="Trazado_110700" data-name="Trazado 110700" d="M477.859,268.658s-8.465-5.359-8.818-4.062c-.7,2.552,6.336,5.239,5.453,6.034C474.494,270.63,476.534,269.365,477.859,268.658Z" transform="translate(-461.023 -159.748)" fill="#f7a096"/>
          <g id="Grupo_61113" data-name="Grupo 61113" transform="translate(71.145 52.325)">
            <path id="Trazado_110701" data-name="Trazado 110701" d="M556.313,207.24c-.177-1.06-1.06.177-2.828.707-3.651,7.765-11.323,28.391-11.023,34.384.424,8.475,4.171,19.292,3.72,20.566,0,0,7.539,3.3,36.28,1.885.521-8.854,16.589-36.75,2.266-52.114-1.572-2.453-8.651-7.674-12.239-9.114C572.49,203.554,553.839,231.269,556.313,207.24Z" transform="translate(-542.454 -203.554)" fill="#f6e7da"/>
          </g>
          <path id="Trazado_110702" data-name="Trazado 110702" d="M578.683,181.61l4.9,6.709a4.952,4.952,0,1,1-8.887.674Z" transform="translate(-475.775 -148.157)" fill="#fad082"/>
        </g>
        <path id="Trazado_110703" data-name="Trazado 110703" d="M539.036,266.561s16.026-54.71,35.827-55.244c16.24-.439,31.037,5.266,46.149,42.622l-13.035,1.392s-13.186-40.244-29.879-42.892-24.475,50.224-24.475,50.224Z" transform="translate(-470.831 -152.313)" fill="#d39142"/>
        <g id="Grupo_61119" data-name="Grupo 61119" transform="translate(64.438 98.819)">
          <path id="Trazado_110704" data-name="Trazado 110704" d="M619.163,337.121l-60.149,8.036a14.112,14.112,0,0,1-15.856-12.119l-8.5-63.645,88.124-11.773,8.5,63.645A14.112,14.112,0,0,1,619.163,337.121Z" transform="translate(-534.655 -257.619)" fill="#faaf4c"/>
          <g id="Grupo_61118" data-name="Grupo 61118" transform="translate(26.8 21.737)">
            <g id="Grupo_61115" data-name="Grupo 61115" transform="translate(0 20.446)">
              <path id="Trazado_110705" data-name="Trazado 110705" d="M574.533,332.953a6.177,6.177,0,0,1-1.151-4.271,15.5,15.5,0,0,1,1.472-5.211,2.576,2.576,0,0,1-.1-.607l3.087-6.666,6.438,3.348-5.5-12.876-12.951,3.277,4.883,2.539-3.83,8.269-.077.624a10.747,10.747,0,0,0,7.827,11.682C574.592,333.025,574.561,332.99,574.533,332.953Z" transform="translate(-565.818 -306.671)" fill="#f6e7da"/>
              <path id="Trazado_110706" data-name="Trazado 110706" d="M579.647,328a2.641,2.641,0,0,1-2.154-.335,14.421,14.421,0,0,0-.906,3.166,5.061,5.061,0,0,0,.591,3.6,4.951,4.951,0,0,0,2.061,1.69,10.771,10.771,0,0,0,2.477-.358l8.12-2.164-2.068-7.763Z" transform="translate(-567.313 -309.354)" fill="#f6e7da"/>
            </g>
            <g id="Grupo_61116" data-name="Grupo 61116" transform="translate(25.69 17.306)">
              <path id="Trazado_110707" data-name="Trazado 110707" d="M619.637,314.756a6.177,6.177,0,0,1-2.835,3.394,15.472,15.472,0,0,1-5.111,1.789,2.576,2.576,0,0,1-.436.435l-7.23,1.3-.958-7.193-7.377,11.9,10.124,8.718-.727-5.456,8.968-1.616.555-.295a10.745,10.745,0,0,0,5.064-13.118C619.662,314.665,619.651,314.71,619.637,314.756Z" transform="translate(-595.691 -304.625)" fill="#f6e7da"/>
              <path id="Trazado_110708" data-name="Trazado 110708" d="M612.8,314.576a2.643,2.643,0,0,1,.963,1.956,14.421,14.421,0,0,0,3.111-1.077,5.062,5.062,0,0,0,2.608-2.553,4.948,4.948,0,0,0,.2-2.658,10.793,10.793,0,0,0-1.716-1.821l-6.436-5.4-5.166,6.153Z" transform="translate(-597.186 -303.02)" fill="#f6e7da"/>
            </g>
            <g id="Grupo_61117" data-name="Grupo 61117" transform="translate(8.948)">
              <path id="Trazado_110709" data-name="Trazado 110709" d="M581.137,286.5a6.177,6.177,0,0,1,4.341.846,15.49,15.49,0,0,1,4.032,3.615,2.586,2.586,0,0,1,.591.172l4.627,5.705-5.839,4.308,13.985.723L605.63,288.8l-4.429,3.267-5.74-7.077-.526-.344A10.747,10.747,0,0,0,581,286.535C581.046,286.525,581.091,286.512,581.137,286.5Z" transform="translate(-576.892 -282.896)" fill="#f6e7da"/>
              <path id="Trazado_110710" data-name="Trazado 110710" d="M585.734,293.95a2.642,2.642,0,0,1,1.25-1.787,14.415,14.415,0,0,0-2.444-2.207,5.06,5.06,0,0,0-3.494-1.053,4.96,4.96,0,0,0-2.425,1.107,10.776,10.776,0,0,0-.768,2.382l-1.63,8.244,7.881,1.558Z" transform="translate(-576.223 -283.733)" fill="#f6e7da"/>
            </g>
          </g>
        </g>
      </g>
    </g>
    <g id="Grupo_61122" data-name="Grupo 61122" transform="translate(996.785 378)">
      <path id="Trazado_110711" data-name="Trazado 110711" d="M245.952,307.048s-1.521-21.3-15.972-19.014C229.98,288.033,225.416,305.527,245.952,307.048Z" transform="translate(-224.957 -40.168)" fill="#5ea466"/>
      <path id="Trazado_110712" data-name="Trazado 110712" d="M400.941,104.643s-20.914,4.295-16.761,18.323C384.18,122.966,402.12,125.2,400.941,104.643Z" transform="translate(-334.444 -104.643)" fill="#5ea466"/>
      <path id="Trazado_110713" data-name="Trazado 110713" d="M347.758,148.258s-.638-12.143-8.891-11C338.867,137.259,336.08,147.172,347.758,148.258Z" transform="translate(-338.576 -101.659)" fill="#97d19d"/>
      <path id="Trazado_110714" data-name="Trazado 110714" d="M649.224,290.474s-3.935-11.133,8.859-14.415C658.083,276.059,662.917,290.176,649.224,290.474Z" transform="translate(-384.45 -88.922)" fill="#5ea466"/>
      <path id="Trazado_110715" data-name="Trazado 110715" d="M621.659,132.4s-3.935-11.132,8.86-14.415C630.519,117.981,635.353,132.1,621.659,132.4Z" transform="translate(-386.978 -103.42)" fill="#97d19d"/>
      <path id="Trazado_110716" data-name="Trazado 110716" d="M655.954,301.1s4.59-15.78,21.716-9.1C677.67,291.994,671.676,311.877,655.954,301.1Z" transform="translate(-383.78 -87.612)" fill="#5ea466"/>
    </g>
  </g>
</svg>
