<svg id="analytics" xmlns="http://www.w3.org/2000/svg" width="52.667" height="52.667" viewBox="0 0 52.667 52.667">
  <g id="Grupo_61370" data-name="Grupo 61370">
    <g id="Grupo_61369" data-name="Grupo 61369">
      <path id="Trazado_110977" data-name="Trazado 110977" d="M49.075,45.312a3.6,3.6,0,0,0,3.592-3.592V5.143A5.149,5.149,0,0,0,47.524,0H5.143A5.149,5.149,0,0,0,0,5.143V41.72a3.6,3.6,0,0,0,3.592,3.592h1.14v5.3h-3.7a1.029,1.029,0,0,0,0,2.057h50.61a1.029,1.029,0,0,0,0-2.057h-3.7v-5.3ZM2.057,5.143A3.089,3.089,0,0,1,5.143,2.057h42.38A3.089,3.089,0,0,1,50.61,5.143V7.406H2.161c-.035,0-.069,0-.1.005ZM11.315,50.61H6.789V41.352h4.526Zm11.521,0H18.31V29.978h4.526Zm11.521,0H29.831V38.677h4.526Zm12.55-24.225H40.323a1.029,1.029,0,0,0-1.029,1.029v5.195a1.029,1.029,0,0,0,2.057,0V28.442h4.526V50.61H41.352V39.526a1.029,1.029,0,0,0-2.057,0V50.61h-2.88V37.649a1.029,1.029,0,0,0-1.029-1.029H28.8a1.029,1.029,0,0,0-1.029,1.029V50.61h-2.88V28.95a1.029,1.029,0,0,0-1.029-1.029H17.281a1.029,1.029,0,0,0-1.029,1.029V50.61h-2.88V40.323a1.029,1.029,0,0,0-1.029-1.029H5.76a1.029,1.029,0,0,0-1.029,1.029v2.932H3.592A1.536,1.536,0,0,1,2.057,41.72V9.458c.034,0,.068.005.1.005H50.61V41.72a1.536,1.536,0,0,1-1.534,1.535h-1.14V27.414A1.029,1.029,0,0,0,46.907,26.385Z" fill="#3a3c07"/>
    </g>
  </g>
  <g id="Grupo_61372" data-name="Grupo 61372" transform="translate(21.814 3.703)">
    <g id="Grupo_61371" data-name="Grupo 61371">
      <path id="Trazado_110978" data-name="Trazado 110978" d="M236.335,36H213.094a1.029,1.029,0,1,0,0,2.057h23.241a1.029,1.029,0,1,0,0-2.057Z" transform="translate(-212.065 -36)" fill="#3a3c07"/>
    </g>
  </g>
  <g id="Grupo_61374" data-name="Grupo 61374" transform="translate(9.669 3.703)">
    <g id="Grupo_61373" data-name="Grupo 61373">
      <path id="Trazado_110979" data-name="Trazado 110979" d="M95.756,36.3a1.028,1.028,0,1,0,.3.727A1.036,1.036,0,0,0,95.756,36.3Z" transform="translate(-94 -36)" fill="#3a3c07"/>
    </g>
  </g>
  <g id="Grupo_61376" data-name="Grupo 61376" transform="translate(5.555 3.703)">
    <g id="Grupo_61375" data-name="Grupo 61375">
      <path id="Trazado_110980" data-name="Trazado 110980" d="M55.756,36.3a1.028,1.028,0,1,0,.3.727A1.036,1.036,0,0,0,55.756,36.3Z" transform="translate(-54 -36)" fill="#3a3c07"/>
    </g>
  </g>
  <g id="Grupo_61378" data-name="Grupo 61378" transform="translate(13.784 3.703)">
    <g id="Grupo_61377" data-name="Grupo 61377">
      <path id="Trazado_110981" data-name="Trazado 110981" d="M135.756,36.3a1.028,1.028,0,1,0,.3.727A1.035,1.035,0,0,0,135.756,36.3Z" transform="translate(-134 -36)" fill="#3a3c07"/>
    </g>
  </g>
  <g id="Grupo_61380" data-name="Grupo 61380" transform="translate(39.295 35.246)">
    <g id="Grupo_61379" data-name="Grupo 61379">
      <path id="Trazado_110982" data-name="Trazado 110982" d="M383.756,342.941a1.028,1.028,0,1,0,.3.727A1.032,1.032,0,0,0,383.756,342.941Z" transform="translate(-382 -342.64)" fill="#3a3c07"/>
    </g>
  </g>
  <g id="Grupo_61382" data-name="Grupo 61382" transform="translate(5.281 13.983)">
    <g id="Grupo_61381" data-name="Grupo 61381">
      <path id="Trazado_110983" data-name="Trazado 110983" d="M89.67,135.939a3.7,3.7,0,0,0-3,5.875l-6.833,6.833a3.694,3.694,0,0,0-3.415-.083l-7.135-7.135a3.7,3.7,0,1,0-6.391.159l-6.074,6.074a3.706,3.706,0,1,0,1.455,1.455l6.147-6.147a3.695,3.695,0,0,0,3.408-.087l7.065,7.065a3.7,3.7,0,1,0,6.394.153l7.016-7.016a3.7,3.7,0,1,0,1.359-7.147ZM55.039,152.551a1.646,1.646,0,1,1,1.646-1.646A1.648,1.648,0,0,1,55.039,152.551Zm11.01-11.263a1.646,1.646,0,1,1,1.646-1.646A1.648,1.648,0,0,1,66.049,141.288Zm12,12.247a1.646,1.646,0,1,1,1.646-1.646A1.648,1.648,0,0,1,78.054,153.535ZM89.67,141.288a1.646,1.646,0,1,1,1.646-1.646A1.648,1.648,0,0,1,89.67,141.288Z" transform="translate(-51.336 -135.939)" fill="#3a3c07"/>
    </g>
  </g>
  <g id="Grupo_61384" data-name="Grupo 61384" transform="translate(13.502 12.963)">
    <g id="Grupo_61383" data-name="Grupo 61383">
      <path id="Trazado_110984" data-name="Trazado 110984" d="M133.016,126.321a1.028,1.028,0,1,0,.3.727A1.038,1.038,0,0,0,133.016,126.321Z" transform="translate(-131.26 -126.02)" fill="#3a3c07"/>
    </g>
  </g>
  <g id="Grupo_61386" data-name="Grupo 61386" transform="translate(4.732 12.963)">
    <g id="Grupo_61385" data-name="Grupo 61385">
      <path id="Trazado_110985" data-name="Trazado 110985" d="M51.966,126.021H47.029a1.029,1.029,0,0,0,0,2.057h4.938a1.029,1.029,0,0,0,0-2.057Z" transform="translate(-46 -126.021)" fill="#3a3c07"/>
    </g>
  </g>
  <g id="Grupo_61388" data-name="Grupo 61388" transform="translate(4.732 17.901)">
    <g id="Grupo_61387" data-name="Grupo 61387">
      <path id="Trazado_110986" data-name="Trazado 110986" d="M51.966,174.021H47.029a1.029,1.029,0,0,0,0,2.057h4.938a1.029,1.029,0,0,0,0-2.057Z" transform="translate(-46 -174.021)" fill="#3a3c07"/>
    </g>
  </g>
</svg>
