<svg xmlns="http://www.w3.org/2000/svg" width="105" height="105" viewBox="0 0 105 105">
  <g id="Grupo_61308" data-name="Grupo 61308" transform="translate(-326 -504)">
    <rect id="Rectángulo_5987" data-name="Rectángulo 5987" width="105" height="105" transform="translate(326 504)" fill="none"/>
    <g id="social-media" transform="translate(335.292 513.292)">
      <g id="Grupo_61141" data-name="Grupo 61141" transform="translate(1.266 1.266)">
        <g id="Grupo_61129" data-name="Grupo 61129" transform="translate(16.864)">
          <g id="Grupo_61128" data-name="Grupo 61128">
            <g id="Grupo_61127" data-name="Grupo 61127">
              <g id="Grupo_61126" data-name="Grupo 61126">
                <g id="Grupo_61125" data-name="Grupo 61125">
                  <path id="Trazado_110717" data-name="Trazado 110717" d="M152.638,94.1h-38.49a6.753,6.753,0,0,1-6.753-6.753V16.95a6.753,6.753,0,0,1,6.753-6.753h38.49a6.753,6.753,0,0,1,6.753,6.753v70.4A6.753,6.753,0,0,1,152.638,94.1Z" transform="translate(-107.395 -10.197)" fill="#3d6d93"/>
                  <path id="Trazado_110718" data-name="Trazado 110718" d="M350.46,10.2h-5.065a6.753,6.753,0,0,1,6.753,6.753v70.4a6.753,6.753,0,0,1-6.753,6.753h5.065a6.753,6.753,0,0,0,6.753-6.753V16.95A6.753,6.753,0,0,0,350.46,10.2Z" transform="translate(-305.216 -10.197)" fill="#335e80"/>
                  <path id="Trazado_110719" data-name="Trazado 110719" d="M170.728,41.548a2.282,2.282,0,0,1-2.282,2.282H148.21a2.282,2.282,0,0,1-2.282-2.282,1.351,1.351,0,0,0-1.351-1.351h-4.65a2.532,2.532,0,0,0-2.532,2.532v68.709a2.532,2.532,0,0,0,2.532,2.532h36.8a2.532,2.532,0,0,0,2.532-2.532V42.729a2.532,2.532,0,0,0-2.532-2.532h-4.65a1.351,1.351,0,0,0-1.351,1.351Z" transform="translate(-132.33 -35.132)" fill="#f9f7f8"/>
                </g>
              </g>
            </g>
          </g>
        </g>
        <g id="Grupo_61132" data-name="Grupo 61132" transform="translate(0.911 9.218)">
          <g id="Grupo_61130" data-name="Grupo 61130">
            <circle id="Elipse_4276" data-name="Elipse 4276" cx="14.597" cy="14.597" r="14.597" transform="translate(0 0)" fill="#ffe179"/>
            <path id="Trazado_110720" data-name="Trazado 110720" d="M86.9,64.8a14.674,14.674,0,0,0-2.532.223,14.595,14.595,0,0,1,0,28.748A14.6,14.6,0,1,0,86.9,64.8Z" transform="translate(-72.298 -64.802)" fill="#fbd268"/>
          </g>
          <g id="Grupo_61131" data-name="Grupo 61131" transform="translate(7.001 7.001)">
            <path id="Trazado_110721" data-name="Trazado 110721" d="M67.023,121.464H56.894a2.532,2.532,0,0,1-2.532-2.532V108.8a2.532,2.532,0,0,1,2.532-2.532H67.023a2.532,2.532,0,0,1,2.532,2.532v10.129A2.532,2.532,0,0,1,67.023,121.464Z" transform="translate(-54.362 -106.27)" fill="#f58a97"/>
            <path id="Trazado_110722" data-name="Trazado 110722" d="M104.428,106.27H99.363A2.532,2.532,0,0,1,101.9,108.8v10.129a2.532,2.532,0,0,1-2.532,2.532h5.065a2.532,2.532,0,0,0,2.532-2.532V108.8A2.532,2.532,0,0,0,104.428,106.27Z" transform="translate(-91.766 -106.27)" fill="#f07281"/>
            <circle id="Elipse_4277" data-name="Elipse 4277" cx="2.532" cy="2.532" r="2.532" transform="translate(5.065 5.065)" fill="#fff"/>
          </g>
        </g>
        <g id="Grupo_61134" data-name="Grupo 61134" transform="translate(0 43.668)">
          <g id="Grupo_61133" data-name="Grupo 61133">
            <circle id="Elipse_4278" data-name="Elipse 4278" cx="14.597" cy="14.597" r="14.597" fill="#8fd8fa"/>
            <path id="Trazado_110723" data-name="Trazado 110723" d="M80.671,268.866a14.664,14.664,0,0,0-2.7.254,14.6,14.6,0,0,1,0,28.687,14.6,14.6,0,1,0,2.7-28.941Z" transform="translate(-66.073 -268.866)" fill="#6bcdfe"/>
          </g>
          <g id="Shape_2_" transform="translate(6.469 7.891)">
            <path id="Trazado_110724" data-name="Trazado 110724" d="M58.6,316.716a3.226,3.226,0,0,0-5.659,2.16v.72a7.675,7.675,0,0,1-6-2.653.431.431,0,0,0-.742.154c-.529,1.8-1.253,6.322,3.867,8.6a8.382,8.382,0,0,1-3.37,1.339c-.312.05-.158.626-.079.832.543,1.418,6.672,2.006,10.426-1.081a9.845,9.845,0,0,0,3.245-6.039,6.639,6.639,0,0,0,1.785-3.509.77.77,0,0,0-1.1-.818,3.694,3.694,0,0,1-.809.282A3.77,3.77,0,0,1,58.6,316.716Z" transform="translate(-45.819 -315.608)" fill="#fff"/>
          </g>
        </g>
        <g id="Grupo_61137" data-name="Grupo 61137" transform="translate(55.618 43.668)">
          <g id="Grupo_61135" data-name="Grupo 61135">
            <circle id="Elipse_4279" data-name="Elipse 4279" cx="14.597" cy="14.597" r="14.597" transform="translate(0 0)" fill="#f58a97"/>
            <path id="Trazado_110725" data-name="Trazado 110725" d="M410.959,268.866a14.673,14.673,0,0,0-2.532.223,14.595,14.595,0,0,1,0,28.748,14.6,14.6,0,1,0,2.532-28.971Z" transform="translate(-396.362 -268.866)" fill="#f07281"/>
          </g>
          <g id="Grupo_61136" data-name="Grupo 61136" transform="translate(11.013 9.141)">
            <path id="Trazado_110726" data-name="Trazado 110726" d="M402.2,323.507a.49.49,0,0,1,.735-.425l8.878,5.128a.491.491,0,0,1,0,.849l-8.878,5.128a.49.49,0,0,1-.735-.425Z" transform="translate(-402.196 -323.015)" fill="#fff"/>
          </g>
        </g>
        <g id="Grupo_61139" data-name="Grupo 61139" transform="translate(55.618 9.218)">
          <g id="Grupo_61138" data-name="Grupo 61138">
            <circle id="Elipse_4280" data-name="Elipse 4280" cx="14.597" cy="14.597" r="14.597" fill="#8fd8fa"/>
            <path id="Trazado_110727" data-name="Trazado 110727" d="M410.959,64.8a14.675,14.675,0,0,0-2.532.223,14.595,14.595,0,0,1,0,28.748A14.6,14.6,0,1,0,410.959,64.8Z" transform="translate(-396.362 -64.802)" fill="#6bcdfe"/>
          </g>
        </g>
        <path id="Trazado_110728" data-name="Trazado 110728" d="M206.65,198.262a10.2,10.2,0,0,0-9.385,13.489,1.166,1.166,0,0,1-.007.762l-1.358,3.864a.675.675,0,0,0,.861.861l2.718-.956a1.193,1.193,0,0,1,1.135.2,10.2,10.2,0,1,0,6.035-18.217Z" transform="translate(-164.062 -166.511)" fill="#aee69c"/>
        <g id="Grupo_61140" data-name="Grupo 61140" transform="translate(40.322 31.748)">
          <path id="Trazado_110729" data-name="Trazado 110729" d="M248.616,198.262a10.077,10.077,0,0,0-2.253.318,10.2,10.2,0,0,1-.013,19.764,10.2,10.2,0,1,0,2.266-20.082Z" transform="translate(-246.35 -198.259)" fill="#89daa4"/>
        </g>
      </g>
      <g id="Grupo_61142" data-name="Grupo 61142" transform="translate(0 0)">
        <path id="Trazado_110730" data-name="Trazado 110730" d="M67.055,28.647h2.039v8.048a1.266,1.266,0,1,0,2.532,0V28.647h2.039a1.266,1.266,0,0,0,0-2.532H71.626V22.436a1.283,1.283,0,0,1,1.282-1.282h3a1.266,1.266,0,1,0,0-2.532h-3a3.819,3.819,0,0,0-3.814,3.814v3.679H67.055a1.266,1.266,0,0,0,0,2.532ZM44.128,9.579a1.266,1.266,0,1,0-1.266-1.266A1.266,1.266,0,0,0,44.128,9.579Zm-27.354,22a3.8,3.8,0,1,0-3.8-3.8A3.8,3.8,0,0,0,16.774,31.578Zm0-5.065a1.266,1.266,0,1,1-1.266,1.266A1.267,1.267,0,0,1,16.774,26.514Zm5.065,10.129a3.8,3.8,0,0,0,3.8-3.8V22.715a3.8,3.8,0,0,0-3.8-3.8H11.709a3.8,3.8,0,0,0-3.8,3.8V32.844a3.8,3.8,0,0,0,3.8,3.8Zm-11.4-3.8V22.715a1.267,1.267,0,0,1,1.266-1.266H21.839A1.267,1.267,0,0,1,23.1,22.715V32.844a1.267,1.267,0,0,1-1.266,1.266H11.709A1.268,1.268,0,0,1,10.443,32.844Zm14,22.554a2.039,2.039,0,0,0-2.124-.2,2.458,2.458,0,0,1-.532.186,2.428,2.428,0,0,1-.679.054,4.493,4.493,0,0,0-7.488,2.731,6.38,6.38,0,0,1-3.818-2.135,1.7,1.7,0,0,0-2.915.624c-.426,1.447-1.325,5.88,2.417,8.835-.714.218-1.528.2-1.945.925a2.178,2.178,0,0,0-.022,1.82,3.1,3.1,0,0,0,2.32,1.671,10.275,10.275,0,0,0,2.558.295,11.983,11.983,0,0,0,7.535-2.521,10.879,10.879,0,0,0,3.622-6.431,7.9,7.9,0,0,0,1.852-3.882,2.024,2.024,0,0,0-.78-1.968ZM21.286,59.78a1.266,1.266,0,0,0-.34.675,8.537,8.537,0,0,1-2.8,5.268,9.952,9.952,0,0,1-7.18,1.861,9.647,9.647,0,0,0,1.719-.926,1.266,1.266,0,0,0-.2-2.2,5.217,5.217,0,0,1-3.453-5.658,8.883,8.883,0,0,0,5.852,1.982,1.266,1.266,0,0,0,1.233-1.266v-.72c0-.006,0-.011,0-.017a1.959,1.959,0,0,1,3.438-1.312,1.266,1.266,0,0,0,.708.411,5,5,0,0,0,2.24-.06,5.387,5.387,0,0,1-1.22,1.967Zm50.2-13.415h-.09V43.642h.09a15.863,15.863,0,1,0-.09-31.726v-1.2A8.028,8.028,0,0,0,63.373,2.7H24.883a8.028,8.028,0,0,0-8.019,8.019v1.2a15.8,15.8,0,0,0-8.7,2.539,1.266,1.266,0,0,0,1.377,2.125,13.328,13.328,0,1,1-3.828,3.761,1.266,1.266,0,1,0-2.1-1.415A15.865,15.865,0,0,0,16.774,43.643h.09V46.4c-.331-.021-.664-.032-1-.032a15.863,15.863,0,0,0,0,31.727c.336,0,.67-.012,1-.032v3.053a8.028,8.028,0,0,0,8.019,8.019h38.49a8.028,8.028,0,0,0,8.019-8.019V78.092h.09a15.864,15.864,0,0,0,0-31.727Zm0-31.917A13.331,13.331,0,1,1,58.151,27.78,13.346,13.346,0,0,1,71.482,14.449ZM68.86,43.425v3.156a15.789,15.789,0,0,0-2.532.636V42.783A15.7,15.7,0,0,0,68.86,43.425ZM21.929,11.561v1.216a15.724,15.724,0,0,0-2.532-.642V10.717A5.493,5.493,0,0,1,24.883,5.23h38.49a5.493,5.493,0,0,1,5.487,5.487v1.417a15.724,15.724,0,0,0-2.532.642V11.561a3.8,3.8,0,0,0-3.8-3.8H57.878a2.62,2.62,0,0,0-2.617,2.617A1.018,1.018,0,0,1,54.245,11.4H34.011a1.018,1.018,0,0,1-1.016-1.016,2.615,2.615,0,0,0-2.617-2.617H25.727A3.8,3.8,0,0,0,21.929,11.561ZM19.4,43.425a15.724,15.724,0,0,0,2.532-.642v4.789a15.717,15.717,0,0,0-2.532-.809ZM15.863,75.56A13.331,13.331,0,1,1,29.195,62.229,13.177,13.177,0,0,1,15.863,75.56Zm53,5.553A5.493,5.493,0,0,1,63.373,86.6H24.883A5.493,5.493,0,0,1,19.4,81.113V77.7a15.718,15.718,0,0,0,2.532-.809v3.383a3.8,3.8,0,0,0,3.8,3.8h36.8a3.8,3.8,0,0,0,3.8-3.8V77.232a15.725,15.725,0,0,0,2.532.642Zm2.622-5.553a13.344,13.344,0,0,1-12.9-16.7,1.266,1.266,0,1,0-2.45-.638A15.877,15.877,0,0,0,63.8,76.1v4.168a1.267,1.267,0,0,1-1.266,1.266h-36.8a1.267,1.267,0,0,1-1.266-1.266V75.555a15.853,15.853,0,0,0,0-26.652V41.652a15.856,15.856,0,0,0,0-27.745V11.561a1.267,1.267,0,0,1,1.266-1.266h4.651a.084.084,0,0,1,.06.024.08.08,0,0,1,.024.06,3.553,3.553,0,0,0,3.549,3.549H54.245a3.553,3.553,0,0,0,3.549-3.549.085.085,0,0,1,.084-.084h4.651A1.267,1.267,0,0,1,63.8,11.561v2.346a15.856,15.856,0,0,0,.009,27.75,1.293,1.293,0,0,0-.009.146v6.538a15.9,15.9,0,0,0-4.883,4.21A1.266,1.266,0,1,0,60.917,54.1a13.168,13.168,0,0,1,10.565-5.2,13.331,13.331,0,1,1,0,26.662ZM48.768,45.5a1.267,1.267,0,0,0-1.739.425,3.041,3.041,0,0,1-.945.963,1.149,1.149,0,0,1-1.214.018l-1.895-1.15a1.174,1.174,0,0,1-.542-1.116,2.972,2.972,0,0,1,.416-1.252,1.266,1.266,0,0,0-2.164-1.315,5.525,5.525,0,0,0-.773,2.33l0,.025a3.7,3.7,0,0,0,1.751,3.492l1.895,1.15a3.694,3.694,0,0,0,3.905-.057,5.585,5.585,0,0,0,1.733-1.774A1.266,1.266,0,0,0,48.768,45.5ZM78.144,60.871l-8.878-5.128a1.77,1.77,0,0,0-2.635,1.521V67.521a1.774,1.774,0,0,0,2.635,1.521l8.878-5.128A1.776,1.776,0,0,0,78.144,60.871Zm-8.98,5.305V58.608l6.551,3.784ZM43.821,34.45A11.47,11.47,0,0,0,33.258,49.575L31.91,53.41a1.941,1.941,0,0,0,2.475,2.475l2.674-.94a11.469,11.469,0,1,0,6.762-20.5Zm.556,20.4A8.968,8.968,0,0,1,38.6,52.938a2.466,2.466,0,0,0-1.529-.535,2.437,2.437,0,0,0-.809.139l-1.557.547.95-2.7a2.44,2.44,0,0,0,.01-1.59,8.937,8.937,0,1,1,8.709,6.053Z" transform="translate(0 -2.698)" fill="#3a3c07"/>
      </g>
    </g>
  </g>
</svg>
