<svg xmlns="http://www.w3.org/2000/svg" width="105" height="105" viewBox="0 0 105 105">
  <g id="Grupo_61672" data-name="Grupo 61672" transform="translate(-326 -504)">
    <rect id="Rectángulo_5987" data-name="Rectángulo 5987" width="105" height="105" transform="translate(326 504)" fill="none"/>
    <g id="analitica" transform="translate(334.335 512.335)">
      <path id="Trazado_111470" data-name="Trazado 111470" d="M22.421,82.754H16.9a6.9,6.9,0,0,1-6.9-6.9V16.9A6.9,6.9,0,0,1,16.9,10H87.979a6.9,6.9,0,0,1,6.9,6.9V75.854a6.9,6.9,0,0,1-6.9,6.9H22.421Z" transform="translate(-8.275 -8.275)" fill="#fff"/>
      <path id="Trazado_111471" data-name="Trazado 111471" d="M87.979,10H16.9A6.9,6.9,0,0,0,10,16.9v5.521H94.88V16.9A6.9,6.9,0,0,0,87.979,10Z" transform="translate(-8.275 -8.275)" fill="#ff5a5a"/>
      <path id="Trazado_111472" data-name="Trazado 111472" d="M21,82H102.95" transform="translate(-17.38 -67.853)" fill="#231f20"/>
      <rect id="Rectángulo_6142" data-name="Rectángulo 6142" width="10.933" height="19.002" transform="translate(9.717 67.506)" fill="#a0a603"/>
      <rect id="Rectángulo_6143" data-name="Rectángulo 6143" width="11.193" height="23.428" transform="translate(48.243 63.08)" fill="#529ad9"/>
      <rect id="Rectángulo_6144" data-name="Rectángulo 6144" width="11.041" height="38.053" transform="translate(28.983 48.552)" fill="#fcd770"/>
      <rect id="Rectángulo_6145" data-name="Rectángulo 6145" width="11.041" height="40.628" transform="translate(67.628 45.977)" fill="#ff5a5a"/>
      <circle id="Elipse_4329" data-name="Elipse 4329" cx="4.486" cy="4.486" r="4.486" transform="translate(29.047 25.178)" fill="#fcd770"/>
      <circle id="Elipse_4330" data-name="Elipse 4330" cx="4.486" cy="4.486" r="4.486" transform="translate(49.18 45.718)" fill="#529ad9"/>
      <circle id="Elipse_4331" data-name="Elipse 4331" cx="4.486" cy="4.486" r="4.486" transform="translate(68.663 25.178)" fill="#ff5a5a"/>
      <circle id="Elipse_4332" data-name="Elipse 4332" cx="4.486" cy="4.486" r="4.486" transform="translate(10.582 44.067)" fill="#a0a603"/>
      <path id="Trazado_111473" data-name="Trazado 111473" d="M82.306,76a6.031,6.031,0,0,0,6.024-6.024V8.626A8.636,8.636,0,0,0,79.7,0H8.626A8.636,8.636,0,0,0,0,8.626V69.971A6.031,6.031,0,0,0,6.024,76H7.936V84.88H1.725a1.725,1.725,0,1,0,0,3.45H86.6a1.725,1.725,0,0,0,0-3.45H80.394V76ZM8.626,3.45H79.7A5.181,5.181,0,0,1,84.88,8.626v3.8H3.624c-.058,0-.116,0-.173.009v-3.8A5.181,5.181,0,0,1,8.626,3.45Zm2.76,81.429V69.353h7.591V84.88Zm19.322,0v-34.6H38.3v34.6Zm19.322,0V64.867h7.591V84.88Zm19.322,0V66.291a1.725,1.725,0,0,0-3.45,0V84.88H61.072V63.142a1.725,1.725,0,0,0-1.725-1.725H48.306a1.725,1.725,0,0,0-1.725,1.725V84.88H41.75V48.553a1.725,1.725,0,0,0-1.725-1.725H28.983a1.725,1.725,0,0,0-1.725,1.725V84.88H22.428V67.628A1.725,1.725,0,0,0,20.7,65.9H9.661a1.725,1.725,0,0,0-1.725,1.725v4.917H6.024A2.576,2.576,0,0,1,3.45,69.971V15.863c.057.006.115.009.173.009H84.88v54.1a2.576,2.576,0,0,1-2.573,2.574H80.394V45.976a1.725,1.725,0,0,0-1.725-1.725H67.628A1.725,1.725,0,0,0,65.9,45.976v8.712a1.725,1.725,0,0,0,3.45,0V47.7h7.591V84.88Z" fill="#3a3c07"/>
      <path id="Trazado_111474" data-name="Trazado 111474" d="M213.79,39.45h38.978a1.725,1.725,0,0,0,0-3.45H213.79a1.725,1.725,0,0,0,0,3.45Z" transform="translate(-175.48 -29.789)" fill="#3a3c07"/>
      <path id="Trazado_111475" data-name="Trazado 111475" d="M95.725,39.45a1.726,1.726,0,1,0-1.22-.506A1.738,1.738,0,0,0,95.725,39.45Z" transform="translate(-77.783 -29.789)" fill="#3a3c07"/>
      <path id="Trazado_111476" data-name="Trazado 111476" d="M55.725,39.45a1.726,1.726,0,1,0-1.22-.506A1.738,1.738,0,0,0,55.725,39.45Z" transform="translate(-44.684 -29.789)" fill="#3a3c07"/>
      <path id="Trazado_111477" data-name="Trazado 111477" d="M135.725,39.45a1.726,1.726,0,1,0-1.22-.506A1.738,1.738,0,0,0,135.725,39.45Z" transform="translate(-110.882 -29.789)" fill="#3a3c07"/>
      <path id="Trazado_111478" data-name="Trazado 111478" d="M383.725,342.64a1.726,1.726,0,1,0,1.22.505A1.732,1.732,0,0,0,383.725,342.64Z" transform="translate(-316.097 -283.528)" fill="#3a3c07"/>
      <path id="Trazado_111479" data-name="Trazado 111479" d="M115.628,148.36a6.22,6.22,0,1,0-5.025-2.567l-11.46,11.46a6.2,6.2,0,0,0-5.727-.14L81.45,145.147a6.211,6.211,0,1,0-10.718.267L60.544,155.6a6.216,6.216,0,1,0,2.44,2.44l10.309-10.309a6.2,6.2,0,0,0,5.716-.145l11.849,11.848a6.21,6.21,0,1,0,10.724.257l11.767-11.767A6.17,6.17,0,0,0,115.628,148.36Zm0-8.971a2.76,2.76,0,1,1-2.76,2.76A2.764,2.764,0,0,1,115.628,139.389ZM57.547,163.8a2.76,2.76,0,1,1,2.76-2.76A2.764,2.764,0,0,1,57.547,163.8Zm18.466-18.89a2.76,2.76,0,1,1,2.76-2.76A2.764,2.764,0,0,1,76.012,144.91Zm20.133,20.54a2.76,2.76,0,1,1,2.76-2.76A2.764,2.764,0,0,1,96.146,165.45Z" transform="translate(-42.479 -112.487)" fill="#3a3c07"/>
      <path id="Trazado_111480" data-name="Trazado 111480" d="M132.985,129.47a1.723,1.723,0,1,0-1.221-.505A1.741,1.741,0,0,0,132.985,129.47Z" transform="translate(-108.615 -104.279)" fill="#3a3c07"/>
      <path id="Trazado_111481" data-name="Trazado 111481" d="M47.725,129.471h8.281a1.725,1.725,0,0,0,0-3.45H47.725a1.725,1.725,0,1,0,0,3.45Z" transform="translate(-38.064 -104.28)" fill="#3a3c07"/>
      <path id="Trazado_111482" data-name="Trazado 111482" d="M56.006,177.471a1.725,1.725,0,0,0,0-3.45H47.725a1.725,1.725,0,1,0,0,3.45Z" transform="translate(-38.064 -143.999)" fill="#3a3c07"/>
    </g>
  </g>
</svg>
