<svg xmlns="http://www.w3.org/2000/svg" xmlns:xlink="http://www.w3.org/1999/xlink" width="1328" height="1097" viewBox="0 0 1328 1097">
  <defs>
    <clipPath id="clip-path">
      <rect id="Rectángulo_6135" data-name="Rectángulo 6135" width="1328" height="1097" rx="24.768" transform="translate(0 0.48)" fill="none"/>
    </clipPath>
  </defs>
  <g id="Grupo_61653" data-name="Grupo 61653" transform="translate(1075.4 -555.235)">
    <g id="Grupo_61652" data-name="Grupo 61652" transform="translate(-1075.4 554.756)" clip-path="url(#clip-path)">
      <g id="Grupo_61651" data-name="Grupo 61651" transform="translate(-173.63 321.264)">
        <g id="Grupo_61650" data-name="Grupo 61650" transform="translate(0 30.773)">
          <path id="Trazado_111411" data-name="Trazado 111411" d="M490.579,1339.8c11.087-61.867,13.238-126.344-3.37-186.963s-53.451-117.191-107.51-149.255c-98-58.129-222.557-25.12-330.709,10.75,8.829-71.68,14.222-154.259-36.372-205.8-42.6-43.4-111.075-48.446-171.106-38.734-80.078,12.956-155.937,48.432-218.6,99.883-69.56,57.109-163.63,70.62-247.164,37.122q-4.659-1.87-9.412-3.536c-57.03-19.975-124.354-14.948-172.9,21.034s-72.957,104.83-50.04,160.743c-77.3-29.058-168.417-56.99-238.1-12.673-57.692,36.69-78.7,111.23-81,179.562-3.451,102.1,26.606,204.332,81.815,290.186H418.287C453.059,1479.119,477.882,1410.669,490.579,1339.8Z" transform="translate(1175.977 -765.628)" fill="#e5ecff"/>
        </g>
        <path id="Trazado_111412" data-name="Trazado 111412" d="M-947.078,826.741c-19.57-28.143-45.049-52.246-65.71-64.76-76.246-46.187-147.963,28.638-121.405,106.956,13.5,39.816,46.952,70.034,83.61,90.616,29.614,16.626,67.4,27.794,96.606,10.437C-897.063,936.15-913.24,875.4-947.078,826.741Z" transform="translate(1202.23 -747.802)" fill="#e5ecff"/>
        <path id="Trazado_111413" data-name="Trazado 111413" d="M-238.7,926.33c27.925-11.2,53.208-27.967,67.5-42.794,52.745-54.72-2.1-126.876-75.443-118.7-37.284,4.157-69.216,26.422-93.141,53.016-19.326,21.483-35.114,50.651-24.36,77.741C-343.18,948.389-286.987,945.689-238.7,926.33Z" transform="translate(1763.109 -735.893)" fill="#e5ecff"/>
      </g>
    </g>
  </g>
</svg>
