<svg xmlns="http://www.w3.org/2000/svg" width="105" height="105" viewBox="0 0 105 105">
  <g id="Grupo_61461" data-name="Grupo 61461" transform="translate(-326 -504)">
    <rect id="Rectángulo_5987" data-name="Rectángulo 5987" width="105" height="105" transform="translate(326 504)" fill="none"/>
    <g id="precision" transform="translate(333 511.142)">
      <g id="Grupo_61478" data-name="Grupo 61478" transform="translate(9.953 9.953)">
        <path id="Trazado_111116" data-name="Trazado 111116" d="M91.547,56a35.547,35.547,0,1,0,35.547,35.547A35.546,35.546,0,0,0,91.547,56Z" transform="translate(-56 -56)" fill="#ef7385"/>
        <path id="Trazado_111117" data-name="Trazado 111117" d="M165.551,146A19.551,19.551,0,1,1,146,165.551,19.574,19.574,0,0,1,165.551,146Z" transform="translate(-130.004 -130.004)" fill="#f2f2fc"/>
      </g>
      <g id="Grupo_61479" data-name="Grupo 61479">
        <path id="Trazado_111120" data-name="Trazado 111120" d="M89.223,43.723H82.781a37.374,37.374,0,0,0-35.5-35.5V1.777a1.777,1.777,0,0,0-3.555,0V8.219a37.374,37.374,0,0,0-35.5,35.5H1.777a1.777,1.777,0,0,0,0,3.555H8.219a37.374,37.374,0,0,0,35.5,35.5v6.442a1.777,1.777,0,0,0,3.555,0V82.781a37.374,37.374,0,0,0,35.5-35.5h6.442a1.777,1.777,0,0,0,0-3.555Zm-10,0H66.753A21.362,21.362,0,0,0,47.277,24.247V11.777A33.817,33.817,0,0,1,79.223,43.723Zm-19.5,3.553h3.466A17.807,17.807,0,0,1,47.277,63.185V59.719a1.777,1.777,0,0,0-3.555,0v3.466A17.805,17.805,0,0,1,27.815,47.277h3.466a1.777,1.777,0,1,0,0-3.555H27.815A17.805,17.805,0,0,1,43.723,27.815v3.466a1.777,1.777,0,1,0,3.555,0V27.815A17.805,17.805,0,0,1,63.185,43.723H59.719a1.776,1.776,0,1,0,0,3.553Zm-16-35.5V24.247A21.362,21.362,0,0,0,24.247,43.723H11.777A33.817,33.817,0,0,1,43.723,11.777Zm-31.945,35.5H24.247A21.362,21.362,0,0,0,43.723,66.753V79.223A33.817,33.817,0,0,1,11.777,47.277Zm35.5,31.945V66.753A21.364,21.364,0,0,0,66.753,47.276H79.223A33.819,33.819,0,0,1,47.277,79.223Z" fill="#3a3c07"/>
        <path id="Trazado_111121" data-name="Trazado 111121" d="M222,213.109h-5.332v-5.332a1.777,1.777,0,0,0-3.555,0v5.332h-5.332a1.777,1.777,0,0,0,0,3.555h5.332V222a1.777,1.777,0,0,0,3.555,0v-5.332H222a1.777,1.777,0,0,0,0-3.555Z" transform="translate(-169.387 -169.387)" fill="#3a3c07"/>
      </g>
    </g>
  </g>
</svg>
