<svg xmlns="http://www.w3.org/2000/svg" width="105" height="105" viewBox="0 0 105 105">
  <g id="Grupo_61442" data-name="Grupo 61442" transform="translate(-326 -504)">
    <rect id="Rectángulo_5987" data-name="Rectángulo 5987" width="105" height="105" transform="translate(326 504)" fill="none"/>
    <g id="dislike" transform="translate(296.703 508.453)">
      <g id="Grupo_61531" data-name="Grupo 61531" transform="translate(41.547)">
        <g id="Grupo_61519" data-name="Grupo 61519" transform="translate(1.408 41.802)">
          <path id="Trazado_111180" data-name="Trazado 111180" d="M91.73,230.729h-.25v-7.963H53.514v7.963h-.25a4.216,4.216,0,1,0,0,8.433h.25v.135a13.7,13.7,0,0,0,13.7,13.7H77.777a13.7,13.7,0,0,0,13.7-13.7v-.135h.25a4.216,4.216,0,0,0,0-8.433Z" transform="translate(-49.048 -222.766)" fill="#fed2a4"/>
        </g>
        <g id="Grupo_61521" data-name="Grupo 61521" transform="translate(13.555 72.036)">
          <path id="Trazado_111182" data-name="Trazado 111182" d="M136.385,406.54V396.132a7.437,7.437,0,0,0-6.391-7.363c-1.54-.217-1.561-.17-1.561-1.783v-3.1h-6.7v3.1c0,1.613-.021,1.566-1.561,1.783a7.437,7.437,0,0,0-6.391,7.363V406.54Z" transform="translate(-113.781 -383.89)" fill="#fed2a4"/>
        </g>
        <g id="Grupo_61522" data-name="Grupo 61522" transform="translate(13.555 76.44)">
          <path id="Trazado_111183" data-name="Trazado 111183" d="M136.386,415.195V425.6h-22.6V415.195a7.437,7.437,0,0,1,6.39-7.363c.882-.123,1.267-.162,1.431-.475a4.382,4.382,0,0,0,1.521,1.117,4.764,4.764,0,0,0,3.92,0,4.381,4.381,0,0,0,1.521-1.117c.164.312.549.351,1.431.475a7.437,7.437,0,0,1,6.39,7.363Z" transform="translate(-113.783 -407.357)" fill="#f4d902"/>
        </g>
        <g id="Grupo_61524" data-name="Grupo 61524" transform="translate(5.859 22.469)">
          <path id="Trazado_111185" data-name="Trazado 111185" d="M110.7,135.4a15.826,15.826,0,0,0-15.814-15.653H88.6a15.826,15.826,0,0,0-15.814,15.652c-.038,3.312,0,20.211,0,20.211a29.739,29.739,0,0,0,4.551-12.5,1.193,1.193,0,0,1,1.51-1.02,104.191,104.191,0,0,0,26.9,3.106,1.054,1.054,0,0,1,1.032.8,37.909,37.909,0,0,0,3.924,9.615S110.7,135.4,110.7,135.4Z" transform="translate(-72.769 -119.742)" fill="#3e5959"/>
        </g>
        <g id="Grupo_61530" data-name="Grupo 61530" transform="translate(0)">
          <g id="Grupo_61525" data-name="Grupo 61525" transform="translate(37.437 1.407)">
            <path id="Trazado_111186" data-name="Trazado 111186" d="M261.864,7.5A20.829,20.829,0,0,0,245.1,40.664a1.45,1.45,0,0,1,.211,1.327l-1.843,5.419a1.456,1.456,0,0,0,1.832,1.853l6.612-2.165a1.459,1.459,0,0,1,1.077.069A20.83,20.83,0,1,0,261.864,7.5Z" transform="translate(-241.051 -7.5)" fill="#e94444"/>
          </g>
          <g id="Grupo_61527" data-name="Grupo 61527" transform="translate(47.211 11.178)">
            <path id="Trazado_111188" data-name="Trazado 111188" d="M311.023,71.572l-.926-.926,4.071-3.988a4.155,4.155,0,1,0-5.875-5.875l-4.029,4.029-4.029-4.029a4.155,4.155,0,0,0-5.875,5.875l4.071,3.988-.926.926-3.17,3.161a4.056,4.056,0,0,0,5.7,5.769l4.228-4.141,4.228,4.141a4.056,4.056,0,0,0,5.7-5.769Z" transform="translate(-293.142 -59.566)" fill="#e2e2e2"/>
          </g>
          <g id="Grupo_61529" data-name="Grupo 61529">
            <path id="Trazado_111193" data-name="Trazado 111193" d="M115.532,6.51A22.09,22.09,0,0,0,99.812,0H99.8A22.264,22.264,0,0,0,77.576,22.237c0,.278.006.556.016.833a17.108,17.108,0,0,0-8.071-2.007H63.238A17.233,17.233,0,0,0,46.016,38.106C46,39.64,46,44.124,46,48.481a5.624,5.624,0,0,0,.058,11.014A15.132,15.132,0,0,0,61.124,73.444h.522s0,1.911,0,2.028a9.448,9.448,0,0,0-4.276,1.63,8.871,8.871,0,0,0-3.674,7.176V94.686A1.407,1.407,0,0,0,55.1,96.094h22.6a1.407,1.407,0,0,0,1.407-1.407v-3.3a1.407,1.407,0,1,0-2.815,0v1.893H72.247V90.285l.737-.6a1.407,1.407,0,0,0-1.77-2.189l-1.259,1.018a1.407,1.407,0,0,0-.523,1.095v3.666H63.376V89.613a1.407,1.407,0,0,0-.523-1.095L61.594,87.5a1.407,1.407,0,0,0-1.77,2.189l.737.6v2.994H56.509v-9a6.049,6.049,0,0,1,2.506-4.893,5.951,5.951,0,0,1,2.806-1.095c.314-.044.6-.085.874-.147a5.977,5.977,0,0,0,1.167.7,6.146,6.146,0,0,0,5.082,0,6,6,0,0,0,1.169-.7c.269.062.559.1.874.147a6.257,6.257,0,0,1,2.806,1.095A6.05,6.05,0,0,1,76.3,84.278v.652a1.407,1.407,0,0,0,2.815,0v-.652A8.872,8.872,0,0,0,75.438,77.1a9.05,9.05,0,0,0-4.063-1.6l-.213-.03c0-.118,0-2.028,0-2.028h.522A15.132,15.132,0,0,0,86.749,59.495a5.625,5.625,0,0,0,.044-11.017l-.025-4.985,3.509-1.149a.052.052,0,0,1,.038,0,22.043,22.043,0,0,0,9.321,2.124h.175A22.237,22.237,0,0,0,115.532,6.51ZM44.362,53.981A2.811,2.811,0,0,1,46,51.43c0,2.021.005,3.842.008,5.106A2.81,2.81,0,0,1,44.362,53.981Zm4.452-6.14c0-4.139,0-8.253.016-9.7A14.419,14.419,0,0,1,63.238,23.877h6.284a14.284,14.284,0,0,1,8.492,2.778,22.042,22.042,0,0,0,3.882,8.75.05.05,0,0,1,.012.04l-1.843,5.419a2.866,2.866,0,0,0,2.7,3.788,2.879,2.879,0,0,0,.9-.144l.263-.086c0,2.331,0,5.039,0,7.64a33.406,33.406,0,0,1-1.15-3.682,2.454,2.454,0,0,0-2.39-1.872h-.019c-9.476.068-19.39-1.072-26.514-3.054a2.6,2.6,0,0,0-3.287,2.234,25.737,25.737,0,0,1-1.753,6.868c0-.831.01-4.717.01-4.717ZM67.781,76.276a3.379,3.379,0,0,1-2.758,0,3.2,3.2,0,0,1-.577-.334c.014-.249.014-2.5.014-2.5h3.886s0,2.248.014,2.5A3.224,3.224,0,0,1,67.781,76.276Zm3.9-5.647H61.124a12.308,12.308,0,0,1-12.285-11.89,31.127,31.127,0,0,0,4.505-12.507,106.137,106.137,0,0,0,26.772,3.093,39.577,39.577,0,0,0,3.852,9.457A12.309,12.309,0,0,1,71.683,70.629ZM88.446,53.981a2.813,2.813,0,0,1-1.7,2.58V51.4A2.813,2.813,0,0,1,88.446,53.981Zm25.03-17.973A19.392,19.392,0,0,1,91.52,39.8a2.854,2.854,0,0,0-2.117-.134l-6.612,2.165c-.021.007-.029.009-.05-.012s-.019-.029-.012-.05l1.843-5.419a2.861,2.861,0,0,0-.41-2.615A19.421,19.421,0,0,1,99.8,2.815h.014a19.4,19.4,0,0,1,13.664,33.194Z" transform="translate(-41.547)" fill="#3a3c07"/>
            <path id="Trazado_111194" data-name="Trazado 111194" d="M310.679,57.64a5.562,5.562,0,0,0-9.495-3.933l-3.034,3.034-3.034-3.034a5.563,5.563,0,0,0-9.2,5.716,1.407,1.407,0,1,0,2.667-.9,2.748,2.748,0,0,1,4.545-2.825l4.029,4.029a1.408,1.408,0,0,0,1.991,0l4.029-4.029a2.747,2.747,0,0,1,4.69,1.943,2.72,2.72,0,0,1-.794,1.932L303,63.559a1.407,1.407,0,0,0-.01,2l4.1,4.088a2.648,2.648,0,0,1-3.723,3.767l-4.228-4.141a1.407,1.407,0,0,0-1.97,0l-4.228,4.141a2.648,2.648,0,0,1-3.723-3.767l4.1-4.088a1.407,1.407,0,0,0-.01-2l-1.2-1.175a1.407,1.407,0,0,0-1.97,2.011l.183.18-3.089,3.08a5.463,5.463,0,0,0,7.68,7.771l3.243-3.177,3.243,3.177a5.463,5.463,0,0,0,7.68-7.771l-3.089-3.08,3.065-3a5.523,5.523,0,0,0,1.629-3.932Z" transform="translate(-239.817 -42.308)" fill="#3a3c07"/>
          </g>
        </g>
      </g>
      <path id="Trazado_111218" data-name="Trazado 111218" d="M34.581,33A7.581,7.581,0,0,0,27,40.581h3.032a4.549,4.549,0,0,1,9.1,0h3.032A7.581,7.581,0,0,0,34.581,33Z" transform="translate(32.216 25.563)" fill="#3a3c07"/>
    </g>
  </g>
</svg>
