<svg xmlns="http://www.w3.org/2000/svg" width="399" height="264" viewBox="0 0 399 264">
  <g id="Grupo_61741" data-name="Grupo 61741" transform="translate(-1021 -1066)">
    <rect id="Rectángulo_5988" data-name="Rectángulo 5988" width="399" height="193" rx="10" transform="translate(1021 1137)" fill="#a0a603" opacity="0.25"/>
    <g id="Grupo_61304" data-name="Grupo 61304" transform="translate(4 -108)">
      <rect id="Rectángulo_6001" data-name="Rectángulo 6001" width="252" height="252" transform="translate(1080 1174)" fill="none"/>
      <g id="Grupo_61302" data-name="Grupo 61302" transform="translate(1416.742 998.018)">
        <path id="Trazado_110822" data-name="Trazado 110822" d="M-98.311,316.44h-7.247c.094-1.585.14-3.152.14-4.693a82.421,82.421,0,0,0-2.324-19.458h2.594a11.961,11.961,0,0,0,12.03-11.726c.137-5.42.4-15.5.641-22.137a11.92,11.92,0,0,0-3.36-8.782,11.937,11.937,0,0,0-8.667-3.681h-33.582q-1.031-.787-2.079-1.535a17.064,17.064,0,0,0,.731-1.973,15.058,15.058,0,0,0-.878-11.312,11.753,11.753,0,0,0-2.673-3.342,16.426,16.426,0,0,0,1.007-8.022,15.728,15.728,0,0,0-10.09-12.713,18.019,18.019,0,0,0-6.109-1.123,14.011,14.011,0,0,0-3.382.4,13.53,13.53,0,0,0-3.893-2.94,13.671,13.671,0,0,0-6.092-1.426,13.691,13.691,0,0,0-5.606,1.2,15.632,15.632,0,0,0-5.892,4.8l-.3-.078a38.177,38.177,0,0,0-9.369-1.124,48.353,48.353,0,0,0-5.836.368,37.18,37.18,0,0,0-6.275.8,14.121,14.121,0,0,0-4.276,1.7,11.863,11.863,0,0,0-4.64,4.209c-.275.138-.537.282-.788.426a11.093,11.093,0,0,0-10.705-8.26h-57.646A11.1,11.1,0,0,0-293.96,217.1v9.613c-4.716-3.009-8.5-8.54-10.349-11.611a9.952,9.952,0,0,0-1.9-2.292,10.093,10.093,0,0,0-2.037-1.431,10.247,10.247,0,0,0-4.812-1.207,9.987,9.987,0,0,0-6.711,2.577c-6.623,5.954-10.054,16.22-13.447,30.856-2.258,9.76-2.012,17.688.728,23.554a9.995,9.995,0,0,0,4.359,4.64,9.568,9.568,0,0,0,2.811,1.017,10.039,10.039,0,0,0,2.127.228,10.39,10.39,0,0,0,3.328-.554c3.464-1.182,8.229-1.781,14.161-1.781a144.235,144.235,0,0,1,21.359,1.876,10.148,10.148,0,0,0-1.207,2.029c-.114.049-.23.1-.345.154a9.607,9.607,0,0,0-4.732,5.013c-4.113,3.641-3.463,11.122-2.084,17.013a5.759,5.759,0,0,0,.377,1.108l.816,6.826a5.588,5.588,0,0,0-.338,1.263c-.671,4.638-6.234,45.715,4.8,59.725a13.789,13.789,0,0,0,9.254,5.416c5.689,18.7,22.532,31.853,41.555,31.853.461,0,.918-.014,1.418-.034.471.018.942.034,1.418.034a42.276,42.276,0,0,0,27.545-10.28h1.349a83.124,83.124,0,0,0,16.489,1.656,83.165,83.165,0,0,0,13.379-1.087,5.529,5.529,0,0,0,3.4,1.165h79.413a5.555,5.555,0,0,0,5.555-5.555V328.475A12.048,12.048,0,0,0-98.311,316.44Z" fill="#fff"/>
        <g id="Grupo_61301" data-name="Grupo 61301" transform="translate(-328.942 206.354)">
          <path id="Trazado_110823" data-name="Trazado 110823" d="M-107.932,311.836a76.583,76.583,0,0,1-12.489,42.058A77.233,77.233,0,0,1-142.927,376.4c-1.222.806-2.472,1.565-3.74,2.3l-.138.084a76.586,76.586,0,0,1-22.229,8.453,77.408,77.408,0,0,1-15.951,1.656,77.415,77.415,0,0,1-15.951-1.656,76.627,76.627,0,0,1-25-10.11l-.3-.194a77.6,77.6,0,0,1-19.275-17.395,76.718,76.718,0,0,1-15.015-32.421,76.876,76.876,0,0,1-1.519-15.276,76.642,76.642,0,0,1,8.721-35.624,76.374,76.374,0,0,1,9-13.525v-.01c.112-.138.222-.277.352-.416l.01-.01q2.346-2.8,4.97-5.378a2.257,2.257,0,0,1,.269-.25c1.222-1.2,2.472-2.352,3.777-3.463h.009a76.83,76.83,0,0,1,19.71-12.219c.334-.148.666-.287,1.009-.426h.009a76.441,76.441,0,0,1,19.516-5.129,76.446,76.446,0,0,1,9.711-.611,76.815,76.815,0,0,1,12.887,1.083c1.278.2,2.546.454,3.8.732.186.037.37.084.556.12.972.222,1.934.463,2.888.732a76.675,76.675,0,0,1,20.062,8.628A77.028,77.028,0,0,1-107.932,311.836Z" transform="translate(326.136 -207.62)" fill="#b7b8fb"/>
          <g id="Grupo_61287" data-name="Grupo 61287">
            <g id="Grupo_61276" data-name="Grupo 61276" transform="translate(107.872)">
              <path id="Trazado_110824" data-name="Trazado 110824" d="M-204.4,216.267a6.357,6.357,0,0,1,3.9-2.977c6.768-1.757,13.863-2.526,20.6-.816,7.814,1.982,15.012,7.9,16.63,15.8a30.111,30.111,0,0,1,.066,9.325,2.236,2.236,0,0,0,.116,1.308,2.427,2.427,0,0,0,1.233.892c4.995,2.291,8.2,7.652,8.661,13.128s-1.56,10.967-4.8,15.407A21.391,21.391,0,0,1-165.5,275a24.093,24.093,0,0,1-6.311,1.988,60.354,60.354,0,0,1-10.376.994c-7.136.111-14.823.44-21.363-2.7a23.456,23.456,0,0,1-12.387-16.006,27.256,27.256,0,0,1,3.733-20.082c.161-.255-1.659-4.679-1.772-5.387a15.861,15.861,0,0,1,2.08-10.476,14.7,14.7,0,0,1,3.633-4.195c.461-.347,3.132-2.1,3.641-1.567C-204.907,217.269-204.7,216.785-204.4,216.267Z" transform="translate(216.507 -206.722)" fill="#0b0a10"/>
              <path id="Trazado_110825" data-name="Trazado 110825" d="M-173.391,212.171a11.653,11.653,0,0,1,5-4.937,8.167,8.167,0,0,1,6.92.134,8.168,8.168,0,0,1,4.254,5.46c2.388-2.778,6.286-2.784,9.731-1.542a10.248,10.248,0,0,1,6.465,8.2,11.358,11.358,0,0,1-3.842,9.824,6.629,6.629,0,0,1,6.11,3.426,9.478,9.478,0,0,1,.465,7.109,12.582,12.582,0,0,1-7.69,8.085c-4.4,1.57-9.451.487-13.365-2.063a28.391,28.391,0,0,1-9.036-10.52C-171.844,228.962-172.995,219.426-173.391,212.171Z" transform="translate(214.843 -206.53)" fill="#0b0a10"/>
              <g id="Grupo_61268" data-name="Grupo 61268" transform="translate(17.806 51.017)">
                <path id="Trazado_110826" data-name="Trazado 110826" d="M-197.986,271.794v13.823l25.254-.128,3.023-25.894Z" transform="translate(197.986 -259.595)" fill="#ffa4d0"/>
                <path id="Trazado_110827" data-name="Trazado 110827" d="M-197.986,275.067v7.156a21.3,21.3,0,0,0,8.861-.214c8.17-2.022,15.044-7.207,16.58-15.9A54.8,54.8,0,0,1-197.986,275.067Z" transform="translate(197.986 -259.846)" fill="#0b0a10"/>
              </g>
              <g id="Grupo_61275" data-name="Grupo 61275" transform="translate(3.009 5.109)">
                <g id="Grupo_61274" data-name="Grupo 61274" transform="translate(0 1.169)">
                  <path id="Trazado_110828" data-name="Trazado 110828" d="M-205.176,272.7c11.667,7.119,29.487,3.742,33.879-11.105a137.161,137.161,0,0,0,3.643-15.2c.374-2.147.581-3.821.709-5.012a23.8,23.8,0,0,0,.542-4.982,23.4,23.4,0,0,0-23.463-23.334,23.417,23.417,0,0,0-14.167,4.736,23.474,23.474,0,0,0-7.633,9.952c-1.81,4.515-1.646,9.246-1.692,14.008-.036,3.564-.048,7.11.24,10.669.506,6.252,1.448,14.221,6.168,18.87A9.777,9.777,0,0,0-205.176,272.7Z" transform="translate(213.377 -213.06)" fill="#ffa4d0"/>
                  <g id="Grupo_61270" data-name="Grupo 61270" transform="translate(3.696 33.402)">
                    <ellipse id="Elipse_4291" data-name="Elipse 4291" cx="1.797" cy="2.074" rx="1.797" ry="2.074" transform="translate(16.393 0.532)" fill="#0b0a10"/>
                    <path id="Trazado_110829" data-name="Trazado 110829" d="M-209.533,249.877a1.951,1.951,0,0,0,1.8,2.074,1.951,1.951,0,0,0,1.8-2.074,1.951,1.951,0,0,0-1.8-2.074A1.951,1.951,0,0,0-209.533,249.877Z" transform="translate(209.533 -247.803)" fill="#0b0a10"/>
                    <g id="Grupo_61269" data-name="Grupo 61269" transform="translate(6.084 13.439)">
                      <path id="Trazado_110830" data-name="Trazado 110830" d="M-203.205,262.74c.5,1.054,1.26,2.242,2.429,2.065,1.278-.192,1.707-1.793,2.009-3.024Z" transform="translate(203.205 -261.781)" fill="#fff"/>
                    </g>
                  </g>
                  <path id="Trazado_110831" data-name="Trazado 110831" d="M-202.649,245.185a32.648,32.648,0,0,1-.921,8.254,3.274,3.274,0,0,1-.536,1.3c-.291.366-.723.6-1,.982a2.144,2.144,0,0,0,.06,2.329,6.3,6.3,0,0,0,1.781,1.69" transform="translate(213.07 -214.3)" fill="none" stroke="#0b0a10" stroke-linecap="round" stroke-linejoin="round" stroke-width="0.512"/>
                  <g id="Grupo_61271" data-name="Grupo 61271" transform="translate(2.846 27.759)">
                    <path id="Trazado_110832" data-name="Trazado 110832" d="M-190.371,244.958c2.8-.2,1.092-3.358-.98-2.995-.735.129-1.959,1.057-1.937,1.894C-193.259,244.963-191.2,245.017-190.371,244.958Z" transform="translate(209.755 -241.934)" fill="#0b0a10"/>
                    <path id="Trazado_110833" data-name="Trazado 110833" d="M-208.949,245.2c-2.8-.2-1.092-3.358.98-3,.735.13,1.959,1.058,1.937,1.895C-206.061,245.209-208.121,245.263-208.949,245.2Z" transform="translate(210.416 -241.943)" fill="#0b0a10"/>
                  </g>
                  <g id="Grupo_61273" data-name="Grupo 61273" transform="translate(38.521 29.86)">
                    <g id="Grupo_61272" data-name="Grupo 61272">
                      <path id="Trazado_110834" data-name="Trazado 110834" d="M-163.589,244.2a6.13,6.13,0,0,1,4.4,3.391,8.412,8.412,0,0,1,.5,5.636,10.587,10.587,0,0,1-9.334,7.868,5.444,5.444,0,0,1-3.185-.615,4.768,4.768,0,0,1-2.079-3.713,10.712,10.712,0,0,1,.734-4.323C-171.192,248.49-168.751,243.4-163.589,244.2Z" transform="translate(173.31 -244.118)" fill="#ffa4d0"/>
                    </g>
                    <path id="Trazado_110835" data-name="Trazado 110835" d="M-162.991,250.366a6.15,6.15,0,0,0-2.774,1.738,18.33,18.33,0,0,0-2,2.635" transform="translate(173.096 -244.359)" fill="none" stroke="#0b0a10" stroke-linecap="round" stroke-linejoin="round" stroke-width="0.55"/>
                  </g>
                </g>
                <path id="Trazado_110836" data-name="Trazado 110836" d="M-198.393,212.568a8.357,8.357,0,0,0-6.644,8.556,15.851,15.851,0,0,0,.793,4.128,11.941,11.941,0,0,0,3.065,5.063,9.035,9.035,0,0,0,8.6,1.963,15.242,15.242,0,0,0,7.9,13.693c4.878,2.668,12.865,2.013,17.021-1.681,2.009-1.784,2.029-4.322,2.108-6.986a24.812,24.812,0,0,0-1.4-9.076,23.79,23.79,0,0,0-6.716-10.474,25.749,25.749,0,0,0-7.485-4.062A30.959,30.959,0,0,0-198.393,212.568Z" transform="translate(213.056 -211.844)" fill="#0b0a10"/>
              </g>
            </g>
            <path id="Trazado_110837" data-name="Trazado 110837" d="M-115.951,388.91h-24.265l-1.278-10.832-1.88-15.877-1.648,11.109-.351,7.147A76.586,76.586,0,0,1-167.6,388.91h-31.9a76.627,76.627,0,0,1-25-10.11l-.129-26.051-.056-11.349-.1-15.248-.13-20.44.426-.343c1.24-.972,5.055-3.944,9.545-7.174,4.981-3.574,10.8-7.462,14.849-9.267l.824-8.333s.084.084.25.232a12.069,12.069,0,0,0,3.851,2.222l.01.01a14.456,14.456,0,0,0,6.879.666,45.109,45.109,0,0,0,11.275-3.472c2.453-1.074,4.092-1.962,4.092-1.962l.046.148.371,1.194,2.184,6.934a74.046,74.046,0,0,1,14.766,6.129,68.22,68.22,0,0,1,8.5,5.434,50.183,50.183,0,0,1,10.063,9.943c8.239,11.054,14.645,28.089,18,47.5a179.513,179.513,0,0,1,2.564,26.245Z" transform="translate(324.703 -209.299)" fill="#529ad9"/>
            <path id="Trazado_110838" data-name="Trazado 110838" d="M-227.281,306.8l-35.691,24.11-2.364-24.346-18.909,3.073s-8.273,57.2,9.454,58.855,54.365-17.964,54.365-17.964Z" transform="translate(327.068 -210.39)" fill="#529ad9"/>
            <g id="Grupo_61279" data-name="Grupo 61279" transform="translate(99.9 83.396)">
              <path id="Trazado_110839" data-name="Trazado 110839" d="M-145.017,373.889l-.212,7.063-.138.084a76.586,76.586,0,0,1-22.229,8.453,77.408,77.408,0,0,1-15.951,1.656,77.415,77.415,0,0,1-15.951-1.656,76.627,76.627,0,0,1-25-10.11l-.3-.194.083-25.81.038-11.4-.1-15.248.26-17.96v-.018l.037-2.805c1.24-.972,5.055-3.944,9.545-7.174l.658,20.385a24.2,24.2,0,0,0,26.717,23.293c.278-.028.564-.064.852-.092A24.065,24.065,0,0,0-166,322.906c1.852-9.619,5.092-21.792,10.461-29.633a68.22,68.22,0,0,1,8.5,5.434c-2.787,6.731-9.064,23.487-9.795,39.253C-157.782,358.29-145.017,373.889-145.017,373.889Z" transform="translate(224.799 -293.273)" fill="#a0a603"/>
              <g id="Grupo_61278" data-name="Grupo 61278" transform="translate(3.747 47.683)">
                <g id="Grupo_61277" data-name="Grupo 61277">
                  <path id="Trazado_110840" data-name="Trazado 110840" d="M-215.859,345.392a2.521,2.521,0,0,1-2.521,2.521,2.521,2.521,0,0,1-2.522-2.521,2.521,2.521,0,0,1,2.522-2.522A2.521,2.521,0,0,1-215.859,345.392Z" transform="translate(220.902 -342.87)" fill="none" stroke="#faf0e3" stroke-miterlimit="10" stroke-width="0.241"/>
                  <path id="Trazado_110841" data-name="Trazado 110841" d="M-158.492,345.392a2.522,2.522,0,0,1-2.522,2.521,2.521,2.521,0,0,1-2.521-2.521,2.521,2.521,0,0,1,2.521-2.522A2.522,2.522,0,0,1-158.492,345.392Z" transform="translate(218.688 -342.87)" fill="none" stroke="#faf0e3" stroke-miterlimit="10" stroke-width="0.241"/>
                </g>
                <path id="Trazado_110842" data-name="Trazado 110842" d="M-209.6,350.738h41.758s1.418,21.431-20.327,21.431C-212.275,372.169-209.6,350.738-209.6,350.738Z" transform="translate(220.469 -343.174)" fill="none" stroke="#faf0e3" stroke-miterlimit="10" stroke-width="0.241"/>
              </g>
            </g>
            <g id="Grupo_61286" data-name="Grupo 61286" transform="translate(0 8.19)">
              <path id="Trazado_110843" data-name="Trazado 110843" d="M-283.483,308.651l-1.3-10.874,18.791-11.819s5.673-11.581,7.564-11.109-.828,13.828-2.364,17.727-4.845,13.355-4.845,13.355Z" transform="translate(327.014 -217.356)" fill="#ffa4d0"/>
              <path id="Trazado_110844" data-name="Trazado 110844" d="M-264.948,266.428s-16.987,25.87-16.3,26.773,6.964,5.242,9.274,4.305,14.91-27.474,14.91-27.474Z" transform="translate(326.878 -217.031)" fill="#faf0e3"/>
              <g id="Grupo_61284" data-name="Grupo 61284">
                <path id="Trazado_110845" data-name="Trazado 110845" d="M-233.412,257.575c-.314,6.3-4.258,22.533-9.933,22.376-5.1-.138-19.82-8.73-31.319-11.924-1.259-.352-2.49-.638-3.657-.842-10.849-1.88-30.976-4.684-42.863-.63a4.639,4.639,0,0,1-2.554.139,4.037,4.037,0,0,1-1.25-.444,4.543,4.543,0,0,1-1.99-2.111c-1.574-3.37-2.777-9.479-.352-19.96,3.128-13.507,6.258-23.042,11.747-27.977a4.529,4.529,0,0,1,5.194-.6,4.607,4.607,0,0,1,.935.658,4.51,4.51,0,0,1,.86,1.037c2.435,4.036,6.787,10.165,12.461,13.645,7.407,4.546,19.081,9.415,30.986,13.452,2.546.86,5.1,1.684,7.629,2.462C-243.188,251.27-233.1,251.27-233.412,257.575Z" transform="translate(328.709 -215.048)" fill="#faf0e3"/>
                <path id="Trazado_110846" data-name="Trazado 110846" d="M-310.594,228.838c-.175,1.741-.37,3.481-.62,5.2a72.663,72.663,0,0,1-2.4,11.4c-.75,2.406-1.648,4.758-2.61,7.073-.287.7-.584,1.4-.889,2.092-1.333,3.074-3.546,9.2-6.628,12.091a4.037,4.037,0,0,1-1.25-.444,4.543,4.543,0,0,1-1.99-2.111c-1.574-3.37-2.777-9.479-.352-19.96,3.128-13.507,6.258-23.042,11.747-27.977a4.529,4.529,0,0,1,5.194-.6A61.428,61.428,0,0,1-310.594,228.838Z" transform="translate(328.709 -215.048)" fill="#b7b8fb"/>
                <g id="Grupo_61282" data-name="Grupo 61282" transform="translate(54.045 29.344)">
                  <g id="Grupo_61280" data-name="Grupo 61280" transform="translate(37.022 17.228)">
                    <path id="Trazado_110847" data-name="Trazado 110847" d="M-225.3,271.544a5.41,5.41,0,0,1-3.684,3.277,6.711,6.711,0,0,1-2.352.213,8.46,8.46,0,0,1-2.648-.676c.37-4.055,2.1-7.009,3.378-10.869l.491.166a8.375,8.375,0,0,1,3.906,2.8A5.607,5.607,0,0,1-225.3,271.544Z" transform="translate(233.987 -263.49)" fill="#529ad9"/>
                    <path id="Trazado_110848" data-name="Trazado 110848" d="M-231.339,275.035a8.46,8.46,0,0,1-2.648-.676c.37-4.055,2.1-7.009,3.378-10.869l.491.166A36.312,36.312,0,0,1-231.339,275.035Z" transform="translate(233.987 -263.49)" fill="#b7b8fb" opacity="0.46"/>
                  </g>
                  <path id="Trazado_110849" data-name="Trazado 110849" d="M-231.243,258.753c-.314,6.3-4.258,22.533-9.933,22.376-1.583-.037-4.1-.9-7.156-2.157-.065-.028-.139-.055-.213-.092-.8-.324-1.63-.686-2.49-1.064-.065-.028-.139-.056-.213-.093-6.415-2.8-14.4-6.619-21.246-8.517a20.977,20.977,0,0,0,4.184-5.526,43.523,43.523,0,0,0,5.333-18.108c2.546.86,5.1,1.684,7.629,2.462,4.878,1.509,9.266,2.5,12.923,3.4l.222.056c1.213.306,2.342.592,3.37.9a1.931,1.931,0,0,1,.222.064C-233.835,253.837-231.076,255.411-231.243,258.753Z" transform="translate(272.495 -245.57)" fill="#529ad9"/>
                  <g id="Grupo_61281" data-name="Grupo 61281" transform="translate(21.246 5.86)">
                    <path id="Trazado_110850" data-name="Trazado 110850" d="M-237.651,252.721a53.343,53.343,0,0,1-5.3,19.766,27.724,27.724,0,0,1-4.424,6.758c-.065-.028-.139-.055-.213-.092a27.991,27.991,0,0,0,4.435-6.767,53.135,53.135,0,0,0,5.276-19.728A1.931,1.931,0,0,1-237.651,252.721Z" transform="translate(250.287 -251.703)" fill="#faf0e3"/>
                    <path id="Trazado_110851" data-name="Trazado 110851" d="M-241.351,251.721a62.832,62.832,0,0,1-8.831,26.329c-.065-.028-.139-.056-.213-.093a62.522,62.522,0,0,0,8.823-26.292Z" transform="translate(250.396 -251.665)" fill="#faf0e3"/>
                  </g>
                </g>
                <g id="Grupo_61283" data-name="Grupo 61283" transform="translate(7.186 18.993)">
                  <path id="Trazado_110852" data-name="Trazado 110852" d="M-310.926,234.8c-.138,1.046-.3,2.083-.481,3.12a65.839,65.839,0,0,1-1.917,8.277c-.75,2.406-1.648,4.758-2.61,7.073-.324-.269-.741-.63-1.2-1.056-1.86-1.722-4.37-4.49-4.073-6.647.472-3.388,2.13-8.906,3.777-9.767C-316.369,235.24-313.11,234.952-310.926,234.8Z" transform="translate(321.235 -234.804)" fill="#fff"/>
                  <path id="Trazado_110853" data-name="Trazado 110853" d="M-311.242,238.049a65.839,65.839,0,0,1-1.917,8.277c-.75,2.406-1.648,4.758-2.61,7.073-.324-.269-.741-.63-1.2-1.056A64.576,64.576,0,0,0-311.242,238.049Z" transform="translate(321.07 -234.929)" fill="#b7b8fb" opacity="0.32"/>
                </g>
              </g>
              <g id="Grupo_61285" data-name="Grupo 61285" transform="translate(41.117 55.397)">
                <path id="Trazado_110854" data-name="Trazado 110854" d="M-274.366,276.3s.945-4.491,4.55-3.486c3.379.942,5.564,9,4.12,12.438a1.8,1.8,0,0,1-.968.939,2.914,2.914,0,0,1-1.557.273s.3,2.6-1.358,3.191-2.009.237-2.009.237.945,3.073-.886,4.2a4.474,4.474,0,0,1-2.954.886s.709,2.128-1,2.423-4.491-2.128-4.491-2.128l-3.9,2.423s-3.014-11.346,1.123-12.7c0,0,.65-4.2,4.845-4.137C-278.857,280.853-278.621,276.125-274.366,276.3Z" transform="translate(285.939 -272.67)" fill="#ffa4d0"/>
                <path id="Trazado_110855" data-name="Trazado 110855" d="M-273.9,276.3s.453-3.584,3.683-3.584,4.648,4.57,5,6.421,1.773,7.327-2.541,7.327" transform="translate(285.477 -272.672)" fill="none" stroke="#0b0a10" stroke-linecap="round" stroke-linejoin="round" stroke-width="0.241"/>
                <path id="Trazado_110856" data-name="Trazado 110856" d="M-278.575,281s.216-3.21,2.147-4.077,3.27-.473,4.412,1.063a29.351,29.351,0,0,1,2.566,4.564c.868,1.754,2.418,4.843.865,6.619a3.26,3.26,0,0,1-2.722.872" transform="translate(285.657 -272.816)" fill="none" stroke="#0b0a10" stroke-linecap="round" stroke-linejoin="round" stroke-width="0.241"/>
                <path id="Trazado_110857" data-name="Trazado 110857" d="M-283.615,285.319s.335-2.62,2.3-3.526,3.427-.787,4.806.591a22.231,22.231,0,0,1,4.333,5.869,11.346,11.346,0,0,1,.819,3.532,3.27,3.27,0,0,1-.749,2.572,3.557,3.557,0,0,1-3.025.83" transform="translate(285.852 -272.999)" fill="none" stroke="#0b0a10" stroke-linecap="round" stroke-linejoin="round" stroke-width="0.241"/>
                <path id="Trazado_110858" data-name="Trazado 110858" d="M-285.064,297.556s-2.364-10.046.67-11.74,5.83,2.718,6.5,3.782,2.915,5.278,2.639,6.854-1.733,2.049-4.412-.039a12,12,0,0,1-3.427-3.663" transform="translate(285.941 -273.162)" fill="none" stroke="#0b0a10" stroke-linecap="round" stroke-linejoin="round" stroke-width="0.241"/>
              </g>
            </g>
          </g>
          <g id="Grupo_61289" data-name="Grupo 61289" transform="translate(54.877 109.53)">
            <g id="Grupo_61288" data-name="Grupo 61288">
              <ellipse id="Elipse_4292" data-name="Elipse 4292" cx="38.055" cy="40.181" rx="38.055" ry="40.181" fill="#a0a603"/>
              <ellipse id="Elipse_4293" data-name="Elipse 4293" cx="38.055" cy="40.181" rx="38.055" ry="40.181" transform="translate(2.836)" fill="#ffcf03"/>
              <ellipse id="Elipse_4294" data-name="Elipse 4294" cx="30.719" cy="32.435" rx="30.719" ry="32.435" transform="translate(10.172 7.746)" fill="#faf0e3"/>
              <ellipse id="Elipse_4295" data-name="Elipse 4295" cx="21.549" cy="22.753" rx="21.549" ry="22.753" transform="translate(19.342 17.428)" fill="#ffcf03"/>
              <ellipse id="Elipse_4296" data-name="Elipse 4296" cx="11.096" cy="11.715" rx="11.096" ry="11.715" transform="translate(29.796 28.466)" fill="#faf0e3"/>
              <path id="Trazado_110859" data-name="Trazado 110859" d="M-204.347,361.183l3.152-4.57,11.818-.63-5.83,5.358,3.939,5.83-10.085-.63Z" transform="translate(269.033 -321.828)" fill="#b7b8fb"/>
              <line id="Línea_158" data-name="Línea 158" x2="33.8" transform="translate(42.31 39.592)" fill="none" stroke="#0b0a10" stroke-linecap="round" stroke-linejoin="round" stroke-width="0.963"/>
            </g>
          </g>
          <g id="Grupo_61291" data-name="Grupo 61291" transform="translate(40.773 4.033)">
            <path id="Trazado_110860" data-name="Trazado 110860" d="M-280.77,210.725h57.646a5.529,5.529,0,0,1,5.529,5.529v12a5.529,5.529,0,0,1-5.529,5.529h-16.083l1.378,12-8.853-12H-280.77a5.529,5.529,0,0,1-5.529-5.529v-12A5.529,5.529,0,0,1-280.77,210.725Z" transform="translate(286.299 -210.725)" fill="#529ad9"/>
            <g id="Grupo_61290" data-name="Grupo 61290" transform="translate(7.918 5.395)">
              <rect id="Rectángulo_5993" data-name="Rectángulo 5993" width="51.764" height="1.891" fill="#faf0e3"/>
              <rect id="Rectángulo_5994" data-name="Rectángulo 5994" width="51.764" height="1.891" transform="translate(0 4.491)" fill="#faf0e3"/>
              <rect id="Rectángulo_5995" data-name="Rectángulo 5995" width="51.764" height="1.891" transform="translate(0 8.982)" fill="#faf0e3"/>
            </g>
          </g>
          <g id="Grupo_61295" data-name="Grupo 61295" transform="translate(157.934 114.459)">
            <path id="Trazado_110861" data-name="Trazado 110861" d="M-85.022,332.063V392.47h-79.413V332.063a6.476,6.476,0,0,1,6.481-6.48H-91.5A6.476,6.476,0,0,1-85.022,332.063Z" transform="translate(164.435 -325.583)" fill="#faf0e3"/>
            <path id="Trazado_110862" data-name="Trazado 110862" d="M-85.022,332.063v5.8h-79.413v-5.8a6.476,6.476,0,0,1,6.481-6.48H-91.5A6.476,6.476,0,0,1-85.022,332.063Z" transform="translate(164.435 -325.583)" fill="#ffa4d0"/>
            <g id="Grupo_61292" data-name="Grupo 61292" transform="translate(56.344 4.565)">
              <circle id="Elipse_4297" data-name="Elipse 4297" cx="1.97" cy="1.97" r="1.97" fill="#ffcf03"/>
              <circle id="Elipse_4298" data-name="Elipse 4298" cx="1.97" cy="1.97" r="1.97" transform="translate(6.303)" fill="#529ad9"/>
              <circle id="Elipse_4299" data-name="Elipse 4299" cx="1.97" cy="1.97" r="1.97" transform="translate(12.831)" fill="#b7b8fb"/>
            </g>
            <g id="Grupo_61293" data-name="Grupo 61293" transform="translate(9.532 21.505)">
              <rect id="Rectángulo_5996" data-name="Rectángulo 5996" width="16.617" height="35.297" fill="#b7b8fb"/>
              <rect id="Rectángulo_5997" data-name="Rectángulo 5997" width="16.617" height="30.097" transform="translate(20.552 5.2)" fill="#529ad9"/>
              <rect id="Rectángulo_5998" data-name="Rectángulo 5998" width="16.617" height="24.425" transform="translate(41.687 10.873)" fill="#ffa4d0"/>
            </g>
            <g id="Grupo_61294" data-name="Grupo 61294" transform="translate(5.907 45.851)">
              <path id="Trazado_110863" data-name="Trazado 110863" d="M-158.29,387.268h63.5l5.515-12.764" transform="translate(158.29 -373.322)" fill="none" stroke="#0b0a10" stroke-linecap="round" stroke-linejoin="round" stroke-width="0.963"/>
              <path id="Trazado_110864" data-name="Trazado 110864" d="M-89.943,377.175l3.664-3.9-.236,4.845" transform="translate(155.653 -373.274)" fill="none" stroke="#0b0a10" stroke-linecap="round" stroke-linejoin="round" stroke-width="0.963"/>
            </g>
          </g>
          <g id="Grupo_61297" data-name="Grupo 61297" transform="translate(168.426 43.981)">
            <path id="Trazado_110865" data-name="Trazado 110865" d="M-97.273,252.276h-49.768a6.481,6.481,0,0,0-6.481,6.48v22.495a6.481,6.481,0,0,0,6.481,6.48h12.9l-.709,8.273,8.509-8.509h28.421a6.474,6.474,0,0,0,6.478-6.312c.158-6.257.411-15.806.643-22.2A6.474,6.474,0,0,0-97.273,252.276Z" transform="translate(153.522 -252.276)" fill="#ffa4d0"/>
            <g id="Grupo_61296" data-name="Grupo 61296" transform="translate(6.855 6.578)">
              <path id="Trazado_110866" data-name="Trazado 110866" d="M-96.3,270.878l-7.658-11.76-8.068,11.623-.137.137h6.062v7.931h3.464v-7.931Z" transform="translate(145.071 -259.118)" fill="#fff"/>
              <path id="Trazado_110867" data-name="Trazado 110867" d="M-137.157,266.284a4.369,4.369,0,0,0-2.77-4.053.707.707,0,0,0-.3-.05,1.463,1.463,0,0,0-.2.019,2.257,2.257,0,0,0-1.557-.417c-2.628,0-4.409,2.526-4.409,4.837,0,2.759,2.627,4.409,4.908,4.409A4.57,4.57,0,0,0-137.157,266.284Zm-4.46,2.525a2.254,2.254,0,0,1-2.433-2.077,2.449,2.449,0,0,1,2.291-2.708.97.97,0,0,1,.142.009,3.131,3.131,0,0,0,.387.021.64.64,0,0,0,.152-.011,2.451,2.451,0,0,1,1.589,2.209C-139.488,267.383-140.273,268.809-141.617,268.809Z" transform="translate(146.392 -259.221)" fill="#fff"/>
              <path id="Trazado_110868" data-name="Trazado 110868" d="M-127.292,270.217a.971.971,0,0,0-.294-.041,1.114,1.114,0,0,0-.194.021,2.2,2.2,0,0,0-1.568-.428c-2.628,0-4.42,2.526-4.42,4.826,0,2.872,2.618,4.429,4.929,4.429a4.569,4.569,0,0,0,4.318-4.745A4.385,4.385,0,0,0-127.292,270.217Zm-1.69,6.577a2.247,2.247,0,0,1-2.433-2.076,2.454,2.454,0,0,1,2.272-2.709.946.946,0,0,1,.162.011,3.1,3.1,0,0,0,.378.03.485.485,0,0,0,.173-.02,2.461,2.461,0,0,1,1.578,2.22A2.431,2.431,0,0,1-128.982,276.794Z" transform="translate(145.905 -259.529)" fill="#fff"/>
              <path id="Trazado_110869" data-name="Trazado 110869" d="M-131.651,263.481a3.292,3.292,0,0,0,.286-1.151,1.116,1.116,0,0,0-1.151-1.13c-.9,0-1.182.947-1.406,1.792v-.011c-5.244,13.7-5.326,13.828-5.408,13.939a1.269,1.269,0,0,0-.3.774,1.222,1.222,0,0,0,1.334,1.254c.773,0,.916-.54,1.059-1.07v.01Z" transform="translate(146.131 -259.198)" fill="#fff"/>
            </g>
          </g>
          <g id="Grupo_61300" data-name="Grupo 61300" transform="translate(68.034 31.332)">
            <g id="Grupo_61298" data-name="Grupo 61298" transform="translate(5.126 12.747)">
              <path id="Trazado_110870" data-name="Trazado 110870" d="M-244.047,294.489l5.3,1.631-5.3,1.631-1.631,5.3-1.631-5.3-5.3-1.631,5.3-1.631,1.631-5.3Z" transform="translate(252.612 -253.798)" fill="#faf0e3"/>
              <path id="Trazado_110871" data-name="Trazado 110871" d="M-218.833,291.962l3.913,1.2-3.913,1.2-1.2,3.913-1.2-3.913-3.913-1.2,3.913-1.2,1.2-3.913Z" transform="translate(251.552 -253.754)" fill="#faf0e3"/>
              <path id="Trazado_110872" data-name="Trazado 110872" d="M-218.833,256.29l3.913,1.2-3.913,1.2-1.2,3.913-1.2-3.913-3.913-1.2,3.913-1.2,1.2-3.913Z" transform="translate(251.552 -252.378)" fill="#faf0e3"/>
              <path id="Trazado_110873" data-name="Trazado 110873" d="M-124.944,304.15l3.913,1.2-3.913,1.2-1.2,3.913-1.2-3.913-3.913-1.2,3.913-1.2,1.2-3.913Z" transform="translate(247.929 -254.225)" fill="#faf0e3"/>
              <path id="Trazado_110874" data-name="Trazado 110874" d="M-109.537,315.624l3.913,1.2-3.913,1.2-1.2,3.913-1.2-3.913-3.913-1.2,3.913-1.2,1.2-3.913Z" transform="translate(247.334 -254.668)" fill="#faf0e3"/>
            </g>
            <g id="Grupo_61299" data-name="Grupo 61299">
              <circle id="Elipse_4300" data-name="Elipse 4300" cx="2.127" cy="2.127" r="2.127" transform="translate(34.352 35.77)" fill="#ffa4d0"/>
              <circle id="Elipse_4301" data-name="Elipse 4301" cx="2.127" cy="2.127" r="2.127" transform="translate(0 1.418)" fill="#ffa4d0"/>
              <circle id="Elipse_4302" data-name="Elipse 4302" cx="2.127" cy="2.127" r="2.127" transform="translate(28.206)" fill="#529ad9"/>
              <circle id="Elipse_4303" data-name="Elipse 4303" cx="2.127" cy="2.127" r="2.127" transform="translate(0.67 69.453)" fill="#a0a603"/>
              <circle id="Elipse_4304" data-name="Elipse 4304" cx="2.127" cy="2.127" r="2.127" transform="translate(137.645 55.507)" fill="#ffcf03"/>
            </g>
          </g>
        </g>
      </g>
    </g>
  </g>
</svg>
