<svg xmlns="http://www.w3.org/2000/svg" xmlns:xlink="http://www.w3.org/1999/xlink" width="253.667" height="222.351" viewBox="0 0 253.667 222.351">
  <defs>
    <linearGradient id="linear-gradient" x1="0.5" y1="1" x2="0.5" gradientUnits="objectBoundingBox">
      <stop offset="0" stop-color="#ff8094"/>
      <stop offset="0.004" stop-color="#ff8093"/>
      <stop offset="0.317" stop-color="#ff9d68"/>
      <stop offset="0.598" stop-color="#ffb348"/>
      <stop offset="0.835" stop-color="#ffc035"/>
      <stop offset="1" stop-color="#ffc52f"/>
    </linearGradient>
    <clipPath id="clip-path">
      <path id="Trazado_111537" data-name="Trazado 111537" d="M3563.548,792.984v115.7H3505.72a6.8,6.8,0,0,1-6.8-6.8V792.984Z" transform="translate(-3498.916 -792.984)" fill="none"/>
    </clipPath>
  </defs>
  <g id="Grupo_61689" data-name="Grupo 61689" transform="translate(-3434.678 -691.138)">
    <path id="Trazado_111496" data-name="Trazado 111496" d="M3574.06,743.011a1.655,1.655,0,0,1-1.47-2.395,14.486,14.486,0,0,0,1.653-7.145h-.831a17.313,17.313,0,0,1-17.3-17.292v-7.742a17.316,17.316,0,0,1,17.3-17.3h34.5a17.316,17.316,0,0,1,17.3,17.3v7.742a17.314,17.314,0,0,1-17.3,17.292h-20.423c-.25.292-.5.6-.763.907a22.506,22.506,0,0,1-4.116,4.1,40.325,40.325,0,0,1-7.91,4.4A1.663,1.663,0,0,1,3574.06,743.011Zm-.649-50.174a15.618,15.618,0,0,0-15.6,15.6v7.742a15.614,15.614,0,0,0,15.6,15.593h2.344l.1.735a15.707,15.707,0,0,1-1.742,8.87,46.824,46.824,0,0,0,7.509-4.283,20.934,20.934,0,0,0,3.794-3.812c.361-.425.707-.839,1.05-1.224l.253-.286h21.19a15.614,15.614,0,0,0,15.6-15.593v-7.742a15.618,15.618,0,0,0-15.6-15.6Z" transform="translate(5.731)" fill="#e8eaff"/>
    <path id="Trazado_111497" data-name="Trazado 111497" d="M3594.145,704.405a5.267,5.267,0,1,1-5.267-5.266A5.267,5.267,0,0,1,3594.145,704.405Z" transform="translate(7.029 0.378)" fill="#e8eaff"/>
    <path id="Trazado_111498" data-name="Trazado 111498" d="M3572.514,725.994a6.545,6.545,0,1,1,6.542-6.546A6.554,6.554,0,0,1,3572.514,725.994Zm0-10.536a3.99,3.99,0,1,0,3.985,3.99A3.992,3.992,0,0,0,3572.514,715.458Z" transform="translate(6.196 1.027)" fill="#e8eaff"/>
    <path id="Trazado_111499" data-name="Trazado 111499" d="M3609.241,718.856h-31.6c-1.1,0-.982,1.7.108,1.7h31.6C3610.449,720.555,3610.332,718.856,3609.241,718.856Z" transform="translate(6.711 1.308)" fill="#e8eaff"/>
    <path id="Trazado_111500" data-name="Trazado 111500" d="M3610.505,702.638H3568.79c-1.115,0-1,1.7.11,1.7h41.715C3611.732,704.338,3611.614,702.638,3610.505,702.638Z" transform="translate(6.293 0.543)" fill="#e8eaff"/>
    <path id="Trazado_111501" data-name="Trazado 111501" d="M3536.107,722.03c-1.48.468-3.071-.408-4.416-.927l-5.131-1.992q-5.027-1.94-10.058-3.9c-1.7-.656-3.385-1.388-5.14-1.881a29.127,29.127,0,0,0-5.139-.86c-.935-.093-1.872-.17-2.808-.281a2.467,2.467,0,0,1-1.446-.485.512.512,0,0,0-.383.213c-.783.757-2.077-.349-1.293-1.107,2.417-2.339,3.9-5.675,6.867-7.428a5.929,5.929,0,0,1,6.705.128,7.026,7.026,0,0,1,6.858-1.319,3.4,3.4,0,0,1,1.506,1.14c.171.221.375.714.613.851.332.195.579-.026.9-.086a2.153,2.153,0,0,1,2.178.911,6.053,6.053,0,0,1,5.658,1,5.541,5.541,0,0,1,1.864,4.841,6.5,6.5,0,0,1,3.412,3.056,3.645,3.645,0,0,1-.094,3.07A2.827,2.827,0,0,1,3536.107,722.03Z" transform="translate(3.085 0.504)" fill="#1a1a1a"/>
    <path id="Trazado_111502" data-name="Trazado 111502" d="M3537.041,727.272c-1.906,13.176-10.469,26.361-23.782,26.361a24.1,24.1,0,0,1,0-48.208C3526.572,705.425,3538.894,714.454,3537.041,727.272Z" transform="translate(2.571 0.674)" fill="#1a1a1a" style="mix-blend-mode: darken;isolation: isolate"/>
    <path id="Trazado_111503" data-name="Trazado 111503" d="M3533.462,738.456A21.718,21.718,0,0,1,3504.9,749.7a22.733,22.733,0,0,0,2.333-1.66,11.923,11.923,0,0,0,3.4-3.531,3.2,3.2,0,0,0,3.668-2.366,8.919,8.919,0,0,0-.205-3.957c-.289-1.48-.63-2.952-1.012-4.415a67.282,67.282,0,0,0-3.08-8.9c-.281-.647-.741-1.251-.52-1.94.2-.6.563-1.174.783-1.787a13.7,13.7,0,0,0,.706-3.4q6.6-.715,13.2-1.413a42.544,42.544,0,0,0,5.735-.85A21.739,21.739,0,0,1,3533.462,738.456Z" transform="translate(3.315 1.149)" fill="#ffc89e"/>
    <path id="Trazado_111504" data-name="Trazado 111504" d="M3533.462,738.483a21.718,21.718,0,0,1-28.558,11.241,22.743,22.743,0,0,0,2.333-1.66,11.922,11.922,0,0,0,3.4-3.531,3.2,3.2,0,0,0,3.668-2.366,8.919,8.919,0,0,0-.205-3.957c-.289-1.48-.63-2.952-1.012-4.415a67.29,67.29,0,0,0-3.08-8.9c-.281-.647-.741-1.251-.52-1.94.2-.6.563-1.174.783-1.787a13.7,13.7,0,0,0,.706-3.4q6.6-.715,13.2-1.413a76.275,76.275,0,0,0,7.6-1.464C3537.126,721.021,3536.925,730.535,3533.462,738.483Z" transform="translate(3.315 1.121)" fill="#ffc89e"/>
    <path id="Trazado_111505" data-name="Trazado 111505" d="M3541.894,750.218a44.587,44.587,0,0,1-15.513,15.376,47.552,47.552,0,0,1-32.25,5.59,52.841,52.841,0,0,1-7.241-1.77c11.224-6.484,23.792-13.572,23.792-13.572l12.892-3.864s12.942-1.08,18.065-1.727C3541.724,750.243,3541.809,750.226,3541.894,750.218Z" transform="translate(2.464 2.788)" fill="#ffc89e"/>
    <path id="Trazado_111506" data-name="Trazado 111506" d="M3531.9,739.167l-1.3,6.382-2.315,11.394-1.105,5.446-25.366,8.594,1.429-14.526c.17,0,.332-.017.493-.017a5.03,5.03,0,0,0,1.515-.085,1.506,1.506,0,0,0,.935-1.081c.35-1.081.672-2.171,1.013-3.26.179-.586.367-1.174.544-1.76.154-.478.3-.962.452-1.439.051-.17.11-.34.161-.518a4.569,4.569,0,0,0,.154-2.715c-.358-1.038-1.677-1.2-2.639-1.166a4.62,4.62,0,0,0-1.471.307l.417-4.263Z" transform="translate(3.168 2.267)" fill="#ffc89e"/>
    <path id="Trazado_111507" data-name="Trazado 111507" d="M3530.328,745.271l-2.314,11.393a31.351,31.351,0,0,1-11.863-1.591,20.924,20.924,0,0,1-8.679-5.1c.154-.477.3-.962.452-1.439.051-.17.11-.34.161-.518a.72.72,0,0,1,.315-.051c2.809.119,4.7-1.949,7.352-2.434a47.792,47.792,0,0,1,8.186-.477C3526.057,745.05,3528.219,745.066,3530.328,745.271Z" transform="translate(3.435 2.545)" fill="#ff7e64"/>
    <path id="Trazado_111508" data-name="Trazado 111508" d="M3508.126,748.579c-.332,1.064-.664,2.136-1,3.2-.34,1.089-.663,2.179-1.012,3.26a1.506,1.506,0,0,1-.935,1.081,5.03,5.03,0,0,1-1.515.085c-.161,0-.323.017-.493.017l1.157-11.734a4.624,4.624,0,0,1,1.472-.307c.962-.033,2.281.128,2.639,1.166A5.352,5.352,0,0,1,3508.126,748.579Z" transform="translate(3.233 2.503)" fill="#1a1a1a"/>
    <path id="Trazado_111509" data-name="Trazado 111509" d="M3534.812,738.88a19.564,19.564,0,0,1-25.757,10.109,19.885,19.885,0,0,1-1.924-.961,11.915,11.915,0,0,0,3.4-3.531,3.2,3.2,0,0,0,3.669-2.366,8.922,8.922,0,0,0-.206-3.957q-.434-2.22-1.012-4.415a67.181,67.181,0,0,0-3.08-8.9c-.281-.647-.74-1.251-.52-1.94.2-.6.562-1.174.783-1.787a13.677,13.677,0,0,0,.706-3.4q6.6-.715,13.2-1.413c1.6-.17,3.268-.331,4.876-.654A19.577,19.577,0,0,1,3534.812,738.88Z" transform="translate(3.419 1.158)" fill="#ffc89e"/>
    <path id="Trazado_111510" data-name="Trazado 111510" d="M3527.859,722.557a16.552,16.552,0,0,1,8.554,21.791c-3.655,8.38-14.371,12.357-22.75,8.7s-11.25-13.559-7.6-21.939A16.554,16.554,0,0,1,3527.859,722.557Z" transform="translate(3.296 1.418)" fill="#ffc89e"/>
    <path id="Trazado_111511" data-name="Trazado 111511" d="M3532.372,715.238c-.281.068-2.439.75-2.729.809-1.608.324-3.276.485-4.876.654q-6.6.7-13.2,1.413a13.7,13.7,0,0,1-.706,3.4c-.221.613-.587,1.182-.783,1.787-.221.689.239,1.293.52,1.94a67.252,67.252,0,0,1,3.081,8.9c.382,1.463.723,2.935,1.012,4.415a8.912,8.912,0,0,1,.205,3.957,3.2,3.2,0,0,1-3.668,2.366,11.916,11.916,0,0,1-3.4,3.531,22.694,22.694,0,0,1-2.332,1.66,21.733,21.733,0,0,1-11.266-28.608c4.8-10.995,19.645-16.986,30.647-12.186A21.746,21.746,0,0,1,3532.372,715.238Z" transform="translate(2.725 0.777)" fill="#1a1a1a"/>
    <path id="Trazado_111512" data-name="Trazado 111512" d="M3623.168,773.536a23.474,23.474,0,0,1-1.847,9.624c-1.25,3.359-2.645,6.637-3.685,10.069a85.29,85.29,0,0,0-2.481,10.412c-.606,3.494-.906,7.044-1.467,10.547-.878,5.513-2.615,12.7-9.189,13.562-3.16.407-6.474-.579-9.479-1.458-2.952-.86-6.465-1.721-8.657-4.011-1.919-2.01-2.471-4.871-2.426-7.569a36.815,36.815,0,0,1,1.648-9.643c1.965-6.708,5.151-12.983,8.112-19.284,3.042-6.447,5.94-12.983,9.19-19.321a53.67,53.67,0,0,1,7.822-11.8c.534-.4,1.086-.76,1.648-1.1a9.743,9.743,0,0,1,4.183-1.521,3,3,0,0,1,.924,1.033,23.279,23.279,0,0,1,1.566,4.744c.534,1.775,1.069,3.54,1.6,5.315C3621.647,766.52,3622.941,769.977,3623.168,773.536Z" transform="translate(7.044 2.874)" fill="#ffc89e"/>
    <path id="Trazado_111513" data-name="Trazado 111513" d="M3601.712,806.6s-18.355-44.6-26.7-50.49a19.467,19.467,0,0,0-13.709-5.616c-.145,0-.289,0-.425.009a52.13,52.13,0,0,0-14.449-.485c-.672.059-1.361.135-2.067.221a44.592,44.592,0,0,1-15.513,15.376,47.551,47.551,0,0,1-32.25,5.59,52.82,52.82,0,0,1-7.241-1.77c-.656.383-1.311.758-1.95,1.133-10.746,6.234-21.384,9.67-25.794,22.194-4.774,13.554-9.753,27-14.754,40.468-4.684,12.611-12.177,28.535-12.177,42.16a19.562,19.562,0,0,0,19.562,19.562c9.5,0,22.14-5.906,23.917-14.881,5.346-11.765,14.778-36.068,14.778-36.068Z" transform="translate(0 2.766)" fill="#a0a603"/>
    <path id="Trazado_111514" data-name="Trazado 111514" d="M3559.772,772.776q-1.077,4.8-2.152,9.606c-.483,2.153-1.651,5.279.379,7a.852.852,0,0,0,1.109-1.292c-.764-.648-.584-1.8-.418-2.679.249-1.315.58-2.619.874-3.925q.938-4.192,1.879-8.386A.852.852,0,0,0,3559.772,772.776Z" transform="translate(5.766 3.822)" fill="#e8eaff"/>
    <path id="Trazado_111515" data-name="Trazado 111515" d="M3615.448,814.363a19.563,19.563,0,1,1-19.563-19.563A19.563,19.563,0,0,1,3615.448,814.363Z" transform="translate(6.685 4.893)" fill="#ffc89e"/>
    <path id="Trazado_111516" data-name="Trazado 111516" d="M3508.9,734.559a6.665,6.665,0,1,1-8.774,3.444A6.664,6.664,0,0,1,3508.9,734.559Z" transform="translate(3.063 2.023)" fill="#ffc89e"/>
    <path id="Trazado_111517" data-name="Trazado 111517" d="M3677.886,792.984V901.878a6.8,6.8,0,0,1-6.8,6.8H3560.635v-115.7Z" transform="translate(5.945 4.807)" fill="#e8eaff"/>
    <path id="Trazado_111518" data-name="Trazado 111518" d="M3590.981,886.249l-13.7-.2a9.311,9.311,0,0,1,.275-18.619l13.7.2a9.311,9.311,0,0,1-.275,18.619Z" transform="translate(6.297 8.32)" fill="#d4d4ff"/>
    <path id="Trazado_111519" data-name="Trazado 111519" d="M3590.068,883.648l-12.393-.183a6.969,6.969,0,1,1,.205-13.937l12.392.182a6.97,6.97,0,0,1-.2,13.938Z" transform="translate(6.425 8.42)" fill="#fff"/>
    <path id="Trazado_111520" data-name="Trazado 111520" d="M3589.51,883.64a6.97,6.97,0,1,1,7.072-6.866A6.97,6.97,0,0,1,3589.51,883.64Z" transform="translate(6.983 8.428)" fill="#a2a0eb"/>
    <g id="Grupo_61683" data-name="Grupo 61683" transform="translate(3571.384 807.519)">
      <path id="Trazado_111521" data-name="Trazado 111521" d="M3589.334,837.529l-.873.133c-2.807-11.375-5.253-22.948-7.266-34.349a.985.985,0,0,0-.854-.99,13.32,13.32,0,0,0-4.024.265.926.926,0,0,0-.609.481,1.018,1.018,0,0,0-.071.84,1.04,1.04,0,0,0,1.24.636c.088-.019.176-.036.266-.052-3.022,8.769-5.73,17.669-8.052,26.466-.646,2.443-1.288,4.989-1.913,7.569h-.975a.954.954,0,0,0-.694.31,1.045,1.045,0,0,0-.286.773,1.029,1.029,0,0,0,1.056.953h4.05a.945.945,0,0,0,.694-.311,1.017,1.017,0,0,0-.77-1.725h-.977c1.21-4.976,2.557-10.042,4-15.065h9.811c1.055,4.876,2.18,9.753,3.352,14.509l-.287.044a1.036,1.036,0,0,0-.914,1.1,1.1,1.1,0,0,0,.419.744.892.892,0,0,0,.7.186l1.226-.186a1.112,1.112,0,0,0,.419-.065l1.534-.234a1.034,1.034,0,0,0,.914-1.1,1.105,1.105,0,0,0-.418-.743A.926.926,0,0,0,3589.334,837.529Zm-6.681-16.1h-8.785c1.686-5.731,3.522-11.462,5.46-17.043C3580.34,810.068,3581.458,815.8,3582.653,821.426Z" transform="translate(-3565.222 -802.274)" fill="#d4d4ff"/>
      <path id="Trazado_111522" data-name="Trazado 111522" d="M3602.129,835.834a.974.974,0,0,0-1,.053.324.324,0,0,1-.267.039,1.1,1.1,0,0,1-.614-.475,3.439,3.439,0,0,1-.2-2.007,16.185,16.185,0,0,0,.018-3.123,6.285,6.285,0,0,0-.677-2.564,4.011,4.011,0,0,0-4.5-1.545c-1.727.432-3.59,1.508-3.638,3.232a.917.917,0,0,0,.924.972,1.056,1.056,0,0,0,1.112-1.024c0-.15.226-.425,1.325-.922a3.281,3.281,0,0,1,1.9-.357,1.543,1.543,0,0,1,1.257.964,6.237,6.237,0,0,1,.312,1.824,9.689,9.689,0,0,0-3.958-.284,5.059,5.059,0,0,0-3.806,2.595,3.739,3.739,0,0,0,.553,4.268,4.922,4.922,0,0,0,3.6,1.321c.125,0,.253,0,.382-.01a9.022,9.022,0,0,0,4.41-1.462,2.557,2.557,0,0,0,3,.261.95.95,0,0,0,.458-.856A1.089,1.089,0,0,0,3602.129,835.834Zm-3.992-.219a6.825,6.825,0,0,1-2.6,1.05,4.1,4.1,0,0,1-2.9-.348,1.62,1.62,0,0,1-.577-2.034,2.913,2.913,0,0,1,2.295-1.647,8.387,8.387,0,0,1,3.658.346A7.5,7.5,0,0,0,3598.137,835.616Z" transform="translate(-3564.058 -801.151)" fill="#d4d4ff"/>
    </g>
    <path id="Trazado_111523" data-name="Trazado 111523" d="M3662.4,797.624h-48.94a6.863,6.863,0,0,0-6.863,6.865v48.939a6.865,6.865,0,0,0,6.863,6.865h48.94a6.865,6.865,0,0,0,6.862-6.865V804.489A6.863,6.863,0,0,0,3662.4,797.624Z" transform="translate(8.114 5.026)" fill="url(#linear-gradient)"/>
    <g id="Grupo_61686" data-name="Grupo 61686" transform="translate(3501.948 797.791)">
      <g id="Grupo_61685" data-name="Grupo 61685" clip-path="url(#clip-path)">
        <path id="Trazado_111524" data-name="Trazado 111524" d="M3662.129,762.643a40.773,40.773,0,0,1,6.9,6.174,29.063,29.063,0,0,1,4.467,6.746c6.837,14.3,1.778,32.968-2.72,48.2-.206,2.3-.251,4.6-.251,6.924v71.631c-.357,11.882,4.306,27.426-1.911,34.809-5.053,5.441-17.875-5.052-28.369-4.663-8.549.389-15.932,8.161-25.258,6.607-12.436-2.721-24.094-8.549-36.626-5.3a39.612,39.612,0,0,1-5.9,4.97,34.361,34.361,0,0,1-19,5.949,54.309,54.309,0,0,1-8.92-.549c-16.6-1.183-32.534-12.842-49.157-8.362a30.971,30.971,0,0,0-5.625,2.466c-5.343,2.964-10.395,6.85-16.224,8.987-11.269,3.885-26.813,0-31.088-7.772-7.383-12.047-2.331-29.534-1.281-45.033a14.905,14.905,0,0,1,1.676-4.768c1.937-3.438,4.269-6.936,2.714-10.822q-1.282-3.613-2.252-7.272c-.652-2.438-1.209-4.889-1.63-7.24a255.371,255.371,0,0,1-3.2-45.074c-.016-2.57-.067-5.08-.139-7.585s-.166-5-.3-7.5q-.308-3.27-.637-6.548c-.777-4.664-2.331-10.493.777-13.214,1.555-1.943,6.607-.388,10.1-1.166a138.6,138.6,0,0,1,16.253-3.322q4.05-.58,8.083-.924c1.882.187,3.731.4,5.53.616a66.94,66.94,0,0,0,7.549.793c2.5.129,4.975.143,7.414.114q3.754,0,7.546-.055a69.386,69.386,0,0,1,7.3.185c6.773.65,12.215,4.536,18.043,7.256,1.165.777,3.109,1.555,4.274.777a86.059,86.059,0,0,1,7.845-4.478,65.185,65.185,0,0,1,23.233-5.153,13.251,13.251,0,0,1,7.815,1.836c19.009,18.677,49.708,17.9,69.527,1.967,5.44-4.663-3.5-12.047-3.5-18.264.389-8.938,12.436-6.217,18.424-3.805C3659.175,761.994,3662.129,762.643,3662.129,762.643Z" transform="translate(-3501.871 -794.615)" fill="#d4d4ff"/>
        <g id="Grupo_61684" data-name="Grupo 61684" transform="translate(-65.118 -33.805)">
          <path id="Trazado_111525" data-name="Trazado 111525" d="M3439.635,915.089c7.706,4.9,17.422,11.5,26.748,8.007,2.331-.907,4.663-1.987,7-3.117s4.694-2.291,7.145-3.26c17.719-9.168,34.817.935,51.915,6.765,2.332,1.166,5.052.389,7.384-.388,8.744-4.21,15.6-11.659,24.612-14.383a23.216,23.216,0,0,1,5.708-.984c9.707.212,18.644,5.263,28.359,6.818,7.384.777,16.322,3.108,21.762-2.721,4.274-4.275,3.5-11.269,9.326-15.155A15.344,15.344,0,0,1,3649.414,899c6.218,5.83,12.435,11.658,20.985,13.212,0-.777,0-1.554-.388-1.554-11.269-3.109-17.487-12.824-26.814-18.264-10.881-5.829-19.818,10.492-27.59,17.1-8.938,8.16-21.762,5.829-31.477-1.167-4.663-3.5-10.1-5.829-15.784-5.9a9.581,9.581,0,0,0-7.143,1.628c-9.715,8.161-21.374,22.928-34.2,15.545-13.989-8.549-30.311-7.772-44.992-5.636a31.777,31.777,0,0,0-6.834,2.287c-2.17,1.012-4.326,2.134-6.464,3.349-9.714,5.44-20.595-.388-28.958-6.536Z" transform="translate(-3436.597 -754.545)" fill="#e8eaff"/>
          <path id="Trazado_111526" data-name="Trazado 111526" d="M3440,907.407c9.658,6.355,21.705,12.185,32.974,5.968a21.3,21.3,0,0,1,6.386-2.427c17.319-3.014,34.806-.293,51.9,5.147,12.435,3.886,17.1-13.6,26.813-19.819,1.943-1.554,5.829,0,9,1.47,12.763,3.971,25.2,16.794,38.8,8.246,10.1-6.218,15.932-15.545,26.035-20.985,10.493-5.829,19.042,7.384,26.037,13.99,3.5,2.721,7.772,6.218,11.658,5.052,1.554-.388.777-4.275.777-6.994-12.824,0-17.1-15.933-27.59-20.6-14.766-7.383-27.2,12.047-38.083,20.985-7.771,6.606-17.875,5.44-26.035,1.165-5.053-2.719-7.773-8.161-9.722-13.195-.771-1.572-2.714-1.572-4.615-1.727a17.027,17.027,0,0,0-8.926,2.758,19.515,19.515,0,0,0-6.272,6.723c-3.886,7-7.384,17.487-14.378,16.322-19.429-2.721-38.472-4.664-57.963-3.806a26.183,26.183,0,0,0-7.71,1.862c-10.1,4.275-19.43-3.886-28.8-8.206Z" transform="translate(-3436.58 -755.316)" fill="#e8eaff"/>
          <path id="Trazado_111527" data-name="Trazado 111527" d="M3440.4,891.99c6.925,3.378,13.9,8.375,21.712,9.515a22.136,22.136,0,0,0,8.14-.3c20.572.346,40.78.346,61.764,3.454,1.943.388,3.5-.777,5.052-1.943,8.548-9.326,10.492-22.539,21.372-29.146a7.16,7.16,0,0,1,6.492-1.648c2.058.483,4,1.26,5.167,3.2,3.5,8.16,7.383,24.481,18.653,19.818,10.492-4.275,18.653-12.047,28.367-17.487,9.326-5.052,20.6-15.932,30.7-7.384,4.663,3.886,6.607,9.327,10.109,14.264a16.172,16.172,0,0,0,5.392,4.727,61.267,61.267,0,0,0,7.007.579v-2.93s-2.181,0-6.133-.239a14.948,14.948,0,0,1-4.349-3.229,40.154,40.154,0,0,1-4.12-5c-1.2-2.043-2.511-4.475-3.981-6.827-2.941-4.7-6.512-9.09-11.069-9.419-2.314-.179-4.875.657-7.942,2.892-15.225,10.617-30.769,21.109-49.033,26.161-8.161,2.332-8.55-10.492-12.458-16.5a19.907,19.907,0,0,0-3.682-4.782,13.525,13.525,0,0,0-5.407-3.068,7.189,7.189,0,0,0-7.252,3.294c-7.342,7.066-8.507,17.948-15.891,23.777-20.208,16.322-48.187,5.052-71.325,3.748q-3.593-.369-7.113-1.066a71.18,71.18,0,0,1-20.168-7.268Z" transform="translate(-3436.561 -755.922)" fill="#e8eaff"/>
          <path id="Trazado_111528" data-name="Trazado 111528" d="M3441.151,886.153c9.228,2.206,14.28,11.145,22.441,15.419a12.664,12.664,0,0,0,5.052,1.555c29.534,5.906,66.082,1.642,77.326-31.116a27.49,27.49,0,0,1,2.319-5.176,17.361,17.361,0,0,1,8.566-4.722c3.887.212,7.773.212,10.1,3.708,1.037,1.49,2.137,2.979,3.305,4.42a52.163,52.163,0,0,0,3.7,4.129c6.98,10.1,20.582,11.658,30.3,3.109,7-6.606,13.6-14.767,23.17-18.021a43.074,43.074,0,0,1,8.695-1.8c1.944-.39,1.555-3.5,1.944-5.83.389-2.72,3.109-4.275,5.052-2.331,7.772,8.938,8.549,21.761,17,29.464a16.164,16.164,0,0,0,4.532,3.428c3.633.034,5.636.034,5.636.034v-9.587s-1.683,0-4.762-.017a19.706,19.706,0,0,1-4.864-2.833,25.073,25.073,0,0,1-3.932-4.006c-7.4-9.1-6.619-24.645-17.5-28.531-7.966-2.72-12.629,2.332-16.516,9.326-1.3,2.332-2.5,4.88-3.72,7.427-5.022,11.615-16.292,24.05-30.282,22.107-4.663-.388-8.16-3.5-10.929-7.384-1.335-1.458-2.586-3.012-3.843-4.542s-2.521-3.036-3.88-4.4c-5.828-5.829-14.379-7.384-22.344-4.864a19.582,19.582,0,0,0-6.089,3.809,16.633,16.633,0,0,0-4.15,6.085,30.97,30.97,0,0,1-2.952,5.707c-4.749,7.226-12.781,12.839-19.257,18.8-1.167.777-1.167,3.108-2.721,3.886-13.212,6.606-28.756,6.606-42.871,1.4-2.736-.953-5.305-1.915-7.669-2.917a36.148,36.148,0,0,1-12.912-9.186c-1.832-.709-3.693-1.288-5.488-1.813Z" transform="translate(-3436.525 -757.115)" fill="#e8eaff"/>
          <path id="Trazado_111529" data-name="Trazado 111529" d="M3444.065,878.545c1.648.795,3.331,1.514,5.015,2.186,3.3,1.923,6.506,4.73,9.955,6.862a29.477,29.477,0,0,0,5.551,2.732c14.025,3.578,30.345,2.023,41.615-7.3,6.8-5.635,13.406-11.075,20.455-15.433a63.524,63.524,0,0,1,7.276-3.925c5.005-.8,9.939-1.854,14.854-2.973,2.459-.559,4.912-1.135,7.531-1.485,7.4.111,15.557-1.055,22.552,3.22,2.332,1.359,4.08,3.5,5.874,5.621,3.064,4.87,8.893,8.757,15.111,6.036a24.036,24.036,0,0,0,12.644-12.43c.553-1.839,1.066-3.765,1.639-5.722,2.721-9.783,6.935-20.358,13.554-24.435a11.283,11.283,0,0,1,5.194-1.713c3.917-.386,6.865,1.3,9.3,4.124,4.876,5.654,7.59,15.884,11.065,23.255a30.494,30.494,0,0,0,2.954,4.508,23.408,23.408,0,0,0,3.879,3.846c6.517,2.73,10.073,2.73,10.073,2.73v-3.909a37.6,37.6,0,0,1-9.628-1.878,30.766,30.766,0,0,1-4.017-4,39.543,39.543,0,0,1-3.237-4.507c-3.4-5.088-5.773-12.781-9.294-18.764a25.192,25.192,0,0,0-3.932-5.253c-3.668-2.868-7.944-4.422-12.128-3.237a13.869,13.869,0,0,0-7.57,4.448,22.462,22.462,0,0,0-4.566,7.966,68.947,68.947,0,0,0-2.319,7.547c-.732,2.809-1.452,5.823-2.243,8.789-2.433,7.369-5.929,19.8-15.255,18.638-6.218-1.165-9.716-6.994-14.8-10.305-1.983-1.461-4-2.876-6.062-4.122-6.2-3.742-12.857-5.978-20.544-3.457a63.115,63.115,0,0,0-6.882,2c-4.381,1.416-8.662,2.487-12.622,2.425a32.3,32.3,0,0,0-7.215,3.137c-6.385,3.714-12.7,7.407-19.7,9.933-1.942.777-4.274.388-6.217,1.166-4.275,1.944-5.442,7-9.327,10.1-1.555,1.167-3.886.389-5.052,1.167-8.938,5.052-18.654,3.5-27.11-.156a33.3,33.3,0,0,1-10.5-7.149c-2.025-.85-3.967-1.708-5.846-2.66Z" transform="translate(-3436.388 -757.606)" fill="#e8eaff"/>
          <path id="Trazado_111530" data-name="Trazado 111530" d="M3439.632,923.948c9.658,3.644,19.762,12.194,29.865,6.752,1.878-.971,3.778-2.093,5.7-3.263s3.854-2.385,5.8-3.544c6.375-4.074,13.759-6.4,20.754-4.851,19.429,5.44,39.636,14.378,59.089,6.1a37.688,37.688,0,0,0,7.048-4.066,59.507,59.507,0,0,0,6.567-5.849,8.444,8.444,0,0,1,6.958-.456c18.654,6.217,39.637,15.155,54.792-3.886,2.332-2.719,7.384-3.109,10.881-.777,7.384,4.275,13.6,10.492,22.539,10.88,2.721.389-.777-2.331.777-3.108-5.829-.778-11.269-3.886-15.544-7.384-6.218-5.052-16.321-11.657-21.373-4.275-14.768,22.927-39.638,9.326-59.293,6.232a19.279,19.279,0,0,0-6.723,1.756c-11.316,4.836-20.254,18.437-33.855,13-17.1-6.607-35.751-16.71-53.469-6.39-2.195,1.1-4.372,2.277-6.534,3.438s-4.31,2.3-6.448,3.341c-9.326,4.275-19.041-2.721-27.635-7.239Z" transform="translate(-3436.601 -753.99)" fill="#e8eaff"/>
          <path id="Trazado_111531" data-name="Trazado 111531" d="M3439.823,852.412c1.394.933,2.9,1.875,4.475,2.715a43.289,43.289,0,0,0,4.926,2.645c1.615.7,3.171,1.867,5.114,1.867,20.742-2.04,40.887-13.3,61.741-8.8a38.9,38.9,0,0,1,9.2,3.233,29.327,29.327,0,0,0,16.774-.462,56.071,56.071,0,0,0,5.3-1.964,57.465,57.465,0,0,0,10.566-4.063c1.7-.818,3.371-1.681,5.049-2.546,7.949-2.5,16.887-11.436,24.076-4.83,2.623,1.457,5.246,3.108,8.354,3.108,1.167,0,2.721-.389,3.109-1.166,10.882-16.709,32.254-15.545,46.216-5.959a66.055,66.055,0,0,1,6.072,3.755,55.625,55.625,0,0,1,5.614,4.535,10.751,10.751,0,0,0,5.122,1.888h8.836V843.64h-4.859c-1.571,0-3.5,0-5.736-.2a45.668,45.668,0,0,0-11.017-8.593,51.961,51.961,0,0,0-6.3-2.958,20.664,20.664,0,0,0-15.808-3.884,39.381,39.381,0,0,0-7.879,1.594c-7.825,2.351-15.6,6.528-23.369,8.666a25.84,25.84,0,0,1-6.277.922,31.3,31.3,0,0,1-6.115-.38c-9.369-2.484-18.306,1.4-26.078,6.065a16.152,16.152,0,0,1-6.4,3.641c-2.418.824-5.018,1.4-7.5,2.175a33.6,33.6,0,0,1-6.116,1.444,26.632,26.632,0,0,1-12.631-1.261,39.891,39.891,0,0,0-8.623-3.4c-19.062-4.835-37.084,2.306-55.1,9.446-5.442,1.944-10.882-1.554-15.744-4.193-1.807-.991-3.545-2.006-5.18-3.036Z" transform="translate(-3436.596 -757.54)" fill="#e8eaff"/>
          <path id="Trazado_111532" data-name="Trazado 111532" d="M3439.229,842.186a97.04,97.04,0,0,0,8.138,5.793c15.169,8.91,29.547-6.634,43.925-10.52,7-2.041,13.115-.145,19.181,2.4,2.022.85,4.039,1.773,6.084,2.668a21.938,21.938,0,0,0,11.993,3.333,23.2,23.2,0,0,0,6.089-.894,26.974,26.974,0,0,1,8.616-3.548c12.155-1.244,22.648-6.684,34.695-9.793a17.694,17.694,0,0,1,6.741.181,25.1,25.1,0,0,1,6.4,2.427c2.794.5,5.9,2.056,7.457.889,1.814-1.489,3.659-2.957,5.538-4.378s3.789-2.8,5.732-4.1c1.749-.983,3.615-2.041,5.616-3.092,9.151-4.751,20.42-10.581,30.524-4.751,1.943,1.166,3.108,3.3,4.387,5.507s2.669,4.475,5.062,5.907a47.57,47.57,0,0,1,7.26,6.073c.777.389,1.944,0,2.74.049h5V826.17a64.065,64.065,0,0,1-6.62-.488c-6.378-3.992-4.039-10.016-3.453-16.059a15.439,15.439,0,0,0-.387-5.973c-18.264,6.607-38.861,6.217-55.306,17.571a36.219,36.219,0,0,1-4.393,3.3,15.009,15.009,0,0,1-4.81,2.059c-5.052,1.165-10.1-2.332-15.543-1.944-2.769.534-5.52,1.124-8.257,1.73-19.152,4.251-37.6,9.393-56.641,2.933-2.719-1.166-5.439,0-8.112.261q-3.935.614-7.832,1.449c-12.995,2.758-25.684,7.13-38.072,11.5-6.217,1.943-12.046-3.109-16.855-7.378-1.87-1.415-3.643-2.921-5.295-4.281a55.618,55.618,0,0,0,.194,5.6C3439.121,839.3,3439.229,842.186,3439.229,842.186Z" transform="translate(-3436.635 -758.675)" fill="#e8eaff"/>
          <path id="Trazado_111533" data-name="Trazado 111533" d="M3439.428,831.258c2.614,2.342,5.767,2.541,9,2.25,18.124,1.447,31.993-9.38,47.412-16.275a35.165,35.165,0,0,1,6.9-2.258c3.315-.8,6.813-1.187,9.921.369,15.543,6.994,33.031,13.99,50.518,9.326a22.917,22.917,0,0,0,7.023-3.471c4.247-2.358,8.133-4.3,12.8-5.078,2.526-.388,3.969-1.767,5.605-3.079,2.554-2.362,6.441-3.527,9.938-3.916,22.15-1.166,48.575.389,64.507-17.876.388-.777,2.332-.777,3.5,0,2.332,2.332,2.332,5.44,1.943,8.549-.778,5.052-3.886,10.493-1.555,14.767,2.332,3.886,6.218,1.167,6.218-3.108-.777,0-2.332,0-2.332-.388-1.943-8.161,3.109-17.876-3.886-24.094a3.729,3.729,0,0,0-5.044,1.1c-14.385,20.661-44.308,18.33-66.458,17.553-6.606,0-12.823,2.331-18.79,5.3-1.671,1-3.377,1.965-5.049,3a42.263,42.263,0,0,0-4.847,3.418,49.489,49.489,0,0,1-5.714,3.047,20.821,20.821,0,0,1-6.4,1.553,69.943,69.943,0,0,1-43.523-10.492c-3.886-2.721-8.938-1.555-13.623-.436a57.853,57.853,0,0,0-6.368,2.2,93.954,93.954,0,0,0-23.921,14.165c-5.051,4.274-11.27.387-17,.625a35.027,35.027,0,0,0-7.871.929c-1.554.389-1.943-1.944-3.4-2.512Z" transform="translate(-3436.63 -759.489)" fill="#e8eaff"/>
          <path id="Trazado_111534" data-name="Trazado 111534" d="M3438.194,817.492a25.664,25.664,0,0,0,7.164,1.57,38.1,38.1,0,0,0,7.422-.224c4.386.061,8.271-.328,12.157-2.27a113.643,113.643,0,0,1,21.688-8.295q3.7-1.007,7.442-1.783c4.678-.8,9.73-1.58,13.616.363,13.6,7.383,26.425,15.544,42.746,11.657,1.944-.486,4.153-1.069,6.347-1.814,5.312-2.072,15.026-3.238,13.861-10.622-.388-3.5-3.886-6.217-2.72-10.1a2.522,2.522,0,0,1,3.886-1.166c13.6,6.217,27.979,12.824,43.524,11.269,3.108-.389,5.828-2.72,8.938-2.72,15.932-.388,31.088-6.607,38.471-21.762.777-1.165,3.109.389,5.052,1.166a14.169,14.169,0,0,1,5.3,8.258,40.662,40.662,0,0,1,.922,10.006c0,.389,1.554,1.555,1.554,1.167,2.332-7.772,3.886-16.322-.777-22.927a17.32,17.32,0,0,0-4.943-4.014c-5.939-1.427-14.876-9.976-17.6-4.925-3.5,6.607,1.554,18.654-7.772,22.54-10.492,4.275-21.372,4.275-32.254,7.771-15.543,5.44-30.311-5.829-44.345-12.457a13.42,13.42,0,0,0-6.23.527c-7.973,2.3-14.969,8.174-19.373,15.428a11.8,11.8,0,0,1-4.447,4.794c-8.258,4.6-20.294-6.413-29.362-12.566-4.274-3.108-9.325-1.554-14.382-1.4-2.27.271-4.54.547-6.811.8a114.716,114.716,0,0,1-20.5.831c-2.519-.023-5.066-.1-7.657-.228-5.052-.388-9.326,4.275-14.834,4.668a61.062,61.062,0,0,1-6.927.383c0,2.332.373,4.689.526,7.348C3437.992,813.111,3438.194,817.492,3438.194,817.492Z" transform="translate(-3436.705 -760.323)" fill="#e8eaff"/>
          <path id="Trazado_111535" data-name="Trazado 111535" d="M3436.995,787.584c-.008,1.773-.785,4.492.38,5.659s3.886.777,5.83,0q3.582-1.214,7.177-2.261a129.9,129.9,0,0,1,31.993-4.638c2.7-.075,5.334-.055,7.893.043q4.074.386,8.133.779c12.031.247,17.472,11.128,26.8,16.569,3.5,2.331,8.549,2.72,10.492-.777a45.488,45.488,0,0,1,4.485-7.318,34.161,34.161,0,0,1,23.315-12.614c2.206-.2,4.464.672,6.854,2.164,10.424,7.663,22.471,15.824,36.072,13.882a328.685,328.685,0,0,0,33.031-6.218c15.156-3.5,4.275-19.041,6.606-27.2,2.331-7,15.155,4.274,23.7,4.662-5.83-6.994-15.544-8.16-24.093-9.326-2.721-.777-9.328,0-8.161,2.721,3.886,7.772,11.657,19.43,1.166,24.093-23.316,10.881-50.518,13.6-69.163-6.844a11.555,11.555,0,0,0-8.3-1.563,45.969,45.969,0,0,0-22.656,10.7c-2.173,1.882-4.288,3.858-6.361,5.865-2.331,1.943-5.44,1.555-7.772,0-6.995-4.663-11.658-12.824-20.626-13.584-2.784-.33-5.588-.638-8.39-.948-2.3-.171-4.595-.3-6.9-.376a93.027,93.027,0,0,0-20.891,1.461c-2.23.312-4.48.671-6.729,1.062-6.746,1.171-13.48,2.618-20.2,4.119C3438.308,787.676,3436.995,787.584,3436.995,787.584Z" transform="translate(-3436.733 -760.702)" fill="#e8eaff"/>
          <path id="Trazado_111536" data-name="Trazado 111536" d="M3441.662,868.392q2.672,1.451,5.493,2.9c14.523,14.565,37.45,15.731,50.662-2.145a6.773,6.773,0,0,1,4.663-2.331,28.759,28.759,0,0,0,16.854-2.548,40.211,40.211,0,0,0,6.948-4.3c5-2.6,10.031-5.258,15.168-7.365a50.488,50.488,0,0,1,5.228-1.85c15.258-3.754,30.024,2.463,45.18,5.961,7.383,1.944,15.544,1.944,20.984-4.275A211.9,211.9,0,0,1,3630.718,833c1.554-1.943,2.8-5.042,4.787-5.819,3.187-.783,5.722,2.71,8.038,5.042a45.386,45.386,0,0,1,4.2,6.738c3.65,6.953,6.229,14.219,13.047,18.8a12.308,12.308,0,0,0,5.291.941h4.239V854.24s-3.158,0-8.74-.017c-6.537-4.258-9.483-11.005-13.17-17.391a48.807,48.807,0,0,0-4.1-6.162c-3.108-6.994-10.88-8.937-16.553-3.864a32.164,32.164,0,0,0-4.58,4.984c-4.32,5.682-8.207,12.871-12.286,16.756-4.663,5.052-11.27,7.772-17.875,6.218-17.488-4.275-34.2-13.213-52.146-5.708-2.457.857-4.892,1.782-7.3,2.76s-4.782,2.006-7.126,3.068a38.454,38.454,0,0,1-6.633,2.974c-4.39,1.223-9.183.143-14.623-5.037-.388-.778-2.331,1.165-3.5,2.331-6.218,8.549-11.658,17.487-21.762,21.373-12.047,4.663-25.26-1.167-34.21-9.221-1.825-1.059-3.537-2.08-5.179-3.1Z" transform="translate(-3436.553 -757.717)" fill="#e8eaff"/>
        </g>
      </g>
    </g>
    <path id="Trazado_111538" data-name="Trazado 111538" d="M3680.8,790.721v2.691H3498.916v-2.691a6.8,6.8,0,0,1,6.8-6.8H3674A6.8,6.8,0,0,1,3680.8,790.721Z" transform="translate(3.032 4.379)" fill="#a2a0eb"/>
    <g id="Grupo_61687" data-name="Grupo 61687" transform="translate(3505.546 790.864)">
      <path id="Trazado_111539" data-name="Trazado 111539" d="M3504.66,786.369a2.309,2.309,0,1,0,2.309,2.309A2.307,2.307,0,0,0,3504.66,786.369Z" transform="translate(-3502.352 -786.369)" fill="#fff"/>
      <path id="Trazado_111540" data-name="Trazado 111540" d="M3510.479,786.369a2.309,2.309,0,1,0,2.309,2.309A2.31,2.31,0,0,0,3510.479,786.369Z" transform="translate(-3502.078 -786.369)" fill="#fff"/>
      <path id="Trazado_111541" data-name="Trazado 111541" d="M3516.3,786.369a2.309,2.309,0,1,0,2.31,2.309A2.309,2.309,0,0,0,3516.3,786.369Z" transform="translate(-3501.803 -786.369)" fill="#fff"/>
    </g>
    <path id="Trazado_111542" data-name="Trazado 111542" d="M3642.732,754.313a4.452,4.452,0,0,1-2.459-1.175,5.691,5.691,0,0,1-3.8.154,15.922,15.922,0,0,1-4.62-2.8,36.068,36.068,0,0,0-4.705-2.655c-.851-.46-2.3-1.259-2.665-2.314-.127.076-.264.136-.39.221-.919.6-1.873-.817-.954-1.413,3.693-2.382,8.2-2.246,12.313-1.182a15.661,15.661,0,0,1,4.57,1.795c.773.255,1.54.519,2.305.783,2.179.732,4.6,2.1,4.791,4.672A3.849,3.849,0,0,1,3642.732,754.313Z" transform="translate(8.877 2.42)" fill="#ff7e64"/>
    <path id="Trazado_111543" data-name="Trazado 111543" d="M3679.737,758.3v13.533c-5.02,1.658-10.641,3.993-14.785,7.061-9.507,7.042-15.732,16.8-31.687,15.844a21.716,21.716,0,0,0-16.194,5.268V758.3a6.862,6.862,0,0,1,6.862-6.867h48.941A6.864,6.864,0,0,1,3679.737,758.3Z" transform="translate(8.608 2.846)" fill="#d4d4ff"/>
    <path id="Trazado_111544" data-name="Trazado 111544" d="M3679.737,770.915v35.4a6.866,6.866,0,0,1-6.863,6.866h-48.941a6.864,6.864,0,0,1-6.862-6.866v-7.231a21.716,21.716,0,0,1,16.194-5.268c15.955.957,22.18-8.8,31.687-15.844C3669.1,774.908,3674.716,772.573,3679.737,770.915Z" transform="translate(8.608 3.765)" fill="#a2a0eb"/>
    <path id="Trazado_111545" data-name="Trazado 111545" d="M3649.462,769.986a12.5,12.5,0,1,1-12.5-12.5A12.5,12.5,0,0,1,3649.462,769.986Z" transform="translate(8.957 3.131)" fill="#fff"/>
    <path id="Trazado_111546" data-name="Trazado 111546" d="M3532.511,728.948a1.757,1.757,0,0,0-.1-.341c-1.018-2.4-3.8.809-2.565,2.668C3531.106,733.175,3532.853,730.628,3532.511,728.948Z" transform="translate(4.477 1.728)" fill="#1a1a1a"/>
    <path id="Trazado_111547" data-name="Trazado 111547" d="M3533.655,737.028c-.792.749-2.085-.358-1.293-1.107.629-.6-.936-1.345-1.31-1.6a8.575,8.575,0,0,1-1.848-1.7,8.367,8.367,0,0,1-1.871-4.663,8.666,8.666,0,0,1,.485-3.514,2.442,2.442,0,0,0,1.583.613,2.854,2.854,0,0,0-.1.314,6.793,6.793,0,0,0,.324,4.757,8.257,8.257,0,0,0,3.232,3.344C3533.962,734.229,3534.839,735.9,3533.655,737.028Z" transform="translate(4.372 1.572)" fill="#ff7e64"/>
    <path id="Trazado_111548" data-name="Trazado 111548" d="M3530.783,740.325a.874.874,0,0,0-1.079-.536,6.136,6.136,0,0,1-1.17.157,5,5,0,0,1-1.1-.052,5.947,5.947,0,0,1-2.271-.773.857.857,0,0,0-1.136.4.873.873,0,0,0,.4,1.137,8.032,8.032,0,0,0,5.817.748A.855.855,0,0,0,3530.783,740.325Z" transform="translate(4.213 2.261)" fill="#ff7e64"/>
    <path id="Trazado_111549" data-name="Trazado 111549" d="M3521.966,729.8a1.735,1.735,0,0,0-.1-.341c-1.018-2.4-3.8.81-2.565,2.668C3520.56,734.022,3522.306,731.475,3521.966,729.8Z" transform="translate(3.979 1.768)" fill="#1a1a1a"/>
    <path id="Trazado_111550" data-name="Trazado 111550" d="M3523.786,723.456a7.013,7.013,0,0,0-8.892.718.856.856,0,0,0,.092,1.2.872.872,0,0,0,1.2-.091,5.387,5.387,0,0,1,6.491-.535.88.88,0,0,0,1.2-.091A.858.858,0,0,0,3523.786,723.456Z" transform="translate(3.776 1.466)" fill="#1a1a1a"/>
    <path id="Trazado_111551" data-name="Trazado 111551" d="M3532.7,722.272c-1.651-.417-2.834,1.574-3.319,2.97a2.442,2.442,0,0,1-1.582-.613,8.348,8.348,0,0,1,.851-1.728c.936-1.455,2.545-2.766,4.374-2.3C3534.083,720.867,3533.76,722.535,3532.7,722.272Z" transform="translate(4.395 1.386)" fill="#1a1a1a"/>
    <path id="Trazado_111552" data-name="Trazado 111552" d="M3509.786,739.791a6.758,6.758,0,0,0-2.977-.517,20.367,20.367,0,0,0-2.86.733.86.86,0,0,0-.538,1.079.872.872,0,0,0,1.079.536l1.24-.35c.2-.057.407-.115.612-.171.107-.029.215-.057.323-.084a4.907,4.907,0,0,1,2.382.308.876.876,0,0,0,1.136-.4A.86.86,0,0,0,3509.786,739.791Z" transform="translate(3.241 2.27)" fill="#ff7e64"/>
    <path id="Trazado_111553" data-name="Trazado 111553" d="M3507.739,843.008c.689,2.391-1.438,4.356-3.081,5.736-1.846,1.557-4.016,2.859-5.437,4.858-.835,1.183-1.157,2.6-1.89,3.838a6.719,6.719,0,0,1-.757,1.03,45.445,45.445,0,0,1-9.675,11.76c-4.11,3.566-9.582,6.748-15.113,4.57a7.812,7.812,0,0,1-4.841-5.208c-.758-2.893.127-5.888,1.165-8.594,4.408-11.513,11.794-21.528,17.241-32.539a40.781,40.781,0,0,1,5.148-10.995,39.2,39.2,0,0,1,5.208-6.271c1.651-1.617,3.43-2.907,5.958-2.61,2.62.3,3.53,1.921,3.138,4.192-.417,2.45-2.673,4.221-4.187,6.127-.579.731-1.687,3.057-2.258,3.789,1.728-.681,4.913-2.386,6.675-1.79,2.459.817,3.3,3.438,2.527,5.769a6.31,6.31,0,0,1-1.182,2.051,5.273,5.273,0,0,1,.732.724c1.616,1.948.168,3.984-1.416,5.66-1.1,1.174-2.487,2.657-3.627,3.789-.578.57-1.721,2.128-2.257,2.74a19.3,19.3,0,0,1,3.267-1.485A4.441,4.441,0,0,1,3507.739,843.008Z" transform="translate(1.51 5.541)" fill="#ffc89e"/>
    <path id="Trazado_111554" data-name="Trazado 111554" d="M3481.831,875.812c-.272.263-.537.527-.809.782l-.5.476c-4.332,4.1-8.917,8.246-14.3,10.892a21.027,21.027,0,0,1-16.644,1.2,20.362,20.362,0,0,1-11.888-11.343c-1.26-3.038-.885-5.9-1.157-9.172-.255-3.115,6.373-12.653,14.831-16.984,5.379-2.757,13.045-5.488,19.445-8.042.868-.349,1.7-.689,2.51-1.029a36.2,36.2,0,0,0-4.11,10.151,22.992,22.992,0,0,0-.315,10.832,12.181,12.181,0,0,0,2.2,4.594,19.673,19.673,0,0,0,4.238,3.634A43.278,43.278,0,0,0,3481.831,875.812Z" transform="translate(0.086 7.148)" fill="#a0a603"/>
    <path id="Trazado_111555" data-name="Trazado 111555" d="M3491.167,861.975c-2.467,5.506-6.476,10.135-10.772,14.3a43.263,43.263,0,0,1-6.5-4.009,19.671,19.671,0,0,1-4.238-3.634,12.18,12.18,0,0,1-2.2-4.594,22.992,22.992,0,0,1,.315-10.832,36.2,36.2,0,0,1,4.111-10.152,43.035,43.035,0,0,0,7.266-3.625c2.425-1.668,5.063-5.088,7.659-6.229,3.276-1.429.1,2.05-.767,3.14.171-.213,3.778,2.655,4.127,3.064a14.756,14.756,0,0,1,2.536,5.14C3494.486,850.258,3493.593,856.59,3491.167,861.975Z" transform="translate(1.522 6.689)" fill="#ffc89e"/>
    <path id="Trazado_111556" data-name="Trazado 111556" d="M3505.216,838.571c-2.419-1.263-5.069-.085-7.086,1.382a31.738,31.738,0,0,0-6.825,6.819c-.646.874.639,1.992,1.291,1.108a29.689,29.689,0,0,1,6.731-6.693,5.934,5.934,0,0,1,4.109-1.422,2.288,2.288,0,0,1,2.151,2.642,5.534,5.534,0,0,1-2.638,3.328,25.381,25.381,0,0,0-3.4,2.589,23.088,23.088,0,0,0-4.881,7.773c-.41,1.009,1.12,1.758,1.533.739a22.3,22.3,0,0,1,4.437-7.2c1.866-1.922,4.617-2.848,6-5.245A4.056,4.056,0,0,0,3505.216,838.571Z" transform="translate(2.664 6.933)" fill="#ff7e64"/>
    <path id="Trazado_111557" data-name="Trazado 111557" d="M3504.228,835.727c-2.212,1.974-4.578,3.548-5.786,6.365-.434,1.013-1.965.272-1.532-.732,1.3-3.037,3.762-4.731,6.144-6.841,1.072-.961,2.51-2.306,2.535-3.855a1.877,1.877,0,0,0-.791-1.566,2.916,2.916,0,0,0-1.149-.5,3.115,3.115,0,0,0-.681-.068c-1.549,0-2.953.97-4.17,1.812a39.576,39.576,0,0,0-10.007,10.067c-.629.9-1.914-.221-1.293-1.106a41.691,41.691,0,0,1,6.544-7.361c2.016-1.786,4.331-3.82,6.909-4.731a5.85,5.85,0,0,1,3.735-.076,3.973,3.973,0,0,1,1.516.919,3.472,3.472,0,0,1,.723,1C3508.167,831.608,3506.015,834.135,3504.228,835.727Z" transform="translate(2.485 6.406)" fill="#ff7e64"/>
    <path id="Trazado_111558" data-name="Trazado 111558" d="M3506.427,828.936a5.145,5.145,0,0,1-1.295,1,5.785,5.785,0,0,0-1.259-.46.679.679,0,0,1,.314-.953,3.668,3.668,0,0,0,.723-.511,3.532,3.532,0,0,0,.5-4.962,3.776,3.776,0,0,0-2.9-1.276,7.538,7.538,0,0,0-3.522,1.54,34.874,34.874,0,0,0-10.723,10.909c-.57.928-2.11.186-1.532-.74a36.519,36.519,0,0,1,6.136-7.53,37.04,37.04,0,0,1,3.854-3.157c.085-.06.171-.119.248-.179.161-3.6,3.428-5.19,5.377-7.811.834-1.124,1.472-2.953.408-4.136-1.191-1.344-3.268-.85-4.621-.085a21.435,21.435,0,0,0-6.408,6.026c-3.531,4.781-5.59,10.5-7.573,16.048-.365,1.029-1.9.281-1.531-.74a94.026,94.026,0,0,1,4.39-10.773,34.691,34.691,0,0,1,5.378-8.008c2.111-2.271,5.173-5.165,8.5-5s4.833,3.276,3.667,6.2c-1.089,2.714-4.68,4.28-5.65,7.012a11.188,11.188,0,0,1,1.847-.919,5.39,5.39,0,0,1,6.731,2.741A5.321,5.321,0,0,1,3506.427,828.936Z" transform="translate(2.26 5.522)" fill="#ff7e64"/>
    <path id="Trazado_111559" data-name="Trazado 111559" d="M3638.085,750.612a6.275,6.275,0,0,1-5,1.294,12.807,12.807,0,0,1-1.594-.263c-.308.616-.478,1.6-1.041,2.058-1.384,1.1-5.75,1.267-7.416,1.692-5.052,1.286-7.333,8.773-8.465,13.463,2.192-2.3,7.4-7.761,10.467-8.856,1.928-.687,4.771-1.277,6.464.245,2.055,1.838.524,4.508-.932,6.111a49.353,49.353,0,0,0-5.478,7.089c-1.467,2.364-2.517,4.962-4,7.307-1.285,2.037-3.187,3.875-5.667,4.246a5.842,5.842,0,0,1-6.646-6,3.837,3.837,0,0,1-2.806-2.526c-.082.707-.154,1.413-.218,2.109-.1,1.159-1.874.8-1.774-.353a74.552,74.552,0,0,1,1.422-9.524c-.589.127-1.277-.263-1.086-1.005a44.509,44.509,0,0,1,6.021-14.034c4.79-7.026,13.291-11.933,21.965-9.941C3635.025,744.346,3641.8,747.053,3638.085,750.612Z" transform="translate(7.991 2.461)" fill="#ffc89e"/>
    <path id="Trazado_111560" data-name="Trazado 111560" d="M3630.354,746.255c-2.948-2.336-7.145-2.467-10.587-1.281-4.385,1.513-7.655,5.075-10.393,8.667-.66.867.626,1.983,1.292,1.109,2.215-2.9,4.7-5.757,8-7.462,3.11-1.61,7.338-2.038,10.335.073,1.316.928,2.65,2.769,1.881,4.434-.761,1.648-2.917,2-4.517,2.159a13.559,13.559,0,0,0-5.221,1.168,9.415,9.415,0,0,0-3.2,2.951c-2.242,3.2-3.795,8.783-5.065,12.43-.356,1.023,1.7.181,2.065-.854,1.278-3.664,2.266-7.958,4.73-11.053a7.159,7.159,0,0,1,4.836-2.75c1.961-.267,3.935-.227,5.734-1.166C3633.818,752.815,3633.2,748.508,3630.354,746.255Z" transform="translate(8.236 2.506)" fill="#ff7e64"/>
    <path id="Trazado_111561" data-name="Trazado 111561" d="M3622.223,759.66a51.542,51.542,0,0,0-5.065,5.275q-2.752,2.963-5.5,5.925c-.746.8.545,1.911,1.291,1.109q4.258-4.585,8.516-9.169a9.223,9.223,0,0,1,4.384-3.028c1.313-.373,4.558-1.177,4.874.945.162,1.078,1.861.975,1.7-.108C3631.719,755.9,3624.723,757.647,3622.223,759.66Z" transform="translate(8.342 3.137)" fill="#ff7e64"/>
    <path id="Trazado_111562" data-name="Trazado 111562" d="M3633.523,743.59c-6.559-1.9-13.847-.708-18.845,4.119-.786.76.508,1.865,1.292,1.109a16.933,16.933,0,0,1,14.2-4.211c2.112.3,5.459.806,6.762,2.735a2,2,0,0,1-.86,3.149c-1.288.544-2.766.139-4.062-.167-1.068-.252-1.391,1.418-.326,1.67a8.181,8.181,0,0,0,4.929.11,3.746,3.746,0,0,0,2.471-2.923C3639.52,745.918,3636.083,744.33,3633.523,743.59Z" transform="translate(8.484 2.435)" fill="#ff7e64"/>
    <path id="Trazado_111563" data-name="Trazado 111563" d="M3483.4,830.773c-1.314,3.494-2.818,6.969-6.01,9.142-2.942,2-6.5,2.933-9.795,4.19a128.63,128.63,0,0,0-21.213,10.45c-.935.572.018,1.982.951,1.412a126.027,126.027,0,0,1,22.268-10.8c3.277-1.205,6.779-2.236,9.557-4.442,2.956-2.349,4.479-5.767,5.775-9.215C3485.318,830.5,3483.789,829.746,3483.4,830.773Z" transform="translate(0.534 6.567)" fill="#e8eaff"/>
    <path id="Trazado_111564" data-name="Trazado 111564" d="M3664.313,863.991H3611c-1.1,0-.982,1.7.109,1.7h53.313C3665.52,865.69,3665.4,863.991,3664.313,863.991Z" transform="translate(8.285 8.158)" fill="#d4d4ff"/>
    <path id="Trazado_111565" data-name="Trazado 111565" d="M3626.5,870.149h-15.908c-1.1,0-.982,1.7.108,1.7H3626.6C3627.7,871.848,3627.587,870.149,3626.5,870.149Z" transform="translate(8.266 8.449)" fill="#d4d4ff"/>
    <path id="Trazado_111566" data-name="Trazado 111566" d="M3662.933,870.149h-31.816c-1.1,0-.982,1.7.109,1.7h31.815C3664.139,871.848,3664.024,870.149,3662.933,870.149Z" transform="translate(9.235 8.449)" fill="#d4d4ff"/>
    <path id="Trazado_111567" data-name="Trazado 111567" d="M3663,876.718H3611.41c-1.1,0-.982,1.7.107,1.7h51.594C3664.209,878.418,3664.093,876.718,3663,876.718Z" transform="translate(8.305 8.759)" fill="#d4d4ff"/>
    <path id="Trazado_111568" data-name="Trazado 111568" d="M3663.311,883.492h-51.593c-1.1,0-.982,1.7.108,1.7h51.593C3664.518,885.192,3664.4,883.492,3663.311,883.492Z" transform="translate(8.319 9.079)" fill="#d4d4ff"/>
    <path id="Trazado_111569" data-name="Trazado 111569" d="M3601.483,846.952h-34.826c-1.1,0-.982,1.7.109,1.7h34.825C3602.69,848.651,3602.574,846.952,3601.483,846.952Z" transform="translate(6.193 7.354)" fill="#d4d4ff"/>
    <path id="Trazado_111570" data-name="Trazado 111570" d="M3577.3,853.419h-10.642c-1.1,0-.982,1.7.109,1.7h10.64C3578.506,855.118,3578.389,853.419,3577.3,853.419Z" transform="translate(6.193 7.659)" fill="#d4d4ff"/>
    <path id="Trazado_111571" data-name="Trazado 111571" d="M3600.8,853.727h-19.67c-1.1,0-.982,1.7.108,1.7h19.67C3602.007,855.426,3601.891,853.727,3600.8,853.727Z" transform="translate(6.876 7.674)" fill="#d4d4ff"/>
    <path id="Trazado_111572" data-name="Trazado 111572" d="M3602.129,860.39h-35.471c-1.1,0-.982,1.7.109,1.7h35.47C3603.335,862.089,3603.219,860.39,3602.129,860.39Z" transform="translate(6.193 7.988)" fill="#d4d4ff"/>
    <g id="Grupo_61688" data-name="Grupo 61688" transform="translate(3675.563 727.084)">
      <path id="Trazado_111573" data-name="Trazado 111573" d="M3669.741,727.742a2.455,2.455,0,0,0-.693-1.471,2.841,2.841,0,0,0-2.793-.683,2.267,2.267,0,0,0-.694.35,1.013,1.013,0,0,0-.39.566c-.023.083-.038.168-.058.251a.823.823,0,0,0-.177.23,2.585,2.585,0,0,0,.571,2.893,2.317,2.317,0,0,0,2.879.406A2.73,2.73,0,0,0,3669.741,727.742Zm-1.691.264a1.776,1.776,0,0,1-.151.444,1.943,1.943,0,0,1-.158.2c-1.116-.067-1.159-.122-1.2-.183a1.3,1.3,0,0,1-.105-.25c.085-.3.182-.436.223-.613l.09-.387c.746.028.8.054.862.083.077.04.258.184.021,0,.059.045.12.085.175.134.073.064.207.261.027.01.043.06.09.114.129.177C3668.05,727.992,3668.05,728,3668.05,728.006Z" transform="translate(-3664.707 -725.464)" fill="#e8eaff"/>
    </g>
    <path id="Trazado_111574" data-name="Trazado 111574" d="M3649.033,733.436a19.071,19.071,0,0,0-1.827,8.872.852.852,0,0,0,1.7-.109,17.217,17.217,0,0,1,1.661-8.024A.851.851,0,0,0,3649.033,733.436Z" transform="translate(10.03 1.974)" fill="#e8eaff"/>
    <path id="Trazado_111575" data-name="Trazado 111575" d="M3655.157,739.063a.869.869,0,0,0-1.2.091l-3.19,3.578a.851.851,0,1,0,1.292,1.108q1.6-1.787,3.191-3.577A.861.861,0,0,0,3655.157,739.063Z" transform="translate(10.189 2.253)" fill="#e8eaff"/>
    <path id="Trazado_111576" data-name="Trazado 111576" d="M3663.2,744.733l-10.316.675a.852.852,0,0,0,.108,1.7l10.317-.676A.852.852,0,0,0,3663.2,744.733Z" transform="translate(10.262 2.529)" fill="#e8eaff"/>
  </g>
</svg>
