<svg xmlns="http://www.w3.org/2000/svg" width="481" height="476.348" viewBox="0 0 481 476.348">
  <g id="Grupo_61801" data-name="Grupo 61801" transform="translate(-980 -2174.326)">
    <path id="Trazado_111878" data-name="Trazado 111878" d="M984.1,847.071c-.133-4.58-2.695-8.983-5.834-12.957q-6.772-14.621-14.193-28.931a27.225,27.225,0,0,0,2.823-.042,36.11,36.11,0,0,1-1.384-3.518,25.8,25.8,0,0,1-3.4-.2c-9.707-18.517-20.124-36.669-31.011-54.509-26.246-43.008-55.066-84.379-83.521-125.936l-5.915-8.637q6.128,5.8,12.319,11.54c32.535,30.124,66.924,58.791,94.564,93.7q4.608,5.817,8.906,11.875a24.316,24.316,0,0,1,1-4.708c-.461-.631-.917-1.264-1.382-1.892-13.393-18.041-28.786-34.479-44.884-50.117-16.5-16.029-33.755-31.255-50.7-46.808q-15.048-13.811-29.712-28.032Q793.83,542.478,755.876,487.05q-11.6-16.936-23.193-33.871c-5.911-8.628-11.978-17.258-19.3-24.767-6.9-7.08-15.07-13.134-24.573-16.174a44.891,44.891,0,0,0-20.437-1.5q-1.825-2.477-3.643-4.96c-1.345-1.843-4.455-.057-3.094,1.81q1.429,1.957,2.868,3.9c-1.557.369-3.1.8-4.615,1.323a56.459,56.459,0,0,0-21.515,13.418c-7.987-2.754-16.595-4.444-24.442-1.5a20.733,20.733,0,0,0-10.37,8.063c-2.909,4.594-2.877,10.091-1.23,15.132,1.823,5.58,4.93,10.784,7.633,15.969q3.979,7.63,8.078,15.2c-.182,16.275,3.531,32.592,8.716,48.02,4.09,12.168,9.022,24.038,13.8,35.947q7.539,18.79,15.08,37.579c9.594,23.908,19.025,47.889,28.855,71.7,17.447,42.257,37.975,84.521,72.849,115.256,35.268,31.082,80.033,48.9,125.414,59.161,25.038,5.661,50.5,9.2,75.993,12.089,7.847.891,19.83,2.6,24.043-5.829q5.741,13.43,10.842,27.125c.795,2.143,4.257,1.217,3.454-.953Q991.069,862.922,984.1,847.071Zm-18.412-30.912q2.164,4.32,4.265,8.672-10.258-11.4-20.311-22.979a53.7,53.7,0,0,0,10.2,2.9Q962.806,810.432,965.689,816.159ZM696.347,419.439c8.788,4.971,15.9,12.41,22.148,20.237,7.164,8.977,13.41,18.692,19.892,28.158l22.4,32.7q22.393,32.706,44.788,65.409,6.537,9.546,13.092,19.083-5.295-5.259-10.54-10.567-52.493-53.2-99.5-111.47-19.433-24.092-37.842-48.983A42.5,42.5,0,0,1,696.347,419.439Zm-29.528-4.8q40.4,54.7,85.618,105.608,36.9,41.516,76.828,80.21c20.961,30.483,41.924,60.967,62.459,91.735,23.476,35.172,46.14,70.989,65.929,108.38-1.557-.394-3.089-.867-4.575-1.372-2.92-.993-5.79-2.144-8.635-3.355q-36.731-42.674-70.658-87.658Q828.337,647.9,788.2,583.853c-25.677-40.988-49.75-84.123-85.485-117.444-16.216-15.124-34.64-28.042-55.164-36.6-1.752-.731-3.573-1.481-5.442-2.205A51.294,51.294,0,0,1,666.819,414.637Zm-27.531,15.792c4.255,1.5,8.435,3.237,12.52,5.141,41.437,19.31,71.95,55.127,96.941,92.369,13.646,20.336,26.086,41.446,39.146,62.156q19.552,31,40.4,61.171,41.556,60.143,88.027,116.685,10.2,12.407,20.631,24.61a553.533,553.533,0,0,1-115.19-69.291,665.237,665.237,0,0,1-98.234-94.5c-30.436-35.745-57.409-74.357-81.454-114.657-7.005-11.744-13.875-23.624-20.443-35.66a85.017,85.017,0,0,1,3.521-23.188A63.5,63.5,0,0,1,639.289,430.428Zm-31.212,21.951c-2.5-5.09-4.832-11.182-2.067-16.655,2.21-4.375,6.785-7.231,11.451-8.328,6.019-1.416,12.343-.05,18.13,1.779a68.392,68.392,0,0,0-14.733,28.13,87.729,87.729,0,0,0-2.508,15.068C614.816,465.757,611.374,459.1,608.077,452.379Zm371.63,398.782c-2.229,4.609-8.012,5.077-12.5,4.907-5.8-.219-11.631-1.163-17.391-1.858-48.165-5.8-96.9-14.774-140.684-36.547-19.778-9.835-38.4-22.153-54.458-37.369-16.31-15.452-29.481-33.787-40.486-53.309-11.131-19.749-20.136-40.6-28.679-61.572-9.561-23.467-18.9-47.024-28.338-70.54l-14.73-36.707c-4.636-11.553-9.364-23.089-13.186-34.943-3.885-12.043-6.788-24.666-7.479-37.323q7.037,12.765,14.427,25.331,18.522,31.441,39.454,61.378c27.273,38.837,57.816,75.463,91.984,108.434a609.513,609.513,0,0,0,109.524,84.51A527.853,527.853,0,0,0,938.445,797.1c1.259.545,2.54,1.113,3.839,1.685q10.768,12.5,21.757,24.809c3.8,4.243,7.963,8.323,11.406,12.871q2.558,5.549,5.024,11.138A7.844,7.844,0,0,1,979.707,851.161Z" transform="translate(463.789 1769.326)" fill="#e9e9e9"/>
    <g id="Grupo_61784" data-name="Grupo 61784" transform="translate(980 2209.201)">
      <path id="Trazado_111835" data-name="Trazado 111835" d="M520.63,478.724A23.771,23.771,0,1,0,544.4,454.952,23.771,23.771,0,0,0,520.63,478.724Z" transform="translate(-276.725 -444.431)"/>
      <path id="Trazado_111836" data-name="Trazado 111836" d="M508.359,500.325a23.772,23.772,0,1,0,23.771-23.772A23.771,23.771,0,0,0,508.359,500.325Z" transform="translate(-244.982 -431.755)"/>
      <path id="Trazado_111837" data-name="Trazado 111837" d="M529.878,525.462a25.007,25.007,0,1,0-25.007-25.007A25.034,25.034,0,0,0,529.878,525.462Zm0-47.543a22.537,22.537,0,1,1-22.536,22.536A22.562,22.562,0,0,1,529.878,477.919Z" transform="translate(-238.43 -432.404)"/>
      <g id="Grupo_61774" data-name="Grupo 61774" transform="translate(21.698 20.945)">
        <rect id="Rect치ngulo_6181" data-name="Rect치ngulo 6181" width="199.431" height="156.016" transform="translate(1.235 1.234)" fill="#fff"/>
        <path id="Trazado_111838" data-name="Trazado 111838" d="M564.622,477.727H764.053a1.235,1.235,0,1,0,0-2.469H564.622a1.235,1.235,0,0,0,0,2.469Z" transform="translate(-563.387 -453.46)"/>
        <path id="Trazado_111839" data-name="Trazado 111839" d="M564.622,620.005H764.053a1.235,1.235,0,0,0,1.236-1.235V462.756a1.235,1.235,0,0,0-1.236-1.235H564.622a1.234,1.234,0,0,0-1.234,1.235V618.771A1.234,1.234,0,0,0,564.622,620.005Zm198.2-2.469H565.856V463.99H762.818Z" transform="translate(-563.387 -461.521)"/>
        <g id="Grupo_61773" data-name="Grupo 61773" transform="translate(8.759 5.475)">
          <g id="Grupo_61772" data-name="Grupo 61772" transform="translate(0)">
            <path id="Trazado_111840" data-name="Trazado 111840" d="M677.908,478.348a1.232,1.232,0,0,0,.874-.362l10.906-10.908a1.234,1.234,0,0,0-1.745-1.745l-10.908,10.908a1.234,1.234,0,0,0,.873,2.107Z" transform="translate(-676.673 -464.971)"/>
            <path id="Trazado_111841" data-name="Trazado 111841" d="M688.816,478.348a1.234,1.234,0,0,0,.873-2.107l-10.906-10.908a1.235,1.235,0,0,0-1.747,1.745l10.908,10.908A1.23,1.23,0,0,0,688.816,478.348Z" transform="translate(-676.673 -464.971)"/>
          </g>
        </g>
      </g>
      <g id="Grupo_61778" data-name="Grupo 61778" transform="translate(119.714 0)">
        <path id="Trazado_111842" data-name="Trazado 111842" d="M600.7,581a6.5,6.5,0,0,1-7.69-5.222L580.959,508.62l9.431-1.915,15.348,66.464A6.5,6.5,0,0,1,600.7,581Z" transform="translate(-529.903 -414.061)"/>
        <g id="Grupo_61775" data-name="Grupo 61775" transform="translate(1.239 1.239)">
          <path id="Trazado_111843" data-name="Trazado 111843" d="M569.679,503.136a46.779,46.779,0,1,0,38.965-53.462A46.777,46.777,0,0,0,569.679,503.136Z" transform="translate(-569.107 -449.103)" fill="#529ad9"/>
        </g>
        <g id="Grupo_61776" data-name="Grupo 61776" transform="translate(0)">
          <path id="Trazado_111844" data-name="Trazado 111844" d="M616.253,544.371a48.086,48.086,0,0,0,47.535-55.464,48,48,0,1,0-47.535,55.464Zm.2-93.58a45.55,45.55,0,0,1,6.96,90.549A45.544,45.544,0,0,1,609.3,451.351,46.194,46.194,0,0,1,616.451,450.791Z" transform="translate(-568.331 -448.322)"/>
        </g>
        <g id="Grupo_61777" data-name="Grupo 61777" transform="translate(18.18 13.072)">
          <path id="Trazado_111845" data-name="Trazado 111845" d="M582.824,505.252l39.51,21.212,15.353-28.469-9.409-31.226L608.966,456.56Z" transform="translate(-582.824 -456.56)" fill="#fff"/>
          <path id="Trazado_111846" data-name="Trazado 111846" d="M603.6,495.911a1.236,1.236,0,0,0,1.182-1.592l-9.41-31.226a1.234,1.234,0,0,0-2.269-.229l-10.908,20.318a1.235,1.235,0,0,0,.5,1.672l20.318,10.908A1.237,1.237,0,0,0,603.6,495.911Zm-9.732-29.252,7.69,25.518-16.6-8.913Z" transform="translate(-548.735 -453.241)"/>
        </g>
      </g>
      <rect id="Rect치ngulo_6182" data-name="Rect치ngulo 6182" width="118.076" height="21.494" transform="translate(1.235 114.042)" fill="#fff"/>
      <path id="Trazado_111847" data-name="Trazado 111847" d="M629.565,543.375H747.642a1.235,1.235,0,0,0,1.234-1.235V520.647a1.235,1.235,0,0,0-1.234-1.234H629.565a1.234,1.234,0,0,0-1.235,1.234V542.14A1.234,1.234,0,0,0,629.565,543.375Zm116.843-2.469H630.8V521.881H746.407Z" transform="translate(-628.33 -406.604)"/>
      <path id="Trazado_111848" data-name="Trazado 111848" d="M634.6,529.366a6.5,6.5,0,1,0,6.5-6.5A6.5,6.5,0,0,0,634.6,529.366Z" transform="translate(-536.999 -404.576)" fill="#fee45a"/>
      <g id="Grupo_61779" data-name="Grupo 61779" transform="translate(169.535 353.916)">
        <path id="Trazado_111849" data-name="Trazado 111849" d="M625.53,675.2l-3.905,31.982H550.071a2.264,2.264,0,0,1-2.553-2.22c-.1-19.731,28.138-19.075,28.138-19.075l2.091-13.755Z" transform="translate(-546.283 -670.899)" fill="#fff"/>
        <path id="Trazado_111850" data-name="Trazado 111850" d="M550.512,708.875h71.572a1.236,1.236,0,0,0,1.225-1.085l3.9-31.982a1.232,1.232,0,0,0-1.146-1.381l-47.784-3.069a1.234,1.234,0,0,0-1.3,1.047l-1.933,12.709c-3.766.073-16.2.857-23.3,7.836a16.7,16.7,0,0,0-5.007,12.477A3.473,3.473,0,0,0,550.512,708.875Zm70.477-2.469H550.527c-.479-.022-1.314-.125-1.317-.992a14.319,14.319,0,0,1,4.261-10.7c7.515-7.387,22.468-7.138,22.612-7.136a1.234,1.234,0,0,0,1.249-1.05l1.922-12.636,45.348,2.912Z" transform="translate(-546.739 -671.355)"/>
      </g>
      <g id="Grupo_61780" data-name="Grupo 61780" transform="translate(260.698 350.127)">
        <path id="Trazado_111851" data-name="Trazado 111851" d="M550.942,686.424l-1.362-16.678H500.646l1.595,38.839h56.374a3.029,3.029,0,0,0,3.256-2.84C561.717,700.54,559.864,689.166,550.942,686.424Z" transform="translate(-499.411 -668.512)" fill="#fff"/>
        <path id="Trazado_111852" data-name="Trazado 111852" d="M502.7,710.276h56.374a4.743,4.743,0,0,0,3.4-1.384,3.748,3.748,0,0,0,1.092-2.728c-.084-2.766-1-16.438-11-20.191l-1.3-15.872a1.233,1.233,0,0,0-1.23-1.134H501.1a1.234,1.234,0,0,0-1.235,1.285l1.595,38.839A1.236,1.236,0,0,0,502.7,710.276Zm46.2-38.839,1.268,15.543a1.237,1.237,0,0,0,.868,1.081c9.142,2.81,9.983,15.635,10.059,18.177a1.29,1.29,0,0,1-.4.935,2.261,2.261,0,0,1-1.628.635H503.883l-1.493-36.37Z" transform="translate(-499.867 -668.968)"/>
      </g>
      <path id="Trazado_111853" data-name="Trazado 111853" d="M561.2,699.577a3.029,3.029,0,0,1-3.256,2.84H501.567l-.92-22.162h49.622C559.189,683,561.043,694.372,561.2,699.577Z" transform="translate(-238.039 -312.217)"/>
      <path id="Trazado_111854" data-name="Trazado 111854" d="M622.381,702.418H550.827a2.264,2.264,0,0,1-2.553-2.22c-.1-19.731,28.138-19.075,28.138-19.075l.132-.866h48.544Z" transform="translate(-377.504 -312.217)"/>
      <path id="Trazado_111855" data-name="Trazado 111855" d="M494.623,695.913H754.438a1.235,1.235,0,0,0,0-2.469H494.623a1.235,1.235,0,1,0,0,2.469Z" transform="translate(-420.994 -304.478)"/>
      <path id="Trazado_111856" data-name="Trazado 111856" d="M609.656,548.879l-70.019,2.475-35.466,200.9h61.461l4.74-25.445,1.035,25.445H633.67l-4.6-156.344C628.759,579.865,627.008,554.55,609.656,548.879Z" transform="translate(-316.106 -389.312)" fill="#fff"/>
      <path id="Trazado_111857" data-name="Trazado 111857" d="M504.628,753.948h61.461a1.236,1.236,0,0,0,1.228-1.112l2.226-22.335,1.087,22.273a1.236,1.236,0,0,0,1.233,1.174h62.262a1.236,1.236,0,0,0,1.235-1.271l-4.6-156.344c-.379-19.459-3.025-42.535-20.267-48.171a1.247,1.247,0,0,0-.427-.06l-70.017,2.475a1.236,1.236,0,0,0-1.173,1.02L503.413,752.5a1.235,1.235,0,0,0,1.216,1.45Zm60.342-2.469H506.1l35.035-198.469,68.8-2.433c15.581,5.276,18,27.241,18.36,45.816l4.562,155.085H573.041L571.2,713.758a1.234,1.234,0,0,0-2.461-.062Z" transform="translate(-316.562 -389.769)"/>
      <path id="Trazado_111858" data-name="Trazado 111858" d="M550.192,740.834a1.244,1.244,0,0,0,1.235-1.279l-6-168.318a1.235,1.235,0,1,0-2.468.087l6,168.32A1.234,1.234,0,0,0,550.192,740.834Z" transform="translate(-295.411 -376.891)"/>
      <path id="Trazado_111859" data-name="Trazado 111859" d="M533.877,549.717l.941-52.184c15.646-8.739,39.4-8.077,69.76-3.394,24.907,3.84,28.52,13.442,36.4,46.121,8.605,35.686,6.422,48.841-13.02,62.565-22.187,15.66-70.584,7.6-90.794-1.206-21.449-9.346-43.2-30.021-43.2-30.021l25.267-29.325Z" transform="translate(-312.006 -423.424)"/>
      <path id="Trazado_111860" data-name="Trazado 111860" d="M592.562,501.95c-12.37,3.174-60.769,13.828-85.1-6.528,15.554-6.455,37.689-5.551,65.325-1.288C581.54,495.482,587.939,498,592.562,501.95Z" transform="translate(-280.21 -423.42)" fill="#fff"/>
      <path id="Trazado_111861" data-name="Trazado 111861" d="M591.3,613.457c14.5,0,28.379-2.5,37.827-9.172,19.626-13.853,22.4-26.984,13.51-63.863-7.855-32.574-11.573-43.068-37.414-47.053-35.274-5.44-56.372-4.381-70.549,3.537a1.234,1.234,0,0,0-.633,1.055l-.906,50.212-12.891-6.55a1.237,1.237,0,0,0-1.495.3l-25.267,29.325a1.235,1.235,0,0,0,.086,1.7c.219.208,22.16,20.932,43.562,30.259C549.265,608.49,570.89,613.456,591.3,613.457ZM568.175,492.441c10.11,0,22.16,1.13,36.673,3.369,24.355,3.754,27.665,13.156,35.389,45.191,8.682,36,6.222,48.029-12.533,61.266-21.689,15.31-69.852,7.272-89.588-1.328-18.632-8.12-37.751-25.107-41.986-28.987l23.858-27.689,13.786,7a1.235,1.235,0,0,0,1.793-1.079l.93-51.465C544.355,494.515,554.486,492.441,568.175,492.441Z" transform="translate(-312.466 -423.876)"/>
      <path id="Trazado_111862" data-name="Trazado 111862" d="M617.718,623.6a16.6,16.6,0,1,0-16.6-16.6A16.62,16.62,0,0,0,617.718,623.6Zm0-30.735a14.133,14.133,0,1,1-14.132,14.132A14.149,14.149,0,0,1,617.718,592.862Z" transform="translate(-470.59 -364.951)"/>
      <path id="Trazado_111863" data-name="Trazado 111863" d="M563.326,511.42c-15.5-5.94-3.674-28.365-3.674-28.365-15.4-1.833-8.526-22.536-15.073-22.536a13.845,13.845,0,0,0-11.689,5.419,11.039,11.039,0,0,0-2.128,4.816c-2.3,15.162-5.138,31.432,9.381,31.432v9.234Z" transform="translate(-284.984 -441.167)" fill="#fff"/>
      <path id="Trazado_111864" data-name="Trazado 111864" d="M555.205,512.374a1.235,1.235,0,0,0,1.234-1.235v-9.234a1.234,1.234,0,0,0-1.234-1.236c-3.355,0-5.767-.909-7.376-2.78-4.188-4.873-2.544-15.673-.954-26.116l.168-1.115a31.261,31.261,0,0,1,3.234-7.7,1.235,1.235,0,1,0-1.991-1.46,32.306,32.306,0,0,0-3.683,8.793l-.17,1.114c-1.673,11-3.4,22.363,1.523,28.1a11.046,11.046,0,0,0,8.013,3.6v8.039A1.236,1.236,0,0,0,555.205,512.374Z" transform="translate(-300.045 -440.888)"/>
      <path id="Trazado_111865" data-name="Trazado 111865" d="M538.777,488.96a26.955,26.955,0,0,0,8.65-1.414,1.235,1.235,0,0,0-.866-2.314,24.882,24.882,0,0,1-7.783,1.257,1.235,1.235,0,0,0,0,2.471Z" transform="translate(-283.617 -426.707)"/>
      <path id="Trazado_111866" data-name="Trazado 111866" d="M537.908,493.221s2.723,2.369,5.476.449,3.394-7.939,3.394-7.939l-8.87,1.657Z" transform="translate(-282.747 -426.369)"/>
      <g id="Grupo_61782" data-name="Grupo 61782" transform="translate(246.698 34.304)">
        <path id="Trazado_111867" data-name="Trazado 111867" d="M546.022,481.9a1.233,1.233,0,0,0,1.225-1.09l1.116-9.473a1.235,1.235,0,0,0-2.453-.289l-1.114,9.473a1.235,1.235,0,0,0,1.081,1.371A1.142,1.142,0,0,0,546.022,481.9Z" transform="translate(-541.953 -469.93)"/>
        <path id="Trazado_111868" data-name="Trazado 111868" d="M542.749,472.562a1.395,1.395,0,1,1-1.395-1.4A1.395,1.395,0,0,1,542.749,472.562Z" transform="translate(-528.67 -469.221)"/>
        <path id="Trazado_111869" data-name="Trazado 111869" d="M549.863,472.562a1.4,1.4,0,1,1-1.395-1.4A1.395,1.395,0,0,1,549.863,472.562Z" transform="translate(-547.072 -469.221)"/>
        <g id="Grupo_61781" data-name="Grupo 61781" transform="translate(19.428)">
          <ellipse id="Elipse_4344" data-name="Elipse 4344" cx="6" cy="6" rx="6" ry="6" transform="translate(0)" fill="#fff"/>
          <path id="Trazado_111870" data-name="Trazado 111870" d="M532.572,477.227a1.232,1.232,0,0,0,1.006-.517l2.2-3.075a1.235,1.235,0,0,0-2.01-1.434l-2.2,3.074a1.235,1.235,0,0,0,1,1.953Z" transform="translate(-527.676 -468.917)"/>
        </g>
      </g>
      <path id="Trazado_111871" data-name="Trazado 111871" d="M549.447,481.765a1.235,1.235,0,0,0,.749-2.217l-2.433-1.857a1.235,1.235,0,0,0-1.5,1.963l2.433,1.858A1.235,1.235,0,0,0,549.447,481.765Z" transform="translate(-299.144 -431.236)"/>
      <path id="Trazado_111872" data-name="Trazado 111872" d="M555.992,541.447c14.634,0,26.763-6.327,35.431-18.595a1.235,1.235,0,0,0-2.017-1.425c-9.949,14.085-24.1,19.743-42.053,16.825a75.648,75.648,0,0,1-24.4-8.788,1.234,1.234,0,0,0-1.292,2.1,76.66,76.66,0,0,0,25.223,9.11A56.4,56.4,0,0,0,555.992,541.447Z" transform="translate(-300.903 -405.728)" fill="#fff"/>
      <path id="Trazado_111873" data-name="Trazado 111873" d="M619.913,531.979l-6.259-3.231s-7.525-17.572-21.4-18.872c0,0,1.763,6.727-4,7.756s-5.735-6.085-5.735-6.085-14.462,6.085-13.007,15.964c0,0-6.777,8.515-1.838,14.548,0,0-.409,8.472,4.94,11.265,0,0,4.519,6.682,18.415,5.664l7.944,6.066a19.648,19.648,0,1,0,20.94-33.074Z" transform="translate(-410.891 -412.2)" fill="#fff"/>
      <path id="Trazado_111874" data-name="Trazado 111874" d="M611.306,570.785a21.2,21.2,0,0,0,3.507-.294,20.685,20.685,0,0,0,13.939-9.015,20.885,20.885,0,0,0-7.795-30.137l-5.874-3.034c-1.279-2.782-8.84-17.947-22.238-19.2a1.236,1.236,0,0,0-1.309,1.542c.006.025.714,2.858-.468,4.7a3.578,3.578,0,0,1-2.553,1.533,3.117,3.117,0,0,1-2.69-.524c-1.3-1.09-1.592-3.505-1.593-4.345a1.234,1.234,0,0,0-1.712-1.139c-.617.259-14.849,6.374-13.816,16.758-1.354,1.871-6.2,9.373-1.795,15.3,0,1.912.333,8.961,5.36,11.809,1.038,1.3,6.176,6.755,18.858,5.968l7.574,5.784A20.658,20.658,0,0,0,611.306,570.785Zm-17.116-59c11.99,2.339,18.737,17.739,18.807,17.9a1.242,1.242,0,0,0,.567.611l6.258,3.232a18.414,18.414,0,0,1,6.874,26.573,18.414,18.414,0,0,1-26.5,4.421l-7.944-6.065a1.243,1.243,0,0,0-.839-.251c-12.9.946-17.133-4.883-17.306-5.13a1.275,1.275,0,0,0-.448-.4c-4.6-2.4-4.281-10.035-4.278-10.113a1.237,1.237,0,0,0-.278-.841c-4.243-5.183,1.788-12.92,1.849-13a1.241,1.241,0,0,0,.255-.947c-1.033-7.006,7.245-12.093,10.749-13.913a7.507,7.507,0,0,0,2.269,4.362,5.5,5.5,0,0,0,4.719,1.068,5.984,5.984,0,0,0,4.2-2.642A8.122,8.122,0,0,0,594.19,511.79Z" transform="translate(-411.368 -412.657)"/>
      <g id="Grupo_61783" data-name="Grupo 61783" transform="translate(155.547 114.075)">
        <path id="Trazado_111875" data-name="Trazado 111875" d="M606.795,526.746a1.235,1.235,0,0,0,.5-2.364,22.378,22.378,0,0,1-5.043-3.807,1.235,1.235,0,1,0-1.749,1.744,24.454,24.454,0,0,0,5.79,4.321A1.242,1.242,0,0,0,606.795,526.746Z" transform="translate(-598.305 -520.211)"/>
        <path id="Trazado_111876" data-name="Trazado 111876" d="M608.008,535.1a1.236,1.236,0,0,0,.5-2.365,40.894,40.894,0,0,1-5.357-3.139,1.235,1.235,0,0,0-1.411,2.028A42.857,42.857,0,0,0,607.508,535,1.236,1.236,0,0,0,608.008,535.1Z" transform="translate(-601.211 -514.831)"/>
        <path id="Trazado_111877" data-name="Trazado 111877" d="M606.014,540.148c.133,0,.267,0,.4-.016a1.234,1.234,0,1,0-.2-2.461c-1.682.138-4.018-1.427-4.773-2.041a1.235,1.235,0,0,0-1.56,1.914C600.223,537.822,603.16,540.148,606.014,540.148Z" transform="translate(-596.694 -511.324)"/>
      </g>
    </g>
  </g>
</svg>
