<svg xmlns="http://www.w3.org/2000/svg" viewBox="0 0 936.5 182.03"><defs><style>.cls-1,.cls-2,.cls-6{fill:none;}.cls-2{stroke:#529ad9;}.cls-3{fill:#12263f;}.cls-4{fill:#529ad9;isolation:isolate;opacity:0.2;}.cls-5{fill:#c2dcf2;}.cls-6{stroke:#a0a603;}.cls-7{fill:#a0a603;}</style></defs><g id="Capa_2" data-name="Capa 2"><g id="Capa_1-2" data-name="Capa 1"><g id="Grupo_61809" data-name="Grupo 61809"><g id="Rectángulo_6193" data-name="Rectángulo 6193"><rect class="cls-1" y="104.98" width="195" height="61.05" rx="10"/><rect class="cls-2" x="0.5" y="105.48" width="194" height="60.05" rx="9.5"/></g><g id="Rectángulo_6194" data-name="Rectángulo 6194"><rect class="cls-1" x="218" y="104.98" width="151" height="61.05" rx="10"/><rect class="cls-2" x="218.5" y="105.48" width="150" height="60.05" rx="9.5"/></g><g id="Rectángulo_6195" data-name="Rectángulo 6195"><rect class="cls-1" x="436.5" y="104.98" width="151" height="61.05" rx="10"/><rect class="cls-2" x="437" y="105.48" width="150" height="60.05" rx="9.5"/></g><g id="Rectángulo_6196" data-name="Rectángulo 6196"><rect class="cls-1" x="611" y="104.98" width="151" height="61.05" rx="10"/><rect class="cls-2" x="611.5" y="105.48" width="150" height="60.05" rx="9.5"/></g><g id="Rectángulo_6197" data-name="Rectángulo 6197"><rect class="cls-1" x="785.5" y="104.98" width="151" height="61.05" rx="10"/><rect class="cls-2" x="786" y="105.48" width="150" height="60.05" rx="9.5"/></g><g id="Reconocer_y_definir_el_problema_de_decisión" data-name="Reconocer y definir el problema de decisión"><path class="cls-3" d="M33.51,126.4h-2.7V131H29.3V119.63h3.76a4.48,4.48,0,0,1,3,.87,3.17,3.17,0,0,1,1,2.55,3,3,0,0,1-.58,1.85,3.41,3.41,0,0,1-1.59,1.18l2.67,4.83V131H36Zm-2.67-1.22h2.3a2.62,2.62,0,0,0,1.78-.58,2.27,2.27,0,0,0,0-3.17,2.6,2.6,0,0,0-1.82-.57H30.81Z"/><path class="cls-3" d="M42.44,131.16a3.69,3.69,0,0,1-2.8-1.13,4.2,4.2,0,0,1-1.08-3v-.26a5,5,0,0,1,.49-2.25A3.73,3.73,0,0,1,40.39,123a3.36,3.36,0,0,1,1.87-.56,3.16,3.16,0,0,1,2.56,1.09,4.69,4.69,0,0,1,.92,3.11v.6H40a3,3,0,0,0,.73,2,2.31,2.31,0,0,0,1.78.77,2.42,2.42,0,0,0,1.29-.31,3.21,3.21,0,0,0,.93-.83l.89.69A3.55,3.55,0,0,1,42.44,131.16Zm-.18-7.58a1.91,1.91,0,0,0-1.47.64,3.07,3.07,0,0,0-.73,1.78h4.23v-.11a2.74,2.74,0,0,0-.59-1.7A1.82,1.82,0,0,0,42.26,123.58Z"/><path class="cls-3" d="M50.8,130a2.08,2.08,0,0,0,1.35-.47,1.65,1.65,0,0,0,.64-1.17h1.37a2.55,2.55,0,0,1-.5,1.38,3.32,3.32,0,0,1-1.23,1,3.53,3.53,0,0,1-1.63.39A3.47,3.47,0,0,1,48.05,130a4.6,4.6,0,0,1-1-3.15v-.25a4.94,4.94,0,0,1,.46-2.14,3.42,3.42,0,0,1,1.3-1.49,3.63,3.63,0,0,1,2-.54,3.36,3.36,0,0,1,2.36.86,3,3,0,0,1,1,2.21H52.79a2,2,0,0,0-.62-1.35,2.15,2.15,0,0,0-3.09.27,3.78,3.78,0,0,0-.6,2.29v.27a3.64,3.64,0,0,0,.6,2.25A2,2,0,0,0,50.8,130Z"/><path class="cls-3" d="M55.4,126.7a4.91,4.91,0,0,1,.49-2.23,3.62,3.62,0,0,1,1.36-1.54,3.71,3.71,0,0,1,2-.54,3.54,3.54,0,0,1,2.79,1.2,4.62,4.62,0,0,1,1.06,3.23v.1a5,5,0,0,1-.48,2.22,3.49,3.49,0,0,1-1.35,1.52,3.7,3.7,0,0,1-2,.55A3.56,3.56,0,0,1,56.51,130a4.59,4.59,0,0,1-1.11-3.15Zm1.45.17a3.58,3.58,0,0,0,.66,2.26,2.21,2.21,0,0,0,3.1.39,1.8,1.8,0,0,0,.39-.39,4,4,0,0,0,.65-2.42,3.55,3.55,0,0,0-.66-2.25,2.19,2.19,0,0,0-3.07-.41,2.65,2.65,0,0,0-.41.41A3.9,3.9,0,0,0,56.85,126.87Z"/><path class="cls-3" d="M66.28,122.55v1.06a3.09,3.09,0,0,1,2.53-1.22c1.79,0,2.69,1,2.71,3V131H70.11v-5.59a1.88,1.88,0,0,0-.42-1.35,1.65,1.65,0,0,0-1.27-.44,2.11,2.11,0,0,0-1.24.38,2.6,2.6,0,0,0-.83,1v6H64.91v-8.45Z"/><path class="cls-3" d="M73.35,126.7a5.07,5.07,0,0,1,.49-2.23,3.58,3.58,0,0,1,3.35-2.08,3.54,3.54,0,0,1,2.79,1.2,4.63,4.63,0,0,1,1.07,3.23v.1a5.15,5.15,0,0,1-.47,2.22,3.57,3.57,0,0,1-1.36,1.52,3.7,3.7,0,0,1-2,.55A3.57,3.57,0,0,1,74.43,130a4.61,4.61,0,0,1-1.08-3.2Zm1.46.17a3.65,3.65,0,0,0,.65,2.26,2.22,2.22,0,0,0,3.5,0,4,4,0,0,0,.64-2.42,3.55,3.55,0,0,0-.66-2.25,2.08,2.08,0,0,0-1.75-.87,2.11,2.11,0,0,0-1.73.85A4,4,0,0,0,74.81,126.87Z"/><path class="cls-3" d="M86.25,130a2.08,2.08,0,0,0,1.35-.47,1.65,1.65,0,0,0,.64-1.17h1.37a2.55,2.55,0,0,1-.5,1.38,3.32,3.32,0,0,1-1.23,1,3.53,3.53,0,0,1-1.63.39,3.45,3.45,0,0,1-2.74-1.1,4.6,4.6,0,0,1-1-3.19v-.25a5.18,5.18,0,0,1,.45-2.19,3.48,3.48,0,0,1,1.3-1.49,3.63,3.63,0,0,1,2-.54,3.39,3.39,0,0,1,2.37.86,3,3,0,0,1,1,2.21H88.26a2,2,0,0,0-2-1.88,2,2,0,0,0-1.7.8,3.64,3.64,0,0,0-.61,2.29v.27a3.64,3.64,0,0,0,.6,2.25A2,2,0,0,0,86.25,130Z"/><path class="cls-3" d="M94.74,131.16A3.67,3.67,0,0,1,92,130a4.2,4.2,0,0,1-1.08-3v-.26a5.12,5.12,0,0,1,.48-2.25A3.86,3.86,0,0,1,92.69,123a3.47,3.47,0,0,1,1.87-.56,3.18,3.18,0,0,1,2.57,1.09,4.69,4.69,0,0,1,.91,3.11v.6H92.31a3,3,0,0,0,.74,2,2.27,2.27,0,0,0,1.77.77,2.48,2.48,0,0,0,1.3-.31,3.51,3.51,0,0,0,.93-.83l.88.69A3.55,3.55,0,0,1,94.74,131.16Zm-.18-7.58a1.89,1.89,0,0,0-1.46.64,3.08,3.08,0,0,0-.74,1.78H96.6v-.11a2.69,2.69,0,0,0-.6-1.7A1.79,1.79,0,0,0,94.56,123.58Z"/><path class="cls-3" d="M103.8,123.82a4.17,4.17,0,0,0-.71-.06,1.91,1.91,0,0,0-1.93,1.21v6H99.71v-8.45h1.41v1a2.27,2.27,0,0,1,2-1.14,1.54,1.54,0,0,1,.64.11Z"/><path class="cls-3" d="M111.85,128.89l2-6.34h1.55l-3.4,9.76c-.53,1.41-1.36,2.11-2.51,2.11h-.27l-.54-.1v-1.2h.39a2,2,0,0,0,1.15-.29,2.18,2.18,0,0,0,.67-1.09l.32-.86-3-8.36h1.57Z"/><path class="cls-3" d="M120.27,126.71a5,5,0,0,1,.92-3.13,2.9,2.9,0,0,1,2.41-1.19,3,3,0,0,1,2.36,1V119h1.44v12h-1.33l-.07-.9a2.93,2.93,0,0,1-2.41,1.06,2.89,2.89,0,0,1-2.4-1.2,5,5,0,0,1-.92-3.14Zm1.44.16a3.68,3.68,0,0,0,.6,2.25,1.9,1.9,0,0,0,1.64.81,2.13,2.13,0,0,0,2-1.23v-3.88a2.13,2.13,0,0,0-2-1.2,1.9,1.9,0,0,0-1.65.82A4.15,4.15,0,0,0,121.71,126.87Z"/><path class="cls-3" d="M133.15,131.16a3.69,3.69,0,0,1-2.8-1.13,4.24,4.24,0,0,1-1.07-3v-.26a5.12,5.12,0,0,1,.48-2.25A3.73,3.73,0,0,1,131.1,123a3.47,3.47,0,0,1,1.87-.56,3.16,3.16,0,0,1,2.56,1.09,4.69,4.69,0,0,1,.92,3.11v.6h-5.73a3,3,0,0,0,.73,2,2.31,2.31,0,0,0,1.78.77,2.48,2.48,0,0,0,1.3-.31,3.48,3.48,0,0,0,1-.85l.88.69A3.56,3.56,0,0,1,133.15,131.16Zm-.18-7.58a1.91,1.91,0,0,0-1.47.64,3.07,3.07,0,0,0-.73,1.78H135v-.11a2.74,2.74,0,0,0-.59-1.7A1.79,1.79,0,0,0,133,123.58Z"/><path class="cls-3" d="M138.83,131v-7.33h-1.32v-1.12h1.34v-.87a2.84,2.84,0,0,1,.73-2.1,2.74,2.74,0,0,1,2-.74,3.76,3.76,0,0,1,1,.13l-.07,1.17a4.22,4.22,0,0,0-.79-.07,1.37,1.37,0,0,0-1.08.41,1.63,1.63,0,0,0-.38,1.18v.89h1.8v1.12h-1.8V131Z"/><path class="cls-3" d="M143.68,120.31a.81.81,0,0,1,.22-.59.75.75,0,0,1,.63-.25.77.77,0,0,1,.64.25.81.81,0,0,1,.22.59.78.78,0,0,1-.22.58.81.81,0,0,1-.64.24.79.79,0,0,1-.85-.73ZM145.24,131H143.8v-8.45h1.44Z"/><path class="cls-3" d="M148.92,122.55l.05,1.06a3.09,3.09,0,0,1,2.53-1.22c1.79,0,2.69,1,2.71,3V131h-1.45v-5.59a1.88,1.88,0,0,0-.42-1.35,1.68,1.68,0,0,0-1.28-.44,2.08,2.08,0,0,0-1.23.38,2.6,2.6,0,0,0-.83,1v6h-1.44v-8.45Z"/><path class="cls-3" d="M156.39,120.31a.81.81,0,0,1,.22-.59.75.75,0,0,1,.63-.25.8.8,0,0,1,.65.25.92.92,0,0,1,0,1.17.83.83,0,0,1-.65.24.79.79,0,0,1-.85-.73ZM158,131h-1.45v-8.45H158Z"/><path class="cls-3" d="M164.35,123.82a4.17,4.17,0,0,0-.71-.06,1.91,1.91,0,0,0-1.93,1.21v6h-1.44v-8.45h1.4v1a2.22,2.22,0,0,1,2-1.14,1.54,1.54,0,0,1,.64.11Z"/><path class="cls-3" d="M16.1,151.16A3.69,3.69,0,0,1,13.3,150a4.2,4.2,0,0,1-1.08-3v-.26a5.12,5.12,0,0,1,.48-2.25A3.82,3.82,0,0,1,14.05,143a3.34,3.34,0,0,1,1.87-.56,3.16,3.16,0,0,1,2.59,1.07,4.69,4.69,0,0,1,.91,3.11v.6H13.67a3,3,0,0,0,.73,2,2.31,2.31,0,0,0,1.77.77,2.48,2.48,0,0,0,1.3-.31,3.21,3.21,0,0,0,.93-.83l.88.69A3.52,3.52,0,0,1,16.1,151.16Zm-.18-7.58a1.91,1.91,0,0,0-1.47.64,3.08,3.08,0,0,0-.74,1.78H18v-.11a2.69,2.69,0,0,0-.6-1.7A1.78,1.78,0,0,0,15.92,143.58Z"/><path class="cls-3" d="M22.64,151H21.19V139h1.45Z"/><path class="cls-3" d="M36.05,146.87a5,5,0,0,1-.88,3.11,2.83,2.83,0,0,1-2.39,1.18,3.1,3.1,0,0,1-2.43-1v4.07H28.91v-11.7h1.32l.07.94a3,3,0,0,1,2.45-1.1,2.92,2.92,0,0,1,2.41,1.15,5.12,5.12,0,0,1,.89,3.2Zm-1.45-.16a3.7,3.7,0,0,0-.61-2.26,2,2,0,0,0-1.67-.83,2.13,2.13,0,0,0-2,1.17v4a2.14,2.14,0,0,0,2,1.16,2,2,0,0,0,1.65-.82A4.06,4.06,0,0,0,34.6,146.71Z"/><path class="cls-3" d="M42,143.82a4.17,4.17,0,0,0-.71-.06A1.91,1.91,0,0,0,39.33,145v6H37.89v-8.45h1.4v1a2.22,2.22,0,0,1,2-1.14,1.54,1.54,0,0,1,.64.11Z"/><path class="cls-3" d="M42.76,146.7a4.91,4.91,0,0,1,.49-2.23,3.62,3.62,0,0,1,1.36-1.54,3.71,3.71,0,0,1,2-.54,3.54,3.54,0,0,1,2.79,1.2,4.6,4.6,0,0,1,1.11,3.23v.1a5,5,0,0,1-.48,2.22,3.49,3.49,0,0,1-1.35,1.52,3.7,3.7,0,0,1-2,.55A3.57,3.57,0,0,1,43.9,150a4.63,4.63,0,0,1-1.14-3.2Zm1.45.17a3.58,3.58,0,0,0,.66,2.26,2.21,2.21,0,0,0,3.1.39,1.8,1.8,0,0,0,.39-.39,4,4,0,0,0,.65-2.42,3.55,3.55,0,0,0-.66-2.25,2.19,2.19,0,0,0-3.07-.41,2.65,2.65,0,0,0-.41.41A3.9,3.9,0,0,0,44.21,146.87Z"/><path class="cls-3" d="M59.42,146.87a5,5,0,0,1-.89,3.11,2.83,2.83,0,0,1-2.39,1.18A3,3,0,0,1,53.67,150l-.07,1H52.27V139h1.44v4.48a3,3,0,0,1,2.42-1.09,2.88,2.88,0,0,1,2.38,1.14,5.23,5.23,0,0,1,.87,3.19ZM58,146.71a3.89,3.89,0,0,0-.57-2.28,1.9,1.9,0,0,0-1.64-.81A2.13,2.13,0,0,0,53.71,145v3.66a2.21,2.21,0,0,0,2.07,1.32,1.87,1.87,0,0,0,1.62-.8A4.11,4.11,0,0,0,58,146.71Z"/><path class="cls-3" d="M62.82,151H61.37V139h1.45Z"/><path class="cls-3" d="M68.64,151.16a3.69,3.69,0,0,1-2.8-1.13,4.2,4.2,0,0,1-1.08-3v-.26a5.12,5.12,0,0,1,.48-2.25A3.86,3.86,0,0,1,66.58,143a3.4,3.4,0,0,1,1.88-.56A3.16,3.16,0,0,1,71,143.5a4.69,4.69,0,0,1,.91,3.11v.6H66.21a3,3,0,0,0,.73,2,2.27,2.27,0,0,0,1.77.77,2.48,2.48,0,0,0,1.3-.31,3.51,3.51,0,0,0,.93-.83l.88.69A3.54,3.54,0,0,1,68.64,151.16Zm-.13-7.58a1.91,1.91,0,0,0-1.47.64A3.08,3.08,0,0,0,66.3,146h4.21v-.11a2.69,2.69,0,0,0-.6-1.7A1.79,1.79,0,0,0,68.51,143.58Z"/><path class="cls-3" d="M75,142.55v.94a3.13,3.13,0,0,1,2.51-1.1,2.42,2.42,0,0,1,2.41,1.36,3.4,3.4,0,0,1,1.1-1,3.28,3.28,0,0,1,1.6-.38c1.85,0,2.8,1,2.83,3V151H84v-5.57a2,2,0,0,0-.41-1.36,1.81,1.81,0,0,0-1.39-.45,1.94,1.94,0,0,0-1.34.48,2,2,0,0,0-.62,1.29V151H78.79V145.5a1.61,1.61,0,0,0-1.34-1.84,1.42,1.42,0,0,0-.46,0,1.93,1.93,0,0,0-2,1.21V151H73.6v-8.45Z"/><path class="cls-3" d="M92.85,151a2.69,2.69,0,0,1-.21-.89,3.18,3.18,0,0,1-2.4,1,3,3,0,0,1-2-.71,2.27,2.27,0,0,1-.8-1.79,2.37,2.37,0,0,1,1-2,4.69,4.69,0,0,1,2.82-.73h1.41v-.66a1.63,1.63,0,0,0-.45-1.21,1.87,1.87,0,0,0-1.34-.45,2.1,2.1,0,0,0-1.3.39,1.13,1.13,0,0,0-.52.94H87.61a2,2,0,0,1,.45-1.22,3,3,0,0,1,1.22-.93,3.94,3.94,0,0,1,1.69-.35,3.34,3.34,0,0,1,2.29.74,2.66,2.66,0,0,1,.86,2V149a4.66,4.66,0,0,0,.29,1.85V151Zm-2.4-1.1a2.55,2.55,0,0,0,1.29-.35,2.09,2.09,0,0,0,.88-.91V146.9H91.51c-1.77,0-2.66.52-2.66,1.56a1.34,1.34,0,0,0,.45,1.06,1.77,1.77,0,0,0,1.15.38Z"/><path class="cls-3" d="M99.94,146.71a5,5,0,0,1,.92-3.13,3.13,3.13,0,0,1,4.4-.52,3.06,3.06,0,0,1,.37.35V139h1.44v12h-1.33l-.07-.9a2.9,2.9,0,0,1-2.41,1.06,2.86,2.86,0,0,1-2.39-1.2,5,5,0,0,1-.93-3.14Zm1.45.16a3.74,3.74,0,0,0,.59,2.25,1.9,1.9,0,0,0,1.64.81,2.12,2.12,0,0,0,2-1.23v-3.88a2.12,2.12,0,0,0-2-1.2,1.92,1.92,0,0,0-1.66.82A4.06,4.06,0,0,0,101.39,146.87Z"/><path class="cls-3" d="M112.82,151.16A3.67,3.67,0,0,1,110,150a4.2,4.2,0,0,1-1.08-3v-.26a5.12,5.12,0,0,1,.48-2.25,3.86,3.86,0,0,1,1.34-1.55,3.47,3.47,0,0,1,1.87-.56,3.18,3.18,0,0,1,2.57,1.09,4.69,4.69,0,0,1,.91,3.11v.6h-5.73a3,3,0,0,0,.73,2,2.31,2.31,0,0,0,1.78.77,2.48,2.48,0,0,0,1.3-.31,3.51,3.51,0,0,0,.93-.83l.88.69A3.55,3.55,0,0,1,112.82,151.16Zm-.18-7.58a1.91,1.91,0,0,0-1.47.64,3.07,3.07,0,0,0-.73,1.78h4.23v-.11a2.74,2.74,0,0,0-.59-1.7A1.79,1.79,0,0,0,112.64,143.58Z"/><path class="cls-3" d="M121.4,146.71a5,5,0,0,1,.92-3.13,3.13,3.13,0,0,1,4.4-.52,3.06,3.06,0,0,1,.37.35V139h1.42v12h-1.3l-.07-.9a3,3,0,0,1-2.42,1.06,2.86,2.86,0,0,1-2.39-1.2,5,5,0,0,1-.93-3.14Zm1.45.16a3.74,3.74,0,0,0,.59,2.25,1.92,1.92,0,0,0,1.64.81,2.12,2.12,0,0,0,2-1.23v-3.88a2.12,2.12,0,0,0-2-1.2,1.92,1.92,0,0,0-1.66.82A4.06,4.06,0,0,0,122.85,146.87Z"/><path class="cls-3" d="M134.28,151.16a3.67,3.67,0,0,1-2.79-1.13,4.2,4.2,0,0,1-1.08-3v-.26a5.12,5.12,0,0,1,.48-2.25,3.86,3.86,0,0,1,1.34-1.55,3.47,3.47,0,0,1,1.87-.56,3.18,3.18,0,0,1,2.57,1.09,4.69,4.69,0,0,1,.91,3.11v.6h-5.73a3,3,0,0,0,.73,2,2.31,2.31,0,0,0,1.78.77,2.48,2.48,0,0,0,1.3-.31,3.51,3.51,0,0,0,.93-.83l.88.69A3.55,3.55,0,0,1,134.28,151.16Zm-.18-7.58a1.89,1.89,0,0,0-1.46.64,3,3,0,0,0-.74,1.78h4.24v-.11a2.69,2.69,0,0,0-.6-1.7,1.79,1.79,0,0,0-1.44-.61Z"/><path class="cls-3" d="M142.64,150a2.08,2.08,0,0,0,1.35-.47,1.66,1.66,0,0,0,.65-1.17H146a2.55,2.55,0,0,1-.5,1.38,3.24,3.24,0,0,1-1.23,1,3.53,3.53,0,0,1-1.63.39A3.44,3.44,0,0,1,139.9,150a4.6,4.6,0,0,1-1-3.15v-.25a5.18,5.18,0,0,1,.45-2.19,3.48,3.48,0,0,1,1.3-1.49,3.63,3.63,0,0,1,2-.54,3.36,3.36,0,0,1,2.36.86,3,3,0,0,1,1,2.21h-1.36a2,2,0,0,0-.63-1.35,1.93,1.93,0,0,0-1.37-.53,2,2,0,0,0-1.71.8,3.64,3.64,0,0,0-.61,2.29v.27a3.64,3.64,0,0,0,.6,2.25A2,2,0,0,0,142.64,150Z"/><path class="cls-3" d="M147.64,140.31a.84.84,0,0,1,.21-.59.94.94,0,0,1,1.28,0,.85.85,0,0,1,.22.59.79.79,0,0,1-.76.82h-.1a.81.81,0,0,1-.64-.24A.83.83,0,0,1,147.64,140.31ZM149.2,151h-1.45v-8.45h1.45Z"/><path class="cls-3" d="M156.43,148.76a1.08,1.08,0,0,0-.44-.91,4.46,4.46,0,0,0-1.54-.56,7.07,7.07,0,0,1-1.74-.56,2.48,2.48,0,0,1-1-.78,1.89,1.89,0,0,1-.31-1.08,2.18,2.18,0,0,1,.88-1.76,3.42,3.42,0,0,1,2.24-.72,3.53,3.53,0,0,1,2.34.75,2.34,2.34,0,0,1,.89,1.9h-1.45a1.32,1.32,0,0,0-.51-1,2,2,0,0,0-1.27-.43,2,2,0,0,0-1.23.35,1.05,1.05,0,0,0-.45.89.86.86,0,0,0,.42.79,5,5,0,0,0,1.49.51,7.73,7.73,0,0,1,1.76.58,2.33,2.33,0,0,1,1,.81,2,2,0,0,1,.33,1.15,2.16,2.16,0,0,1-.91,1.82,3.79,3.79,0,0,1-2.35.68,4.29,4.29,0,0,1-1.8-.36,2.9,2.9,0,0,1-1.22-1,2.42,2.42,0,0,1-.44-1.4h1.44a1.49,1.49,0,0,0,.59,1.15,2.22,2.22,0,0,0,1.43.43,2.36,2.36,0,0,0,1.32-.33A1,1,0,0,0,156.43,148.76Z"/><path class="cls-3" d="M159.77,140.31a.84.84,0,0,1,.21-.59.93.93,0,0,1,1.28,0,.81.81,0,0,1,.22.59.78.78,0,0,1-.22.58.85.85,0,0,1-1.49-.58ZM161.33,151h-1.44v-8.45h1.44Z"/><path class="cls-3" d="M163.26,146.7a4.91,4.91,0,0,1,.49-2.23,3.62,3.62,0,0,1,1.36-1.54,3.71,3.71,0,0,1,2-.54,3.54,3.54,0,0,1,2.79,1.2,4.65,4.65,0,0,1,1.07,3.18v.1a5,5,0,0,1-.48,2.22,3.49,3.49,0,0,1-1.35,1.52,3.7,3.7,0,0,1-2,.55,3.57,3.57,0,0,1-2.78-1.19,4.64,4.64,0,0,1-1.07-3.17Zm1.45.17a3.58,3.58,0,0,0,.66,2.26,2.21,2.21,0,0,0,3.1.39,1.8,1.8,0,0,0,.39-.39,4,4,0,0,0,.65-2.42,3.55,3.55,0,0,0-.66-2.25,2.19,2.19,0,0,0-3.07-.41,2.65,2.65,0,0,0-.41.41A3.9,3.9,0,0,0,164.71,146.87Zm3-7.85h1.8l-2.09,2.3h-1.17Z"/><path class="cls-3" d="M174.14,142.55v1.06a3.09,3.09,0,0,1,2.53-1.22c1.79,0,2.69,1,2.71,3V151h-1.45v-5.59a1.88,1.88,0,0,0-.42-1.35,1.65,1.65,0,0,0-1.27-.44A2.11,2.11,0,0,0,175,144a2.6,2.6,0,0,0-.83,1v6h-1.44v-8.45Z"/></g><g id="Identificar_cursos_de_acción" data-name="Identificar cursos de acción"><path class="cls-3" d="M258.36,131h-1.5V119.63h1.5Z"/><path class="cls-3" d="M260.51,126.71a5,5,0,0,1,.92-3.13,3.13,3.13,0,0,1,4.4-.52,3.06,3.06,0,0,1,.37.35V119h1.45v12h-1.33l-.07-.9a3,3,0,0,1-2.42,1.06,2.86,2.86,0,0,1-2.39-1.2,5,5,0,0,1-.93-3.14Zm1.45.16a3.81,3.81,0,0,0,.59,2.25,1.92,1.92,0,0,0,1.64.81,2.12,2.12,0,0,0,2-1.23v-3.88a2.12,2.12,0,0,0-2-1.2,1.92,1.92,0,0,0-1.66.82,4.2,4.2,0,0,0-.56,2.43Z"/><path class="cls-3" d="M273.41,131.16a3.69,3.69,0,0,1-2.8-1.13,4.2,4.2,0,0,1-1.08-3v-.26a5.12,5.12,0,0,1,.48-2.25,3.86,3.86,0,0,1,1.34-1.55,3.4,3.4,0,0,1,1.88-.56,3.16,3.16,0,0,1,2.56,1.09,4.69,4.69,0,0,1,.91,3.11v.6H271a3,3,0,0,0,.73,2,2.27,2.27,0,0,0,1.77.77,2.48,2.48,0,0,0,1.3-.31,3.51,3.51,0,0,0,.93-.83l.88.69A3.54,3.54,0,0,1,273.41,131.16Zm-.18-7.58a1.91,1.91,0,0,0-1.47.64A3.08,3.08,0,0,0,271,126h4.24v-.11a2.69,2.69,0,0,0-.6-1.7A1.78,1.78,0,0,0,273.23,123.58Z"/><path class="cls-3" d="M279.74,122.55v1.06a3.09,3.09,0,0,1,2.53-1.22q2.69,0,2.7,3V131h-1.44v-5.59a2,2,0,0,0-.42-1.35,1.68,1.68,0,0,0-1.28-.44,2.08,2.08,0,0,0-1.23.38,2.45,2.45,0,0,0-.83,1v6h-1.45v-8.45Z"/><path class="cls-3" d="M289.16,120.5v2h1.58v1.12h-1.58v5.25a1.14,1.14,0,0,0,.21.76.87.87,0,0,0,.72.25,4.08,4.08,0,0,0,.69-.09V131a4.18,4.18,0,0,1-1.11.15,1.8,1.8,0,0,1-1.46-.59,2.49,2.49,0,0,1-.49-1.66v-5.24h-1.54V122.5h1.54v-2Z"/><path class="cls-3" d="M292.44,120.31a.84.84,0,0,1,.21-.59.94.94,0,0,1,1.28,0,.85.85,0,0,1,.22.59.79.79,0,0,1-.76.82h-.1a.81.81,0,0,1-.64-.24A.83.83,0,0,1,292.44,120.31ZM294,131h-1.49v-8.45H294Z"/><path class="cls-3" d="M297,131v-7.33h-1.33v-1.12H297v-.87a2.84,2.84,0,0,1,.73-2.1,2.72,2.72,0,0,1,2.05-.74,3.76,3.76,0,0,1,1,.13l-.08,1.17a4.11,4.11,0,0,0-.78-.07,1.39,1.39,0,0,0-1.09.41,1.63,1.63,0,0,0-.38,1.18v.89h1.8v1.12h-1.76V131Z"/><path class="cls-3" d="M301.87,120.31a.85.85,0,0,1,.22-.59.94.94,0,0,1,1.28,0,.85.85,0,0,1,.22.59.79.79,0,0,1-.76.82h-.1a.81.81,0,0,1-.64-.24A.84.84,0,0,1,301.87,120.31ZM303.44,131H302v-8.45h1.45Z"/><path class="cls-3" d="M309.14,130a2.08,2.08,0,0,0,1.35-.47,1.65,1.65,0,0,0,.64-1.17h1.38a2.55,2.55,0,0,1-.5,1.38,3.32,3.32,0,0,1-1.23,1,3.53,3.53,0,0,1-1.63.39A3.47,3.47,0,0,1,306.4,130a4.6,4.6,0,0,1-1-3.15v-.25a5,5,0,0,1,.46-2.19,3.42,3.42,0,0,1,1.3-1.49,3.63,3.63,0,0,1,2-.54,3.39,3.39,0,0,1,2.37.86,3,3,0,0,1,1,2.21h-1.37a2,2,0,0,0-.62-1.35,2,2,0,0,0-1.38-.53,2,2,0,0,0-1.7.8,3.64,3.64,0,0,0-.61,2.29v.27a3.64,3.64,0,0,0,.6,2.25A2,2,0,0,0,309.14,130Z"/><path class="cls-3" d="M319.34,131a3,3,0,0,1-.2-.89,3.2,3.2,0,0,1-2.41,1,3,3,0,0,1-2.05-.71,2.31,2.31,0,0,1-.8-1.79,2.4,2.4,0,0,1,1-2,4.69,4.69,0,0,1,2.82-.73h1.41v-.66a1.6,1.6,0,0,0-.46-1.21,1.79,1.79,0,0,0-1.33-.45,2.1,2.1,0,0,0-1.3.39,1.13,1.13,0,0,0-.52.94H314a2,2,0,0,1,.45-1.22,3,3,0,0,1,1.22-.93,4.1,4.1,0,0,1,1.69-.35,3.33,3.33,0,0,1,2.29.74,2.62,2.62,0,0,1,.86,2V129a4.86,4.86,0,0,0,.3,1.85V131Zm-2.4-1.1a2.45,2.45,0,0,0,1.29-.35,2.17,2.17,0,0,0,.89-.91V126.9H318c-1.77,0-2.65.52-2.65,1.56a1.34,1.34,0,0,0,.45,1.06,1.74,1.74,0,0,0,1.16.38Z"/><path class="cls-3" d="M326.91,123.82a4.17,4.17,0,0,0-.71-.06,1.91,1.91,0,0,0-1.93,1.21v6h-1.44v-8.45h1.4v1a2.22,2.22,0,0,1,2-1.14,1.54,1.54,0,0,1,.64.11Z"/><path class="cls-3" d="M235,150a2.08,2.08,0,0,0,1.35-.47,1.65,1.65,0,0,0,.64-1.17h1.37a2.55,2.55,0,0,1-.5,1.38,3.32,3.32,0,0,1-1.23,1,3.53,3.53,0,0,1-1.63.39,3.47,3.47,0,0,1-2.75-1.15,4.6,4.6,0,0,1-1-3.15v-.25a5.16,5.16,0,0,1,.46-2.19,3.42,3.42,0,0,1,1.3-1.49,3.63,3.63,0,0,1,2-.54,3.39,3.39,0,0,1,2.37.86,3,3,0,0,1,1,2.21H237a2,2,0,0,0-.62-1.35,2,2,0,0,0-1.38-.53,2,2,0,0,0-1.7.8,3.64,3.64,0,0,0-.61,2.29v.27a3.64,3.64,0,0,0,.6,2.25A2,2,0,0,0,235,150Z"/><path class="cls-3" d="M245.21,150.17a3.08,3.08,0,0,1-2.47,1,2.64,2.64,0,0,1-2.06-.78,3.43,3.43,0,0,1-.72-2.33v-5.5h1.45V148q0,1.92,1.56,1.92a2.16,2.16,0,0,0,2.2-1.23v-6.15h1.45V151h-1.38Z"/><path class="cls-3" d="M252.9,143.82a4.17,4.17,0,0,0-.71-.06,1.91,1.91,0,0,0-1.93,1.21v6h-1.45v-8.45h1.41v1a2.27,2.27,0,0,1,2-1.14,1.54,1.54,0,0,1,.64.11Z"/><path class="cls-3" d="M259.15,148.76a1.08,1.08,0,0,0-.44-.91,4.46,4.46,0,0,0-1.54-.56,7.07,7.07,0,0,1-1.74-.56,2.55,2.55,0,0,1-1-.78,1.88,1.88,0,0,1-.3-1.08,2.18,2.18,0,0,1,.88-1.76,3.42,3.42,0,0,1,2.24-.72,3.51,3.51,0,0,1,2.33.75,2.35,2.35,0,0,1,.9,1.9H259a1.31,1.31,0,0,0-.5-1A2.2,2.2,0,0,0,256,144a1.05,1.05,0,0,0-.45.89.86.86,0,0,0,.42.79,5,5,0,0,0,1.49.51,7.73,7.73,0,0,1,1.76.58,2.55,2.55,0,0,1,1,.81,2,2,0,0,1,.33,1.15,2.16,2.16,0,0,1-.91,1.82,3.79,3.79,0,0,1-2.35.68,4.3,4.3,0,0,1-1.8-.37,2.9,2.9,0,0,1-1.22-1,2.42,2.42,0,0,1-.44-1.4h1.44a1.49,1.49,0,0,0,.58,1.15,2.25,2.25,0,0,0,1.44.43,2.31,2.31,0,0,0,1.31-.33A1,1,0,0,0,259.15,148.76Z"/><path class="cls-3" d="M262.1,146.7a5.06,5.06,0,0,1,.48-2.23,3.59,3.59,0,0,1,3.36-2.08,3.54,3.54,0,0,1,2.79,1.2,4.56,4.56,0,0,1,1.07,3.18v.1a5.15,5.15,0,0,1-.47,2.22,3.61,3.61,0,0,1-3.35,2.07,3.57,3.57,0,0,1-2.79-1.19,4.59,4.59,0,0,1-1.06-3.17Zm1.45.17a3.65,3.65,0,0,0,.65,2.26,2.22,2.22,0,0,0,3.12.38,2.28,2.28,0,0,0,.38-.38,4,4,0,0,0,.65-2.42,3.55,3.55,0,0,0-.66-2.25,2.12,2.12,0,0,0-1.76-.87,2.08,2.08,0,0,0-1.72.85,3.89,3.89,0,0,0-.7,2.43Z"/><path class="cls-3" d="M276.51,148.76a1.09,1.09,0,0,0-.45-.91,4.41,4.41,0,0,0-1.53-.56,7.15,7.15,0,0,1-1.75-.56,2.55,2.55,0,0,1-1-.78,1.89,1.89,0,0,1-.31-1.08,2.18,2.18,0,0,1,.88-1.76,3.45,3.45,0,0,1,2.25-.72,3.51,3.51,0,0,1,2.33.75,2.34,2.34,0,0,1,.89,1.9h-1.45a1.31,1.31,0,0,0-.5-1,2,2,0,0,0-1.27-.43,2,2,0,0,0-1.24.35,1.08,1.08,0,0,0-.44.89.87.87,0,0,0,.41.79,5,5,0,0,0,1.5.51,7.82,7.82,0,0,1,1.75.58,2.55,2.55,0,0,1,1,.81,2,2,0,0,1,.32,1.15,2.16,2.16,0,0,1-.91,1.82,3.79,3.79,0,0,1-2.35.68,4.22,4.22,0,0,1-1.79-.36,3,3,0,0,1-1.23-1,2.42,2.42,0,0,1-.44-1.4h1.45a1.45,1.45,0,0,0,.58,1.15,2.22,2.22,0,0,0,1.43.43,2.36,2.36,0,0,0,1.32-.33A1,1,0,0,0,276.51,148.76Z"/><path class="cls-3" d="M283.51,146.71a4.88,4.88,0,0,1,.93-3.13,3.12,3.12,0,0,1,4.38-.52,2.5,2.5,0,0,1,.38.35V139h1.45v12h-1.33l-.07-.9a3,3,0,0,1-2.42,1.06,2.86,2.86,0,0,1-2.39-1.2,5,5,0,0,1-.93-3.14Zm1.45.16a3.81,3.81,0,0,0,.59,2.25,1.92,1.92,0,0,0,1.64.81,2.12,2.12,0,0,0,2-1.23v-3.88a2.12,2.12,0,0,0-2-1.2,1.92,1.92,0,0,0-1.66.82,4.17,4.17,0,0,0-.62,2.43Z"/><path class="cls-3" d="M296.35,151.16a3.69,3.69,0,0,1-2.8-1.13,4.2,4.2,0,0,1-1.08-3v-.26a5.12,5.12,0,0,1,.48-2.25A3.82,3.82,0,0,1,294.3,143a3.36,3.36,0,0,1,1.87-.56,3.16,3.16,0,0,1,2.56,1.09,4.69,4.69,0,0,1,.91,3.11v.6h-5.72a3,3,0,0,0,.73,2,2.31,2.31,0,0,0,1.77.77,2.48,2.48,0,0,0,1.3-.31,3.36,3.36,0,0,0,.93-.83l.88.69A3.54,3.54,0,0,1,296.35,151.16Zm-.18-7.58a1.91,1.91,0,0,0-1.47.64A3.08,3.08,0,0,0,294,146h4.24v-.11a2.69,2.69,0,0,0-.6-1.7A1.78,1.78,0,0,0,296.17,143.58Z"/><path class="cls-3" d="M310.51,151a3,3,0,0,1-.2-.89,3.18,3.18,0,0,1-2.4,1,3,3,0,0,1-2.06-.71,2.31,2.31,0,0,1-.8-1.79,2.4,2.4,0,0,1,1-2,4.69,4.69,0,0,1,2.82-.73h1.41v-.66a1.6,1.6,0,0,0-.46-1.21,1.79,1.79,0,0,0-1.33-.45,2.1,2.1,0,0,0-1.3.39,1.13,1.13,0,0,0-.52.94h-1.46a2,2,0,0,1,.44-1.22,3,3,0,0,1,1.22-.93,4.26,4.26,0,0,1,1.69-.35,3.33,3.33,0,0,1,2.29.74,2.59,2.59,0,0,1,.86,2V149a4.86,4.86,0,0,0,.3,1.85V151Zm-2.39-1.1a2.55,2.55,0,0,0,1.29-.35,2.09,2.09,0,0,0,.88-.91V146.9h-1.13c-1.78,0-2.66.52-2.66,1.56a1.34,1.34,0,0,0,.45,1.06,1.77,1.77,0,0,0,1.15.38Z"/><path class="cls-3" d="M317.37,150a2.08,2.08,0,0,0,1.35-.47,1.65,1.65,0,0,0,.64-1.17h1.37a2.55,2.55,0,0,1-.5,1.38,3.32,3.32,0,0,1-1.23,1,3.53,3.53,0,0,1-1.63.39,3.47,3.47,0,0,1-2.75-1.15,4.6,4.6,0,0,1-1-3.15v-.25a5,5,0,0,1,.46-2.19,3.42,3.42,0,0,1,1.3-1.49,3.63,3.63,0,0,1,2-.54,3.36,3.36,0,0,1,2.36.86,3,3,0,0,1,1,2.21h-1.37a2,2,0,0,0-.62-1.35,2.15,2.15,0,0,0-3.09.27,3.78,3.78,0,0,0-.6,2.29v.27a3.64,3.64,0,0,0,.6,2.25A2,2,0,0,0,317.37,150Z"/><path class="cls-3" d="M325.74,150a2.1,2.1,0,0,0,1.36-.47,1.7,1.7,0,0,0,.64-1.17h1.36a2.55,2.55,0,0,1-.5,1.38,3.15,3.15,0,0,1-1.23,1,3.53,3.53,0,0,1-1.63.39A3.44,3.44,0,0,1,323,150a4.6,4.6,0,0,1-1-3.15v-.25a5.18,5.18,0,0,1,.45-2.19,3.48,3.48,0,0,1,1.3-1.49,3.63,3.63,0,0,1,2-.54,3.36,3.36,0,0,1,2.36.86,3,3,0,0,1,1,2.21h-1.36a2,2,0,0,0-.62-1.35,2.15,2.15,0,0,0-3.09.27,3.72,3.72,0,0,0-.61,2.29v.27a3.59,3.59,0,0,0,.61,2.25A2,2,0,0,0,325.74,150Z"/><path class="cls-3" d="M330.74,140.31a.84.84,0,0,1,.21-.59.94.94,0,0,1,1.28,0,.85.85,0,0,1,.22.59.79.79,0,0,1-.76.82h-.1a.81.81,0,0,1-.64-.24A.83.83,0,0,1,330.74,140.31ZM332.3,151h-1.45v-8.45h1.45Z"/><path class="cls-3" d="M334.23,146.7a4.91,4.91,0,0,1,.49-2.23,3.59,3.59,0,0,1,3.36-2.08,3.56,3.56,0,0,1,2.8,1.2,4.59,4.59,0,0,1,1.06,3.18v.1a5,5,0,0,1-.47,2.22,3.49,3.49,0,0,1-1.35,1.52,3.7,3.7,0,0,1-2,.55,3.54,3.54,0,0,1-2.78-1.19,4.53,4.53,0,0,1-1.07-3.17Zm1.45.17a3.65,3.65,0,0,0,.65,2.26,2.22,2.22,0,0,0,3.12.38,2.28,2.28,0,0,0,.38-.38,4,4,0,0,0,.65-2.42,3.55,3.55,0,0,0-.66-2.25,2.19,2.19,0,0,0-3.07-.41,2.65,2.65,0,0,0-.41.41A3.9,3.9,0,0,0,335.68,146.87Zm3-7.85h1.83l-2.09,2.3h-1.21Z"/><path class="cls-3" d="M345.1,142.55l0,1.06a3.09,3.09,0,0,1,2.53-1.22c1.79,0,2.69,1,2.71,3V151h-1.45v-5.59a1.88,1.88,0,0,0-.42-1.35,1.68,1.68,0,0,0-1.28-.44A2.08,2.08,0,0,0,346,144a2.6,2.6,0,0,0-.83,1v6h-1.44v-8.45Z"/></g><g id="Evaluar_costos_de_acción" data-name="Evaluar costos de acción"><path class="cls-3" d="M501.73,125.75H496.8v4h5.71V131h-7.22V119.63h7.14v1.19h-5.64v3.66h4.93Z"/><path class="cls-3" d="M506.75,129l2.09-6.49h1.48l-3,8.45h-1.1l-3.07-8.45h1.48Z"/><path class="cls-3" d="M516.81,131a3,3,0,0,1-.2-.89,3.2,3.2,0,0,1-2.41,1,3,3,0,0,1-2.05-.71,2.31,2.31,0,0,1-.8-1.79,2.4,2.4,0,0,1,1-2,4.7,4.7,0,0,1,2.83-.73h1.41v-.66a1.64,1.64,0,0,0-.46-1.21,1.79,1.79,0,0,0-1.33-.45,2.1,2.1,0,0,0-1.3.39,1.13,1.13,0,0,0-.52.94h-1.47a2,2,0,0,1,.45-1.22,3,3,0,0,1,1.22-.93,4.1,4.1,0,0,1,1.69-.35,3.33,3.33,0,0,1,2.29.74,2.62,2.62,0,0,1,.86,2V129a4.86,4.86,0,0,0,.3,1.85V131Zm-2.4-1.1a2.45,2.45,0,0,0,1.29-.35,2.17,2.17,0,0,0,.89-.91V126.9h-1.14c-1.77,0-2.65.52-2.65,1.56a1.34,1.34,0,0,0,.45,1.06,1.74,1.74,0,0,0,1.16.38Z"/><path class="cls-3" d="M521.87,131h-1.45V119h1.45Z"/><path class="cls-3" d="M529.4,130.17a3.09,3.09,0,0,1-2.48,1,2.64,2.64,0,0,1-2.06-.78,3.37,3.37,0,0,1-.71-2.33v-5.5h1.44V128c0,1.28.52,1.92,1.57,1.92a2.17,2.17,0,0,0,2.2-1.23v-6.15h1.44V131h-1.37Z"/><path class="cls-3" d="M538.22,131a2.69,2.69,0,0,1-.21-.89,3.18,3.18,0,0,1-2.4,1,3,3,0,0,1-2.05-.71,2.27,2.27,0,0,1-.8-1.79,2.37,2.37,0,0,1,1-2,4.7,4.7,0,0,1,2.83-.73H538v-.66a1.63,1.63,0,0,0-.45-1.21,1.83,1.83,0,0,0-1.34-.45,2.05,2.05,0,0,0-1.29.39,1.16,1.16,0,0,0-.53.94h-1.45a2,2,0,0,1,.45-1.22,3,3,0,0,1,1.22-.93,3.94,3.94,0,0,1,1.69-.35,3.33,3.33,0,0,1,2.29.74,2.62,2.62,0,0,1,.86,2V129a5.05,5.05,0,0,0,.29,1.85V131Zm-2.4-1.1a2.55,2.55,0,0,0,1.29-.35,2.09,2.09,0,0,0,.88-.91V126.9h-1.13c-1.77,0-2.66.52-2.66,1.56a1.3,1.3,0,0,0,.46,1.06,1.74,1.74,0,0,0,1.16.38Z"/><path class="cls-3" d="M545.79,123.82a4.17,4.17,0,0,0-.71-.06,1.91,1.91,0,0,0-1.93,1.21v6H541.7v-8.45h1.41v1a2.27,2.27,0,0,1,2-1.14,1.54,1.54,0,0,1,.64.11Z"/><path class="cls-3" d="M464,150a2.08,2.08,0,0,0,1.35-.47,1.65,1.65,0,0,0,.64-1.17h1.37a2.55,2.55,0,0,1-.5,1.38,3.32,3.32,0,0,1-1.23,1,3.53,3.53,0,0,1-1.63.39,3.47,3.47,0,0,1-2.75-1.15,4.6,4.6,0,0,1-1-3.15v-.25a5.16,5.16,0,0,1,.46-2.19,3.42,3.42,0,0,1,1.3-1.49,3.63,3.63,0,0,1,2-.54,3.39,3.39,0,0,1,2.37.86,3,3,0,0,1,1,2.21H466a2,2,0,0,0-.62-1.35,2,2,0,0,0-1.38-.53,2,2,0,0,0-1.7.8,3.64,3.64,0,0,0-.61,2.29v.27a3.64,3.64,0,0,0,.6,2.25A2,2,0,0,0,464,150Z"/><path class="cls-3" d="M468.63,146.7a4.91,4.91,0,0,1,.49-2.23,3.58,3.58,0,0,1,3.35-2.08,3.54,3.54,0,0,1,2.79,1.2,4.65,4.65,0,0,1,1.07,3.18v.1a5,5,0,0,1-.48,2.22,3.49,3.49,0,0,1-1.35,1.52,3.7,3.7,0,0,1-2,.55,3.57,3.57,0,0,1-2.78-1.19,4.64,4.64,0,0,1-1.07-3.17Zm1.45.17a3.58,3.58,0,0,0,.66,2.26,2.21,2.21,0,0,0,3.1.39,1.8,1.8,0,0,0,.39-.39,3.9,3.9,0,0,0,.65-2.42,3.55,3.55,0,0,0-.66-2.25,2.19,2.19,0,0,0-3.07-.41,2.65,2.65,0,0,0-.41.41A3.9,3.9,0,0,0,470.08,146.87Z"/><path class="cls-3" d="M483.06,148.76a1.08,1.08,0,0,0-.44-.91,4.46,4.46,0,0,0-1.54-.56,7.07,7.07,0,0,1-1.74-.56,2.48,2.48,0,0,1-.95-.78,1.89,1.89,0,0,1-.31-1.08,2.18,2.18,0,0,1,.88-1.76,3.42,3.42,0,0,1,2.24-.72,3.51,3.51,0,0,1,2.33.75,2.35,2.35,0,0,1,.9,1.9H483a1.32,1.32,0,0,0-.51-1,2,2,0,0,0-1.27-.43A2,2,0,0,0,480,144a1.05,1.05,0,0,0-.45.89.86.86,0,0,0,.42.79,5,5,0,0,0,1.49.51,7.73,7.73,0,0,1,1.76.58,2.55,2.55,0,0,1,1,.81,2,2,0,0,1,.33,1.15,2.16,2.16,0,0,1-.91,1.82,3.79,3.79,0,0,1-2.35.68,4.29,4.29,0,0,1-1.8-.36,2.9,2.9,0,0,1-1.22-1,2.42,2.42,0,0,1-.44-1.4h1.44a1.49,1.49,0,0,0,.59,1.15,2.22,2.22,0,0,0,1.43.43,2.36,2.36,0,0,0,1.32-.33A1,1,0,0,0,483.06,148.76Z"/><path class="cls-3" d="M488.35,140.5v2h1.58v1.12h-1.58v5.25a1.14,1.14,0,0,0,.21.76.87.87,0,0,0,.72.25,4.08,4.08,0,0,0,.69-.09V151a4.18,4.18,0,0,1-1.11.15,1.8,1.8,0,0,1-1.46-.59,2.49,2.49,0,0,1-.49-1.66v-5.24h-1.54V142.5h1.54v-2Z"/><path class="cls-3" d="M491.08,146.7a4.91,4.91,0,0,1,.49-2.23,3.6,3.6,0,0,1,1.35-1.54,3.8,3.8,0,0,1,2-.54,3.56,3.56,0,0,1,2.8,1.2,4.59,4.59,0,0,1,1.06,3.18v.1a5.15,5.15,0,0,1-.47,2.22,3.61,3.61,0,0,1-3.35,2.07,3.57,3.57,0,0,1-2.79-1.19,4.59,4.59,0,0,1-1.06-3.17Zm1.45.17a3.65,3.65,0,0,0,.65,2.26,2.22,2.22,0,0,0,3.12.38,2.28,2.28,0,0,0,.38-.38,4,4,0,0,0,.65-2.42,3.55,3.55,0,0,0-.66-2.25,2.12,2.12,0,0,0-1.76-.87,2.08,2.08,0,0,0-1.72.85,3.89,3.89,0,0,0-.68,2.43Z"/><path class="cls-3" d="M505.51,148.76a1.08,1.08,0,0,0-.44-.91,4.46,4.46,0,0,0-1.54-.56,7.15,7.15,0,0,1-1.75-.56,2.58,2.58,0,0,1-.95-.78,1.89,1.89,0,0,1-.31-1.08,2.22,2.22,0,0,1,.88-1.76,3.45,3.45,0,0,1,2.25-.72,3.51,3.51,0,0,1,2.33.75,2.34,2.34,0,0,1,.89,1.9h-1.45a1.31,1.31,0,0,0-.5-1,2,2,0,0,0-1.27-.43,2,2,0,0,0-1.24.35,1.08,1.08,0,0,0-.44.89.87.87,0,0,0,.41.79,5,5,0,0,0,1.5.51,7.82,7.82,0,0,1,1.75.58,2.55,2.55,0,0,1,1,.81,2,2,0,0,1,.32,1.15,2.17,2.17,0,0,1-.9,1.82,3.82,3.82,0,0,1-2.36.68,4.22,4.22,0,0,1-1.79-.36,3,3,0,0,1-1.23-1,2.42,2.42,0,0,1-.44-1.4h1.45a1.45,1.45,0,0,0,.58,1.15,2.22,2.22,0,0,0,1.43.43,2.36,2.36,0,0,0,1.32-.33A1,1,0,0,0,505.51,148.76Z"/><path class="cls-3" d="M512.44,146.71a4.88,4.88,0,0,1,.93-3.13,3.12,3.12,0,0,1,4.38-.52,2.5,2.5,0,0,1,.38.35V139h1.45v12h-1.33l-.07-.9a2.92,2.92,0,0,1-2.42,1.06,2.86,2.86,0,0,1-2.39-1.2,5,5,0,0,1-.93-3.14Zm1.45.16a3.81,3.81,0,0,0,.59,2.25,1.94,1.94,0,0,0,1.64.81,2.12,2.12,0,0,0,2-1.23v-3.88a2.12,2.12,0,0,0-2-1.2,1.92,1.92,0,0,0-1.66.82A4.21,4.21,0,0,0,513.89,146.87Z"/><path class="cls-3" d="M525.33,151.16a3.69,3.69,0,0,1-2.8-1.13,4.2,4.2,0,0,1-1.08-3v-.26a5.12,5.12,0,0,1,.48-2.25,3.82,3.82,0,0,1,1.35-1.55,3.36,3.36,0,0,1,1.87-.56,3.16,3.16,0,0,1,2.56,1.09,4.69,4.69,0,0,1,.91,3.11v.6H522.9a3,3,0,0,0,.73,2,2.28,2.28,0,0,0,1.78.77,2.42,2.42,0,0,0,1.29-.31,3.21,3.21,0,0,0,.93-.83l.88.69A3.54,3.54,0,0,1,525.33,151.16Zm-.18-7.58a1.91,1.91,0,0,0-1.47.64,3.08,3.08,0,0,0-.74,1.78h4.24v-.11a2.69,2.69,0,0,0-.6-1.7A1.78,1.78,0,0,0,525.15,143.58Z"/><path class="cls-3" d="M539.51,151a2.69,2.69,0,0,1-.21-.89,3.18,3.18,0,0,1-2.4,1,3,3,0,0,1-2-.71,2.24,2.24,0,0,1-.81-1.79,2.4,2.4,0,0,1,1-2,4.69,4.69,0,0,1,2.82-.73h1.41v-.66a1.63,1.63,0,0,0-.45-1.21,1.87,1.87,0,0,0-1.34-.45,2.1,2.1,0,0,0-1.3.39,1.13,1.13,0,0,0-.52.94h-1.45a2,2,0,0,1,.45-1.22,3,3,0,0,1,1.21-.93,4.14,4.14,0,0,1,1.7-.35,3.3,3.3,0,0,1,2.28.74,2.59,2.59,0,0,1,.86,2V149a4.86,4.86,0,0,0,.3,1.85V151Zm-2.4-1.1a2.55,2.55,0,0,0,1.29-.35,2.09,2.09,0,0,0,.88-.91V146.9h-1.13c-1.78,0-2.66.52-2.66,1.56a1.34,1.34,0,0,0,.45,1.06,1.74,1.74,0,0,0,1.14.38Z"/><path class="cls-3" d="M546.35,150a2.08,2.08,0,0,0,1.35-.47,1.65,1.65,0,0,0,.64-1.17h1.37a2.55,2.55,0,0,1-.5,1.38,3.32,3.32,0,0,1-1.23,1,3.53,3.53,0,0,1-1.63.39A3.47,3.47,0,0,1,543.6,150a4.6,4.6,0,0,1-1-3.15v-.25a5.16,5.16,0,0,1,.46-2.19,3.42,3.42,0,0,1,1.3-1.49,3.63,3.63,0,0,1,2-.54,3.39,3.39,0,0,1,2.37.86,3,3,0,0,1,1,2.21h-1.37a2,2,0,0,0-.62-1.35,2,2,0,0,0-1.38-.53,2,2,0,0,0-1.7.8,3.64,3.64,0,0,0-.61,2.29v.27a3.64,3.64,0,0,0,.6,2.25A2,2,0,0,0,546.35,150Z"/><path class="cls-3" d="M554.73,150a2.08,2.08,0,0,0,1.35-.47,1.65,1.65,0,0,0,.64-1.17h1.36a2.55,2.55,0,0,1-.5,1.38,3.15,3.15,0,0,1-1.23,1,3.52,3.52,0,0,1-1.62.39A3.47,3.47,0,0,1,552,150a4.6,4.6,0,0,1-1-3.15v-.25a5.18,5.18,0,0,1,.45-2.19,3.48,3.48,0,0,1,1.3-1.49,3.63,3.63,0,0,1,2-.54,3.36,3.36,0,0,1,2.36.86,3,3,0,0,1,1,2.21h-1.36a2,2,0,0,0-.62-1.35,2.15,2.15,0,0,0-3.09.27,3.78,3.78,0,0,0-.6,2.29v.27a3.64,3.64,0,0,0,.6,2.25A2,2,0,0,0,554.73,150Z"/><path class="cls-3" d="M559.72,140.31a.84.84,0,0,1,.21-.59.93.93,0,0,1,1.28,0,.81.81,0,0,1,.22.59.78.78,0,0,1-.22.58.85.85,0,0,1-1.49-.58ZM561.28,151h-1.45v-8.45h1.45Z"/><path class="cls-3" d="M563.21,146.7a4.91,4.91,0,0,1,.49-2.23,3.62,3.62,0,0,1,1.36-1.54,3.71,3.71,0,0,1,2-.54,3.54,3.54,0,0,1,2.79,1.2,4.62,4.62,0,0,1,1.06,3.23v.1a5,5,0,0,1-.48,2.22,3.49,3.49,0,0,1-1.35,1.52,3.7,3.7,0,0,1-2,.55A3.57,3.57,0,0,1,564.3,150a4.61,4.61,0,0,1-1.09-3.2Zm1.45.17a3.58,3.58,0,0,0,.66,2.26,2.21,2.21,0,0,0,3.1.39,1.8,1.8,0,0,0,.39-.39,4,4,0,0,0,.65-2.42,3.55,3.55,0,0,0-.66-2.25,2.19,2.19,0,0,0-3.07-.41,2.65,2.65,0,0,0-.41.41A3.9,3.9,0,0,0,564.66,146.87Zm3-7.85h1.75l-2.09,2.3h-1.17Z"/><path class="cls-3" d="M574.08,142.55v1.06a3.09,3.09,0,0,1,2.53-1.22c1.79,0,2.69,1,2.71,3V151h-1.45v-5.59a1.88,1.88,0,0,0-.42-1.35,1.65,1.65,0,0,0-1.27-.44,2.11,2.11,0,0,0-1.24.38,2.6,2.6,0,0,0-.83,1v6h-1.44v-8.45Z"/></g><g id="Seleccionar_un_curso_de_acción" data-name="Seleccionar un curso de acción"><path class="cls-3" d="M646.85,125.93a7,7,0,0,1-2.81-1.36,2.64,2.64,0,0,1-.88-2,2.76,2.76,0,0,1,1.08-2.22,4.32,4.32,0,0,1,2.79-.88,4.59,4.59,0,0,1,2.09.46,3.3,3.3,0,0,1,1.42,1.25,3.16,3.16,0,0,1,.51,1.74h-1.54a2.09,2.09,0,0,0-.66-1.63,3.24,3.24,0,0,0-3.58-.1,1.66,1.66,0,0,0-.62,1.36,1.47,1.47,0,0,0,.59,1.17,5.44,5.44,0,0,0,2,.88,9.88,9.88,0,0,1,2.22.88,3.28,3.28,0,0,1,1.18,1.13,2.8,2.8,0,0,1,.39,1.5,2.66,2.66,0,0,1-1.08,2.22,4.61,4.61,0,0,1-2.88.83,5.34,5.34,0,0,1-2.19-.45,3.65,3.65,0,0,1-1.57-1.23,3,3,0,0,1-.55-1.77h1.51a2,2,0,0,0,.76,1.63,3.25,3.25,0,0,0,2,.59,3,3,0,0,0,1.82-.48,1.58,1.58,0,0,0,.63-1.32,1.53,1.53,0,0,0-.58-1.29A6.73,6.73,0,0,0,646.85,125.93Z"/><path class="cls-3" d="M656.27,131.16a3.67,3.67,0,0,1-2.79-1.13,4.2,4.2,0,0,1-1.08-3v-.26a5.12,5.12,0,0,1,.48-2.25,3.86,3.86,0,0,1,1.34-1.55,3.47,3.47,0,0,1,1.87-.56,3.18,3.18,0,0,1,2.57,1.09,4.75,4.75,0,0,1,.91,3.11v.6h-5.73a3,3,0,0,0,.73,2,2.31,2.31,0,0,0,1.78.77,2.48,2.48,0,0,0,1.3-.31,3.51,3.51,0,0,0,.93-.83l.88.69A3.55,3.55,0,0,1,656.27,131.16Zm-.18-7.58a1.91,1.91,0,0,0-1.47.64,3.07,3.07,0,0,0-.73,1.78h4.23v-.11a2.74,2.74,0,0,0-.59-1.7A1.79,1.79,0,0,0,656.09,123.58Z"/><path class="cls-3" d="M662.81,131h-1.44V119h1.44Z"/><path class="cls-3" d="M668.63,131.16a3.67,3.67,0,0,1-2.79-1.13,4.2,4.2,0,0,1-1.08-3v-.26a5.12,5.12,0,0,1,.48-2.25,3.86,3.86,0,0,1,1.34-1.55,3.47,3.47,0,0,1,1.87-.56A3.16,3.16,0,0,1,671,123.5a4.69,4.69,0,0,1,.92,3.11v.6H666.2a3,3,0,0,0,.73,2,2.31,2.31,0,0,0,1.78.77,2.48,2.48,0,0,0,1.3-.31,3.51,3.51,0,0,0,.93-.83l.88.69A3.55,3.55,0,0,1,668.63,131.16Zm-.18-7.58a1.91,1.91,0,0,0-1.47.64,3.07,3.07,0,0,0-.73,1.78h4.26v-.11a2.74,2.74,0,0,0-.59-1.7A1.79,1.79,0,0,0,668.45,123.58Z"/><path class="cls-3" d="M677,130a2.08,2.08,0,0,0,1.35-.47,1.65,1.65,0,0,0,.64-1.17h1.37a2.55,2.55,0,0,1-.5,1.38,3.32,3.32,0,0,1-1.23,1,3.53,3.53,0,0,1-1.63.39,3.44,3.44,0,0,1-2.74-1.15,4.6,4.6,0,0,1-1-3.15v-.25a5.18,5.18,0,0,1,.45-2.19,3.42,3.42,0,0,1,1.3-1.49,3.63,3.63,0,0,1,2-.54,3.39,3.39,0,0,1,2.37.86,3,3,0,0,1,1,2.21H679a2,2,0,0,0-.62-1.35,2,2,0,0,0-1.38-.53,2,2,0,0,0-1.7.8,3.64,3.64,0,0,0-.61,2.29v.27a3.64,3.64,0,0,0,.6,2.25A2,2,0,0,0,677,130Z"/><path class="cls-3" d="M685.37,130a2.08,2.08,0,0,0,1.35-.47,1.65,1.65,0,0,0,.64-1.17h1.37a2.72,2.72,0,0,1-.5,1.38,3.32,3.32,0,0,1-1.23,1,3.53,3.53,0,0,1-1.63.39,3.47,3.47,0,0,1-2.75-1.15,4.6,4.6,0,0,1-1-3.15v-.25a5.18,5.18,0,0,1,.45-2.19,3.48,3.48,0,0,1,1.3-1.49,3.63,3.63,0,0,1,2-.54,3.36,3.36,0,0,1,2.36.86,3,3,0,0,1,1,2.21h-1.37a2,2,0,0,0-.62-1.35,2.15,2.15,0,0,0-3.09.27,3.78,3.78,0,0,0-.6,2.29v.27a3.64,3.64,0,0,0,.6,2.25A2,2,0,0,0,685.37,130Z"/><path class="cls-3" d="M690.36,120.31a.84.84,0,0,1,.21-.59.93.93,0,0,1,1.28,0,.81.81,0,0,1,.22.59.78.78,0,0,1-.22.58.85.85,0,0,1-1.49-.58ZM691.92,131h-1.41v-8.45H692Z"/><path class="cls-3" d="M693.85,126.7a4.91,4.91,0,0,1,.49-2.23,3.62,3.62,0,0,1,1.36-1.54,3.71,3.71,0,0,1,2-.54,3.54,3.54,0,0,1,2.79,1.2,4.61,4.61,0,0,1,1,3.23v.1a5,5,0,0,1-.48,2.22,3.49,3.49,0,0,1-1.35,1.52,3.7,3.7,0,0,1-2,.55A3.57,3.57,0,0,1,694.9,130a4.64,4.64,0,0,1-1.07-3.17Zm1.45.17a3.58,3.58,0,0,0,.66,2.26,2.21,2.21,0,0,0,3.1.39,1.8,1.8,0,0,0,.39-.39,4,4,0,0,0,.65-2.42,3.55,3.55,0,0,0-.66-2.25,2.19,2.19,0,0,0-3.07-.41,2.65,2.65,0,0,0-.41.41,3.9,3.9,0,0,0-.66,2.41Z"/><path class="cls-3" d="M704.73,122.55v1.06a3.09,3.09,0,0,1,2.53-1.22c1.79,0,2.69,1,2.71,3V131h-1.45v-5.59a1.88,1.88,0,0,0-.42-1.35,1.65,1.65,0,0,0-1.27-.44,2.11,2.11,0,0,0-1.24.38,2.6,2.6,0,0,0-.83,1v6h-1.44v-8.45Z"/><path class="cls-3" d="M717.41,131a2.69,2.69,0,0,1-.21-.89,3.18,3.18,0,0,1-2.4,1,3,3,0,0,1-2-.71,2.24,2.24,0,0,1-.81-1.79,2.4,2.4,0,0,1,1-2,4.69,4.69,0,0,1,2.82-.73h1.41v-.66a1.63,1.63,0,0,0-.45-1.21,1.87,1.87,0,0,0-1.34-.45,2.1,2.1,0,0,0-1.3.39,1.13,1.13,0,0,0-.52.94h-1.45a2,2,0,0,1,.45-1.22,3,3,0,0,1,1.21-.93,4.14,4.14,0,0,1,1.7-.35,3.3,3.3,0,0,1,2.28.74,2.59,2.59,0,0,1,.86,2V129a4.86,4.86,0,0,0,.3,1.85V131Zm-2.4-1.1a2.55,2.55,0,0,0,1.29-.35,2.09,2.09,0,0,0,.88-.91V126.9h-1.13c-1.78,0-2.66.52-2.66,1.56a1.34,1.34,0,0,0,.45,1.06,1.77,1.77,0,0,0,1.17.38Z"/><path class="cls-3" d="M725,123.82a4.37,4.37,0,0,0-.72-.06,1.89,1.89,0,0,0-1.92,1.21v6h-1.45v-8.45h1.41v1a2.24,2.24,0,0,1,2-1.14,1.54,1.54,0,0,1,.64.11Z"/><path class="cls-3" d="M735.51,130.17a3.08,3.08,0,0,1-2.47,1,2.64,2.64,0,0,1-2.06-.78,3.43,3.43,0,0,1-.72-2.33v-5.5h1.45V128q0,1.92,1.56,1.92a2.16,2.16,0,0,0,2.2-1.23v-6.15h1.45V131h-1.41Z"/><path class="cls-3" d="M740.45,122.55v1.06a3.09,3.09,0,0,1,2.53-1.22q2.68,0,2.7,3V131h-1.44v-5.59a2,2,0,0,0-.42-1.35,1.68,1.68,0,0,0-1.28-.44,2.08,2.08,0,0,0-1.23.38,2.45,2.45,0,0,0-.83,1v6H739v-8.45Z"/><path class="cls-3" d="M642.64,150a2.08,2.08,0,0,0,1.35-.47,1.65,1.65,0,0,0,.64-1.17H646a2.55,2.55,0,0,1-.5,1.38,3.15,3.15,0,0,1-1.23,1,3.52,3.52,0,0,1-1.62.39,3.47,3.47,0,0,1-2.75-1.15,4.6,4.6,0,0,1-1-3.15v-.25a5.18,5.18,0,0,1,.45-2.19,3.48,3.48,0,0,1,1.3-1.49,3.63,3.63,0,0,1,2-.54,3.36,3.36,0,0,1,2.36.86,3,3,0,0,1,1,2.21h-1.36a2,2,0,0,0-.62-1.35,2.15,2.15,0,0,0-3.09.27,3.72,3.72,0,0,0-.61,2.29v.27a3.59,3.59,0,0,0,.61,2.25A2,2,0,0,0,642.64,150Z"/><path class="cls-3" d="M652.84,150.17a3.09,3.09,0,0,1-2.48,1,2.64,2.64,0,0,1-2.06-.78,3.37,3.37,0,0,1-.71-2.33v-5.5H649V148c0,1.28.52,1.92,1.57,1.92a2.17,2.17,0,0,0,2.2-1.23v-6.15h1.44V151h-1.37Z"/><path class="cls-3" d="M660.51,143.82a4.37,4.37,0,0,0-.72-.06,1.89,1.89,0,0,0-1.92,1.21v6h-1.45v-8.45h1.41v1a2.24,2.24,0,0,1,2-1.14,1.54,1.54,0,0,1,.64.11Z"/><path class="cls-3" d="M666.78,148.76a1.09,1.09,0,0,0-.45-.91,4.41,4.41,0,0,0-1.53-.56,7.15,7.15,0,0,1-1.75-.56,2.58,2.58,0,0,1-.95-.78,1.89,1.89,0,0,1-.31-1.08,2.18,2.18,0,0,1,.88-1.76,3.45,3.45,0,0,1,2.25-.72,3.51,3.51,0,0,1,2.33.75,2.34,2.34,0,0,1,.89,1.9h-1.45a1.31,1.31,0,0,0-.5-1,2,2,0,0,0-1.27-.43,2,2,0,0,0-1.24.35,1.08,1.08,0,0,0-.44.89.87.87,0,0,0,.41.79,5,5,0,0,0,1.5.51,7.82,7.82,0,0,1,1.75.58,2.55,2.55,0,0,1,1,.81,2,2,0,0,1,.32,1.15,2.16,2.16,0,0,1-.91,1.82,3.79,3.79,0,0,1-2.35.68,4.22,4.22,0,0,1-1.79-.36,3,3,0,0,1-1.23-1,2.42,2.42,0,0,1-.44-1.4H663a1.45,1.45,0,0,0,.58,1.15A2.22,2.22,0,0,0,665,150a2.36,2.36,0,0,0,1.32-.33A1,1,0,0,0,666.78,148.76Z"/><path class="cls-3" d="M669.72,146.7a4.91,4.91,0,0,1,.49-2.23,3.62,3.62,0,0,1,1.36-1.54,3.71,3.71,0,0,1,2-.54,3.54,3.54,0,0,1,2.79,1.2,4.65,4.65,0,0,1,1.07,3.18v.1a5,5,0,0,1-.48,2.22,3.49,3.49,0,0,1-1.35,1.52,3.7,3.7,0,0,1-2,.55,3.57,3.57,0,0,1-2.78-1.19,4.64,4.64,0,0,1-1.07-3.17Zm1.45.17a3.58,3.58,0,0,0,.66,2.26,2.21,2.21,0,0,0,3.1.39,1.8,1.8,0,0,0,.39-.39,4,4,0,0,0,.65-2.42,3.55,3.55,0,0,0-.66-2.25,2.19,2.19,0,0,0-3.07-.41,2.65,2.65,0,0,0-.41.41,3.9,3.9,0,0,0-.66,2.41Z"/><path class="cls-3" d="M682.84,146.71a5,5,0,0,1,.92-3.13,2.9,2.9,0,0,1,2.41-1.19,3,3,0,0,1,2.36,1V139H690v12h-1.33l-.07-.9a2.93,2.93,0,0,1-2.41,1.06,2.89,2.89,0,0,1-2.4-1.2,5,5,0,0,1-.92-3.14Zm1.44.16a3.68,3.68,0,0,0,.6,2.25,1.9,1.9,0,0,0,1.64.81,2.13,2.13,0,0,0,2-1.23v-3.88a2.13,2.13,0,0,0-2-1.2,1.9,1.9,0,0,0-1.65.82A4.15,4.15,0,0,0,684.28,146.87Z"/><path class="cls-3" d="M695.72,151.16a3.69,3.69,0,0,1-2.8-1.13,4.24,4.24,0,0,1-1.07-3v-.26a5.12,5.12,0,0,1,.48-2.25,3.73,3.73,0,0,1,1.34-1.55,3.47,3.47,0,0,1,1.87-.56,3.16,3.16,0,0,1,2.56,1.09,4.69,4.69,0,0,1,.92,3.11v.6h-5.73a3,3,0,0,0,.73,2,2.31,2.31,0,0,0,1.78.77,2.48,2.48,0,0,0,1.3-.31,3.51,3.51,0,0,0,.93-.83l.88.69A3.55,3.55,0,0,1,695.72,151.16Zm-.18-7.58a1.91,1.91,0,0,0-1.47.64,3.07,3.07,0,0,0-.73,1.78h4.23v-.11a2.74,2.74,0,0,0-.59-1.7,1.79,1.79,0,0,0-1.47-.61Z"/><path class="cls-3" d="M709.87,151a3,3,0,0,1-.2-.89,3.24,3.24,0,0,1-2.41,1,3,3,0,0,1-2-.71,2.31,2.31,0,0,1-.8-1.79,2.37,2.37,0,0,1,1-2,4.7,4.7,0,0,1,2.83-.73h1.4v-.66a1.63,1.63,0,0,0-.45-1.21,1.83,1.83,0,0,0-1.34-.45,2.07,2.07,0,0,0-1.29.39,1.16,1.16,0,0,0-.53.94h-1.45a2,2,0,0,1,.45-1.22,3,3,0,0,1,1.22-.93,3.94,3.94,0,0,1,1.69-.35,3.33,3.33,0,0,1,2.29.74,2.62,2.62,0,0,1,.86,2V149a4.86,4.86,0,0,0,.3,1.85V151Zm-2.4-1.1a2.55,2.55,0,0,0,1.29-.35,2,2,0,0,0,.88-.91V146.9h-1.13c-1.77,0-2.66.52-2.66,1.56a1.3,1.3,0,0,0,.46,1.06,1.75,1.75,0,0,0,1.2.38Z"/><path class="cls-3" d="M716.74,150a2.1,2.1,0,0,0,1.36-.47,1.7,1.7,0,0,0,.64-1.17h1.36a2.55,2.55,0,0,1-.5,1.38,3.15,3.15,0,0,1-1.23,1,3.53,3.53,0,0,1-1.63.39A3.44,3.44,0,0,1,714,150a4.6,4.6,0,0,1-1-3.15v-.25a5.18,5.18,0,0,1,.45-2.19,3.48,3.48,0,0,1,1.3-1.49,3.63,3.63,0,0,1,2-.54,3.36,3.36,0,0,1,2.36.86,3,3,0,0,1,1,2.21h-1.36a2,2,0,0,0-.62-1.35,2.15,2.15,0,0,0-3.09.27,3.72,3.72,0,0,0-.61,2.29v.27a3.59,3.59,0,0,0,.61,2.25A2,2,0,0,0,716.74,150Z"/><path class="cls-3" d="M725.12,150a2.08,2.08,0,0,0,1.35-.47,1.65,1.65,0,0,0,.64-1.17h1.4a2.55,2.55,0,0,1-.5,1.38,3.32,3.32,0,0,1-1.23,1,3.53,3.53,0,0,1-1.63.39A3.47,3.47,0,0,1,722.4,150a4.6,4.6,0,0,1-1-3.15v-.25a5,5,0,0,1,.46-2.19,3.42,3.42,0,0,1,1.3-1.49,3.63,3.63,0,0,1,2-.54,3.36,3.36,0,0,1,2.36.86,3,3,0,0,1,1,2.21h-1.41a2,2,0,0,0-.62-1.35,2.15,2.15,0,0,0-3.09.27,3.78,3.78,0,0,0-.6,2.29v.27a3.64,3.64,0,0,0,.6,2.25A2,2,0,0,0,725.12,150Z"/><path class="cls-3" d="M730.11,140.31a.81.81,0,0,1,.22-.59.75.75,0,0,1,.63-.25.77.77,0,0,1,.64.25.81.81,0,0,1,.22.59.78.78,0,0,1-.22.58.81.81,0,0,1-.64.24.79.79,0,0,1-.85-.73ZM731.67,151h-1.44v-8.45h1.44Z"/><path class="cls-3" d="M733.6,146.7a5.07,5.07,0,0,1,.49-2.23,3.58,3.58,0,0,1,3.35-2.08,3.54,3.54,0,0,1,2.79,1.2,4.65,4.65,0,0,1,1.07,3.18v.1a5.15,5.15,0,0,1-.47,2.22,3.57,3.57,0,0,1-1.36,1.52,3.7,3.7,0,0,1-2,.55,3.57,3.57,0,0,1-2.79-1.19,4.64,4.64,0,0,1-1.07-3.17Zm1.46.17a3.65,3.65,0,0,0,.65,2.26,2.22,2.22,0,0,0,3.5,0,4,4,0,0,0,.64-2.42,3.55,3.55,0,0,0-.66-2.25,2.08,2.08,0,0,0-1.75-.87,2.11,2.11,0,0,0-1.73.85,4,4,0,0,0-.65,2.44Zm3-7.85h1.75l-2.1,2.3h-1.16Z"/><path class="cls-3" d="M744.51,142.55v1.06a3.07,3.07,0,0,1,2.53-1.22q2.67,0,2.7,3V151h-1.43v-5.59a1.92,1.92,0,0,0-.41-1.35,1.68,1.68,0,0,0-1.28-.44,2.08,2.08,0,0,0-1.23.38,2.45,2.45,0,0,0-.83,1v6h-1.45v-8.45Z"/></g><g id="Medir_el_desempeño" data-name="Medir el desempeño"><path class="cls-3" d="M845.87,119.63l3.72,9.28,3.72-9.28h2V131h-1.5v-4.43l.14-4.78L850.21,131H849l-3.72-9.18.15,4.75V131h-1.5V119.63Z"/><path class="cls-3" d="M861.19,131.16a3.69,3.69,0,0,1-2.8-1.13,4.2,4.2,0,0,1-1.08-3v-.26a5.12,5.12,0,0,1,.48-2.25,3.82,3.82,0,0,1,1.35-1.55,3.34,3.34,0,0,1,1.87-.56,3.16,3.16,0,0,1,2.56,1.09,4.69,4.69,0,0,1,.91,3.11v.6h-5.72a3,3,0,0,0,.73,2,2.31,2.31,0,0,0,1.77.77,2.48,2.48,0,0,0,1.3-.31,3.36,3.36,0,0,0,1-.85l.88.69A3.52,3.52,0,0,1,861.19,131.16Zm-.18-7.58a1.91,1.91,0,0,0-1.47.64,3.08,3.08,0,0,0-.74,1.78H863v-.11a2.69,2.69,0,0,0-.6-1.7A1.78,1.78,0,0,0,861,123.58Z"/><path class="cls-3" d="M865.8,126.71a5,5,0,0,1,.92-3.13,3.13,3.13,0,0,1,4.4-.52,3.06,3.06,0,0,1,.37.35V119h1.45v12h-1.33l-.07-.9a3,3,0,0,1-2.42,1.06,2.86,2.86,0,0,1-2.39-1.2,5,5,0,0,1-.93-3.14Zm1.45.16a3.81,3.81,0,0,0,.59,2.25,1.92,1.92,0,0,0,1.64.81,2.12,2.12,0,0,0,2-1.23v-3.88a2.12,2.12,0,0,0-2-1.2,1.92,1.92,0,0,0-1.66.82A4.21,4.21,0,0,0,867.25,126.87Z"/><path class="cls-3" d="M875.19,120.31a.84.84,0,0,1,.21-.59.94.94,0,0,1,1.28,0,.85.85,0,0,1,.22.59.79.79,0,0,1-.76.82H876a.81.81,0,0,1-.64-.24A.83.83,0,0,1,875.19,120.31ZM876.75,131H875.3v-8.45h1.45Z"/><path class="cls-3" d="M883.15,123.82a4.17,4.17,0,0,0-.71-.06,1.89,1.89,0,0,0-1.93,1.21v6h-1.45v-8.45h1.45v1a2.24,2.24,0,0,1,2-1.14,1.54,1.54,0,0,1,.64.11Z"/><path class="cls-3" d="M817.61,151.16a3.67,3.67,0,0,1-2.79-1.13,4.2,4.2,0,0,1-1.08-3v-.26a5.12,5.12,0,0,1,.48-2.25,3.86,3.86,0,0,1,1.34-1.55,3.47,3.47,0,0,1,1.87-.56A3.18,3.18,0,0,1,820,143.5a4.75,4.75,0,0,1,.91,3.11v.6h-5.73a3,3,0,0,0,.73,2,2.31,2.31,0,0,0,1.78.77,2.48,2.48,0,0,0,1.3-.31,3.51,3.51,0,0,0,.93-.83l.88.69A3.55,3.55,0,0,1,817.61,151.16Zm-.18-7.58a1.91,1.91,0,0,0-1.47.64,3.07,3.07,0,0,0-.73,1.78h4.28v-.11a2.74,2.74,0,0,0-.59-1.7A1.79,1.79,0,0,0,817.43,143.58Z"/><path class="cls-3" d="M824.15,151h-1.44V139h1.44Z"/><path class="cls-3" d="M830.07,146.71a4.88,4.88,0,0,1,.93-3.13,3.12,3.12,0,0,1,4.38-.52,2.5,2.5,0,0,1,.38.35V139h1.45v12h-1.33l-.07-.9a2.92,2.92,0,0,1-2.42,1.06A2.86,2.86,0,0,1,831,150a5,5,0,0,1-.93-3.14Zm1.45.16a3.81,3.81,0,0,0,.59,2.25,1.92,1.92,0,0,0,1.64.81,2.12,2.12,0,0,0,2-1.23v-3.88a2.12,2.12,0,0,0-2-1.2,1.92,1.92,0,0,0-1.66.82,4.14,4.14,0,0,0-.58,2.43Z"/><path class="cls-3" d="M843,151.16a3.69,3.69,0,0,1-2.8-1.13,4.2,4.2,0,0,1-1.08-3v-.26a5.12,5.12,0,0,1,.48-2.25,3.82,3.82,0,0,1,1.35-1.55,3.34,3.34,0,0,1,1.87-.56,3.16,3.16,0,0,1,2.56,1.09,4.69,4.69,0,0,1,.91,3.11v.6h-5.74a3,3,0,0,0,.73,2A2.31,2.31,0,0,0,843,150a2.48,2.48,0,0,0,1.3-.31,3.51,3.51,0,0,0,.93-.83l.88.69A3.54,3.54,0,0,1,843,151.16Zm-.18-7.58a1.91,1.91,0,0,0-1.47.64,3.08,3.08,0,0,0-.74,1.78h4.24v-.11a2.69,2.69,0,0,0-.6-1.7A1.77,1.77,0,0,0,842.78,143.58Z"/><path class="cls-3" d="M852.85,148.76a1.08,1.08,0,0,0-.44-.91,4.46,4.46,0,0,0-1.54-.56,7.15,7.15,0,0,1-1.75-.56,2.55,2.55,0,0,1-1-.78,1.89,1.89,0,0,1-.31-1.08,2.22,2.22,0,0,1,.88-1.76,3.45,3.45,0,0,1,2.25-.72,3.51,3.51,0,0,1,2.33.75,2.34,2.34,0,0,1,.89,1.9h-1.45a1.31,1.31,0,0,0-.5-1,2,2,0,0,0-1.27-.43,2,2,0,0,0-1.24.35,1.08,1.08,0,0,0-.44.89.87.87,0,0,0,.41.79,5,5,0,0,0,1.5.51,7.82,7.82,0,0,1,1.75.58,2.55,2.55,0,0,1,1,.81,2,2,0,0,1,.32,1.15,2.17,2.17,0,0,1-.9,1.82,3.82,3.82,0,0,1-2.36.68,4.22,4.22,0,0,1-1.79-.36,3,3,0,0,1-1.23-1,2.42,2.42,0,0,1-.44-1.4H849a1.45,1.45,0,0,0,.58,1.15A2.22,2.22,0,0,0,851,150a2.36,2.36,0,0,0,1.32-.33A1,1,0,0,0,852.85,148.76Z"/><path class="cls-3" d="M859.68,151.16a3.67,3.67,0,0,1-2.79-1.13,4.2,4.2,0,0,1-1.08-3v-.26a5.12,5.12,0,0,1,.48-2.25,3.86,3.86,0,0,1,1.34-1.55,3.47,3.47,0,0,1,1.87-.56,3.18,3.18,0,0,1,2.57,1.09,4.69,4.69,0,0,1,.91,3.11v.6h-5.73a3,3,0,0,0,.73,2,2.31,2.31,0,0,0,1.78.77,2.48,2.48,0,0,0,1.3-.31,3.51,3.51,0,0,0,.93-.83l.88.69A3.55,3.55,0,0,1,859.68,151.16Zm-.18-7.58a1.91,1.91,0,0,0-1.47.64,3.07,3.07,0,0,0-.73,1.78h4.21v-.11a2.74,2.74,0,0,0-.59-1.7,1.79,1.79,0,0,0-1.41-.61Z"/><path class="cls-3" d="M866,142.55v.94a3.13,3.13,0,0,1,2.51-1.1,2.43,2.43,0,0,1,2.41,1.36,3.18,3.18,0,0,1,2.7-1.36c1.85,0,2.79,1,2.83,3v5.66H875v-5.57a2,2,0,0,0-.41-1.36,1.81,1.81,0,0,0-1.39-.45,1.88,1.88,0,0,0-2,1.75v5.63h-1.45v-5.53a1.63,1.63,0,0,0-1.36-1.85,1.69,1.69,0,0,0-.45,0,1.94,1.94,0,0,0-1.94,1.21v6.17h-1.45V142.6Z"/><path class="cls-3" d="M885.82,146.87a5.05,5.05,0,0,1-.89,3.11,2.83,2.83,0,0,1-2.39,1.18,3.08,3.08,0,0,1-2.42-1v4.07h-1.44v-11.7H880l.07.94a3,3,0,0,1,2.45-1.1,2.92,2.92,0,0,1,2.41,1.15,5.12,5.12,0,0,1,.89,3.2Zm-1.45-.16a3.7,3.7,0,0,0-.61-2.26,2,2,0,0,0-1.67-.83,2.13,2.13,0,0,0-2,1.17v4a2.12,2.12,0,0,0,2,1.16,2,2,0,0,0,1.66-.82A4.12,4.12,0,0,0,884.37,146.71Z"/><path class="cls-3" d="M891.16,151.16a3.69,3.69,0,0,1-2.8-1.13,4.2,4.2,0,0,1-1.08-3v-.26a5.12,5.12,0,0,1,.48-2.25,3.82,3.82,0,0,1,1.35-1.55,3.36,3.36,0,0,1,1.87-.56,3.16,3.16,0,0,1,2.56,1.09,4.69,4.69,0,0,1,.92,3.11v.6h-5.73a3,3,0,0,0,.73,2,2.31,2.31,0,0,0,1.78.77,2.42,2.42,0,0,0,1.29-.31,3.19,3.19,0,0,0,1-.85l.89.69A3.55,3.55,0,0,1,891.16,151.16Zm-.18-7.58a1.91,1.91,0,0,0-1.47.64,3,3,0,0,0-.73,1.78H893v-.11a2.74,2.74,0,0,0-.59-1.7,1.82,1.82,0,0,0-1.44-.61Z"/><path class="cls-3" d="M897.51,142.55v1.06a3.09,3.09,0,0,1,2.53-1.22c1.79,0,2.69,1,2.71,3V151H901.3v-5.59a1.88,1.88,0,0,0-.42-1.35,1.65,1.65,0,0,0-1.27-.44,2.11,2.11,0,0,0-1.24.38,2.6,2.6,0,0,0-.83,1v6H896.1v-8.45Zm4.78-3.3a2,2,0,0,1-.48,1.37,1.55,1.55,0,0,1-1.2.52,1.76,1.76,0,0,1-.56-.07,3.55,3.55,0,0,1-.61-.32,2.94,2.94,0,0,0-.55-.3,1.21,1.21,0,0,0-.38,0,.73.73,0,0,0-.55.25.87.87,0,0,0-.23.63l-1-.06a2,2,0,0,1,.48-1.38,1.57,1.57,0,0,1,1.69-.47,3,3,0,0,1,.59.31,2.62,2.62,0,0,0,.58.29,1.31,1.31,0,0,0,.44.07.71.71,0,0,0,.56-.26,1,1,0,0,0,.22-.62Z"/><path class="cls-3" d="M904.57,146.7a5.07,5.07,0,0,1,.49-2.23,3.58,3.58,0,0,1,3.35-2.08,3.54,3.54,0,0,1,2.79,1.2,4.65,4.65,0,0,1,1.07,3.18v.1a5.15,5.15,0,0,1-.47,2.22,3.57,3.57,0,0,1-1.36,1.52,3.7,3.7,0,0,1-2,.55,3.57,3.57,0,0,1-2.79-1.19,4.64,4.64,0,0,1-1.07-3.17Zm1.46.17a3.65,3.65,0,0,0,.65,2.26,2.22,2.22,0,0,0,3.5,0,4,4,0,0,0,.64-2.42,3.55,3.55,0,0,0-.66-2.25,2.08,2.08,0,0,0-1.75-.87,2.11,2.11,0,0,0-1.73.85A4,4,0,0,0,906,146.87Z"/></g><rect id="Rectángulo_6189" data-name="Rectángulo 6189" class="cls-4" x="131" width="152" height="61.05" rx="10"/><rect id="Rectángulo_6191" data-name="Rectángulo 6191" class="cls-5" x="611" width="152" height="61.05" rx="10"/><g id="Grupo_61810" data-name="Grupo 61810"><g id="Rectángulo_6192" data-name="Rectángulo 6192"><rect class="cls-1" x="320" width="254" height="61.05" rx="10"/><rect class="cls-2" x="320.5" y="0.5" width="253" height="60.05" rx="9.5"/></g><g id="Tipos_de_investigación" data-name="Tipos de investigación"><path class="cls-3" d="M364,25.16h-4.35V37h-2.93V25.16h-4.3V22.82H364Z"/><path class="cls-3" d="M365.51,23.7a1.38,1.38,0,0,1,.42-1,1.55,1.55,0,0,1,1.16-.41,1.53,1.53,0,0,1,1.15.41,1.35,1.35,0,0,1,.43,1,1.41,1.41,0,0,1-.43,1.06,1.82,1.82,0,0,1-2.3,0A1.41,1.41,0,0,1,365.51,23.7Zm3,13.3h-2.84V26.44h2.84Z"/><path class="cls-3" d="M380.3,31.82a6.33,6.33,0,0,1-1.11,3.91,3.55,3.55,0,0,1-3,1.47,3.27,3.27,0,0,1-2.59-1.11v5h-2.82V26.44h2.62l.1,1a3.3,3.3,0,0,1,2.67-1.23,3.57,3.57,0,0,1,3,1.45,6.44,6.44,0,0,1,1.08,4Zm-2.79-.22a4.14,4.14,0,0,0-.52-2.28,1.73,1.73,0,0,0-1.52-.8,1.86,1.86,0,0,0-1.83,1v4.34a1.89,1.89,0,0,0,1.85,1C376.81,34.92,377.51,33.82,377.51,31.6Z"/><path class="cls-3" d="M381.61,31.62a6.15,6.15,0,0,1,.61-2.8,4.44,4.44,0,0,1,1.74-1.9,5.08,5.08,0,0,1,2.64-.68,4.81,4.81,0,0,1,3.49,1.31,5.22,5.22,0,0,1,1.51,3.56v.72a5.5,5.5,0,0,1-1.36,3.9,5.25,5.25,0,0,1-7.29,0,5.57,5.57,0,0,1-1.36-4Zm2.82.2a4,4,0,0,0,.57,2.31,2,2,0,0,0,2.8.42,2.09,2.09,0,0,0,.42-.42,4.28,4.28,0,0,0,.58-2.52,3.83,3.83,0,0,0-.58-2.29,2,2,0,0,0-2.8-.42,2.09,2.09,0,0,0-.42.42A4.46,4.46,0,0,0,384.43,31.82Z"/><path class="cls-3" d="M399.08,34.08a.91.91,0,0,0-.51-.81,5.68,5.68,0,0,0-1.65-.53q-3.76-.8-3.77-3.21a2.93,2.93,0,0,1,1.17-2.35,4.78,4.78,0,0,1,3.05-.94,5.07,5.07,0,0,1,3.22,1,3,3,0,0,1,1.21,2.46H399a1.39,1.39,0,0,0-.39-1,2,2,0,0,0-2.32-.07,1,1,0,0,0-.39.82.86.86,0,0,0,.44.75,4.66,4.66,0,0,0,1.5.5,11.15,11.15,0,0,1,1.78.48A2.92,2.92,0,0,1,401.83,34a2.78,2.78,0,0,1-1.24,2.34,5.37,5.37,0,0,1-3.21.89,5.79,5.79,0,0,1-2.36-.47,3.93,3.93,0,0,1-1.61-1.3,3,3,0,0,1-.59-1.79h2.69a1.48,1.48,0,0,0,.55,1.16,2.3,2.3,0,0,0,1.39.4,2.06,2.06,0,0,0,1.23-.31A1,1,0,0,0,399.08,34.08Z"/><path class="cls-3" d="M408.18,31.64a6.38,6.38,0,0,1,1.11-3.93,3.61,3.61,0,0,1,3-1.47,3.24,3.24,0,0,1,2.55,1.15V22h2.83V37h-2.54L415,35.88a3.32,3.32,0,0,1-2.72,1.32,3.56,3.56,0,0,1-3-1.47A6.59,6.59,0,0,1,408.18,31.64Zm2.83.2a4.24,4.24,0,0,0,.51,2.29,1.67,1.67,0,0,0,1.51.79,1.9,1.9,0,0,0,1.84-1.1V29.63a1.85,1.85,0,0,0-1.82-1.11c-1.36,0-2,1.11-2,3.3Z"/><path class="cls-3" d="M424.76,37.2A5.2,5.2,0,0,1,421,35.82a5,5,0,0,1-1.46-3.8v-.27a6.54,6.54,0,0,1,.62-2.85A4.51,4.51,0,0,1,421.87,27a5,5,0,0,1,2.57-.68,4.39,4.39,0,0,1,3.42,1.37,5.57,5.57,0,0,1,1.24,3.88v1.15h-6.73a2.58,2.58,0,0,0,.83,1.66,2.47,2.47,0,0,0,1.74.62,3,3,0,0,0,2.57-1.23l1.39,1.56a4.41,4.41,0,0,1-1.72,1.4A5.77,5.77,0,0,1,424.76,37.2Zm-.33-8.68a1.76,1.76,0,0,0-1.36.57,3,3,0,0,0-.67,1.63h3.93v-.23a2.12,2.12,0,0,0-.51-1.46A1.84,1.84,0,0,0,424.43,28.52Z"/><path class="cls-3" d="M435.66,23.7a1.35,1.35,0,0,1,.43-1,1.82,1.82,0,0,1,2.31,0,1.44,1.44,0,0,1,0,2.06,1.8,1.8,0,0,1-2.29,0A1.4,1.4,0,0,1,435.66,23.7Zm3,13.3h-2.83V26.44h2.83Z"/><path class="cls-3" d="M443.58,26.44l.09,1.22a3.69,3.69,0,0,1,3-1.42,3.07,3.07,0,0,1,2.5,1,4.58,4.58,0,0,1,.84,3v6.82h-2.82V30.23a1.87,1.87,0,0,0-.39-1.31,1.75,1.75,0,0,0-1.3-.4,2,2,0,0,0-1.79,1V37h-2.82V26.44Z"/><path class="cls-3" d="M456.14,33.56l2-7.12h3L457.51,37h-2.7l-3.56-10.56h2.95Z"/><path class="cls-3" d="M467,37.2a5.18,5.18,0,0,1-3.78-1.38,5,5,0,0,1-1.46-3.8v-.27a6.39,6.39,0,0,1,.61-2.85A4.51,4.51,0,0,1,464.14,27a5,5,0,0,1,2.58-.68,4.42,4.42,0,0,1,3.41,1.37,5.57,5.57,0,0,1,1.25,3.88v1.15h-6.73a2.59,2.59,0,0,0,.82,1.66,2.45,2.45,0,0,0,1.75.62,3,3,0,0,0,2.54-1.18l1.39,1.56a4.27,4.27,0,0,1-1.72,1.4A5.66,5.66,0,0,1,467,37.2Zm-.32-8.68a1.75,1.75,0,0,0-1.36.57,2.88,2.88,0,0,0-.67,1.63h3.92v-.23a2.11,2.11,0,0,0-.51-1.46,1.82,1.82,0,0,0-1.38-.51Z"/><path class="cls-3" d="M478.7,34.08a.91.91,0,0,0-.51-.81,5.68,5.68,0,0,0-1.65-.53c-2.51-.53-3.76-1.6-3.77-3.21a2.93,2.93,0,0,1,1.17-2.35,4.78,4.78,0,0,1,3.05-.94,5.07,5.07,0,0,1,3.22,1,3,3,0,0,1,1.21,2.46h-2.83a1.39,1.39,0,0,0-.39-1,2,2,0,0,0-2.32-.07,1,1,0,0,0-.39.82.86.86,0,0,0,.44.75,4.66,4.66,0,0,0,1.5.5,11.15,11.15,0,0,1,1.78.48A2.92,2.92,0,0,1,481.44,34a2.78,2.78,0,0,1-1.24,2.34,5.36,5.36,0,0,1-3.2.89,5.79,5.79,0,0,1-2.36-.47,3.93,3.93,0,0,1-1.61-1.3,3,3,0,0,1-.59-1.79h2.68a1.48,1.48,0,0,0,.55,1.16,2.3,2.3,0,0,0,1.39.4,2.06,2.06,0,0,0,1.23-.31A1,1,0,0,0,478.7,34.08Z"/><path class="cls-3" d="M486.64,23.82v2.6h1.81v2.07h-1.81v5.33a1.32,1.32,0,0,0,.22.84,1.12,1.12,0,0,0,.86.26,5.17,5.17,0,0,0,.79-.1V37a6.21,6.21,0,0,1-1.71.25,2.65,2.65,0,0,1-3-3v-5.7h-1.55V26.44h1.55V23.82Z"/><path class="cls-3" d="M490,23.7a1.38,1.38,0,0,1,.42-1,1.55,1.55,0,0,1,1.16-.41,1.53,1.53,0,0,1,1.15.41,1.35,1.35,0,0,1,.43,1,1.41,1.41,0,0,1-.43,1.06,1.82,1.82,0,0,1-2.3,0A1.41,1.41,0,0,1,490,23.7ZM493,37h-2.83V26.44H493Z"/><path class="cls-3" d="M494.91,31.64a6.14,6.14,0,0,1,1.16-3.91,3.75,3.75,0,0,1,3.12-1.49,3.29,3.29,0,0,1,2.7,1.19l.12-1h2.56V36.65a4.53,4.53,0,0,1-.63,2.41,4,4,0,0,1-1.77,1.57,6.32,6.32,0,0,1-2.68.53,5.82,5.82,0,0,1-2.26-.46,4,4,0,0,1-1.67-1.2l1.25-1.68A3.33,3.33,0,0,0,499.36,39a2.43,2.43,0,0,0,1.75-.6,2.27,2.27,0,0,0,.63-1.71v-.56a3.27,3.27,0,0,1-2.57,1.1,3.75,3.75,0,0,1-3.08-1.49,6.17,6.17,0,0,1-1.18-4Zm2.82.2a3.93,3.93,0,0,0,.58,2.26,1.83,1.83,0,0,0,1.58.82,2,2,0,0,0,1.85-1V29.49a2,2,0,0,0-1.83-1,1.86,1.86,0,0,0-1.6.83,4.38,4.38,0,0,0-.58,2.5Z"/><path class="cls-3" d="M512.86,37a3.09,3.09,0,0,1-.28-.94,3.44,3.44,0,0,1-2.67,1.14,3.76,3.76,0,0,1-2.57-.9,2.86,2.86,0,0,1-1-2.26,3,3,0,0,1,1.24-2.58,6.16,6.16,0,0,1,3.6-.91h1.33v-.61a1.72,1.72,0,0,0-.38-1.17,1.45,1.45,0,0,0-1.18-.44,1.73,1.73,0,0,0-1.12.34,1.16,1.16,0,0,0-.41.94h-2.91a2.83,2.83,0,0,1,.57-1.7,3.64,3.64,0,0,1,1.6-1.22,5.75,5.75,0,0,1,2.32-.45,4.64,4.64,0,0,1,3.1,1A3.45,3.45,0,0,1,515.25,30v4.58a5.09,5.09,0,0,0,.46,2.24V37Zm-2.33-2a2.41,2.41,0,0,0,1.15-.28,1.8,1.8,0,0,0,.78-.74V32.2h-1.05c-1.42,0-2.17.49-2.26,1.46v.16a1.14,1.14,0,0,0,.37.87,1.43,1.43,0,0,0,1,.35Z"/><path class="cls-3" d="M521.85,34.92a1.83,1.83,0,0,0,1.27-.43,1.45,1.45,0,0,0,.51-1.14h2.65a3.63,3.63,0,0,1-.59,2,3.84,3.84,0,0,1-1.57,1.39,5,5,0,0,1-2.22.49,4.58,4.58,0,0,1-3.57-1.44,5.71,5.71,0,0,1-1.31-4V31.6a5.63,5.63,0,0,1,1.3-3.89,4.53,4.53,0,0,1,3.56-1.46,4.42,4.42,0,0,1,3.18,1.13,4,4,0,0,1,1.22,3h-2.65a1.81,1.81,0,0,0-3.17-1.26l-.11.13a4.12,4.12,0,0,0-.51,2.33v.24a4.26,4.26,0,0,0,.5,2.35A1.72,1.72,0,0,0,521.85,34.92Z"/><path class="cls-3" d="M527.87,23.7a1.35,1.35,0,0,1,.43-1,1.81,1.81,0,0,1,2.3,0,1.35,1.35,0,0,1,.43,1,1.41,1.41,0,0,1-.43,1.06,1.82,1.82,0,0,1-2.3,0A1.45,1.45,0,0,1,527.87,23.7Zm3,13.3H528V26.44h2.83Z"/><path class="cls-3" d="M532.75,31.62a6.42,6.42,0,0,1,.61-2.8,4.44,4.44,0,0,1,1.74-1.9,5.08,5.08,0,0,1,2.64-.68,4.81,4.81,0,0,1,3.49,1.31,5.22,5.22,0,0,1,1.51,3.56v.72a5.51,5.51,0,0,1-1.35,3.9,5.25,5.25,0,0,1-7.29,0,5.62,5.62,0,0,1-1.37-4Zm2.83.2a3.9,3.9,0,0,0,.56,2.31,2,2,0,0,0,2.8.42,2.09,2.09,0,0,0,.42-.42,4.28,4.28,0,0,0,.58-2.52,3.83,3.83,0,0,0-.58-2.29,2,2,0,0,0-2.8-.42,2.09,2.09,0,0,0-.42.42A4.45,4.45,0,0,0,535.58,31.82ZM538.3,22h3.08l-2.71,3h-2.29Z"/><path class="cls-3" d="M547.1,26.44l.09,1.22a3.66,3.66,0,0,1,3-1.42,3.07,3.07,0,0,1,2.5,1,4.58,4.58,0,0,1,.84,3v6.82h-2.82V30.23a1.87,1.87,0,0,0-.39-1.31,1.75,1.75,0,0,0-1.3-.4,2,2,0,0,0-1.79,1V37h-2.82V26.44Z"/></g></g><g id="Investigación_exploratoria" data-name="Investigación exploratoria"><path class="cls-3" d="M161.93,26h-1.5V14.63h1.5Z"/><path class="cls-3" d="M165.81,17.55v1.06a3.09,3.09,0,0,1,2.53-1.22q2.68,0,2.7,3V26H169.6V20.41a2,2,0,0,0-.42-1.35,1.68,1.68,0,0,0-1.28-.44,2.08,2.08,0,0,0-1.23.38,2.45,2.45,0,0,0-.83,1v6h-1.45V17.55Z"/><path class="cls-3" d="M176.06,24l2.1-6.49h1.47l-3,8.45h-1.12l-3.06-8.45h1.47Z"/><path class="cls-3" d="M184.43,26.16a3.69,3.69,0,0,1-2.8-1.13,4.2,4.2,0,0,1-1.08-3v-.26a5.12,5.12,0,0,1,.48-2.25A3.82,3.82,0,0,1,182.38,18a3.36,3.36,0,0,1,1.87-.56,3.16,3.16,0,0,1,2.56,1.09,4.69,4.69,0,0,1,.92,3.11v.6H182a3,3,0,0,0,.73,2,2.31,2.31,0,0,0,1.78.77,2.42,2.42,0,0,0,1.29-.31,3.21,3.21,0,0,0,.93-.83l.89.69A3.55,3.55,0,0,1,184.43,26.16Zm-.18-7.58a1.91,1.91,0,0,0-1.47.64,3,3,0,0,0-.73,1.78h4.23v-.11a2.74,2.74,0,0,0-.59-1.7A1.82,1.82,0,0,0,184.25,18.58Z"/><path class="cls-3" d="M194.32,23.76a1.08,1.08,0,0,0-.44-.91,4.46,4.46,0,0,0-1.54-.56,7.07,7.07,0,0,1-1.74-.56,2.55,2.55,0,0,1-1-.78,1.89,1.89,0,0,1-.31-1.08,2.22,2.22,0,0,1,.88-1.76,3.45,3.45,0,0,1,2.25-.72,3.51,3.51,0,0,1,2.33.75,2.35,2.35,0,0,1,.9,1.9h-1.46a1.31,1.31,0,0,0-.5-1,2.2,2.2,0,0,0-2.5-.08,1.05,1.05,0,0,0-.45.89.87.87,0,0,0,.41.79,5,5,0,0,0,1.5.51,7.82,7.82,0,0,1,1.75.58,2.55,2.55,0,0,1,1,.81,2,2,0,0,1,.32,1.15,2.17,2.17,0,0,1-.9,1.82,3.85,3.85,0,0,1-2.35.68,4.29,4.29,0,0,1-1.8-.36,2.9,2.9,0,0,1-1.16-1,2.42,2.42,0,0,1-.44-1.4h1.44a1.49,1.49,0,0,0,.58,1.15,2.19,2.19,0,0,0,1.44.43,2.31,2.31,0,0,0,1.31-.33A1,1,0,0,0,194.32,23.76Z"/><path class="cls-3" d="M199.61,15.5v2h1.58v1.12h-1.58v5.3a1.14,1.14,0,0,0,.21.76.87.87,0,0,0,.72.25,4.08,4.08,0,0,0,.69-.09V26a4.18,4.18,0,0,1-1.11.15,1.77,1.77,0,0,1-1.46-.59,2.48,2.48,0,0,1-.5-1.66V18.67h-1.54V17.55h1.54v-2Z"/><path class="cls-3" d="M202.88,15.31a.81.81,0,0,1,.22-.59.75.75,0,0,1,.63-.25.77.77,0,0,1,.64.25.81.81,0,0,1,.22.59.78.78,0,0,1-.22.58.81.81,0,0,1-.64.24.79.79,0,0,1-.85-.73ZM204.44,26H203V17.55h1.44Z"/><path class="cls-3" d="M206.41,21.71a5,5,0,0,1,.92-3.15,3.14,3.14,0,0,1,4.42-.47,3.09,3.09,0,0,1,.41.4l.07-.94h1.28v8.27a3.47,3.47,0,0,1-1,2.59,3.59,3.59,0,0,1-2.61.94,4.24,4.24,0,0,1-1.79-.39,3.05,3.05,0,0,1-1.34-1.07l.75-.87a2.81,2.81,0,0,0,2.28,1.15,2.21,2.21,0,0,0,1.64-.59,2.28,2.28,0,0,0,.59-1.67v-.73a3,3,0,0,1-2.37,1,2.88,2.88,0,0,1-2.4-1.19A5.21,5.21,0,0,1,206.41,21.71Zm1.46.16a3.87,3.87,0,0,0,.58,2.25,1.9,1.9,0,0,0,1.64.81,2.12,2.12,0,0,0,2-1.24V19.82a2.14,2.14,0,0,0-2-1.21,1.9,1.9,0,0,0-1.65.82A4.09,4.09,0,0,0,207.87,21.87Z"/><path class="cls-3" d="M221,26a3,3,0,0,1-.2-.89,3.2,3.2,0,0,1-2.41,1.05,3,3,0,0,1-2.05-.71,2.31,2.31,0,0,1-.8-1.79,2.4,2.4,0,0,1,1-2.05,4.7,4.7,0,0,1,2.83-.73h1.41v-.66a1.64,1.64,0,0,0-.46-1.21,1.79,1.79,0,0,0-1.33-.45,2.1,2.1,0,0,0-1.3.39,1.13,1.13,0,0,0-.52.94h-1.46a2,2,0,0,1,.45-1.22,3,3,0,0,1,1.22-.93,4.1,4.1,0,0,1,1.69-.35,3.33,3.33,0,0,1,2.29.74,2.62,2.62,0,0,1,.86,2V24a4.86,4.86,0,0,0,.3,1.85V26Zm-2.4-1.1a2.45,2.45,0,0,0,1.29-.35,2.17,2.17,0,0,0,.89-.91V21.9h-1.14c-1.77,0-2.65.52-2.65,1.56a1.34,1.34,0,0,0,.45,1.06,1.75,1.75,0,0,0,1.12.38Z"/><path class="cls-3" d="M227.83,25a2.08,2.08,0,0,0,1.35-.47,1.65,1.65,0,0,0,.64-1.17h1.37a2.75,2.75,0,0,1-.5,1.38,3.27,3.27,0,0,1-1.18,1.1,3.53,3.53,0,0,1-1.63.39,3.47,3.47,0,0,1-2.75-1.15,4.6,4.6,0,0,1-1-3.15v-.25a5.19,5.19,0,0,1,.38-2.24,3.5,3.5,0,0,1,1.31-1.49,3.63,3.63,0,0,1,2-.54,3.36,3.36,0,0,1,2.36.86,3,3,0,0,1,1,2.21h-1.37a2,2,0,0,0-.62-1.35,2.15,2.15,0,0,0-3.09.27,3.78,3.78,0,0,0-.6,2.29v.27a3.64,3.64,0,0,0,.6,2.25A2,2,0,0,0,227.83,25Z"/><path class="cls-3" d="M232.82,15.31a.84.84,0,0,1,.21-.59.94.94,0,0,1,1.28,0,.81.81,0,0,1,.22.59.78.78,0,0,1-.22.58.81.81,0,0,1-.64.24.78.78,0,0,1-.85-.71ZM234.38,26h-1.44V17.55h1.44Z"/><path class="cls-3" d="M236.31,21.7a4.91,4.91,0,0,1,.49-2.23,3.62,3.62,0,0,1,1.36-1.54,3.71,3.71,0,0,1,2-.54,3.54,3.54,0,0,1,2.79,1.2A4.62,4.62,0,0,1,244,21.82v.1a5,5,0,0,1-.48,2.22,3.49,3.49,0,0,1-1.35,1.52,3.7,3.7,0,0,1-2,.55A3.57,3.57,0,0,1,237.4,25a4.61,4.61,0,0,1-1.09-3.2Zm1.45.17a3.58,3.58,0,0,0,.66,2.26,2.21,2.21,0,0,0,3.1.39,1.8,1.8,0,0,0,.39-.39,4,4,0,0,0,.65-2.42,3.55,3.55,0,0,0-.66-2.25,2.19,2.19,0,0,0-3.07-.41,2.65,2.65,0,0,0-.41.41A3.9,3.9,0,0,0,237.76,21.87Zm3-7.85h1.75l-2,2.3h-1.16Z"/><path class="cls-3" d="M247.19,17.55v1.06a3.09,3.09,0,0,1,2.53-1.22c1.79,0,2.69,1,2.71,3V26H251V20.41a1.88,1.88,0,0,0-.42-1.35,1.65,1.65,0,0,0-1.27-.44,2.11,2.11,0,0,0-1.24.38,2.6,2.6,0,0,0-.83,1v6h-1.44V17.55Z"/><path class="cls-3" d="M163.6,46.16A3.69,3.69,0,0,1,160.8,45a4.19,4.19,0,0,1-1.07-3v-.26a5.12,5.12,0,0,1,.48-2.25,3.75,3.75,0,0,1,1.3-1.57,3.36,3.36,0,0,1,1.87-.56,3.16,3.16,0,0,1,2.56,1.09,4.69,4.69,0,0,1,.92,3.11v.6h-5.73a3,3,0,0,0,.73,2,2.31,2.31,0,0,0,1.78.77,2.48,2.48,0,0,0,1.3-.31,3.51,3.51,0,0,0,.93-.83l.88.69A3.57,3.57,0,0,1,163.6,46.16Zm-.18-7.58a1.91,1.91,0,0,0-1.47.64,3.07,3.07,0,0,0-.73,1.78h4.23v-.11a2.74,2.74,0,0,0-.59-1.7A1.82,1.82,0,0,0,163.42,38.58Z"/><path class="cls-3" d="M171.41,40.64l1.87-3.09H175l-2.77,4.18L175.05,46h-1.67l-2-3.16L169.51,46h-1.68l2.85-4.27-2.77-4.18h1.6Z"/><path class="cls-3" d="M183.64,41.87a5.13,5.13,0,0,1-.88,3.11,2.83,2.83,0,0,1-2.39,1.18,3.1,3.1,0,0,1-2.43-1v4.07h-1.43V37.55h1.32l.07.94a3,3,0,0,1,2.45-1.1,2.92,2.92,0,0,1,2.41,1.15,5.12,5.12,0,0,1,.89,3.2Zm-1.45-.16a3.7,3.7,0,0,0-.61-2.26,2,2,0,0,0-1.67-.83,2.13,2.13,0,0,0-2,1.17v4a2.14,2.14,0,0,0,2,1.16,2,2,0,0,0,1.65-.82,4.06,4.06,0,0,0,.63-2.42Z"/><path class="cls-3" d="M187.05,46H185.6V34h1.45Z"/><path class="cls-3" d="M189,41.7a5.06,5.06,0,0,1,.48-2.23,3.59,3.59,0,0,1,3.36-2.08,3.54,3.54,0,0,1,2.79,1.2,4.53,4.53,0,0,1,1.06,3.23v.1a5.15,5.15,0,0,1-.47,2.22,3.61,3.61,0,0,1-3.35,2.07A3.57,3.57,0,0,1,190.06,45a4.6,4.6,0,0,1-1.08-3.2Zm1.45.17a3.65,3.65,0,0,0,.65,2.26,2.22,2.22,0,0,0,3.12.38,2.28,2.28,0,0,0,.38-.38,4,4,0,0,0,.65-2.42,3.55,3.55,0,0,0-.66-2.25,2.2,2.2,0,0,0-3.08-.41,2.27,2.27,0,0,0-.41.41A4,4,0,0,0,190.43,41.87Z"/><path class="cls-3" d="M202.57,38.82a4.17,4.17,0,0,0-.71-.06A1.91,1.91,0,0,0,199.93,40v6h-1.42V37.55h1.41v1a2.27,2.27,0,0,1,2-1.14,1.54,1.54,0,0,1,.64.11Z"/><path class="cls-3" d="M208.8,46a3,3,0,0,1-.2-.89,3.22,3.22,0,0,1-2.41,1,3,3,0,0,1-2.05-.71,2.31,2.31,0,0,1-.8-1.79,2.4,2.4,0,0,1,1-2,4.69,4.69,0,0,1,2.82-.73h1.41v-.66a1.6,1.6,0,0,0-.46-1.21,1.79,1.79,0,0,0-1.33-.45,2.1,2.1,0,0,0-1.3.39,1.13,1.13,0,0,0-.52.94h-1.45a2,2,0,0,1,.45-1.22,3,3,0,0,1,1.22-.93,4.26,4.26,0,0,1,1.69-.35,3.33,3.33,0,0,1,2.29.74,2.62,2.62,0,0,1,.86,2V44a4.86,4.86,0,0,0,.3,1.85V46Zm-2.39-1.1a2.51,2.51,0,0,0,1.28-.35,2.17,2.17,0,0,0,.89-.91V41.9h-1.14c-1.77,0-2.65.52-2.65,1.56a1.34,1.34,0,0,0,.45,1.06A1.77,1.77,0,0,0,206.41,44.9Z"/><path class="cls-3" d="M214.25,35.5v2h1.58v1.12h-1.58v5.3a1.14,1.14,0,0,0,.21.76.87.87,0,0,0,.72.25,4.08,4.08,0,0,0,.69-.09V46a4.18,4.18,0,0,1-1.11.15,1.77,1.77,0,0,1-1.46-.59,2.48,2.48,0,0,1-.5-1.66V38.67h-1.54V37.55h1.54v-2Z"/><path class="cls-3" d="M217,41.7a5.06,5.06,0,0,1,.48-2.23,3.59,3.59,0,0,1,3.36-2.08,3.54,3.54,0,0,1,2.79,1.2,4.53,4.53,0,0,1,1.06,3.23v.1a5.15,5.15,0,0,1-.47,2.22,3.61,3.61,0,0,1-3.35,2.07A3.57,3.57,0,0,1,218.06,45a4.6,4.6,0,0,1-1.08-3.2Zm1.45.17a3.65,3.65,0,0,0,.65,2.26,2.22,2.22,0,0,0,3.12.38,2.28,2.28,0,0,0,.38-.38,4,4,0,0,0,.65-2.42,3.55,3.55,0,0,0-.66-2.25,2.2,2.2,0,0,0-3.08-.41,2.27,2.27,0,0,0-.41.41A4,4,0,0,0,218.43,41.87Z"/><path class="cls-3" d="M230.57,38.82a4.17,4.17,0,0,0-.71-.06A1.91,1.91,0,0,0,227.93,40v6h-1.42V37.55h1.41v1a2.27,2.27,0,0,1,2-1.14,1.54,1.54,0,0,1,.64.11Z"/><path class="cls-3" d="M231.91,35.31a.84.84,0,0,1,.21-.59.94.94,0,0,1,1.28,0,.85.85,0,0,1,.22.59.79.79,0,0,1-.76.82h-.1a.81.81,0,0,1-.64-.24A.83.83,0,0,1,231.91,35.31ZM233.51,46h-1.45V37.55h1.45Z"/><path class="cls-3" d="M241,46a3,3,0,0,1-.2-.89,3.22,3.22,0,0,1-2.41,1,3,3,0,0,1-2-.71,2.27,2.27,0,0,1-.8-1.79,2.4,2.4,0,0,1,1-2,4.7,4.7,0,0,1,2.83-.73h1.4v-.66a1.63,1.63,0,0,0-.45-1.21,1.83,1.83,0,0,0-1.34-.45,2.05,2.05,0,0,0-1.29.39,1.16,1.16,0,0,0-.53.94h-1.5a2,2,0,0,1,.45-1.22,3,3,0,0,1,1.22-.93,3.94,3.94,0,0,1,1.69-.35,3.33,3.33,0,0,1,2.29.74,2.62,2.62,0,0,1,.86,2V44a5.05,5.05,0,0,0,.29,1.85V46Zm-2.4-1.1a2.55,2.55,0,0,0,1.29-.35,2,2,0,0,0,.88-.91V41.9h-1.13c-1.77,0-2.66.52-2.66,1.56a1.3,1.3,0,0,0,.46,1.06,1.74,1.74,0,0,0,1.16.38Z"/></g><g id="Investigación_concluyente" data-name="Investigación concluyente"><path class="cls-3" d="M641.93,26h-1.5V14.63h1.5Z"/><path class="cls-3" d="M645.81,17.55l.05,1.06a3.09,3.09,0,0,1,2.53-1.22q2.68,0,2.7,3V26h-1.44V20.41a2,2,0,0,0-.42-1.35,1.68,1.68,0,0,0-1.28-.44,2.08,2.08,0,0,0-1.23.38,2.45,2.45,0,0,0-.83,1v6h-1.45V17.55Z"/><path class="cls-3" d="M656.06,24l2.1-6.49h1.47l-3,8.45h-1.12l-3.06-8.45h1.47Z"/><path class="cls-3" d="M664.43,26.16a3.69,3.69,0,0,1-2.8-1.13,4.2,4.2,0,0,1-1.08-3v-.26a5.12,5.12,0,0,1,.48-2.25A3.82,3.82,0,0,1,662.38,18a3.36,3.36,0,0,1,1.87-.56,3.16,3.16,0,0,1,2.56,1.09,4.69,4.69,0,0,1,.92,3.11v.6H662a3,3,0,0,0,.73,2,2.31,2.31,0,0,0,1.78.77,2.42,2.42,0,0,0,1.29-.31,3.21,3.21,0,0,0,.93-.83l.89.69A3.55,3.55,0,0,1,664.43,26.16Zm-.18-7.58a1.91,1.91,0,0,0-1.47.64,3,3,0,0,0-.73,1.78h4.23v-.11a2.74,2.74,0,0,0-.59-1.7A1.82,1.82,0,0,0,664.25,18.58Z"/><path class="cls-3" d="M674.32,23.76a1.08,1.08,0,0,0-.44-.91,4.46,4.46,0,0,0-1.54-.56,7.07,7.07,0,0,1-1.74-.56,2.55,2.55,0,0,1-1-.78,1.89,1.89,0,0,1-.31-1.08,2.22,2.22,0,0,1,.88-1.76,3.45,3.45,0,0,1,2.25-.72,3.51,3.51,0,0,1,2.33.75,2.35,2.35,0,0,1,.9,1.9h-1.46a1.31,1.31,0,0,0-.5-1,2.2,2.2,0,0,0-2.5-.08,1.05,1.05,0,0,0-.45.89.87.87,0,0,0,.41.79,5,5,0,0,0,1.5.51,7.82,7.82,0,0,1,1.75.58,2.55,2.55,0,0,1,1,.81,2,2,0,0,1,.32,1.15,2.17,2.17,0,0,1-.9,1.82,3.85,3.85,0,0,1-2.35.68,4.29,4.29,0,0,1-1.8-.36,2.9,2.9,0,0,1-1.16-1,2.42,2.42,0,0,1-.44-1.4h1.44a1.49,1.49,0,0,0,.58,1.15,2.19,2.19,0,0,0,1.44.43,2.31,2.31,0,0,0,1.31-.33A1,1,0,0,0,674.32,23.76Z"/><path class="cls-3" d="M679.61,15.5v2h1.58v1.12h-1.58v5.3a1.14,1.14,0,0,0,.21.76.87.87,0,0,0,.72.25,4.08,4.08,0,0,0,.69-.09V26a4.18,4.18,0,0,1-1.11.15,1.77,1.77,0,0,1-1.46-.59,2.48,2.48,0,0,1-.5-1.66V18.67h-1.54V17.55h1.54v-2Z"/><path class="cls-3" d="M682.88,15.31a.81.81,0,0,1,.22-.59.75.75,0,0,1,.63-.25.77.77,0,0,1,.64.25.81.81,0,0,1,.22.59.78.78,0,0,1-.22.58.81.81,0,0,1-.64.24.79.79,0,0,1-.85-.73ZM684.44,26H683V17.55h1.44Z"/><path class="cls-3" d="M686.41,21.71a5,5,0,0,1,.92-3.15,3.14,3.14,0,0,1,4.42-.47,3.09,3.09,0,0,1,.41.4l.07-.94h1.28v8.27a3.47,3.47,0,0,1-1,2.59,3.59,3.59,0,0,1-2.61.94,4.24,4.24,0,0,1-1.79-.39,3.05,3.05,0,0,1-1.34-1.07l.75-.87a2.81,2.81,0,0,0,2.28,1.15,2.21,2.21,0,0,0,1.64-.59,2.28,2.28,0,0,0,.59-1.67v-.73a3,3,0,0,1-2.37,1,2.88,2.88,0,0,1-2.4-1.19A5.21,5.21,0,0,1,686.41,21.71Zm1.46.16a3.87,3.87,0,0,0,.58,2.25,1.9,1.9,0,0,0,1.64.81,2.11,2.11,0,0,0,2-1.24V19.82a2.14,2.14,0,0,0-2-1.21,1.9,1.9,0,0,0-1.65.82,4.09,4.09,0,0,0-.57,2.44Z"/><path class="cls-3" d="M701,26a3,3,0,0,1-.2-.89,3.2,3.2,0,0,1-2.41,1.05,3,3,0,0,1-2.05-.71,2.31,2.31,0,0,1-.8-1.79,2.4,2.4,0,0,1,1-2.05,4.7,4.7,0,0,1,2.83-.73h1.41v-.66a1.64,1.64,0,0,0-.46-1.21,1.79,1.79,0,0,0-1.33-.45,2.1,2.1,0,0,0-1.3.39,1.13,1.13,0,0,0-.52.94h-1.46a2,2,0,0,1,.45-1.22,3,3,0,0,1,1.22-.93,4.1,4.1,0,0,1,1.69-.35,3.33,3.33,0,0,1,2.29.74,2.62,2.62,0,0,1,.86,2V24a4.86,4.86,0,0,0,.3,1.85V26Zm-2.4-1.1a2.45,2.45,0,0,0,1.29-.35,2.17,2.17,0,0,0,.89-.91V21.9h-1.14c-1.77,0-2.65.52-2.65,1.56a1.34,1.34,0,0,0,.45,1.06,1.75,1.75,0,0,0,1.12.38Z"/><path class="cls-3" d="M707.83,25a2.08,2.08,0,0,0,1.35-.47,1.65,1.65,0,0,0,.64-1.17h1.37a2.75,2.75,0,0,1-.5,1.38,3.27,3.27,0,0,1-1.18,1.1,3.53,3.53,0,0,1-1.63.39,3.47,3.47,0,0,1-2.75-1.15,4.6,4.6,0,0,1-1-3.15v-.25a5.19,5.19,0,0,1,.38-2.24,3.5,3.5,0,0,1,1.31-1.49,3.63,3.63,0,0,1,2-.54,3.36,3.36,0,0,1,2.36.86,3,3,0,0,1,1,2.21h-1.37a2,2,0,0,0-.62-1.35,2.15,2.15,0,0,0-3.09.27,3.78,3.78,0,0,0-.6,2.29v.27a3.64,3.64,0,0,0,.6,2.25A2,2,0,0,0,707.83,25Z"/><path class="cls-3" d="M712.82,15.31a.84.84,0,0,1,.21-.59.94.94,0,0,1,1.28,0,.81.81,0,0,1,.22.59.78.78,0,0,1-.22.58.81.81,0,0,1-.64.24.78.78,0,0,1-.85-.71v-.11ZM714.38,26h-1.44V17.55h1.44Z"/><path class="cls-3" d="M716.31,21.7a4.91,4.91,0,0,1,.49-2.23,3.62,3.62,0,0,1,1.36-1.54,3.71,3.71,0,0,1,2-.54,3.54,3.54,0,0,1,2.79,1.2A4.62,4.62,0,0,1,724,21.82v.1a5,5,0,0,1-.48,2.22,3.49,3.49,0,0,1-1.35,1.52,3.7,3.7,0,0,1-2,.55A3.57,3.57,0,0,1,717.4,25a4.56,4.56,0,0,1-1.09-3.2Zm1.45.17a3.58,3.58,0,0,0,.66,2.26,2.21,2.21,0,0,0,3.1.39,1.8,1.8,0,0,0,.39-.39,4,4,0,0,0,.65-2.42,3.55,3.55,0,0,0-.66-2.25,2.19,2.19,0,0,0-3.07-.41,2.65,2.65,0,0,0-.41.41A3.9,3.9,0,0,0,717.76,21.87Zm3-7.85h1.75l-2,2.3h-1.16Z"/><path class="cls-3" d="M727.19,17.55v1.06a3.09,3.09,0,0,1,2.53-1.22c1.79,0,2.69,1,2.71,3V26H731V20.41a1.88,1.88,0,0,0-.42-1.35,1.65,1.65,0,0,0-1.27-.44,2.11,2.11,0,0,0-1.24.38,2.6,2.6,0,0,0-.83,1v6h-1.44V17.55Z"/><path class="cls-3" d="M643.51,45a2.08,2.08,0,0,0,1.35-.47,1.66,1.66,0,0,0,.65-1.17h1.36a2.55,2.55,0,0,1-.5,1.38,3.32,3.32,0,0,1-1.23,1,3.53,3.53,0,0,1-1.63.39A3.44,3.44,0,0,1,640.77,45a4.6,4.6,0,0,1-1-3.15v-.25a5.18,5.18,0,0,1,.45-2.19,3.48,3.48,0,0,1,1.3-1.49,3.63,3.63,0,0,1,2-.54,3.36,3.36,0,0,1,2.36.86,3,3,0,0,1,1,2.21h-1.37a2,2,0,0,0-.63-1.35,1.93,1.93,0,0,0-1.37-.53,2,2,0,0,0-1.71.8,3.64,3.64,0,0,0-.61,2.29v.27a3.64,3.64,0,0,0,.6,2.25A2,2,0,0,0,643.51,45Z"/><path class="cls-3" d="M648.08,41.7a5.07,5.07,0,0,1,.49-2.23,3.59,3.59,0,0,1,3.36-2.08,3.54,3.54,0,0,1,2.79,1.2,4.62,4.62,0,0,1,1.06,3.23v.1a5.15,5.15,0,0,1-.47,2.22A3.61,3.61,0,0,1,652,46.21,3.57,3.57,0,0,1,649.17,45a4.61,4.61,0,0,1-1.09-3.2Zm1.46.17a3.65,3.65,0,0,0,.65,2.26,2.22,2.22,0,0,0,3.5,0,4,4,0,0,0,.64-2.42,3.55,3.55,0,0,0-.66-2.25,2.08,2.08,0,0,0-1.75-.87,2.11,2.11,0,0,0-1.73.85,4.05,4.05,0,0,0-.68,2.44Z"/><path class="cls-3" d="M659,37.55v1.06a3.06,3.06,0,0,1,2.55-1.22c1.78,0,2.69,1,2.7,3V46h-1.44V40.41a2,2,0,0,0-.42-1.35,1.68,1.68,0,0,0-1.28-.44,2.08,2.08,0,0,0-1.23.38,2.45,2.45,0,0,0-.83,1v6h-1.45V37.55Z"/><path class="cls-3" d="M669.81,45a2.08,2.08,0,0,0,1.35-.47,1.65,1.65,0,0,0,.64-1.17h1.37a2.55,2.55,0,0,1-.5,1.38,3.32,3.32,0,0,1-1.23,1,3.53,3.53,0,0,1-1.63.39A3.44,3.44,0,0,1,667.07,45a4.6,4.6,0,0,1-1-3.15v-.25a5.07,5.07,0,0,1,.44-2.14,3.42,3.42,0,0,1,1.3-1.49,3.63,3.63,0,0,1,2-.54,3.39,3.39,0,0,1,2.37.86,3,3,0,0,1,1,2.21h-1.37a2,2,0,0,0-.62-1.35,2,2,0,0,0-1.38-.53,2,2,0,0,0-1.7.8,3.64,3.64,0,0,0-.61,2.29v.27a3.64,3.64,0,0,0,.6,2.25A2,2,0,0,0,669.81,45Z"/><path class="cls-3" d="M676.37,46h-1.45V34h1.45Z"/><path class="cls-3" d="M683.9,45.17a3.09,3.09,0,0,1-2.48,1,2.64,2.64,0,0,1-2.06-.78,3.37,3.37,0,0,1-.71-2.33v-5.5h1.44V43c0,1.28.52,1.92,1.57,1.92a2.17,2.17,0,0,0,2.2-1.23V37.55h1.44V46h-1.37Z"/><path class="cls-3" d="M690.26,43.89l2-6.34h1.55l-3.4,9.76c-.52,1.41-1.36,2.11-2.51,2.11h-.27l-.54-.1v-1.2h.39a2,2,0,0,0,1.15-.29,2.18,2.18,0,0,0,.67-1.09l.32-.86-3-8.36h1.58Z"/><path class="cls-3" d="M698.51,46.16a3.69,3.69,0,0,1-2.8-1.13,4.2,4.2,0,0,1-1.08-3v-.26a5.12,5.12,0,0,1,.48-2.25A3.86,3.86,0,0,1,696.45,38a3.4,3.4,0,0,1,1.88-.56,3.16,3.16,0,0,1,2.56,1.09,4.69,4.69,0,0,1,.91,3.11v.6h-5.72a3,3,0,0,0,.73,2,2.27,2.27,0,0,0,1.77.77,2.48,2.48,0,0,0,1.3-.31,3.51,3.51,0,0,0,.93-.83l.88.69A3.54,3.54,0,0,1,698.51,46.16Zm-.18-7.58a1.91,1.91,0,0,0-1.47.64,3.08,3.08,0,0,0-.74,1.78h4.24v-.11a2.69,2.69,0,0,0-.6-1.7,1.76,1.76,0,0,0-1.46-.61Z"/><path class="cls-3" d="M704.81,37.55l.05,1.06a3.09,3.09,0,0,1,2.53-1.22q2.68,0,2.7,3V46h-1.44V40.41a2,2,0,0,0-.42-1.35,1.68,1.68,0,0,0-1.28-.44,2.08,2.08,0,0,0-1.23.38,2.45,2.45,0,0,0-.83,1v6h-1.45V37.55Z"/><path class="cls-3" d="M714.23,35.5v2h1.58v1.12h-1.58v5.3a1.14,1.14,0,0,0,.21.76.87.87,0,0,0,.72.25,4.08,4.08,0,0,0,.69-.09V46a4.18,4.18,0,0,1-1.11.15,1.8,1.8,0,0,1-1.46-.59,2.49,2.49,0,0,1-.49-1.66V38.67h-1.54V37.55h1.54v-2Z"/><path class="cls-3" d="M721,46.16a3.69,3.69,0,0,1-2.8-1.13,4.2,4.2,0,0,1-1.08-3v-.26a5.12,5.12,0,0,1,.48-2.25A3.82,3.82,0,0,1,719,38a3.36,3.36,0,0,1,1.87-.56,3.16,3.16,0,0,1,2.56,1.09,4.69,4.69,0,0,1,.91,3.11v.6h-5.72a3,3,0,0,0,.73,2,2.31,2.31,0,0,0,1.77.77,2.48,2.48,0,0,0,1.3-.31,3.21,3.21,0,0,0,.93-.83l.88.69A3.54,3.54,0,0,1,721,46.16Zm-.18-7.58a1.91,1.91,0,0,0-1.47.64,3.08,3.08,0,0,0-.74,1.78h4.24v-.11a2.69,2.69,0,0,0-.6-1.7A1.78,1.78,0,0,0,720.83,38.58Z"/></g><path id="Trazado_111931" data-name="Trazado 111931" class="cls-2" d="M283,30h38"/><path id="Trazado_111932" data-name="Trazado 111932" class="cls-2" d="M574,30h38"/><path id="Trazado_111933" data-name="Trazado 111933" class="cls-2" d="M512,84H861"/><path id="Trazado_111937" data-name="Trazado 111937" class="cls-2" d="M98.51,84H293"/><path id="Trazado_111934" data-name="Trazado 111934" class="cls-2" d="M512,84v21"/><path id="Trazado_111938" data-name="Trazado 111938" class="cls-2" d="M292.51,84v21"/><path id="Trazado_111939" data-name="Trazado 111939" class="cls-2" d="M98.51,84v21"/><path id="Trazado_111940" data-name="Trazado 111940" class="cls-2" d="M207,61.05v23"/><path id="Trazado_111935" data-name="Trazado 111935" class="cls-2" d="M686.51,61.05V105"/><path id="Trazado_111936" data-name="Trazado 111936" class="cls-2" d="M861,84v21"/><g id="Grupo_61800" data-name="Grupo 61800"><path id="Trazado_112019" data-name="Trazado 112019" class="cls-6" d="M199.51,134.5h13"/><path id="Polígono_6" data-name="Polígono 6" class="cls-7" d="M215,134.5l-5,3v-6Z"/></g><g id="Grupo_61801" data-name="Grupo 61801"><path id="Trazado_112019-2" data-name="Trazado 112019-2" class="cls-6" d="M382.33,134.5h41.18"/><path id="Polígono_6-2" data-name="Polígono 6-2" class="cls-7" d="M426,134.5l-5,3v-6Z"/></g><g id="Grupo_61802" data-name="Grupo 61802"><path id="Trazado_112019-3" data-name="Trazado 112019-3" class="cls-6" d="M592.51,134.5h13"/><path id="Polígono_6-3" data-name="Polígono 6-3" class="cls-7" d="M608,134.5l-5,3v-6Z"/></g><g id="Grupo_61803" data-name="Grupo 61803"><path id="Trazado_112019-4" data-name="Trazado 112019-4" class="cls-6" d="M766.51,134.5h13"/><path id="Polígono_6-4" data-name="Polígono 6-4" class="cls-7" d="M782,134.5l-5,3v-6Z"/></g><g id="Grupo_61805" data-name="Grupo 61805"><path id="Trazado_112019-5" data-name="Trazado 112019-5" class="cls-6" d="M861,166v15.5"/></g><g id="Grupo_61807" data-name="Grupo 61807"><path id="Trazado_112019-6" data-name="Trazado 112019-6" class="cls-6" d="M861,181.53H98.51"/></g><g id="Grupo_61806" data-name="Grupo 61806"><path id="Trazado_112019-7" data-name="Trazado 112019-7" class="cls-6" d="M98.51,181.53v-13"/><path id="Polígono_6-5" data-name="Polígono 6-5" class="cls-7" d="M98.51,166l3,5h-6Z"/></g><g id="Grupo_61808" data-name="Grupo 61808"><path id="Trazado_112019-8" data-name="Trazado 112019-8" class="cls-6" d="M512,181.53v-13"/><path id="Polígono_6-6" data-name="Polígono 6-6" class="cls-7" d="M512,166l3,5h-6Z"/></g></g></g></g></svg>