<svg xmlns="http://www.w3.org/2000/svg" width="105" height="105" viewBox="0 0 105 105">
  <g id="Grupo_61144" data-name="Grupo 61144" transform="translate(-326 -504)">
    <rect id="Rectángulo_5987" data-name="Rectángulo 5987" width="105" height="105" transform="translate(326 504)" fill="none"/>
    <g id="transmitir" transform="translate(334.333 512.333)">
      <g id="Grupo_61367" data-name="Grupo 61367" transform="translate(1.425 1.425)">
        <g id="Grupo_61351" data-name="Grupo 61351" transform="translate(2.849 11.398)">
          <path id="Trazado_110950" data-name="Trazado 110950" d="M74.236,31.8a79.794,79.794,0,0,1-29.592,5.7h-4.6V16.124A1.429,1.429,0,0,0,38.618,14.7H10.124A1.429,1.429,0,0,0,8.7,16.124V41.769a1.429,1.429,0,0,0,1.425,1.425H24.471a11.4,11.4,0,0,0,1.254,13.15v.014A14.609,14.609,0,0,0,20.1,61.715a1.429,1.429,0,0,0-1.425-1.425H3V9H77.086V28.946H75.661a1.429,1.429,0,0,0-1.425,1.425Z" transform="translate(-3 -9)" fill="#f0d0b4"/>
        </g>
        <g id="Grupo_61352" data-name="Grupo 61352" transform="translate(45.591 28.495)">
          <path id="Trazado_110951" data-name="Trazado 110951" d="M55.8,22.425v2.849A1.429,1.429,0,0,1,54.371,26.7H34.425A1.429,1.429,0,0,1,33,25.274V22.425A1.429,1.429,0,0,1,34.425,21H54.371A1.429,1.429,0,0,1,55.8,22.425Z" transform="translate(-33 -21)" fill="#ef7385"/>
        </g>
        <g id="Grupo_61353" data-name="Grupo 61353" transform="translate(45.591 17.097)">
          <path id="Trazado_110952" data-name="Trazado 110952" d="M55.8,14.425v2.849A1.429,1.429,0,0,1,54.371,18.7H34.425A1.429,1.429,0,0,1,33,17.274V14.425A1.429,1.429,0,0,1,34.425,13H54.371A1.429,1.429,0,0,1,55.8,14.425Z" transform="translate(-33 -13)" fill="#e6e9ed"/>
        </g>
        <g id="Grupo_61354" data-name="Grupo 61354" transform="translate(2.849)">
          <path id="Trazado_110953" data-name="Trazado 110953" d="M5.849,1H74.236a2.858,2.858,0,0,1,2.849,2.849V12.4H3V3.849A2.858,2.858,0,0,1,5.849,1Z" transform="translate(-3 -1)" fill="#ef7385"/>
        </g>
        <g id="Grupo_61355" data-name="Grupo 61355" transform="translate(8.548 17.097)">
          <path id="Trazado_110954" data-name="Trazado 110954" d="M38.344,14.425V35.8h-5.7a11.394,11.394,0,0,0-9.873,5.7H8.425A1.429,1.429,0,0,1,7,40.07V14.425A1.429,1.429,0,0,1,8.425,13H36.919A1.429,1.429,0,0,1,38.344,14.425Z" transform="translate(-7 -13)" fill="#b4dd7f"/>
        </g>
        <g id="Grupo_61356" data-name="Grupo 61356" transform="translate(37.043 62.602)">
          <path id="Trazado_110955" data-name="Trazado 110955" d="M34.964,44.94l.014.142a2.861,2.861,0,0,0-1.439.784,2.786,2.786,0,0,0-.841,2.009,2.858,2.858,0,0,0,2.849,2.849A2.87,2.87,0,0,0,32.7,53.574a2.858,2.858,0,0,0,2.849,2.849A2.87,2.87,0,0,0,32.7,59.273a2.858,2.858,0,0,0,2.849,2.849v2.849A2.858,2.858,0,0,1,32.7,67.821H29.849A2.858,2.858,0,0,1,27,64.972V48.131c1.966-1.667,2.465-2.351,2.849-3.106h4.274A4.1,4.1,0,0,0,34.964,44.94Z" transform="translate(-27 -44.94)" fill="#ccd1d9"/>
        </g>
        <g id="Grupo_61357" data-name="Grupo 61357" transform="translate(37.043 34.193)">
          <path id="Trazado_110956" data-name="Trazado 110956" d="M37.144,52.241A4.264,4.264,0,0,0,38.4,49.22,1.429,1.429,0,0,0,36.973,47.8H27V30.7h7.451A79.794,79.794,0,0,0,64.043,25V59.193A79.941,79.941,0,0,0,39.31,53.637v.014a2.786,2.786,0,0,0-.912-.157H35.548a2.5,2.5,0,0,0-.57.057l-.014-.142A4.188,4.188,0,0,0,37.144,52.241Z" transform="translate(-27 -25)" fill="#e6e9ed"/>
        </g>
        <g id="Grupo_61358" data-name="Grupo 61358" transform="translate(74.086 31.344)">
          <path id="Trazado_110957" data-name="Trazado 110957" d="M58.7,51.495V64.317a1.429,1.429,0,0,1-1.425,1.425H54.425A1.429,1.429,0,0,1,53,64.317V24.425A1.429,1.429,0,0,1,54.425,23h2.849A1.429,1.429,0,0,1,58.7,24.425v27.07Z" transform="translate(-53 -23)" fill="#fcd770"/>
        </g>
        <g id="Grupo_61359" data-name="Grupo 61359" transform="translate(22.796 39.892)">
          <path id="Trazado_110958" data-name="Trazado 110958" d="M31.247,29V46.1H26.731a14.525,14.525,0,0,0-6.953,1.767v-.014A11.393,11.393,0,0,1,28.4,29Z" transform="translate(-17 -29)" fill="#fcd770"/>
        </g>
        <g id="Grupo_61360" data-name="Grupo 61360" transform="translate(0 62.688)">
          <path id="Trazado_110959" data-name="Trazado 110959" d="M20.946,46.425V60.672A1.429,1.429,0,0,1,19.521,62.1H1V45H19.521A1.429,1.429,0,0,1,20.946,46.425Z" transform="translate(-1 -45)" fill="#e6e9ed"/>
        </g>
        <g id="Grupo_61361" data-name="Grupo 61361" transform="translate(42.742 74.086)">
          <path id="Trazado_110960" data-name="Trazado 110960" d="M36.7,53a2.858,2.858,0,0,1,2.849,2.849A2.87,2.87,0,0,1,36.7,58.7H33.849A2.858,2.858,0,0,1,31,55.849,2.87,2.87,0,0,1,33.849,53Z" transform="translate(-31 -53)" fill="#f0d0b4"/>
        </g>
        <g id="Grupo_61362" data-name="Grupo 61362" transform="translate(42.742 62.688)">
          <path id="Trazado_110961" data-name="Trazado 110961" d="M37.611,45.157a2.847,2.847,0,0,1,1.938,2.693A2.87,2.87,0,0,1,36.7,50.7H33.849A2.858,2.858,0,0,1,31,47.849a2.786,2.786,0,0,1,.841-2.009,2.861,2.861,0,0,1,1.439-.784,2.5,2.5,0,0,1,.57-.057H36.7A2.786,2.786,0,0,1,37.611,45.157Z" transform="translate(-31 -45)" fill="#f0d0b4"/>
        </g>
        <g id="Grupo_61363" data-name="Grupo 61363" transform="translate(42.742 68.387)">
          <path id="Trazado_110962" data-name="Trazado 110962" d="M36.7,49a2.858,2.858,0,0,1,2.849,2.849A2.87,2.87,0,0,1,36.7,54.7H33.849A2.858,2.858,0,0,1,31,51.849,2.87,2.87,0,0,1,33.849,49Z" transform="translate(-31 -49)" fill="#f0d0b4"/>
        </g>
        <g id="Grupo_61364" data-name="Grupo 61364" transform="translate(19.946 56.989)">
          <path id="Trazado_110963" data-name="Trazado 110963" d="M32.1,62.371v4.274H25.315A14.6,14.6,0,0,1,15,62.371V48.124A14.757,14.757,0,0,1,27.58,41H42.07a1.429,1.429,0,0,1,1.425,1.425,4.264,4.264,0,0,1-1.254,3.02,4.188,4.188,0,0,1-2.18,1.168,4.1,4.1,0,0,1-.841.085H34.946c-.385.755-.883,1.439-2.849,3.106Z" transform="translate(-15 -41)" fill="#f0d0b4"/>
        </g>
        <g id="Grupo_61365" data-name="Grupo 61365" transform="translate(79.785 47.016)">
          <path id="Trazado_110964" data-name="Trazado 110964" d="M59.508,35.254A5.785,5.785,0,0,1,62.7,40.411a5.7,5.7,0,0,1-.869,3.02,5.8,5.8,0,0,1-2.322,2.137L57,46.823V34Z" transform="translate(-57 -34)" fill="#ef7385"/>
        </g>
        <g id="Grupo_61366" data-name="Grupo 61366" transform="translate(17.097 22.796)">
          <path id="Trazado_110965" data-name="Trazado 110965" d="M25.979,22.058a2.317,2.317,0,0,1,0,4.132l-9.645,4.816A2.305,2.305,0,0,1,13,28.939V19.308a2.305,2.305,0,0,1,3.334-2.066Z" transform="translate(-13 -17)" fill="#ef7385"/>
        </g>
      </g>
      <g id="Grupo_61368" data-name="Grupo 61368">
        <path id="Trazado_110966" data-name="Trazado 110966" d="M84.359,48.422l-1.725-.862V34.193a2.852,2.852,0,0,0-2.849-2.849V4.274A4.279,4.279,0,0,0,75.51,0H7.124A4.279,4.279,0,0,0,2.849,4.274V62.688H0V82.634H19.946a2.812,2.812,0,0,0,1.775-.64,15.888,15.888,0,0,0,9.967,3.489h5.616a4.268,4.268,0,0,0,4.012,2.849h2.849a4.279,4.279,0,0,0,4.274-4.274V82.634h1.425a4.256,4.256,0,0,0,3.163-7.124,4.209,4.209,0,0,0,0-5.7,4.129,4.129,0,0,0,.98-3.851A78.093,78.093,0,0,1,74.086,70.8v3.288a2.852,2.852,0,0,0,2.849,2.849h2.849a2.852,2.852,0,0,0,2.849-2.849V62.144l1.725-.862a7.189,7.189,0,0,0,0-12.86ZM7.124,2.849H75.51a1.426,1.426,0,0,1,1.425,1.425V11.4H5.7V4.274A1.426,1.426,0,0,1,7.124,2.849ZM19.946,79.785H2.849V65.537h17.1Zm2.849-.628V65.978a13.307,13.307,0,0,1,11.157-6.139H48.441a2.852,2.852,0,0,1-2.849,2.849H40.437l-.393.788a6.228,6.228,0,0,1-3.623,3.143l-1.252.417.9,2.7.973-.325V75.84a14.587,14.587,0,0,0-5.249-3.1l-.9,2.7a11.763,11.763,0,0,1,6.038,4.613l.113.167v2.416H31.689A13.064,13.064,0,0,1,22.8,79.156Zm2.849-26.441a9.985,9.985,0,0,1,9.973-9.973h1.425V56.989h-3.09a16.011,16.011,0,0,0-6.488,1.4A9.936,9.936,0,0,1,25.645,52.715ZM39.892,39.892H35.618a12.816,12.816,0,0,0-10.654,5.7H11.4V19.946H39.892Zm9.973,28.495H47.016a1.425,1.425,0,1,1,0-2.849h2.849a1.425,1.425,0,1,1,0,2.849Zm1.425,4.274a1.426,1.426,0,0,1-1.425,1.425H47.016a1.425,1.425,0,1,1,0-2.849h2.849A1.426,1.426,0,0,1,51.29,72.661ZM44.167,85.484H41.317a1.426,1.426,0,0,1-1.425-1.425v-16.1a9.01,9.01,0,0,0,2.257-2.426H43a4.143,4.143,0,0,0,.849,4.274,4.209,4.209,0,0,0,0,5.7,4.235,4.235,0,0,0,1.738,6.861v1.687A1.426,1.426,0,0,1,44.167,85.484Zm5.7-5.7H47.016a1.425,1.425,0,0,1,0-2.849h2.849a1.425,1.425,0,0,1,0,2.849Zm1.091-16.937a4.311,4.311,0,0,0-.493-.1,5.641,5.641,0,0,0,.826-2.911,2.852,2.852,0,0,0-2.849-2.849H39.892V42.742h6.025A80.7,80.7,0,0,0,74.086,37.67V67.751A80.954,80.954,0,0,0,50.957,62.848ZM74.086,34.193v.436q-1.686.652-3.392,1.224a2.832,2.832,0,0,0,.543-1.66V31.344a2.852,2.852,0,0,0-2.849-2.849H48.441a2.852,2.852,0,0,0-2.849,2.849v2.849a2.852,2.852,0,0,0,2.849,2.849H66.787a77.914,77.914,0,0,1-20.868,2.849H42.742V19.946A2.852,2.852,0,0,0,39.892,17.1H11.4a2.852,2.852,0,0,0-2.849,2.849V45.591A2.852,2.852,0,0,0,11.4,48.441H23.544a12.693,12.693,0,0,0,1.4,11.356,16.113,16.113,0,0,0-3.592,3.277,2.806,2.806,0,0,0-1.4-.386H5.7V14.247H76.935v17.1A2.852,2.852,0,0,0,74.086,34.193Zm-5.7,0H48.441V31.344H68.387Zm8.547,39.892V34.193h2.849V74.086Zm6.149-15.353-.45.225V50.746l.45.225a4.338,4.338,0,0,1,0,7.762Z" fill="#3a3c07"/>
        <path id="Trazado_110967" data-name="Trazado 110967" d="M40,56h2.849v2.849H40Z" transform="translate(16.989 23.785)" fill="#3a3c07"/>
        <path id="Trazado_110968" data-name="Trazado 110968" d="M44,56h2.849v2.849H44Z" transform="translate(18.688 23.785)" fill="#3a3c07"/>
        <path id="Trazado_110969" data-name="Trazado 110969" d="M48,56h2.849v2.849H48Z" transform="translate(20.387 23.785)" fill="#3a3c07"/>
        <path id="Trazado_110970" data-name="Trazado 110970" d="M8,4h2.849V6.849H8Z" transform="translate(3.398 1.699)" fill="#3a3c07"/>
        <path id="Trazado_110971" data-name="Trazado 110971" d="M12,4h2.849V6.849H12Z" transform="translate(5.097 1.699)" fill="#3a3c07"/>
        <path id="Trazado_110972" data-name="Trazado 110972" d="M16,4h2.849V6.849H16Z" transform="translate(6.796 1.699)" fill="#3a3c07"/>
        <path id="Trazado_110973" data-name="Trazado 110973" d="M7,36h9.973v2.849H7Z" transform="translate(2.973 15.29)" fill="#3a3c07"/>
        <path id="Trazado_110974" data-name="Trazado 110974" d="M7,40h9.973v2.849H7Z" transform="translate(2.973 16.989)" fill="#3a3c07"/>
        <path id="Trazado_110975" data-name="Trazado 110975" d="M15.73,33.1A3.764,3.764,0,0,0,17.4,32.7l9.637-4.818a3.731,3.731,0,0,0,0-6.673L17.4,16.393A3.731,3.731,0,0,0,12,19.73v9.637A3.734,3.734,0,0,0,15.73,33.1Zm-.88-13.367a.881.881,0,0,1,.88-.88.872.872,0,0,1,.393.093L25.76,23.76a.881.881,0,0,1,0,1.576l-9.637,4.818a.907.907,0,0,1-1.275-.788V19.73Z" transform="translate(5.097 6.796)" fill="#3a3c07"/>
        <path id="Trazado_110976" data-name="Trazado 110976" d="M54.8,12H34.849A2.852,2.852,0,0,0,32,14.849V17.7a2.852,2.852,0,0,0,2.849,2.849H54.8A2.852,2.852,0,0,0,57.645,17.7V14.849A2.852,2.852,0,0,0,54.8,12ZM34.849,17.7V14.849H54.8V17.7Z" transform="translate(13.591 5.097)" fill="#3a3c07"/>
      </g>
    </g>
  </g>
</svg>
