<svg xmlns="http://www.w3.org/2000/svg" width="105" height="105" viewBox="0 0 105 105">
  <g id="Grupo_61786" data-name="Grupo 61786" transform="translate(-326 -504)">
    <rect id="Rectángulo_5987" data-name="Rectángulo 5987" width="105" height="105" transform="translate(326 504)" fill="none"/>
    <g id="Grupo_61790" data-name="Grupo 61790" transform="translate(-79 -1076)">
      <ellipse id="Elipse_4345" data-name="Elipse 4345" cx="10" cy="10.5" rx="10" ry="10.5" transform="translate(440 1622.001)" fill="#a0a603"/>
      <circle id="Elipse_4346" data-name="Elipse 4346" cx="5" cy="5" r="5" transform="translate(444 1600.001)" fill="#fee45a"/>
      <ellipse id="Elipse_4347" data-name="Elipse 4347" cx="5" cy="4.5" rx="5" ry="4.5" transform="translate(414 1599.001)" fill="#878791"/>
      <ellipse id="Elipse_4348" data-name="Elipse 4348" cx="4" cy="5" rx="4" ry="5" transform="translate(470 1652.001)" fill="#878791"/>
      <ellipse id="Elipse_4349" data-name="Elipse 4349" cx="5" cy="4.5" rx="5" ry="4.5" transform="translate(414 1629.001)" fill="#529ad9"/>
      <ellipse id="Elipse_4350" data-name="Elipse 4350" cx="5" cy="4.5" rx="5" ry="4.5" transform="translate(414 1659.001)" fill="#ff5a5a"/>
      <ellipse id="Elipse_4351" data-name="Elipse 4351" cx="4.5" cy="5" rx="4.5" ry="5" transform="translate(482 1590.001)" fill="#ff5a5a"/>
      <ellipse id="Elipse_4352" data-name="Elipse 4352" cx="5" cy="4.5" rx="5" ry="4.5" transform="translate(491 1629.001)" fill="#529ad9"/>
      <circle id="Elipse_4353" data-name="Elipse 4353" cx="5" cy="5" r="5" transform="translate(444 1666.001)" fill="#fee45a"/>
      <g id="Grupo_61789" data-name="Grupo 61789" transform="translate(411 1586.002)">
        <path id="Trazado_111901" data-name="Trazado 111901" d="M495.794,1624.292a8.218,8.218,0,0,0-7.735,5.471H462.7a13.559,13.559,0,0,0-2-4.8l23.354-23.354a8.222,8.222,0,0,0,9.338-1.6h0a8.206,8.206,0,1,0-13.206-2.267l-23.354,23.354a13.573,13.573,0,0,0-4.8-2v-6.217a8.206,8.206,0,1,0-5.47,0v6.217a13.574,13.574,0,0,0-4.8,2l-15.148-15.148a8.192,8.192,0,1,0-3.868,3.868l15.148,15.148a13.6,13.6,0,0,0-2,4.8h-8.952a8.206,8.206,0,1,0,0,5.469h8.952a13.6,13.6,0,0,0,2,4.8l-15.148,15.148a8.206,8.206,0,1,0,3.868,3.868l15.148-15.148a13.567,13.567,0,0,0,4.8,2v17.158a8.206,8.206,0,1,0,5.47,0V1645.9a13.566,13.566,0,0,0,4.8-2l9.678,9.678a8.205,8.205,0,1,0,3.868-3.868l-9.678-9.678a13.6,13.6,0,0,0,2-4.8h25.364a8.205,8.205,0,1,0,7.735-10.941Zm-10.14-32.022a2.735,2.735,0,1,1,0,3.868A2.719,2.719,0,0,1,485.654,1592.27Zm-36.36,10.14a2.735,2.735,0,1,1-2.735,2.735A2.737,2.737,0,0,1,449.294,1602.411Zm-32.022,1.934a2.736,2.736,0,1,1,1.934.8A2.737,2.737,0,0,1,417.272,1604.345Zm1.934,30.889a2.735,2.735,0,1,1,2.735-2.735A2.737,2.737,0,0,1,419.206,1635.233Zm1.934,29.287a2.734,2.734,0,1,1,0-3.868A2.719,2.719,0,0,1,421.14,1664.52Zm28.154,9.007a2.735,2.735,0,1,1,2.735-2.735A2.738,2.738,0,0,1,449.294,1673.527Zm0-32.823a8.206,8.206,0,1,1,8.206-8.206A8.216,8.216,0,0,1,449.294,1640.7Zm26.552,14.478a2.735,2.735,0,0,1-3.868,3.868h0a2.735,2.735,0,1,1,3.868-3.868Zm19.948-19.949a2.735,2.735,0,1,1,2.735-2.735A2.737,2.737,0,0,1,495.794,1635.233Z" transform="translate(-411 -1586.002)" fill="#3a3c07"/>
      </g>
    </g>
  </g>
</svg>
