<svg xmlns="http://www.w3.org/2000/svg" width="120.477" height="120.477" viewBox="0 0 120.477 120.477">
  <g id="pie-begery-dessert-food-pies" transform="translate(-101.523 -1302.792)">
    <path id="Trazado_111879" data-name="Trazado 111879" d="M113.571,1344.959h96.381v68.27H113.571Z" fill="#fee45a"/>
    <path id="Trazado_111880" data-name="Trazado 111880" d="M201.92,1344.959h8.032v68.27H201.92Z" fill="#ffd422"/>
    <path id="Trazado_111881" data-name="Trazado 111881" d="M219.992,1417.245a4.046,4.046,0,0,1-4.016,4.016H107.547a4.016,4.016,0,1,1,0-8.032H215.976A4.029,4.029,0,0,1,219.992,1417.245Z" fill="#898890"/>
    <path id="Trazado_111882" data-name="Trazado 111882" d="M219.992,1417.245a4.046,4.046,0,0,1-4.016,4.016h-8.032a4.016,4.016,0,1,0,0-8.032h8.032A4.029,4.029,0,0,1,219.992,1417.245Z" fill="#57565c"/>
    <path id="Trazado_111883" data-name="Trazado 111883" d="M214.53,1326.224l3.454,20.743a8.032,8.032,0,0,1-16.064,0v-24.1h8.655a4.029,4.029,0,0,1,3.955,3.353Z" fill="#ff3051"/>
    <path id="Trazado_111884" data-name="Trazado 111884" d="M217.984,1346.967a8.02,8.02,0,0,1-12.048,6.947,8.452,8.452,0,0,0,1.667-1.265,8.085,8.085,0,0,0,2.349-5.682l-3.453-20.743a4.03,4.03,0,0,0-3.956-3.353h8.032a4.029,4.029,0,0,1,3.955,3.353Z" fill="#cd2a00"/>
    <rect id="Rect치ngulo_6183" data-name="Rect치ngulo 6183" width="48.191" height="40.159" rx="4.016" transform="translate(153.73 1365.038)" fill="#529ad9"/>
    <path id="Trazado_111885" data-name="Trazado 111885" d="M201.92,1369.054v32.127a4.027,4.027,0,0,1-4.015,4.016h-8.032a4.028,4.028,0,0,0,4.016-4.016v-32.127a4.029,4.029,0,0,0-4.016-4.016H197.9A4.027,4.027,0,0,1,201.92,1369.054Z" fill="#4492cc"/>
    <rect id="Rect치ngulo_6184" data-name="Rect치ngulo 6184" width="64.254" height="40.159" rx="4.016" transform="translate(129.634 1304.8)" fill="#ebe5dd"/>
    <path id="Trazado_111886" data-name="Trazado 111886" d="M193.889,1308.816v32.127a4.029,4.029,0,0,1-4.016,4.016h-8.032a4.029,4.029,0,0,0,4.016-4.016v-32.127a4.027,4.027,0,0,0-4.016-4.016h8.032A4.027,4.027,0,0,1,193.889,1308.816Z" fill="#c0ab91"/>
    <path id="Trazado_111887" data-name="Trazado 111887" d="M145.7,1385.118v28.111H121.6v-28.111a12.048,12.048,0,1,1,24.1,0Z" fill="#a78966"/>
    <path id="Trazado_111888" data-name="Trazado 111888" d="M145.7,1385.118v28.111h-8.032v-28.111a11.932,11.932,0,0,0-3.534-8.514,11.574,11.574,0,0,0-4.5-2.831,11.634,11.634,0,0,1,4.016-.7,12.066,12.066,0,0,1,12.048,12.048Z" fill="#806749"/>
    <path id="Trazado_111889" data-name="Trazado 111889" d="M201.92,1322.871v24.1a8.032,8.032,0,0,1-16.063,0v-2.008h4.016a4.029,4.029,0,0,0,4.016-4.016v-18.072Z" fill="#ff3051"/>
    <path id="Trazado_111890" data-name="Trazado 111890" d="M185.857,1373.251a12.028,12.028,0,0,1,10.04,11.867c-2.129,0-2.751,2.028-4.016,3.192a2.8,2.8,0,0,1-2.008.824c-3.012,0-3.012-4.016-6.024-4.016s-3.012,4.016-6.024,4.016-3.012-4.016-6.024-4.016-3.012,4.016-6.024,4.016a2.8,2.8,0,0,1-2.008-.824c-1.265-1.164-1.887-3.192-4.015-3.192a11.935,11.935,0,0,1,3.533-8.514,11.714,11.714,0,0,1,6.506-3.353,11.01,11.01,0,0,1,2.008-.181h12.048a11,11,0,0,1,2.008.181Z" fill="#fee9ab"/>
    <path id="Trazado_111891" data-name="Trazado 111891" d="M191.881,1388.31v8.855H163.769v-8.855a2.8,2.8,0,0,0,2.008.824c3.012,0,3.012-4.016,6.024-4.016s3.012,4.016,6.024,4.016,3.012-4.016,6.024-4.016,3.012,4.016,6.024,4.016A2.8,2.8,0,0,0,191.881,1388.31Z" fill="#6a563d"/>
    <path id="Trazado_111892" data-name="Trazado 111892" d="M185.857,1344.959v2.008a8.032,8.032,0,0,1-16.064,0,8.032,8.032,0,0,1-16.063,0,8.032,8.032,0,0,1-16.064,0,8.032,8.032,0,0,1-16.064,0v-24.1h8.032v18.072a4.029,4.029,0,0,0,4.016,4.016Z" fill="#ff3051"/>
    <path id="Trazado_111893" data-name="Trazado 111893" d="M169.793,1313.012a12.028,12.028,0,0,1,10.04,11.867c-2.128,0-2.751,2.028-4.016,3.193a2.8,2.8,0,0,1-2.008.823c-3.012,0-3.012-4.016-6.024-4.016s-3.012,4.016-6.024,4.016-3.011-4.016-6.023-4.016-3.012,4.016-6.024,4.016a2.8,2.8,0,0,1-2.008-.823c-1.265-1.165-1.888-3.193-4.016-3.193a11.934,11.934,0,0,1,3.534-8.514,11.711,11.711,0,0,1,6.506-3.353,10.983,10.983,0,0,1,2.008-.181h12.047A10.983,10.983,0,0,1,169.793,1313.012Z" fill="#fee9ab"/>
    <path id="Trazado_111894" data-name="Trazado 111894" d="M175.817,1328.072v8.855H147.706v-8.855a2.8,2.8,0,0,0,2.008.823c3.012,0,3.012-4.016,6.024-4.016s3.012,4.016,6.023,4.016,3.012-4.016,6.024-4.016,3.012,4.016,6.024,4.016A2.8,2.8,0,0,0,175.817,1328.072Z" fill="#6a563d"/>
    <path id="Trazado_111895" data-name="Trazado 111895" d="M121.6,1322.871v24.1a8.031,8.031,0,0,1-16.063,0l3.453-20.743a4.03,4.03,0,0,1,3.956-3.353Z" fill="#ff3051"/>
    <path id="Trazado_111896" data-name="Trazado 111896" d="M137.666,1393.149h4.016v4.016h-4.016Z" fill="#3a3c07"/>
    <path id="Trazado_111897" data-name="Trazado 111897" d="M215.976,1411.221H211.96v-54.415a10.075,10.075,0,0,0,8.032-9.839,1.65,1.65,0,0,0-.02-.322L216.5,1325.9a5.979,5.979,0,0,0-5.923-5.04H195.9v-12.047a6.042,6.042,0,0,0-6.024-6.024H133.65a6.042,6.042,0,0,0-6.024,6.024v12.047H112.948a5.979,5.979,0,0,0-5.923,5.04l-3.474,20.742a1.649,1.649,0,0,0-.02.322,10.075,10.075,0,0,0,8.032,9.839v54.415h-4.016a6.024,6.024,0,0,0,0,12.048H215.976a6.024,6.024,0,0,0,0-12.048Zm-12.048-86.342h6.647a1.987,1.987,0,0,1,1.968,1.687l3.433,20.561a6.025,6.025,0,1,1-12.048-.16Zm-8.031,16.064v-16.064h4.016v22.088a6.024,6.024,0,0,1-12.048,0h2.008A6.042,6.042,0,0,0,195.9,1340.943Zm-64.255-32.127a2.008,2.008,0,0,1,2.008-2.008h56.223a2.008,2.008,0,0,1,2.008,2.008v32.127a2.008,2.008,0,0,1-2.008,2.008H133.65a2.008,2.008,0,0,1-2.008-2.008Zm52.207,38.151a6.024,6.024,0,0,1-12.048,0Zm-16.064,0a6.023,6.023,0,0,1-12.047,0Zm-16.063,0a6.024,6.024,0,0,1-12.048,0Zm-28.112-22.088h4.016v16.064a6.042,6.042,0,0,0,6.024,6.024h2.008a6.024,6.024,0,0,1-12.048,0ZM121.6,1352.99a10.04,10.04,0,0,0,16.064,0,10.04,10.04,0,0,0,16.064,0,10.039,10.039,0,0,0,16.063,0,10.04,10.04,0,0,0,16.064,0,10.037,10.037,0,0,0,16.063,0,10.026,10.026,0,0,0,6.024,3.8v54.436H147.706v-26.1a14.056,14.056,0,1,0-28.112,0v26.1h-4.015v-54.436A10.021,10.021,0,0,0,121.6,1352.99Zm22.088,32.128v26.1H123.61v-26.1a10.04,10.04,0,1,1,20.08,0Zm-36.143-37.991,3.433-20.561a1.986,1.986,0,0,1,1.968-1.687h6.646v22.088a6.024,6.024,0,1,1-12.047.16Zm108.429,72.126H107.547a2.008,2.008,0,1,1,0-4.016H215.976a2.008,2.008,0,1,1,0,4.016Z" fill="#3a3c07"/>
    <path id="Trazado_111898" data-name="Trazado 111898" d="M167.785,1310.823H155.738a14.073,14.073,0,0,0-14.056,14.056,2.008,2.008,0,0,0,2.008,2.008c.422,0,.642.2,1.4,1.205.181.241.382.5.6.763v8.072a2.008,2.008,0,0,0,2.008,2.008h28.111a2.008,2.008,0,0,0,2.008-2.008v-8.072c.221-.261.422-.522.6-.763.763-1,.984-1.205,1.406-1.205a2.008,2.008,0,0,0,2.008-2.008A14.073,14.073,0,0,0,167.785,1310.823Zm6.024,24.1h-24.1V1330.9a5.623,5.623,0,0,0,4.618-2.811c.763-1,.984-1.205,1.406-1.205s.642.2,1.4,1.205a5.2,5.2,0,0,0,9.237,0c.763-1,.984-1.205,1.4-1.205s.643.2,1.406,1.205a5.623,5.623,0,0,0,4.618,2.811Zm1.406-9.237c-.763,1-.984,1.2-1.406,1.2s-.642-.2-1.4-1.2a5.2,5.2,0,0,0-9.237,0c-.763,1-.984,1.2-1.406,1.2s-.642-.2-1.4-1.2a5.2,5.2,0,0,0-9.237,0c-.763,1-.984,1.2-1.4,1.2s-.643-.2-1.406-1.2a7.2,7.2,0,0,0-2.49-2.329,10.056,10.056,0,0,1,5.9-7.65v3.152h4.016v-4.016h4.016v4.016h4.015v-4.016h4.016v4.016H171.8V1315.7a10.056,10.056,0,0,1,5.9,7.65,7.2,7.2,0,0,0-2.49,2.329Z" fill="#3a3c07"/>
    <path id="Trazado_111899" data-name="Trazado 111899" d="M197.9,1363.03H157.746a6.042,6.042,0,0,0-6.024,6.024v32.127a6.042,6.042,0,0,0,6.024,6.024H197.9a6.041,6.041,0,0,0,6.023-6.024v-32.127A6.041,6.041,0,0,0,197.9,1363.03Zm2.008,38.151a2.008,2.008,0,0,1-2.008,2.008H157.746a2.008,2.008,0,0,1-2.008-2.008v-32.127a2.008,2.008,0,0,1,2.008-2.008H197.9a2.008,2.008,0,0,1,2.008,2.008Z" fill="#3a3c07"/>
    <path id="Trazado_111900" data-name="Trazado 111900" d="M183.849,1371.062H171.8a14.071,14.071,0,0,0-14.055,14.056,2.008,2.008,0,0,0,2.008,2.008c.421,0,.642.2,1.4,1.2.181.241.382.5.6.763v8.072a2.008,2.008,0,0,0,2.008,2.008h28.112a2.008,2.008,0,0,0,2.008-2.008v-8.072c.221-.261.421-.522.6-.763.763-1,.984-1.2,1.406-1.2a2.008,2.008,0,0,0,2.008-2.008A14.073,14.073,0,0,0,183.849,1371.062Zm6.024,24.095h-24.1v-4.015a5.623,5.623,0,0,0,4.619-2.812c.763-1,.984-1.2,1.4-1.2s.643.2,1.406,1.2a5.2,5.2,0,0,0,9.236,0c.763-1,.984-1.2,1.406-1.2s.642.2,1.4,1.2a5.623,5.623,0,0,0,4.619,2.812Zm1.4-9.236c-.763,1-.984,1.2-1.4,1.2s-.643-.2-1.406-1.2a5.2,5.2,0,0,0-9.236,0c-.763,1-.984,1.2-1.406,1.2s-.642-.2-1.4-1.2a5.2,5.2,0,0,0-9.237,0c-.763,1-.984,1.2-1.406,1.2s-.642-.2-1.4-1.2a7.2,7.2,0,0,0-2.49-2.329,10.056,10.056,0,0,1,5.9-7.651v3.153H171.8v-4.016h4.016v4.016h4.016v-4.016h4.016v4.016h4.016v-3.153a10.056,10.056,0,0,1,5.9,7.651,7.2,7.2,0,0,0-2.49,2.329Z" fill="#3a3c07"/>
  </g>
</svg>
