<svg xmlns="http://www.w3.org/2000/svg" width="105" height="105" viewBox="0 0 105 105">
  <g id="Grupo_61312" data-name="Grupo 61312" transform="translate(-266 -3161)">
    <g id="brain" transform="translate(276.609 3167.002)">
      <path id="Trazado_110912" data-name="Trazado 110912" d="M74.606,97.372V76.724a13.681,13.681,0,0,1,3.474-9.092A36.528,36.528,0,1,0,14.288,41.783l-.04,0L7.38,61.007a2.82,2.82,0,0,0,2.045,3.7l7.456,1.657,1.862,17.368a2.819,2.819,0,0,0,2.8,2.519H36.484V97.373Z" transform="translate(-5.236 -5.245)" fill="#fdc8a2"/>
      <path id="Trazado_110913" data-name="Trazado 110913" d="M70.957,92.127V71.479a12.082,12.082,0,0,1,3.073-8.035A37.983,37.983,0,0,0,83.665,38.12c0-.634-.016-1.269-.046-1.908A38.284,38.284,0,0,0,48.416.106C47.453.035,46.495,0,45.546,0A38.119,38.119,0,0,0,7.464,36.469l1.588.069.123-1.586-.042,0A1.59,1.59,0,0,0,7.515,36L.649,55.228a4.369,4.369,0,0,0-.258,1.483,4.414,4.414,0,0,0,3.452,4.3l6.346,1.408,1.74,16.235A4.407,4.407,0,0,0,16.311,82.6H29.661v9.531a1.589,1.589,0,0,0,3.177,0V81.009a1.589,1.589,0,0,0-1.59-1.589H16.311a1.23,1.23,0,0,1-1.225-1.1l-1.86-17.368A1.592,1.592,0,0,0,11.99,59.57L4.532,57.913a1.236,1.236,0,0,1-.966-1.2L3.64,56.3l6.867-19.229-1.5-.534-.124,1.583.042,0A1.591,1.591,0,0,0,10.638,36.6,34.938,34.938,0,0,1,45.546,3.177q1.3,0,2.638.1a35.111,35.111,0,0,1,32.261,33.1q.042.877.044,1.751a34.786,34.786,0,0,1-8.833,23.21,15.259,15.259,0,0,0-3.874,10.149v20.65a1.587,1.587,0,1,0,3.175,0" transform="translate(0)" fill="#3a3c07"/>
      <path id="Trazado_110914" data-name="Trazado 110914" d="M94.928,27.316a30.179,30.179,0,1,0,30.18,30.178,30.178,30.178,0,0,0-30.18-30.178" transform="translate(-49.385 -20.961)" fill="#ddbc76"/>
      <path id="Trazado_110915" data-name="Trazado 110915" d="M243.331,17.273a18.8,18.8,0,0,0-24.263,24.264,18.8,18.8,0,0,0,24.263-24.264Zm0,0" transform="translate(-166.853 -12.311)" fill="#a0a603"/>
      <g id="Grupo_61307" data-name="Grupo 61307" transform="translate(44.788 2.143)">
        <path id="Trazado_110916" data-name="Trazado 110916" d="M238.093,12.03l.564-1.485a20.392,20.392,0,0,0-26.312,26.313,1.586,1.586,0,0,0,.921.921,20.5,20.5,0,0,0,7.273,1.332,20.395,20.395,0,0,0,19.039-27.645,1.584,1.584,0,0,0-.921-.92l-.564,1.485-1.484.564a17.316,17.316,0,0,1,1.125,6.145,17.188,17.188,0,0,1-17.2,17.2,17.315,17.315,0,0,1-6.145-1.125l-.564,1.485,1.485-.564a17.329,17.329,0,0,1-1.127-6.148,17.213,17.213,0,0,1,23.341-16.068l.564-1.484-1.484.564Zm0,0" transform="translate(-206.403 -9.211)" fill="#3a3c07"/>
        <path id="Trazado_110917" data-name="Trazado 110917" d="M193.917,44.228l21.34-21.341a1.587,1.587,0,0,0,.452-1.329l-1.267-9.7a1.589,1.589,0,0,0-3.15.413l1.166,8.922L191.671,41.981a1.589,1.589,0,1,0,2.247,2.247Zm0,0" transform="translate(-191.205 -10.182)" fill="#3a3c07"/>
        <path id="Trazado_110918" data-name="Trazado 110918" d="M264.028,88.625l-13.6-2.122a1.588,1.588,0,1,0-.49,3.138l13.6,2.122a1.588,1.588,0,1,0,.49-3.138" transform="translate(-235.238 -68.504)" fill="#3a3c07"/>
      </g>
      <path id="Trazado_110919" data-name="Trazado 110919" d="M62.725,17.273A18.8,18.8,0,0,1,86.99,41.537,18.8,18.8,0,0,1,62.725,17.273Zm0,0" transform="translate(-46.887 -12.311)" fill="#a0a603"/>
      <path id="Trazado_110920" data-name="Trazado 110920" d="M57.486,12.03l.564,1.484A17.3,17.3,0,0,1,64.2,12.387a17.193,17.193,0,0,1,17.2,17.2,17.316,17.316,0,0,1-1.126,6.147l1.485.564-.564-1.485a17.316,17.316,0,0,1-6.146,1.125,17.217,17.217,0,0,1-16.07-23.341l-1.485-.564.564,1.484-.564-1.484L56,11.464A20.4,20.4,0,0,0,82.314,37.779a1.589,1.589,0,0,0,.922-.922A20.423,20.423,0,0,0,78.6,15.177a20.417,20.417,0,0,0-21.682-4.632,1.581,1.581,0,0,0-.92.919Zm0,0" transform="translate(-41.648 -7.068)" fill="#3a3c07"/>
      <path id="Trazado_110921" data-name="Trazado 110921" d="M98.9,11.862l-1.266,9.7a1.594,1.594,0,0,0,.444,1.322L118.56,43.639V54.106a1.588,1.588,0,1,0,3.177,0V42.988a1.582,1.582,0,0,0-.458-1.116L100.882,21.2l1.165-8.928a1.588,1.588,0,1,0-3.15-.411Zm0,0" transform="translate(-74.605 -8.043)" fill="#3a3c07"/>
      <path id="Trazado_110922" data-name="Trazado 110922" d="M75.313,91.764l13.6-2.121a1.589,1.589,0,0,0-.489-3.139l-13.6,2.122a1.588,1.588,0,0,0,.49,3.138" transform="translate(-56.083 -66.362)" fill="#3a3c07"/>
      <path id="Trazado_110923" data-name="Trazado 110923" d="M183.5,195.918a4.765,4.765,0,1,1-4.765-4.765A4.765,4.765,0,0,1,183.5,195.918Zm0,0" transform="translate(-133.194 -146.677)" fill="#ff927d"/>
      <path id="Trazado_110924" data-name="Trazado 110924" d="M178.264,190.681h1.588a6.354,6.354,0,1,0-6.353,6.353,6.352,6.352,0,0,0,6.353-6.353h-3.177A3.177,3.177,0,1,1,173.5,187.5a3.18,3.18,0,0,1,3.177,3.177Zm0,0" transform="translate(-127.955 -141.44)" fill="#3a3c07"/>
      <path id="Trazado_110925" data-name="Trazado 110925" d="M251.769,154.96A4.765,4.765,0,1,1,247,150.2,4.765,4.765,0,0,1,251.769,154.96Zm0,0" transform="translate(-185.576 -115.249)" fill="#529ad9"/>
      <path id="Trazado_110926" data-name="Trazado 110926" d="M246.532,149.72h1.589a6.354,6.354,0,1,0-6.354,6.353,6.353,6.353,0,0,0,6.354-6.353h-3.177a3.177,3.177,0,1,1-3.177-3.177,3.181,3.181,0,0,1,3.177,3.177Zm0,0" transform="translate(-180.34 -110.01)" fill="#3a3c07"/>
      <path id="Trazado_110927" data-name="Trazado 110927" d="M265.425,223.226a4.765,4.765,0,1,1-4.765-4.765A4.765,4.765,0,0,1,265.425,223.226Zm0,0" transform="translate(-196.055 -167.631)" fill="#529ad9"/>
      <path id="Trazado_110928" data-name="Trazado 110928" d="M260.185,217.986h1.589a6.354,6.354,0,1,0-6.354,6.352,6.353,6.353,0,0,0,6.354-6.352H258.6a3.177,3.177,0,1,1-3.177-3.177,3.182,3.182,0,0,1,3.177,3.177Zm0,0" transform="translate(-190.816 -162.392)" fill="#3a3c07"/>
      <path id="Trazado_110929" data-name="Trazado 110929" d="M108.41,161.785a4.765,4.765,0,1,1-4.765-4.765A4.765,4.765,0,0,1,108.41,161.785Zm0,0" transform="translate(-75.573 -120.486)" fill="#529ad9"/>
      <path id="Trazado_110930" data-name="Trazado 110930" d="M103.17,156.548h1.588A6.354,6.354,0,1,0,98.4,162.9a6.351,6.351,0,0,0,6.353-6.353h-3.177a3.177,3.177,0,1,1-3.177-3.177,3.18,3.18,0,0,1,3.177,3.177Zm0,0" transform="translate(-70.333 -115.249)" fill="#3a3c07"/>
    </g>
    <rect id="Rectángulo_5987" data-name="Rectángulo 5987" width="105" height="105" transform="translate(266 3161)" fill="none"/>
  </g>
</svg>
