<svg xmlns="http://www.w3.org/2000/svg" width="105" height="105" viewBox="0 0 105 105">
  <g id="Grupo_61311" data-name="Grupo 61311" transform="translate(-582 -3161)">
    <g id="Filled_outline" data-name="Filled outline" transform="translate(572 3151.002)">
      <path id="Trazado_110875" data-name="Trazado 110875" d="M230,51.9a10.852,10.852,0,0,0-7.012-10.149,9.3,9.3,0,0,0-14.05-11.255,10.85,10.85,0,0,0-19.876,0,9.3,9.3,0,0,0-14.049,11.255,10.851,10.851,0,0,0,0,20.3A9.3,9.3,0,0,0,189.062,73.3a10.85,10.85,0,0,0,19.876,0,9.3,9.3,0,0,0,14.049-11.255A10.852,10.852,0,0,0,230,51.9Z" transform="translate(-122.551 -6.45)" fill="#a0a603"/>
      <path id="Trazado_110876" data-name="Trazado 110876" d="M24,121.85a6.2,6.2,0,0,0,6.2,6.2h31a6.2,6.2,0,0,0,6.2-6.2V101.7A21.7,21.7,0,0,0,45.7,80h0A21.7,21.7,0,0,0,24,101.7Z" transform="translate(-6.45 -51.602)" fill="#784533"/>
      <path id="Trazado_110877" data-name="Trazado 110877" d="M62.416,307.4l-2.766-.553-6.5-1.3a1.55,1.55,0,0,1-1.246-1.52V296H39.5v8.029a1.55,1.55,0,0,1-1.246,1.52l-6.5,1.3-2.766.553A6.2,6.2,0,0,0,24,313.483V327a6.2,6.2,0,0,0,6.2,6.2h31a6.2,6.2,0,0,0,6.2-6.2V313.483a6.2,6.2,0,0,0-4.984-6.079Z" transform="translate(-6.45 -225.752)" fill="#fdc8a2"/>
      <path id="Trazado_110878" data-name="Trazado 110878" d="M116.4,296v8.008a15.52,15.52,0,0,1-12.4,0V296Z" transform="translate(-70.95 -225.752)" fill="#fdbf92"/>
      <path id="Trazado_110879" data-name="Trazado 110879" d="M67.4,372.15V358.633a6.2,6.2,0,0,0-4.984-6.08L59.65,352l-3.366,3.366A14.968,14.968,0,0,1,45.7,359.75h0a14.968,14.968,0,0,1-10.584-4.384L31.75,352l-2.766.553A6.2,6.2,0,0,0,24,358.633V372.15a6.2,6.2,0,0,0,6.2,6.2h31A6.2,6.2,0,0,0,67.4,372.15Z" transform="translate(-6.45 -270.902)" fill="#de5540"/>
      <path id="Trazado_110880" data-name="Trazado 110880" d="M65.3,144H77.7a9.3,9.3,0,0,1,9.3,9.3v10.85a15.5,15.5,0,0,1-15.5,15.5h0A15.5,15.5,0,0,1,56,164.15V153.3a9.3,9.3,0,0,1,9.3-9.3Z" transform="translate(-32.25 -103.202)" fill="#fdc8a2"/>
      <path id="Trazado_110881" data-name="Trazado 110881" d="M67.4,101.7v20.15a6.2,6.2,0,0,1-6.2,6.2V104.8H59.747c-.054,0-.109,0-.161,0A14.155,14.155,0,0,1,45.7,92.4a14.151,14.151,0,0,1-13.95,12.4c-.033,0-.064,0-.1,0H30.2v23.25a6.2,6.2,0,0,1-6.2-6.2V101.7A21.7,21.7,0,0,1,44.152,80.056C44.661,80.017,45.179,80,45.7,80s1.038.017,1.55.056A21.7,21.7,0,0,1,67.4,101.7Z" transform="translate(-6.45 -51.602)" fill="#844e3a"/>
      <path id="Trazado_110882" data-name="Trazado 110882" d="M48,177.931v3.124h3.1v-3.124a15.818,15.818,0,0,1,.25-2.8l-3.05-.553A18.924,18.924,0,0,0,48,177.931Z" transform="translate(-25.8 -127.857)" fill="#784533"/>
      <path id="Trazado_110883" data-name="Trazado 110883" d="M30.136,391.25h0A6.136,6.136,0,0,1,24,385.114h0a14.909,14.909,0,0,1,1.285-6.055L30.2,368H41.05l-4.985,18.7a6.136,6.136,0,0,1-5.929,4.555Z" transform="translate(-6.45 -283.802)" fill="#e86954"/>
      <path id="Trazado_110884" data-name="Trazado 110884" d="M56,316.4l3.518-9.383A4.65,4.65,0,0,1,63.872,304H71.9a2.7,2.7,0,0,1,2.7,2.7h0a2.7,2.7,0,0,1-1.848,2.564l-2.8.934h0a7.484,7.484,0,0,1-2.192,5.292l-.908.908Z" transform="translate(-32.25 -232.202)" fill="#ffd4b5"/>
      <path id="Trazado_110885" data-name="Trazado 110885" d="M148.4,414.2H136v-3.1h10.85V408h3.1v4.65A1.55,1.55,0,0,1,148.4,414.2Z" transform="translate(-96.75 -316.052)" fill="#d64a34"/>
      <path id="Trazado_110886" data-name="Trazado 110886" d="M77.95,423.5H66.325A2.325,2.325,0,0,1,64,421.175v-6.2a2.325,2.325,0,0,1,2.325-2.325H71.75v-2.015A2.634,2.634,0,0,1,74.383,408h.057a2.706,2.706,0,0,1,2.577,1.848c.431,1.3.933,2.8.933,2.8Z" transform="translate(-38.7 -316.052)" fill="#fdc8a2"/>
      <path id="Trazado_110887" data-name="Trazado 110887" d="M109,45.448a12.474,12.474,0,0,1-6.617,10.966,10.856,10.856,0,0,1-15.4,12.632,12.4,12.4,0,0,1-21.886-1.572l2.839-1.245a9.3,9.3,0,0,0,17.036,0,1.55,1.55,0,0,1,2.348-.619A7.751,7.751,0,0,0,99.023,56.23a1.55,1.55,0,0,1,.866-2.083,9.3,9.3,0,0,0,0-17.4,1.55,1.55,0,0,1-.866-2.083,7.75,7.75,0,0,0-11.708-9.381,1.55,1.55,0,0,1-2.348-.619,9.3,9.3,0,0,0-17.036,0,1.55,1.55,0,0,1-2.348.619,7.679,7.679,0,0,0-4.634-1.538,7.78,7.78,0,0,0-6.714,3.876l-2.683-1.552a10.889,10.889,0,0,1,9.4-5.424,10.765,10.765,0,0,1,4.971,1.2,12.4,12.4,0,0,1,21.057,0,10.855,10.855,0,0,1,15.4,12.632A12.474,12.474,0,0,1,109,45.448Zm-38.75.775a2.325,2.325,0,1,0-2.325,2.325,2.325,2.325,0,0,0,2.325-2.325Zm7.75,0a2.325,2.325,0,1,0-2.325,2.325A2.325,2.325,0,0,0,78,46.223Zm7.75,0a2.325,2.325,0,1,0-2.325,2.325,2.325,2.325,0,0,0,2.325-2.325Zm7.75,0a2.325,2.325,0,1,0-2.325,2.325A2.325,2.325,0,0,0,93.5,46.223Zm-62,8.525a3.1,3.1,0,1,0,3.1,3.1A3.1,3.1,0,0,0,31.5,54.748Zm15.5,6.2a3.1,3.1,0,1,0-3.1-3.1A3.1,3.1,0,0,0,47,60.948ZM62.5,50.1v20.15A7.759,7.759,0,0,1,54.75,78H47v.279l9.27,1.852a7.775,7.775,0,0,1,6.23,7.6V93.5H59.4V87.73a4.665,4.665,0,0,0-3.738-4.56l-1.952-.39-2.78,2.78a16.5,16.5,0,0,1-16.21,4.2l-.215.805a4.2,4.2,0,0,1,1.178-.169h.057a4.255,4.255,0,0,1,4.046,2.908l.581,1.742H50.1v-3.1h3.1V96.6a1.55,1.55,0,0,1-1.55,1.55H40.8v7.75H54.75a4.655,4.655,0,0,0,4.65-4.65V96.6h3.1v4.65A7.759,7.759,0,0,1,54.75,109h-31A7.758,7.758,0,0,1,16,101.312h0V87.73a7.774,7.774,0,0,1,6.228-7.6l1.5-.3L24.42,78h-.67A7.759,7.759,0,0,1,16,70.248V50.1a23.219,23.219,0,0,1,3.322-11.983l2.656,1.6A20.114,20.114,0,0,0,19.1,50.1v20.15a4.658,4.658,0,0,0,3.1,4.384V50.074a18.928,18.928,0,0,1,.3-3.349l3.051.548a15.812,15.812,0,0,0-.25,2.8v1.572A12.625,12.625,0,0,0,37.6,41.327a65.5,65.5,0,0,1-8.384,6.262l-1.628-2.639A66.555,66.555,0,0,0,37.7,37.041V34.795a14.852,14.852,0,0,0-1.545.392,15.356,15.356,0,0,0-9.818,9.265l-2.9-1.107A18.44,18.44,0,0,1,35.236,32.226a17.538,17.538,0,0,1,2.464-.58V30.009a20.115,20.115,0,0,0-13.886,7.137l-2.373-1.994A23.25,23.25,0,0,1,62.5,50.1ZM40.8,40.686A12.623,12.623,0,0,0,53.135,51.644s-.006-1.817-.009-1.941A39.69,39.69,0,0,1,42.8,41.894L45,39.7a42.044,42.044,0,0,0,7.4,6.064A16.989,16.989,0,0,0,40.8,34.977ZM25.3,74.9h.282l.235-.627a6.144,6.144,0,0,1,.969-1.693A17.028,17.028,0,0,1,25.3,70.749ZM19.1,90.844l3.216-7.235.128-.342A4.667,4.667,0,0,0,19.1,87.73Zm4.65,14.279v-6.2a3.879,3.879,0,0,1,3.875-3.875H30.1l2.48-9.3H24.757L20.251,95.887A13.388,13.388,0,0,0,19.1,101.28a4.655,4.655,0,0,0,4.65,4.618h.078A3.884,3.884,0,0,1,23.75,105.123ZM34.6,96.6a1.55,1.55,0,0,1-1.55,1.55H27.625a.775.775,0,0,0-.775.775v6.2a.775.775,0,0,0,.775.775H37.7V96.85l-.854-2.564a1.159,1.159,0,0,0-1.1-.788h-.057A1.084,1.084,0,0,0,34.6,94.582ZM36.15,78a1.55,1.55,0,0,1,1.06-1.471l2.8-.934a1.152,1.152,0,0,0-.364-2.245H31.622a3.115,3.115,0,0,0-2.9,2.012l-2.733,7.288h7.971l.454-.454A5.894,5.894,0,0,0,36.15,78Zm10.242,3.32A3.11,3.11,0,0,1,43.9,78.277v-.926q-.712.2-1.443.341a4.249,4.249,0,0,1-1.465.842l-1.813.6A8.968,8.968,0,0,1,36.6,84.386L35.99,85l-.471,1.767a13.407,13.407,0,0,0,13.22-3.4l1.317-1.317ZM53.2,70.747c-.319.455-.66.9-1.026,1.321a17.1,17.1,0,0,1-3.128,2.83H53.2Zm0-16a15.74,15.74,0,0,1-13.95-8.682A15.74,15.74,0,0,1,25.3,54.748v6.2a13.946,13.946,0,0,0,3.991,9.761,6.154,6.154,0,0,1,2.331-.461h8.025a4.258,4.258,0,0,1,4.233,3.86A13.954,13.954,0,0,0,53.2,60.948Zm6.2-4.65A20.177,20.177,0,0,0,40.8,30.007v1.776a20.467,20.467,0,0,1,10.829,6.545,18.409,18.409,0,0,1,4.606,11.746L56.3,74.632a4.658,4.658,0,0,0,3.1-4.384ZM34.6,67.148h9.3v-3.1H34.6Z" fill="#3a3c07"/>
    </g>
    <rect id="Rectángulo_6027" data-name="Rectángulo 6027" width="105" height="105" transform="translate(582 3161)" fill="none"/>
  </g>
</svg>
